<?xml version="1.0" encoding="UTF-8" standalone="no"?>
<!-- Created with Inkscape (http://www.inkscape.org/) -->

<svg
   xmlns:dc="http://purl.org/dc/elements/1.1/"
   xmlns:cc="http://creativecommons.org/ns#"
   xmlns:rdf="http://www.w3.org/1999/02/22-rdf-syntax-ns#"
   xmlns:svg="http://www.w3.org/2000/svg"
   xmlns="http://www.w3.org/2000/svg"
   xmlns:xlink="http://www.w3.org/1999/xlink"
   xmlns:sodipodi="http://sodipodi.sourceforge.net/DTD/sodipodi-0.dtd"
   xmlns:inkscape="http://www.inkscape.org/namespaces/inkscape"
   width="210mm"
   height="297mm"
   viewBox="0 0 210 297"
   version="1.1"
   id="svg23521"
   inkscape:version="0.92.3 (2405546, 2018-03-11)"
   sodipodi:docname="bB.svg">
  <defs
     id="defs23515">
    <linearGradient
       inkscape:collect="always"
       xlink:href="#linearGradient5219"
       id="linearGradient23064"
       x1="1842.3164"
       y1="567.95508"
       x2="1801.4286"
       y2="616.80542"
       gradientUnits="userSpaceOnUse"
       gradientTransform="matrix(0.27667754,0,0,0.27667754,-405.33059,-88.911571)" />
    <linearGradient
       inkscape:collect="always"
       id="linearGradient5219">
      <stop
         style="stop-color:#000000;stop-opacity:1;"
         offset="0"
         id="stop5215" />
      <stop
         style="stop-color:#b3b3b3;stop-opacity:1"
         offset="1"
         id="stop5217" />
    </linearGradient>
    <linearGradient
       inkscape:collect="always"
       xlink:href="#linearGradient6689"
       id="linearGradient23080"
       x1="1882.123"
       y1="735.74219"
       x2="1704.2858"
       y2="773.94824"
       gradientUnits="userSpaceOnUse"
       gradientTransform="matrix(0.27667754,0,0,0.27667754,-405.33059,-90.018267)" />
    <linearGradient
       id="linearGradient6689"
       inkscape:collect="always">
      <stop
         id="stop6685"
         offset="0"
         style="stop-color:#000000;stop-opacity:1;" />
      <stop
         id="stop6687"
         offset="1"
         style="stop-color:#999999;stop-opacity:1" />
    </linearGradient>
    <linearGradient
       inkscape:collect="always"
       xlink:href="#linearGradient6689"
       id="linearGradient23072"
       x1="1917.1428"
       y1="601.09113"
       x2="1710"
       y2="752.51971"
       gradientUnits="userSpaceOnUse"
       gradientTransform="matrix(0.27667754,0,0,0.27667754,-405.33059,-88.911571)" />
    <linearGradient
       inkscape:collect="always"
       xlink:href="#linearGradient6683"
       id="linearGradient23088"
       x1="1814.0198"
       y1="921.29382"
       x2="1717.3691"
       y2="1028.3125"
       gradientUnits="userSpaceOnUse"
       gradientTransform="matrix(0.27667754,0,0,0.27667754,-405.33059,-91.124987)" />
    <linearGradient
       id="linearGradient6683"
       inkscape:collect="always">
      <stop
         id="stop6679"
         offset="0"
         style="stop-color:#000000;stop-opacity:1;" />
      <stop
         id="stop6681"
         offset="1"
         style="stop-color:#808080;stop-opacity:1" />
    </linearGradient>
    <linearGradient
       gradientTransform="matrix(0.27667754,0,0,0.27667754,-405.33059,-93.891757)"
       inkscape:collect="always"
       xlink:href="#linearGradient5219"
       id="linearGradient23106"
       x1="1961.0195"
       y1="1027.7188"
       x2="1684.0996"
       y2="1164.2949"
       gradientUnits="userSpaceOnUse" />
    <linearGradient
       inkscape:collect="always"
       xlink:href="#linearGradient6689"
       id="linearGradient23114"
       x1="1986.8926"
       y1="1166.7734"
       x2="1627.1428"
       y2="1258.234"
       gradientUnits="userSpaceOnUse"
       gradientTransform="matrix(0.27667754,0,0,0.27667754,-405.33059,-94.998467)" />
    <radialGradient
       inkscape:collect="always"
       xlink:href="#linearGradient15709"
       id="radialGradient23098"
       cx="1840.5992"
       cy="982.91565"
       fx="1840.5992"
       fy="982.91565"
       r="88.264076"
       gradientTransform="matrix(0.32186237,0,0,0.38339268,-488.35451,-179.9616)"
       gradientUnits="userSpaceOnUse" />
    <linearGradient
       inkscape:collect="always"
       id="linearGradient15709">
      <stop
         style="stop-color:#cccccc;stop-opacity:1"
         offset="0"
         id="stop15705" />
      <stop
         style="stop-color:#000000;stop-opacity:1"
         offset="1"
         id="stop15707" />
    </linearGradient>
  </defs>
  <sodipodi:namedview
     id="base"
     pagecolor="#ffffff"
     bordercolor="#666666"
     borderopacity="1.0"
     inkscape:pageopacity="0.0"
     inkscape:pageshadow="2"
     inkscape:zoom="0.35"
     inkscape:cx="-574.28572"
     inkscape:cy="560"
     inkscape:document-units="mm"
     inkscape:current-layer="layer1"
     showgrid="false"
     inkscape:window-width="1920"
     inkscape:window-height="1017"
     inkscape:window-x="0"
     inkscape:window-y="0"
     inkscape:window-maximized="1" />
  <metadata
     id="metadata23518">
    <rdf:RDF>
      <cc:Work
         rdf:about="">
        <dc:format>image/svg+xml</dc:format>
        <dc:type
           rdf:resource="http://purl.org/dc/dcmitype/StillImage" />
        <dc:title />
      </cc:Work>
    </rdf:RDF>
  </metadata>
  <g
     inkscape:label="Layer 1"
     inkscape:groupmode="layer"
     id="layer1">
    <path
       style="opacity:1;vector-effect:none;fill:url(#radialGradient23098);fill-opacity:1;stroke:#000000;stroke-width:0;stroke-linecap:round;stroke-linejoin:miter;stroke-miterlimit:4;stroke-dasharray:none;stroke-dashoffset:0;stroke-opacity:1;paint-order:markers fill stroke"
       d="m 96.624659,127.39996 a 153.89344,139.85068 0 0 1 0.22943,5.894 153.89344,139.85068 0 0 1 -0.76882,13.9612 153.89344,139.85068 0 0 1 -2.29894,13.8227 153.89344,139.85068 0 0 1 -3.80576,13.5448 153.89344,139.85068 0 0 1 -5.27428,13.1313 153.89344,139.85068 0 0 1 -3.26264,6.1378 153.89344,139.85068 0 0 1 -3.42858,6.4498 153.89344,139.85068 0 0 1 -3.71086,5.5007 153.89344,139.85068 0 0 1 -1.87522,2.7787 23.726531,21.561489 0 0 1 0.7701,0.1788 23.726531,21.561489 0 0 1 2.22789,0.7392 23.726531,21.561489 0 0 1 0.91968,0.404 112.71764,102.43218 0 0 0 1.47291,0.3416 112.71764,102.43218 0 0 0 11.14073,1.5304 112.71764,102.43218 0 0 0 2.26683,0.1025 112.71764,102.43218 0 0 0 8.985771,0.4084 112.71764,102.43218 0 0 0 7.97361,-0.2565 112.71764,102.43218 0 0 0 2.71572,-0.2993 112.71764,102.43218 0 0 0 8.469,-0.934 112.71764,102.43218 0 0 0 6.67298,-1.3614 23.726531,21.561489 0 0 1 0.42434,-0.1726 23.726531,21.561489 0 0 1 2.25053,-0.6798 23.726531,21.561489 0 0 1 0.0201,0 153.89344,139.85068 0 0 1 -1.25918,-1.9949 153.89344,139.85068 0 0 1 -6.2455,-9.8944 153.89344,139.85068 0 0 1 -1.05613,-2.1446 153.89344,139.85068 0 0 1 -5.22771,-10.6148 153.89344,139.85068 0 0 1 -4.85059,-13.2662 153.89344,139.85068 0 0 1 -3.36887,-13.6397 153.89344,139.85068 0 0 1 -1.85382,-13.8775 153.89344,139.85068 0 0 1 -0.38538,-9.8927 153.89344,139.85068 0 0 1 0.32312,-5.8727 153.89344,139.85068 0 0 1 -4.52178,0.1457 153.89344,139.85068 0 0 1 -3.668721,-0.1668 z"
       id="path22857"
       inkscape:connector-curvature="0" />
    <path
       style="opacity:1;vector-effect:none;fill:url(#linearGradient23114);fill-opacity:1;stroke:#000000;stroke-width:0;stroke-linecap:round;stroke-linejoin:miter;stroke-miterlimit:4;stroke-dasharray:none;stroke-dashoffset:0;stroke-opacity:1;paint-order:markers fill stroke"
       d="m 59.058799,238.09196 a 7.9787612,7.9787612 0 0 0 -0.54469,0.067 7.9787612,7.9787612 0 0 0 -0.29616,0.067 7.9787612,7.9787612 0 0 0 -0.482,0.108 7.9787612,7.9787612 0 0 0 -0.7571,0.2518 7.9787612,7.9787612 0 0 0 -0.72788,0.3253 7.9787612,7.9787612 0 0 0 -0.6917,0.3973 7.9787612,7.9787612 0 0 0 -0.64899,0.4635 7.9787612,7.9787612 0 0 0 -0.59877,0.5265 7.9787612,7.9787612 0 0 0 -0.54361,0.5836 7.9787612,7.9787612 0 0 0 -0.48311,0.6349 7.9787612,7.9787612 0 0 0 -0.41665,0.6798 7.9787612,7.9787612 0 0 0 -0.34693,0.7181 7.9787612,7.9787612 0 0 0 -0.27344,0.7496 7.9787612,7.9787612 0 0 0 -0.19724,0.7728 7.9787612,7.9787612 0 0 0 -0.11941,0.7883 7.9787612,7.9787612 0 0 0 -0.0394,0.7967 7.9787612,7.9787612 0 0 0 0.02,0.5646 7.9787612,7.9787612 0 0 0 0.0957,0.7916 7.9787612,7.9787612 0 0 0 0.17509,0.7783 7.9787612,7.9787612 0 0 0 0.25128,0.7564 7.9787612,7.9787612 0 0 0 0.32584,0.7279 7.9787612,7.9787612 0 0 0 0.34748,0.6069 180.52229,180.52229 0 0 0 4.64138,1.1851 180.52229,180.52229 0 0 0 6.02368,1.5379 180.52229,180.52229 0 0 0 0.32476,0.083 180.52229,180.52229 0 0 0 17.84191,2.6966 180.52229,180.52229 0 0 0 18.022421,0.9019 180.52229,180.52229 0 0 0 12.76931,-0.4524 180.52229,180.52229 0 0 0 17.91326,-2.1744 180.52229,180.52229 0 0 0 4.51168,-1.0128 180.52229,180.52229 0 0 0 8.17387,-1.8346 180.52229,180.52229 0 0 0 2.12373,-0.4765 7.9787612,7.9787612 0 0 0 0.13238,-0.174 7.9787612,7.9787612 0 0 0 0.41663,-0.6798 7.9787612,7.9787612 0 0 0 0.34692,-0.7182 7.9787612,7.9787612 0 0 0 0.27344,-0.7496 7.9787612,7.9787612 0 0 0 0.19725,-0.7727 7.9787612,7.9787612 0 0 0 0.11944,-0.7884 7.9787612,7.9787612 0 0 0 0.0394,-0.7965 7.9787612,7.9787612 0 0 0 -0.02,-0.5642 7.9787612,7.9787612 0 0 0 -0.0957,-0.7917 7.9787612,7.9787612 0 0 0 -0.17509,-0.7787 7.9787612,7.9787612 0 0 0 -0.25126,-0.7565 7.9787612,7.9787612 0 0 0 -0.32589,-0.7279 7.9787612,7.9787612 0 0 0 -0.39665,-0.6917 7.9787612,7.9787612 0 0 0 -0.46417,-0.649 7.9787612,7.9787612 0 0 0 -0.52635,-0.5993 7.9787612,7.9787612 0 0 0 -0.58361,-0.5436 7.9787612,7.9787612 0 0 0 -0.63494,-0.4826 7.9787612,7.9787612 0 0 0 -0.67983,-0.4166 7.9787612,7.9787612 0 0 0 -0.61549,-0.2973 7.9787612,7.9787612 0 0 0 -0.10269,-0.05 7.9787612,7.9787612 0 0 0 -0.73275,-0.2675 154.53662,154.53662 0 0 1 -7.76158,1.7423 154.53662,154.53662 0 0 1 -6.80992,1.5282 154.53662,154.53662 0 0 1 -0.54473,0.066 154.53663,154.53663 0 0 1 -1.58006,0.1919 154.53662,154.53662 0 0 1 -13.21029,1.6039 154.53662,154.53662 0 0 1 -10.93147,0.387 154.53662,154.53662 0 0 1 -15.428011,-0.7723 154.53662,154.53662 0 0 1 -8.45867,-1.2781 154.53662,154.53662 0 0 1 -1.21046,-0.1831 154.53662,154.53662 0 0 1 -5.60433,-0.8468 154.53662,154.53662 0 0 1 -5.4325,-1.3871 154.53662,154.53662 0 0 1 -5.34334,-1.3646 z"
       id="path22905"
       inkscape:connector-curvature="0" />
    <path
       inkscape:connector-curvature="0"
       style="opacity:1;vector-effect:none;fill:url(#linearGradient23106);fill-opacity:1;stroke:#000000;stroke-width:0;stroke-linecap:round;stroke-linejoin:miter;stroke-miterlimit:4;stroke-dasharray:none;stroke-dashoffset:0;stroke-opacity:1;paint-order:markers fill stroke"
       d="m 70.937009,203.01716 a 20.395665,20.395665 0 0 0 -1.44226,0.051 20.395665,20.395665 0 0 0 -2.02432,0.2458 20.395665,20.395665 0 0 0 -1.98914,0.4463 20.395665,20.395665 0 0 0 -0.30964,0.1025 20.395665,20.395665 0 0 0 -1.62495,0.5404 20.395665,20.395665 0 0 0 -1.8611,0.8327 20.395665,20.395665 0 0 0 -1.76813,1.0144 20.395665,20.395665 0 0 0 -1.65843,1.1856 20.395665,20.395665 0 0 0 -1.53147,1.3455 20.395665,20.395665 0 0 0 -1.38986,1.492 20.395665,20.395665 0 0 0 -1.23371,1.6227 20.395665,20.395665 0 0 0 -1.06565,1.7385 20.395665,20.395665 0 0 0 -0.88675,1.8357 20.395665,20.395665 0 0 0 -0.69928,1.9151 20.395665,20.395665 0 0 0 -0.50416,1.9751 20.395665,20.395665 0 0 0 -0.30478,2.0156 20.395665,20.395665 0 0 0 -0.0611,1.2251 20.395665,20.395665 0 0 0 -0.0406,0.8111 20.395665,20.395665 0 0 0 0.0508,1.4428 20.395665,20.395665 0 0 0 0.24588,2.0238 20.395665,20.395665 0 0 0 0.44634,1.9897 20.395665,20.395665 0 0 0 0.64308,1.9346 20.395665,20.395665 0 0 0 0.38906,0.8689 20.395665,20.395665 0 0 0 0.44366,0.9916 20.395665,20.395665 0 0 0 1.01429,1.7687 20.395665,20.395665 0 0 0 1.18617,1.6585 20.395665,20.395665 0 0 0 1.34502,1.5314 20.395665,20.395665 0 0 0 1.29206,1.2034 154.53661,154.53661 0 0 0 1.46066,0.3729 154.53663,154.53663 0 0 0 5.34334,1.3644 154.53661,154.53661 0 0 0 5.4325,1.3873 154.53661,154.53661 0 0 0 5.60433,0.8467 154.53662,154.53662 0 0 0 1.21046,0.1832 154.53661,154.53661 0 0 0 8.45867,1.2781 154.53661,154.53661 0 0 0 15.428001,0.7721 154.53661,154.53661 0 0 0 10.93148,-0.3869 154.53661,154.53661 0 0 0 13.21028,-1.6038 154.53661,154.53661 0 0 0 1.58007,-0.1919 154.53661,154.53661 0 0 0 0.54473,-0.066 154.53661,154.53661 0 0 0 6.80991,-1.5282 154.53663,154.53663 0 0 0 7.76159,-1.7422 154.53661,154.53661 0 0 0 0.50039,-0.1123 154.53661,154.53661 0 0 0 1.50875,-0.5016 20.395665,20.395665 0 0 0 0.97269,-0.8543 20.395665,20.395665 0 0 0 1.3899,-1.4915 20.395665,20.395665 0 0 0 1.23367,-1.6227 20.395665,20.395665 0 0 0 1.06566,-1.7385 20.395665,20.395665 0 0 0 0.73058,-1.5131 20.395665,20.395665 0 0 0 0.15619,-0.3226 20.395665,20.395665 0 0 0 0.69925,-1.9151 20.395665,20.395665 0 0 0 0.50418,-1.9751 20.395665,20.395665 0 0 0 0.3048,-2.0161 20.395665,20.395665 0 0 0 0.10154,-2.0363 20.395665,20.395665 0 0 0 -0.0281,-0.7997 20.395666,20.395666 0 0 0 -0.0227,-0.6426 20.395666,20.395666 0 0 0 -0.24588,-2.0242 20.395666,20.395666 0 0 0 -0.44637,-1.9891 20.395666,20.395666 0 0 0 -0.64304,-1.9347 20.395666,20.395666 0 0 0 -0.83276,-1.8611 20.395666,20.395666 0 0 0 -1.01429,-1.7681 20.395666,20.395666 0 0 0 -1.18614,-1.6584 20.395666,20.395666 0 0 0 -1.34557,-1.5315 20.395666,20.395666 0 0 0 -1.49145,-1.3898 20.395666,20.395666 0 0 0 -1.11915,-0.8506 20.395666,20.395666 0 0 0 -0.50366,-0.3832 20.395666,20.395666 0 0 0 -1.73842,-1.0656 20.395666,20.395666 0 0 0 -1.83567,-0.8868 20.395666,20.395666 0 0 0 -1.91514,-0.6993 20.395666,20.395666 0 0 0 -0.35179,-0.09 20.395666,20.395666 0 0 0 -1.62333,-0.4144 20.395666,20.395666 0 0 0 -2.01617,-0.3048 20.395666,20.395666 0 0 0 -2.03618,-0.1015 20.395666,20.395666 0 0 0 -1.32772,0.047 20.395665,20.395665 0 0 0 -0.11455,0 20.395665,20.395665 0 0 0 -0.94297,0.1146 96.893711,96.893711 0 0 1 -1.65574,0.55 96.893711,96.893711 0 0 1 -1.24561,0.28 96.893711,96.893711 0 0 1 -2.46848,0.5539 96.893711,96.893711 0 0 1 -5.7362,1.2878 96.893711,96.893711 0 0 1 -7.28008,0.8835 96.893711,96.893711 0 0 1 -2.33446,0.2832 96.893711,96.893711 0 0 1 -6.85425,0.2426 96.893711,96.893711 0 0 1 -7.724281,-0.3864 96.893711,96.893711 0 0 1 -1.94861,-0.097 96.893711,96.893711 0 0 1 -9.57672,-1.4476 96.893711,96.893711 0 0 1 -1.26614,-0.3232 96.893711,96.893711 0 0 1 -3.57412,-0.9127 96.893711,96.893711 0 0 1 -3.99993,-1.0213 20.395665,20.395665 0 0 0 -1.15913,-0.057 z"
       id="path22889" />
    <path
       style="opacity:1;vector-effect:none;fill:url(#linearGradient23088);fill-opacity:1;stroke:#000000;stroke-width:0;stroke-linecap:round;stroke-linejoin:miter;stroke-miterlimit:4;stroke-dasharray:none;stroke-dashoffset:0;stroke-opacity:1;paint-order:markers fill stroke"
       d="m 115.25353,128.83726 a 132.28901,132.28901 0 0 1 -5.64054,0.6847 132.28901,132.28901 0 0 1 -5.47088,0.1941 132.28901,132.28901 0 0 0 -0.27776,5.5551 132.28901,132.28901 0 0 0 0.33127,9.3578 132.28901,132.28901 0 0 0 1.59358,13.127 132.28901,132.28901 0 0 0 2.89593,12.9023 132.28901,132.28901 0 0 0 4.16963,12.5489 132.28901,132.28901 0 0 0 4.49383,10.0409 132.28901,132.28901 0 0 0 0.90786,2.0286 132.28901,132.28901 0 0 0 5.36873,9.3595 132.28901,132.28901 0 0 0 1.0824,1.887 20.395667,20.395667 0 0 1 1.97185,-0.4426 20.395667,20.395667 0 0 1 1.08134,-0.1313 96.893711,96.893711 0 0 0 0.66142,-0.2199 96.893711,96.893711 0 0 0 5.79347,-1.9243 132.28901,132.28901 0 0 1 -4.89211,-8.5284 132.28901,132.28901 0 0 1 -5.40168,-12.0695 132.28901,132.28901 0 0 1 -1.77464,-5.3412 132.28901,132.28901 0 0 1 -2.395,-7.2077 132.28901,132.28901 0 0 1 -2.89593,-12.9023 132.28901,132.28901 0 0 1 -1.59358,-13.127 132.28901,132.28901 0 0 1 -0.33127,-9.3578 132.28901,132.28901 0 0 1 0.32208,-6.4339 z m -29.242441,0.1989 a 132.28901,132.28901 0 0 1 0.22046,6.235 132.28901,132.28901 0 0 1 -0.66087,13.2065 132.28901,132.28901 0 0 1 -1.97619,13.0751 132.28901,132.28901 0 0 1 -3.2715,12.8126 132.28901,132.28901 0 0 1 -0.92299,2.5279 132.28901,132.28901 0 0 1 -3.61084,9.8934 132.28901,132.28901 0 0 1 -5.75188,11.9068 132.28901,132.28901 0 0 1 -3.23421,5.2758 96.893711,96.893711 0 0 0 3.79404,1.3851 96.893711,96.893711 0 0 0 0.95487,0.3485 96.893711,96.893711 0 0 0 0.54417,0.1389 20.395667,20.395667 0 0 1 0.87705,0.044 20.395667,20.395667 0 0 1 2.01617,0.3047 20.395667,20.395667 0 0 1 1.31314,0.3352 132.28901,132.28901 0 0 0 1.61197,-2.6285 132.28901,132.28901 0 0 0 3.18991,-5.2034 132.28901,132.28901 0 0 0 2.94725,-6.101 132.28901,132.28901 0 0 0 2.80462,-5.8059 132.28901,132.28901 0 0 0 4.53383,-12.4212 132.28901,132.28901 0 0 0 3.2715,-12.8126 132.28901,132.28901 0 0 0 1.97619,-13.0752 132.28901,132.28901 0 0 0 0.660881,-13.2065 132.28901,132.28901 0 0 0 -0.19722,-5.5751 132.28901,132.28901 0 0 1 -10.053361,-0.5031 132.28901,132.28901 0 0 1 -1.03699,-0.1568 z"
       id="path22859"
       inkscape:connector-curvature="0" />
    <path
       style="opacity:1;vector-effect:none;fill:url(#linearGradient23072);fill-opacity:1;stroke:#000000;stroke-width:0;stroke-linecap:round;stroke-linejoin:miter;stroke-miterlimit:4;stroke-dasharray:none;stroke-dashoffset:0;stroke-opacity:1;paint-order:markers fill stroke"
       d="m 98.93874,86.549433 a 113.24141,113.24141 0 0 0 -2.710031,3.56439 113.24141,113.24141 0 0 0 -5.01478,8.179223 113.24141,113.24141 0 0 0 -0.90191,1.47048 113.24141,113.24141 0 0 0 -4.92345,10.192744 113.24141,113.24141 0 0 0 -1.37097,3.75569 132.28901,132.28901 0 0 1 0.28911,1.2877 132.28901,132.28901 0 0 1 0.55715,4.5917 20.395664,20.395664 0 0 0 0.65279,0.7424 20.395664,20.395664 0 0 0 1.49146,1.3899 20.395664,20.395664 0 0 0 1.62331,1.2337 20.395664,20.395664 0 0 0 1.73787,1.0657 20.395664,20.395664 0 0 0 1.66438,0.804 132.28901,132.28901 0 0 1 4.51386,-0.1599 132.28901,132.28901 0 0 1 2.632231,-0.093 132.28901,132.28901 0 0 1 5.31738,0.2659 132.28901,132.28901 0 0 1 3.32445,0.1664 20.395664,20.395664 0 0 0 1.57739,-0.7057 20.395664,20.395664 0 0 0 1.76813,-1.0143 20.395664,20.395664 0 0 0 1.65847,-1.1856 20.395664,20.395664 0 0 0 1.53198,-1.3455 20.395664,20.395664 0 0 0 1.38934,-1.4921 20.395664,20.395664 0 0 0 0.75328,-0.9905 132.28901,132.28901 0 0 1 0.87328,-5.7789 113.24141,113.24141 0 0 0 -4.38793,-9.80527 113.24141,113.24141 0 0 0 -2.92186,-5.094184 113.24141,113.24141 0 0 0 -2.71058,-4.72463 113.24141,113.24141 0 0 0 -4.24042,-5.930202 4.2525217,4.2525217 0 0 1 -0.19885,0.0892 4.2525217,4.2525217 0 0 1 -0.40314,0.13402 4.2525217,4.2525217 0 0 1 -0.41502,0.093 4.2525217,4.2525217 0 0 1 -0.42149,0.0514 4.2525217,4.2525217 0 0 1 -0.30099,0.0105 4.2525217,4.2525217 0 0 1 -0.42476,-0.0211 4.2525217,4.2525217 0 0 1 -0.42041,-0.0638 4.2525217,4.2525217 0 0 1 -0.41178,-0.10483 4.2525217,4.2525217 0 0 1 -0.39933,-0.14591 4.2525217,4.2525217 0 0 1 -0.38259,-0.1848 4.2525217,4.2525217 0 0 1 -0.36206,-0.2221 4.2525217,4.2525217 0 0 1 -0.0335,-0.0254 z"
       id="path22973"
       inkscape:connector-curvature="0" />
    <path
       style="opacity:1;vector-effect:none;fill:url(#linearGradient23080);fill-opacity:1;stroke:#000000;stroke-width:0;stroke-linecap:round;stroke-linejoin:miter;stroke-miterlimit:4;stroke-dasharray:none;stroke-dashoffset:0;stroke-opacity:1;paint-order:markers fill stroke"
       d="m 99.17976,123.46746 a 132.28901,132.28901 0 0 0 -2.632231,0.093 132.28901,132.28901 0 0 0 -4.51386,0.16 132.28901,132.28901 0 0 0 -2.21179,0.078 132.28901,132.28901 0 0 0 -4.25012,0.5161 132.28901,132.28901 0 0 0 -2.5663,0.3113 132.28901,132.28901 0 0 0 -2.90188,0.3523 132.28901,132.28901 0 0 0 -3.40874,0.4139 132.28901,132.28901 0 0 0 -1.90703,0.428 4.2525217,4.2525217 0 0 0 -0.0152,0.2966 4.2525217,4.2525217 0 0 0 0.0108,0.301 4.2525217,4.2525217 0 0 0 0.0513,0.422 4.2525217,4.2525217 0 0 0 0.093,0.4146 4.2525217,4.2525217 0 0 0 0.13403,0.4036 4.2525217,4.2525217 0 0 0 0.174,0.388 4.2525217,4.2525217 0 0 0 0.21127,0.3686 4.2525217,4.2525217 0 0 0 0.10539,0.1475 132.28901,132.28901 0 0 0 3.50115,0.5291 132.28901,132.28901 0 0 0 2.57169,0.3884 132.28901,132.28901 0 0 0 4.38578,0.6631 132.28901,132.28901 0 0 0 1.03699,0.1567 132.28901,132.28901 0 0 0 10.053361,0.5032 132.28901,132.28901 0 0 0 3.15368,0.1578 132.28901,132.28901 0 0 0 3.88699,-0.1379 132.28901,132.28901 0 0 0 5.47088,-0.1939 132.28901,132.28901 0 0 0 5.64053,-0.6848 132.28901,132.28901 0 0 0 4.26851,-0.5176 132.28901,132.28901 0 0 0 3.09155,-0.3756 132.28901,132.28901 0 0 0 0.12646,-0.015 132.28901,132.28901 0 0 0 3.06126,-0.6868 4.2525217,4.2525217 0 0 0 0.11781,-0.1929 4.2525217,4.2525217 0 0 0 0.18483,-0.3826 4.2525217,4.2525217 0 0 0 0.1459,-0.3993 4.2525217,4.2525217 0 0 0 0.10482,-0.4118 4.2525217,4.2525217 0 0 0 0.0638,-0.4205 4.2525217,4.2525217 0 0 0 0.009,-0.1907 132.28901,132.28901 0 0 0 -0.96674,-0.2469 132.28901,132.28901 0 0 0 -3.63246,-0.5491 132.28901,132.28901 0 0 0 -3.73731,-0.5647 132.28901,132.28901 0 0 0 -2.57117,-0.3885 132.28901,132.28901 0 0 0 -3.1337,-0.4734 132.28901,132.28901 0 0 0 -4.56517,-0.2286 132.28901,132.28901 0 0 0 -3.32445,-0.1664 132.28901,132.28901 0 0 0 -5.31739,-0.2659 z"
       id="path22671"
       inkscape:connector-curvature="0" />
    <path
       style="opacity:1;vector-effect:none;fill:url(#linearGradient23064);fill-opacity:1;stroke:#000000;stroke-width:0;stroke-linecap:round;stroke-linejoin:miter;stroke-miterlimit:4;stroke-dasharray:none;stroke-dashoffset:0;stroke-opacity:1;paint-order:markers fill stroke"
       d="m 101.37318,78.812193 a 4.2525217,4.2525217 0 0 0 -0.301,0.0108 4.2525217,4.2525217 0 0 0 -0.42205,0.0514 4.2525217,4.2525217 0 0 0 -0.41446,0.093 4.2525217,4.2525217 0 0 0 -0.40367,0.13402 4.2525217,4.2525217 0 0 0 -0.38799,0.17401 4.2525217,4.2525217 0 0 0 -0.36856,0.21128 4.2525217,4.2525217 0 0 0 -0.34585,0.2475 4.2525217,4.2525217 0 0 0 -0.31936,0.28046 4.2525217,4.2525217 0 0 0 -0.28966,0.31072 4.2525217,4.2525217 0 0 0 -0.13131,0.17293 4.2525217,4.2525217 0 0 0 -0.12589,0.16536 4.2525217,4.2525217 0 0 0 -0.22211,0.3626 4.2525217,4.2525217 0 0 0 -0.1848,0.38258 4.2525217,4.2525217 0 0 0 -0.14592,0.39935 4.2525217,4.2525217 0 0 0 -0.10536,0.41178 4.2525217,4.2525217 0 0 0 -0.0633,0.42042 4.2525217,4.2525217 0 0 0 -0.021,0.42474 4.2525217,4.2525217 0 0 0 0.0105,0.30099 4.2525217,4.2525217 0 0 0 0.0513,0.4215 4.2525217,4.2525217 0 0 0 0.093,0.41503 4.2525217,4.2525217 0 0 0 0.13399,0.40312 4.2525217,4.2525217 0 0 0 0.17401,0.388 4.2525217,4.2525217 0 0 0 0.21129,0.36908 4.2525217,4.2525217 0 0 0 0.24749,0.34585 4.2525217,4.2525217 0 0 0 0.11998,0.13672 4.2525217,4.2525217 0 0 0 0.16049,0.18265 4.2525217,4.2525217 0 0 0 0.31073,0.28964 4.2525217,4.2525217 0 0 0 0.0372,0.0281 4.2525217,4.2525217 0 0 0 0.26805,0.20373 4.2525217,4.2525217 0 0 0 0.0335,0.0254 4.2525217,4.2525217 0 0 0 0.36207,0.22209 4.2525217,4.2525217 0 0 0 0.38258,0.18481 4.2525217,4.2525217 0 0 0 0.39933,0.14591 4.2525217,4.2525217 0 0 0 0.41179,0.10483 4.2525217,4.2525217 0 0 0 0.4204,0.0638 4.2525217,4.2525217 0 0 0 0.42476,0.0211 4.2525217,4.2525217 0 0 0 0.30099,-0.0105 4.2525217,4.2525217 0 0 0 0.42149,-0.0513 4.2525217,4.2525217 0 0 0 0.41502,-0.093 4.2525217,4.2525217 0 0 0 0.40314,-0.13402 4.2525217,4.2525217 0 0 0 0.19886,-0.0892 4.2525217,4.2525217 0 0 0 0.18914,-0.0848 4.2525217,4.2525217 0 0 0 0.36908,-0.2113 4.2525217,4.2525217 0 0 0 0.34585,-0.2475 4.2525217,4.2525217 0 0 0 0.0146,-0.013 4.2525217,4.2525217 0 0 0 0.2567,-0.22534 4.2525217,4.2525217 0 0 0 0.0481,-0.0421 4.2525217,4.2525217 0 0 0 0.28964,-0.31072 4.2525217,4.2525217 0 0 0 0.25725,-0.33882 4.2525217,4.2525217 0 0 0 0.22207,-0.36206 4.2525217,4.2525217 0 0 0 0.18483,-0.38314 4.2525217,4.2525217 0 0 0 0.14589,-0.39933 4.2525217,4.2525217 0 0 0 0.10483,-0.41178 4.2525217,4.2525217 0 0 0 0.0638,-0.41989 4.2525217,4.2525217 0 0 0 0.021,-0.42473 4.2525217,4.2525217 0 0 0 -0.0105,-0.301 4.2525217,4.2525217 0 0 0 -0.0513,-0.42204 4.2525217,4.2525217 0 0 0 -0.093,-0.41448 4.2525217,4.2525217 0 0 0 -0.13404,-0.40366 4.2525217,4.2525217 0 0 0 -0.17399,-0.388 4.2525217,4.2525217 0 0 0 -0.21131,-0.36855 4.2525217,4.2525217 0 0 0 -0.24748,-0.34584 4.2525217,4.2525217 0 0 0 -0.28046,-0.31937 4.2525217,4.2525217 0 0 0 -0.22101,-0.205893 4.2525217,4.2525217 0 0 0 -0.0897,-0.0838 4.2525217,4.2525217 0 0 0 -0.33886,-0.25722 4.2525217,4.2525217 0 0 0 -0.36204,-0.2221 4.2525217,4.2525217 0 0 0 -0.38312,-0.18481 4.2525217,4.2525217 0 0 0 -0.39936,-0.14591 4.2525217,4.2525217 0 0 0 -0.41178,-0.10537 4.2525217,4.2525217 0 0 0 -0.41985,-0.0633 4.2525217,4.2525217 0 0 0 -0.42477,-0.0217 z"
       id="path23003"
       inkscape:connector-curvature="0" />
    <path
       inkscape:connector-curvature="0"
       style="opacity:1;vector-effect:none;fill:#ffff00;fill-opacity:1;stroke:#000000;stroke-width:0;stroke-linecap:round;stroke-linejoin:miter;stroke-miterlimit:4;stroke-dasharray:none;stroke-dashoffset:0;stroke-opacity:1;paint-order:markers fill stroke"
       d="m 58.217949,239.33156 a 7.9787612,7.9787612 0 0 1 0.29616,-0.066 7.9787612,7.9787612 0 0 1 0.54469,-0.067 154.53663,154.53663 0 0 1 -1.46066,-0.3729 20.395667,20.395667 0 0 0 0.19995,0.1866 20.395667,20.395667 0 0 0 0.41986,0.3192 z"
       id="path22909" />
  </g>
</svg>
