<?xml version="1.0" encoding="UTF-8" standalone="no"?>
<!-- Created with Inkscape (http://www.inkscape.org/) -->

<svg
   xmlns:dc="http://purl.org/dc/elements/1.1/"
   xmlns:cc="http://creativecommons.org/ns#"
   xmlns:rdf="http://www.w3.org/1999/02/22-rdf-syntax-ns#"
   xmlns:svg="http://www.w3.org/2000/svg"
   xmlns="http://www.w3.org/2000/svg"
   xmlns:xlink="http://www.w3.org/1999/xlink"
   xmlns:sodipodi="http://sodipodi.sourceforge.net/DTD/sodipodi-0.dtd"
   xmlns:inkscape="http://www.inkscape.org/namespaces/inkscape"
   width="210mm"
   height="297mm"
   viewBox="0 0 210 297"
   version="1.1"
   id="svg16185"
   inkscape:version="0.92.3 (2405546, 2018-03-11)"
   sodipodi:docname="bK.svg">
  <defs
     id="defs16179">
    <linearGradient
       gradientTransform="matrix(1.387031,0,0,1.387031,-21.947687,-83.90413)"
       inkscape:collect="always"
       xlink:href="#linearGradient3390"
       id="linearGradient3392"
       x1="90.928802"
       y1="96.678886"
       x2="91.123634"
       y2="118.13232"
       gradientUnits="userSpaceOnUse" />
    <linearGradient
       inkscape:collect="always"
       id="linearGradient3390">
      <stop
         style="stop-color:#000000;stop-opacity:1"
         offset="0"
         id="stop3386" />
      <stop
         style="stop-color:#4d4d4d;stop-opacity:1"
         offset="1"
         id="stop3388" />
    </linearGradient>
    <linearGradient
       gradientTransform="matrix(1.387031,0,0,1.387031,-21.947687,-83.90413)"
       inkscape:collect="always"
       xlink:href="#linearGradient3390"
       id="linearGradient3374"
       x1="95.194412"
       y1="75.096107"
       x2="82.432693"
       y2="80.970764"
       gradientUnits="userSpaceOnUse" />
    <linearGradient
       gradientTransform="matrix(1.387031,0,0,1.387031,-21.947687,-83.90413)"
       inkscape:collect="always"
       xlink:href="#linearGradient3390"
       id="linearGradient3376"
       x1="99.054413"
       y1="80.536171"
       x2="84.138016"
       y2="93.533829"
       gradientUnits="userSpaceOnUse" />
    <linearGradient
       gradientTransform="matrix(1.387031,0,0,1.387031,-21.947687,-83.90413)"
       inkscape:collect="always"
       xlink:href="#linearGradient3390"
       id="linearGradient3366"
       x1="90.648209"
       y1="69.305847"
       x2="85.801949"
       y2="73.414711"
       gradientUnits="userSpaceOnUse" />
    <linearGradient
       gradientTransform="matrix(1.387031,0,0,1.387031,-21.947687,-83.90413)"
       inkscape:collect="always"
       xlink:href="#linearGradient3390"
       id="linearGradient3384"
       x1="99.736542"
       y1="93.148827"
       x2="87.022072"
       y2="123.8317"
       gradientUnits="userSpaceOnUse" />
    <radialGradient
       inkscape:collect="always"
       xlink:href="#linearGradient15725"
       id="radialGradient17072"
       cx="-178.40547"
       cy="266.08716"
       fx="-178.40547"
       fy="266.08716"
       r="43.196438"
       gradientTransform="matrix(0.98088851,0,0,0.28011294,280.79224,168.58425)"
       gradientUnits="userSpaceOnUse" />
    <linearGradient
       inkscape:collect="always"
       id="linearGradient15725">
      <stop
         style="stop-color:#b3b3b3;stop-opacity:1"
         offset="0"
         id="stop15721" />
      <stop
         style="stop-color:#000000;stop-opacity:1"
         offset="1"
         id="stop15723" />
    </linearGradient>
    <radialGradient
       inkscape:collect="always"
       xlink:href="#linearGradient17070"
       id="radialGradient17064"
       cx="-177.67918"
       cy="257.13831"
       fx="-177.67918"
       fy="257.13831"
       r="43.916767"
       gradientTransform="matrix(0.96557573,0,0,0.33915135,277.3989,148.01937)"
       gradientUnits="userSpaceOnUse" />
    <linearGradient
       id="linearGradient17070"
       inkscape:collect="always">
      <stop
         id="stop17066"
         offset="0"
         style="stop-color:#999999;stop-opacity:1" />
      <stop
         id="stop17068"
         offset="1"
         style="stop-color:#1a1a1a;stop-opacity:1" />
    </linearGradient>
    <radialGradient
       inkscape:collect="always"
       xlink:href="#linearGradient19221"
       id="radialGradient19215"
       cx="108.25489"
       cy="193.93346"
       fx="108.25489"
       fy="193.93346"
       r="31.97471"
       gradientTransform="matrix(1,0,0,0.25589211,-2.5400975,148.30453)"
       gradientUnits="userSpaceOnUse" />
    <linearGradient
       id="linearGradient19221"
       inkscape:collect="always">
      <stop
         id="stop19217"
         offset="0"
         style="stop-color:#808080;stop-opacity:1" />
      <stop
         id="stop19219"
         offset="1"
         style="stop-color:#000000;stop-opacity:1" />
    </linearGradient>
    <radialGradient
       inkscape:collect="always"
       xlink:href="#linearGradient19221"
       id="radialGradient19207"
       cx="108.4141"
       cy="150.21277"
       fx="108.4141"
       fy="150.21277"
       r="30.152716"
       gradientTransform="matrix(1,0,0,1.5229597,-2.5400975,-74.558092)"
       gradientUnits="userSpaceOnUse" />
    <radialGradient
       inkscape:collect="always"
       xlink:href="#linearGradient19221"
       id="radialGradient19231"
       cx="108.2485"
       cy="198.9537"
       fx="108.2485"
       fy="198.9537"
       r="33.37505"
       gradientTransform="matrix(1,0,0,0.21318322,-2.5400975,160.00806)"
       gradientUnits="userSpaceOnUse" />
    <radialGradient
       inkscape:collect="always"
       xlink:href="#linearGradient19221"
       id="radialGradient19199"
       cx="108.05576"
       cy="218.3886"
       fx="108.05576"
       fy="218.3886"
       r="41.353828"
       gradientTransform="matrix(1,0,0,0.56385226,-2.5400975,98.188492)"
       gradientUnits="userSpaceOnUse" />
    <radialGradient
       inkscape:collect="always"
       xlink:href="#linearGradient19229"
       id="radialGradient19223"
       cx="107.4823"
       cy="106.11727"
       fx="107.4823"
       fy="106.11727"
       r="25.236429"
       gradientTransform="matrix(1,0,0,0.8151134,-2.5400975,23.616791)"
       gradientUnits="userSpaceOnUse" />
    <linearGradient
       inkscape:collect="always"
       id="linearGradient19229">
      <stop
         style="stop-color:#999999;stop-opacity:1"
         offset="0"
         id="stop19225" />
      <stop
         style="stop-color:#000000;stop-opacity:1"
         offset="1"
         id="stop19227" />
    </linearGradient>
  </defs>
  <sodipodi:namedview
     id="base"
     pagecolor="#ffffff"
     bordercolor="#666666"
     borderopacity="1.0"
     inkscape:pageopacity="0.0"
     inkscape:pageshadow="2"
     inkscape:zoom="0.49497475"
     inkscape:cx="-335.87547"
     inkscape:cy="503.40199"
     inkscape:document-units="mm"
     inkscape:current-layer="layer1"
     showgrid="false"
     inkscape:window-width="1920"
     inkscape:window-height="1017"
     inkscape:window-x="0"
     inkscape:window-y="0"
     inkscape:window-maximized="1" />
  <metadata
     id="metadata16182">
    <rdf:RDF>
      <cc:Work
         rdf:about="">
        <dc:format>image/svg+xml</dc:format>
        <dc:type
           rdf:resource="http://purl.org/dc/dcmitype/StillImage" />
        <dc:title />
      </cc:Work>
    </rdf:RDF>
  </metadata>
  <g
     inkscape:label="Layer 1"
     inkscape:groupmode="layer"
     id="layer1">
    <path
       style="display:inline;opacity:1;fill:url(#linearGradient3384);fill-opacity:1;stroke:#fa0000;stroke-width:0;stroke-linecap:round;stroke-linejoin:miter;stroke-miterlimit:4;stroke-dasharray:none;stroke-opacity:1;paint-order:markers fill stroke"
       d="m 117.15336,49.6728 a 19.670469,19.670469 0 0 0 -0.76335,0.028 5.3663932,5.3880747 0 0 1 -0.17203,0.099 5.3663932,5.3880747 0 0 1 -0.48954,0.2201 5.3663932,5.3880747 0 0 1 -0.50891,0.1698 5.3663932,5.3880747 0 0 1 -0.52324,0.1179 5.3663932,5.3880747 0 0 1 -0.53255,0.065 5.3663932,5.3880747 0 0 1 -0.37989,0.014 5.3663932,5.3880747 0 0 1 -0.53544,-0.028 5.3663932,5.3880747 0 0 1 -0.53041,-0.08 5.3663932,5.3880747 0 0 1 -0.15267,-0.039 19.670469,19.670469 0 0 0 -0.67375,0.1513 19.670469,19.670469 0 0 0 -1.86648,0.62 19.670469,19.670469 0 0 0 -1.79478,0.8035 19.670469,19.670469 0 0 0 -1.7052,0.9783 19.670469,19.670469 0 0 0 -1.59911,1.144 19.670469,19.670469 0 0 0 -0.75259,0.6609 19.670469,19.670469 0 0 1 1.40127,1.3045 19.670469,19.670469 0 0 1 1.29807,1.4772 19.670469,19.670469 0 0 1 1.14324,1.5999 19.670469,19.670469 0 0 1 0.12261,0.2143 10.535916,10.535916 0 0 1 0.43222,-0.5677 10.535916,10.535916 0 0 1 0.71749,-0.7712 10.535916,10.535916 0 0 1 0.7913,-0.6946 10.535916,10.535916 0 0 1 0.85654,-0.6128 10.535916,10.535916 0 0 1 0.91388,-0.524 10.535916,10.535916 0 0 1 0.96121,-0.43 10.535916,10.535916 0 0 1 0.99916,-0.3326 10.535916,10.535916 0 0 1 1.02785,-0.2301 10.535916,10.535916 0 0 1 1.04505,-0.1262 10.535916,10.535916 0 0 1 0.74543,-0.026 10.535916,10.535916 0 0 1 1.05219,0.053 10.535916,10.535916 0 0 1 1.04077,0.1577 10.535916,10.535916 0 0 1 1.02067,0.2602 10.535916,10.535916 0 0 1 0.89238,0.3261 10.535916,10.535916 0 0 1 0.0968,0.035 10.535916,10.535916 0 0 1 0.94828,0.458 10.535916,10.535916 0 0 1 0.89812,0.5505 10.535916,10.535916 0 0 1 0.83861,0.6372 10.535916,10.535916 0 0 1 0.77052,0.7182 10.535916,10.535916 0 0 1 0.69456,0.7913 10.535916,10.535916 0 0 1 0.61283,0.8565 10.535916,10.535916 0 0 1 0.52397,0.9139 10.535916,10.535916 0 0 1 0.34476,0.7705 10.535916,10.535916 0 0 1 0.0853,0.1907 10.535916,10.535916 0 0 1 0.33258,0.9992 10.535916,10.535916 0 0 1 0.23007,1.0278 10.535916,10.535916 0 0 1 0.0939,0.7662 128.51988,128.51988 0 0 1 -1.51524,4.1509 128.51988,128.51988 0 0 1 -2.51085,5.1966 128.51988,128.51988 0 0 1 -3.07707,6.3706 128.51988,128.51988 0 0 1 -1.96538,3.20601 128.51988,128.51988 0 0 1 -3.386,5.522806 128.51988,128.51988 0 0 1 -1.36329,2.2234 128.51988,128.51988 0 0 1 -1.47369,1.938 26.861106,26.861106 0 0 1 2.4313,0.8882 26.861106,26.861106 0 0 1 0.19638,0.094 128.51988,128.51988 0 0 0 3.80389,-5.003 128.51988,128.51988 0 0 0 2.71655,-3.574496 128.51988,128.51988 0 0 0 1.08017,-1.4206 128.51988,128.51988 0 0 0 6.71539,-10.95233 128.51988,128.51988 0 0 0 5.58723,-11.5678 128.51988,128.51988 0 0 0 0.36124,-0.98929 19.670469,19.670469 0 0 0 -0.0222,-0.05 19.670469,19.670469 0 0 0 -0.97838,-1.7059 19.670469,19.670469 0 0 0 -1.14325,-1.5991 19.670469,19.670469 0 0 0 -1.29806,-1.4773 19.670469,19.670469 0 0 0 -0.85368,-0.79561 19.670469,19.670469 0 0 0 -0.58488,-0.54469 19.670469,19.670469 0 0 0 -1.56542,-1.1898 19.670469,19.670469 0 0 0 -1.67581,-1.0279 19.670469,19.670469 0 0 0 -1.77041,-0.8551 19.670469,19.670469 0 0 0 -1.84712,-0.6745 19.670469,19.670469 0 0 0 -1.90517,-0.4866 19.670469,19.670469 0 0 0 -1.94459,-0.2932 19.670469,19.670469 0 0 0 -1.96323,-0.099 z m -12.97994,4.9235 a 19.670469,19.670469 0 0 0 -0.0373,-0.035 19.670469,19.670469 0 0 0 -1.56544,-1.1906 19.670469,19.670469 0 0 0 -1.67579,-1.0271 19.670469,19.670469 0 0 0 -1.771145,-0.8558 19.670469,19.670469 0 0 0 -1.846386,-0.6738 19.670469,19.670469 0 0 0 -1.90517,-0.4867 19.670469,19.670469 0 0 0 -0.61786,-0.093 5.3663932,5.3880747 0 0 1 -0.32326,0.072 5.3663932,5.3880747 0 0 1 -0.53256,0.065 5.3663932,5.3880747 0 0 1 -0.37988,0.014 5.3663932,5.3880747 0 0 1 -0.53544,-0.028 5.3663932,5.3880747 0 0 1 -0.5304,-0.08 5.3663932,5.3880747 0 0 1 -0.51966,-0.1332 5.3663932,5.3880747 0 0 1 -0.50388,-0.1849 5.3663932,5.3880747 0 0 1 -0.0444,-0.021 19.670469,19.670469 0 0 0 -1.31241,0.047 19.670469,19.670469 0 0 0 -1.95174,0.2365 19.670469,19.670469 0 0 0 -1.91809,0.4308 19.670469,19.670469 0 0 0 -1.86646,0.62 19.670469,19.670469 0 0 0 -1.79479,0.8035 19.670469,19.670469 0 0 0 -1.70518,0.9784 19.670469,19.670469 0 0 0 -0.30964,0.22151 4.5867619,4.5867619 0 0 0 -0.23941,0.10679 4.5867619,4.5867619 0 0 0 -0.39781,0.2279 4.5867619,4.5867619 0 0 0 -0.37271,0.26661 4.5867619,4.5867619 0 0 0 -0.34477,0.30249 4.5867619,4.5867619 0 0 0 -0.31252,0.3356 4.5867619,4.5867619 0 0 0 -0.033,0.043 19.67047,19.67047 0 0 0 -1.06654,0.9374 19.67047,19.67047 0 0 0 -0.88665,0.952 19.670469,19.670469 0 0 0 -0.45371,0.4865 19.670469,19.670469 0 0 0 -1.18984,1.5656 19.670469,19.670469 0 0 0 -1.02784,1.6758 19.670469,19.670469 0 0 0 -0.85511,1.77041 19.670469,19.670469 0 0 0 -0.0874,0.2394 128.51988,128.51988 0 0 0 3.01545,6.73759 128.51988,128.51988 0 0 0 6.39213,11.14291 128.51988,128.51988 0 0 0 3.87342,5.41663 128.51988,128.51988 0 0 0 2.60474,3.642586 128.51988,128.51988 0 0 0 0.99415,1.39051 128.51988,128.51988 0 0 0 3.04269,3.46348 26.861106,26.861106 0 0 1 0.86943,-0.3892 26.861106,26.861106 0 0 1 2.54812,-0.84719 26.861106,26.861106 0 0 1 2.155316,-0.48391 128.51988,128.51988 0 0 1 -3.048416,-3.46988 128.51988,128.51988 0 0 1 -0.3247,-0.369916 128.51988,128.51988 0 0 1 -4.30203,-6.0165 128.51988,128.51988 0 0 1 -3.17027,-4.43322 128.51988,128.51988 0 0 1 -2.43988,-4.25339 128.51988,128.51988 0 0 1 -3.95227,-6.8902 128.51988,128.51988 0 0 1 -0.84936,-1.898 10.535916,10.535916 0 0 1 -0.001,-0.04 10.535916,10.535916 0 0 1 0.0523,-1.0515 10.535916,10.535916 0 0 1 0.15769,-1.0414 10.535916,10.535916 0 0 1 0.23366,-0.9175 10.535916,10.535916 0 0 1 0.0265,-0.1027 10.535916,10.535916 0 0 1 0.36125,-0.9899 10.535916,10.535916 0 0 1 0.45801,-0.9482 10.535916,10.535916 0 0 1 0.55049,-0.8974 10.535916,10.535916 0 0 1 0.6372,-0.8386 10.535916,10.535916 0 0 1 0.7182,-0.7706 10.535916,10.535916 0 0 1 0.79132,-0.6952 10.535916,10.535916 0 0 1 0.85653,-0.6121 10.535916,10.535916 0 0 1 0.91317,-0.5247 10.535916,10.535916 0 0 1 0.0681,-0.03 10.535916,10.535916 0 0 1 0.89381,-0.4 10.535916,10.535916 0 0 1 0.99917,-0.3318 10.535916,10.535916 0 0 1 1.02785,-0.2308 10.535916,10.535916 0 0 1 1.04505,-0.1262 10.535916,10.535916 0 0 1 0.74544,-0.026 10.535916,10.535916 0 0 1 1.05149,0.053 10.535916,10.535916 0 0 1 1.04147,0.1569 10.535916,10.535916 0 0 1 1.02069,0.2609 10.535916,10.535916 0 0 1 0.98913,0.3613 10.535916,10.535916 0 0 1 0.94828,0.458 10.535916,10.535916 0 0 1 0.89811,0.5505 10.535916,10.535916 0 0 1 0.837897,0.6372 10.535916,10.535916 0 0 1 0.770529,0.7175 10.535916,10.535916 0 0 1 0.69526,0.7913 10.535916,10.535916 0 0 1 0.612835,0.8565 10.535916,10.535916 0 0 1 0.12761,0.2222 19.670469,19.670469 0 0 1 0.72322,-1.1798 19.670469,19.670469 0 0 1 1.18984,-1.5654 19.670469,19.670469 0 0 1 1.34036,-1.4385 19.670469,19.670469 0 0 1 0.72465,-0.6365 z"
       id="path3087"
       inkscape:connector-curvature="0" />
    <path
       style="display:inline;opacity:1;fill:url(#linearGradient3366);fill-opacity:1;stroke:#fa0000;stroke-width:0;stroke-linecap:round;stroke-linejoin:miter;stroke-miterlimit:4;stroke-dasharray:none;stroke-opacity:1;paint-order:markers fill stroke"
       d="m 103.7842,18.83097 a 4.5867619,4.5867619 0 0 0 -0.32469,0.0111 4.5867619,4.5867619 0 0 0 -0.45515,0.0559 4.5867619,4.5867619 0 0 0 -0.44727,0.10042 4.5867619,4.5867619 0 0 0 -0.43507,0.14411 4.5867619,4.5867619 0 0 0 -0.4186,0.1877 4.5867619,4.5867619 0 0 0 -0.39708,0.228 4.5867619,4.5867619 0 0 0 -0.37344,0.2666 4.5867619,4.5867619 0 0 0 -0.34404,0.3025 4.5867619,4.5867619 0 0 0 -0.31252,0.3354 4.5867619,4.5867619 0 0 0 -0.277395,0.3648 4.5867619,4.5867619 0 0 0 -0.24012,0.3914 4.5867619,4.5867619 0 0 0 -0.19926,0.413 4.5867619,4.5867619 0 0 0 -0.15698,0.4306 4.5867619,4.5867619 0 0 0 -0.11402,0.4437 4.5867619,4.5867619 0 0 0 -0.0681,0.4537 4.5867619,4.5867619 0 0 0 -0.0229,0.458 4.5867619,4.5867619 0 0 0 0.0111,0.3241 4.5867619,4.5867619 0 0 0 0.0552,0.4552 4.5867619,4.5867619 0 0 0 0.10028,0.4472 4.5867619,4.5867619 0 0 0 0.14479,0.4351 4.5867619,4.5867619 0 0 0 0.18708,0.4186 4.5867619,4.5867619 0 0 0 0.22793,0.3978 4.5867619,4.5867619 0 0 0 0.266635,0.3727 4.5867619,4.5867619 0 0 0 0.30321,0.3448 4.5867619,4.5867619 0 0 0 0.33544,0.3125 4.5867619,4.5867619 0 0 0 0.36483,0.2774 4.5867619,4.5867619 0 0 0 0.39064,0.2394 4.5867619,4.5867619 0 0 0 0.41286,0.1999 4.5867619,4.5867619 0 0 0 0.43077,0.157 4.5867619,4.5867619 0 0 0 0.44441,0.1137 4.5867619,4.5867619 0 0 0 0.45299,0.069 4.5867619,4.5867619 0 0 0 0.45801,0.024 4.5867619,4.5867619 0 0 0 0.32471,-0.014 4.5867619,4.5867619 0 0 0 0.45514,-0.056 4.5867619,4.5867619 0 0 0 0.44726,-0.1 4.5867619,4.5867619 0 0 0 0.43508,-0.1448 4.5867619,4.5867619 0 0 0 0.41859,-0.1871 4.5867619,4.5867619 0 0 0 0.3978,-0.2286 4.5867619,4.5867619 0 0 0 0.37273,-0.2666 4.5867619,4.5867619 0 0 0 0.34477,-0.3025 4.5867619,4.5867619 0 0 0 0.31251,-0.3355 4.5867619,4.5867619 0 0 0 0.27738,-0.3648 4.5867619,4.5867619 0 0 0 0.2394,-0.3906 4.5867619,4.5867619 0 0 0 0.19926,-0.4129 4.5867619,4.5867619 0 0 0 0.1577,-0.4308 4.5867619,4.5867619 0 0 0 0.11332,-0.4444 4.5867619,4.5867619 0 0 0 0.0681,-0.4537 4.5867619,4.5867619 0 0 0 0.0229,-0.4573 4.5867619,4.5867619 0 0 0 -0.0111,-0.3247 4.5867619,4.5867619 0 0 0 -0.0552,-0.4551 4.5867619,4.5867619 0 0 0 -0.10043,-0.4473 4.5867619,4.5867619 0 0 0 -0.14478,-0.435 4.5867619,4.5867619 0 0 0 -0.18708,-0.4186 4.5867619,4.5867619 0 0 0 -0.22793,-0.3978 4.5867619,4.5867619 0 0 0 -0.26664,-0.3727 4.5867619,4.5867619 0 0 0 -0.30246,-0.3448 4.5867619,4.5867619 0 0 0 -0.33546,-0.3126 4.5867619,4.5867619 0 0 0 -0.36556,-0.2774 4.5867619,4.5867619 0 0 0 -0.39063,-0.2394 4.5867619,4.5867619 0 0 0 -0.41285,-0.1992 4.5867619,4.5867619 0 0 0 -0.43078,-0.1577 4.5867619,4.5867619 0 0 0 -0.44439,-0.11318 4.5867619,4.5867619 0 0 0 -0.45302,-0.0688 4.5867619,4.5867619 0 0 0 -0.458,-0.0229 z"
       id="path3321"
       inkscape:connector-curvature="0" />
    <path
       style="display:inline;opacity:1;fill:url(#linearGradient3376);fill-opacity:1;stroke:#fa0000;stroke-width:0;stroke-linecap:round;stroke-linejoin:miter;stroke-miterlimit:4;stroke-dasharray:none;stroke-opacity:1;paint-order:markers fill stroke"
       d="m 116.35417,32.4173 a 26.861109,26.861109 0 0 1 -0.91028,0.5225 26.861109,26.861109 0 0 1 -0.53473,0.2394 26.861109,26.861109 0 0 1 -1.91591,0.8573 26.861109,26.861109 0 0 1 -2.54812,0.8465 26.861109,26.861109 0 0 1 -2.61979,0.5877 26.861109,26.861109 0 0 1 -2.66494,0.324 26.861109,26.861109 0 0 1 -1.90015,0.068 26.861109,26.861109 0 0 1 -2.68145,-0.1346 26.861109,26.861109 0 0 1 -2.654901,-0.4007 26.861109,26.861109 0 0 1 -2.60187,-0.6644 26.861109,26.861109 0 0 1 -2.52231,-0.9209 26.861109,26.861109 0 0 1 -0.41071,-0.1987 26.861109,26.861109 0 0 1 -1.89154,-0.913 10.535916,10.535916 0 0 1 0.39567,0.6888 10.535916,10.535916 0 0 1 0.43003,0.9612 10.535916,10.535916 0 0 1 0.33188,0.9997 10.535916,10.535916 0 0 1 0.0853,0.3806 10.535916,10.535916 0 0 1 0.1455,0.6467 10.535916,10.535916 0 0 1 0.12691,1.0457 10.535916,10.535916 0 0 1 0.0265,0.7455 10.535916,10.535916 0 0 1 -0.053,1.0515 10.535916,10.535916 0 0 1 -0.15696,1.0414 10.535916,10.535916 0 0 1 -0.0953,0.372 12.249277,12.249277 0 0 0 0.0193,0.086 5.3663932,5.3880747 0 0 1 0.33044,-0.111 5.3663932,5.3880747 0 0 1 0.52324,-0.1179 5.3663932,5.3880747 0 0 1 0.53255,-0.065 5.3663932,5.3880747 0 0 1 0.37917,-0.014 5.3663932,5.3880747 0 0 1 0.53614,0.028 5.3663932,5.3880747 0 0 1 0.53042,0.08 5.3663932,5.3880747 0 0 1 0.51965,0.1332 5.3663932,5.3880747 0 0 1 0.5039,0.1849 5.3663932,5.3880747 0 0 1 0.4831,0.2344 5.3663932,5.3880747 0 0 1 0.45729,0.281 5.3663932,5.3880747 0 0 1 0.42719,0.3261 5.3663932,5.3880747 0 0 1 0.39207,0.367 5.3663932,5.3880747 0 0 1 0.35408,0.405 5.3663932,5.3880747 0 0 1 0.311807,0.4379 5.3663932,5.3880747 0 0 1 0.26735,0.4673 5.3663932,5.3880747 0 0 1 0.218609,0.4917 5.3663932,5.3880747 0 0 1 0.16916,0.5111 5.3663932,5.3880747 0 0 1 0.11748,0.5254 5.3663932,5.3880747 0 0 1 0.0652,0.5347 5.3663932,5.3880747 0 0 1 0.0125,0.3813 5.3663932,5.3880747 0 0 1 -0.0265,0.5376 5.3663932,5.3880747 0 0 1 -0.0803,0.5325 5.3663932,5.3880747 0 0 1 -0.1326,0.5218 5.3663932,5.3880747 0 0 1 -0.184209,0.5061 5.3663932,5.3880747 0 0 1 -0.18206,0.3792 5.3663932,5.3880747 0 0 1 -0.0509,0.1068 5.3663932,5.3880747 0 0 1 -0.280247,0.4587 5.3663932,5.3880747 0 0 1 -0.0939,0.1235 5.3663932,5.3880747 0 0 1 -0.23081,0.3046 5.3663932,5.3880747 0 0 1 -0.36555,0.3942 5.3663932,5.3880747 0 0 1 -0.0208,0.018 5.3663932,5.3880747 0 0 1 -0.38276,0.3369 5.3663932,5.3880747 0 0 1 -0.43579,0.3132 5.3663932,5.3880747 0 0 1 -0.4659,0.2681 5.3663932,5.3880747 0 0 1 -0.48955,0.22 5.3663932,5.3880747 0 0 1 -0.5089,0.1699 5.3663932,5.3880747 0 0 1 -0.19999,0.046 19.67047,19.67047 0 0 1 0.61786,0.093 19.67047,19.67047 0 0 1 1.90517,0.4867 19.67047,19.67047 0 0 1 1.846376,0.6738 19.67047,19.67047 0 0 1 1.771155,0.8558 19.67047,19.67047 0 0 1 1.67579,1.0271 19.67047,19.67047 0 0 1 1.56543,1.1906 19.67047,19.67047 0 0 1 0.0373,0.035 19.67047,19.67047 0 0 1 0.75261,-0.6609 19.67047,19.67047 0 0 1 1.59911,-1.144 19.67047,19.67047 0 0 1 1.70518,-0.9783 19.67047,19.67047 0 0 1 1.79479,-0.8035 19.67047,19.67047 0 0 1 1.86648,-0.62 19.67047,19.67047 0 0 1 0.67376,-0.1513 5.3663932,5.3880747 0 0 1 -0.36699,-0.094 5.3663932,5.3880747 0 0 1 -0.50388,-0.1849 5.3663932,5.3880747 0 0 1 -0.48311,-0.2337 5.3663932,5.3880747 0 0 1 -0.4573,-0.2817 5.3663932,5.3880747 0 0 1 -0.30677,-0.2343 5.3663932,5.3880747 0 0 1 -0.1204,-0.092 5.3663932,5.3880747 0 0 1 -0.39279,-0.367 5.3663932,5.3880747 0 0 1 -0.35337,-0.405 5.3663932,5.3880747 0 0 1 -0.0917,-0.1276 5.3663932,5.3880747 0 0 1 -0.15124,-0.2129 5.3663932,5.3880747 0 0 1 -0.0695,-0.097 5.3663932,5.3880747 0 0 1 -0.26663,-0.4673 5.3663932,5.3880747 0 0 1 -0.21933,-0.491 5.3663932,5.3880747 0 0 1 -0.16916,-0.5119 5.3663932,5.3880747 0 0 1 -0.11748,-0.5252 5.3663932,5.3880747 0 0 1 -0.0645,-0.5349 5.3663932,5.3880747 0 0 1 -0.0139,-0.3806 5.3663932,5.3880747 0 0 1 0.0272,-0.53809 5.3663932,5.3880747 0 0 1 0.0803,-0.5327 5.3663932,5.3880747 0 0 1 0.13261,-0.5218 5.3663932,5.3880747 0 0 1 0.18348,-0.5059 5.3663932,5.3880747 0 0 1 0.23368,-0.4847 5.3663932,5.3880747 0 0 1 0.28025,-0.4594 5.3663932,5.3880747 0 0 1 0.32469,-0.4285 5.3663932,5.3880747 0 0 1 0.36556,-0.3944 5.3663932,5.3880747 0 0 1 0.40282,-0.3555 5.3663932,5.3880747 0 0 1 0.43652,-0.3132 5.3663932,5.3880747 0 0 1 0.46518,-0.2681 5.3663932,5.3880747 0 0 1 0.48954,-0.22 5.3663932,5.3880747 0 0 1 0.50962,-0.1699 5.3663932,5.3880747 0 0 1 0.52325,-0.1179 5.3663932,5.3880747 0 0 1 0.53257,-0.065 5.3663932,5.3880747 0 0 1 0.37916,-0.014 5.3663932,5.3880747 0 0 1 0.53615,0.028 5.3663932,5.3880747 0 0 1 0.53039,0.08 5.3663932,5.3880747 0 0 1 0.51967,0.1332 5.3663932,5.3880747 0 0 1 0.33472,0.1234 12.249277,12.249277 0 0 0 0.0315,-0.122 12.249277,12.249277 0 0 0 0.048,-0.3175 10.535916,10.535916 0 0 1 -0.13259,-0.3994 10.535916,10.535916 0 0 1 -0.2308,-1.0277 10.535916,10.535916 0 0 1 -0.12691,-1.0459 10.535916,10.535916 0 0 1 -0.0265,-0.7447 10.535916,10.535916 0 0 1 0.0523,-1.0522 10.535916,10.535916 0 0 1 0.1577,-1.0413 10.535916,10.535916 0 0 1 0.0366,-0.1428 10.535916,10.535916 0 0 1 0.22434,-0.8773 10.535916,10.535916 0 0 1 0.36053,-0.9891 10.535916,10.535916 0 0 1 0.25517,-0.529 z"
       id="path3167"
       inkscape:connector-curvature="0" />
    <path
       style="display:inline;opacity:1;fill:url(#linearGradient3374);fill-opacity:1;stroke:#fa0000;stroke-width:0;stroke-linecap:round;stroke-linejoin:miter;stroke-miterlimit:4;stroke-dasharray:none;stroke-opacity:1;paint-order:markers fill stroke"
       d="m 114.90916,34.6472 a 12.249277,12.249277 0 0 0 -0.26162,-0.5849 12.249277,12.249277 0 0 0 -0.60924,-1.0622 12.249277,12.249277 0 0 0 -0.71175,-0.9956 12.249277,12.249277 0 0 0 -0.80853,-0.9204 12.249277,12.249277 0 0 0 -0.89596,-0.8343 12.249277,12.249277 0 0 0 -0.9748,-0.7411 12.249277,12.249277 0 0 0 -1.04362,-0.6402 12.249277,12.249277 0 0 0 -1.10238,-0.5324 12.249277,12.249277 0 0 0 -1.15042,-0.4193 12.249277,12.249277 0 0 0 -1.18624,-0.3032 12.249277,12.249277 0 0 0 -1.21063,-0.1829 12.249277,12.249277 0 0 0 -1.22281,-0.061 12.249277,12.249277 0 0 0 -0.86657,0.03 12.249277,12.249277 0 0 0 -1.21564,0.1476 12.249277,12.249277 0 0 0 -1.19484,0.2681 12.249277,12.249277 0 0 0 -1.161895,0.3865 12.249277,12.249277 0 0 0 -1.117449,0.4994 12.249277,12.249277 0 0 0 -1.062237,0.6094 12.249277,12.249277 0 0 0 -0.99561,0.7125 12.249277,12.249277 0 0 0 -0.92031,0.8085 12.249277,12.249277 0 0 0 -0.83433,0.8952 12.249277,12.249277 0 0 0 -0.74114,0.9748 12.249277,12.249277 0 0 0 -0.64008,1.0443 12.249277,12.249277 0 0 0 -0.53254,1.1024 12.249277,12.249277 0 0 0 -0.0595,0.162 26.861109,26.861109 0 0 0 0.4107,0.1985 26.861109,26.861109 0 0 0 2.52232,0.9211 26.861109,26.861109 0 0 0 2.60186,0.6644 26.861109,26.861109 0 0 0 2.654911,0.4007 26.861109,26.861109 0 0 0 2.68143,0.1345 26.861109,26.861109 0 0 0 1.90015,-0.068 26.861109,26.861109 0 0 0 2.66494,-0.324 26.861109,26.861109 0 0 0 2.61978,-0.5877 26.861109,26.861109 0 0 0 2.54813,-0.8465 26.861109,26.861109 0 0 0 1.91592,-0.8573 z"
       id="path3165"
       inkscape:connector-curvature="0" />
    <path
       style="display:inline;opacity:1;fill:#00ff00;fill-opacity:1;stroke:#fa0000;stroke-width:0;stroke-linecap:round;stroke-linejoin:miter;stroke-miterlimit:4;stroke-dasharray:none;stroke-opacity:1;paint-order:markers fill stroke"
       d="m 115.70479,42.1746 a 5.3663932,5.3880747 0 0 1 0.16916,0.061 5.3663932,5.3880747 0 0 1 0.0918,0.044 10.535916,10.535916 0 0 1 -0.18135,-0.5461 12.249277,12.249277 0 0 1 -0.048,0.3175 12.249277,12.249277 0 0 1 -0.0315,0.1221 z"
       id="path3159"
       inkscape:connector-curvature="0" />
    <path
       style="display:inline;opacity:1;fill:#00ff00;fill-opacity:1;stroke:#fa0000;stroke-width:0;stroke-linecap:round;stroke-linejoin:miter;stroke-miterlimit:4;stroke-dasharray:none;stroke-opacity:1;paint-order:markers fill stroke"
       d="m 91.753239,42.1173 a 12.249277,12.249277 0 0 1 -0.0193,-0.086 10.535916,10.535916 0 0 1 -0.0258,0.1013 5.3663932,5.3880747 0 0 1 0.0452,-0.015 z"
       id="path3111"
       inkscape:connector-curvature="0" />
    <path
       style="display:inline;opacity:1;fill:url(#linearGradient3392);fill-opacity:1;stroke:#fa0000;stroke-width:0;stroke-linecap:round;stroke-linejoin:miter;stroke-miterlimit:4;stroke-dasharray:none;stroke-opacity:1;paint-order:markers fill stroke"
       d="m 104.17342,53.1283 a 19.670488,19.670471 0 0 0 -0.72466,0.6365 19.670488,19.670471 0 0 0 -1.34036,1.4386 19.670488,19.670471 0 0 0 -1.18984,1.5654 19.670488,19.670471 0 0 0 -0.72321,1.1798 19.670488,19.670471 0 0 0 -0.304635,0.4967 19.670488,19.670471 0 0 0 -0.85511,1.7704 19.670488,19.670471 0 0 0 -0.674459,1.8471 19.670488,19.670471 0 0 0 -0.486697,1.9053 19.670488,19.670471 0 0 0 -0.29387,1.9437 19.670488,19.670471 0 0 0 -0.0982,1.9641 19.670488,19.670471 0 0 0 0.0495,1.3912 19.670488,19.670471 0 0 0 0.23724,1.9518 19.670488,19.670471 0 0 0 0.0817,0.3662 19.670488,19.670471 0 0 0 0.348357,1.5525 19.670488,19.670471 0 0 0 0.619999,1.8658 19.670488,19.670471 0 0 0 0.80349,1.7948 19.670488,19.670471 0 0 0 0.674495,1.1747 19.670488,19.670471 0 0 0 0.30391,0.5304 19.670488,19.670471 0 0 0 1.14395,1.5998 19.670488,19.670471 0 0 0 1.29736,1.4773 19.670488,19.670471 0 0 0 1.40128,1.30451 19.670488,19.670471 0 0 0 0.72465,-0.6365 19.670488,19.670471 0 0 0 1.34036,-1.43851 19.670488,19.670471 0 0 0 1.18984,-1.5654 19.670488,19.670471 0 0 0 0.67949,-1.1082 19.670488,19.670471 0 0 0 0.34835,-0.5684 19.670488,19.670471 0 0 0 0.85583,-1.7704 19.670488,19.670471 0 0 0 0.67376,-1.847 19.670488,19.670471 0 0 0 0.34978,-1.3676 19.670488,19.670471 0 0 0 0.1369,-0.5369 19.670488,19.670471 0 0 0 0.29388,-1.9446 19.670488,19.670471 0 0 0 0.0982,-1.9639 19.670488,19.670471 0 0 0 -0.0495,-1.3912 19.670488,19.670471 0 0 0 -0.23653,-1.9518 19.670488,19.670471 0 0 0 -0.43078,-1.9189 19.670488,19.670471 0 0 0 -0.62001,-1.8657 19.670488,19.670471 0 0 0 -0.80348,-1.7948 19.670488,19.670471 0 0 0 -0.85584,-1.4909 19.670488,19.670471 0 0 0 -0.1226,-0.2143 19.670488,19.670471 0 0 0 -1.14326,-1.5998 19.670488,19.670471 0 0 0 -1.29805,-1.4773 19.670488,19.670471 0 0 0 -1.40129,-1.3045 z"
       id="path3081"
       inkscape:connector-curvature="0" />
    <path
       style="display:inline;opacity:1;fill:url(#radialGradient19223);fill-opacity:1;stroke:#fa0000;stroke-width:0;stroke-linecap:round;stroke-linejoin:miter;stroke-miterlimit:4;stroke-dasharray:none;stroke-opacity:1;paint-order:markers fill stroke"
       d="m 105.14696,89.544148 a 25.967326,26.861109 0 0 0 -1.83693,0.068 25.967326,26.861109 0 0 0 -2.57626,0.3233 25.967326,26.861109 0 0 0 -0.44901,0.104 25.967326,26.861109 0 0 0 -2.083598,0.4838 25.967326,26.861109 0 0 0 -2.46334,0.8472 25.967326,26.861109 0 0 0 -0.84051,0.3892 25.967326,26.861109 0 0 0 -1.52926,0.7075 25.967326,26.861109 0 0 0 -2.251289,1.336 25.967326,26.861109 0 0 0 -2.111319,1.5619 25.967326,26.861109 0 0 0 -1.949881,1.7718 25.967326,26.861109 0 0 0 -1.769699,1.964598 25.967326,26.861109 0 0 0 -1.57085,2.137394 25.967326,26.861109 0 0 0 -1.35673,2.2888 25.967326,26.861109 0 0 0 -1.12878,2.4176 25.967326,26.861109 0 0 0 -0.8897,2.5223 25.967326,26.861109 0 0 0 -0.40743,1.65 25.967326,26.861109 0 0 0 -0.2266,0.9182 25.967326,26.861109 0 0 1 0.51069,0.2551 25.967326,26.861109 0 0 1 0.70471,0.352 25.967326,26.861109 0 0 1 2.21248,1.4034 25.967326,26.861109 0 0 1 2.06629,1.6249 25.967326,26.861109 0 0 1 1.899289,1.8299 25.967326,26.861109 0 0 1 0.54739,0.6444 25.967326,26.861109 0 0 1 0.42546,0.50101 25.967326,26.861109 0 0 1 0.740731,0.87229 25.967326,26.861109 0 0 1 1.509858,2.18399 25.967326,26.861109 0 0 1 1.29091,2.3287 25.967326,26.861109 0 0 1 1.06086,2.4508 25.967326,26.861109 0 0 1 0.727572,2.26571 25.967326,26.861109 0 0 0 1.633199,0.8163 25.967326,26.861109 0 0 0 2.437688,0.9204 25.967326,26.861109 0 0 0 2.515291,0.66441 25.967326,26.861109 0 0 0 2.566568,0.40139 25.967326,26.861109 0 0 0 2.5922,0.13451 25.967326,26.861109 0 0 0 1.83694,-0.068 25.967326,26.861109 0 0 0 2.57694,-0.3233 25.967326,26.861109 0 0 0 1.56254,-0.3635 25.967326,26.861109 0 0 1 0.63887,-2.58881 25.967326,26.861109 0 0 1 0.89039,-2.5224 25.967326,26.861109 0 0 1 1.12877,-2.4177 25.967326,26.861109 0 0 1 1.35674,-2.28931 25.967326,26.861109 0 0 1 1.57085,-2.13738 25.967326,26.861109 0 0 1 1.76972,-1.9647 25.967326,26.861109 0 0 1 1.25833,-1.1432 25.967326,26.861109 0 0 1 0.69153,-0.6286 25.967326,26.861109 0 0 1 2.11131,-1.5618 25.967326,26.861109 0 0 1 1.15581,-0.686 25.967326,26.861109 0 0 1 1.09549,-0.6502 25.967326,26.861109 0 0 1 2.3691,-1.0965 25.967326,26.861109 0 0 1 2.46333,-0.8465 25.967326,26.861109 0 0 1 0.55501,-0.129 25.967326,26.861109 0 0 0 -0.0108,-0.049 25.967326,26.861109 0 0 0 -0.81833,-2.5474 25.967326,26.861109 0 0 0 -1.06085,-2.4513 25.967326,26.861109 0 0 0 -1.2909,-2.32881 25.967326,26.861109 0 0 0 -1.50987,-2.183997 25.967326,26.861109 0 0 0 -1.71361,-2.017094 25.967326,26.861109 0 0 0 -1.89927,-1.8306 25.967326,26.861109 0 0 0 -2.06629,-1.6249 25.967326,26.861109 0 0 0 -2.21248,-1.4034 25.967326,26.861109 0 0 0 -2.14737,-1.073 25.967326,26.861109 0 0 0 -0.18985,-0.094 25.967326,26.861109 0 0 0 -2.35038,-0.8881 25.967326,26.861109 0 0 0 -0.0879,-0.033 25.967326,26.861109 0 0 0 -2.51528,-0.66369 25.967326,26.861109 0 0 0 -2.56658,-0.4014 25.967326,26.861109 0 0 0 -2.59221,-0.134511 z"
       id="path3213"
       inkscape:connector-curvature="0" />
    <path
       inkscape:connector-curvature="0"
       style="opacity:1;vector-effect:none;fill:url(#radialGradient19199);fill-opacity:1;stroke:#000000;stroke-width:0;stroke-linecap:round;stroke-linejoin:miter;stroke-miterlimit:4;stroke-dasharray:none;stroke-dashoffset:0;stroke-opacity:1;paint-order:markers fill stroke"
       d="m 139.08345,198.00993 a 62.982411,71.647442 0 0 1 -1.74604,1.13945 9.6915033,11.024847 0 0 0 0.0216,0.20147 20.993795,23.882092 0 0 0 -0.15982,-0.11139 62.982411,71.647442 0 0 1 -3.02365,1.97314 62.982411,71.647442 0 0 1 -1.16098,0.5913 62.982411,71.647442 0 0 1 -4.5854,2.33404 62.982411,71.647442 0 0 1 -1.92506,0.72779 62.982411,71.647442 0 0 1 -4.0488,1.53035 62.982411,71.647442 0 0 1 -6.14281,1.56859 62.982411,71.647442 0 0 1 -6.24982,0.86318 62.982411,71.647442 0 0 1 -3.06826,0.12394 20.993795,23.882092 0 0 0 -0.45402,1.06901 20.993795,23.882092 0 0 0 -0.71945,2.24232 20.993795,23.882092 0 0 1 0.71896,-2.24232 20.993795,23.882092 0 0 1 0.45405,-1.06901 62.982411,71.647442 0 0 1 -1.38708,0.0557 62.982411,71.647442 0 0 1 -2.76735,-0.15778 62.982411,71.647442 0 0 1 -3.520378,-0.20038 62.982411,71.647442 0 0 1 -6.22487,-1.07011 62.982411,71.647442 0 0 1 -6.09961,-1.77223 62.982411,71.647442 0 0 1 -2.449619,-1.01715 62.982411,71.647442 0 0 1 -3.46425,-1.43864 62.982411,71.647442 0 0 1 -1.92936,-1.06028 62.982411,71.647442 0 0 1 -3.44696,-1.89398 62.982411,71.647442 0 0 1 -0.29277,-0.16052 62.982411,71.647442 0 0 1 -1.82089,-1.26994 62.982411,71.647442 0 0 1 -1.25746,-0.87683 117.5341,133.70428 0 0 1 -3.58998,8.4544 117.5341,133.70428 0 0 1 -0.88933,1.64994 117.53411,133.70429 0 0 1 -0.31244,0.57982 117.5341,133.70428 0 0 1 -0.82693,1.53474 20.993795,23.882092 0 0 0 -0.895601,2.10855 20.993795,23.882092 0 0 0 -0.71943,2.24232 20.993795,23.882092 0 0 0 -0.51931,2.31328 20.993795,23.882092 0 0 0 -0.31387,2.36024 20.993795,23.882092 0 0 0 -0.10463,2.38428 20.993795,23.882092 0 0 0 0.0523,1.68924 20.993795,23.882092 0 0 0 0.0763,0.71632 20.993795,23.882092 0 0 0 0.17663,1.65374 20.993795,23.882092 0 0 0 0.4598,2.32913 20.993795,23.882092 0 0 0 0.34891,1.19406 62.982411,71.647442 0 0 0 3.273681,2.83087 62.982411,71.647442 0 0 0 2.69009,1.8765 62.982411,71.647442 0 0 0 2.67713,1.86724 62.982411,71.647442 0 0 0 5.66861,3.11478 62.982411,71.647442 0 0 0 5.91388,2.45578 62.982411,71.647442 0 0 0 6.10008,1.77224 62.982411,71.647442 0 0 0 1.984069,0.34122 62.982411,71.647442 0 0 0 4.240799,0.72887 62.982411,71.647442 0 0 0 6.287729,0.35762 62.982411,71.647442 0 0 0 4.45533,-0.17908 62.982411,71.647442 0 0 0 6.24981,-0.86319 62.982411,71.647442 0 0 0 5.26978,-1.34581 62.982411,71.647442 0 0 0 0.87301,-0.22275 62.982411,71.647442 0 0 0 5.97433,-2.25815 62.982411,71.647442 0 0 0 5.74638,-2.92533 62.982411,71.647442 0 0 0 5.46081,-3.56358 62.982411,71.647442 0 0 0 1.97833,-1.61008 v 0 a 62.982411,71.647442 0 0 0 3.14169,-2.5557 62.982411,71.647442 0 0 0 2.63586,-2.63432 20.993795,23.882092 0 0 0 0.0345,-0.10809 20.993795,23.882092 0 0 0 0.51931,-2.31275 20.993795,23.882092 0 0 0 0.31341,-2.3608 20.993795,23.882092 0 0 0 0.0163,-0.37072 20.993795,23.882092 0 0 0 0.0888,-2.01355 20.993795,23.882092 0 0 0 -0.0528,-1.68925 20.993795,23.882092 0 0 0 -0.25294,-2.36951 20.993795,23.882092 0 0 0 -0.45932,-2.32967 20.993795,23.882092 0 0 0 -0.36186,-1.23882 117.5341,133.70428 0 0 1 -1.72974,-3.43034 117.5341,133.70428 0 0 1 -2.31954,-4.59984 117.53411,133.70429 0 0 1 -1.75853,-3.48714 117.53411,133.70429 0 0 1 -0.85239,-2.16641 z m -33.26297,14.25374 a 20.993795,23.882092 0 0 0 -0.51931,2.31275 20.993795,23.882092 0 0 0 -0.0427,0.32158 20.993795,23.882092 0 0 1 0.12574,0.43076 20.993795,23.882092 0 0 1 0.45979,2.32913 20.993795,23.882092 0 0 1 0.25291,2.37006 20.993795,23.882092 0 0 1 0.0523,1.68925 20.993795,23.882092 0 0 1 -0.10464,2.38427 20.993795,23.882092 0 0 1 -0.27115,2.03758 20.993795,23.882092 0 0 0 0.53611,1.83612 20.993795,23.882092 0 0 0 0.85716,2.17896 20.993795,23.882092 0 0 0 1.04437,2.07034 20.993795,23.882092 0 0 0 1.22048,1.94203 20.993795,23.882092 0 0 0 1.38515,1.79351 20.993795,23.882092 0 0 1 -1.38511,-1.79351 20.993795,23.882092 0 0 1 -1.22051,-1.94203 20.993795,23.882092 0 0 1 -1.04435,-2.07034 20.993795,23.882092 0 0 1 -0.85719,-2.17896 20.993795,23.882092 0 0 1 -0.53608,-1.83612 20.993795,23.882092 0 0 0 0.27115,-2.03758 20.993795,23.882092 0 0 0 0.10463,-2.38427 20.993795,23.882092 0 0 0 -0.0523,-1.68925 20.993795,23.882092 0 0 0 -0.25294,-2.37006 20.993795,23.882092 0 0 0 -0.45978,-2.32913 20.993795,23.882092 0 0 0 -0.12574,-0.43076 20.993795,23.882092 0 0 1 0.0427,-0.32158 20.993795,23.882092 0 0 1 0.5193,-2.31275 z"
       id="path20311-8" />
    <path
       inkscape:connector-curvature="0"
       style="opacity:1;vector-effect:none;fill:url(#radialGradient19231);fill-opacity:1;stroke:#000000;stroke-width:0;stroke-linecap:round;stroke-linejoin:miter;stroke-miterlimit:4;stroke-dasharray:none;stroke-dashoffset:0;stroke-opacity:1;paint-order:markers fill stroke"
       d="m 73.740084,195.30694 a 117.53411,133.70429 0 0 1 -0.44252,1.04117 117.5341,133.70428 0 0 1 -0.96421,2.2707 62.982411,71.647442 0 0 0 1.25747,0.87684 62.982411,71.647442 0 0 0 1.82088,1.26993 62.982411,71.647442 0 0 0 0.29277,0.16052 62.982411,71.647442 0 0 0 3.44696,1.89398 62.982411,71.647442 0 0 0 1.92937,1.06029 62.982411,71.647442 0 0 0 3.46424,1.43864 62.982411,71.647442 0 0 0 2.449619,1.01714 62.982411,71.647442 0 0 0 6.099609,1.77224 62.982411,71.647442 0 0 0 6.22486,1.07011 62.982411,71.647442 0 0 0 3.520408,0.20036 62.982411,71.647442 0 0 0 2.76734,0.15779 62.982411,71.647442 0 0 0 1.38704,-0.0557 62.982411,71.647442 0 0 0 3.06827,-0.12393 62.982411,71.647442 0 0 0 6.24984,-0.86319 62.982411,71.647442 0 0 0 6.14279,-1.56858 62.982411,71.647442 0 0 0 4.04928,-1.53036 62.982411,71.647442 0 0 0 1.92505,-0.72779 62.982411,71.647442 0 0 0 4.5854,-2.33404 62.982411,71.647442 0 0 0 1.16098,-0.59129 62.982411,71.647442 0 0 0 3.02366,-1.97315 62.982411,71.647442 0 0 0 0.13822,-0.0901 62.982411,71.647442 0 0 0 1.74604,-1.13946 117.5341,133.70428 0 0 1 -1.13796,-2.89312 62.982411,71.647442 0 0 1 -0.47273,0.30849 62.982411,71.647442 0 0 1 -2.81055,1.83391 62.982411,71.647442 0 0 1 -0.37822,0.19219 62.982411,71.647442 0 0 1 -4.29356,2.18608 62.982411,71.647442 0 0 1 -1.07461,0.54706 62.982411,71.647442 0 0 1 -5.45552,2.0627 62.982411,71.647442 0 0 1 -0.5188,0.196 62.982411,71.647442 0 0 1 -6.1428,1.56803 62.982411,71.647442 0 0 1 -6.24983,0.86319 62.982411,71.647442 0 0 1 -1.39376,0.0562 62.982411,71.647442 0 0 1 -3.06157,0.12338 62.982411,71.647442 0 0 1 -6.235888,-0.35542 62.982411,71.647442 0 0 1 -0.0518,-0.003 62.982411,71.647442 0 0 1 -6.224879,-1.07011 62.982411,71.647442 0 0 1 -5.83995,-1.69634 62.982411,71.647442 0 0 1 -0.26013,-0.0753 62.982411,71.647442 0 0 1 -4.811919,-1.99826 62.982411,71.647442 0 0 1 -1.10193,-0.45753 62.982411,71.647442 0 0 1 -1.50415,-0.8266 62.982411,71.647442 0 0 1 -4.16448,-2.28872 62.982411,71.647442 0 0 1 -2.15831,-1.50525 z"
       id="path20369-3" />
    <path
       inkscape:connector-curvature="0"
       style="opacity:1;vector-effect:none;fill:url(#radialGradient19207);fill-opacity:1;stroke:#000000;stroke-width:0;stroke-linecap:round;stroke-linejoin:miter;stroke-miterlimit:4;stroke-dasharray:none;stroke-dashoffset:0;stroke-opacity:1;paint-order:markers fill stroke"
       d="m 79.303574,108.28865 a 62.982411,71.647442 0 0 0 -0.31437,0.15998 117.53411,133.70429 0 0 1 2.43238,12.32698 117.53411,133.70429 0 0 1 1.41583,13.26718 117.53411,133.70429 0 0 1 0.29419,9.45789 117.53411,133.70429 0 0 1 -0.58697,13.34852 117.53411,133.70429 0 0 1 -1.75564,13.21477 117.53411,133.70429 0 0 1 -2.90653,12.94939 117.53411,133.70429 0 0 1 -2.16118,6.73514 62.982411,71.647442 0 0 0 1.16962,0.81567 62.982411,71.647442 0 0 0 5.6691,3.11534 62.982411,71.647442 0 0 0 5.91386,2.4558 62.982411,71.647442 0 0 0 2.970379,0.86263 39.389444,44.80859 0 0 0 -0.677209,0.17308 39.389444,44.80859 0 0 0 -3.736371,1.41244 39.389444,44.80859 0 0 0 -0.736229,0.37452 20.993796,23.882093 0 0 1 0.957019,0.0546 20.993796,23.882093 0 0 1 2.074779,0.35708 20.993796,23.882093 0 0 1 2.03353,0.59073 20.993796,23.882093 0 0 1 0.4118,0.17088 39.389447,44.808592 0 0 1 0.792382,-0.51703 39.389447,44.808592 0 0 1 3.01453,-1.53472 62.982411,71.647442 0 0 0 5.220336,0.89757 62.982411,71.647442 0 0 0 6.28773,0.35816 62.982411,71.647442 0 0 0 4.45533,-0.17963 62.982411,71.647442 0 0 0 3.97345,-0.54869 62.982411,71.647442 0 0 0 2.2759,-0.31394 62.982411,71.647442 0 0 0 0.27931,-0.0715 20.993796,23.882093 0 0 1 0.1987,-0.10101 20.993796,23.882093 0 0 1 1.99177,-0.75291 20.993796,23.882093 0 0 1 2.04744,-0.52248 20.993796,23.882093 0 0 1 0.0106,-0.002 20.993796,23.882093 0 0 1 2.04792,-0.28282 62.982411,71.647442 0 0 0 5.54192,-2.09435 62.982411,71.647442 0 0 0 5.74635,-2.92588 62.982411,71.647442 0 0 0 0.37148,-0.24241 117.53411,133.70429 0 0 1 -0.88982,-2.26252 117.53411,133.70429 0 0 1 -3.70468,-12.68297 117.53411,133.70429 0 0 1 -2.57298,-13.04058 117.53411,133.70429 0 0 1 -1.41583,-13.26718 117.53411,133.70429 0 0 1 -0.29423,-9.4579 117.53411,133.70429 0 0 1 0.58699,-13.34797 117.53411,133.70429 0 0 1 1.75564,-13.21473 117.53411,133.70429 0 0 1 1.09715,-4.88811 62.982411,71.647442 0 0 0 -0.0412,-0.0224 53.870273,61.28167 0 0 1 -0.51498,0.33577 53.870273,61.28167 0 0 1 -4.91509,2.5022 53.870273,61.28167 0 0 1 -5.10995,1.93165 53.870273,61.28167 0 0 1 -5.25444,1.34146 53.870273,61.28167 0 0 1 -5.34512,0.73815 53.870273,61.28167 0 0 1 -3.81075,0.15341 53.870273,61.28167 0 0 1 -5.37826,-0.30617 53.870273,61.28167 0 0 1 -5.324016,-0.91506 53.870273,61.28167 0 0 1 -5.217459,-1.51561 53.870273,61.28167 0 0 1 -5.0586,-2.10014 53.870273,61.28167 0 0 1 -4.84841,-2.66435 53.870273,61.28167 0 0 1 -0.46697,-0.32594 z"
       id="path20181-1" />
    <path
       inkscape:connector-curvature="0"
       style="opacity:1;vector-effect:none;fill:url(#radialGradient19215);fill-opacity:1;stroke:#000000;stroke-width:0;stroke-linecap:round;stroke-linejoin:miter;stroke-miterlimit:4;stroke-dasharray:none;stroke-dashoffset:0;stroke-opacity:1;paint-order:markers fill stroke"
       d="m 75.721284,189.7485 a 117.5341,133.70428 0 0 1 -1.86745,5.81954 117.5341,133.70428 0 0 1 -0.11375,0.26807 62.982411,71.647442 0 0 0 2.1583,1.50525 62.982411,71.647442 0 0 0 4.16448,2.28872 62.982411,71.647442 0 0 0 1.50414,0.8266 62.982411,71.647442 0 0 0 1.10193,0.45752 62.982411,71.647442 0 0 0 4.811939,1.99827 62.982411,71.647442 0 0 0 0.26013,0.0753 62.982411,71.647442 0 0 0 5.839949,1.69633 62.982411,71.647442 0 0 0 6.224849,1.07012 62.982411,71.647442 0 0 0 0.0518,0.003 62.982411,71.647442 0 0 0 6.235889,0.35542 62.982411,71.647442 0 0 0 3.06155,-0.12338 62.982411,71.647442 0 0 0 1.39377,-0.0562 62.982411,71.647442 0 0 0 6.24984,-0.86318 62.982411,71.647442 0 0 0 6.14278,-1.56804 62.982411,71.647442 0 0 0 0.51882,-0.196 62.982411,71.647442 0 0 0 5.45551,-2.0627 62.982411,71.647442 0 0 0 1.07462,-0.54705 62.982411,71.647442 0 0 0 4.29356,-2.18609 62.982411,71.647442 0 0 0 0.3782,-0.19218 62.982411,71.647442 0 0 0 2.81055,-1.83392 9.6915033,11.024847 0 0 1 0.20781,-0.92652 9.6915033,11.024847 0 0 1 0.009,-0.0305 117.5341,133.70428 0 0 1 -1.66347,-4.22857 62.982411,71.647442 0 0 1 -0.37148,0.24243 62.982411,71.647442 0 0 1 -5.74638,2.92587 62.982411,71.647442 0 0 1 -5.54191,2.09435 20.993796,23.882093 0 0 0 -2.0479,0.28282 20.993796,23.882093 0 0 0 -0.0107,0.002 20.993796,23.882093 0 0 0 -2.04743,0.52249 20.993796,23.882093 0 0 0 -1.99176,0.7529 20.993796,23.882093 0 0 0 -0.19871,0.10101 62.982411,71.647442 0 0 1 -0.27932,0.0715 62.982411,71.647442 0 0 1 -2.27588,0.31393 62.982411,71.647442 0 0 1 -3.97346,0.5487 62.982411,71.647442 0 0 1 -4.45533,0.17963 62.982411,71.647442 0 0 1 -6.28772,-0.35816 62.982411,71.647442 0 0 1 -5.220337,-0.89758 39.389447,44.808592 0 0 0 -3.01453,1.53473 39.389447,44.808592 0 0 0 -0.79239,0.51704 20.993795,23.882092 0 0 0 -0.4118,-0.17089 20.993795,23.882092 0 0 0 -2.03353,-0.59075 20.993795,23.882092 0 0 0 -2.074799,-0.35706 20.993795,23.882092 0 0 0 -0.956999,-0.0546 39.389444,44.80859 0 0 1 0.736239,-0.37454 39.389444,44.80859 0 0 1 3.736369,-1.41242 39.389444,44.80859 0 0 1 0.677191,-0.17308 62.982411,71.647442 0 0 1 -2.970361,-0.86264 62.982411,71.647442 0 0 1 -5.913868,-2.45579 62.982411,71.647442 0 0 1 -5.66909,-3.11533 62.982411,71.647442 0 0 1 -1.16963,-0.81569 z"
       id="path20243-8" />
    <path
       style="opacity:1;vector-effect:none;fill:#b3b3b3;fill-opacity:1;stroke:#000000;stroke-width:0;stroke-linecap:round;stroke-linejoin:miter;stroke-miterlimit:4;stroke-dasharray:none;stroke-dashoffset:0;stroke-opacity:1;paint-order:markers fill stroke"
       d="m 78.989204,112.15282 a 62.982411,71.647442 0 0 1 0.31437,-0.15998 53.870273,61.28167 0 0 1 -0.40073,-0.27953 117.53411,133.70429 0 0 1 0.0864,0.43951 z"
       id="path20397-9"
       inkscape:connector-curvature="0" />
    <path
       style="opacity:1;vector-effect:none;fill:#b3b3b3;fill-opacity:1;stroke:#000000;stroke-width:0;stroke-linecap:round;stroke-linejoin:miter;stroke-miterlimit:4;stroke-dasharray:none;stroke-dashoffset:0;stroke-opacity:1;paint-order:markers fill stroke"
       d="m 67.541593,206.12795 a 117.53411,133.70429 0 0 0 0.31245,-0.57982 20.993796,23.882093 0 0 0 -0.0254,0.0382 20.993796,23.882093 0 0 0 -0.29375,0.5449 9.6915028,11.024846 0 0 0 0.006,-0.003 z"
       id="path20381-6"
       inkscape:connector-curvature="0" />
    <path
       style="opacity:1;vector-effect:none;fill:#b3b3b3;fill-opacity:1;stroke:#000000;stroke-width:0;stroke-linecap:round;stroke-linejoin:miter;stroke-miterlimit:4;stroke-dasharray:none;stroke-dashoffset:0;stroke-opacity:1;paint-order:markers fill stroke"
       d="m 67.541593,206.12795 a 9.6915028,11.024846 0 0 1 -0.006,0.003 20.993796,23.882093 0 0 0 -0.80294,1.4905 20.993796,23.882093 0 0 0 -0.0171,0.041 117.53411,133.70429 0 0 0 0.82693,-1.53473 z"
       id="path20379-4"
       inkscape:connector-curvature="0" />
    <path
       style="opacity:1;vector-effect:none;fill:#b3b3b3;fill-opacity:1;stroke:#000000;stroke-width:0;stroke-linecap:round;stroke-linejoin:miter;stroke-miterlimit:4;stroke-dasharray:none;stroke-dashoffset:0;stroke-opacity:1;paint-order:markers fill stroke"
       d="m 137.33741,199.14938 a 62.982411,71.647442 0 0 1 -0.13822,0.0901 20.993796,23.882093 0 0 1 0.15981,0.11138 9.6915033,11.024847 0 0 1 -0.0216,-0.20146 z"
       id="path20325-3"
       inkscape:connector-curvature="0" />
    <path
       inkscape:connector-curvature="0"
       style="opacity:1;vector-effect:none;fill:url(#radialGradient17064);fill-opacity:1;stroke:#000000;stroke-width:0;stroke-linecap:round;stroke-linejoin:miter;stroke-miterlimit:4;stroke-dasharray:none;stroke-dashoffset:0;stroke-opacity:1;paint-order:markers fill stroke"
       d="m 146.37403,220.33383 a 60.814287,71.647442 0 0 1 -1.85507,1.91965 60.814287,71.647442 0 0 1 -2.54511,2.63431 60.814287,71.647442 0 0 1 -3.03356,2.55572 60.814287,71.647442 0 0 1 -1.91117,1.61006 60.814287,71.647442 0 0 1 -5.2728,3.56357 60.814287,71.647442 0 0 1 -5.54857,2.92534 60.814287,71.647442 0 0 1 -5.76865,2.25815 60.814287,71.647442 0 0 1 -0.84298,0.22275 60.814287,71.647442 0 0 1 -5.08838,1.34583 60.814287,71.647442 0 0 1 -6.03468,0.86317 60.814287,71.647442 0 0 1 -4.30194,0.1791 60.814287,71.647442 0 0 1 -6.07127,-0.35763 60.814287,71.647442 0 0 1 -4.094821,-0.72888 20.2711,23.882093 0 0 1 -0.792438,0.41768 20.2711,23.882093 0 0 0 0.792438,-0.41768 60.814287,71.647442 0 0 1 -1.914863,-0.34123 60.814287,71.647442 0 0 1 -5.890068,-1.77223 60.814287,71.647442 0 0 1 -5.710299,-2.45579 60.814287,71.647442 0 0 1 -5.473492,-3.11477 60.814287,71.647442 0 0 1 -2.584036,-1.86668 38.033493,44.808592 0 0 1 0,-5.3e-4 60.814287,71.647442 0 0 1 -2.597466,-1.87652 60.814287,71.647442 0 0 1 -3.161015,-2.83087 20.2711,23.882093 0 0 0 0.302148,1.0712 20.2711,23.882093 0 0 0 0.827672,2.17897 20.2711,23.882093 0 0 0 1.007955,2.0709 20.2711,23.882093 0 0 0 1.178939,1.94201 20.2711,23.882093 0 0 0 1.336985,1.79352 20.2711,23.882093 0 0 0 0.938404,1.02973 38.033493,44.808592 0 0 0 0,0.001 20.2711,23.882093 0 0 1 -0.939332,-1.0308 20.2711,23.882093 0 0 1 -1.336995,-1.79352 20.2711,23.882093 0 0 1 -1.178957,-1.94204 20.2711,23.882093 0 0 1 -1.007926,-2.07087 20.2711,23.882093 0 0 1 -0.827662,-2.17898 20.2711,23.882093 0 0 1 -0.302148,-1.0712 60.814287,71.647442 0 0 1 -1.678509,-1.50307 60.814287,71.647442 0 0 1 -0.200212,-0.22003 38.03349,44.80859 0 0 0 -0.608932,2.80959 38.03349,44.80859 0 0 0 -0.568153,4.42838 38.03349,44.80859 0 0 0 -0.185825,4.37544 71.090667,83.754404 0 0 0 0.600115,0.53723 71.090667,83.754404 0 0 0 6.058341,4.37599 71.090667,83.754404 0 0 0 2.653064,1.50962 71.090667,83.754404 0 0 0 3.745392,2.13148 71.090667,83.754404 0 0 0 6.67514,2.87072 71.090667,83.754404 0 0 0 6.885502,2.07143 71.090667,83.754404 0 0 0 7.025942,1.25137 71.090667,83.754404 0 0 0 7.097302,0.41821 71.090667,83.754404 0 0 0 5.02906,-0.20965 71.090667,83.754404 0 0 0 7.0542,-1.00894 71.090667,83.754404 0 0 0 6.93374,-1.8334 71.090667,83.754404 0 0 0 6.74323,-2.64033 71.090667,83.754404 0 0 0 6.48654,-3.41943 71.090667,83.754404 0 0 0 2.90564,-1.96386 71.090667,83.754404 0 0 0 3.25832,-2.20191 71.090667,83.754404 0 0 0 5.65839,-4.768 38.033493,44.808592 0 0 0 -0.0297,-0.99039 38.033493,44.808592 0 0 0 -0.45786,-4.44641 38.033493,44.808592 0 0 0 -0.83277,-4.37053 38.033493,44.808592 0 0 0 -0.54591,-1.93601 z"
       id="path20315-3" />
    <path
       inkscape:connector-curvature="0"
       style="opacity:1;vector-effect:none;fill:url(#radialGradient17072);fill-opacity:1;stroke:#000000;stroke-width:0;stroke-linecap:round;stroke-linejoin:miter;stroke-miterlimit:4;stroke-dasharray:none;stroke-dashoffset:0;stroke-opacity:1;paint-order:markers fill stroke"
       d="m 148.1023,231.01885 a 70.974961,83.754404 0 0 1 -5.64917,4.76797 70.974961,83.754404 0 0 1 -3.25302,2.20193 70.974961,83.754404 0 0 1 -2.90094,1.96385 70.974961,83.754404 0 0 1 -6.47597,3.41945 70.974961,83.754404 0 0 1 -6.73226,2.64031 70.974961,83.754404 0 0 1 -6.92244,1.83338 70.974961,83.754404 0 0 1 -7.04273,1.00896 70.974961,83.754404 0 0 1 -5.02088,0.20965 70.974961,83.754404 0 0 1 -7.08575,-0.4182 70.974961,83.754404 0 0 1 -7.014489,-1.25137 70.974961,83.754404 0 0 1 -6.874313,-2.07144 70.974961,83.754404 0 0 1 -6.664255,-2.87072 70.974961,83.754404 0 0 1 -3.739313,-2.13147 70.974961,83.754404 0 0 1 -2.648762,-1.50962 70.974961,83.754404 0 0 1 -6.048462,-4.37599 70.974961,83.754404 0 0 1 -0.599146,-0.53723 37.97159,44.80859 0 0 0 -0.0049,0.0983 37.97159,44.80859 0 0 0 0.09485,3.16938 37.97159,44.80859 0 0 0 0.457574,4.44641 37.97159,44.80859 0 0 0 0.08514,0.44825 82.958495,97.895643 0 0 0 1.622557,1.17384 82.958495,97.895643 0 0 0 7.466522,4.25642 82.958495,97.895643 0 0 0 1.258031,0.54161 82.958495,97.895643 0 0 0 6.531922,2.81395 82.958495,97.895643 0 0 0 8.034702,2.42084 82.958495,97.895643 0 0 0 8.198935,1.46265 82.958495,97.895643 0 0 0 8.282187,0.48866 82.958495,97.895643 0 0 0 5.86802,-0.24514 82.958495,97.895643 0 0 0 8.23224,-1.17932 82.958495,97.895643 0 0 0 8.09115,-2.14292 82.958495,97.895643 0 0 0 7.86904,-3.08532 82.958495,97.895643 0 0 0 2.08433,-1.10068 82.958495,97.895643 0 0 0 5.48493,-2.89693 82.958495,97.895643 0 0 0 4.38701,-2.96956 37.971592,44.808592 0 0 0 0.50292,-3.92774 37.971592,44.808592 0 0 0 0.18971,-4.47315 37.971592,44.808592 0 0 0 -0.0656,-2.17899 z"
       id="path20283-3" />
    <path
       style="opacity:1;vector-effect:none;fill:#b3b3b3;fill-opacity:1;stroke:#000000;stroke-width:0;stroke-linecap:round;stroke-linejoin:miter;stroke-miterlimit:4;stroke-dasharray:none;stroke-dashoffset:0;stroke-opacity:1;paint-order:markers fill stroke"
       d="m 130.58891,112.8402 a 117.53411,133.70429 0 0 1 0.013,-0.0579 53.870273,61.28167 0 0 1 -0.0542,0.0355 62.982411,71.647442 0 0 1 0.0413,0.0224 z"
       id="path20185-8"
       inkscape:connector-curvature="0" />
    <path
       style="opacity:1;vector-effect:none;fill:#000000;fill-opacity:1;stroke:#000000;stroke-width:0;stroke-linecap:round;stroke-linejoin:miter;stroke-miterlimit:4;stroke-dasharray:none;stroke-dashoffset:0;stroke-opacity:1;paint-order:markers fill stroke"
       d="m 82.370424,106.86913 a 62.982411,71.647442 0 0 0 -1.08085,0.40839 62.982411,71.647442 0 0 0 -1.986,1.01113 53.870273,61.28167 0 0 0 0.46699,0.32595 53.870273,61.28167 0 0 0 4.8484,2.66435 53.870273,61.28167 0 0 0 5.05859,2.10037 53.870273,61.28167 0 0 0 5.217459,1.51562 53.870273,61.28167 0 0 0 5.324037,0.91505 53.870273,61.28167 0 0 0 5.37826,0.30629 53.870273,61.28167 0 0 0 3.81073,-0.15342 53.870273,61.28167 0 0 0 5.34512,-0.73815 53.870273,61.28167 0 0 0 5.25444,-1.34146 53.870273,61.28167 0 0 0 5.10996,-1.93166 53.870273,61.28167 0 0 0 4.9151,-2.5022 53.870273,61.28167 0 0 0 0.51496,-0.33576 62.982411,71.647442 0 0 0 -1.9092,-1.04937 62.982411,71.647442 0 0 0 -2.12712,-0.88338 100.57537,114.41239 0 0 1 -4.31613,1.10232 100.57537,114.41239 0 0 1 -9.97995,1.37804 100.57537,114.41239 0 0 1 -7.11467,0.28663 100.57537,114.41239 0 0 1 -10.040416,-0.57163 100.57537,114.41239 0 0 1 -9.94059,-1.70889 100.57537,114.41239 0 0 1 -2.74912,-0.79822 z"
       id="path20093-4"
       inkscape:connector-curvature="0" />
  </g>
</svg>
