<?xml version="1.0" encoding="UTF-8" standalone="no"?>
<!-- Created with Inkscape (http://www.inkscape.org/) -->

<svg
   xmlns:dc="http://purl.org/dc/elements/1.1/"
   xmlns:cc="http://creativecommons.org/ns#"
   xmlns:rdf="http://www.w3.org/1999/02/22-rdf-syntax-ns#"
   xmlns:svg="http://www.w3.org/2000/svg"
   xmlns="http://www.w3.org/2000/svg"
   xmlns:xlink="http://www.w3.org/1999/xlink"
   xmlns:sodipodi="http://sodipodi.sourceforge.net/DTD/sodipodi-0.dtd"
   xmlns:inkscape="http://www.inkscape.org/namespaces/inkscape"
   width="210mm"
   height="297mm"
   viewBox="0 0 210 297"
   version="1.1"
   id="svg17556"
   inkscape:version="0.92.3 (2405546, 2018-03-11)"
   sodipodi:docname="bQ.svg">
  <defs
     id="defs17550">
    <linearGradient
       inkscape:collect="always"
       id="linearGradient19229">
      <stop
         style="stop-color:#999999;stop-opacity:1"
         offset="0"
         id="stop19225" />
      <stop
         style="stop-color:#000000;stop-opacity:1"
         offset="1"
         id="stop19227" />
    </linearGradient>
    <linearGradient
       id="linearGradient19221"
       inkscape:collect="always">
      <stop
         id="stop19217"
         offset="0"
         style="stop-color:#808080;stop-opacity:1" />
      <stop
         id="stop19219"
         offset="1"
         style="stop-color:#000000;stop-opacity:1" />
    </linearGradient>
    <linearGradient
       inkscape:collect="always"
       id="linearGradient19213">
      <stop
         style="stop-color:#808080;stop-opacity:1"
         offset="0"
         id="stop19209" />
      <stop
         style="stop-color:#000000;stop-opacity:1"
         offset="1"
         id="stop19211" />
    </linearGradient>
    <linearGradient
       inkscape:collect="always"
       id="linearGradient19205">
      <stop
         style="stop-color:#808080;stop-opacity:1"
         offset="0"
         id="stop19201" />
      <stop
         style="stop-color:#000000;stop-opacity:1"
         offset="1"
         id="stop19203" />
    </linearGradient>
    <linearGradient
       gradientTransform="matrix(0.44626919,-0.01918547,0.01890606,0.45286443,-95.940311,-88.791183)"
       inkscape:collect="always"
       xlink:href="#linearGradient6689"
       id="linearGradient5753"
       x1="496.05188"
       y1="361.0025"
       x2="349.51279"
       y2="431.57535"
       gradientUnits="userSpaceOnUse" />
    <linearGradient
       id="linearGradient6689"
       inkscape:collect="always">
      <stop
         id="stop6685"
         offset="0"
         style="stop-color:#000000;stop-opacity:1;" />
      <stop
         id="stop6687"
         offset="1"
         style="stop-color:#999999;stop-opacity:1" />
    </linearGradient>
    <linearGradient
       inkscape:collect="always"
       id="linearGradient15725">
      <stop
         style="stop-color:#b3b3b3;stop-opacity:1"
         offset="0"
         id="stop15721" />
      <stop
         style="stop-color:#000000;stop-opacity:1"
         offset="1"
         id="stop15723" />
    </linearGradient>
    <linearGradient
       inkscape:collect="always"
       id="linearGradient5299">
      <stop
         style="stop-color:#000000;stop-opacity:1;"
         offset="0"
         id="stop5295" />
      <stop
         style="stop-color:#000000;stop-opacity:0;"
         offset="1"
         id="stop5297" />
    </linearGradient>
    <linearGradient
       inkscape:collect="always"
       xlink:href="#linearGradient5299"
       id="linearGradient5767"
       x1="120.27129"
       y1="82.382568"
       x2="111.52992"
       y2="87.740005"
       gradientUnits="userSpaceOnUse"
       gradientTransform="matrix(1.6882447,0,0,1.7131045,-92.153279,-90.11051)" />
    <linearGradient
       inkscape:collect="always"
       xlink:href="#linearGradient6683"
       id="linearGradient5751"
       x1="121.5815"
       y1="87.867645"
       x2="92.475258"
       y2="97.349663"
       gradientUnits="userSpaceOnUse"
       gradientTransform="matrix(1.6866867,-0.07251202,0.071456,1.7116136,-95.902504,-87.885586)" />
    <linearGradient
       id="linearGradient6683"
       inkscape:collect="always">
      <stop
         id="stop6679"
         offset="0"
         style="stop-color:#000000;stop-opacity:1;" />
      <stop
         id="stop6681"
         offset="1"
         style="stop-color:#808080;stop-opacity:1" />
    </linearGradient>
    <linearGradient
       inkscape:collect="always"
       id="linearGradient5219">
      <stop
         style="stop-color:#808080;stop-opacity:1"
         offset="0"
         id="stop5215" />
      <stop
         style="stop-color:#000000;stop-opacity:1"
         offset="1"
         id="stop5217" />
    </linearGradient>
    <radialGradient
       inkscape:collect="always"
       xlink:href="#linearGradient15725"
       id="radialGradient17072"
       cx="-178.40547"
       cy="266.08716"
       fx="-178.40547"
       fy="266.08716"
       r="43.196438"
       gradientTransform="matrix(1,0,0,0.28011294,286.05558,168.29132)"
       gradientUnits="userSpaceOnUse" />
    <radialGradient
       inkscape:collect="always"
       xlink:href="#linearGradient17070"
       id="radialGradient17064"
       cx="-177.67918"
       cy="257.13831"
       fx="-177.67918"
       fy="257.13831"
       r="43.916767"
       gradientTransform="matrix(1,0,0,0.33915135,286.05558,146.6681)"
       gradientUnits="userSpaceOnUse" />
    <linearGradient
       id="linearGradient17070"
       inkscape:collect="always">
      <stop
         id="stop17066"
         offset="0"
         style="stop-color:#999999;stop-opacity:1" />
      <stop
         id="stop17068"
         offset="1"
         style="stop-color:#1a1a1a;stop-opacity:1" />
    </linearGradient>
    <radialGradient
       inkscape:collect="always"
       xlink:href="#linearGradient19205"
       id="radialGradient19199"
       cx="108.05576"
       cy="218.3886"
       fx="108.05576"
       fy="218.3886"
       r="41.353828"
       gradientTransform="matrix(1,0,0,0.56385226,0,95.249694)"
       gradientUnits="userSpaceOnUse" />
    <radialGradient
       inkscape:collect="always"
       xlink:href="#linearGradient19213"
       id="radialGradient19207"
       cx="108.4141"
       cy="150.21277"
       fx="108.4141"
       fy="150.21277"
       r="30.152716"
       gradientTransform="matrix(1,0,0,1.5229597,0,-78.555228)"
       gradientUnits="userSpaceOnUse" />
    <radialGradient
       inkscape:collect="always"
       xlink:href="#linearGradient19221"
       id="radialGradient19215"
       cx="108.25489"
       cy="193.93346"
       fx="108.25489"
       fy="193.93346"
       r="31.97471"
       gradientTransform="matrix(1,0,0,0.25589211,0,144.30741)"
       gradientUnits="userSpaceOnUse" />
    <radialGradient
       inkscape:collect="always"
       xlink:href="#linearGradient19229"
       id="radialGradient19223"
       cx="107.4823"
       cy="106.11727"
       fx="107.4823"
       fy="106.11727"
       r="25.236429"
       gradientTransform="matrix(1,0,0,0.81511339,0,19.619662)"
       gradientUnits="userSpaceOnUse" />
    <radialGradient
       inkscape:collect="always"
       xlink:href="#linearGradient5219"
       id="radialGradient19231"
       cx="108.2485"
       cy="198.9537"
       fx="108.2485"
       fy="198.9537"
       r="33.37505"
       gradientTransform="matrix(1,0,0,0.21318322,0,156.54011)"
       gradientUnits="userSpaceOnUse" />
  </defs>
  <sodipodi:namedview
     id="base"
     pagecolor="#ffffff"
     bordercolor="#666666"
     borderopacity="1.0"
     inkscape:pageopacity="0.0"
     inkscape:pageshadow="2"
     inkscape:zoom="1.4"
     inkscape:cx="696.04442"
     inkscape:cy="734.49948"
     inkscape:document-units="mm"
     inkscape:current-layer="layer1"
     showgrid="false"
     inkscape:window-width="1920"
     inkscape:window-height="1017"
     inkscape:window-x="0"
     inkscape:window-y="0"
     inkscape:window-maximized="1" />
  <metadata
     id="metadata17553">
    <rdf:RDF>
      <cc:Work
         rdf:about="">
        <dc:format>image/svg+xml</dc:format>
        <dc:type
           rdf:resource="http://purl.org/dc/dcmitype/StillImage" />
        <dc:title></dc:title>
      </cc:Work>
    </rdf:RDF>
  </metadata>
  <g
     inkscape:label="Layer 1"
     inkscape:groupmode="layer"
     id="layer1">
    <path
       style="display:inline;opacity:1;fill:url(#radialGradient19223);fill-opacity:1;stroke:#fa0000;stroke-width:0;stroke-linecap:round;stroke-linejoin:miter;stroke-miterlimit:4;stroke-dasharray:none;stroke-opacity:1;paint-order:markers fill stroke"
       d="m 107.68706,85.547017 a 25.967326,26.861109 0 0 0 -1.83693,0.068 25.967326,26.861109 0 0 0 -2.57626,0.3233 25.967326,26.861109 0 0 0 -0.44901,0.104 25.967326,26.861109 0 0 0 -2.0836,0.4838 25.967326,26.861109 0 0 0 -2.463339,0.8472 25.967326,26.861109 0 0 0 -0.84051,0.3892 25.967326,26.861109 0 0 0 -1.52926,0.7075 25.967326,26.861109 0 0 0 -2.25129,1.336 25.967326,26.861109 0 0 0 -2.11132,1.5619 25.967326,26.861109 0 0 0 -1.94988,1.7718 25.967326,26.861109 0 0 0 -1.7697,1.9646 25.967326,26.861109 0 0 0 -1.57085,2.1374 25.967326,26.861109 0 0 0 -1.35673,2.2888 25.967326,26.861109 0 0 0 -1.12878,2.417603 25.967326,26.861109 0 0 0 -0.8897,2.5223 25.967326,26.861109 0 0 0 -0.40743,1.65 25.967326,26.861109 0 0 0 -0.2266,0.9182 25.967326,26.861109 0 0 1 0.51069,0.2551 25.967326,26.861109 0 0 1 0.70471,0.352 25.967326,26.861109 0 0 1 2.21248,1.4034 25.967326,26.861109 0 0 1 2.06629,1.6249 25.967326,26.861109 0 0 1 1.89929,1.8299 25.967326,26.861109 0 0 1 0.54739,0.6444 25.967326,26.861109 0 0 1 0.42546,0.501 25.967326,26.861109 0 0 1 0.74073,0.8723 25.967326,26.861109 0 0 1 1.50986,2.18399 25.967326,26.861109 0 0 1 1.29091,2.3287 25.967326,26.861109 0 0 1 1.06086,2.4508 25.967326,26.861109 0 0 1 0.72757,2.2657 25.967326,26.861109 0 0 0 1.6332,0.81631 25.967326,26.861109 0 0 0 2.437689,0.9204 25.967326,26.861109 0 0 0 2.51529,0.6644 25.967326,26.861109 0 0 0 2.56657,0.4014 25.967326,26.861109 0 0 0 2.5922,0.1345 25.967326,26.861109 0 0 0 1.83694,-0.068 25.967326,26.861109 0 0 0 2.57694,-0.3233 25.967326,26.861109 0 0 0 1.56254,-0.3635 25.967326,26.861109 0 0 1 0.63887,-2.58881 25.967326,26.861109 0 0 1 0.89039,-2.5224 25.967326,26.861109 0 0 1 1.12877,-2.41769 25.967326,26.861109 0 0 1 1.35674,-2.28931 25.967326,26.861109 0 0 1 1.57085,-2.13739 25.967326,26.861109 0 0 1 1.76972,-1.9647 25.967326,26.861109 0 0 1 1.25833,-1.1432 25.967326,26.861109 0 0 1 0.69153,-0.6286 25.967326,26.861109 0 0 1 2.11131,-1.5618 25.967326,26.861109 0 0 1 1.15581,-0.686 25.967326,26.861109 0 0 1 1.09549,-0.6502 25.967326,26.861109 0 0 1 2.3691,-1.0965 25.967326,26.861109 0 0 1 2.46333,-0.8465 25.967326,26.861109 0 0 1 0.55501,-0.129 25.967326,26.861109 0 0 0 -0.0108,-0.049 25.967326,26.861109 0 0 0 -0.81833,-2.5474 25.967326,26.861109 0 0 0 -1.06085,-2.4513 25.967326,26.861109 0 0 0 -1.2909,-2.328803 25.967326,26.861109 0 0 0 -1.50987,-2.184 25.967326,26.861109 0 0 0 -1.71361,-2.0171 25.967326,26.861109 0 0 0 -1.89927,-1.8306 25.967326,26.861109 0 0 0 -2.06629,-1.6249 25.967326,26.861109 0 0 0 -2.21248,-1.4034 25.967326,26.861109 0 0 0 -2.14737,-1.073 25.967326,26.861109 0 0 0 -0.18985,-0.094 25.967326,26.861109 0 0 0 -2.35038,-0.8881 25.967326,26.861109 0 0 0 -0.0879,-0.033 25.967326,26.861109 0 0 0 -2.51528,-0.66369 25.967326,26.861109 0 0 0 -2.56658,-0.4014 25.967326,26.861109 0 0 0 -2.59221,-0.13451 z"
       id="path3213"
       inkscape:connector-curvature="0" />
    <path
       inkscape:connector-curvature="0"
       style="opacity:1;vector-effect:none;fill:url(#radialGradient19199);fill-opacity:1;stroke:#000000;stroke-width:0;stroke-linecap:round;stroke-linejoin:miter;stroke-miterlimit:4;stroke-dasharray:none;stroke-dashoffset:0;stroke-opacity:1;paint-order:markers fill stroke"
       d="m 141.62355,195.07115 a 62.982411,71.647442 0 0 1 -1.74604,1.13945 9.6915033,11.024847 0 0 0 0.0216,0.20147 20.993795,23.882092 0 0 0 -0.15982,-0.11139 62.982411,71.647442 0 0 1 -3.02365,1.97314 62.982411,71.647442 0 0 1 -1.16098,0.5913 62.982411,71.647442 0 0 1 -4.5854,2.33404 62.982411,71.647442 0 0 1 -1.92506,0.72778 62.982411,71.647442 0 0 1 -4.0488,1.53036 62.982411,71.647442 0 0 1 -6.14281,1.56859 62.982411,71.647442 0 0 1 -6.24982,0.86317 62.982411,71.647442 0 0 1 -3.06826,0.12395 20.993795,23.882092 0 0 0 -0.45402,1.06901 20.993795,23.882092 0 0 0 -0.71945,2.24232 20.993795,23.882092 0 0 1 0.71896,-2.24232 20.993795,23.882092 0 0 1 0.45405,-1.06901 62.982411,71.647442 0 0 1 -1.38708,0.0557 62.982411,71.647442 0 0 1 -2.76735,-0.15779 62.982411,71.647442 0 0 1 -3.52038,-0.20038 62.982411,71.647442 0 0 1 -6.224869,-1.07011 62.982411,71.647442 0 0 1 -6.09961,-1.77222 62.982411,71.647442 0 0 1 -2.44962,-1.01716 62.982411,71.647442 0 0 1 -3.46425,-1.43864 62.982411,71.647442 0 0 1 -1.92936,-1.06027 62.982411,71.647442 0 0 1 -3.44696,-1.89398 62.982411,71.647442 0 0 1 -0.29277,-0.16052 62.982411,71.647442 0 0 1 -1.82089,-1.26995 62.982411,71.647442 0 0 1 -1.25746,-0.87682 117.5341,133.70428 0 0 1 -3.58998,8.4544 117.5341,133.70428 0 0 1 -0.88933,1.64993 117.53411,133.70429 0 0 1 -0.31244,0.57983 117.5341,133.70428 0 0 1 -0.82693,1.53474 20.993795,23.882092 0 0 0 -0.8956,2.10854 20.993795,23.882092 0 0 0 -0.71943,2.24232 20.993795,23.882092 0 0 0 -0.51931,2.31329 20.993795,23.882092 0 0 0 -0.31387,2.36024 20.993795,23.882092 0 0 0 -0.10463,2.38427 20.993795,23.882092 0 0 0 0.0523,1.68924 20.993795,23.882092 0 0 0 0.0763,0.71632 20.993795,23.882092 0 0 0 0.17663,1.65375 20.993795,23.882092 0 0 0 0.4598,2.32913 20.993795,23.882092 0 0 0 0.34891,1.19405 62.982411,71.647442 0 0 0 3.27368,2.83087 62.982411,71.647442 0 0 0 2.69009,1.87651 62.982411,71.647442 0 0 0 2.67713,1.86723 62.982411,71.647442 0 0 0 5.66861,3.11478 62.982411,71.647442 0 0 0 5.91388,2.45579 62.982411,71.647442 0 0 0 6.10008,1.77224 62.982411,71.647442 0 0 0 1.98407,0.34122 62.982411,71.647442 0 0 0 4.240799,0.72886 62.982411,71.647442 0 0 0 6.28773,0.35763 62.982411,71.647442 0 0 0 4.45533,-0.17909 62.982411,71.647442 0 0 0 6.24981,-0.86318 62.982411,71.647442 0 0 0 5.26978,-1.34582 62.982411,71.647442 0 0 0 0.87301,-0.22275 62.982411,71.647442 0 0 0 5.97433,-2.25815 62.982411,71.647442 0 0 0 5.74638,-2.92532 62.982411,71.647442 0 0 0 5.46081,-3.56358 62.982411,71.647442 0 0 0 1.97833,-1.61008 v 0 a 62.982411,71.647442 0 0 0 3.14169,-2.5557 62.982411,71.647442 0 0 0 2.63586,-2.63433 20.993795,23.882092 0 0 0 0.0345,-0.10809 20.993795,23.882092 0 0 0 0.51931,-2.31275 20.993795,23.882092 0 0 0 0.31341,-2.3608 20.993795,23.882092 0 0 0 0.0163,-0.37071 20.993795,23.882092 0 0 0 0.0888,-2.01355 20.993795,23.882092 0 0 0 -0.0528,-1.68925 20.993795,23.882092 0 0 0 -0.25294,-2.36952 20.993795,23.882092 0 0 0 -0.45932,-2.32966 20.993795,23.882092 0 0 0 -0.36186,-1.23882 117.5341,133.70428 0 0 1 -1.72974,-3.43035 117.5341,133.70428 0 0 1 -2.31954,-4.59983 117.53411,133.70429 0 0 1 -1.75853,-3.48714 117.53411,133.70429 0 0 1 -0.85239,-2.16642 z m -33.26297,14.25374 a 20.993795,23.882092 0 0 0 -0.51931,2.31274 20.993795,23.882092 0 0 0 -0.0427,0.32158 20.993795,23.882092 0 0 1 0.12574,0.43076 20.993795,23.882092 0 0 1 0.45979,2.32913 20.993795,23.882092 0 0 1 0.25291,2.37007 20.993795,23.882092 0 0 1 0.0523,1.68925 20.993795,23.882092 0 0 1 -0.10464,2.38426 20.993795,23.882092 0 0 1 -0.27115,2.03758 20.993795,23.882092 0 0 0 0.53611,1.83613 20.993795,23.882092 0 0 0 0.85716,2.17896 20.993795,23.882092 0 0 0 1.04437,2.07033 20.993795,23.882092 0 0 0 1.22048,1.94203 20.993795,23.882092 0 0 0 1.38515,1.79352 20.993795,23.882092 0 0 1 -1.38511,-1.79352 20.993795,23.882092 0 0 1 -1.22051,-1.94203 20.993795,23.882092 0 0 1 -1.04435,-2.07033 20.993795,23.882092 0 0 1 -0.85719,-2.17896 20.993795,23.882092 0 0 1 -0.53608,-1.83613 20.993795,23.882092 0 0 0 0.27115,-2.03758 20.993795,23.882092 0 0 0 0.10463,-2.38426 20.993795,23.882092 0 0 0 -0.0523,-1.68925 20.993795,23.882092 0 0 0 -0.25294,-2.37007 20.993795,23.882092 0 0 0 -0.45978,-2.32913 20.993795,23.882092 0 0 0 -0.12574,-0.43076 20.993795,23.882092 0 0 1 0.0427,-0.32158 20.993795,23.882092 0 0 1 0.5193,-2.31274 z"
       id="path20311-8" />
    <path
       inkscape:connector-curvature="0"
       style="opacity:1;vector-effect:none;fill:url(#radialGradient19231);fill-opacity:1;stroke:#000000;stroke-width:0;stroke-linecap:round;stroke-linejoin:miter;stroke-miterlimit:4;stroke-dasharray:none;stroke-dashoffset:0;stroke-opacity:1;paint-order:markers fill stroke"
       d="m 76.280181,191.83899 a 117.53411,133.70429 0 0 1 -0.44252,1.04117 117.5341,133.70428 0 0 1 -0.96421,2.27069 62.982411,71.647442 0 0 0 1.25747,0.87684 62.982411,71.647442 0 0 0 1.82088,1.26994 62.982411,71.647442 0 0 0 0.29277,0.16052 62.982411,71.647442 0 0 0 3.44696,1.89398 62.982411,71.647442 0 0 0 1.92937,1.06028 62.982411,71.647442 0 0 0 3.46424,1.43864 62.982411,71.647442 0 0 0 2.44962,1.01714 62.982411,71.647442 0 0 0 6.09961,1.77224 62.982411,71.647442 0 0 0 6.224859,1.07011 62.982411,71.647442 0 0 0 3.52041,0.20037 62.982411,71.647442 0 0 0 2.76734,0.15779 62.982411,71.647442 0 0 0 1.38704,-0.0557 62.982411,71.647442 0 0 0 3.06827,-0.12394 62.982411,71.647442 0 0 0 6.24984,-0.86319 62.982411,71.647442 0 0 0 6.14279,-1.56858 62.982411,71.647442 0 0 0 4.04928,-1.53036 62.982411,71.647442 0 0 0 1.92505,-0.72778 62.982411,71.647442 0 0 0 4.5854,-2.33405 62.982411,71.647442 0 0 0 1.16098,-0.59128 62.982411,71.647442 0 0 0 3.02366,-1.97315 62.982411,71.647442 0 0 0 0.13822,-0.0901 62.982411,71.647442 0 0 0 1.74604,-1.13946 117.5341,133.70428 0 0 1 -1.13796,-2.89311 62.982411,71.647442 0 0 1 -0.47273,0.30848 62.982411,71.647442 0 0 1 -2.81055,1.83392 62.982411,71.647442 0 0 1 -0.37822,0.19218 62.982411,71.647442 0 0 1 -4.29356,2.18608 62.982411,71.647442 0 0 1 -1.07461,0.54707 62.982411,71.647442 0 0 1 -5.45552,2.06269 62.982411,71.647442 0 0 1 -0.5188,0.19601 62.982411,71.647442 0 0 1 -6.1428,1.56802 62.982411,71.647442 0 0 1 -6.24983,0.86319 62.982411,71.647442 0 0 1 -1.39376,0.0562 62.982411,71.647442 0 0 1 -3.06157,0.12339 62.982411,71.647442 0 0 1 -6.23589,-0.35542 62.982411,71.647442 0 0 1 -0.0518,-0.003 62.982411,71.647442 0 0 1 -6.224879,-1.07011 62.982411,71.647442 0 0 1 -5.83995,-1.69634 62.982411,71.647442 0 0 1 -0.26013,-0.0753 62.982411,71.647442 0 0 1 -4.81192,-1.99826 62.982411,71.647442 0 0 1 -1.10193,-0.45753 62.982411,71.647442 0 0 1 -1.50415,-0.8266 62.982411,71.647442 0 0 1 -4.16448,-2.28872 62.982411,71.647442 0 0 1 -2.15831,-1.50525 z"
       id="path20369-3" />
    <path
       inkscape:connector-curvature="0"
       style="opacity:1;vector-effect:none;fill:url(#radialGradient19207);fill-opacity:1;stroke:#000000;stroke-width:0;stroke-linecap:round;stroke-linejoin:miter;stroke-miterlimit:4;stroke-dasharray:none;stroke-dashoffset:0;stroke-opacity:1;paint-order:markers fill stroke"
       d="m 81.843671,104.29153 a 62.982411,71.647442 0 0 0 -0.31437,0.15998 117.53411,133.70429 0 0 1 2.43238,12.32698 117.53411,133.70429 0 0 1 1.41583,13.26717 117.53411,133.70429 0 0 1 0.29419,9.4579 117.53411,133.70429 0 0 1 -0.58697,13.34852 117.53411,133.70429 0 0 1 -1.75564,13.21477 117.53411,133.70429 0 0 1 -2.90653,12.94939 117.53411,133.70429 0 0 1 -2.16118,6.73514 62.982411,71.647442 0 0 0 1.16962,0.81567 62.982411,71.647442 0 0 0 5.6691,3.11534 62.982411,71.647442 0 0 0 5.91386,2.45579 62.982411,71.647442 0 0 0 2.97038,0.86264 39.389444,44.80859 0 0 0 -0.67721,0.17308 39.389444,44.80859 0 0 0 -3.73637,1.41243 39.389444,44.80859 0 0 0 -0.73623,0.37452 20.993796,23.882093 0 0 1 0.95702,0.0546 20.993796,23.882093 0 0 1 2.07478,0.35707 20.993796,23.882093 0 0 1 2.03353,0.59074 20.993796,23.882093 0 0 1 0.4118,0.17088 39.389447,44.808592 0 0 1 0.79238,-0.51703 39.389447,44.808592 0 0 1 3.01453,-1.53473 62.982411,71.647442 0 0 0 5.220339,0.89758 62.982411,71.647442 0 0 0 6.28773,0.35816 62.982411,71.647442 0 0 0 4.45533,-0.17963 62.982411,71.647442 0 0 0 3.97345,-0.54869 62.982411,71.647442 0 0 0 2.2759,-0.31394 62.982411,71.647442 0 0 0 0.27931,-0.0715 20.993796,23.882093 0 0 1 0.1987,-0.10101 20.993796,23.882093 0 0 1 1.99177,-0.75291 20.993796,23.882093 0 0 1 2.04744,-0.52248 20.993796,23.882093 0 0 1 0.0106,-0.002 20.993796,23.882093 0 0 1 2.04792,-0.28282 62.982411,71.647442 0 0 0 5.54192,-2.09435 62.982411,71.647442 0 0 0 5.74635,-2.92588 62.982411,71.647442 0 0 0 0.37148,-0.24241 117.53411,133.70429 0 0 1 -0.88982,-2.26252 117.53411,133.70429 0 0 1 -3.70468,-12.68297 117.53411,133.70429 0 0 1 -2.57298,-13.04058 117.53411,133.70429 0 0 1 -1.41583,-13.26718 117.53411,133.70429 0 0 1 -0.29423,-9.4579 117.53411,133.70429 0 0 1 0.58699,-13.34797 117.53411,133.70429 0 0 1 1.75564,-13.21473 117.53411,133.70429 0 0 1 1.09715,-4.88811 62.982411,71.647442 0 0 0 -0.0412,-0.0224 53.870273,61.28167 0 0 1 -0.51498,0.33577 53.870273,61.28167 0 0 1 -4.91509,2.5022 53.870273,61.28167 0 0 1 -5.10995,1.93165 53.870273,61.28167 0 0 1 -5.25444,1.34146 53.870273,61.28167 0 0 1 -5.34513,0.73815 53.870273,61.28167 0 0 1 -3.81074,0.15341 53.870273,61.28167 0 0 1 -5.37826,-0.30617 53.870273,61.28167 0 0 1 -5.324019,-0.91506 53.870273,61.28167 0 0 1 -5.21746,-1.51561 53.870273,61.28167 0 0 1 -5.05859,-2.10025 53.870273,61.28167 0 0 1 -4.84841,-2.66435 53.870273,61.28167 0 0 1 -0.46697,-0.32594 z"
       id="path20181-1" />
    <path
       inkscape:connector-curvature="0"
       style="opacity:1;vector-effect:none;fill:url(#radialGradient19215);fill-opacity:1;stroke:#000000;stroke-width:0;stroke-linecap:round;stroke-linejoin:miter;stroke-miterlimit:4;stroke-dasharray:none;stroke-dashoffset:0;stroke-opacity:1;paint-order:markers fill stroke"
       d="m 78.261381,185.75138 a 117.5341,133.70428 0 0 1 -1.86745,5.81954 117.5341,133.70428 0 0 1 -0.11375,0.26807 62.982411,71.647442 0 0 0 2.1583,1.50524 62.982411,71.647442 0 0 0 4.16448,2.28872 62.982411,71.647442 0 0 0 1.50414,0.82661 62.982411,71.647442 0 0 0 1.10193,0.45752 62.982411,71.647442 0 0 0 4.81194,1.99827 62.982411,71.647442 0 0 0 0.26013,0.0753 62.982411,71.647442 0 0 0 5.83995,1.69634 62.982411,71.647442 0 0 0 6.224849,1.07012 62.982411,71.647442 0 0 0 0.0518,0.003 62.982411,71.647442 0 0 0 6.23589,0.35542 62.982411,71.647442 0 0 0 3.06155,-0.12338 62.982411,71.647442 0 0 0 1.39377,-0.0562 62.982411,71.647442 0 0 0 6.24984,-0.86318 62.982411,71.647442 0 0 0 6.14278,-1.56804 62.982411,71.647442 0 0 0 0.51882,-0.196 62.982411,71.647442 0 0 0 5.45551,-2.0627 62.982411,71.647442 0 0 0 1.07462,-0.54705 62.982411,71.647442 0 0 0 4.29356,-2.18609 62.982411,71.647442 0 0 0 0.3782,-0.19218 62.982411,71.647442 0 0 0 2.81055,-1.83392 9.6915033,11.024847 0 0 1 0.20781,-0.92652 9.6915033,11.024847 0 0 1 0.009,-0.0305 117.5341,133.70428 0 0 1 -1.66347,-4.22856 62.982411,71.647442 0 0 1 -0.37148,0.24243 62.982411,71.647442 0 0 1 -5.74638,2.92586 62.982411,71.647442 0 0 1 -5.54191,2.09436 20.993796,23.882093 0 0 0 -2.0479,0.28281 20.993796,23.882093 0 0 0 -0.0107,0.002 20.993796,23.882093 0 0 0 -2.04743,0.52249 20.993796,23.882093 0 0 0 -1.99176,0.7529 20.993796,23.882093 0 0 0 -0.19871,0.10101 62.982411,71.647442 0 0 1 -0.27932,0.0715 62.982411,71.647442 0 0 1 -2.27588,0.31393 62.982411,71.647442 0 0 1 -3.97346,0.5487 62.982411,71.647442 0 0 1 -4.45533,0.17963 62.982411,71.647442 0 0 1 -6.28772,-0.35816 62.982411,71.647442 0 0 1 -5.220339,-0.89758 39.389447,44.808592 0 0 0 -3.01453,1.53473 39.389447,44.808592 0 0 0 -0.79239,0.51704 20.993795,23.882092 0 0 0 -0.4118,-0.17089 20.993795,23.882092 0 0 0 -2.03353,-0.59075 20.993795,23.882092 0 0 0 -2.0748,-0.35706 20.993795,23.882092 0 0 0 -0.957,-0.0546 39.389444,44.80859 0 0 1 0.73624,-0.37454 39.389444,44.80859 0 0 1 3.73637,-1.41242 39.389444,44.80859 0 0 1 0.67719,-0.17308 62.982411,71.647442 0 0 1 -2.97036,-0.86264 62.982411,71.647442 0 0 1 -5.91387,-2.45579 62.982411,71.647442 0 0 1 -5.66909,-3.11533 62.982411,71.647442 0 0 1 -1.16963,-0.81569 z"
       id="path20243-8" />
    <path
       style="opacity:1;vector-effect:none;fill:#b3b3b3;fill-opacity:1;stroke:#000000;stroke-width:0;stroke-linecap:round;stroke-linejoin:miter;stroke-miterlimit:4;stroke-dasharray:none;stroke-dashoffset:0;stroke-opacity:1;paint-order:markers fill stroke"
       d="m 81.529301,108.1557 a 62.982411,71.647442 0 0 1 0.31437,-0.15998 53.870273,61.28167 0 0 1 -0.40073,-0.27953 117.53411,133.70429 0 0 1 0.0864,0.43951 z"
       id="path20397-9"
       inkscape:connector-curvature="0" />
    <path
       style="opacity:1;vector-effect:none;fill:#b3b3b3;fill-opacity:1;stroke:#000000;stroke-width:0;stroke-linecap:round;stroke-linejoin:miter;stroke-miterlimit:4;stroke-dasharray:none;stroke-dashoffset:0;stroke-opacity:1;paint-order:markers fill stroke"
       d="m 70.081691,203.18917 a 117.53411,133.70429 0 0 0 0.31245,-0.57982 20.993796,23.882093 0 0 0 -0.0254,0.0382 20.993796,23.882093 0 0 0 -0.29375,0.54489 9.6915028,11.024846 0 0 0 0.006,-0.003 z"
       id="path20381-6"
       inkscape:connector-curvature="0" />
    <path
       style="opacity:1;vector-effect:none;fill:#b3b3b3;fill-opacity:1;stroke:#000000;stroke-width:0;stroke-linecap:round;stroke-linejoin:miter;stroke-miterlimit:4;stroke-dasharray:none;stroke-dashoffset:0;stroke-opacity:1;paint-order:markers fill stroke"
       d="m 70.081691,203.18917 a 9.6915028,11.024846 0 0 1 -0.006,0.003 20.993796,23.882093 0 0 0 -0.80294,1.4905 20.993796,23.882093 0 0 0 -0.0171,0.041 117.53411,133.70429 0 0 0 0.82693,-1.53472 z"
       id="path20379-4"
       inkscape:connector-curvature="0" />
    <path
       style="opacity:1;vector-effect:none;fill:#b3b3b3;fill-opacity:1;stroke:#000000;stroke-width:0;stroke-linecap:round;stroke-linejoin:miter;stroke-miterlimit:4;stroke-dasharray:none;stroke-dashoffset:0;stroke-opacity:1;paint-order:markers fill stroke"
       d="m 139.87751,196.2106 a 62.982411,71.647442 0 0 1 -0.13822,0.0901 20.993796,23.882093 0 0 1 0.15981,0.11139 9.6915033,11.024847 0 0 1 -0.0216,-0.20147 z"
       id="path20325-3"
       inkscape:connector-curvature="0" />
    <path
       inkscape:connector-curvature="0"
       style="opacity:1;vector-effect:none;fill:url(#radialGradient17064);fill-opacity:1;stroke:#000000;stroke-width:0;stroke-linecap:round;stroke-linejoin:miter;stroke-miterlimit:4;stroke-dasharray:none;stroke-dashoffset:0;stroke-opacity:1;paint-order:markers fill stroke"
       d="m 150.35947,218.98255 a 62.982411,71.647442 0 0 1 -1.9212,1.91965 62.982411,71.647442 0 0 1 -2.63585,2.63432 62.982411,71.647442 0 0 1 -3.14172,2.55571 62.982411,71.647442 0 0 1 -1.9793,1.61007 62.982411,71.647442 0 0 1 -5.46079,3.56357 62.982411,71.647442 0 0 1 -5.74637,2.92533 62.982411,71.647442 0 0 1 -5.97432,2.25815 62.982411,71.647442 0 0 1 -0.87303,0.22275 62.982411,71.647442 0 0 1 -5.26979,1.34583 62.982411,71.647442 0 0 1 -6.24983,0.86318 62.982411,71.647442 0 0 1 -4.45531,0.17909 62.982411,71.647442 0 0 1 -6.28772,-0.35763 62.982411,71.647442 0 0 1 -4.240809,-0.72887 20.993796,23.882093 0 0 1 -0.82069,0.41767 20.993796,23.882093 0 0 0 0.82069,-0.41767 62.982411,71.647442 0 0 1 -1.98313,-0.34123 62.982411,71.647442 0 0 1 -6.10006,-1.77223 62.982411,71.647442 0 0 1 -5.91388,-2.45579 62.982411,71.647442 0 0 1 -5.66863,-3.11478 62.982411,71.647442 0 0 1 -2.67616,-1.86668 39.389447,44.808592 0 0 1 0,-5.3e-4 62.982411,71.647442 0 0 1 -2.69007,-1.87651 62.982411,71.647442 0 0 1 -3.27371,-2.83088 20.993796,23.882093 0 0 0 0.31292,1.0712 20.993796,23.882093 0 0 0 0.85718,2.17898 20.993796,23.882093 0 0 0 1.04389,2.07089 20.993796,23.882093 0 0 0 1.22097,1.94202 20.993796,23.882093 0 0 0 1.38465,1.79352 20.993796,23.882093 0 0 0 0.97186,1.02972 39.389447,44.808592 0 0 0 0,0.001 20.993796,23.882093 0 0 1 -0.97282,-1.0308 20.993796,23.882093 0 0 1 -1.38466,-1.79352 20.993796,23.882093 0 0 1 -1.22099,-1.94204 20.993796,23.882093 0 0 1 -1.04386,-2.07087 20.993796,23.882093 0 0 1 -0.85717,-2.17898 20.993796,23.882093 0 0 1 -0.31292,-1.0712 62.982411,71.647442 0 0 1 -1.73835,-1.50307 62.982411,71.647442 0 0 1 -0.20735,-0.22003 39.389444,44.80859 0 0 0 -0.63064,2.80959 39.389444,44.80859 0 0 0 -0.58841,4.42838 39.389444,44.80859 0 0 0 -0.19245,4.37544 73.62516,83.754404 0 0 0 0.62151,0.53723 73.62516,83.754404 0 0 0 6.27433,4.37599 73.62516,83.754404 0 0 0 2.74765,1.50962 73.62516,83.754404 0 0 0 3.87892,2.13148 73.62516,83.754404 0 0 0 6.91312,2.87072 73.62516,83.754404 0 0 0 7.13098,2.07143 73.62516,83.754404 0 0 0 7.27643,1.25137 73.62516,83.754404 0 0 0 7.350329,0.41821 73.62516,83.754404 0 0 0 5.20836,-0.20965 73.62516,83.754404 0 0 0 7.30569,-1.00894 73.62516,83.754404 0 0 0 7.18094,-1.8334 73.62516,83.754404 0 0 0 6.98364,-2.64033 73.62516,83.754404 0 0 0 6.71779,-3.41943 73.62516,83.754404 0 0 0 3.00923,-1.96386 73.62516,83.754404 0 0 0 3.37448,-2.20191 73.62516,83.754404 0 0 0 5.86013,-4.768 39.389447,44.808592 0 0 0 -0.0308,-0.99039 39.389447,44.808592 0 0 0 -0.47418,-4.44641 39.389447,44.808592 0 0 0 -0.86247,-4.37053 39.389447,44.808592 0 0 0 -0.56538,-1.93601 z"
       id="path20315-3" />
    <path
       inkscape:connector-curvature="0"
       style="opacity:1;vector-effect:none;fill:url(#radialGradient17072);fill-opacity:1;stroke:#000000;stroke-width:0;stroke-linecap:round;stroke-linejoin:miter;stroke-miterlimit:4;stroke-dasharray:none;stroke-dashoffset:0;stroke-opacity:1;paint-order:markers fill stroke"
       d="m 150.78033,230.72591 a 72.357827,83.754404 0 0 1 -5.75925,4.76798 72.357827,83.754404 0 0 1 -3.31639,2.20192 72.357827,83.754404 0 0 1 -2.95746,1.96386 72.357827,83.754404 0 0 1 -6.60214,3.41944 72.357827,83.754404 0 0 1 -6.86344,2.64032 72.357827,83.754404 0 0 1 -7.05732,1.83338 72.357827,83.754404 0 0 1 -7.17994,1.00896 72.357827,83.754404 0 0 1 -5.11871,0.20965 72.357827,83.754404 0 0 1 -7.223809,-0.41821 72.357827,83.754404 0 0 1 -7.15116,-1.25137 72.357827,83.754404 0 0 1 -7.00825,-2.07143 72.357827,83.754404 0 0 1 -6.7941,-2.87073 72.357827,83.754404 0 0 1 -3.81217,-2.13147 72.357827,83.754404 0 0 1 -2.70037,-1.50962 72.357827,83.754404 0 0 1 -6.16631,-4.37598 72.357827,83.754404 0 0 1 -0.61082,-0.53724 38.711423,44.80859 0 0 0 -0.005,0.0983 38.711423,44.80859 0 0 0 0.0967,3.16938 38.711423,44.80859 0 0 0 0.46649,4.4464 38.711423,44.80859 0 0 0 0.0868,0.44825 84.574846,97.895643 0 0 0 1.65417,1.17384 84.574846,97.895643 0 0 0 7.612,4.25642 84.574846,97.895643 0 0 0 1.28254,0.54161 84.574846,97.895643 0 0 0 6.65919,2.81395 84.574846,97.895643 0 0 0 8.19125,2.42084 84.574846,97.895643 0 0 0 8.35868,1.46266 84.574846,97.895643 0 0 0 8.443569,0.48865 84.574846,97.895643 0 0 0 5.98235,-0.24514 84.574846,97.895643 0 0 0 8.39263,-1.17931 84.574846,97.895643 0 0 0 8.24879,-2.14293 84.574846,97.895643 0 0 0 8.02236,-3.08532 84.574846,97.895643 0 0 0 2.12495,-1.10068 84.574846,97.895643 0 0 0 5.5918,-2.89693 84.574846,97.895643 0 0 0 4.47248,-2.96956 38.711426,44.808592 0 0 0 0.51271,-3.92773 38.711426,44.808592 0 0 0 0.19341,-4.47316 38.711426,44.808592 0 0 0 -0.0669,-2.17898 z"
       id="path20283-3" />
    <path
       style="opacity:1;vector-effect:none;fill:#b3b3b3;fill-opacity:1;stroke:#000000;stroke-width:0;stroke-linecap:round;stroke-linejoin:miter;stroke-miterlimit:4;stroke-dasharray:none;stroke-dashoffset:0;stroke-opacity:1;paint-order:markers fill stroke"
       d="m 133.12901,108.84308 a 117.53411,133.70429 0 0 1 0.013,-0.0579 53.870273,61.28167 0 0 1 -0.0542,0.0355 62.982411,71.647442 0 0 1 0.0413,0.0224 z"
       id="path20185-8"
       inkscape:connector-curvature="0" />
    <path
       style="opacity:1;vector-effect:none;fill:#b3b3b3;fill-opacity:1;stroke:#000000;stroke-width:0;stroke-linecap:round;stroke-linejoin:miter;stroke-miterlimit:4;stroke-dasharray:none;stroke-dashoffset:0;stroke-opacity:1;paint-order:markers fill stroke"
       d="m 140.48559,192.17804 a 117.53411,133.70429 0 0 1 -0.25533,-0.64862 9.6915033,11.024847 0 0 0 -0.009,0.0305 9.6915033,11.024847 0 0 0 -0.2078,0.92651 62.982411,71.647442 0 0 0 0.47272,-0.30847 z"
       id="path20173-6"
       inkscape:connector-curvature="0" />
    <path
       style="opacity:1;vector-effect:none;fill:#000000;fill-opacity:1;stroke:#000000;stroke-width:0;stroke-linecap:round;stroke-linejoin:miter;stroke-miterlimit:4;stroke-dasharray:none;stroke-dashoffset:0;stroke-opacity:1;paint-order:markers fill stroke"
       d="m 84.910521,102.87201 a 62.982411,71.647442 0 0 0 -1.08085,0.40839 62.982411,71.647442 0 0 0 -1.986,1.01113 53.870273,61.28167 0 0 0 0.46699,0.32595 53.870273,61.28167 0 0 0 4.8484,2.66435 53.870273,61.28167 0 0 0 5.05859,2.10037 53.870273,61.28167 0 0 0 5.21746,1.51562 53.870273,61.28167 0 0 0 5.324039,0.91505 53.870273,61.28167 0 0 0 5.37826,0.30629 53.870273,61.28167 0 0 0 3.81073,-0.15342 53.870273,61.28167 0 0 0 5.34512,-0.73815 53.870273,61.28167 0 0 0 5.25444,-1.34146 53.870273,61.28167 0 0 0 5.10996,-1.93166 53.870273,61.28167 0 0 0 4.9151,-2.5022 53.870273,61.28167 0 0 0 0.51496,-0.33576 62.982411,71.647442 0 0 0 -1.9092,-1.04937 62.982411,71.647442 0 0 0 -2.12712,-0.88338 100.57537,114.41239 0 0 1 -4.31613,1.10232 100.57537,114.41239 0 0 1 -9.97995,1.37804 100.57537,114.41239 0 0 1 -7.11467,0.28663 100.57537,114.41239 0 0 1 -10.040419,-0.57163 100.57537,114.41239 0 0 1 -9.94059,-1.70889 100.57537,114.41239 0 0 1 -2.74912,-0.79822 z"
       id="path20093-4"
       inkscape:connector-curvature="0" />
    <path
       style="display:inline;opacity:1;fill:url(#linearGradient5751);fill-opacity:1;stroke:#fa0000;stroke-width:0;stroke-linecap:round;stroke-linejoin:miter;stroke-miterlimit:4;stroke-dasharray:none;stroke-opacity:1;paint-order:markers fill stroke"
       d="m 81.985045,68.298761 a 64.127812,65.075532 0 0 0 0.224142,0.09839 64.127812,65.075532 0 0 0 6.108935,1.969361 64.127812,65.075532 0 0 0 6.272182,1.341283 64.127812,65.075532 0 0 0 6.373726,0.698902 64.127812,65.075532 0 0 0 6.4095,0.04955 64.127812,65.075532 0 0 0 4.52563,-0.357456 64.127812,65.075532 0 0 0 6.3249,-1.056038 64.127812,65.075532 0 0 0 6.18923,-1.691859 64.127812,65.075532 0 0 0 5.99224,-2.310587 64.127812,65.075532 0 0 0 1.88976,-0.957618 29.373901,29.808006 0 0 0 -0.48016,-0.771559 29.373901,29.808006 0 0 0 -1.80772,-2.348376 29.373901,29.808006 0 0 0 -2.02925,-2.153701 29.373901,29.808006 0 0 0 -2.23152,-1.936636 29.373901,29.808006 0 0 0 -2.41029,-1.701412 29.373901,29.808006 0 0 0 -2.56648,-1.448331 29.373901,29.808006 0 0 0 -2.69508,-1.181279 29.373901,29.808006 0 0 0 -2.62875,-0.847555 46.944103,47.637871 0 0 0 -4.37546,-0.479937 46.944103,47.637871 0 0 0 -4.69227,-0.03665 46.944103,47.637871 0 0 0 -3.31325,0.262467 46.944103,47.637871 0 0 0 -4.581955,0.764903 29.373901,29.808006 0 0 0 -2.485205,0.959212 29.373901,29.808006 0 0 0 -2.62687,1.330511 29.373901,29.808006 0 0 0 -2.482411,1.59097 29.373901,29.808006 0 0 0 -2.3142,1.834391 29.373901,29.808006 0 0 0 -2.12144,2.059164 29.373901,29.808006 0 0 0 -1.908554,2.264468 29.373901,29.808006 0 0 0 -1.676566,2.445888 29.373901,29.808006 0 0 0 -0.882795,1.609993 z"
       id="path5573"
       inkscape:connector-curvature="0" />
    <ellipse
       style="display:inline;opacity:1;fill:url(#linearGradient5767);fill-opacity:1;stroke:#000000;stroke-width:0;stroke-linecap:round;stroke-linejoin:miter;stroke-miterlimit:4;stroke-dasharray:none;stroke-opacity:1;paint-order:markers fill stroke"
       id="path836-2-6-5"
       cx="105.06467"
       cy="54.091301"
       transform="matrix(0.99907717,-0.04295113,0.04171141,0.9991297,0,0)"
       rx="5.5828433"
       ry="5.6650519" />
    <path
       inkscape:connector-curvature="0"
       style="display:inline;opacity:1;fill:url(#linearGradient5753);fill-opacity:1;stroke:#fa0000;stroke-width:0;stroke-linecap:round;stroke-linejoin:miter;stroke-miterlimit:4;stroke-dasharray:none;stroke-opacity:1;paint-order:markers fill stroke"
       d="m 76.440067,64.979137 a 46.944103,47.637871 0 0 0 -1.202536,1.167289 133.82962,135.80744 0 0 1 4.66245,6.057132 133.82962,135.80744 0 0 1 3.501858,4.548359 133.82962,135.80744 0 0 1 7.141607,11.478885 133.82962,135.80744 0 0 1 1.395931,2.83748 83.739984,84.977544 0 0 0 3.229922,0.69052 83.739984,84.977544 0 0 0 8.322001,0.912967 83.739984,84.977544 0 0 0 8.37044,0.06539 83.739984,84.977544 0 0 0 5.90939,-0.467511 83.739984,84.977544 0 0 0 6.14886,-1.027379 133.82962,135.80744 0 0 1 2.88813,-6.785734 133.82962,135.80744 0 0 1 6.50334,-11.862456 133.82962,135.80744 0 0 1 1.59753,-2.330863 133.82962,135.80744 0 0 1 4.2683,-6.228417 46.944103,47.637871 0 0 0 -1.84012,-1.597374 64.127812,65.075532 0 0 1 -1.234,0.790193 64.127812,65.075532 0 0 1 -3.84534,1.949119 64.127812,65.075532 0 0 1 -1.88976,0.95743 64.127812,65.075532 0 0 1 -5.99225,2.310776 64.127812,65.075532 0 0 1 -6.18922,1.691858 64.127812,65.075532 0 0 1 -6.3249,1.056038 64.127812,65.075532 0 0 1 -4.52562,0.357455 64.127812,65.075532 0 0 1 -6.4095,-0.04969 64.127812,65.075532 0 0 1 -6.373728,-0.6989 64.127812,65.075532 0 0 1 -6.272176,-1.34113 64.127812,65.075532 0 0 1 -6.108947,-1.969566 64.127812,65.075532 0 0 1 -0.224159,-0.09839 64.127812,65.075532 0 0 1 -5.507503,-2.413481 z"
       id="path5581" />
  </g>
</svg>
