<?xml version="1.0" encoding="UTF-8" standalone="no"?>
<!-- Created with Inkscape (http://www.inkscape.org/) -->

<svg
   xmlns:dc="http://purl.org/dc/elements/1.1/"
   xmlns:cc="http://creativecommons.org/ns#"
   xmlns:rdf="http://www.w3.org/1999/02/22-rdf-syntax-ns#"
   xmlns:svg="http://www.w3.org/2000/svg"
   xmlns="http://www.w3.org/2000/svg"
   xmlns:xlink="http://www.w3.org/1999/xlink"
   xmlns:sodipodi="http://sodipodi.sourceforge.net/DTD/sodipodi-0.dtd"
   xmlns:inkscape="http://www.inkscape.org/namespaces/inkscape"
   width="210mm"
   height="297mm"
   viewBox="0 0 210 297"
   version="1.1"
   id="svg9225"
   inkscape:version="0.92.3 (2405546, 2018-03-11)"
   sodipodi:docname="wB.svg">
  <defs
     id="defs9219">
    <linearGradient
       inkscape:collect="always"
       id="linearGradient9843">
      <stop
         style="stop-color:#ececec;stop-opacity:1"
         offset="0"
         id="stop9839" />
      <stop
         style="stop-color:#999999;stop-opacity:1"
         offset="1"
         id="stop9841" />
    </linearGradient>
    <linearGradient
       inkscape:collect="always"
       xlink:href="#linearGradient21016"
       id="linearGradient23064-1"
       x1="1842.3164"
       y1="567.95508"
       x2="1801.4286"
       y2="616.80542"
       gradientUnits="userSpaceOnUse"
       gradientTransform="matrix(0.27667791,0,0,0.27667791,-409.86691,-76.060417)" />
    <linearGradient
       id="linearGradient21016"
       inkscape:collect="always">
      <stop
         id="stop21012"
         offset="0"
         style="stop-color:#cccccc;stop-opacity:1" />
      <stop
         id="stop21014"
         offset="1"
         style="stop-color:#f9f9f9;stop-opacity:1" />
    </linearGradient>
    <linearGradient
       inkscape:collect="always"
       xlink:href="#linearGradient21010"
       id="linearGradient23080-0"
       x1="1882.123"
       y1="735.74219"
       x2="1704.2858"
       y2="773.94824"
       gradientUnits="userSpaceOnUse"
       gradientTransform="matrix(0.27667791,0,0,0.27667791,-409.86691,-77.167117)" />
    <linearGradient
       id="linearGradient21010"
       inkscape:collect="always">
      <stop
         id="stop21006"
         offset="0"
         style="stop-color:#b3b3b3;stop-opacity:1" />
      <stop
         id="stop21008"
         offset="1"
         style="stop-color:#f9f9f9;stop-opacity:1" />
    </linearGradient>
    <radialGradient
       inkscape:collect="always"
       xlink:href="#linearGradient8259"
       id="radialGradient8253"
       cx="-280.38858"
       cy="71.01635"
       fx="-280.38858"
       fy="71.01635"
       r="16.677963"
       gradientTransform="matrix(1,0,0,1.1529462,379.57225,26.167766)"
       gradientUnits="userSpaceOnUse" />
    <linearGradient
       inkscape:collect="always"
       id="linearGradient8259">
      <stop
         style="stop-color:#f2f2f2;stop-opacity:1"
         offset="0"
         id="stop8255" />
      <stop
         style="stop-color:#b3b3b3;stop-opacity:1"
         offset="1"
         id="stop8257" />
    </linearGradient>
    <linearGradient
       inkscape:collect="always"
       xlink:href="#linearGradient21016"
       id="linearGradient23088-7"
       x1="1814.0198"
       y1="921.29382"
       x2="1717.3691"
       y2="1028.3125"
       gradientUnits="userSpaceOnUse"
       gradientTransform="matrix(0.27667791,0,0,0.27667791,-409.86691,-78.273927)" />
    <radialGradient
       inkscape:collect="always"
       xlink:href="#linearGradient8267"
       id="radialGradient8261"
       cx="-280.54248"
       cy="189.26109"
       fx="-280.54248"
       fy="189.26109"
       r="50.000008"
       gradientTransform="matrix(1,0,0,0.4201633,379.57225,146.76998)"
       gradientUnits="userSpaceOnUse" />
    <linearGradient
       inkscape:collect="always"
       id="linearGradient8267">
      <stop
         style="stop-color:#ececec;stop-opacity:1"
         offset="0"
         id="stop8263" />
      <stop
         style="stop-color:#999999;stop-opacity:1"
         offset="1"
         id="stop8265" />
    </linearGradient>
    <radialGradient
       inkscape:collect="always"
       xlink:href="#linearGradient21010"
       id="radialGradient23098-4"
       cx="1840.5992"
       cy="982.91565"
       fx="1840.5992"
       fy="982.91565"
       r="88.264076"
       gradientTransform="matrix(0.32186282,0,0,0.38339318,-492.89094,-167.1106)"
       gradientUnits="userSpaceOnUse" />
    <radialGradient
       inkscape:collect="always"
       xlink:href="#linearGradient9843"
       id="radialGradient9837"
       cx="97.923462"
       cy="249.64052"
       fx="97.923462"
       fy="249.64052"
       r="47.543671"
       gradientTransform="matrix(1,0,0,0.19519482,0,200.91199)"
       gradientUnits="userSpaceOnUse" />
  </defs>
  <sodipodi:namedview
     id="base"
     pagecolor="#ffffff"
     bordercolor="#666666"
     borderopacity="1.0"
     inkscape:pageopacity="0.0"
     inkscape:pageshadow="2"
     inkscape:zoom="0.35"
     inkscape:cx="-58.571429"
     inkscape:cy="560"
     inkscape:document-units="mm"
     inkscape:current-layer="layer1"
     showgrid="false"
     inkscape:window-width="1920"
     inkscape:window-height="1017"
     inkscape:window-x="0"
     inkscape:window-y="0"
     inkscape:window-maximized="1" />
  <metadata
     id="metadata9222">
    <rdf:RDF>
      <cc:Work
         rdf:about="">
        <dc:format>image/svg+xml</dc:format>
        <dc:type
           rdf:resource="http://purl.org/dc/dcmitype/StillImage" />
        <dc:title></dc:title>
      </cc:Work>
    </rdf:RDF>
  </metadata>
  <g
     inkscape:label="Layer 1"
     inkscape:groupmode="layer"
     id="layer1">
    <path
       style="opacity:1;vector-effect:none;fill:url(#radialGradient23098-4);fill-opacity:1;stroke:#fa0000;stroke-width:0.0000463;stroke-linecap:round;stroke-linejoin:miter;stroke-miterlimit:4;stroke-dasharray:none;stroke-dashoffset:0;stroke-opacity:1;paint-order:markers fill stroke"
       d="m 95.112794,129.66807 a 153.89364,139.85087 0 0 1 0.22943,5.894 153.89364,139.85087 0 0 1 -0.76881,13.96133 153.89364,139.85087 0 0 1 -2.29895,13.8226 153.89364,139.85087 0 0 1 -3.80576,13.54488 153.89364,139.85087 0 0 1 -5.27428,13.1313 153.89364,139.85087 0 0 1 -3.26264,6.1378 153.89364,139.85087 0 0 1 -3.42859,6.4498 153.89364,139.85087 0 0 1 -3.71086,5.50069 153.89364,139.85087 0 0 1 -1.87523,2.77871 23.726563,21.561518 0 0 1 0.77011,0.1788 23.726563,21.561518 0 0 1 2.22789,0.7392 23.726563,21.561518 0 0 1 0.91968,0.40399 112.71779,102.43232 0 0 0 1.47292,0.3416 112.71779,102.43232 0 0 0 11.14072,1.5304 112.71779,102.43232 0 0 0 2.26684,0.1025 112.71779,102.43232 0 0 0 8.98578,0.40841 112.71779,102.43232 0 0 0 7.973566,-0.25651 112.71779,102.43232 0 0 0 2.71582,-0.2993 112.71779,102.43232 0 0 0 8.46901,-0.934 112.71779,102.43232 0 0 0 6.6729,-1.36139 23.726563,21.561518 0 0 1 0.42435,-0.17251 23.726563,21.561518 0 0 1 2.25058,-0.6799 23.726563,21.561518 0 0 1 0.0199,0 153.89364,139.85087 0 0 1 -1.25914,-1.9949 153.89364,139.85087 0 0 1 -6.24552,-9.89439 153.89364,139.85087 0 0 1 -1.05617,-2.1446 153.89364,139.85087 0 0 1 -5.22772,-10.6148 153.89364,139.85087 0 0 1 -4.85064,-13.2663 153.89364,139.85087 0 0 1 -3.36886,-13.63969 153.89364,139.85087 0 0 1 -1.85379,-13.8774 153.89364,139.85087 0 0 1 -0.38539,-9.8928 153.89364,139.85087 0 0 1 0.32313,-5.87273 153.89364,139.85087 0 0 1 -4.521766,0.14571 153.89364,139.85087 0 0 1 -3.66874,-0.16679 z"
       id="path22857-5"
       inkscape:connector-curvature="0" />
    <path
       style="opacity:1;vector-effect:none;fill:url(#radialGradient9837);fill-opacity:1;stroke:#fa0000;stroke-width:0.0000463;stroke-linecap:round;stroke-linejoin:miter;stroke-miterlimit:4;stroke-dasharray:none;stroke-dashoffset:0;stroke-opacity:1;paint-order:markers fill stroke"
       d="m 57.546894,240.36027 a 7.9787718,7.9787718 0 0 0 -0.54469,0.067 7.9787718,7.9787718 0 0 0 -0.29615,0.067 7.9787718,7.9787718 0 0 0 -0.482,0.108 7.9787718,7.9787718 0 0 0 -0.75711,0.25181 7.9787718,7.9787718 0 0 0 -0.72788,0.32538 7.9787718,7.9787718 0 0 0 -0.69169,0.39722 7.9787718,7.9787718 0 0 0 -0.649,0.46358 7.9787718,7.9787718 0 0 0 -0.59877,0.52641 7.9787718,7.9787718 0 0 0 -0.54361,0.58359 7.9787718,7.9787718 0 0 0 -0.48311,0.635 7.9787718,7.9787718 0 0 0 -0.41665,0.6798 7.9787718,7.9787718 0 0 0 -0.34693,0.7181 7.9787718,7.9787718 0 0 0 -0.27344,0.74962 7.9787718,7.9787718 0 0 0 -0.19724,0.77269 7.9787718,7.9787718 0 0 0 -0.11941,0.7884 7.9787718,7.9787718 0 0 0 -0.0394,0.79659 7.9787718,7.9787718 0 0 0 0.02,0.5647 7.9787718,7.9787718 0 0 0 0.0957,0.7916 7.9787718,7.9787718 0 0 0 0.17508,0.7782 7.9787718,7.9787718 0 0 0 0.25128,0.75652 7.9787718,7.9787718 0 0 0 0.32585,0.72789 7.9787718,7.9787718 0 0 0 0.34748,0.6068 180.52254,180.52254 0 0 0 4.64138,1.18509 180.52254,180.52254 0 0 0 6.02368,1.538 180.52254,180.52254 0 0 0 0.32478,0.083 180.52254,180.52254 0 0 0 17.84193,2.69661 180.52254,180.52254 0 0 0 18.02243,0.90191 180.52254,180.52254 0 0 0 12.769306,-0.45241 180.52254,180.52254 0 0 0 17.91326,-2.1744 180.52254,180.52254 0 0 0 4.51173,-1.0128 180.52254,180.52254 0 0 0 8.17392,-1.83459 180.52254,180.52254 0 0 0 2.12373,-0.47652 7.9787718,7.9787718 0 0 0 0.13239,-0.17399 7.9787718,7.9787718 0 0 0 0.41661,-0.6799 7.9787718,7.9787718 0 0 0 0.34685,-0.71821 7.9787718,7.9787718 0 0 0 0.27346,-0.74948 7.9787718,7.9787718 0 0 0 0.19722,-0.77272 7.9787718,7.9787718 0 0 0 0.11953,-0.78849 7.9787718,7.9787718 0 0 0 0.0397,-0.7965 7.9787718,7.9787718 0 0 0 -0.0199,-0.56411 7.9787718,7.9787718 0 0 0 -0.0952,-0.7918 7.9787718,7.9787718 0 0 0 -0.17516,-0.77859 7.9787718,7.9787718 0 0 0 -0.25129,-0.7566 7.9787718,7.9787718 0 0 0 -0.32584,-0.72789 7.9787718,7.9787718 0 0 0 -0.39664,-0.69162 7.9787718,7.9787718 0 0 0 -0.46419,-0.64908 7.9787718,7.9787718 0 0 0 -0.5263,-0.59931 7.9787718,7.9787718 0 0 0 -0.58361,-0.54361 7.9787718,7.9787718 0 0 0 -0.63497,-0.4825 7.9787718,7.9787718 0 0 0 -0.67982,-0.41669 7.9787718,7.9787718 0 0 0 -0.6155,-0.29731 7.9787718,7.9787718 0 0 0 -0.10247,-0.05 7.9787718,7.9787718 0 0 0 -0.73274,-0.26752 154.53683,154.53683 0 0 1 -7.76159,1.7422 154.53683,154.53683 0 0 1 -6.80999,1.52821 154.53683,154.53683 0 0 1 -0.54471,0.066 154.53684,154.53684 0 0 1 -1.58007,0.1919 154.53683,154.53683 0 0 1 -13.21027,1.6039 154.53683,154.53683 0 0 1 -10.931486,0.3869 154.53683,154.53683 0 0 1 -15.42804,-0.77218 154.53683,154.53683 0 0 1 -8.45866,-1.2781 154.53683,154.53683 0 0 1 -1.21047,-0.18312 154.53683,154.53683 0 0 1 -5.60433,-0.8468 154.53683,154.53683 0 0 1 -5.43252,-1.38718 154.53683,154.53683 0 0 1 -5.34335,-1.36451 z"
       id="path22905-1"
       inkscape:connector-curvature="0" />
    <path
       inkscape:connector-curvature="0"
       style="opacity:1;vector-effect:none;fill:url(#radialGradient8261);fill-opacity:1;stroke:#fa0000;stroke-width:0.0000463;stroke-linecap:round;stroke-linejoin:miter;stroke-miterlimit:4;stroke-dasharray:none;stroke-dashoffset:0;stroke-opacity:1;paint-order:markers fill stroke"
       d="m 69.425124,205.28538 a 20.395693,20.395693 0 0 0 -1.44226,0.051 20.395693,20.395693 0 0 0 -2.02431,0.24579 20.395693,20.395693 0 0 0 -1.98915,0.4463 20.395693,20.395693 0 0 0 -0.30963,0.1025 20.395693,20.395693 0 0 0 -1.62496,0.54041 20.395693,20.395693 0 0 0 -1.8611,0.8327 20.395693,20.395693 0 0 0 -1.76814,1.01441 20.395693,20.395693 0 0 0 -1.65844,1.1856 20.395693,20.395693 0 0 0 -1.53146,1.34549 20.395693,20.395693 0 0 0 -1.38987,1.49201 20.395693,20.395693 0 0 0 -1.23371,1.62279 20.395693,20.395693 0 0 0 -1.06564,1.7385 20.395693,20.395693 0 0 0 -0.88675,1.8356 20.395693,20.395693 0 0 0 -0.69928,1.91511 20.395693,20.395693 0 0 0 -0.50417,1.97519 20.395693,20.395693 0 0 0 -0.30478,2.0156 20.395693,20.395693 0 0 0 -0.0611,1.22499 20.395693,20.395693 0 0 0 -0.0406,0.81122 20.395693,20.395693 0 0 0 0.0508,1.44269 20.395693,20.395693 0 0 0 0.24589,2.0238 20.395693,20.395693 0 0 0 0.44633,1.98972 20.395693,20.395693 0 0 0 0.64309,1.93468 20.395693,20.395693 0 0 0 0.38906,0.86882 20.395693,20.395693 0 0 0 0.44366,0.99168 20.395693,20.395693 0 0 0 1.0143,1.76861 20.395693,20.395693 0 0 0 1.18617,1.65849 20.395693,20.395693 0 0 0 1.34501,1.5314 20.395693,20.395693 0 0 0 1.29206,1.20351 154.53682,154.53682 0 0 0 1.46067,0.37291 154.53684,154.53684 0 0 0 5.34334,1.36437 154.53682,154.53682 0 0 0 5.43252,1.38722 154.53682,154.53682 0 0 0 5.60433,0.84679 154.53683,154.53683 0 0 0 1.21046,0.1832 154.53682,154.53682 0 0 0 8.45868,1.27802 154.53682,154.53682 0 0 0 15.42803,0.77218 154.53682,154.53682 0 0 0 10.931496,-0.3869 154.53682,154.53682 0 0 0 13.21027,-1.60379 154.53682,154.53682 0 0 0 1.58007,-0.19191 154.53682,154.53682 0 0 0 0.54471,-0.066 154.53682,154.53682 0 0 0 6.81,-1.52821 154.53684,154.53684 0 0 0 7.76159,-1.74231 154.53682,154.53682 0 0 0 0.50037,-0.11229 154.53682,154.53682 0 0 0 1.50875,-0.50151 20.395693,20.395693 0 0 0 0.97273,-0.85429 20.395693,20.395693 0 0 0 1.38985,-1.49151 20.395693,20.395693 0 0 0 1.23363,-1.6228 20.395693,20.395693 0 0 0 1.06568,-1.73849 20.395693,20.395693 0 0 0 0.73064,-1.513 20.395693,20.395693 0 0 0 0.15613,-0.3226 20.395693,20.395693 0 0 0 0.69926,-1.91511 20.395693,20.395693 0 0 0 0.50425,-1.97519 20.395693,20.395693 0 0 0 0.30472,-2.0161 20.395693,20.395693 0 0 0 0.10143,-2.03621 20.395693,20.395693 0 0 0 -0.0282,-0.79978 20.395694,20.395694 0 0 0 -0.023,-0.64262 20.395694,20.395694 0 0 0 -0.24585,-2.0242 20.395694,20.395694 0 0 0 -0.44641,-1.98908 20.395694,20.395694 0 0 0 -0.64301,-1.93471 20.395694,20.395694 0 0 0 -0.8327,-1.861 20.395694,20.395694 0 0 0 -1.01434,-1.76821 20.395694,20.395694 0 0 0 -1.18615,-1.65839 20.395694,20.395694 0 0 0 -1.34562,-1.53151 20.395694,20.395694 0 0 0 -1.4914,-1.3898 20.395694,20.395694 0 0 0 -1.11912,-0.85059 20.395694,20.395694 0 0 0 -0.50372,-0.38319 20.395694,20.395694 0 0 0 -1.73839,-1.06561 20.395694,20.395694 0 0 0 -1.83564,-0.88681 20.395694,20.395694 0 0 0 -1.91522,-0.69929 20.395694,20.395694 0 0 0 -0.35178,-0.09 20.395694,20.395694 0 0 0 -1.62326,-0.41439 20.395694,20.395694 0 0 0 -2.01623,-0.3048 20.395694,20.395694 0 0 0 -2.03621,-0.1015 20.395694,20.395694 0 0 0 -1.32765,0.047 20.395693,20.395693 0 0 0 -0.11461,0 20.395693,20.395693 0 0 0 -0.94292,0.1146 96.89384,96.89384 0 0 1 -1.65578,0.55001 96.89384,96.89384 0 0 1 -1.24564,0.27998 96.89384,96.89384 0 0 1 -2.46841,0.55391 96.89384,96.89384 0 0 1 -5.73625,1.28781 96.89384,96.89384 0 0 1 -7.28004,0.88349 96.89384,96.89384 0 0 1 -2.33454,0.28321 96.89384,96.89384 0 0 1 -6.854226,0.2426 96.89384,96.89384 0 0 1 -7.72428,-0.3864 96.89384,96.89384 0 0 1 -1.94862,-0.097 96.89384,96.89384 0 0 1 -9.57673,-1.44761 96.89384,96.89384 0 0 1 -1.26613,-0.32319 96.89384,96.89384 0 0 1 -3.57412,-0.91271 96.89384,96.89384 0 0 1 -3.99993,-1.02129 20.395693,20.395693 0 0 0 -1.15915,-0.057 z"
       id="path22889-6" />
    <path
       style="opacity:1;vector-effect:none;fill:url(#linearGradient23088-7);fill-opacity:1;stroke:#fa0000;stroke-width:0.0000463;stroke-linecap:round;stroke-linejoin:miter;stroke-miterlimit:4;stroke-dasharray:none;stroke-dashoffset:0;stroke-opacity:1;paint-order:markers fill stroke"
       d="m 113.74164,131.10538 a 132.28918,132.28918 0 0 1 -5.64047,0.68471 132.28918,132.28918 0 0 1 -5.47091,0.1941 132.28918,132.28918 0 0 0 -0.27776,5.55509 132.28918,132.28918 0 0 0 0.33126,9.35791 132.28918,132.28918 0 0 0 1.59359,13.12699 132.28918,132.28918 0 0 0 2.89596,12.9023 132.28918,132.28918 0 0 0 4.16957,12.54889 132.28918,132.28918 0 0 0 4.49384,10.04091 132.28918,132.28918 0 0 0 0.90789,2.02858 132.28918,132.28918 0 0 0 5.36879,9.35951 132.28918,132.28918 0 0 0 1.08231,1.88701 20.395695,20.395695 0 0 1 1.9719,-0.4426 20.395695,20.395695 0 0 1 1.08137,-0.13131 96.89384,96.89384 0 0 0 0.66141,-0.2199 96.89384,96.89384 0 0 0 5.79346,-1.92429 132.28918,132.28918 0 0 1 -4.89216,-8.52842 132.28918,132.28918 0 0 1 -5.40162,-12.06949 132.28918,132.28918 0 0 1 -1.77468,-5.3412 132.28918,132.28918 0 0 1 -2.395,-7.20769 132.28918,132.28918 0 0 1 -2.89588,-12.9023 132.28918,132.28918 0 0 1 -1.59367,-13.12699 132.28918,132.28918 0 0 1 -0.33128,-9.35791 132.28918,132.28918 0 0 1 0.32208,-6.4339 z m -29.242406,0.1989 a 132.28918,132.28918 0 0 1 0.22044,6.235 132.28918,132.28918 0 0 1 -0.66087,13.20652 132.28918,132.28918 0 0 1 -1.97619,13.07518 132.28918,132.28918 0 0 1 -3.27149,12.81249 132.28918,132.28918 0 0 1 -0.923,2.52791 132.28918,132.28918 0 0 1 -3.61084,9.89351 132.28918,132.28918 0 0 1 -5.75189,11.90678 132.28918,132.28918 0 0 1 -3.23422,5.27581 96.89384,96.89384 0 0 0 3.79406,1.3851 96.89384,96.89384 0 0 0 0.95487,0.34851 96.89384,96.89384 0 0 0 0.54416,0.13888 20.395695,20.395695 0 0 1 0.87705,0.044 20.395695,20.395695 0 0 1 2.01618,0.30472 20.395695,20.395695 0 0 1 1.31314,0.3352 132.28918,132.28918 0 0 0 1.61198,-2.6285 132.28918,132.28918 0 0 0 3.1899,-5.20341 132.28918,132.28918 0 0 0 2.94726,-6.101 132.28918,132.28918 0 0 0 2.80461,-5.80591 132.28918,132.28918 0 0 0 4.53384,-12.42121 132.28918,132.28918 0 0 0 3.2715,-12.81257 132.28918,132.28918 0 0 0 1.9762,-13.07531 132.28918,132.28918 0 0 0 0.66088,-13.20649 132.28918,132.28918 0 0 0 -0.19722,-5.57511 132.28918,132.28918 0 0 1 -10.05337,-0.50308 132.28918,132.28918 0 0 1 -1.03698,-0.15682 z"
       id="path22859-6"
       inkscape:connector-curvature="0" />
    <path
       style="opacity:1;vector-effect:none;fill:url(#radialGradient8253);fill-opacity:1;stroke:#fa0000;stroke-width:0.0000463;stroke-linecap:round;stroke-linejoin:miter;stroke-miterlimit:4;stroke-dasharray:none;stroke-dashoffset:0;stroke-opacity:1;paint-order:markers fill stroke"
       d="m 97.426884,88.81747 a 113.24156,113.24156 0 0 0 -2.71003,3.56441 113.24156,113.24156 0 0 0 -5.01479,8.1792 113.24156,113.24156 0 0 0 -0.90192,1.4705 113.24156,113.24156 0 0 0 -4.92344,10.19281 113.24156,113.24156 0 0 0 -1.37097,3.75568 132.28918,132.28918 0 0 1 0.2891,1.2877 132.28918,132.28918 0 0 1 0.55716,4.59171 20.395692,20.395692 0 0 0 0.65279,0.74239 20.395692,20.395692 0 0 0 1.49144,1.38991 20.395692,20.395692 0 0 0 1.62333,1.2337 20.395692,20.395692 0 0 0 1.73787,1.06569 20.395692,20.395692 0 0 0 1.66439,0.80402 132.28918,132.28918 0 0 1 4.51385,-0.15992 132.28918,132.28918 0 0 1 2.63223,-0.093 132.28918,132.28918 0 0 1 5.317396,0.26591 132.28918,132.28918 0 0 1 3.32447,0.16639 20.395692,20.395692 0 0 0 1.57736,-0.70569 20.395692,20.395692 0 0 0 1.76819,-1.01431 20.395692,20.395692 0 0 0 1.65839,-1.1856 20.395692,20.395692 0 0 0 1.53197,-1.34548 20.395692,20.395692 0 0 0 1.38944,-1.49212 20.395692,20.395692 0 0 0 0.75323,-0.9906 132.28918,132.28918 0 0 1 0.87327,-5.77879 113.24156,113.24156 0 0 0 -4.38791,-9.8053 113.24156,113.24156 0 0 0 -2.92193,-5.094322 113.24156,113.24156 0 0 0 -2.71048,-4.72448 113.24156,113.24156 0 0 0 -4.24047,-5.93031 4.2525275,4.2525275 0 0 1 -0.19885,0.089 4.2525275,4.2525275 0 0 1 -0.40315,0.13409 4.2525275,4.2525275 0 0 1 -0.41502,0.093 4.2525275,4.2525275 0 0 1 -0.42149,0.051 4.2525275,4.2525275 0 0 1 -0.300996,0.0101 4.2525275,4.2525275 0 0 1 -0.42475,-0.0209 4.2525275,4.2525275 0 0 1 -0.42042,-0.064 4.2525275,4.2525275 0 0 1 -0.41177,-0.10489 4.2525275,4.2525275 0 0 1 -0.39933,-0.14591 4.2525275,4.2525275 0 0 1 -0.38259,-0.18479 4.2525275,4.2525275 0 0 1 -0.36207,-0.22212 4.2525275,4.2525275 0 0 1 -0.0335,-0.0251 z"
       id="path22973-2"
       inkscape:connector-curvature="0" />
    <path
       style="opacity:1;vector-effect:none;fill:url(#linearGradient23080-0);fill-opacity:1;stroke:#fa0000;stroke-width:0.0000463;stroke-linecap:round;stroke-linejoin:miter;stroke-miterlimit:4;stroke-dasharray:none;stroke-dashoffset:0;stroke-opacity:1;paint-order:markers fill stroke"
       d="m 97.667894,125.73557 a 132.28918,132.28918 0 0 0 -2.63223,0.093 132.28918,132.28918 0 0 0 -4.51385,0.16 132.28918,132.28918 0 0 0 -2.2118,0.078 132.28918,132.28918 0 0 0 -4.25012,0.51612 132.28918,132.28918 0 0 0 -2.5663,0.31128 132.28918,132.28918 0 0 0 -2.90188,0.35229 132.28918,132.28918 0 0 0 -3.40875,0.41392 132.28918,132.28918 0 0 0 -1.90703,0.42799 4.2525275,4.2525275 0 0 0 -0.0152,0.29659 4.2525275,4.2525275 0 0 0 0.0108,0.30102 4.2525275,4.2525275 0 0 0 0.0513,0.42199 4.2525275,4.2525275 0 0 0 0.093,0.4146 4.2525275,4.2525275 0 0 0 0.13403,0.40359 4.2525275,4.2525275 0 0 0 0.174,0.38801 4.2525275,4.2525275 0 0 0 0.21127,0.3686 4.2525275,4.2525275 0 0 0 0.10539,0.1475 132.28918,132.28918 0 0 0 3.50117,0.52911 132.28918,132.28918 0 0 0 2.57169,0.38839 132.28918,132.28918 0 0 0 4.38577,0.6631 132.28918,132.28918 0 0 0 1.037,0.15681 132.28918,132.28918 0 0 0 10.05336,0.50311 132.28918,132.28918 0 0 0 3.15368,0.1578 132.28918,132.28918 0 0 0 3.887006,-0.1379 132.28918,132.28918 0 0 0 5.47086,-0.19392 132.28918,132.28918 0 0 0 5.64057,-0.68479 132.28918,132.28918 0 0 0 4.2685,-0.51761 132.28918,132.28918 0 0 0 3.09154,-0.3756 132.28918,132.28918 0 0 0 0.12652,-0.0151 132.28918,132.28918 0 0 0 3.06123,-0.68681 4.2525275,4.2525275 0 0 0 0.11784,-0.19288 4.2525275,4.2525275 0 0 0 0.18479,-0.38261 4.2525275,4.2525275 0 0 0 0.14587,-0.39928 4.2525275,4.2525275 0 0 0 0.10488,-0.4118 4.2525275,4.2525275 0 0 0 0.0638,-0.4205 4.2525275,4.2525275 0 0 0 0.0105,-0.19072 132.28918,132.28918 0 0 0 -0.96676,-0.2469 132.28918,132.28918 0 0 0 -3.63249,-0.54909 132.28918,132.28918 0 0 0 -3.73727,-0.5647 132.28918,132.28918 0 0 0 -2.5712,-0.38849 132.28918,132.28918 0 0 0 -3.13368,-0.47342 132.28918,132.28918 0 0 0 -4.56516,-0.2286 132.28918,132.28918 0 0 0 -3.32451,-0.1664 132.28918,132.28918 0 0 0 -5.317386,-0.2659 z"
       id="path22671-1"
       inkscape:connector-curvature="0" />
    <path
       style="opacity:1;vector-effect:none;fill:url(#linearGradient23064-1);fill-opacity:1;stroke:#fa0000;stroke-width:0.0000463;stroke-linecap:round;stroke-linejoin:miter;stroke-miterlimit:4;stroke-dasharray:none;stroke-dashoffset:0;stroke-opacity:1;paint-order:markers fill stroke"
       d="m 99.861314,81.08028 a 4.2525275,4.2525275 0 0 0 -0.30099,0.0101 4.2525275,4.2525275 0 0 0 -0.42205,0.051 4.2525275,4.2525275 0 0 0 -0.41445,0.093 4.2525275,4.2525275 0 0 0 -0.40368,0.13401 4.2525275,4.2525275 0 0 0 -0.38799,0.17399 4.2525275,4.2525275 0 0 0 -0.36856,0.2113 4.2525275,4.2525275 0 0 0 -0.34585,0.2476 4.2525275,4.2525275 0 0 0 -0.31936,0.2804 4.2525275,4.2525275 0 0 0 -0.28966,0.3107 4.2525275,4.2525275 0 0 0 -0.13131,0.17301 4.2525275,4.2525275 0 0 0 -0.12589,0.16529 4.2525275,4.2525275 0 0 0 -0.22212,0.36261 4.2525275,4.2525275 0 0 0 -0.1848,0.38259 4.2525275,4.2525275 0 0 0 -0.14591,0.39931 4.2525275,4.2525275 0 0 0 -0.10536,0.41179 4.2525275,4.2525275 0 0 0 -0.0633,0.4204 4.2525275,4.2525275 0 0 0 -0.021,0.42482 4.2525275,4.2525275 0 0 0 0.0104,0.30088 4.2525275,4.2525275 0 0 0 0.0514,0.42151 4.2525275,4.2525275 0 0 0 0.093,0.4151 4.2525275,4.2525275 0 0 0 0.13399,0.40309 4.2525275,4.2525275 0 0 0 0.17401,0.38802 4.2525275,4.2525275 0 0 0 0.21129,0.36909 4.2525275,4.2525275 0 0 0 0.24749,0.34581 4.2525275,4.2525275 0 0 0 0.11998,0.13679 4.2525275,4.2525275 0 0 0 0.16048,0.18259 4.2525275,4.2525275 0 0 0 0.31075,0.28961 4.2525275,4.2525275 0 0 0 0.0372,0.028 4.2525275,4.2525275 0 0 0 0.26805,0.20371 4.2525275,4.2525275 0 0 0 0.0335,0.0251 4.2525275,4.2525275 0 0 0 0.36207,0.22209 4.2525275,4.2525275 0 0 0 0.38258,0.18492 4.2525275,4.2525275 0 0 0 0.39934,0.14579 4.2525275,4.2525275 0 0 0 0.41178,0.1048 4.2525275,4.2525275 0 0 0 0.42041,0.064 4.2525275,4.2525275 0 0 0 0.42476,0.0209 4.2525275,4.2525275 0 0 0 0.300986,-0.0101 4.2525275,4.2525275 0 0 0 0.42149,-0.051 4.2525275,4.2525275 0 0 0 0.41502,-0.093 4.2525275,4.2525275 0 0 0 0.40314,-0.13399 4.2525275,4.2525275 0 0 0 0.19886,-0.089 4.2525275,4.2525275 0 0 0 0.18913,-0.085 4.2525275,4.2525275 0 0 0 0.36909,-0.21129 4.2525275,4.2525275 0 0 0 0.34585,-0.24749 4.2525275,4.2525275 0 0 0 0.0146,-0.013 4.2525275,4.2525275 0 0 0 0.2567,-0.22529 4.2525275,4.2525275 0 0 0 0.0481,-0.042 4.2525275,4.2525275 0 0 0 0.28965,-0.31059 4.2525275,4.2525275 0 0 0 0.25724,-0.33891 4.2525275,4.2525275 0 0 0 0.22208,-0.362 4.2525275,4.2525275 0 0 0 0.18482,-0.38312 4.2525275,4.2525275 0 0 0 0.14589,-0.39939 4.2525275,4.2525275 0 0 0 0.10483,-0.41179 4.2525275,4.2525275 0 0 0 0.0638,-0.41982 4.2525275,4.2525275 0 0 0 0.021,-0.42479 4.2525275,4.2525275 0 0 0 -0.0105,-0.30099 4.2525275,4.2525275 0 0 0 -0.0513,-0.42201 4.2525275,4.2525275 0 0 0 -0.093,-0.41449 4.2525275,4.2525275 0 0 0 -0.13403,-0.40371 4.2525275,4.2525275 0 0 0 -0.174,-0.3879 4.2525275,4.2525275 0 0 0 -0.21131,-0.3687 4.2525275,4.2525275 0 0 0 -0.24748,-0.34581 4.2525275,4.2525275 0 0 0 -0.28046,-0.3193 4.2525275,4.2525275 0 0 0 -0.22102,-0.2059 4.2525275,4.2525275 0 0 0 -0.0897,-0.084 4.2525275,4.2525275 0 0 0 -0.33885,-0.25721 4.2525275,4.2525275 0 0 0 -0.36206,-0.22211 4.2525275,4.2525275 0 0 0 -0.38311,-0.18479 4.2525275,4.2525275 0 0 0 -0.39935,-0.14592 4.2525275,4.2525275 0 0 0 -0.41179,-0.10538 4.2525275,4.2525275 0 0 0 -0.41986,-0.063 4.2525275,4.2525275 0 0 0 -0.424736,-0.022 z"
       id="path23003-9"
       inkscape:connector-curvature="0" />
    <path
       inkscape:connector-curvature="0"
       style="opacity:1;vector-effect:none;fill:#ffff00;fill-opacity:1;stroke:#fa0000;stroke-width:0.0000463;stroke-linecap:round;stroke-linejoin:miter;stroke-miterlimit:4;stroke-dasharray:none;stroke-dashoffset:0;stroke-opacity:1;paint-order:markers fill stroke"
       d="m 56.706054,241.59987 a 7.9787718,7.9787718 0 0 1 0.29615,-0.066 7.9787718,7.9787718 0 0 1 0.54471,-0.067 154.53684,154.53684 0 0 1 -1.46068,-0.37291 20.395695,20.395695 0 0 0 0.19996,0.18659 20.395695,20.395695 0 0 0 0.41986,0.3193 z"
       id="path22909-6" />
  </g>
</svg>
