<?xml version="1.0" encoding="UTF-8" standalone="no"?>
<!-- Created with Inkscape (http://www.inkscape.org/) -->

<svg
   xmlns:dc="http://purl.org/dc/elements/1.1/"
   xmlns:cc="http://creativecommons.org/ns#"
   xmlns:rdf="http://www.w3.org/1999/02/22-rdf-syntax-ns#"
   xmlns:svg="http://www.w3.org/2000/svg"
   xmlns="http://www.w3.org/2000/svg"
   xmlns:xlink="http://www.w3.org/1999/xlink"
   xmlns:sodipodi="http://sodipodi.sourceforge.net/DTD/sodipodi-0.dtd"
   xmlns:inkscape="http://www.inkscape.org/namespaces/inkscape"
   width="210mm"
   height="297mm"
   viewBox="0 0 210 297"
   version="1.1"
   id="svg14337"
   inkscape:version="0.92.3 (2405546, 2018-03-11)"
   sodipodi:docname="wK.svg">
  <defs
     id="defs14331">
    <radialGradient
       inkscape:collect="always"
       xlink:href="#linearGradient8279"
       id="radialGradient8271-1"
       cx="-423.30923"
       cy="213.14563"
       fx="-423.30923"
       fy="213.14563"
       r="50.000023"
       gradientTransform="matrix(0.903783,0,0,0.24199767,489.92544,198.21974)"
       gradientUnits="userSpaceOnUse" />
    <linearGradient
       inkscape:collect="always"
       id="linearGradient8279">
      <stop
         style="stop-color:#ececec;stop-opacity:1"
         offset="0"
         id="stop8275" />
      <stop
         style="stop-color:#999999;stop-opacity:1"
         offset="1"
         id="stop8277" />
    </linearGradient>
    <radialGradient
       inkscape:collect="always"
       xlink:href="#linearGradient8279"
       id="radialGradient8273-3"
       cx="-423.34436"
       cy="204.19659"
       fx="-423.34436"
       fy="204.19659"
       r="49.958801"
       gradientTransform="matrix(0.903783,0,0,0.29813419,489.92544,179.97346)"
       gradientUnits="userSpaceOnUse" />
    <radialGradient
       inkscape:collect="always"
       xlink:href="#linearGradient8279"
       id="radialGradient14092"
       cx="-295.24872"
       cy="472.73804"
       fx="-295.24872"
       fy="472.73804"
       r="32.874416"
       gradientTransform="matrix(1,0,0,0.24890732,402.43816,80.590827)"
       gradientUnits="userSpaceOnUse" />
    <radialGradient
       inkscape:collect="always"
       xlink:href="#linearGradient8279"
       id="radialGradient14084"
       cx="-295.08539"
       cy="429.02145"
       fx="-295.08539"
       fy="429.02145"
       r="31.000818"
       gradientTransform="matrix(1,0,0,1.4813024,402.43816,-480.96828)"
       gradientUnits="userSpaceOnUse" />
    <radialGradient
       inkscape:collect="always"
       xlink:href="#linearGradient14106"
       id="radialGradient14100"
       cx="-295.25568"
       cy="477.76215"
       fx="-295.25568"
       fy="477.76215"
       r="34.313728"
       gradientTransform="matrix(1,0,0,0.20734736,402.43816,104.22019)"
       gradientUnits="userSpaceOnUse" />
    <linearGradient
       inkscape:collect="always"
       id="linearGradient14106">
      <stop
         style="stop-color:#f2f2f2;stop-opacity:1"
         offset="0"
         id="stop14102" />
      <stop
         style="stop-color:#999999;stop-opacity:1"
         offset="1"
         id="stop14104" />
    </linearGradient>
    <radialGradient
       inkscape:collect="always"
       xlink:href="#linearGradient8279"
       id="radialGradient8269-5"
       cx="-423.70905"
       cy="186.0631"
       fx="-423.70905"
       fy="186.0631"
       r="47.043297"
       gradientTransform="matrix(0.903783,0,0,0.49566311,489.92544,130.49334)"
       gradientUnits="userSpaceOnUse" />
    <linearGradient
       gradientTransform="matrix(1.3870308,0,0,1.3870308,-21.332434,-85.109747)"
       inkscape:collect="always"
       xlink:href="#linearGradient5190"
       id="linearGradient3392-8-3"
       x1="90.928802"
       y1="96.678886"
       x2="91.123634"
       y2="118.13232"
       gradientUnits="userSpaceOnUse" />
    <linearGradient
       inkscape:collect="always"
       id="linearGradient5190">
      <stop
         style="stop-color:#f9f9f9;stop-opacity:1"
         offset="0"
         id="stop5186" />
      <stop
         style="stop-color:#b3b3b3;stop-opacity:1"
         offset="1"
         id="stop5188" />
    </linearGradient>
    <radialGradient
       inkscape:collect="always"
       xlink:href="#linearGradient5190"
       id="radialGradient8251-5"
       cx="186.11476"
       cy="-39.778088"
       fx="186.11476"
       fy="-39.778088"
       r="11.260101"
       gradientTransform="matrix(1,0,0,0.44231247,-81.850454,48.738917)"
       gradientUnits="userSpaceOnUse" />
    <linearGradient
       gradientTransform="matrix(1.3870308,0,0,1.3870308,-21.332434,-85.109747)"
       inkscape:collect="always"
       xlink:href="#linearGradient5190"
       id="linearGradient3376-4-3"
       x1="99.054413"
       y1="80.536171"
       x2="84.138016"
       y2="93.533829"
       gradientUnits="userSpaceOnUse" />
    <linearGradient
       gradientTransform="matrix(1.3870308,0,0,1.3870308,-21.332434,-85.109747)"
       inkscape:collect="always"
       xlink:href="#linearGradient5190"
       id="linearGradient3366-0-9"
       x1="90.648209"
       y1="69.305847"
       x2="85.801949"
       y2="73.414711"
       gradientUnits="userSpaceOnUse" />
    <linearGradient
       gradientTransform="matrix(1.3870308,0,0,1.3870308,-21.332434,-85.109747)"
       inkscape:collect="always"
       xlink:href="#linearGradient8249"
       id="linearGradient3384-8-1"
       x1="99.736542"
       y1="93.148827"
       x2="87.022072"
       y2="123.8317"
       gradientUnits="userSpaceOnUse" />
    <linearGradient
       id="linearGradient8249"
       inkscape:collect="always">
      <stop
         id="stop8245"
         offset="0"
         style="stop-color:#b3b3b3;stop-opacity:1" />
      <stop
         id="stop8247"
         offset="1"
         style="stop-color:#b3b3b3;stop-opacity:1" />
    </linearGradient>
    <radialGradient
       inkscape:collect="always"
       xlink:href="#linearGradient8235"
       id="radialGradient8229-0"
       cx="188.23999"
       cy="38.737514"
       fx="188.23999"
       fy="38.737514"
       r="26.105078"
       gradientTransform="matrix(1,0,0,0.78799165,-81.850454,79.135337)"
       gradientUnits="userSpaceOnUse" />
    <linearGradient
       id="linearGradient8235"
       inkscape:collect="always">
      <stop
         id="stop8231"
         offset="0"
         style="stop-color:#f9f9f9;stop-opacity:1" />
      <stop
         id="stop8233"
         offset="1"
         style="stop-color:#999999;stop-opacity:1" />
    </linearGradient>
  </defs>
  <sodipodi:namedview
     id="base"
     pagecolor="#ffffff"
     bordercolor="#666666"
     borderopacity="1.0"
     inkscape:pageopacity="0.0"
     inkscape:pageshadow="2"
     inkscape:zoom="0.35"
     inkscape:cx="-58.571429"
     inkscape:cy="560"
     inkscape:document-units="mm"
     inkscape:current-layer="layer1"
     showgrid="false"
     inkscape:window-width="1920"
     inkscape:window-height="1017"
     inkscape:window-x="0"
     inkscape:window-y="0"
     inkscape:window-maximized="1" />
  <metadata
     id="metadata14334">
    <rdf:RDF>
      <cc:Work
         rdf:about="">
        <dc:format>image/svg+xml</dc:format>
        <dc:type
           rdf:resource="http://purl.org/dc/dcmitype/StillImage" />
        <dc:title></dc:title>
      </cc:Work>
    </rdf:RDF>
  </metadata>
  <g
     inkscape:label="Layer 1"
     inkscape:groupmode="layer"
     id="layer1">
    <path
       style="display:inline;opacity:1;fill:url(#radialGradient8229-0);fill-opacity:1;stroke:#fa0000;stroke-width:0.0000463;stroke-linecap:round;stroke-linejoin:miter;stroke-miterlimit:4;stroke-dasharray:none;stroke-opacity:1;paint-order:markers fill stroke"
       d="m 106.60134,89.090007 a 26.861103,26.861103 0 0 0 -1.90015,0.068 26.861103,26.861103 0 0 0 -2.66493,0.3231 26.861103,26.861103 0 0 0 -0.46449,0.10412 26.861103,26.861103 0 0 0 -2.155324,0.48389 26.861103,26.861103 0 0 0 -2.5481,0.8472 26.861103,26.861103 0 0 0 -0.86944,0.3892 26.861103,26.861103 0 0 0 -1.58191,0.70739 26.861103,26.861103 0 0 0 -2.32879,1.3361 26.861103,26.861103 0 0 0 -2.18399,1.56181 26.861103,26.861103 0 0 0 -2.01698,1.77181 26.861103,26.861103 0 0 0 -1.83063,1.96469 26.861103,26.861103 0 0 0 -1.6249,2.137413 26.861103,26.861103 0 0 0 -1.40344,2.28859 26.861103,26.861103 0 0 0 -1.16762,2.41781 26.861103,26.861103 0 0 0 -0.92032,2.5223 26.861103,26.861103 0 0 0 -0.42146,1.64989 26.861106,26.861106 0 0 0 -0.23438,0.91821 26.861106,26.861106 0 0 1 0.52825,0.25519 26.861103,26.861103 0 0 1 0.72895,0.3519 26.861103,26.861103 0 0 1 2.28864,1.4034 26.861103,26.861103 0 0 1 2.1374,1.62491 26.861103,26.861103 0 0 1 1.96466,1.82989 26.861103,26.861103 0 0 1 0.56626,0.64439 26.861106,26.861106 0 0 1 0.44009,0.50101 26.861103,26.861103 0 0 1 0.76622,0.87231 26.861103,26.861103 0 0 1 1.56184,2.184 26.861103,26.861103 0 0 1 1.33535,2.32889 26.861103,26.861103 0 0 1 1.09737,2.4506 26.861103,26.861103 0 0 1 0.7526,2.2657 26.861103,26.861103 0 0 0 1.68943,0.81641 26.861103,26.861103 0 0 0 2.52159,0.92029 26.861103,26.861103 0 0 0 2.601864,0.6645 26.861103,26.861103 0 0 0 2.65491,0.40131 26.861103,26.861103 0 0 0 2.68143,0.1345 26.861103,26.861103 0 0 0 1.90015,-0.068 26.861103,26.861103 0 0 0 2.66567,-0.32318 26.861103,26.861103 0 0 0 1.6163,-0.3634 26.861103,26.861103 0 0 1 0.66087,-2.58912 26.861103,26.861103 0 0 1 0.92104,-2.5223 26.861103,26.861103 0 0 1 1.16763,-2.41758 26.861103,26.861103 0 0 1 1.40341,-2.28931 26.861103,26.861103 0 0 1 1.62492,-2.13751 26.861103,26.861103 0 0 1 1.83062,-1.96459 26.861103,26.861103 0 0 1 1.30165,-1.14321 26.861103,26.861103 0 0 1 0.71534,-0.6286 26.861103,26.861103 0 0 1 2.18399,-1.56188 26.861103,26.861103 0 0 1 1.19559,-0.68591 26.861103,26.861103 0 0 1 1.13318,-0.65011 26.861103,26.861103 0 0 1 2.45065,-1.0968 26.861103,26.861103 0 0 1 2.54812,-0.84648 26.861103,26.861103 0 0 1 0.57412,-0.12901 26.861103,26.861103 0 0 0 -0.0111,-0.049 26.861103,26.861103 0 0 0 -0.84651,-2.5473 26.861103,26.861103 0 0 0 -1.09736,-2.45139 26.861103,26.861103 0 0 0 -1.33534,-2.3288 26.861103,26.861103 0 0 0 -1.56183,-2.183903 26.861103,26.861103 0 0 0 -1.77257,-2.01699 26.861103,26.861103 0 0 0 -1.96468,-1.8306 26.861103,26.861103 0 0 0 -2.13738,-1.62499 26.861103,26.861103 0 0 0 -2.28866,-1.40331 26.861103,26.861103 0 0 0 -2.22126,-1.07312 26.861103,26.861103 0 0 0 -0.19639,-0.094 26.861103,26.861103 0 0 0 -2.43129,-0.88811 26.861103,26.861103 0 0 0 -0.091,-0.033 26.861103,26.861103 0 0 0 -2.60187,-0.66371 26.861103,26.861103 0 0 0 -2.65491,-0.4014 26.861103,26.861103 0 0 0 -2.68142,-0.13453 z"
       id="path3213-0-6"
       inkscape:connector-curvature="0" />
    <path
       style="display:inline;opacity:1;fill:url(#linearGradient3384-8-1);fill-opacity:1;stroke:#fa0000;stroke-width:0.0000463;stroke-linecap:round;stroke-linejoin:miter;stroke-miterlimit:4;stroke-dasharray:none;stroke-opacity:1;paint-order:markers fill stroke"
       d="m 117.76858,48.467217 a 19.670466,19.670466 0 0 0 -0.76336,0.028 5.3663924,5.388074 0 0 1 -0.17201,0.099 5.3663924,5.388074 0 0 1 -0.48956,0.21999 5.3663924,5.388074 0 0 1 -0.50889,0.16991 5.3663924,5.388074 0 0 1 -0.52324,0.1179 5.3663924,5.388074 0 0 1 -0.53258,0.065 5.3663924,5.388074 0 0 1 -0.37987,0.014 5.3663924,5.388074 0 0 1 -0.53544,-0.028 5.3663924,5.388074 0 0 1 -0.5304,-0.08 5.3663924,5.388074 0 0 1 -0.15267,-0.039 19.670466,19.670466 0 0 0 -0.67377,0.15118 19.670466,19.670466 0 0 0 -1.86646,0.62003 19.670466,19.670466 0 0 0 -1.79479,0.80349 19.670466,19.670466 0 0 0 -1.7052,0.9784 19.670466,19.670466 0 0 0 -1.59911,1.144 19.670466,19.670466 0 0 0 -0.7526,0.66081 19.670466,19.670466 0 0 1 1.4013,1.3045 19.670466,19.670466 0 0 1 1.29806,1.4773 19.670466,19.670466 0 0 1 1.14324,1.59979 19.670466,19.670466 0 0 1 0.1226,0.2143 10.535915,10.535915 0 0 1 0.43222,-0.56769 10.535915,10.535915 0 0 1 0.71748,-0.77121 10.535915,10.535915 0 0 1 0.79132,-0.6944 10.535915,10.535915 0 0 1 0.85653,-0.61298 10.535915,10.535915 0 0 1 0.91389,-0.52391 10.535915,10.535915 0 0 1 0.96118,-0.43011 10.535915,10.535915 0 0 1 0.99917,-0.3326 10.535915,10.535915 0 0 1 1.02785,-0.23011 10.535915,10.535915 0 0 1 1.04505,-0.12618 10.535915,10.535915 0 0 1 0.74544,-0.0259 10.535915,10.535915 0 0 1 1.0522,0.053 10.535915,10.535915 0 0 1 1.04077,0.15769 10.535915,10.535915 0 0 1 1.02067,0.26022 10.535915,10.535915 0 0 1 0.89237,0.3261 10.535915,10.535915 0 0 1 0.0968,0.035 10.535915,10.535915 0 0 1 0.9483,0.458 10.535915,10.535915 0 0 1 0.8981,0.55049 10.535915,10.535915 0 0 1 0.83863,0.63719 10.535915,10.535915 0 0 1 0.77052,0.71822 10.535915,10.535915 0 0 1 0.69456,0.79128 10.535915,10.535915 0 0 1 0.61282,0.85662 10.535915,10.535915 0 0 1 0.52397,0.9139 10.535915,10.535915 0 0 1 0.34476,0.77049 10.535915,10.535915 0 0 1 0.0853,0.19061 10.535915,10.535915 0 0 1 0.33256,0.9992 10.535915,10.535915 0 0 1 0.23007,1.0278 10.535915,10.535915 0 0 1 0.0939,0.76639 128.51986,128.51986 0 0 1 -1.51524,4.1506 128.51986,128.51986 0 0 1 -2.51084,5.1967 128.51986,128.51986 0 0 1 -3.07707,6.37061 128.51986,128.51986 0 0 1 -1.96539,3.20609 128.51986,128.51986 0 0 1 -3.386,5.5226 128.51986,128.51986 0 0 1 -1.3633,2.2236 128.51986,128.51986 0 0 1 -1.47368,1.9381 26.861103,26.861103 0 0 1 2.43127,0.8881 26.861103,26.861103 0 0 1 0.19642,0.094 128.51986,128.51986 0 0 0 3.80388,-5.0031 128.51986,128.51986 0 0 0 2.71654,-3.5746 128.51986,128.51986 0 0 0 1.08018,-1.42061 128.51986,128.51986 0 0 0 6.71539,-10.95211 128.51986,128.51986 0 0 0 5.58721,-11.5679 128.51986,128.51986 0 0 0 0.36124,-0.98909 19.670466,19.670466 0 0 0 -0.0222,-0.05 19.670466,19.670466 0 0 0 -0.97839,-1.70607 19.670466,19.670466 0 0 0 -1.14324,-1.59912 19.670466,19.670466 0 0 0 -1.29806,-1.47719 19.670466,19.670466 0 0 0 -0.85366,-0.7956 19.670466,19.670466 0 0 0 -0.58489,-0.54481 19.670466,19.670466 0 0 0 -1.56544,-1.18978 19.670466,19.670466 0 0 0 -1.6758,-1.0278 19.670466,19.670466 0 0 0 -1.77042,-0.85511 19.670466,19.670466 0 0 0 -1.84711,-0.67451 19.670466,19.670466 0 0 0 -1.90516,-0.48669 19.670466,19.670466 0 0 0 -1.9446,-0.29322 19.670466,19.670466 0 0 0 -1.96323,-0.099 z m -12.97995,4.9234 a 19.670466,19.670466 0 0 0 -0.0373,-0.035 19.670466,19.670466 0 0 0 -1.56542,-1.19049 19.670466,19.670466 0 0 0 -1.67581,-1.02722 19.670466,19.670466 0 0 0 -1.771124,-0.8558 19.670466,19.670466 0 0 0 -1.84641,-0.67369 19.670466,19.670466 0 0 0 -1.90517,-0.48672 19.670466,19.670466 0 0 0 -0.61785,-0.093 5.3663924,5.388074 0 0 1 -0.32326,0.072 5.3663924,5.388074 0 0 1 -0.53257,0.065 5.3663924,5.388074 0 0 1 -0.37987,0.014 5.3663924,5.388074 0 0 1 -0.53543,-0.028 5.3663924,5.388074 0 0 1 -0.53041,-0.08 5.3663924,5.388074 0 0 1 -0.51965,-0.13312 5.3663924,5.388074 0 0 1 -0.5039,-0.18489 5.3663924,5.388074 0 0 1 -0.0444,-0.0209 19.670466,19.670466 0 0 0 -1.3124,0.047 19.670466,19.670466 0 0 0 -1.95176,0.23648 19.670466,19.670466 0 0 0 -1.91807,0.4308 19.670466,19.670466 0 0 0 -1.86647,0.61999 19.670466,19.670466 0 0 0 -1.79477,0.80352 19.670466,19.670466 0 0 0 -1.70521,0.97829 19.670466,19.670466 0 0 0 -0.30964,0.22151 4.5867614,4.5867614 0 0 0 -0.2394,0.10679 4.5867614,4.5867614 0 0 0 -0.3978,0.22799 4.5867614,4.5867614 0 0 0 -0.37272,0.26662 4.5867614,4.5867614 0 0 0 -0.34476,0.3025 4.5867614,4.5867614 0 0 0 -0.31251,0.33539 4.5867614,4.5867614 0 0 0 -0.033,0.043 19.670467,19.670467 0 0 0 -1.06655,0.93749 19.670467,19.670467 0 0 0 -0.88665,0.9519 19.670466,19.670466 0 0 0 -0.45371,0.4867 19.670466,19.670466 0 0 0 -1.18984,1.5654 19.670466,19.670466 0 0 0 -1.02784,1.6758 19.670466,19.670466 0 0 0 -0.85511,1.7704 19.670466,19.670466 0 0 0 -0.0875,0.2394 128.51986,128.51986 0 0 0 3.01545,6.73769 128.51986,128.51986 0 0 0 6.39213,11.1428 128.51986,128.51986 0 0 0 3.87342,5.4167 128.51986,128.51986 0 0 0 2.60474,3.6426 128.51986,128.51986 0 0 0 0.99415,1.39049 128.51986,128.51986 0 0 0 3.04269,3.46343 26.861103,26.861103 0 0 1 0.86943,-0.38921 26.861103,26.861103 0 0 1 2.54811,-0.84722 26.861103,26.861103 0 0 1 2.15533,-0.48379 128.51986,128.51986 0 0 1 -3.04842,-3.4699 128.51986,128.51986 0 0 1 -0.32469,-0.36978 128.51986,128.51986 0 0 1 -4.30204,-6.01652 128.51986,128.51986 0 0 1 -3.17027,-4.43328 128.51986,128.51986 0 0 1 -2.43988,-4.25331 128.51986,128.51986 0 0 1 -3.95227,-6.89041 128.51986,128.51986 0 0 1 -0.84936,-1.8978 10.535915,10.535915 0 0 1 -0.001,-0.04 10.535915,10.535915 0 0 1 0.0523,-1.05151 10.535915,10.535915 0 0 1 0.15769,-1.04161 10.535915,10.535915 0 0 1 0.23367,-0.9175 10.535915,10.535915 0 0 1 0.0265,-0.10261 10.535915,10.535915 0 0 1 0.36126,-0.98978 10.535915,10.535915 0 0 1 0.45802,-0.94831 10.535915,10.535915 0 0 1 0.55046,-0.89739 10.535915,10.535915 0 0 1 0.63722,-0.8386 10.535915,10.535915 0 0 1 0.71818,-0.77051 10.535915,10.535915 0 0 1 0.79132,-0.69531 10.535915,10.535915 0 0 1 0.85655,-0.61208 10.535915,10.535915 0 0 1 0.91315,-0.52481 10.535915,10.535915 0 0 1 0.0681,-0.031 10.535915,10.535915 0 0 1 0.89381,-0.39979 10.535915,10.535915 0 0 1 0.99917,-0.332 10.535915,10.535915 0 0 1 1.02785,-0.23079 10.535915,10.535915 0 0 1 1.04504,-0.12621 10.535915,10.535915 0 0 1 0.74543,-0.0259 10.535915,10.535915 0 0 1 1.05151,0.053 10.535915,10.535915 0 0 1 1.04148,0.15701 10.535915,10.535915 0 0 1 1.02067,0.2609 10.535915,10.535915 0 0 1 0.98913,0.36121 10.535915,10.535915 0 0 1 0.94828,0.45817 10.535915,10.535915 0 0 1 0.89812,0.55031 10.535915,10.535915 0 0 1 0.83791,0.63721 10.535915,10.535915 0 0 1 0.77053,0.71748 10.535915,10.535915 0 0 1 0.695254,0.79133 10.535915,10.535915 0 0 1 0.61284,0.85668 10.535915,10.535915 0 0 1 0.1276,0.2222 19.670466,19.670466 0 0 1 0.72322,-1.17979 19.670466,19.670466 0 0 1 1.18984,-1.5656 19.670466,19.670466 0 0 1 1.34035,-1.43851 19.670466,19.670466 0 0 1 0.72465,-0.63648 z"
       id="path3087-9-2"
       inkscape:connector-curvature="0" />
    <path
       style="display:inline;opacity:1;fill:url(#linearGradient3366-0-9);fill-opacity:1;stroke:#fa0000;stroke-width:0.0000463;stroke-linecap:round;stroke-linejoin:miter;stroke-miterlimit:4;stroke-dasharray:none;stroke-opacity:1;paint-order:markers fill stroke"
       d="m 104.39943,17.625307 a 4.5867614,4.5867614 0 0 0 -0.32469,0.014 4.5867614,4.5867614 0 0 0 -0.45517,0.056 4.5867614,4.5867614 0 0 0 -0.44725,0.10002 4.5867614,4.5867614 0 0 0 -0.43507,0.14409 4.5867614,4.5867614 0 0 0 -0.4186,0.1879 4.5867614,4.5867614 0 0 0 -0.39709,0.22778 4.5867614,4.5867614 0 0 0 -0.37344,0.26663 4.5867614,4.5867614 0 0 0 -0.34405,0.30249 4.5867614,4.5867614 0 0 0 -0.31251,0.3356 4.5867614,4.5867614 0 0 0 -0.27738,0.36478 4.5867614,4.5867614 0 0 0 -0.24012,0.39121 4.5867614,4.5867614 0 0 0 -0.19926,0.41299 4.5867614,4.5867614 0 0 0 -0.15697,0.43082 4.5867614,4.5867614 0 0 0 -0.114024,0.44368 4.5867614,4.5867614 0 0 0 -0.0681,0.45371 4.5867614,4.5867614 0 0 0 -0.0229,0.458 4.5867614,4.5867614 0 0 0 0.0111,0.324 4.5867614,4.5867614 0 0 0 0.0552,0.45511 4.5867614,4.5867614 0 0 0 0.10029,0.44728 4.5867614,4.5867614 0 0 0 0.144764,0.435 4.5867614,4.5867614 0 0 0 0.18708,0.41863 4.5867614,4.5867614 0 0 0 0.22793,0.39777 4.5867614,4.5867614 0 0 0 0.26665,0.37283 4.5867614,4.5867614 0 0 0 0.3032,0.3447 4.5867614,4.5867614 0 0 0 0.33544,0.31249 4.5867614,4.5867614 0 0 0 0.36485,0.27739 4.5867614,4.5867614 0 0 0 0.39061,0.2394 4.5867614,4.5867614 0 0 0 0.41288,0.2 4.5867614,4.5867614 0 0 0 0.43077,0.157 4.5867614,4.5867614 0 0 0 0.4444,0.11369 4.5867614,4.5867614 0 0 0 0.45299,0.069 4.5867614,4.5867614 0 0 0 0.45803,0.022 4.5867614,4.5867614 0 0 0 0.32469,-0.014 4.5867614,4.5867614 0 0 0 0.45514,-0.055 4.5867614,4.5867614 0 0 0 0.44728,-0.10002 4.5867614,4.5867614 0 0 0 0.43505,-0.14478 4.5867614,4.5867614 0 0 0 0.41859,-0.18711 4.5867614,4.5867614 0 0 0 0.39782,-0.22871 4.5867614,4.5867614 0 0 0 0.37274,-0.26659 4.5867614,4.5867614 0 0 0 0.34474,-0.3025 4.5867614,4.5867614 0 0 0 0.31251,-0.33538 4.5867614,4.5867614 0 0 0 0.27741,-0.36481 4.5867614,4.5867614 0 0 0 0.23939,-0.39071 4.5867614,4.5867614 0 0 0 0.19926,-0.4128 4.5867614,4.5867614 0 0 0 0.15769,-0.4308 4.5867614,4.5867614 0 0 0 0.11318,-0.44439 4.5867614,4.5867614 0 0 0 0.0681,-0.45371 4.5867614,4.5867614 0 0 0 0.0229,-0.45731 4.5867614,4.5867614 0 0 0 -0.0111,-0.32469 4.5867614,4.5867614 0 0 0 -0.0552,-0.45519 4.5867614,4.5867614 0 0 0 -0.10042,-0.4472 4.5867614,4.5867614 0 0 0 -0.14479,-0.43511 4.5867614,4.5867614 0 0 0 -0.18707,-0.4186 4.5867614,4.5867614 0 0 0 -0.22793,-0.3978 4.5867614,4.5867614 0 0 0 -0.26663,-0.37269 4.5867614,4.5867614 0 0 0 -0.3025,-0.3448 4.5867614,4.5867614 0 0 0 -0.33542,-0.3125 4.5867614,4.5867614 0 0 0 -0.36558,-0.27742 4.5867614,4.5867614 0 0 0 -0.39062,-0.23939 4.5867614,4.5867614 0 0 0 -0.41288,-0.19921 4.5867614,4.5867614 0 0 0 -0.43077,-0.15769 4.5867614,4.5867614 0 0 0 -0.4444,-0.1138 4.5867614,4.5867614 0 0 0 -0.45298,-0.069 4.5867614,4.5867614 0 0 0 -0.45801,-0.0241 z"
       id="path3321-2-6"
       inkscape:connector-curvature="0" />
    <path
       style="display:inline;opacity:1;fill:url(#linearGradient3376-4-3);fill-opacity:1;stroke:#fa0000;stroke-width:0.0000463;stroke-linecap:round;stroke-linejoin:miter;stroke-miterlimit:4;stroke-dasharray:none;stroke-opacity:1;paint-order:markers fill stroke"
       d="m 116.96938,31.211717 a 26.861103,26.861103 0 0 1 -0.91028,0.52249 26.861103,26.861103 0 0 1 -0.53471,0.2394 26.861103,26.861103 0 0 1 -1.91592,0.8572 26.861103,26.861103 0 0 1 -2.54812,0.84651 26.861103,26.861103 0 0 1 -2.61979,0.58779 26.861103,26.861103 0 0 1 -2.66495,0.32402 26.861103,26.861103 0 0 1 -1.90014,0.068 26.861103,26.861103 0 0 1 -2.68143,-0.13451 26.861103,26.861103 0 0 1 -2.654914,-0.40069 26.861103,26.861103 0 0 1 -2.60186,-0.6644 26.861103,26.861103 0 0 1 -2.52232,-0.92112 26.861103,26.861103 0 0 1 -0.4107,-0.19849 26.861103,26.861103 0 0 1 -1.89155,-0.91321 10.535915,10.535915 0 0 1 0.39565,0.68882 10.535915,10.535915 0 0 1 0.43006,0.96121 10.535915,10.535915 0 0 1 0.33187,0.99988 10.535915,10.535915 0 0 1 0.0853,0.38061 10.535915,10.535915 0 0 1 0.14551,0.64651 10.535915,10.535915 0 0 1 0.12692,1.04579 10.535915,10.535915 0 0 1 0.0265,0.74541 10.535915,10.535915 0 0 1 -0.053,1.05148 10.535915,10.535915 0 0 1 -0.15697,1.0415 10.535915,10.535915 0 0 1 -0.0953,0.37201 12.249276,12.249276 0 0 0 0.0193,0.086 5.3663924,5.388074 0 0 1 0.33042,-0.11089 5.3663924,5.388074 0 0 1 0.52325,-0.1179 5.3663924,5.388074 0 0 1 0.53256,-0.065 5.3663924,5.388074 0 0 1 0.37917,-0.014 5.3663924,5.388074 0 0 1 0.53614,0.028 5.3663924,5.388074 0 0 1 0.53041,0.08 5.3663924,5.388074 0 0 1 0.51966,0.13309 5.3663924,5.388074 0 0 1 0.50388,0.18492 5.3663924,5.388074 0 0 1 0.4831,0.23439 5.3663924,5.388074 0 0 1 0.45731,0.28091 5.3663924,5.388074 0 0 1 0.42719,0.32618 5.3663924,5.388074 0 0 1 0.39207,0.367 5.3663924,5.388074 0 0 1 0.35408,0.40492 5.3663924,5.388074 0 0 1 0.31179,0.43799 5.3663924,5.388074 0 0 1 0.26737,0.46731 5.3663924,5.388074 0 0 1 0.21861,0.4917 5.3663924,5.388074 0 0 1 0.16915,0.5112 5.3663924,5.388074 0 0 1 0.11748,0.5252 5.3663924,5.388074 0 0 1 0.0652,0.5347 5.3663924,5.388074 0 0 1 0.0125,0.3815 5.3663924,5.388074 0 0 1 -0.0265,0.53739 5.3663924,5.388074 0 0 1 -0.0803,0.53261 5.3663924,5.388074 0 0 1 -0.1326,0.52189 5.3663924,5.388074 0 0 1 -0.1842,0.50591 5.3663924,5.388074 0 0 1 -0.18207,0.37928 5.3663924,5.388074 0 0 1 -0.0509,0.10681 5.3663924,5.388074 0 0 1 -0.28026,0.45861 5.3663924,5.388074 0 0 1 -0.0939,0.1235 5.3663924,5.388074 0 0 1 -0.23081,0.3047 5.3663924,5.388074 0 0 1 -0.36555,0.3942 5.3663924,5.388074 0 0 1 -0.0208,0.018 5.3663924,5.388074 0 0 1 -0.38276,0.3369 5.3663924,5.388074 0 0 1 -0.43579,0.31321 5.3663924,5.388074 0 0 1 -0.46591,0.2681 5.3663924,5.388074 0 0 1 -0.48955,0.22 5.3663924,5.388074 0 0 1 -0.5089,0.16989 5.3663924,5.388074 0 0 1 -0.19998,0.046 19.670467,19.670467 0 0 1 0.61785,0.093 19.670467,19.670467 0 0 1 1.90518,0.48669 19.670467,19.670467 0 0 1 1.8464,0.67369 19.670467,19.670467 0 0 1 1.771124,0.8558 19.670467,19.670467 0 0 1 1.67581,1.02721 19.670467,19.670467 0 0 1 1.56541,1.19049 19.670467,19.670467 0 0 1 0.0373,0.035 19.670467,19.670467 0 0 1 0.75259,-0.66091 19.670467,19.670467 0 0 1 1.59913,-1.1439 19.670467,19.670467 0 0 1 1.70518,-0.9784 19.670467,19.670467 0 0 1 1.79479,-0.80351 19.670467,19.670467 0 0 1 1.86647,-0.62 19.670467,19.670467 0 0 1 0.67375,-0.15118 5.3663924,5.388074 0 0 1 -0.36698,-0.094 5.3663924,5.388074 0 0 1 -0.50389,-0.18501 5.3663924,5.388074 0 0 1 -0.4831,-0.23359 5.3663924,5.388074 0 0 1 -0.45729,-0.28171 5.3663924,5.388074 0 0 1 -0.30679,-0.23439 5.3663924,5.388074 0 0 1 -0.12039,-0.091 5.3663924,5.388074 0 0 1 -0.39279,-0.36698 5.3663924,5.388074 0 0 1 -0.35337,-0.40491 5.3663924,5.388074 0 0 1 -0.0917,-0.12759 5.3663924,5.388074 0 0 1 -0.15124,-0.21291 5.3663924,5.388074 0 0 1 -0.0695,-0.097 5.3663924,5.388074 0 0 1 -0.26665,-0.46742 5.3663924,5.388074 0 0 1 -0.21934,-0.49088 5.3663924,5.388074 0 0 1 -0.16915,-0.51181 5.3663924,5.388074 0 0 1 -0.11749,-0.52541 5.3663924,5.388074 0 0 1 -0.0645,-0.53469 5.3663924,5.388074 0 0 1 -0.0139,-0.3806 5.3663924,5.388074 0 0 1 0.0272,-0.53829 5.3663924,5.388074 0 0 1 0.0803,-0.53261 5.3663924,5.388074 0 0 1 0.13261,-0.52178 5.3663924,5.388074 0 0 1 0.18349,-0.50602 5.3663924,5.388074 0 0 1 0.23367,-0.48448 5.3663924,5.388074 0 0 1 0.28026,-0.4595 5.3663924,5.388074 0 0 1 0.32468,-0.4286 5.3663924,5.388074 0 0 1 0.36556,-0.3942 5.3663924,5.388074 0 0 1 0.40282,-0.35552 5.3663924,5.388074 0 0 1 0.43652,-0.3134 5.3663924,5.388074 0 0 1 0.46518,-0.26789 5.3663924,5.388074 0 0 1 0.48954,-0.2202 5.3663924,5.388074 0 0 1 0.50963,-0.1697 5.3663924,5.388074 0 0 1 0.52324,-0.11789 5.3663924,5.388074 0 0 1 0.53255,-0.065 5.3663924,5.388074 0 0 1 0.37918,-0.014 5.3663924,5.388074 0 0 1 0.53615,0.028 5.3663924,5.388074 0 0 1 0.53041,0.08 5.3663924,5.388074 0 0 1 0.51965,0.13309 5.3663924,5.388074 0 0 1 0.33472,0.12351 12.249276,12.249276 0 0 0 0.0315,-0.12211 12.249276,12.249276 0 0 0 0.048,-0.3176 10.535915,10.535915 0 0 1 -0.13258,-0.39921 10.535915,10.535915 0 0 1 -0.23081,-1.02788 10.535915,10.535915 0 0 1 -0.12691,-1.04571 10.535915,10.535915 0 0 1 -0.0265,-0.7447 10.535915,10.535915 0 0 1 0.0523,-1.05219 10.535915,10.535915 0 0 1 0.1577,-1.04151 10.535915,10.535915 0 0 1 0.0366,-0.14261 10.535915,10.535915 0 0 1 0.22434,-0.87749 10.535915,10.535915 0 0 1 0.36054,-0.98898 10.535915,10.535915 0 0 1 0.25517,-0.52913 z"
       id="path3167-4-8"
       inkscape:connector-curvature="0" />
    <path
       style="display:inline;opacity:1;fill:url(#radialGradient8251-5);fill-opacity:1;stroke:#fa0000;stroke-width:0.0000463;stroke-linecap:round;stroke-linejoin:miter;stroke-miterlimit:4;stroke-dasharray:none;stroke-opacity:1;paint-order:markers fill stroke"
       d="m 115.52439,33.441517 a 12.249276,12.249276 0 0 0 -0.26162,-0.58481 12.249276,12.249276 0 0 0 -0.60926,-1.0623 12.249276,12.249276 0 0 0 -0.71175,-0.9956 12.249276,12.249276 0 0 0 -0.80851,-0.9203 12.249276,12.249276 0 0 0 -0.89597,-0.83429 12.249276,12.249276 0 0 0 -0.97479,-0.7412 12.249276,12.249276 0 0 0 -1.04362,-0.64 12.249276,12.249276 0 0 0 -1.1024,-0.53261 12.249276,12.249276 0 0 0 -1.1504,-0.41928 12.249276,12.249276 0 0 0 -1.18626,-0.30322 12.249276,12.249276 0 0 0 -1.21061,-0.1828 12.249276,12.249276 0 0 0 -1.22281,-0.061 12.249276,12.249276 0 0 0 -0.86658,0.031 12.249276,12.249276 0 0 0 -1.21563,0.14772 12.249276,12.249276 0 0 0 -1.19485,0.2681 12.249276,12.249276 0 0 0 -1.161884,0.38629 12.249276,12.249276 0 0 0 -1.11745,0.49959 12.249276,12.249276 0 0 0 -1.06226,0.6092 12.249276,12.249276 0 0 0 -0.99558,0.7125 12.249276,12.249276 0 0 0 -0.92034,0.80851 12.249276,12.249276 0 0 0 -0.83431,0.8953 12.249276,12.249276 0 0 0 -0.74113,0.9748 12.249276,12.249276 0 0 0 -0.64007,1.04429 12.249276,12.249276 0 0 0 -0.53256,1.10241 12.249276,12.249276 0 0 0 -0.0595,0.1619 26.861106,26.861106 0 0 0 0.41071,0.19859 26.861106,26.861106 0 0 0 2.5223,0.92103 26.861106,26.861106 0 0 0 2.60186,0.6645 26.861106,26.861106 0 0 0 2.654924,0.40057 26.861106,26.861106 0 0 0 2.68142,0.13462 26.861106,26.861106 0 0 0 1.90016,-0.068 26.861106,26.861106 0 0 0 2.66495,-0.3239 26.861106,26.861106 0 0 0 2.61978,-0.58779 26.861106,26.861106 0 0 0 2.54811,-0.84652 26.861106,26.861106 0 0 0 1.91592,-0.8572 z"
       id="path3165-0-7"
       inkscape:connector-curvature="0" />
    <path
       style="display:inline;opacity:1;fill:#00ff00;fill-opacity:1;stroke:#fa0000;stroke-width:0.0000463;stroke-linecap:round;stroke-linejoin:miter;stroke-miterlimit:4;stroke-dasharray:none;stroke-opacity:1;paint-order:markers fill stroke"
       d="m 116.31999,40.969127 a 5.3663924,5.388074 0 0 1 0.16916,0.061 5.3663924,5.388074 0 0 1 0.0918,0.044 10.535915,10.535915 0 0 1 -0.18135,-0.54628 12.249276,12.249276 0 0 1 -0.048,0.3175 12.249276,12.249276 0 0 1 -0.0315,0.12208 z"
       id="path3159-5-9"
       inkscape:connector-curvature="0" />
    <path
       style="display:inline;opacity:1;fill:#00ff00;fill-opacity:1;stroke:#fa0000;stroke-width:0.0000463;stroke-linecap:round;stroke-linejoin:miter;stroke-miterlimit:4;stroke-dasharray:none;stroke-opacity:1;paint-order:markers fill stroke"
       d="m 92.368476,40.911597 a 12.249276,12.249276 0 0 1 -0.0193,-0.086 10.535915,10.535915 0 0 1 -0.0258,0.1013 5.3663924,5.388074 0 0 1 0.0452,-0.0151 z"
       id="path3111-9-2"
       inkscape:connector-curvature="0" />
    <path
       style="display:inline;opacity:1;fill:url(#linearGradient3392-8-3);fill-opacity:1;stroke:#fa0000;stroke-width:0.0000463;stroke-linecap:round;stroke-linejoin:miter;stroke-miterlimit:4;stroke-dasharray:none;stroke-opacity:1;paint-order:markers fill stroke"
       d="m 104.78863,51.922717 a 19.670485,19.670469 0 0 0 -0.72464,0.6365 19.670485,19.670469 0 0 0 -1.34036,1.4385 19.670485,19.670469 0 0 0 -1.18983,1.56541 19.670485,19.670469 0 0 0 -0.72323,1.17979 19.670485,19.670469 0 0 0 -0.30462,0.49689 19.670485,19.670469 0 0 0 -0.855124,1.77042 19.670485,19.670469 0 0 0 -0.67446,1.84711 19.670485,19.670469 0 0 0 -0.48668,1.9051 19.670485,19.670469 0 0 0 -0.29389,1.94388 19.670485,19.670469 0 0 0 -0.0982,1.96391 19.670485,19.670469 0 0 0 0.0495,1.39129 19.670485,19.670469 0 0 0 0.23725,1.95168 19.670485,19.670469 0 0 0 0.0817,0.36632 19.670485,19.670469 0 0 0 0.34834,1.5525 19.670485,19.670469 0 0 0 0.62,1.86571 19.670485,19.670469 0 0 0 0.803514,1.7948 19.670485,19.670469 0 0 0 0.67448,1.1748 19.670485,19.670469 0 0 0 0.30392,0.53038 19.670485,19.670469 0 0 0 1.14395,1.59981 19.670485,19.670469 0 0 0 1.29734,1.4774 19.670485,19.670469 0 0 0 1.40129,1.3045 19.670485,19.670469 0 0 0 0.72466,-0.6365 19.670485,19.670469 0 0 0 1.34036,-1.4387 19.670485,19.670469 0 0 0 1.18985,-1.56541 19.670485,19.670469 0 0 0 0.67947,-1.1081 19.670485,19.670469 0 0 0 0.34836,-0.5684 19.670485,19.670469 0 0 0 0.85581,-1.77038 19.670485,19.670469 0 0 0 0.67376,-1.84711 19.670485,19.670469 0 0 0 0.34978,-1.3676 19.670485,19.670469 0 0 0 0.1369,-0.5368 19.670485,19.670469 0 0 0 0.29389,-1.94459 19.670485,19.670469 0 0 0 0.0982,-1.96401 19.670485,19.670469 0 0 0 -0.0495,-1.3912 19.670485,19.670469 0 0 0 -0.23654,-1.95171 19.670485,19.670469 0 0 0 -0.43077,-1.91877 19.670485,19.670469 0 0 0 -0.62,-1.86583 19.670485,19.670469 0 0 0 -0.80351,-1.7947 19.670485,19.670469 0 0 0 -0.85581,-1.49089 19.670485,19.670469 0 0 0 -0.12262,-0.21428 19.670485,19.670469 0 0 0 -1.14324,-1.59982 19.670485,19.670469 0 0 0 -1.29807,-1.47739 19.670485,19.670469 0 0 0 -1.40129,-1.30451 z"
       id="path3081-4-0"
       inkscape:connector-curvature="0" />
    <path
       inkscape:connector-curvature="0"
       style="opacity:1;vector-effect:none;fill:url(#radialGradient8269-5);fill-opacity:1;stroke:#fa0000;stroke-width:0.0000463;stroke-linecap:round;stroke-linejoin:miter;stroke-miterlimit:4;stroke-dasharray:none;stroke-dashoffset:0;stroke-opacity:1;paint-order:markers fill stroke"
       d="m 141.49618,199.40033 a 64.753744,71.647447 0 0 1 -1.79514,1.13931 9.9640702,11.024848 0 0 0 0.0222,0.20149 21.58423,23.882094 0 0 0 -0.16433,-0.11138 64.753744,71.647447 0 0 1 -3.10868,1.97319 64.753744,71.647447 0 0 1 -1.19364,0.59131 64.753744,71.647447 0 0 1 -4.71437,2.334 64.753744,71.647447 0 0 1 -1.97918,0.72789 64.753744,71.647447 0 0 1 -4.16267,1.5303 64.753744,71.647447 0 0 1 -6.31558,1.5685 64.753744,71.647447 0 0 1 -6.42559,0.8632 64.753744,71.647447 0 0 1 -3.15457,0.12401 21.58423,23.882094 0 0 0 -0.46678,1.069 21.58423,23.882094 0 0 0 -0.73969,2.24229 21.58423,23.882094 0 0 1 0.73919,-2.24229 21.58423,23.882094 0 0 1 0.4668,-1.069 64.753744,71.647447 0 0 1 -1.42606,0.056 64.753744,71.647447 0 0 1 -2.84518,-0.1577 64.753744,71.647447 0 0 1 -3.6194,-0.20039 64.753744,71.647447 0 0 1 -6.399934,-1.07011 64.753744,71.647447 0 0 1 -6.27118,-1.7722 64.753744,71.647447 0 0 1 -2.5185,-1.01719 64.753744,71.647447 0 0 1 -3.56167,-1.43863 64.753744,71.647447 0 0 1 -1.98362,-1.06028 64.753744,71.647447 0 0 1 -3.54392,-1.894 64.753744,71.647447 0 0 1 -0.301,-0.16049 64.753744,71.647447 0 0 1 -1.8721,-1.2699 64.753744,71.647447 0 0 1 -1.29282,-0.8769 120.83967,133.70429 0 0 1 -3.69095,8.45449 120.83967,133.70429 0 0 1 -0.91434,1.6499 120.83968,133.7043 0 0 1 -0.32124,0.5799 120.83967,133.70429 0 0 1 -0.85019,1.5347 21.58423,23.882094 0 0 0 -0.92077,2.10852 21.58423,23.882094 0 0 0 -0.73967,2.24228 21.58423,23.882094 0 0 0 -0.5339,2.3133 21.58423,23.882094 0 0 0 -0.3227,2.3603 21.58423,23.882094 0 0 0 -0.10757,2.38419 21.58423,23.882094 0 0 0 0.0538,1.68932 21.58423,23.882094 0 0 0 0.0785,0.7163 21.58423,23.882094 0 0 0 0.18159,1.6537 21.58423,23.882094 0 0 0 0.47273,2.3291 21.58423,23.882094 0 0 0 0.35873,1.19408 64.753744,71.647447 0 0 0 3.36574,2.83082 64.753744,71.647447 0 0 0 2.76575,1.87661 64.753744,71.647447 0 0 0 2.75241,1.86718 64.753744,71.647447 0 0 0 5.82806,3.11481 64.753744,71.647447 0 0 0 6.08019,2.45571 64.753744,71.647447 0 0 0 6.27163,1.77239 64.753744,71.647447 0 0 0 2.03988,0.34109 64.753744,71.647447 0 0 0 4.36008,0.72891 64.753744,71.647447 0 0 0 6.464564,0.35757 64.753744,71.647447 0 0 0 4.58063,-0.17898 64.753744,71.647447 0 0 0 6.42561,-0.8632 64.753744,71.647447 0 0 0 5.41798,-1.3458 64.753744,71.647447 0 0 0 0.89756,-0.22278 64.753744,71.647447 0 0 0 6.14237,-2.25823 64.753744,71.647447 0 0 0 5.90799,-2.92528 64.753744,71.647447 0 0 0 5.61436,-3.56362 64.753744,71.647447 0 0 0 2.03396,-1.60999 v 0 a 64.753744,71.647447 0 0 0 3.23007,-2.55579 64.753744,71.647447 0 0 0 2.70998,-2.6343 21.58423,23.882094 0 0 0 0.0355,-0.10812 21.58423,23.882094 0 0 0 0.53391,-2.31268 21.58423,23.882094 0 0 0 0.32222,-2.3608 21.58423,23.882094 0 0 0 0.0167,-0.37083 21.58423,23.882094 0 0 0 0.0913,-2.01346 21.58423,23.882094 0 0 0 -0.0542,-1.68932 21.58423,23.882094 0 0 0 -0.26004,-2.3694 21.58423,23.882094 0 0 0 -0.47223,-2.3297 21.58423,23.882094 0 0 0 -0.37206,-1.23878 120.83967,133.70429 0 0 1 -1.77837,-3.43041 120.83967,133.70429 0 0 1 -2.38478,-4.59991 120.83968,133.7043 0 0 1 -1.80799,-3.48699 120.83968,133.7043 0 0 1 -0.87634,-2.16649 z m -34.19849,14.25361 a 21.58423,23.882094 0 0 0 -0.53389,2.31281 21.58423,23.882094 0 0 0 -0.0439,0.32159 21.58423,23.882094 0 0 1 0.12927,0.4307 21.58423,23.882094 0 0 1 0.47272,2.32921 21.58423,23.882094 0 0 1 0.26005,2.37 21.58423,23.882094 0 0 1 0.0538,1.68929 21.58423,23.882094 0 0 1 -0.10757,2.38432 21.58423,23.882094 0 0 1 -0.27879,2.03758 21.58423,23.882094 0 0 0 0.55119,1.83609 21.58423,23.882094 0 0 0 0.88126,2.179 21.58423,23.882094 0 0 0 1.07373,2.07022 21.58423,23.882094 0 0 0 1.25483,1.94209 21.58423,23.882094 0 0 0 1.42409,1.79351 21.58423,23.882094 0 0 1 -1.42407,-1.79351 21.58423,23.882094 0 0 1 -1.25482,-1.94209 21.58423,23.882094 0 0 1 -1.07373,-2.07022 21.58423,23.882094 0 0 1 -0.88129,-2.179 21.58423,23.882094 0 0 1 -0.55117,-1.83609 21.58423,23.882094 0 0 0 0.27879,-2.03758 21.58423,23.882094 0 0 0 0.10758,-2.38432 21.58423,23.882094 0 0 0 -0.0538,-1.68929 21.58423,23.882094 0 0 0 -0.26005,-2.37 21.58423,23.882094 0 0 0 -0.47272,-2.32921 21.58423,23.882094 0 0 0 -0.12928,-0.4307 21.58423,23.882094 0 0 1 0.0439,-0.32159 21.58423,23.882094 0 0 1 0.53391,-2.31281 z"
       id="path20311-3-3" />
    <path
       inkscape:connector-curvature="0"
       style="opacity:1;vector-effect:none;fill:url(#radialGradient14100);fill-opacity:1;stroke:#fa0000;stroke-width:0.0000463;stroke-linecap:round;stroke-linejoin:miter;stroke-miterlimit:4;stroke-dasharray:none;stroke-dashoffset:0;stroke-opacity:1;paint-order:markers fill stroke"
       d="m 74.315056,196.16806 a 120.83968,133.7043 0 0 1 -0.45496,1.04128 120.83967,133.70429 0 0 1 -0.99132,2.27061 64.753744,71.647447 0 0 0 1.29283,0.87681 64.753744,71.647447 0 0 0 1.87209,1.27 64.753744,71.647447 0 0 0 0.30101,0.1606 64.753744,71.647447 0 0 0 3.54391,1.89389 64.753744,71.647447 0 0 0 1.98361,1.06028 64.753744,71.647447 0 0 0 3.56169,1.43863 64.753744,71.647447 0 0 0 2.5185,1.01719 64.753744,71.647447 0 0 0 6.27118,1.77219 64.753744,71.647447 0 0 0 6.399924,1.07008 64.753744,71.647447 0 0 0 3.61941,0.20043 64.753744,71.647447 0 0 0 2.84517,0.1577 64.753744,71.647447 0 0 0 1.42607,-0.056 64.753744,71.647447 0 0 0 3.15457,-0.12388 64.753744,71.647447 0 0 0 6.42559,-0.8632 64.753744,71.647447 0 0 0 6.31555,-1.5685 64.753744,71.647447 0 0 0 4.16316,-1.5304 64.753744,71.647447 0 0 0 1.9792,-0.72779 64.753744,71.647447 0 0 0 4.71437,-2.33402 64.753744,71.647447 0 0 0 1.19363,-0.59129 64.753744,71.647447 0 0 0 3.10869,-1.97321 64.753744,71.647447 0 0 0 0.14211,-0.09 64.753744,71.647447 0 0 0 1.79514,-1.1394 120.83967,133.70429 0 0 1 -1.16996,-2.89311 64.753744,71.647447 0 0 1 -0.48603,0.30849 64.753744,71.647447 0 0 1 -2.88959,1.83391 64.753744,71.647447 0 0 1 -0.38884,0.19219 64.753744,71.647447 0 0 1 -4.41432,2.18602 64.753744,71.647447 0 0 1 -1.10483,0.54708 64.753744,71.647447 0 0 1 -5.60896,2.06272 64.753744,71.647447 0 0 1 -0.5334,0.196 64.753744,71.647447 0 0 1 -6.31556,1.568 64.753744,71.647447 0 0 1 -6.42561,0.86321 64.753744,71.647447 0 0 1 -1.43295,0.056 64.753744,71.647447 0 0 1 -3.14767,0.12342 64.753744,71.647447 0 0 1 -6.41127,-0.35539 64.753744,71.647447 0 0 1 -0.0533,0 64.753744,71.647447 0 0 1 -6.399924,-1.07023 64.753744,71.647447 0 0 1 -6.0042,-1.69628 64.753744,71.647447 0 0 1 -0.26745,-0.075 64.753744,71.647447 0 0 1 -4.94727,-1.99818 64.753744,71.647447 0 0 1 -1.13291,-0.45759 64.753744,71.647447 0 0 1 -1.54646,-0.82663 64.753744,71.647447 0 0 1 -4.28159,-2.28868 64.753744,71.647447 0 0 1 -2.21901,-1.50531 z"
       id="path20369-3-7" />
    <path
       inkscape:connector-curvature="0"
       style="opacity:1;vector-effect:none;fill:url(#radialGradient14084);fill-opacity:1;stroke:#fa0000;stroke-width:0.0000463;stroke-linecap:round;stroke-linejoin:miter;stroke-miterlimit:4;stroke-dasharray:none;stroke-dashoffset:0;stroke-opacity:1;paint-order:markers fill stroke"
       d="m 80.035026,108.62063 a 64.753744,71.647447 0 0 0 -0.3232,0.15991 120.83968,133.7043 0 0 1 2.50077,12.3271 120.83968,133.7043 0 0 1 1.45566,13.26712 120.83968,133.7043 0 0 1 0.30246,9.4579 120.83968,133.7043 0 0 1 -0.60347,13.34859 120.83968,133.7043 0 0 1 -1.80502,13.21471 120.83968,133.7043 0 0 1 -2.98828,12.94938 120.83968,133.7043 0 0 1 -2.22196,6.73521 64.753744,71.647447 0 0 0 1.20252,0.81561 64.753744,71.647447 0 0 0 5.82854,3.11538 64.753744,71.647447 0 0 0 6.08019,2.45581 64.753744,71.647447 0 0 0 3.0539,0.8626 40.497244,44.808592 0 0 0 -0.69625,0.17308 40.497244,44.808592 0 0 0 -3.84146,1.41241 40.497244,44.808592 0 0 0 -0.75693,0.3746 21.584231,23.882095 0 0 1 0.98394,0.055 21.584231,23.882095 0 0 1 2.13314,0.35701 21.584231,23.882095 0 0 1 2.09071,0.59078 21.584231,23.882095 0 0 1 0.42337,0.17093 40.497249,44.808598 0 0 1 0.81468,-0.5171 40.497249,44.808598 0 0 1 3.09931,-1.53471 64.753744,71.647447 0 0 0 5.367154,0.8976 64.753744,71.647447 0 0 0 6.46459,0.35821 64.753744,71.647447 0 0 0 4.58064,-0.17959 64.753744,71.647447 0 0 0 4.08518,-0.54881 64.753744,71.647447 0 0 0 2.3399,-0.3139 64.753744,71.647447 0 0 0 0.28718,-0.072 21.584231,23.882095 0 0 1 0.2043,-0.10151 21.584231,23.882095 0 0 1 2.04778,-0.75279 21.584231,23.882095 0 0 1 2.10501,-0.52261 21.584231,23.882095 0 0 1 0.011,0 21.584231,23.882095 0 0 1 2.10551,-0.28277 64.753744,71.647447 0 0 0 5.69777,-2.09443 64.753744,71.647447 0 0 0 5.90799,-2.92578 64.753744,71.647447 0 0 0 0.38192,-0.24252 120.83968,133.7043 0 0 1 -0.91485,-2.26239 120.83968,133.7043 0 0 1 -3.80888,-12.6831 120.83968,133.7043 0 0 1 -2.64535,-13.04049 120.83968,133.7043 0 0 1 -1.45565,-13.26721 120.83968,133.7043 0 0 1 -0.30247,-9.4579 120.83968,133.7043 0 0 1 0.60347,-13.3479 120.83968,133.7043 0 0 1 1.80503,-13.2148 120.83968,133.7043 0 0 1 1.128,-4.88809 64.753744,71.647447 0 0 0 -0.0425,-0.022 55.385338,61.281678 0 0 1 -0.52945,0.33581 55.385338,61.281678 0 0 1 -5.05332,2.50219 55.385338,61.281678 0 0 1 -5.25368,1.9317 55.385338,61.281678 0 0 1 -5.40222,1.34141 55.385338,61.281678 0 0 1 -5.49545,0.7381 55.385338,61.281678 0 0 1 -3.91792,0.15348 55.385338,61.281678 0 0 1 -5.5295,-0.3062 55.385338,61.281678 0 0 1 -5.473774,-0.91508 55.385338,61.281678 0 0 1 -5.3642,-1.51571 55.385338,61.281678 0 0 1 -5.20086,-2.1004 55.385338,61.281678 0 0 1 -4.98476,-2.6643 55.385338,61.281678 0 0 1 -0.48013,-0.32589 z"
       id="path20181-8-4" />
    <path
       inkscape:connector-curvature="0"
       style="opacity:1;vector-effect:none;fill:url(#radialGradient14092);fill-opacity:1;stroke:#fa0000;stroke-width:0.0000463;stroke-linecap:round;stroke-linejoin:miter;stroke-miterlimit:4;stroke-dasharray:none;stroke-dashoffset:0;stroke-opacity:1;paint-order:markers fill stroke"
       d="m 76.351986,190.08055 a 120.83967,133.70429 0 0 1 -1.91998,5.81948 120.83967,133.70429 0 0 1 -0.11695,0.26803 64.753744,71.647447 0 0 0 2.21901,1.50529 64.753744,71.647447 0 0 0 4.2816,2.2887 64.753744,71.647447 0 0 0 1.54645,0.82659 64.753744,71.647447 0 0 0 1.13292,0.4575 64.753744,71.647447 0 0 0 4.94726,1.9983 64.753744,71.647447 0 0 0 0.26745,0.075 64.753744,71.647447 0 0 0 6.00419,1.6964 64.753744,71.647447 0 0 0 6.399944,1.06999 64.753744,71.647447 0 0 0 0.0533,0 64.753744,71.647447 0 0 0 6.41126,0.3556 64.753744,71.647447 0 0 0 3.14768,-0.12339 64.753744,71.647447 0 0 0 1.43296,-0.056 64.753744,71.647447 0 0 0 6.42559,-0.8632 64.753744,71.647447 0 0 0 6.31556,-1.5681 64.753744,71.647447 0 0 0 0.5334,-0.19598 64.753744,71.647447 0 0 0 5.60896,-2.06261 64.753744,71.647447 0 0 0 1.10483,-0.54711 64.753744,71.647447 0 0 0 4.41433,-2.1862 64.753744,71.647447 0 0 0 0.38883,-0.19209 64.753744,71.647447 0 0 0 2.8896,-1.83401 9.9640702,11.024848 0 0 1 0.21366,-0.92638 9.9640702,11.024848 0 0 1 0.01,-0.031 120.83967,133.70429 0 0 1 -1.71027,-4.2286 64.753744,71.647447 0 0 1 -0.38191,0.2425 64.753744,71.647447 0 0 1 -5.908,2.92582 64.753744,71.647447 0 0 1 -5.69775,2.09438 21.584231,23.882095 0 0 0 -2.10553,0.28282 21.584231,23.882095 0 0 0 -0.0108,0 21.584231,23.882095 0 0 0 -2.10502,0.52249 21.584231,23.882095 0 0 0 -2.04779,0.75291 21.584231,23.882095 0 0 0 -0.20429,0.10138 64.753744,71.647447 0 0 1 -0.28717,0.072 64.753744,71.647447 0 0 1 -2.33991,0.31391 64.753744,71.647447 0 0 1 -4.08518,0.54872 64.753744,71.647447 0 0 1 -4.58065,0.17968 64.753744,71.647447 0 0 1 -6.46457,-0.3582 64.753744,71.647447 0 0 1 -5.367164,-0.8976 40.497249,44.808598 0 0 0 -3.09931,1.53469 40.497249,44.808598 0 0 0 -0.81468,0.51703 21.58423,23.882094 0 0 0 -0.42337,-0.17082 21.58423,23.882094 0 0 0 -2.09071,-0.5908 21.58423,23.882094 0 0 0 -2.13314,-0.35699 21.58423,23.882094 0 0 0 -0.98393,-0.055 40.497244,44.808592 0 0 1 0.75693,-0.37449 40.497244,44.808592 0 0 1 3.84146,-1.4125 40.497244,44.808592 0 0 1 0.69625,-0.17302 64.753744,71.647447 0 0 1 -3.05392,-0.8627 64.753744,71.647447 0 0 1 -6.08019,-2.4557 64.753744,71.647447 0 0 1 -5.82853,-3.11539 64.753744,71.647447 0 0 1 -1.20252,-0.81571 z"
       id="path20243-3-5" />
    <path
       style="opacity:1;vector-effect:none;fill:#b3b3b3;fill-opacity:1;stroke:#fa0000;stroke-width:0.0000463;stroke-linecap:round;stroke-linejoin:miter;stroke-miterlimit:4;stroke-dasharray:none;stroke-dashoffset:0;stroke-opacity:1;paint-order:markers fill stroke"
       d="m 78.277066,127.30137 a 64.753744,71.647447 0 0 1 0.32319,-0.15991 55.385338,61.281678 0 0 1 -0.412,-0.27947 120.83968,133.7043 0 0 1 0.0888,0.43938 z"
       id="path20397-7-2"
       inkscape:connector-curvature="0" />
    <path
       style="opacity:1;vector-effect:none;fill:#b3b3b3;fill-opacity:1;stroke:#fa0000;stroke-width:0.0000463;stroke-linecap:round;stroke-linejoin:miter;stroke-miterlimit:4;stroke-dasharray:none;stroke-dashoffset:0;stroke-opacity:1;paint-order:markers fill stroke"
       d="m 67.942266,210.16415 a 120.83968,133.7043 0 0 0 0.32122,-0.57981 21.584231,23.882095 0 0 0 -0.0262,0.038 21.584231,23.882095 0 0 0 -0.302,0.54488 9.9640694,11.024847 0 0 0 0.007,0 z"
       id="path20381-9-5"
       inkscape:connector-curvature="0" />
    <path
       style="opacity:1;vector-effect:none;fill:#b3b3b3;fill-opacity:1;stroke:#fa0000;stroke-width:0.0000463;stroke-linecap:round;stroke-linejoin:miter;stroke-miterlimit:4;stroke-dasharray:none;stroke-dashoffset:0;stroke-opacity:1;paint-order:markers fill stroke"
       d="m 67.942266,210.16415 a 9.9640694,11.024847 0 0 1 -0.007,0 21.584231,23.882095 0 0 0 -0.82552,1.49049 21.584231,23.882095 0 0 0 -0.0177,0.041 120.83968,133.7043 0 0 0 0.85018,-1.53468 z"
       id="path20379-3-4"
       inkscape:connector-curvature="0" />
    <path
       style="opacity:1;vector-effect:none;fill:#b3b3b3;fill-opacity:1;stroke:#fa0000;stroke-width:0.0000463;stroke-linecap:round;stroke-linejoin:miter;stroke-miterlimit:4;stroke-dasharray:none;stroke-dashoffset:0;stroke-opacity:1;paint-order:markers fill stroke"
       d="m 139.70104,200.53964 a 64.753744,71.647447 0 0 1 -0.14211,0.09 21.584231,23.882095 0 0 1 0.16431,0.11149 9.9640702,11.024848 0 0 1 -0.0222,-0.20149 z"
       id="path20325-7-7"
       inkscape:connector-curvature="0" />
    <path
       inkscape:connector-curvature="0"
       style="opacity:1;vector-effect:none;fill:url(#radialGradient8273-3);fill-opacity:1;stroke:#fa0000;stroke-width:0.0000463;stroke-linecap:round;stroke-linejoin:miter;stroke-miterlimit:4;stroke-dasharray:none;stroke-dashoffset:0;stroke-opacity:1;paint-order:markers fill stroke"
       d="m 150.47779,225.95755 a 64.753744,71.647447 0 0 1 -1.97523,1.91967 64.753744,71.647447 0 0 1 -2.71,2.63423 64.753744,71.647447 0 0 1 -3.23005,2.55569 64.753744,71.647447 0 0 1 -2.03496,1.6102 64.753744,71.647447 0 0 1 -5.61439,3.56352 64.753744,71.647447 0 0 1 -5.90799,2.92528 64.753744,71.647447 0 0 1 -6.14233,2.25812 64.753744,71.647447 0 0 1 -0.89759,0.22287 64.753744,71.647447 0 0 1 -5.41799,1.34581 64.753744,71.647447 0 0 1 -6.4256,0.8631 64.753744,71.647447 0 0 1 -4.58063,0.1791 64.753744,71.647447 0 0 1 -6.464554,-0.3576 64.753744,71.647447 0 0 1 -4.36008,-0.72889 21.584231,23.882095 0 0 1 -0.84378,0.4177 21.584231,23.882095 0 0 0 0.84378,-0.4177 64.753744,71.647447 0 0 1 -2.0389,-0.3412 64.753744,71.647447 0 0 1 -6.27165,-1.77232 64.753744,71.647447 0 0 1 -6.08018,-2.45578 64.753744,71.647447 0 0 1 -5.82806,-3.1147 64.753744,71.647447 0 0 1 -2.75142,-1.86672 64.753744,71.647447 0 0 1 -2.76573,-1.8766 64.753744,71.647447 0 0 1 -3.36576,-2.83081 21.584231,23.882095 0 0 0 0.32171,1.07118 21.584231,23.882095 0 0 0 0.88129,2.17891 21.584231,23.882095 0 0 0 1.07325,2.07091 21.584231,23.882095 0 0 0 1.25531,1.942 21.584231,23.882095 0 0 0 1.42359,1.79361 21.584231,23.882095 0 0 0 0.99918,1.02971 21.584231,23.882095 0 0 1 -1.00017,-1.0307 21.584231,23.882095 0 0 1 -1.4236,-1.7936 21.584231,23.882095 0 0 1 -1.25532,-1.94199 21.584231,23.882095 0 0 1 -1.07322,-2.07092 21.584231,23.882095 0 0 1 -0.8813,-2.1789 21.584231,23.882095 0 0 1 -0.32171,-1.07119 64.753744,71.647447 0 0 1 -1.78724,-1.5032 64.753744,71.647447 0 0 1 -0.21319,-0.21991 40.497244,44.808592 0 0 0 -0.64837,2.80951 40.497244,44.808592 0 0 0 -0.60496,4.42839 40.497244,44.808592 0 0 0 -0.19786,4.37552 75.695813,83.754412 0 0 0 0.639,0.53719 75.695813,83.754412 0 0 0 6.45077,4.3759 75.695813,83.754412 0 0 0 2.82494,1.5097 75.695813,83.754412 0 0 0 3.988,2.13139 75.695813,83.754412 0 0 0 7.10754,2.87082 75.695813,83.754412 0 0 0 7.33155,2.0714 75.695813,83.754412 0 0 0 7.48106,1.25139 75.695813,83.754412 0 0 0 7.557074,0.41821 75.695813,83.754412 0 0 0 5.35485,-0.20971 75.695813,83.754412 0 0 0 7.51115,-1.00888 75.695813,83.754412 0 0 0 7.38289,-1.83342 75.695813,83.754412 0 0 0 7.18007,-2.64029 75.695813,83.754412 0 0 0 6.90669,-3.4194 75.695813,83.754412 0 0 0 3.0939,-1.96392 75.695813,83.754412 0 0 0 3.46937,-2.20199 75.695813,83.754412 0 0 0 6.02494,-4.76802 40.497249,44.808598 0 0 0 -0.0316,-0.99038 40.497249,44.808598 0 0 0 -0.48753,-4.44629 40.497249,44.808598 0 0 0 -0.88672,-4.3706 40.497249,44.808598 0 0 0 -0.58128,-1.9359 z"
       id="path20315-8-4" />
    <path
       inkscape:connector-curvature="0"
       style="opacity:1;vector-effect:none;fill:url(#radialGradient8271-1);fill-opacity:1;stroke:#fa0000;stroke-width:0.0000463;stroke-linecap:round;stroke-linejoin:miter;stroke-miterlimit:4;stroke-dasharray:none;stroke-dashoffset:0;stroke-opacity:1;paint-order:markers fill stroke"
       d="m 152.4649,237.70084 a 75.695813,83.754412 0 0 1 -6.02494,4.768 75.695813,83.754412 0 0 1 -3.46938,2.20189 75.695813,83.754412 0 0 1 -3.09388,1.96393 75.695813,83.754412 0 0 1 -6.90671,3.41939 75.695813,83.754412 0 0 1 -7.18006,2.64038 75.695813,83.754412 0 0 1 -7.38289,1.83341 75.695813,83.754412 0 0 1 -7.51116,1.0088 75.695813,83.754412 0 0 1 -5.35485,0.20982 75.695813,83.754412 0 0 1 -7.557064,-0.41832 75.695813,83.754412 0 0 1 -7.48106,-1.25139 75.695813,83.754412 0 0 1 -7.33155,-2.0714 75.695813,83.754412 0 0 1 -7.10754,-2.8707 75.695813,83.754412 0 0 1 -3.98801,-2.13151 75.695813,83.754412 0 0 1 -2.82493,-1.50961 75.695813,83.754412 0 0 1 -6.45076,-4.37599 75.695813,83.754412 0 0 1 -0.63902,-0.53719 40.497244,44.808592 0 0 0 -0.005,0.098 40.497244,44.808592 0 0 0 0.10114,3.16938 40.497244,44.808592 0 0 0 0.488,4.44641 40.497244,44.808592 0 0 0 0.0908,0.44828 88.476426,97.895651 0 0 0 1.73049,1.17391 88.476426,97.895651 0 0 0 7.96316,4.2564 88.476426,97.895651 0 0 0 1.34168,0.5416 88.476426,97.895651 0 0 0 6.96641,2.81389 88.476426,97.895651 0 0 0 8.56912,2.42082 88.476426,97.895651 0 0 0 8.74427,1.46269 88.476426,97.895651 0 0 0 8.833094,0.4886 88.476426,97.895651 0 0 0 6.25834,-0.24511 88.476426,97.895651 0 0 0 8.77979,-1.17929 88.476426,97.895651 0 0 0 8.62933,-2.14289 88.476426,97.895651 0 0 0 8.39244,-3.08531 88.476426,97.895651 0 0 0 2.22298,-1.1007 88.476426,97.895651 0 0 0 5.84975,-2.89699 88.476426,97.895651 0 0 0 4.67881,-2.96951 40.497249,44.808598 0 0 0 0.53635,-3.92779 40.497249,44.808598 0 0 0 0.20233,-4.47309 40.497249,44.808598 0 0 0 -0.0701,-2.179 z"
       id="path20283-7-4" />
    <path
       style="opacity:1;vector-effect:none;fill:#b3b3b3;fill-opacity:1;stroke:#fa0000;stroke-width:0.0000463;stroke-linecap:round;stroke-linejoin:miter;stroke-miterlimit:4;stroke-dasharray:none;stroke-dashoffset:0;stroke-opacity:1;paint-order:markers fill stroke"
       d="m 131.32798,127.98886 a 120.83968,133.7043 0 0 1 0.0134,-0.058 55.385338,61.281678 0 0 1 -0.0558,0.036 64.753744,71.647447 0 0 1 0.0424,0.022 z"
       id="path20185-4-3"
       inkscape:connector-curvature="0" />
    <path
       style="opacity:1;vector-effect:none;fill:#b3b3b3;fill-opacity:1;stroke:#fa0000;stroke-width:0.0000463;stroke-linecap:round;stroke-linejoin:miter;stroke-miterlimit:4;stroke-dasharray:none;stroke-dashoffset:0;stroke-opacity:1;paint-order:markers fill stroke"
       d="m 140.32622,196.50715 a 120.83968,133.7043 0 0 1 -0.26252,-0.6486 9.9640702,11.024848 0 0 0 -0.01,0.031 9.9640702,11.024848 0 0 0 -0.21364,0.9266 64.753744,71.647447 0 0 0 0.48603,-0.30851 z"
       id="path20173-1-0"
       inkscape:connector-curvature="0" />
    <path
       style="opacity:1;vector-effect:none;fill:#b3b3b3;fill-opacity:1;stroke:#fa0000;stroke-width:0.0000463;stroke-linecap:round;stroke-linejoin:miter;stroke-miterlimit:4;stroke-dasharray:none;stroke-dashoffset:0;stroke-opacity:1;paint-order:markers fill stroke"
       d="m 127.13569,126.03368 a 64.753744,71.647447 0 0 1 2.18695,0.88338 64.753744,71.647447 0 0 1 1.96289,1.04939 55.385338,61.281678 0 0 0 0.0558,-0.036 120.83968,133.7043 0 0 1 0.71993,-3.12022 103.40398,114.4124 0 0 1 -4.92553,1.22291 z"
       id="path20095-0-7"
       inkscape:connector-curvature="0" />
    <path
       style="opacity:1;vector-effect:none;fill:#999999;fill-opacity:1;stroke:#fa0000;stroke-width:0.0000463;stroke-linecap:round;stroke-linejoin:miter;stroke-miterlimit:4;stroke-dasharray:none;stroke-dashoffset:0;stroke-opacity:1;paint-order:markers fill stroke"
       d="m 83.188126,107.20114 a 64.753744,71.647447 0 0 0 -1.11125,0.40841 64.753744,71.647447 0 0 0 -2.04185,1.01108 55.385338,61.281678 0 0 0 0.48012,0.32591 55.385338,61.281678 0 0 0 4.98476,2.66449 55.385338,61.281678 0 0 0 5.20086,2.1002 55.385338,61.281678 0 0 0 5.36421,1.5157 55.385338,61.281678 0 0 0 5.473764,0.91511 55.385338,61.281678 0 0 0 5.5295,0.30628 55.385338,61.281678 0 0 0 3.91793,-0.15338 55.385338,61.281678 0 0 0 5.49545,-0.73821 55.385338,61.281678 0 0 0 5.40222,-1.34149 55.385338,61.281678 0 0 0 5.25368,-1.93162 55.385338,61.281678 0 0 0 5.05332,-2.50219 55.385338,61.281678 0 0 0 0.52946,-0.33581 64.753744,71.647447 0 0 0 -1.9629,-1.04939 64.753744,71.647447 0 0 0 -2.18694,-0.88339 103.40398,114.4124 0 0 1 -4.43752,1.10239 103.40398,114.4124 0 0 1 -10.26063,1.378 103.40398,114.4124 0 0 1 -7.31477,0.2867 103.40398,114.4124 0 0 1 -10.322814,-0.57168 103.40398,114.4124 0 0 1 -10.22016,-1.70892 103.40398,114.4124 0 0 1 -2.82644,-0.79819 z"
       id="path20093-9-8"
       inkscape:connector-curvature="0" />
    <path
       style="opacity:1;vector-effect:none;fill:#b3b3b3;fill-opacity:1;stroke:#fa0000;stroke-width:0.0000463;stroke-linecap:round;stroke-linejoin:miter;stroke-miterlimit:4;stroke-dasharray:none;stroke-dashoffset:0;stroke-opacity:1;paint-order:markers fill stroke"
       d="m 77.512706,124.52356 a 120.83968,133.7043 0 0 1 0.61979,2.06431 120.83968,133.7043 0 0 1 0.0558,0.27412 55.385338,61.281678 0 0 0 0.41201,0.27947 64.753744,71.647447 0 0 1 2.04186,-1.01108 64.753744,71.647447 0 0 1 1.11124,-0.4084 103.40398,114.4124 0 0 1 -4.24066,-1.19842 z"
       id="path20089-8-6"
       inkscape:connector-curvature="0" />
  </g>
</svg>
