<?xml version="1.0" encoding="UTF-8" standalone="no"?>
<!-- Created with Inkscape (http://www.inkscape.org/) -->

<svg
   xmlns:dc="http://purl.org/dc/elements/1.1/"
   xmlns:cc="http://creativecommons.org/ns#"
   xmlns:rdf="http://www.w3.org/1999/02/22-rdf-syntax-ns#"
   xmlns:svg="http://www.w3.org/2000/svg"
   xmlns="http://www.w3.org/2000/svg"
   xmlns:xlink="http://www.w3.org/1999/xlink"
   xmlns:sodipodi="http://sodipodi.sourceforge.net/DTD/sodipodi-0.dtd"
   xmlns:inkscape="http://www.inkscape.org/namespaces/inkscape"
   width="210mm"
   height="297mm"
   viewBox="0 0 210 297"
   version="1.1"
   id="svg10001"
   inkscape:version="0.92.3 (2405546, 2018-03-11)"
   sodipodi:docname="wN.svg">
  <defs
     id="defs9995">
    <linearGradient
       inkscape:collect="always"
       xlink:href="#linearGradient8943"
       id="linearGradient8945"
       x1="-327.70535"
       y1="540.41669"
       x2="-327.70535"
       y2="498.08334"
       gradientUnits="userSpaceOnUse"
       gradientTransform="matrix(0.82266847,0,0,0.82266847,374.32436,-199.45602)" />
    <linearGradient
       inkscape:collect="always"
       id="linearGradient8943">
      <stop
         style="stop-color:#ececec;stop-opacity:1"
         offset="0"
         id="stop8939" />
      <stop
         style="stop-color:#333333;stop-opacity:1"
         offset="1"
         id="stop8941" />
    </linearGradient>
    <linearGradient
       inkscape:collect="always"
       xlink:href="#linearGradient3483"
       id="linearGradient8885"
       gradientUnits="userSpaceOnUse"
       x1="-389.13773"
       y1="525.0838"
       x2="-281.67691"
       y2="502.37598"
       gradientTransform="matrix(0.82266847,0,0,0.82266847,374.32436,-199.45602)" />
    <linearGradient
       id="linearGradient3483"
       inkscape:collect="always">
      <stop
         id="stop3479"
         offset="0"
         style="stop-color:#b3b3b3;stop-opacity:1" />
      <stop
         id="stop3481"
         offset="1"
         style="stop-color:#333333;stop-opacity:1" />
    </linearGradient>
    <linearGradient
       inkscape:collect="always"
       xlink:href="#linearGradient3483"
       id="linearGradient8883"
       gradientUnits="userSpaceOnUse"
       gradientTransform="matrix(0.21766437,0,0,0.21766437,374.32436,-199.45602)"
       x1="-1531.7765"
       y1="1868.2087"
       x2="-1069.3215"
       y2="1851.7937" />
    <linearGradient
       inkscape:collect="always"
       xlink:href="#linearGradient8931"
       id="linearGradient8925"
       x1="-300.14084"
       y1="481.90485"
       x2="-389.69345"
       y2="481.45239"
       gradientUnits="userSpaceOnUse"
       gradientTransform="matrix(0.82266847,0,0,0.82266847,374.32436,-199.45602)" />
    <linearGradient
       id="linearGradient8931"
       inkscape:collect="always">
      <stop
         id="stop8927"
         offset="0"
         style="stop-color:#cccccc;stop-opacity:1" />
      <stop
         id="stop8929"
         offset="1"
         style="stop-color:#999999;stop-opacity:1" />
    </linearGradient>
    <linearGradient
       inkscape:collect="always"
       xlink:href="#linearGradient8901"
       id="linearGradient8895"
       x1="-305.88525"
       y1="345.97269"
       x2="-263.07144"
       y2="314.00894"
       gradientUnits="userSpaceOnUse"
       gradientTransform="matrix(0.82266847,0,0,0.82266847,374.32436,-199.45602)" />
    <linearGradient
       id="linearGradient8901"
       inkscape:collect="always">
      <stop
         id="stop8897"
         offset="0"
         style="stop-color:#e6e6e6;stop-opacity:1;" />
      <stop
         id="stop8899"
         offset="1"
         style="stop-color:#333333;stop-opacity:1" />
    </linearGradient>
    <radialGradient
       inkscape:collect="always"
       xlink:href="#linearGradient8907"
       id="radialGradient8909"
       cx="-290.35806"
       cy="349.10596"
       fx="-290.35806"
       fy="349.10596"
       r="13.51777"
       gradientTransform="matrix(0.82266847,0,0,0.79010377,374.32436,-188.08749)"
       gradientUnits="userSpaceOnUse" />
    <linearGradient
       inkscape:collect="always"
       id="linearGradient8907">
      <stop
         style="stop-color:#f4e3d7;stop-opacity:1"
         offset="0"
         id="stop8903" />
      <stop
         style="stop-color:#333333;stop-opacity:1"
         offset="1"
         id="stop8905" />
    </linearGradient>
    <linearGradient
       inkscape:collect="always"
       xlink:href="#linearGradient3477"
       id="linearGradient8875"
       gradientUnits="userSpaceOnUse"
       x1="-342.73816"
       y1="402.78485"
       x2="-298.77951"
       y2="428.41284"
       gradientTransform="matrix(0.82266847,0,0,0.82266847,374.32436,-199.45602)" />
    <linearGradient
       id="linearGradient3477"
       inkscape:collect="always">
      <stop
         id="stop3473"
         offset="0"
         style="stop-color:#999999;stop-opacity:1" />
      <stop
         id="stop3475"
         offset="1"
         style="stop-color:#ececec;stop-opacity:1" />
    </linearGradient>
    <linearGradient
       inkscape:collect="always"
       xlink:href="#linearGradient8943"
       id="linearGradient8873"
       gradientUnits="userSpaceOnUse"
       x1="-323.49734"
       y1="421.10516"
       x2="-217.3363"
       y2="467.08929"
       gradientTransform="matrix(0.82266847,0,0,0.82266847,374.32436,-199.45602)" />
    <linearGradient
       inkscape:collect="always"
       xlink:href="#linearGradient5235"
       id="linearGradient8871"
       gradientUnits="userSpaceOnUse"
       x1="-308.95853"
       y1="143.55212"
       x2="-265.13138"
       y2="159.08893"
       gradientTransform="matrix(0.82266847,0,0,0.82266847,374.32436,-199.45602)" />
    <linearGradient
       inkscape:collect="always"
       id="linearGradient5235">
      <stop
         style="stop-color:#000000;stop-opacity:1;"
         offset="0"
         id="stop5231" />
      <stop
         style="stop-color:#000000;stop-opacity:0;"
         offset="1"
         id="stop5233" />
    </linearGradient>
    <linearGradient
       inkscape:collect="always"
       xlink:href="#linearGradient8915"
       id="linearGradient8917"
       x1="-349.92001"
       y1="358.67844"
       x2="-245.30655"
       y2="416.0625"
       gradientUnits="userSpaceOnUse"
       gradientTransform="matrix(0.82266847,0,0,0.82266847,374.32436,-199.45602)" />
    <linearGradient
       inkscape:collect="always"
       id="linearGradient8915">
      <stop
         style="stop-color:#999999;stop-opacity:1"
         offset="0"
         id="stop8911" />
      <stop
         style="stop-color:#e6e6e6;stop-opacity:1"
         offset="1"
         id="stop8913" />
    </linearGradient>
    <linearGradient
       inkscape:collect="always"
       xlink:href="#linearGradient8901"
       id="linearGradient10664"
       gradientUnits="userSpaceOnUse"
       gradientTransform="matrix(0.82266847,0,0,0.82266847,374.32436,-199.45602)"
       x1="-305.88525"
       y1="345.97269"
       x2="-263.07144"
       y2="314.00894" />
  </defs>
  <sodipodi:namedview
     id="base"
     pagecolor="#ffffff"
     bordercolor="#666666"
     borderopacity="1.0"
     inkscape:pageopacity="0.0"
     inkscape:pageshadow="2"
     inkscape:zoom="0.35"
     inkscape:cx="-58.571429"
     inkscape:cy="560"
     inkscape:document-units="mm"
     inkscape:current-layer="layer1"
     showgrid="false"
     inkscape:window-width="1920"
     inkscape:window-height="1017"
     inkscape:window-x="0"
     inkscape:window-y="0"
     inkscape:window-maximized="1" />
  <metadata
     id="metadata9998">
    <rdf:RDF>
      <cc:Work
         rdf:about="">
        <dc:format>image/svg+xml</dc:format>
        <dc:type
           rdf:resource="http://purl.org/dc/dcmitype/StillImage" />
        <dc:title></dc:title>
      </cc:Work>
    </rdf:RDF>
  </metadata>
  <g
     inkscape:label="Layer 1"
     inkscape:groupmode="layer"
     id="layer1">
    <path
       inkscape:connector-curvature="0"
       id="path8833"
       d="m 109.82158,91.66506 a 18.595935,18.595935 0 0 0 0.25423,0.56798 18.595935,18.595935 0 0 0 0.92465,1.6125 18.595935,18.595935 0 0 0 1.08154,1.51174 18.595935,18.595935 0 0 0 0.37493,0.42725 3.3454917,3.3454917 0 0 0 0.0425,-0.16622 3.3454917,3.3454917 0 0 0 0.0503,-0.33033 3.3454917,3.3454917 0 0 1 0,-4.2e-4 3.3454917,3.3454917 0 0 0 0.0166,-0.33372 3.3454917,3.3454917 0 0 1 0,-4.2e-4 3.3454917,3.3454917 0 0 0 -0.009,-0.23638 3.3454917,3.3454917 0 0 0 -0.0404,-0.33201 3.3454917,3.3454917 0 0 0 -0.0727,-0.32608 3.3454917,3.3454917 0 0 0 0,-4.3e-4 h -5.2e-4 a 3.3454917,3.3454917 0 0 0 -0.10543,-0.31713 3.3454917,3.3454917 0 0 0 -0.13646,-0.30524 3.3454917,3.3454917 0 0 0 -0.16665,-0.28994 3.3454917,3.3454917 0 0 0 -0.19429,-0.27208 3.3454917,3.3454917 0 0 0 -0.22065,-0.25125 3.3454917,3.3454917 0 0 0 -0.24444,-0.22787 3.3454917,3.3454917 0 0 0 -0.26613,-0.20236 3.3454917,3.3454917 0 0 0 -0.28483,-0.17472 3.3454917,3.3454917 0 0 1 0,-4.2e-4 3.3454917,3.3454917 0 0 0 -0.30099,-0.1454 3.3454917,3.3454917 0 0 0 -0.31415,-0.11441 3.3454917,3.3454917 0 0 0 -0.32395,-0.0829 3.3454917,3.3454917 0 0 0 -0.0638,-0.01 z m -2.93208,0.88851 a 3.3454917,3.3454917 0 0 0 -0.22788,0.24487 h 5.2e-4 a 3.3454917,3.3454917 0 0 1 0.22743,-0.24487 z m -0.43066,0.51101 a 3.3454917,3.3454917 0 0 0 -0.1743,0.28525 3.3454917,3.3454917 0 0 1 0.17472,-0.28525 z m -0.35624,3.10129 a 3.3454917,3.3454917 0 0 0 0.13645,0.30524 3.3454917,3.3454917 0 0 0 0.16664,0.28993 3.3454917,3.3454917 0 0 0 0.1943,0.27209 3.3454917,3.3454917 0 0 0 0.22104,0.25125 3.3454917,3.3454917 0 0 1 -0.22062,-0.25125 3.3454917,3.3454917 0 0 1 -0.19427,-0.27209 3.3454917,3.3454917 0 0 1 -0.16665,-0.28993 3.3454917,3.3454917 0 0 1 -0.13689,-0.30524 z"
       style="opacity:1;fill:#4d4d4d;fill-opacity:1;stroke:#fa0000;stroke-width:0.0000463;stroke-linecap:round;stroke-linejoin:miter;stroke-miterlimit:4;stroke-dasharray:none;stroke-dashoffset:0;stroke-opacity:1;paint-order:markers fill stroke" />
    <path
       inkscape:connector-curvature="0"
       id="path8835"
       d="m 112.45937,96.2203 a 18.607818,18.59603 0 0 1 0,-4.2e-4 18.607818,18.59603 0 0 1 -0.3752,-0.42726 18.607818,18.59603 0 0 1 -1.08222,-1.51175 18.607818,18.59603 0 0 1 -0.92523,-1.61251 18.607818,18.59603 0 0 1 -0.2544,-0.56797 3.3476295,3.3455089 0 0 0 -0.26712,-0.0404 3.3476295,3.3455089 0 0 0 -0.33394,-0.0166 3.3476295,3.3455089 0 0 0 -0.23696,0.009 3.3476295,3.3455089 0 0 0 -0.33181,0.0404 3.3476295,3.3455089 0 0 0 -0.3263,0.0731 3.3476295,3.3455089 0 0 0 -0.31734,0.10542 3.3476295,3.3455089 0 0 0 -0.30542,0.13646 3.3476295,3.3455089 0 0 0 -0.29012,0.16665 3.3476295,3.3455089 0 0 0 -0.27225,0.19428 3.3476295,3.3455089 0 0 0 -0.25141,0.22065 3.3476295,3.3455089 0 0 0 -0.22759,0.24487 3.3476295,3.3455089 0 0 0 -0.20249,0.26613 3.3476295,3.3455089 0 0 0 -0.17443,0.28526 3.3476295,3.3455089 0 0 0 -0.14591,0.30099 3.3476295,3.3455089 0 0 0 -0.1144,0.31417 3.3476295,3.3455089 0 0 0 -0.083,0.32395 3.3476295,3.3455089 0 0 1 0,4.2e-4 3.3476295,3.3455089 0 0 0 -0.0503,0.33032 3.3476295,3.3455089 0 0 0 -0.0161,0.33373 3.3476295,3.3455089 0 0 0 0.009,0.2368 3.3476295,3.3455089 0 0 0 0.0404,0.33202 3.3476295,3.3455089 0 0 1 0,4.5e-4 3.3476295,3.3455089 0 0 0 0.0731,0.32608 3.3476295,3.3455089 0 0 0 0.10505,0.31713 3.3476295,3.3455089 0 0 0 0.13698,0.30525 3.3476295,3.3455089 0 0 0 0.16677,0.28993 3.3476295,3.3455089 0 0 0 0.1944,0.27209 3.3476295,3.3455089 0 0 0 0.22077,0.25125 3.3476295,3.3455089 0 0 0 0.2446,0.22787 3.3476295,3.3455089 0 0 0 0.26588,0.20236 3.3476295,3.3455089 0 0 1 0,5.3e-4 3.3476295,3.3455089 0 0 0 0.11022,0.0676 3.3476295,3.3455089 0 0 0 0.17482,0.10714 3.3476295,3.3455089 0 0 0 0.30117,0.1454 3.3476295,3.3455089 0 0 0 0.31395,0.1144 3.3476295,3.3455089 0 0 0 0.32416,0.0829 3.3476295,3.3455089 0 0 0 0.33055,0.0502 3.3476295,3.3455089 0 0 0 0.33392,0.0166 3.3476295,3.3455089 0 0 0 0.2361,-0.009 3.3476295,3.3455089 0 0 0 0.3318,-0.0404 3.3476295,3.3455089 0 0 0 0.32629,-0.0731 3.3476295,3.3455089 0 0 0 0.31736,-0.10542 3.3476295,3.3455089 0 0 0 0.30502,-0.13647 3.3476295,3.3455089 0 0 0 0.28971,-0.16665 3.3476295,3.3455089 0 0 0 0.27224,-0.19428 3.3476295,3.3455089 0 0 0 0.25141,-0.22063 3.3476295,3.3455089 0 0 0 0.22801,-0.24489 3.3476295,3.3455089 0 0 0 0.20251,-0.26612 3.3476295,3.3455089 0 0 0 0.17525,-0.28484 3.3476295,3.3455089 0 0 1 0,-5.3e-4 3.3476295,3.3455089 0 0 0 0.14592,-0.30098 3.3476295,3.3455089 0 0 0 0.1144,-0.31417 3.3476295,3.3455089 0 0 0 0.0404,-0.1573 z"
       style="opacity:1;fill:#000000;fill-opacity:1;stroke:#fa0000;stroke-width:0.0000463;stroke-linecap:round;stroke-linejoin:miter;stroke-miterlimit:4;stroke-dasharray:none;stroke-dashoffset:0;stroke-opacity:1;paint-order:markers fill stroke" />
    <path
       id="path8837"
       d="m 112.95257,82.41264 a 65.215871,65.215871 0 0 0 -1.9084,0.0676 65.215871,65.215871 0 0 0 -2.70381,0.0957 65.215871,65.215871 0 0 0 -0.20448,0.0246 18.595933,18.595933 0 0 0 0,4.3e-4 65.215871,65.215871 0 0 0 -1.97427,0.23978 h -0.006 a 29.82487,29.82487 0 0 0 -2.76714,0.91955 29.82487,29.82487 0 0 0 -2.72082,1.21799 29.82487,29.82487 0 0 0 -2.586011,1.48325 29.82487,29.82487 0 0 0 -2.424909,1.73409 29.82487,29.82487 0 0 0 -2.239581,1.96748 29.82487,29.82487 0 0 0 -2.032101,2.18132 29.82487,29.82487 0 0 0 -1.80381,2.37347 29.82487,29.82487 0 0 0 -1.140619,1.8595 29.82487,29.82487 0 0 0 -0.417909,0.68191 29.82487,29.82487 0 0 0 0,5.3e-4 29.82487,29.82487 0 0 0 -1.296191,2.68424 29.82487,29.82487 0 0 0 -1.02244,2.80031 29.82487,29.82487 0 0 0 -0.177271,0.6921 34.890477,34.890477 0 0 0 0,0.004 29.82487,29.82487 0 0 1 0.0021,-0.004 34.890477,34.890477 0 0 0 -0.0021,0.0374 34.890477,34.890477 0 0 0 0.0876,2.46785 34.890477,34.890477 0 0 0 0.419589,3.46221 34.890477,34.890477 0 0 1 0,5.3e-4 34.890477,34.890477 0 0 0 0.763961,3.4027 34.890477,34.890477 0 0 0 1.080251,3.25137 65.215871,65.215871 0 0 0 -0.0021,8e-4 34.890477,34.890477 0 0 0 0,5.3e-4 34.890477,34.890477 0 0 0 0.01921,0.0569 34.890477,34.890477 0 0 0 1.424601,3.18333 34.890477,34.890477 0 0 0 0.21595,0.37667 34.890477,34.890477 0 0 0 0.36775,0.64066 18.595935,18.595935 0 0 1 0.868108,0.4196 18.595935,18.595935 0 0 1 1.584452,0.97141 18.595935,18.595935 0 0 1 1.47941,1.12489 18.595935,18.595935 0 0 1 0.724001,0.67381 18.595935,18.595935 0 0 0 0.156019,-0.20491 18.595935,18.595935 0 0 0 0.971839,-1.58443 18.595935,18.595935 0 0 0 0.37284,-0.77118 v 0 a 18.595935,18.595935 0 0 1 0,-5.3e-4 18.595934,18.595934 0 0 0 0.210431,-0.43576 18.595934,18.595934 0 0 0 0.225308,-0.46636 18.595934,18.595934 0 0 1 0,-5.3e-4 18.595934,18.595934 0 0 0 0.636842,-1.74556 18.595934,18.595934 0 0 0 0.459981,-1.80084 18.595934,18.595934 0 0 1 0,-5.3e-4 18.595934,18.595934 0 0 0 0.277619,-1.83783 18.595934,18.595934 0 0 1 0,-5.3e-4 18.595934,18.595934 0 0 0 0.0931,-1.8561 18.595934,18.595934 0 0 0 -0.0467,-1.31535 18.595934,18.595934 0 0 0 -0.211291,-1.7396 65.215871,65.215871 0 0 1 0.0021,-0.001 65.215871,65.215871 0 0 0 0,-5.3e-4 h -0.0021 a 18.595933,18.595933 0 0 0 0,-5.3e-4 65.215871,65.215871 0 0 1 0.587089,-0.3367 65.215871,65.215871 0 0 1 0,-5.3e-4 65.215871,65.215871 0 0 1 5.949632,-2.66214 65.215871,65.215871 0 0 1 0,-5.3e-4 65.215871,65.215871 0 0 1 6.18603,-2.05549 65.215871,65.215871 0 0 1 0,-5.3e-4 65.215871,65.215871 0 0 1 6.3603,-1.42758 65.215871,65.215871 0 0 1 6.3637,-0.77287 65.215871,65.215871 0 0 1 0.10591,-0.0128 65.215871,65.215871 0 0 1 4.00381,-0.14157 h 0.004 a 65.215871,65.215871 0 0 1 0.60922,-0.0217 65.215871,65.215871 0 0 1 2.47295,0.12372 18.595934,18.595934 0 0 1 -0.54033,0.12155 18.595934,18.595934 0 0 1 -1.84506,0.22404 18.595934,18.595934 0 0 1 -0.48719,0.0175 18.595934,18.595934 0 0 0 0.18875,0.42215 18.595934,18.595934 0 0 1 0,5.3e-4 18.595934,18.595934 0 0 0 0.92466,1.61207 18.595934,18.595934 0 0 1 0,5.3e-4 18.595934,18.595934 0 0 0 1.08107,1.51174 18.595934,18.595934 0 0 0 1.22693,1.39612 18.595934,18.595934 0 0 1 0,5.3e-4 18.595934,18.595934 0 0 0 1.35957,1.26688 18.595934,18.595934 0 0 0 1.47985,1.12488 18.595934,18.595934 0 0 0 1.58486,0.97142 18.595934,18.595934 0 0 0 1.67372,0.80857 18.595934,18.595934 0 0 0 1.74599,0.6377 18.595934,18.595934 0 0 0 1.80127,0.45956 18.595934,18.595934 0 0 1 -0.002,0 18.595934,18.595934 0 0 1 -1.80082,-0.45913 18.595934,18.595934 0 0 1 0,-5.3e-4 18.595934,18.595934 0 0 1 -1.74599,-0.63769 18.595934,18.595934 0 0 1 -1.67374,-0.80859 18.595934,18.595934 0 0 1 -1.58485,-0.97098 18.595934,18.595934 0 0 1 0,-5.3e-4 18.595934,18.595934 0 0 1 -1.47986,-1.12445 18.595934,18.595934 0 0 1 0,-5.3e-4 18.595934,18.595934 0 0 1 -1.35955,-1.26689 18.595934,18.595934 0 0 1 0,-5.3e-4 18.595934,18.595934 0 0 1 -1.22694,-1.39612 18.595934,18.595934 0 0 1 -1.08108,-1.51174 18.595934,18.595934 0 0 1 0,-5.3e-4 18.595934,18.595934 0 0 1 -0.92465,-1.61209 18.595934,18.595934 0 0 1 0,-5.3e-4 18.595934,18.595934 0 0 1 -0.18875,-0.42214 18.595934,18.595934 0 0 1 -0.82815,0.0293 18.595934,18.595934 0 0 1 -1.85652,-0.0931 18.595934,18.595934 0 0 1 -1.63377,-0.24698 65.215871,65.215871 0 0 0 -6.36414,0.77287 65.215871,65.215871 0 0 0 -4.93315,1.10745 65.215871,65.215871 0 0 0 -1.42757,0.32012 65.215871,65.215871 0 0 1 0,5.3e-4 65.215871,65.215871 0 0 0 -6.18599,2.05547 65.215871,65.215871 0 0 1 0,5.3e-4 65.215871,65.215871 0 0 0 -5.94964,2.66213 65.215871,65.215871 0 0 1 0,5.3e-4 65.215871,65.215871 0 0 0 -0.58797,0.33713 18.595934,18.595934 0 0 1 0.211291,1.74088 18.595934,18.595934 0 0 1 0.0467,1.31534 18.595934,18.595934 0 0 1 -0.0931,1.85653 18.595934,18.595934 0 0 1 0,5.3e-4 18.595934,18.595934 0 0 1 -0.277172,1.83782 18.595934,18.595934 0 0 1 -0.459989,1.80083 18.595934,18.595934 0 0 0 0,5.3e-4 18.595934,18.595934 0 0 1 -0.636831,1.74557 18.595934,18.595934 0 0 1 0,5.2e-4 18.595934,18.595934 0 0 1 -0.225319,0.46635 18.595934,18.595934 0 0 1 -0.210439,0.43576 21.774969,21.774969 0 0 1 1.115528,0.40728 21.774969,21.774969 0 0 1 1.959841,0.94674 21.774969,21.774969 0 0 1 1.85567,1.13765 21.774969,21.774969 0 0 1 0,5.3e-4 21.774969,21.774969 0 0 1 1.73238,1.31704 21.774969,21.774969 0 0 1 0.62961,0.58667 89.087883,89.087883 0 0 1 0.90041,-0.51653 89.087883,89.087883 0 0 1 8.12841,-3.63737 89.087883,89.087883 0 0 1 8.45065,-2.80795 89.087883,89.087883 0 0 1 8.68872,-1.95048 89.087883,89.087883 0 0 1 8.84008,-1.07303 89.087883,89.087883 0 0 1 5.40928,-0.19173 29.82487,29.82487 0 0 0 0.0952,-0.62875 29.82487,29.82487 0 0 0 0.0586,-1.16825 29.82487,29.82487 0 0 0 0.0905,-1.80933 29.82487,29.82487 0 0 0 -0.0749,-2.1099 29.82487,29.82487 0 0 0 -0.35923,-2.9593 29.82487,29.82487 0 0 0 -0.51736,-2.30503 29.82487,29.82487 0 0 0 -0.13563,-0.60411 29.82487,29.82487 0 0 0 -0.93994,-2.82921 29.82487,29.82487 0 0 0 -1.21799,-2.7208 29.82487,29.82487 0 0 0 -0.60878,-1.06112 18.595935,18.595935 0 0 1 -0.56286,0.60411 18.595935,18.595935 0 0 1 -1.39612,1.22691 18.595935,18.595935 0 0 1 -1.51174,1.08109 18.595935,18.595935 0 0 1 -1.61209,0.92508 18.595935,18.595935 0 0 1 -1.69667,0.75927 18.595933,18.595933 0 0 0 1.69667,-0.75927 18.595933,18.595933 0 0 0 1.61209,-0.92508 18.595933,18.595933 0 0 0 1.51174,-1.08109 18.595933,18.595933 0 0 0 1.3961,-1.22691 18.595933,18.595933 0 0 0 0.56288,-0.60411 29.82487,29.82487 0 0 0 -0.87449,-1.52492 29.82487,29.82487 0 0 0 -0.41365,-0.5786 18.595933,18.595933 0 0 1 -1.15674,0.66362 18.595933,18.595933 0 0 1 -1.6967,0.75928 18.595933,18.595933 0 0 0 0,4.2e-4 18.595933,18.595933 0 0 1 -1.32426,0.43959 18.595933,18.595933 0 0 1 -0.43958,0.14624 18.595933,18.595933 0 0 1 -1.81358,0.40684 18.595933,18.595933 0 0 1 -1.84506,0.22404 18.595933,18.595933 0 0 1 -1.31576,0.0467 18.595933,18.595933 0 0 1 -1.85608,-0.0931 18.595933,18.595933 0 0 1 -1.60614,-0.24274 18.595933,18.595933 0 0 1 -0.13518,-1.11383 18.595933,18.595933 0 0 1 -0.0463,-1.31534 18.595933,18.595933 0 0 1 0.0927,-1.85653 18.595933,18.595933 0 0 1 0.27801,-1.83781 18.595933,18.595933 0 0 1 0.45956,-1.80084 18.595933,18.595933 0 0 1 0,-4.5e-4 18.595933,18.595933 0 0 1 0.63768,-1.74599 18.595933,18.595933 0 0 1 0.80819,-1.67372 18.595933,18.595933 0 0 1 0.36221,-0.5905 29.82487,29.82487 0 0 0 -2.47085,-1.19375 29.82487,29.82487 0 0 0 -1.82335,-0.66532 65.215871,65.215871 0 0 0 -4.52379,-0.68403 65.215871,65.215871 0 0 0 -6.51036,-0.32564 z m -9.59467,42.92918 a 89.087883,89.087883 0 0 0 -0.002,8e-4 h 0.002 a 21.774969,21.774969 0 0 0 0,-8e-4 z m -0.002,8e-4 a 21.774969,21.774969 0 0 0 -0.63047,-0.58709 21.774969,21.774969 0 0 1 0,-5.3e-4 21.774969,21.774969 0 0 0 -1.73239,-1.31702 21.774969,21.774969 0 0 1 0,-5.3e-4 21.774969,21.774969 0 0 0 -1.855683,-1.1372 21.774969,21.774969 0 0 0 -1.959819,-0.94677 21.774969,21.774969 0 0 0 -1.115531,-0.40727 18.595935,18.595935 0 0 1 -0.37284,0.77118 18.595935,18.595935 0 0 1 -0.971389,1.58445 18.595935,18.595935 0 0 1 -0.156019,0.20534 18.595935,18.595935 0 0 1 0,5.3e-4 18.595935,18.595935 0 0 1 -0.969301,1.2741 18.595935,18.595935 0 0 1 -0.043,0.0463 18.595935,18.595935 0 0 1 0,5.2e-4 18.595935,18.595935 0 0 1 0.22488,0.31416 18.595935,18.595935 0 0 1 0.92465,1.6125 18.595935,18.595935 0 0 1 0.222779,0.49783 34.890477,34.890477 0 0 0 0.46464,0.52885 34.890477,34.890477 0 0 0 1.416521,1.32002 89.087896,89.087896 0 0 1 1.431401,-0.82092 89.087896,89.087896 0 0 1 5.121491,-2.93847 z m -6.552901,3.75939 a 89.087896,89.087896 0 0 1 0,5.3e-4 v 0 a 34.890477,34.890477 0 0 0 0,-5.3e-4 z m 9.350741,-46.26128 a 65.215871,65.215871 0 0 0 -4.28824,0.52077 65.215871,65.215871 0 0 0 -6.360311,1.42757 65.215871,65.215871 0 0 0 -5.665211,1.88246 34.890477,34.890477 0 0 0 0,4.2e-4 h 0.0021 a 34.890477,34.890477 0 0 0 -0.0459,0.0744 34.890477,34.890477 0 0 0 -1.516851,3.14041 34.890477,34.890477 0 0 0 -1.19589,3.27602 34.890477,34.890477 0 0 0 -0.627039,2.45467 18.595933,18.595933 0 0 1 0.0021,4.5e-4 34.890477,34.890477 0 0 0 -0.23636,0.92422 34.890477,34.890477 0 0 0 -0.520782,3.4482 34.890477,34.890477 0 0 0 -0.173869,3.44607 29.82487,29.82487 0 0 1 0.17684,-0.6921 29.82487,29.82487 0 0 1 1.02244,-2.80031 29.82487,29.82487 0 0 1 1.29662,-2.68424 29.82487,29.82487 0 0 0 0,-5.3e-4 29.82487,29.82487 0 0 1 0.417901,-0.6819 18.595934,18.595934 0 0 0 0,-4.5e-4 29.82487,29.82487 0 0 1 1.140198,-1.85907 29.82487,29.82487 0 0 1 1.80421,-2.37347 29.82487,29.82487 0 0 1 2.032121,-2.18133 29.82487,29.82487 0 0 1 2.23954,-1.96747 29.82487,29.82487 0 0 1 2.424951,-1.7341 29.82487,29.82487 0 0 1 2.586032,-1.48326 29.82487,29.82487 0 0 1 2.7208,-1.21799 29.82487,29.82487 0 0 1 2.76713,-0.91955 z M 85.526585,103.4363 a 34.890477,34.890477 0 0 1 0.173019,-3.44607 34.890477,34.890477 0 0 1 0.52079,-3.44819 34.890477,34.890477 0 0 0 -0.5212,3.44819 34.890477,34.890477 0 0 0 -0.172609,3.44607 z m 4.314169,-16.76441 a 65.215871,65.215871 0 0 0 -0.52034,0.17303 65.215871,65.215871 0 0 0 -5.95008,2.66256 65.215871,65.215871 0 0 0 0,4.5e-4 65.215871,65.215871 0 0 0 -5.65459,3.2437 65.215871,65.215871 0 0 0 -2.82495,2.02063 18.595933,18.595933 0 0 0 -0.004,8.2e-4 65.215871,65.215871 0 0 0 -2.47509,1.7698 65.215871,65.215871 0 0 0 -4.89744,4.30227 65.215871,65.215871 0 0 0 -4.443421,4.76992 65.215871,65.215871 0 0 0 -1.56023,2.05207 18.595933,18.595933 0 0 0 -0.33753,1.32257 h 0.002 a 10.036636,10.036636 0 0 1 0.815841,-0.46807 10.036636,10.036636 0 0 1 0.915709,-0.40982 10.036636,10.036636 0 0 0 -0.915709,0.40982 10.036636,10.036636 0 0 0 -0.815841,0.46807 18.595933,18.595933 0 0 0 -0.0302,0.11773 18.595933,18.595933 0 0 0 -0.2776,1.83825 18.595933,18.595933 0 0 0 -0.0931,1.8561 18.595933,18.595933 0 0 0 0.0468,1.31576 18.595933,18.595933 0 0 0 0.22404,1.84505 18.595933,18.595933 0 0 0 0.40682,1.81358 18.595933,18.595933 0 0 0 0.58627,1.76427 18.595933,18.595933 0 0 0 0.75928,1.69667 18.595933,18.595933 0 0 0 0.925071,1.61208 18.595933,18.595933 0 0 0 0.22446,0.31417 18.595933,18.595933 0 0 1 1.22266,-1.31279 18.595933,18.595933 0 0 1 1.39613,-1.22692 18.595933,18.595933 0 0 1 1.51174,-1.08108 18.595933,18.595933 0 0 1 1.61207,-0.92508 18.595933,18.595933 0 0 1 1.69625,-0.75927 18.595933,18.595933 0 0 1 1.76385,-0.58625 18.595933,18.595933 0 0 1 1.81316,-0.40684 18.595933,18.595933 0 0 1 1.57763,-0.19174 18.595933,18.595933 0 0 1 0.002,0 18.595933,18.595933 0 0 1 0.26528,-0.0323 18.595933,18.595933 0 0 1 0.004,0 18.595934,18.595934 0 0 0 -0.26656,0.0323 10.036638,10.036638 0 0 1 0.01,0.0829 10.036638,10.036638 0 0 1 0.0255,0.70996 10.036638,10.036638 0 0 1 -0.0503,1.00201 10.036638,10.036638 0 0 1 -0.12542,0.82858 v 0 a 18.595934,18.595934 0 0 0 -1.28515,0.42683 18.595934,18.595934 0 0 0 -1.69626,0.7597 18.595934,18.595934 0 0 0 -1.6125,0.92464 18.595934,18.595934 0 0 0 -1.51175,1.08109 18.595934,18.595934 0 0 0 -1.39612,1.22692 18.595934,18.595934 0 0 0 -1.26686,1.35997 18.595934,18.595934 0 0 0 -0.96844,1.27411 18.595934,18.595934 0 0 0 0.724,0.67467 18.595934,18.595934 0 0 0 0.49484,0.37624 18.595934,18.595934 0 0 0 0.98501,0.74864 18.595934,18.595934 0 0 0 1.58445,0.97184 18.595934,18.595934 0 0 0 0.20661,0.0999 21.774969,21.774969 0 0 1 0.0655,-0.10714 21.774969,21.774969 0 0 1 1.31746,-1.73239 21.774969,21.774969 0 0 1 0,-5.2e-4 21.774969,21.774969 0 0 1 1.48369,-1.59252 21.774969,21.774969 0 0 1 1.63502,-1.43651 21.774969,21.774969 0 0 1 1.77067,-1.26602 21.774969,21.774969 0 0 1 1.88797,-1.08321 21.774969,21.774969 0 0 1 1.986622,-0.88895 21.774969,21.774969 0 0 1 1.953868,-0.64959 65.215871,65.215871 0 0 1 0,-8e-4 21.774969,21.774969 0 0 1 0.109241,-0.0361 21.774969,21.774969 0 0 1 2.12393,-0.47656 21.774969,21.774969 0 0 1 0.575598,-0.0697 29.82487,29.82487 0 0 1 -0.114768,-0.34521 29.82487,29.82487 0 0 1 -0.16709,-0.74483 18.595934,18.595934 0 0 0 -0.531391,-0.0799 65.215871,65.215871 0 0 1 0,-5.3e-4 h -0.0021 a 65.215871,65.215871 0 0 1 0.429818,-0.37792 29.82487,29.82487 0 0 1 -0.0825,-0.36644 18.595934,18.595934 0 0 1 0.261451,0.0957 18.595934,18.595934 0 0 1 0.0834,0.0404 65.215871,65.215871 0 0 0 0,-5.3e-4 v 0 a 18.595934,18.595934 0 0 0 -0.0829,-0.04 18.595934,18.595934 0 0 0 -0.261879,-0.0957 29.82487,29.82487 0 0 1 -0.300572,-1.33915 29.82487,29.82487 0 0 1 -0.35923,-2.95972 29.82487,29.82487 0 0 1 -0.0747,-2.10948 29.82487,29.82487 0 0 1 0.149212,-2.97758 29.82487,29.82487 0 0 1 0.445098,-2.94781 29.82487,29.82487 0 0 1 0.559461,-2.19238 34.890477,34.890477 0 0 1 0,-0.004 29.82487,29.82487 0 0 0 -0.560731,2.19664 29.82487,29.82487 0 0 0 -0.44513,2.94782 29.82487,29.82487 0 0 1 0,5.3e-4 29.82487,29.82487 0 0 0 -0.149198,2.97715 29.82487,29.82487 0 0 0 0.0747,2.10947 29.82487,29.82487 0 0 1 0,5.3e-4 29.82487,29.82487 0 0 0 0.35923,2.9593 29.82487,29.82487 0 0 0 0.30057,1.33915 18.595934,18.595934 0 0 0 -0.004,-10e-4 29.82487,29.82487 0 0 1 -0.300131,-1.33745 29.82487,29.82487 0 0 1 -0.35924,-2.95929 29.82487,29.82487 0 0 1 0,-5.3e-4 29.82487,29.82487 0 0 1 -0.0748,-2.10947 29.82487,29.82487 0 0 1 0.14922,-2.97715 29.82487,29.82487 0 0 1 0,-5.3e-4 29.82487,29.82487 0 0 1 0.44509,-2.94782 29.82487,29.82487 0 0 1 0.56075,-2.19663 34.890477,34.890477 0 0 1 0.172609,-3.44607 34.890477,34.890477 0 0 1 0.521189,-3.4482 34.890477,34.890477 0 0 1 0.235971,-0.92464 18.595933,18.595933 0 0 0 -1.590841,-0.58072 18.595933,18.595933 0 0 0 -1.800818,-0.45999 18.595933,18.595933 0 0 0 -1.83783,-0.2776 18.595933,18.595933 0 0 1 0.004,0 18.595933,18.595933 0 0 1 1.837801,0.2776 18.595933,18.595933 0 0 1 1.80085,0.45999 18.595933,18.595933 0 0 1 1.59082,0.58072 34.890477,34.890477 0 0 1 0.627049,-2.45468 34.890477,34.890477 0 0 1 1.19588,-3.27601 34.890477,34.890477 0 0 1 1.51684,-3.14041 34.890477,34.890477 0 0 1 0.0454,-0.0744 z m -25.89313,36.49151 a 18.595933,18.595933 0 0 1 0,5.3e-4 v 0 a 18.595933,18.595933 0 0 0 0,-5.3e-4 z M 109.22649,92.04336 a 3.3454919,3.3454919 0 0 1 0.33371,0.0166 3.3454919,3.3454919 0 0 1 0.26273,0.04 18.595933,18.595933 0 0 0 0,4.3e-4 3.3454919,3.3454919 0 0 1 0.0638,0.01 3.3454919,3.3454919 0 0 1 0.32392,0.0829 3.3454919,3.3454919 0 0 1 0.31418,0.11441 3.3454919,3.3454919 0 0 1 0.30099,0.14539 3.3454919,3.3454919 0 0 1 0,4.2e-4 3.3454919,3.3454919 0 0 1 0.28483,0.17473 3.3454919,3.3454919 0 0 1 0.26614,0.20236 3.3454919,3.3454919 0 0 1 0.24443,0.22786 3.3454919,3.3454919 0 0 1 0.22065,0.25125 3.3454919,3.3454919 0 0 1 0.19429,0.27209 3.3454919,3.3454919 0 0 1 0.16665,0.28993 3.3454919,3.3454919 0 0 1 0.13645,0.30524 3.3454919,3.3454919 0 0 1 0.10542,0.31715 3.3454919,3.3454919 0 0 0 0,4.2e-4 3.3454919,3.3454919 0 0 1 0.0728,0.32608 3.3454919,3.3454919 0 0 1 0.04,0.33202 3.3454919,3.3454919 0 0 1 0.009,0.23636 3.3454919,3.3454919 0 0 1 0,4.5e-4 3.3454919,3.3454919 0 0 1 -0.0161,0.33373 3.3454919,3.3454919 0 0 1 0,4.3e-4 3.3454919,3.3454919 0 0 1 -0.0503,0.33033 3.3454919,3.3454919 0 0 1 -0.0425,0.16622 18.595933,18.595933 0 0 1 0,4.2e-4 18.595933,18.595933 0 0 0 0,8.2e-4 3.3454919,3.3454919 0 0 1 -0.04,0.15645 3.3454919,3.3454919 0 0 1 -0.11477,0.31416 3.3454919,3.3454919 0 0 1 -0.14538,0.301 3.3454919,3.3454919 0 0 1 0,5.3e-4 3.3454919,3.3454919 0 0 1 -0.17475,0.28483 3.3454919,3.3454919 0 0 1 -0.20236,0.26614 3.3454919,3.3454919 0 0 1 -0.22785,0.24486 3.3454919,3.3454919 0 0 1 -0.25124,0.22065 3.3454919,3.3454919 0 0 1 -0.27209,0.19428 3.3454919,3.3454919 0 0 1 -0.28952,0.16666 3.3454919,3.3454919 0 0 1 -0.30481,0.13646 3.3454919,3.3454919 0 0 1 -0.31714,0.10542 3.3454919,3.3454919 0 0 1 -0.32609,0.0731 3.3454919,3.3454919 0 0 1 -0.33159,0.0404 3.3454919,3.3454919 0 0 1 -0.23594,0.009 3.3454919,3.3454919 0 0 1 -0.33373,-0.0166 3.3454919,3.3454919 0 0 1 -0.33032,-0.0503 3.3454919,3.3454919 0 0 1 -0.32395,-0.0829 3.3454919,3.3454919 0 0 1 -0.31374,-0.11441 3.3454919,3.3454919 0 0 1 -0.30099,-0.14539 3.3454919,3.3454919 0 0 1 -0.17472,-0.10714 3.3454919,3.3454919 0 0 1 -0.1101,-0.0676 3.3454919,3.3454919 0 0 1 0,-5.3e-4 3.3454919,3.3454919 0 0 1 -0.26571,-0.20236 3.3454919,3.3454919 0 0 1 -0.24444,-0.22786 3.3454919,3.3454919 0 0 1 -0.22108,-0.25126 3.3454919,3.3454919 0 0 1 -0.19427,-0.27207 3.3454919,3.3454919 0 0 1 -0.16666,-0.28994 3.3454919,3.3454919 0 0 1 -0.13645,-0.30524 3.3454919,3.3454919 0 0 1 -0.10504,-0.31714 3.3454919,3.3454919 0 0 1 -0.0731,-0.32651 3.3454919,3.3454919 0 0 1 -0.0404,-0.33202 3.3454919,3.3454919 0 0 1 -0.009,-0.2368 3.3454919,3.3454919 0 0 1 0.0161,-0.33372 3.3454919,3.3454919 0 0 1 0.0502,-0.33031 3.3454919,3.3454919 0 0 1 0,-4.5e-4 3.3454919,3.3454919 0 0 1 0.0829,-0.32394 3.3454919,3.3454919 0 0 1 0.11441,-0.31416 3.3454919,3.3454919 0 0 1 0.14581,-0.30099 3.3454919,3.3454919 0 0 1 0.17473,-0.28526 3.3454919,3.3454919 0 0 1 0.20234,-0.26613 3.3454919,3.3454919 0 0 1 0.22789,-0.24487 3.3454919,3.3454919 0 0 1 0.25125,-0.22064 3.3454919,3.3454919 0 0 1 0.27206,-0.19429 3.3454919,3.3454919 0 0 1 0.28995,-0.16665 3.3454919,3.3454919 0 0 1 0.30524,-0.13646 3.3454919,3.3454919 0 0 1 0.31714,-0.10542 3.3454919,3.3454919 0 0 1 0.32608,-0.0731 3.3454919,3.3454919 0 0 1 0.33159,-0.0404 3.3454919,3.3454919 0 0 1 0.2368,-0.009 z m 11.92518,9.95516 a 18.595933,18.595933 0 0 0 0.99862,0.25508 18.595933,18.595933 0 0 1 -0.99862,-0.25466 18.595933,18.595933 0 0 1 0,-5.3e-4 z m -35.624691,1.44203 a 29.82487,29.82487 0 0 0 -0.559451,2.19236 29.82487,29.82487 0 0 0 -0.445111,2.94783 29.82487,29.82487 0 0 0 -0.149198,2.97758 29.82487,29.82487 0 0 0 0.0747,2.10948 29.82487,29.82487 0 0 0 0.35924,2.95973 29.82487,29.82487 0 0 0 0.300559,1.33914 18.595934,18.595934 0 0 1 0.261879,0.0957 18.595934,18.595934 0 0 1 0.0825,0.0395 65.215871,65.215871 0 0 1 1.887119,-1.65799 65.215871,65.215871 0 0 0 -1.88672,1.65885 18.595934,18.595934 0 0 1 1.590411,0.76818 18.595934,18.595934 0 0 1 1.233728,0.75632 18.595934,18.595934 0 0 1 0.0553,0.0204 21.774969,21.774969 0 0 1 0.366872,-0.0132 21.774969,21.774969 0 0 1 0.838358,0.0421 34.890477,34.890477 0 0 1 -0.215968,-0.37668 34.890477,34.890477 0 0 1 -1.424602,-3.18334 34.890477,34.890477 0 0 1 -0.01921,-0.0569 34.890477,34.890477 0 0 1 0,-5.2e-4 34.890477,34.890477 0 0 1 -1.080688,-3.2522 34.890477,34.890477 0 0 1 -0.763932,-3.40313 34.890477,34.890477 0 0 1 -0.419618,-3.46224 34.890477,34.890477 0 0 1 -0.0876,-2.46784 34.890477,34.890477 0 0 1 0.0021,-0.0331 z m -0.0744,14.66216 a 65.215871,65.215871 0 0 1 0,-5.3e-4 18.595934,18.595934 0 0 1 0,5.3e-4 z m -0.160671,0.6887 a 29.82487,29.82487 0 0 0 0.16705,0.74482 29.82487,29.82487 0 0 0 0.114781,0.3452 21.774969,21.774969 0 0 1 1.584849,-0.19258 21.774969,21.774969 0 0 1 1.151242,-0.0408 18.595934,18.595934 0 0 0 -0.034,-0.0208 v 0 a 18.595934,18.595934 0 0 0 -0.922081,-0.3367 18.595934,18.595934 0 0 0 -1.80086,-0.45913 18.595934,18.595934 0 0 0 0,-5.3e-4 18.595934,18.595934 0 0 0 -0.260588,-0.0395 z m -11.40103,5.49475 a 10.036638,10.036638 0 0 1 -0.35371,0.38006 10.036638,10.036638 0 0 0 0.35414,-0.38006 z m -3.70965,2.5346 a 10.036638,10.036638 0 0 0 0,5.3e-4 10.036638,10.036638 0 0 1 -0.71464,0.23721 10.036638,10.036638 0 0 0 0.71422,-0.23764 z"
       style="opacity:1;fill:url(#linearGradient8917);fill-opacity:1;stroke:#fa0000;stroke-width:0.0000463;stroke-linecap:round;stroke-linejoin:miter;stroke-miterlimit:4;stroke-dasharray:none;stroke-dashoffset:0;stroke-opacity:1;paint-order:markers fill stroke"
       inkscape:connector-curvature="0" />
    <path
       id="path8839"
       d="m 149.64385,120.92137 a 65.215871,65.215871 0 0 0 -4.23936,0.15007 65.215871,65.215871 0 0 0 -1.0033,0.12155 v 0 a 65.215871,65.215871 0 0 0 -4.92678,0.59815 89.087891,89.087891 0 0 0 -2.96144,4.83027 89.087891,89.087891 0 0 0 -2.3165,4.79543 89.087883,89.087883 0 0 0 -1.55679,3.2233 89.087883,89.087883 0 0 0 -3.05367,8.3652 89.087883,89.087883 0 0 0 0,5.3e-4 89.087883,89.087883 0 0 0 -2.20301,8.62792 89.087883,89.087883 0 0 0 -0.23639,1.56446 89.087883,89.087883 0 0 0 -1.0947,7.24033 89.087883,89.087883 0 0 0 -0.44468,8.89406 89.087883,89.087883 0 0 0 0.22319,6.30206 89.087883,89.087883 0 0 0 1.07302,8.84007 89.087883,89.087883 0 0 0 1.95005,8.68871 89.087883,89.087883 0 0 0 0.3265,0.98205 3.3454919,3.3454919 0 0 1 0.0562,0.004 3.3454919,3.3454919 0 0 1 0.13006,0.0199 76.227032,76.227032 0 0 0 3.17911,-1.4229 76.227032,76.227032 0 0 0 6.60942,-3.79127 76.227032,76.227032 0 0 0 3.43716,-2.45807 v 0 a 89.087883,89.087883 0 0 1 -0.0574,-0.17345 89.087883,89.087883 0 0 1 -1.95047,-8.68872 89.087883,89.087883 0 0 1 0,-5.3e-4 89.087883,89.087883 0 0 1 -1.07301,-8.84008 89.087883,89.087883 0 0 1 -0.22319,-6.30163 89.087883,89.087883 0 0 1 0.1492,-2.97757 89.087883,89.087883 0 0 1 0.2959,-5.91649 89.087883,89.087883 0 0 1 1.33105,-8.80479 89.087883,89.087883 0 0 1 0,-5.3e-4 89.087883,89.087883 0 0 1 2.20301,-8.62794 89.087883,89.087883 0 0 1 3.05367,-8.36519 89.087883,89.087883 0 0 1 3.32237,-6.87811 z m -8.91405,4.95398 a 34.890477,34.890477 0 0 1 -1.23031,1.3213 34.890477,34.890477 0 0 0 1.23075,-1.3213 z m 1.86205,60.62125 a 76.227032,76.227032 0 0 1 -3.43671,2.45764 76.227032,76.227032 0 0 1 -6.60942,3.79127 76.227032,76.227032 0 0 1 -3.17911,1.4229 3.3454919,3.3454919 0 0 1 0.19983,0.0302 3.3454919,3.3454919 0 0 1 0.32394,0.0825 3.3454919,3.3454919 0 0 1 0.31417,0.11477 3.3454919,3.3454919 0 0 1 0.30098,0.14541 3.3454919,3.3454919 0 0 1 0.28525,0.17472 3.3454919,3.3454919 0 0 1 0.26615,0.20236 3.3454919,3.3454919 0 0 1 0.16963,0.159 18.595934,18.595934 0 0 1 0.37837,-0.27081 18.595934,18.595934 0 0 1 1.6125,-0.92467 18.595934,18.595934 0 0 1 0,-5.2e-4 18.595934,18.595934 0 0 1 1.69666,-0.75928 18.595934,18.595934 0 0 1 1.76385,-0.58624 18.595934,18.595934 0 0 1 1.81357,-0.40685 18.595934,18.595934 0 0 1 1.84548,-0.22405 18.595934,18.595934 0 0 1 1.31533,-0.0467 18.595934,18.595934 0 0 1 1.06666,0.0536 18.595935,18.595935 0 0 1 0.78986,0.0395 18.595935,18.595935 0 0 1 0.94334,0.14242 89.087896,89.087896 0 0 1 -0.40638,-1.22266 89.087883,89.087883 0 0 1 -1.45395,-4.37454 z"
       style="opacity:1;fill:url(#linearGradient8871);fill-opacity:1;stroke:#fa0000;stroke-width:0.0000463;stroke-linecap:round;stroke-linejoin:miter;stroke-miterlimit:4;stroke-dasharray:none;stroke-dashoffset:0;stroke-opacity:1;paint-order:markers fill stroke"
       inkscape:connector-curvature="0" />
    <path
       id="path8841"
       d="m 143.39197,122.2265 a 65.215871,65.215871 0 0 0 -0.54161,0.0659 65.215871,65.215871 0 0 0 -2.78754,0.62579 65.215871,65.215871 0 0 0 -3.57278,0.80178 65.215871,65.215871 0 0 0 -6.18643,2.0555 65.215871,65.215871 0 0 0 -5.95005,2.66297 65.215871,65.215871 0 0 0 -5.65459,3.24372 65.215871,65.215871 0 0 0 -5.30258,3.79169 65.215871,65.215871 0 0 0 -1.44162,1.26732 65.215871,65.215871 0 0 0 -2.83261,2.48867 21.774969,21.774969 0 0 1 0.0361,1.01946 21.774969,21.774969 0 0 1 0.01,0.2895 21.774969,21.774969 0 0 1 -0.10886,2.17367 21.774969,21.774969 0 0 0 0,5.3e-4 21.774969,21.774969 0 0 1 -0.32523,2.152 21.774969,21.774969 0 0 1 -0.53821,2.10861 21.774969,21.774969 0 0 0 0,5.3e-4 21.774969,21.774969 0 0 1 -0.74651,2.04443 21.774969,21.774969 0 0 1 -0.94678,1.95983 21.774969,21.774969 0 0 1 -1.13761,1.85569 21.774969,21.774969 0 0 1 -1.31704,1.7328 21.774969,21.774969 0 0 1 -1.48369,1.59253 21.774969,21.774969 0 0 0 0,5.3e-4 21.774969,21.774969 0 0 1 -0.87065,0.76439 21.774969,21.774969 0 0 1 -0.76437,0.67169 21.774969,21.774969 0 0 1 -1.770252,1.26602 21.774969,21.774969 0 0 0 0,5.3e-4 21.774969,21.774969 0 0 1 -0.804741,0.46169 21.774969,21.774969 0 0 1 -1.082799,0.6211 21.774969,21.774969 0 0 1 -1.986622,0.88894 21.774969,21.774969 0 0 1 -1.473477,0.48932 65.215871,65.215871 0 0 0 -2.17664,5.96324 65.215871,65.215871 0 0 0 -0.980342,3.83805 34.890477,34.890477 0 0 0 -0.0021,0.004 34.890477,34.890477 0 0 1 0,5.3e-4 65.215871,65.215871 0 0 0 -0.631759,2.47422 65.215871,65.215871 0 0 0 0,5.3e-4 65.215871,65.215871 0 0 0 -0.97395,6.4449 65.215871,65.215871 0 0 0 0,5.3e-4 65.215871,65.215871 0 0 0 -0.326069,6.51038 65.215871,65.215871 0 0 0 0,5.3e-4 65.215871,65.215871 0 0 0 0.163668,4.61303 65.215871,65.215871 0 0 0 0,5.3e-4 65.215871,65.215871 0 0 0 0.269531,2.22001 34.890477,34.890477 0 0 1 0.5178,0.0259 76.22703,76.22703 0 0 0 -0.508029,0.0616 65.215871,65.215871 0 0 0 0.50505,4.16326 65.215871,65.215871 0 0 0 0.639829,2.84876 76.227032,76.227032 0 0 0 1.00711,0.15262 76.227032,76.227032 0 0 0 2.962269,0.44767 76.227032,76.227032 0 0 0 7.609773,0.38091 76.227032,76.227032 0 0 0 5.39229,-0.19131 76.227032,76.227032 0 0 0 2.4755,-0.30056 76.227032,76.227032 0 0 0 5.08663,-0.61729 76.227032,76.227032 0 0 0 7.43459,-1.66904 76.227032,76.227032 0 0 0 5.13129,-1.70475 76.22703,76.22703 0 0 0 -3.18717,-1.16357 76.22703,76.22703 0 0 0 -7.38231,-1.88501 76.22703,76.22703 0 0 1 0.002,0 76.22703,76.22703 0 0 1 7.38232,1.88501 76.22703,76.22703 0 0 1 3.18715,1.16357 76.227032,76.227032 0 0 0 2.09972,-0.69764 76.227032,76.227032 0 0 0 0.52886,-0.23679 3.3454919,3.3454919 0 0 1 0.0199,-0.0328 3.3454919,3.3454919 0 0 1 0.0267,-0.0349 3.3454919,3.3454919 0 0 1 0,-5.3e-4 3.3454919,3.3454919 0 0 1 0.17558,-0.23042 3.3454919,3.3454919 0 0 1 0,-5.3e-4 3.3454919,3.3454919 0 0 1 0.22829,-0.24445 3.3454919,3.3454919 0 0 1 0,-5.3e-4 3.3454919,3.3454919 0 0 1 0.25125,-0.22064 3.3454919,3.3454919 0 0 1 0.27165,-0.19471 3.3454919,3.3454919 0 0 1 0.29036,-0.16623 3.3454919,3.3454919 0 0 1 0.30525,-0.13646 3.3454919,3.3454919 0 0 1 0.31714,-0.10542 3.3454919,3.3454919 0 0 1 0.32649,-0.0735 3.3454919,3.3454919 0 0 1 0.33202,-0.0404 3.3454919,3.3454919 0 0 1 0.23636,-0.009 3.3454919,3.3454919 0 0 1 0.27806,0.0135 89.087873,89.087873 0 0 1 -0.3265,-0.98204 89.087873,89.087873 0 0 1 -1.95005,-8.68872 89.087873,89.087873 0 0 1 -1.07302,-8.84007 89.087873,89.087873 0 0 1 -0.2232,-6.30206 89.087873,89.087873 0 0 1 0.44469,-8.89406 89.087873,89.087873 0 0 1 1.0947,-7.24031 34.890477,34.890477 0 0 0 -2.53631,-0.64747 34.890477,34.890477 0 0 1 0.002,0 34.890477,34.890477 0 0 1 2.53629,0.64747 89.087873,89.087873 0 0 1 0.23637,-1.56446 89.087873,89.087873 0 0 1 2.203,-8.62794 89.087873,89.087873 0 0 0 0,-5.3e-4 89.087873,89.087873 0 0 1 3.05367,-8.3652 89.087873,89.087873 0 0 1 1.5568,-3.22331 h -0.002 a 89.087883,89.087883 0 0 1 2.31651,-4.79542 89.087883,89.087883 0 0 1 2.96142,-4.83028 z m -31.21445,14.57161 a 34.890477,34.890477 0 0 0 3.4482,0.52121 34.890477,34.890477 0 0 1 -3.4482,-0.52077 34.890477,34.890477 0 0 1 0,-5.3e-4 z m 5.78172,3.28027 a 29.82487,29.82487 0 0 0 0,5.3e-4 29.82487,29.82487 0 0 0 0,-5.3e-4 z m -9.76556,0.0255 a 65.215871,65.215871 0 0 0 -4.1386,4.44215 65.215871,65.215871 0 0 0 -3.94516,5.1895 65.215871,65.215871 0 0 0 -3.406941,5.55766 65.215871,65.215871 0 0 0 -2.835582,5.86971 65.215871,65.215871 0 0 0 -0.0586,0.16029 21.774969,21.774969 0 0 0 1.473501,-0.48932 21.774969,21.774969 0 0 0 1.98659,-0.88894 21.774969,21.774969 0 0 0 1.082799,-0.62111 21.774969,21.774969 0 0 0 0.80477,-0.46168 21.774969,21.774969 0 0 0 0,-5.3e-4 21.774969,21.774969 0 0 0 1.770223,-1.26603 21.774969,21.774969 0 0 0 0.76437,-0.67171 21.774969,21.774969 0 0 0 0.87066,-0.76479 21.774969,21.774969 0 0 0 1.48368,-1.59252 21.774969,21.774969 0 0 0 1.31706,-1.73282 21.774969,21.774969 0 0 0 1.13763,-1.85569 21.774969,21.774969 0 0 0 0.94674,-1.95981 21.774969,21.774969 0 0 0 0.74653,-2.04443 21.774969,21.774969 0 0 0 0,-5.3e-4 21.774969,21.774969 0 0 0 0.53821,-2.10862 21.774969,21.774969 0 0 0 0.32522,-2.152 21.774969,21.774969 0 0 0 0,-5.2e-4 21.774969,21.774969 0 0 0 0.10886,-2.17367 21.774969,21.774969 0 0 0 -0.01,-0.28951 29.82487,29.82487 0 0 1 -0.96164,-0.14539 z"
       style="opacity:1;fill:url(#linearGradient8873);fill-opacity:1;stroke:#fa0000;stroke-width:0.0000463;stroke-linecap:round;stroke-linejoin:miter;stroke-miterlimit:4;stroke-dasharray:none;stroke-dashoffset:0;stroke-opacity:1;paint-order:markers fill stroke"
       inkscape:connector-curvature="0" />
    <path
       id="path8843"
       d="m 143.34096,114.72942 a 89.087883,89.087883 0 0 0 -5.40929,0.19173 89.087883,89.087883 0 0 0 -8.84006,1.07302 89.087883,89.087883 0 0 0 -8.68874,1.95048 89.087883,89.087883 0 0 0 -8.45064,2.80793 89.087883,89.087883 0 0 0 0,5.3e-4 89.087865,89.087865 0 0 0 -8.12838,3.63737 89.087883,89.087883 0 0 0 -0.9017,0.51696 21.774969,21.774969 0 0 1 0,5.3e-4 89.087838,89.087838 0 0 0 -5.121062,2.93806 h -0.0021 a 89.087854,89.087854 0 0 0 -1.431822,0.82133 89.087849,89.087849 0 0 0 -0.26825,0.1539 89.087849,89.087849 0 0 0 -0.654281,0.46764 18.595931,18.595931 0 0 1 0.163682,0.49186 18.595931,18.595931 0 0 1 0,5.3e-4 18.595931,18.595931 0 0 1 0.406839,1.81358 18.595931,18.595931 0 0 1 0.22405,1.84505 18.595931,18.595931 0 0 1 0.0467,1.31534 18.595931,18.595931 0 0 1 -0.02429,0.48338 29.82487,29.82487 0 0 0 0.658088,0.50037 29.82487,29.82487 0 0 0 2.54141,1.55808 29.82487,29.82487 0 0 0 0.510162,0.24615 29.82487,29.82487 0 0 0 2.174514,1.05048 29.82487,29.82487 0 0 0 2.80028,1.02243 29.82487,29.82487 0 0 0 2.88833,0.7376 29.82487,29.82487 0 0 0 1.22903,0.18577 65.215871,65.215871 0 0 1 0.30523,-0.32777 65.215871,65.215871 0 0 1 0.62155,-0.54628 v 0 a 21.774969,21.774969 0 0 0 -0.009,-0.23127 21.774969,21.774969 0 0 1 0.009,0.23084 65.215871,65.215871 0 0 0 0,5.3e-4 65.215871,65.215871 0 0 1 2.83303,-2.48867 v 0 a 65.215871,65.215871 0 0 1 1.44202,-1.2673 65.215871,65.215871 0 0 1 5.3026,-3.79171 65.215871,65.215871 0 0 1 5.65458,-3.24371 65.215871,65.215871 0 0 1 5.95006,-2.66298 65.215871,65.215871 0 0 1 6.18643,-2.05548 65.215871,65.215871 0 0 1 3.57277,-0.80179 29.82487,29.82487 0 0 0 0.29759,-0.616 29.82487,29.82487 0 0 0 1.02199,-2.80031 29.82487,29.82487 0 0 1 0,-5.3e-4 29.82487,29.82487 0 0 0 0.73757,-2.8883 29.82487,29.82487 0 0 1 0,-5.3e-4 29.82487,29.82487 0 0 0 0.35032,-2.31821 29.82487,29.82487 0 0 1 0,-5.3e-4 z m -47.078843,20.50891 a 18.595932,18.595932 0 0 0 0.0241,-0.48335 18.595932,18.595932 0 0 0 -0.0468,-1.31535 18.595932,18.595932 0 0 0 -0.224041,-1.84505 18.595932,18.595932 0 0 0 -0.406839,-1.81359 18.595932,18.595932 0 0 1 0,-5.3e-4 18.595932,18.595932 0 0 0 -0.163679,-0.49188 89.087865,89.087865 0 0 0 -3.301101,2.36073 29.82487,29.82487 0 0 0 0.22193,0.25253 29.82487,29.82487 0 0 0 0,5.3e-4 29.82487,29.82487 0 0 0 2.180889,2.0321 29.82487,29.82487 0 0 0 1.714521,1.30386 18.595929,18.595929 0 0 1 -0.0688,1.37315 18.595929,18.595929 0 0 0 0,5.3e-4 18.595929,18.595929 0 0 1 -0.277601,1.83782 18.595929,18.595929 0 0 1 -0.459999,1.80083 18.595929,18.595929 0 0 1 -0.637252,1.74598 18.595929,18.595929 0 0 1 -0.808598,1.67372 18.595929,18.595929 0 0 0 0,5.3e-4 18.595929,18.595929 0 0 1 -0.9714,1.58443 18.595929,18.595929 0 0 0 0,5.3e-4 18.595929,18.595929 0 0 1 -1.124891,1.47943 18.595929,18.595929 0 0 0 0,5.3e-4 18.595929,18.595929 0 0 1 -1.26731,1.35955 18.595929,18.595929 0 0 0 0,5.3e-4 18.595929,18.595929 0 0 1 -1.396521,1.2265 18.595929,18.595929 0 0 0 1.396122,-1.22692 18.595929,18.595929 0 0 0 1.26728,-1.35956 18.595929,18.595929 0 0 0 0,-5.2e-4 18.595929,18.595929 0 0 0 1.124889,-1.47943 18.595929,18.595929 0 0 0 0,-5.2e-4 18.595929,18.595929 0 0 0 0.971421,-1.58446 18.595929,18.595929 0 0 0 0,-5.3e-4 18.595929,18.595929 0 0 0 0.808579,-1.67372 18.595929,18.595929 0 0 0 0.637281,-1.74599 18.595929,18.595929 0 0 0 0.459989,-1.80082 18.595929,18.595929 0 0 0 0.27759,-1.83783 18.595929,18.595929 0 0 0 0,-5.3e-4 18.595929,18.595929 0 0 0 0.0688,-1.37315 29.82487,29.82487 0 0 1 -1.715371,-1.30387 29.82487,29.82487 0 0 1 -2.180899,-2.0321 29.82487,29.82487 0 0 0 0,-5.3e-4 29.82487,29.82487 0 0 1 -0.22192,-0.25251 89.087838,89.087838 0 0 0 -3.2879,2.35139 89.087838,89.087838 0 0 0 -6.689791,5.87735 89.087838,89.087838 0 0 0 -6.069939,6.51547 89.087838,89.087838 0 0 0 -4.49317,5.91053 v 0 a 89.087838,89.087838 0 0 0 -0.0425,0.0557 89.087838,89.087838 0 0 0 -0.85365,1.12318 89.087838,89.087838 0 0 0 -0.10837,0.17644 21.774969,21.774969 0 0 0 0,7.9e-4 89.087838,89.087838 0 0 0 -4.54587,7.41463 89.087838,89.087838 0 0 0 -3.76238,7.7883 65.215871,65.215871 0 0 0 0.10074,2.84365 65.215871,65.215871 0 0 0 0.785629,6.47127 65.215871,65.215871 0 0 0 0,5.3e-4 65.215871,65.215871 0 0 0 1.427571,6.3603 65.215871,65.215871 0 0 0 2.05549,6.18643 65.215871,65.215871 0 0 0 1.18058,2.63791 v 0 a 76.227032,76.227032 0 0 0 5.235,2.52822 76.227032,76.227032 0 0 0 2.05335,0.74949 34.890477,34.890477 0 0 1 1.11425,-0.49866 34.890477,34.890477 0 0 1 3.30961,-1.09938 34.890477,34.890477 0 0 1 3.40226,-0.76395 34.890477,34.890477 0 0 1 0.0021,0 34.890477,34.890477 0 0 0 -3.402291,0.76395 34.890477,34.890477 0 0 0 -3.30958,1.09938 34.890477,34.890477 0 0 1 0,5.3e-4 34.890477,34.890477 0 0 0 -1.11384,0.49867 76.227032,76.227032 0 0 0 1.91604,0.6989 76.22703,76.22703 0 0 0 0,5.3e-4 76.227032,76.227032 0 0 0 3.187172,1.16357 76.227032,76.227032 0 0 0 7.382719,1.88501 76.227032,76.227032 0 0 0 2.56522,0.38771 76.227032,76.227032 0 0 0 0.99904,0.15092 65.215871,65.215871 0 0 1 -0.639799,-2.84877 65.215871,65.215871 0 0 1 -0.50505,-4.16326 76.22703,76.22703 0 0 0 -0.423432,0.0515 76.22703,76.22703 0 0 0 -1.362958,0.30566 34.890477,34.890477 0 0 1 -0.10677,-0.47529 34.890477,34.890477 0 0 0 -0.0021,0 34.890477,34.890477 0 0 1 -0.0562,-0.25082 34.890477,34.890477 0 0 1 -0.420452,-3.4618 34.890477,34.890477 0 0 1 0,-5.3e-4 34.890477,34.890477 0 0 1 -0.0876,-2.46829 34.890477,34.890477 0 0 1 0.17431,-3.48305 34.890477,34.890477 0 0 1 0.521218,-3.44819 34.890477,34.890477 0 0 1 0,-5.3e-4 34.890477,34.890477 0 0 1 0.863002,-3.37889 34.890477,34.890477 0 0 1 1.195869,-3.27602 34.890477,34.890477 0 0 1 0,-5.3e-4 34.890477,34.890477 0 0 1 1.190771,-2.46529 34.890477,34.890477 0 0 1 0,-5.3e-4 65.215871,65.215871 0 0 1 0.98121,-3.84186 65.215871,65.215871 0 0 1 2.17664,-5.96324 65.215871,65.215871 0 0 1 0.0586,-0.16027 65.215871,65.215871 0 0 1 2.835589,-5.86971 65.215871,65.215871 0 0 1 3.406966,-5.55768 65.215871,65.215871 0 0 1 3.94516,-5.18951 65.215871,65.215871 0 0 1 4.13858,-4.44213 29.82487,29.82487 0 0 1 -1.22901,-0.18579 29.82487,29.82487 0 0 1 -2.88833,-0.73759 29.82487,29.82487 0 0 1 -2.80028,-1.02243 29.82487,29.82487 0 0 1 -2.173667,-1.05006 18.595929,18.595929 0 0 0 0,-5.3e-4 29.82487,29.82487 0 0 1 -0.510159,-0.24614 29.82487,29.82487 0 0 1 -2.541399,-1.5581 29.82487,29.82487 0 0 1 -0.657252,-0.50037 z m -8.121599,58.55938 a 34.890477,34.890477 0 0 1 0.743971,-0.0263 34.890477,34.890477 0 0 1 1.13847,0.057 65.215871,65.215871 0 0 1 -0.26951,-2.22 65.215871,65.215871 0 0 0 0,-5.3e-4 65.215871,65.215871 0 0 1 -0.163681,-4.61303 65.215871,65.215871 0 0 0 0,-5.3e-4 65.215871,65.215871 0 0 1 0.32608,-6.51037 65.215871,65.215871 0 0 0 0,-5.3e-4 65.215871,65.215871 0 0 1 0.973971,-6.44491 65.215871,65.215871 0 0 0 0,-5.3e-4 65.215871,65.215871 0 0 1 0.631719,-2.47423 34.890477,34.890477 0 0 0 -1.190778,2.4653 34.890477,34.890477 0 0 1 0,5.3e-4 34.890477,34.890477 0 0 0 -1.195872,3.27601 34.890477,34.890477 0 0 0 -0.86301,3.3789 34.890477,34.890477 0 0 1 0,5.3e-4 34.890477,34.890477 0 0 0 -0.521211,3.4482 34.890477,34.890477 0 0 0 -0.174289,3.48305 34.890477,34.890477 0 0 0 0.0876,2.46828 34.890477,34.890477 0 0 1 0,5.3e-4 34.890477,34.890477 0 0 0 0.420439,3.4618 34.890477,34.890477 0 0 0 0.0562,0.25082 z m -0.403889,-43.39473 a 18.595929,18.595929 0 0 0 0,5.3e-4 18.595929,18.595929 0 0 1 -1.024531,0.58752 18.595929,18.595929 0 0 0 1.024099,-0.58795 z m -5.072571,2.27019 a 18.595929,18.595929 0 0 0 0,5.3e-4 18.595929,18.595929 0 0 1 -1.481151,0.33245 18.595929,18.595929 0 0 0 1.48073,-0.33287 z m 11.421412,9.28219 a 21.774969,21.774969 0 0 0 0,5.3e-4 21.774969,21.774969 0 0 1 -1.7345,0.38899 21.774969,21.774969 0 0 0 1.733658,-0.3894 z"
       style="opacity:1;fill:url(#linearGradient8875);fill-opacity:1;stroke:#fa0000;stroke-width:0.0000463;stroke-linecap:round;stroke-linejoin:miter;stroke-miterlimit:4;stroke-dasharray:none;stroke-dashoffset:0;stroke-opacity:1;paint-order:markers fill stroke"
       inkscape:connector-curvature="0" />
    <path
       id="path8845"
       d="m 145.91679,82.55634 a 18.595934,18.595934 0 0 1 -0.14581,0.96503 18.595934,18.595934 0 0 1 -0.18961,0.74269 18.595934,18.595934 0 0 1 -0.27038,1.05814 18.595934,18.595934 0 0 0 0,4.3e-4 18.595934,18.595934 0 0 1 -0.63726,1.74599 18.595934,18.595934 0 0 1 -0.80861,1.67373 18.595934,18.595934 0 0 1 -0.97182,1.58445 18.595934,18.595934 0 0 1 -0.23297,0.3065 18.595934,18.595934 0 0 1 -0.22405,0.61388 65.215871,65.215871 0 0 0 -0.17727,-0.0858 18.595935,18.595935 0 0 1 -0.4906,0.64533 18.595935,18.595935 0 0 1 -1.26687,1.35997 18.595935,18.595935 0 0 0 0,4.5e-4 18.595935,18.595935 0 0 1 -0.74312,0.65299 18.595935,18.595935 0 0 1 -0.65299,0.5735 18.595935,18.595935 0 0 0 0,4.5e-4 18.595935,18.595935 0 0 1 -0.8817,0.63003 18.595935,18.595935 0 0 1 -0.63006,0.45106 18.595935,18.595935 0 0 1 -0.45531,0.26103 29.82487,29.82487 0 0 1 0.41365,0.57859 29.82487,29.82487 0 0 1 0.87449,1.5245 18.595934,18.595934 0 0 1 0,5.3e-4 29.82487,29.82487 0 0 1 0.60879,1.06111 29.82487,29.82487 0 0 1 1.21799,2.7208 29.82487,29.82487 0 0 1 0.93996,2.82923 29.82487,29.82487 0 0 1 0.1356,0.6041 29.82487,29.82487 0 0 1 0.51739,2.30503 29.82487,29.82487 0 0 1 0.35922,2.9593 29.82487,29.82487 0 0 1 0.0744,2.10989 29.82487,29.82487 0 0 1 -0.0905,1.80934 18.595934,18.595934 0 0 0 0.002,0 29.82487,29.82487 0 0 1 -0.0586,1.16824 29.82487,29.82487 0 0 1 -0.0952,0.62877 89.087883,89.087883 0 0 0 -0.002,0 29.82487,29.82487 0 0 1 0,5.3e-4 29.82487,29.82487 0 0 1 -0.3503,2.31821 29.82487,29.82487 0 0 1 0,5.3e-4 29.82487,29.82487 0 0 1 -0.73757,2.88831 29.82487,29.82487 0 0 1 0,5.3e-4 29.82487,29.82487 0 0 1 -1.02201,2.80031 29.82487,29.82487 0 0 1 -0.29759,0.61601 65.215871,65.215871 0 0 1 2.78754,-0.62579 65.215871,65.215871 0 0 1 0.54162,-0.0659 65.215871,65.215871 0 0 1 4.92679,-0.59816 34.890477,34.890477 0 0 0 1.40929,-2.2978 34.890477,34.890477 0 0 0 1.51684,-3.1404 34.890477,34.890477 0 0 0 0.54968,-1.50537 34.890477,34.890477 0 0 0 0.64621,-1.77108 34.890477,34.890477 0 0 0 0.863,-3.37889 34.890477,34.890477 0 0 0 0.0345,-0.22617 v 0 a 18.595934,18.595934 0 0 1 -0.017,0.0128 89.087883,89.087883 0 0 0 -2.8458,3.05454 89.087883,89.087883 0 0 0 -1.64269,2.16048 89.087883,89.087883 0 0 1 1.64226,-2.16048 89.087883,89.087883 0 0 1 2.84452,-3.05326 18.595934,18.595934 0 0 1 -0.33799,0.24189 18.595934,18.595934 0 0 1 -1.6125,0.92465 18.595934,18.595934 0 0 1 -1.69667,0.75928 18.595934,18.595934 0 0 1 -1.76384,0.58624 18.595934,18.595934 0 0 1 -1.81359,0.40727 18.595934,18.595934 0 0 1 -0.002,0 18.595934,18.595934 0 0 0 1.81357,-0.40727 18.595934,18.595934 0 0 0 1.76385,-0.58624 18.595934,18.595934 0 0 0 1.69668,-0.75928 18.595934,18.595934 0 0 0 1.61251,-0.92465 18.595934,18.595934 0 0 0 0.33925,-0.24275 89.087883,89.087883 0 0 1 0.0192,-0.0204 89.087883,89.087883 0 0 1 0,-5.3e-4 89.087883,89.087883 0 0 1 0,-5.3e-4 34.890477,34.890477 0 0 0 0.28863,-1.90796 h 0.002 a 34.890477,34.890477 0 0 0 0.19725,-1.30642 34.890477,34.890477 0 0 0 0.17429,-3.48305 34.890477,34.890477 0 0 0 -0.0876,-2.46827 34.890477,34.890477 0 0 0 -0.4094,-3.37637 34.890477,34.890477 0 0 0 0,-5.3e-4 34.890477,34.890477 0 0 0 -0.0111,-0.0855 34.890477,34.890477 0 0 0 -0.76391,-3.40269 34.890477,34.890477 0 0 0 -1.09982,-3.30961 34.890477,34.890477 0 0 0 -1.42459,-3.18334 34.890477,34.890477 0 0 0 -1.49262,-2.60262 34.890477,34.890477 0 0 0 -0.24273,-0.423 34.890477,34.890477 0 0 0 -2.0287,-2.83686 34.890477,34.890477 0 0 0 -0.0872,-0.0995 z"
       style="opacity:1;fill:url(#linearGradient10664);fill-opacity:1;stroke:#fa0000;stroke-width:0.0000463;stroke-linecap:round;stroke-linejoin:miter;stroke-miterlimit:4;stroke-dasharray:none;stroke-dashoffset:0;stroke-opacity:1;paint-order:markers fill stroke"
       inkscape:connector-curvature="0" />
    <path
       id="path8847"
       d="m 142.93242,77.062 a 18.595934,18.595934 0 0 0 -0.82814,0.0293 18.595934,18.595934 0 0 1 0.57008,1.2741 18.595934,18.595934 0 0 1 0.14794,0.44468 34.890477,34.890477 0 0 1 1.31491,1.22564 34.890477,34.890477 0 0 1 2.21447,2.52057 18.595934,18.595934 0 0 0 0.13181,-0.87277 18.595934,18.595934 0 0 0 0.0931,-1.85653 18.595934,18.595934 0 0 0 -0.0467,-1.31534 18.595934,18.595934 0 0 0 -0.13521,-1.11383 18.595934,18.595934 0 0 0 -1.60611,-0.24317 18.595934,18.595934 0 0 0 -1.85654,-0.0927 z m 1.20479,2.97377 a 34.890477,34.890477 0 0 0 -1.31491,-1.22522 18.595934,18.595934 0 0 0 0,-4.5e-4 34.890477,34.890477 0 0 0 -1.23626,-1.15167 34.890477,34.890477 0 0 0 -0.61983,-0.47103 18.595934,18.595934 0 0 0 -1.1946,0.14497 18.595934,18.595934 0 0 0 -1.81359,0.40727 18.595934,18.595934 0 0 1 0,4.3e-4 18.595934,18.595934 0 0 0 -1.32426,0.43958 18.595934,18.595934 0 0 0 -0.4396,0.14624 18.595934,18.595934 0 0 0 -0.79582,0.35626 18.595934,18.595934 0 0 0 -0.90001,0.40301 18.595934,18.595934 0 0 0 -1.61248,0.92466 18.595934,18.595934 0 0 1 0,4.2e-4 18.595934,18.595934 0 0 0 -0.88172,0.63004 18.595934,18.595934 0 0 0 -0.63005,0.45106 18.595934,18.595934 0 0 0 -1.39652,1.22649 18.595934,18.595934 0 0 0 -1.26687,1.35997 18.595934,18.595934 0 0 0 -1.12489,1.47987 18.595934,18.595934 0 0 0 -0.099,0.16154 h -0.002 a 65.215871,65.215871 0 0 1 3.43331,0.87661 65.215871,65.215871 0 0 1 6.12351,2.23531 65.215871,65.215871 0 0 1 5.65205,2.73016 18.595934,18.595934 0 0 0 0.40134,-0.52801 18.595935,18.595935 0 0 0 0.23296,-0.30652 18.595935,18.595935 0 0 0 0.97184,-1.58443 18.595935,18.595935 0 0 0 0.80859,-1.67373 18.595935,18.595935 0 0 0 0.63726,-1.74599 18.595935,18.595935 0 0 0 0,-4.2e-4 18.595935,18.595935 0 0 0 0.27038,-1.05814 18.595935,18.595935 0 0 0 0,-4.3e-4 18.595935,18.595935 0 0 0 0.1896,-0.74227 18.595935,18.595935 0 0 0 0.14584,-0.96504 34.890477,34.890477 0 0 0 -2.2145,-2.52056 z m -1.59591,2.09756 a 89.087891,89.087891 0 0 1 1.24221,0.7614 18.595935,18.595935 0 0 0 0,4.3e-4 89.087891,89.087891 0 0 0 -1.24221,-0.76182 z m 1.24221,0.76225 a 89.087896,89.087896 0 0 1 0,4.3e-4 18.595935,18.595935 0 0 1 0.10837,0.89235 18.595935,18.595935 0 0 1 0.0459,1.31534 18.595934,18.595934 0 0 0 -0.0463,-1.31534 18.595934,18.595934 0 0 0 -0.10837,-0.89277 z m -16.29932,2.42364 a 18.595934,18.595934 0 0 0 -0.51057,0.83283 v 0 a 18.595934,18.595934 0 0 0 -0.36219,0.59049 18.595934,18.595934 0 0 0 -0.80817,1.67372 18.595934,18.595934 0 0 0 -0.63769,1.746 18.595934,18.595934 0 0 1 0,4.3e-4 18.595934,18.595934 0 0 0 -0.45959,1.80083 18.595934,18.595934 0 0 0 -0.27801,1.83782 18.595934,18.595934 0 0 0 -0.0927,1.85652 18.595934,18.595934 0 0 0 0.0463,1.31533 18.595934,18.595934 0 0 0 0.13518,1.11383 v 0 a 18.595934,18.595934 0 0 0 1.60611,0.24275 18.595934,18.595934 0 0 0 1.8561,0.0931 18.595934,18.595934 0 0 0 1.31576,-0.0467 18.595934,18.595934 0 0 0 1.84505,-0.22406 18.595934,18.595934 0 0 0 1.81359,-0.40682 18.595934,18.595934 0 0 0 0.43959,-0.14626 18.595934,18.595934 0 0 0 1.32425,-0.44001 18.595934,18.595934 0 0 0 1.69669,-0.75926 18.595934,18.595934 0 0 0 1.15674,-0.66363 29.82487,29.82487 0 0 0 -1.32043,-1.84674 29.82487,29.82487 0 0 0 -1.96747,-2.23956 29.82487,29.82487 0 0 1 1.96747,2.23956 29.82487,29.82487 0 0 1 1.32043,1.84674 18.595934,18.595934 0 0 0 0.45533,-0.26102 18.595934,18.595934 0 0 0 0.63003,-0.45106 18.595934,18.595934 0 0 0 0.8817,-0.63046 18.595934,18.595934 0 0 0 0.653,-0.5735 18.595934,18.595934 0 0 0 0.74311,-0.65341 18.595934,18.595934 0 0 0 1.26689,-1.35998 18.595934,18.595934 0 0 0 0.49059,-0.64535 65.215871,65.215871 0 0 0 -5.65203,-2.73014 65.215871,65.215871 0 0 0 -6.12355,-2.23533 65.215871,65.215871 0 0 0 -3.43329,-0.8766 z m 2.24551,2.49421 a 29.82487,29.82487 0 0 1 0,4.5e-4 29.82487,29.82487 0 0 1 0,-4.5e-4 z"
       style="opacity:1;fill:url(#radialGradient8909);fill-opacity:1;stroke:#fa0000;stroke-width:0.0000463;stroke-linecap:round;stroke-linejoin:miter;stroke-miterlimit:4;stroke-dasharray:none;stroke-dashoffset:0;stroke-opacity:1;paint-order:markers fill stroke"
       inkscape:connector-curvature="0" />
    <path
       id="path8849"
       d="m 119.10837,70.32462 a 34.890477,34.890477 0 0 0 -2.46784,0.0872 34.890477,34.890477 0 0 0 -1.76472,0.21425 34.890477,34.890477 0 0 0 -1.69709,0.20619 34.890477,34.890477 0 0 0 -1.08406,0.24317 18.595935,18.595935 0 0 0 -0.43321,0.707 18.595935,18.595935 0 0 0 -0.54247,1.12231 89.087896,89.087896 0 0 1 0.89021,0.13478 89.087896,89.087896 0 0 1 5.51984,0.83409 89.087896,89.087896 0 0 1 8.62793,2.20343 89.087896,89.087896 0 0 1 8.36518,3.05325 89.087896,89.087896 0 0 1 0.87492,0.42258 18.595935,18.595935 0 0 1 0.79584,-0.35626 18.595935,18.595935 0 0 1 0.43957,-0.14624 18.595935,18.595935 0 0 1 1.32427,-0.44 18.595935,18.595935 0 0 1 1.81358,-0.40727 18.595935,18.595935 0 0 1 1.19461,-0.14498 34.890477,34.890477 0 0 0 -2.15668,-1.63928 34.890477,34.890477 0 0 0 -2.97332,-1.82294 34.890477,34.890477 0 0 0 -3.13997,-1.51727 34.890477,34.890477 0 0 0 -3.27601,-1.19589 34.890477,34.890477 0 0 0 -3.37933,-0.86258 34.890477,34.890477 0 0 0 -3.4482,-0.52119 34.890477,34.890477 0 0 0 -3.48305,-0.17431 z m -5.32557,1.08322 a 18.595935,18.595935 0 0 1 0,4.3e-4 18.595935,18.595935 0 0 0 -1.39654,1.22649 18.595935,18.595935 0 0 1 1.39654,-1.22692 z m -1.77615,1.63163 a 18.595935,18.595935 0 0 0 -0.8898,0.95526 18.595935,18.595935 0 0 0 -0.89105,1.17207 18.595935,18.595935 0 0 0 0,0.001 h 0.002 v 0 a 18.595935,18.595935 0 0 0 -0.0128,0.034 18.595935,18.595935 0 0 1 0.0124,-0.034 18.595935,18.595935 0 0 0 -0.23296,0.30651 18.595935,18.595935 0 0 0 -0.97142,1.58445 18.595935,18.595935 0 0 0 -0.80858,1.67372 18.595935,18.595935 0 0 0 -0.6377,1.74599 18.595935,18.595935 0 0 0 0,4.3e-4 18.595935,18.595935 0 0 0 -0.45957,1.80084 18.595935,18.595935 0 0 0 -0.27802,1.83781 18.595935,18.595935 0 0 0 0,4.2e-4 18.595935,18.595935 0 0 0 0,0.0111 v 0 a 29.82487,29.82487 0 0 1 0.98078,-0.22022 29.82487,29.82487 0 0 1 1.81401,-0.22022 29.82487,29.82487 0 0 1 1.144,-0.13901 29.82487,29.82487 0 0 1 2.10946,-0.0749 29.82487,29.82487 0 0 1 2.97718,0.14922 29.82487,29.82487 0 0 1 2.94781,0.44553 29.82487,29.82487 0 0 1 2.88831,0.73758 29.82487,29.82487 0 0 1 0.97693,0.35669 65.215871,65.215871 0 0 1 0.004,8.2e-4 29.82487,29.82487 0 0 1 1.82165,0.66447 29.82487,29.82487 0 0 1 2.47084,1.19374 18.595935,18.595935 0 0 1 0.51058,-0.83281 65.215871,65.215871 0 0 0 -0.002,-4.5e-4 18.595935,18.595935 0 0 1 0.0986,-0.16112 18.595935,18.595935 0 0 1 1.12489,-1.47986 18.595935,18.595935 0 0 1 1.26687,-1.35997 18.595935,18.595935 0 0 1 1.39653,-1.22649 18.595935,18.595935 0 0 1 0.63005,-0.45106 18.595935,18.595935 0 0 1 0.8817,-0.63047 18.595935,18.595935 0 0 1 1.6125,-0.92464 18.595935,18.595935 0 0 1 0.89999,-0.403 89.087896,89.087896 0 0 0 -0.87491,-0.42258 89.087896,89.087896 0 0 0 -8.3652,-3.05325 89.087896,89.087896 0 0 0 -8.62791,-2.20343 89.087896,89.087896 0 0 0 -5.51984,-0.83409 z"
       style="opacity:1;fill:url(#linearGradient8895);fill-opacity:1;stroke:#fa0000;stroke-width:0.0000463;stroke-linecap:round;stroke-linejoin:miter;stroke-miterlimit:4;stroke-dasharray:none;stroke-dashoffset:0;stroke-opacity:1;paint-order:markers fill stroke"
       inkscape:connector-curvature="0" />
    <path
       inkscape:connector-curvature="0"
       id="path8851"
       d="m 68.268528,192.05679 -4.49e-4,5.2e-4 a 65.215871,65.215871 0 0 0 0.73718,1.64653 h 0.006 a 3.3454917,3.3454917 0 0 1 0.13433,-0.0447 3.3454917,3.3454917 0 0 1 0.32564,-0.0731 3.3454917,3.3454917 0 0 1 0.3316,-0.0404 3.3454917,3.3454917 0 0 1 0.005,0 3.3454917,3.3454917 0 0 0 -0.33159,0.0404 3.3454917,3.3454917 0 0 0 -0.32565,0.0731 3.3454917,3.3454917 0 0 0 -0.13434,0.0447 65.215871,65.215871 0 0 0 0.20534,0.45912 65.215871,65.215871 0 0 0 1.72134,1.60401 65.215871,65.215871 0 0 0 1.46709,1.11596 34.890477,34.890477 0 0 1 0.93146,-0.53439 3.3454917,3.3454917 0 0 0 0,-0.004 34.890477,34.890477 0 0 1 0.14624,-0.0842 34.890477,34.890477 0 0 1 0.98417,-0.44042 34.890477,34.890477 0 0 1 1.08449,-0.48591 76.227032,76.227032 0 0 1 -2.05335,-0.7495 76.227032,76.227032 0 0 1 -5.23501,-2.52822 z m 4.142,4.82604 h -7.93e-4 a 65.215871,65.215871 0 0 1 5.29e-4,5.2e-4 34.890477,34.890477 0 0 0 5.29e-4,-5.2e-4 z m -5.29e-4,5.2e-4 a 34.890477,34.890477 0 0 0 -0.002,0.001 h 0.004 a 65.215871,65.215871 0 0 1 -0.002,-0.001 z m -0.002,0.001 a 34.890477,34.890477 0 0 0 -1.34043,0.76863 34.890477,34.890477 0 0 0 -7.93e-4,5.3e-4 65.215871,65.215871 0 0 0 0.46084,0.80305 76.22703,76.22703 0 0 0 0,5.3e-4 65.215871,65.215871 0 0 0 0,5.3e-4 65.215871,65.215871 0 0 0 0.59814,1.04198 3.3454917,3.3454917 0 0 0 0.24572,-0.21639 3.3454917,3.3454917 0 0 0 0.22786,-0.24487 3.3454917,3.3454917 0 0 0 0.20238,-0.26612 3.3454917,3.3454917 0 0 0 0.17515,-0.28484 3.3454917,3.3454917 0 0 0 0.14538,-0.30099 3.3454917,3.3454917 0 0 1 0,-5.3e-4 3.3454917,3.3454917 0 0 0 0.114779,-0.31417 3.3454917,3.3454917 0 0 0 0.0518,-0.20236 3.3454917,3.3454917 0 0 0 0,-5.3e-4 3.3454917,3.3454917 0 0 0 0.0241,-0.096 65.215871,65.215871 0 0 1 -0.905091,-0.68828 z m -1.34043,0.76863 a 65.215871,65.215871 0 0 0 0,-5.3e-4 34.890477,34.890477 0 0 0 -7.93e-4,5.3e-4 z m 0,-5.3e-4 a 34.890477,34.890477 0 0 1 1.34043,-0.76863 65.215871,65.215871 0 0 1 -1.46881,-1.11723 65.215871,65.215871 0 0 1 -1.72134,-1.60401 65.215871,65.215871 0 0 0 0.53991,1.20653 65.215871,65.215871 0 0 0 1.30981,2.28334 z m 63.057651,-3.95584 a 3.3454917,3.3454917 0 0 0 -0.23639,0.009 3.3454917,3.3454917 0 0 0 -0.33203,0.0404 3.3454917,3.3454917 0 0 0 -0.32606,0.0735 3.3454917,3.3454917 0 0 0 -0.31715,0.10541 3.3454917,3.3454917 0 0 0 -0.30524,0.13647 3.3454917,3.3454917 0 0 0 -0.29036,0.16622 3.3454917,3.3454917 0 0 0 -0.27163,0.1947 3.3454917,3.3454917 0 0 0 -0.25127,0.22066 3.3454917,3.3454917 0 0 0 -0.22786,0.24443 3.3454917,3.3454917 0 0 1 0,5.3e-4 3.3454917,3.3454917 0 0 0 -0.17516,0.23042 34.890482,34.890482 0 0 1 0.0502,0.0243 76.227032,76.227032 0 0 1 -0.0974,0.0437 76.227032,76.227032 0 0 1 -0.52928,0.23681 76.227032,76.227032 0 0 1 -2.09927,0.69763 76.227032,76.227032 0 0 1 -5.13084,1.70475 76.227032,76.227032 0 0 1 -7.43459,1.66904 76.227032,76.227032 0 0 1 -5.08748,0.61728 76.227032,76.227032 0 0 1 -2.47595,0.30057 76.227032,76.227032 0 0 1 -5.39229,0.1913 76.227032,76.227032 0 0 1 -7.609752,-0.3809 76.227032,76.227032 0 0 1 -2.96269,-0.44766 34.890482,34.890482 0 0 0 -0.81284,0.71379 65.215871,65.215871 0 0 0 0.5939,2.64555 65.215871,65.215871 0 0 0 0.0307,0.0919 34.890477,34.890477 0 0 0 1.110429,1.93603 34.890477,34.890477 0 0 0 1.40335,1.9628 76.227032,76.227032 0 0 0 6.381543,0.31928 76.227032,76.227032 0 0 0 5.39188,-0.19088 76.227032,76.227032 0 0 0 7.56426,-0.91828 76.227032,76.227032 0 0 0 2.45042,-0.55011 76.227032,76.227032 0 0 0 4.98375,-1.11851 76.227032,76.227032 0 0 0 7.23097,-2.40281 76.227032,76.227032 0 0 0 1.33701,-0.59815 76.227032,76.227032 0 0 0 3.06517,-1.37231 3.3454917,3.3454917 0 0 0 0.10886,0.0281 3.3454917,3.3454917 0 0 0 0.33075,0.0498 3.3454917,3.3454917 0 0 0 0.33373,0.017 3.3454917,3.3454917 0 0 0 0.23679,-0.009 3.3454917,3.3454917 0 0 0 0.33201,-0.0404 3.3454917,3.3454917 0 0 0 0.32607,-0.0731 3.3454917,3.3454917 0 0 0 0.0787,-0.0264 3.3454917,3.3454917 0 0 0 0.23848,-0.0791 3.3454917,3.3454917 0 0 0 0.30524,-0.13688 3.3454917,3.3454917 0 0 0 0.28993,-0.16623 3.3454917,3.3454917 0 0 0 0.27209,-0.19428 3.3454917,3.3454917 0 0 0 0.13603,-0.11995 89.087865,89.087865 0 0 1 -0.082,-0.24742 76.22703,76.22703 0 0 0 -0.32947,-0.159 76.227032,76.227032 0 0 0 0.23211,-0.1335 89.087873,89.087873 0 0 1 -0.40469,-1.2184 34.890482,34.890482 0 0 1 1.08744,0.82686 76.227032,76.227032 0 0 0 0.3231,-0.18535 3.3454917,3.3454917 0 0 0 0.0392,-0.0812 3.3454917,3.3454917 0 0 0 0.11477,-0.31375 3.3454917,3.3454917 0 0 0 0,-5.3e-4 3.3454917,3.3454917 0 0 0 0.0829,-0.32394 3.3454917,3.3454917 0 0 0 0.0497,-0.33075 3.3454917,3.3454917 0 0 0 0.017,-0.33373 3.3454917,3.3454917 0 0 0 0,-5.3e-4 3.3454917,3.3454917 0 0 0 -0.009,-0.23637 3.3454917,3.3454917 0 0 0 -0.0404,-0.33203 3.3454917,3.3454917 0 0 0 -0.0732,-0.32606 3.3454917,3.3454917 0 0 0 0,-5.3e-4 3.3454917,3.3454917 0 0 0 -0.10541,-0.31714 3.3454917,3.3454917 0 0 0 -0.13645,-0.30523 3.3454917,3.3454917 0 0 0 -0.16667,-0.28995 3.3454917,3.3454917 0 0 0 0,-5.2e-4 3.3454917,3.3454917 0 0 0 -0.19427,-0.27208 3.3454917,3.3454917 0 0 0 -0.22108,-0.25082 3.3454917,3.3454917 0 0 0 -0.0739,-0.0693 3.3454917,3.3454917 0 0 0 -0.1692,-0.15855 3.3454917,3.3454917 0 0 0 -0.26614,-0.20237 3.3454917,3.3454917 0 0 0 -0.28525,-0.17472 3.3454917,3.3454917 0 0 0 -0.301,-0.14541 3.3454917,3.3454917 0 0 0 -0.31416,-0.11477 3.3454917,3.3454917 0 0 0 -0.32394,-0.0825 3.3454917,3.3454917 0 0 0 -0.19983,-0.0307 76.227032,76.227032 0 0 1 -0.15558,0.0697 89.087865,89.087865 0 0 1 -0.0307,-0.0927 3.3454917,3.3454917 0 0 0 -0.27805,-0.0136 z m -65.323561,0.0794 v 5.3e-4 a 3.3454917,3.3454917 0 0 0 -0.27846,0.12457 3.3454917,3.3454917 0 0 0 -0.28993,0.16664 3.3454917,3.3454917 0 0 0 -0.27207,0.1943 3.3454917,3.3454917 0 0 0 -0.25082,0.22104 3.3454917,3.3454917 0 0 0 -0.22788,0.24446 3.3454917,3.3454917 0 0 0 -0.20236,0.26612 3.3454917,3.3454917 0 0 0 -0.17431,0.28525 3.3454917,3.3454917 0 0 0 -0.14581,0.30099 3.3454917,3.3454917 0 0 0 -0.1144,0.31418 3.3454917,3.3454917 0 0 0 -0.0829,0.32395 3.3454917,3.3454917 0 0 0 -0.0503,0.33074 3.3454917,3.3454917 0 0 0 -0.0166,0.33415 3.3454917,3.3454917 0 0 0 0.009,0.23638 3.3454917,3.3454917 0 0 0 0.0404,0.33202 3.3454917,3.3454917 0 0 0 0.0731,0.3265 3.3454917,3.3454917 0 0 0 0.10542,0.31713 3.3454917,3.3454917 0 0 0 0.13647,0.30526 3.3454917,3.3454917 0 0 0 0.16665,0.29035 3.3454917,3.3454917 0 0 0 0.19429,0.27166 3.3454917,3.3454917 0 0 0 0.22063,0.25124 3.3454917,3.3454917 0 0 0 0.24487,0.22829 3.3454917,3.3454917 0 0 0 0.26613,0.20237 3.3454917,3.3454917 0 0 0 0.006,0.004 34.890477,34.890477 0 0 0 -4.23e-4,5.3e-4 3.3454917,3.3454917 0 0 0 0.27847,0.17046 3.3454917,3.3454917 0 0 0 0.0208,0.01 76.22703,76.22703 0 0 0 -0.002,0.001 h 0.006 a 3.3454917,3.3454917 0 0 0 0.004,0.001 76.22703,76.22703 0 0 0 -0.0319,0.014 h -0.006 a 76.22703,76.22703 0 0 0 -0.0251,0.0149 76.227032,76.227032 0 0 0 3.24329,1.56659 76.227032,76.227032 0 0 0 2.22508,0.81242 65.215871,65.215871 0 0 1 -0.86851,-1.21458 65.215871,65.215871 0 0 1 0,-5.3e-4 65.215871,65.215871 0 0 1 -0.87449,-1.5245 3.3454917,3.3454917 0 0 1 -0.002,0.002 3.3454917,3.3454917 0 0 1 -0.002,0.001 3.3454917,3.3454917 0 0 1 0,5.3e-4 3.3454917,3.3454917 0 0 1 -0.0775,0.0553 3.3454917,3.3454917 0 0 1 -0.19429,0.13901 3.3454917,3.3454917 0 0 1 -0.28951,0.16622 3.3454917,3.3454917 0 0 1 -0.30479,0.13647 3.3454917,3.3454917 0 0 1 -0.31673,0.10542 3.3454917,3.3454917 0 0 1 -0.32564,0.0735 3.3454917,3.3454917 0 0 1 -0.33162,0.04 3.3454917,3.3454917 0 0 1 -0.006,0 3.3454917,3.3454917 0 0 0 0.33159,-0.04 3.3454917,3.3454917 0 0 0 0.32565,-0.0735 3.3454917,3.3454917 0 0 0 0.31673,-0.10542 3.3454917,3.3454917 0 0 0 0.30481,-0.13647 3.3454917,3.3454917 0 0 0 0.28949,-0.16622 3.3454917,3.3454917 0 0 0 0.19429,-0.13901 3.3454917,3.3454917 0 0 0 0.0775,-0.0553 3.3454917,3.3454917 0 0 1 0,-5.3e-4 3.3454917,3.3454917 0 0 0 0.002,-0.001 3.3454917,3.3454917 0 0 0 0.002,-0.002 65.215871,65.215871 0 0 1 0,-5.3e-4 65.215871,65.215871 0 0 1 -0.59772,-1.04113 76.22703,76.22703 0 0 1 0.005,-0.002 65.215871,65.215871 0 0 1 -0.46082,-0.80349 34.890477,34.890477 0 0 1 5.29e-4,0 65.215871,65.215871 0 0 1 -1.30981,-2.28377 65.215871,65.215871 0 0 1 -0.5399,-1.20651 65.215871,65.215871 0 0 1 -0.41493,-0.38645 z m 6.76079,1.55936 a 34.890477,34.890477 0 0 0 -1.08451,0.4855 34.890477,34.890477 0 0 0 -0.98416,0.44043 34.890477,34.890477 0 0 0 -0.15134,0.0872 3.3454917,3.3454917 0 0 1 0.0361,0.29759 3.3454917,3.3454917 0 0 1 0.009,0.23681 3.3454917,3.3454917 0 0 1 -0.0165,0.33372 3.3454917,3.3454917 0 0 0 0,5.3e-4 3.3454917,3.3454917 0 0 1 -0.0503,0.33032 3.3454917,3.3454917 0 0 1 -0.006,0.0246 3.3454917,3.3454917 0 0 1 0,5.3e-4 65.215871,65.215871 0 0 0 0.0702,0.0536 76.22703,76.22703 0 0 0 -0.0943,0.0421 76.22703,76.22703 0 0 0 0,5.3e-4 3.3454917,3.3454917 0 0 1 -0.051,0.20278 3.3454917,3.3454917 0 0 1 -0.11476,0.31417 3.3454917,3.3454917 0 0 1 0,5.3e-4 3.3454917,3.3454917 0 0 1 -0.14497,0.30099 3.3454917,3.3454917 0 0 1 -0.17516,0.28484 3.3454917,3.3454917 0 0 1 -0.20235,0.26612 3.3454917,3.3454917 0 0 1 -0.22789,0.24487 3.3454917,3.3454917 0 0 1 -0.24572,0.21639 65.215871,65.215871 0 0 0 0.87449,1.52493 65.215871,65.215871 0 0 0 0.86896,1.21501 76.227032,76.227032 0 0 0 4.93189,1.8004 76.227032,76.227032 0 0 0 7.382299,1.88501 76.227032,76.227032 0 0 0 0.74398,0.11268 34.890482,34.890482 0 0 1 0.21423,-0.28185 65.215871,65.215871 0 0 0 0.411969,0.19938 65.215871,65.215871 0 0 1 0,5.3e-4 65.215871,65.215871 0 0 0 0.824741,0.30099 76.227032,76.227032 0 0 0 5.32556,0.80476 65.215871,65.215871 0 0 1 -1.27454,-3.83549 34.890477,34.890477 0 0 1 -0.62493,-1.08916 34.890477,34.890477 0 0 1 -0.52886,-1.18143 34.890482,34.890482 0 0 0 -0.145809,0.12796 34.890482,34.890482 0 0 0 -2.377321,2.55161 34.890482,34.890482 0 0 0 -1.612051,2.12052 65.215871,65.215871 0 0 0 7.94e-4,5.3e-4 h -0.0021 a 34.890482,34.890482 0 0 1 1.61208,-2.12053 34.890482,34.890482 0 0 1 2.37731,-2.55161 34.890482,34.890482 0 0 1 0.146659,-0.12923 34.890477,34.890477 0 0 1 5.29e-4,0 34.890477,34.890477 0 0 0 0,7.9e-4 34.890482,34.890482 0 0 1 0.0011,-0.001 h -0.0011 a 34.890477,34.890477 0 0 1 -5.29e-4,0 34.890477,34.890477 0 0 1 -0.663199,-1.48239 76.227032,76.227032 0 0 1 -2.56521,-0.38773 76.227032,76.227032 0 0 1 -7.382719,-1.885 76.227032,76.227032 0 0 1 -3.18717,-1.16358 76.227032,76.227032 0 0 1 -1.91604,-0.69933 z m 15.716041,5.61803 a 34.890482,34.890482 0 0 1 0.529701,-0.46551 65.215871,65.215871 0 0 1 -0.194292,-0.86641 76.227032,76.227032 0 0 1 -0.999029,-0.15092 34.890477,34.890477 0 0 0 0.66362,1.48284 z m 1.15421,2.27187 a 65.215871,65.215871 0 0 0 1.27453,3.83549 76.227032,76.227032 0 0 0 0.01111,0.001 76.227032,76.227032 0 0 0 1.22863,0.0616 34.890477,34.890477 0 0 1 -1.403339,-1.96281 34.890477,34.890477 0 0 1 -1.110441,-1.93602 z"
       style="opacity:1;fill:url(#linearGradient8925);fill-opacity:1;stroke:#fa0000;stroke-width:0.0000463;stroke-linecap:round;stroke-linejoin:miter;stroke-miterlimit:4;stroke-dasharray:none;stroke-dashoffset:0;stroke-opacity:1;paint-order:markers fill stroke" />
    <path
       inkscape:connector-curvature="0"
       id="path8853"
       d="m 136.29714,197.9907 a 76.227032,76.227032 0 0 1 -0.3231,0.18536 34.890482,34.890482 0 0 1 0.1624,0.12328 3.3454917,3.3454917 0 0 0 0.0544,-0.0888 3.3454917,3.3454917 0 0 0 0.10628,-0.21979 z m -0.1607,0.30864 a 3.3454917,3.3454917 0 0 1 -0.12031,0.19641 3.3454917,3.3454917 0 0 1 -0.20234,0.26612 3.3454917,3.3454917 0 0 1 -0.19514,0.20959 3.3454917,3.3454917 0 0 1 -0.0328,0.0349 3.3454917,3.3454917 0 0 1 -0.11477,0.10122 3.3454917,3.3454917 0 0 1 -0.13605,0.11995 3.3454917,3.3454917 0 0 1 -0.27208,0.19428 3.3454917,3.3454917 0 0 1 -0.28992,0.16623 3.3454917,3.3454917 0 0 1 -0.30524,0.13689 3.3454917,3.3454917 0 0 0 0,5.3e-4 3.3454917,3.3454917 0 0 1 -0.23849,0.0787 3.3454917,3.3454917 0 0 1 -0.0787,0.0263 3.3454917,3.3454917 0 0 1 -0.32607,0.0731 3.3454917,3.3454917 0 0 1 -0.33202,0.0404 3.3454917,3.3454917 0 0 1 -0.2368,0.009 3.3454917,3.3454917 0 0 1 -0.33372,-0.0175 3.3454917,3.3454917 0 0 1 -0.33074,-0.0498 3.3454917,3.3454917 0 0 1 -0.10887,-0.0281 76.227032,76.227032 0 0 1 -3.06601,1.3723 76.227032,76.227032 0 0 1 -1.33701,0.59816 76.227032,76.227032 0 0 1 -7.23096,2.4028 76.227032,76.227032 0 0 1 -4.98376,1.11851 34.890477,34.890477 0 0 1 1.94495,2.71996 34.890477,34.890477 0 0 1 1.23329,2.15028 34.890477,34.890477 0 0 1 0.50165,0.87491 34.890477,34.890477 0 0 1 0,5.3e-4 34.890477,34.890477 0 0 1 1.42503,3.18291 34.890477,34.890477 0 0 1 0.87533,2.63578 89.087873,89.087873 0 0 0 6.32798,-2.10268 89.087873,89.087873 0 0 0 0.0163,-0.006 89.087873,89.087873 0 0 0 0.006,-0.001 89.087873,89.087873 0 0 0 8.12755,-3.63781 89.087873,89.087873 0 0 0 3.49539,-2.0053 89.087873,89.087873 0 0 1 -0.1654,-0.28866 89.087873,89.087873 0 0 1 -1.64012,-3.66459 65.215871,65.215871 0 0 0 0,-5.3e-4 65.215871,65.215871 0 0 0 3.55873,-1.59294 34.890482,34.890482 0 0 0 -1.97303,-2.24551 34.890482,34.890482 0 0 0 -1.05812,-0.98587 34.890482,34.890482 0 0 0 -1.49346,-1.39144 34.890482,34.890482 0 0 0 -0.90977,-0.69168 z m -68.608072,1.12529 a 76.22703,76.22703 0 0 0 -1.67074,0.95825 34.890477,34.890477 0 0 0 -1.71666,1.50876 34.890477,34.890477 0 0 0 -2.37731,2.55161 34.890477,34.890477 0 0 0 -2.11073,2.7765 34.890477,34.890477 0 0 0 -1.82294,2.97333 34.890477,34.890477 0 0 0 -0.7814,1.61761 89.087873,89.087873 0 0 0 4.1705,2.01467 89.087873,89.087873 0 0 0 8.36478,3.05365 89.087873,89.087873 0 0 0 8.627901,2.20303 89.087873,89.087873 0 0 0 2.06231,0.31161 34.890482,34.890482 0 0 1 0.0982,-0.64874 34.890482,34.890482 0 0 1 0.863017,-3.37889 34.890482,34.890482 0 0 0 0,-5.3e-4 34.890482,34.890482 0 0 1 0.989682,-2.71103 65.215871,65.215871 0 0 1 -2.00234,-1.86588 65.215871,65.215871 0 0 1 -4.302271,-4.89745 65.215871,65.215871 0 0 1 -2.92357,-4.08759 76.227032,76.227032 0 0 1 -2.22512,-0.81242 76.227032,76.227032 0 0 1 -3.24286,-1.56659 z m 5.47052,2.37901 a 65.215871,65.215871 0 0 0 2.92276,4.08759 65.215871,65.215871 0 0 0 4.302261,4.89745 65.215871,65.215871 0 0 0 2.00234,1.86545 34.890482,34.890482 0 0 1 0.20619,-0.56456 34.890482,34.890482 0 0 1 1.516841,-3.14041 34.890482,34.890482 0 0 1 1.822939,-2.97292 34.890482,34.890482 0 0 0 0,-5.2e-4 34.890482,34.890482 0 0 1 0.28443,-0.37411 76.227032,76.227032 0 0 1 -0.743569,-0.11269 76.227032,76.227032 0 0 1 -7.382302,-1.885 76.227032,76.227032 0 0 1 -4.93189,-1.80041 z m 42.863312,3.54557 a 34.890477,34.890477 0 0 0 0,5.3e-4 76.227032,76.227032 0 0 0 0.001,-5.3e-4 z m 0,5.3e-4 a 76.227032,76.227032 0 0 1 -2.44915,0.54968 76.227032,76.227032 0 0 1 -7.56429,0.91828 76.227032,76.227032 0 0 1 -5.39184,0.19089 76.227032,76.227032 0 0 1 -6.381142,-0.31927 76.227032,76.227032 0 0 1 -1.228619,-0.0616 76.227032,76.227032 0 0 1 -0.01,-0.001 76.227032,76.227032 0 0 1 -5.3e-4,0 76.227032,76.227032 0 0 1 -5.32512,-0.80474 65.215871,65.215871 0 0 1 -5.29e-4,0 h -5.3e-4 a 65.215871,65.215871 0 0 1 -5.29e-4,0 76.227032,76.227032 0 0 1 -1.452229,-0.21937 h -5.29e-4 a 34.890482,34.890482 0 0 0 -0.284411,0.3741 34.890482,34.890482 0 0 0 0,5.3e-4 34.890482,34.890482 0 0 0 -1.822511,2.97292 34.890482,34.890482 0 0 0 -1.51687,3.1404 34.890482,34.890482 0 0 0 -0.20616,0.56499 65.215871,65.215871 0 0 1 -5.29e-4,0 34.890482,34.890482 0 0 0 -0.989701,2.71102 34.890482,34.890482 0 0 0 0,5.3e-4 34.890482,34.890482 0 0 0 -0.862989,3.3789 34.890482,34.890482 0 0 0 -0.0983,0.64874 89.087891,89.087891 0 0 0 6.742059,1.01903 89.087891,89.087891 0 0 0 5.64057,0.28229 65.215871,65.215871 0 0 0 5.3e-4,0 89.087873,89.087873 0 0 0 3.253078,0.16281 89.087873,89.087873 0 0 0 3.749601,-0.13263 65.215871,65.215871 0 0 1 -0.168349,-0.23552 65.215871,65.215871 0 0 1 -3.24372,-5.65461 65.215871,65.215871 0 0 1 -2.662553,-5.95005 65.215871,65.215871 0 0 0 0,-5.3e-4 65.215871,65.215871 0 0 1 -0.337968,-1.01732 65.215871,65.215871 0 0 0 5.29e-4,0 65.215871,65.215871 0 0 0 0,5.3e-4 65.215871,65.215871 0 0 0 0.337982,1.0169 65.215871,65.215871 0 0 0 0,5.3e-4 65.215871,65.215871 0 0 0 2.662549,5.95005 65.215871,65.215871 0 0 0 3.2437,5.65461 65.215871,65.215871 0 0 0 0.16837,0.23552 89.087883,89.087883 0 0 0 2.5516,-0.0905 89.087883,89.087883 0 0 0 8.84007,-1.07302 89.087883,89.087883 0 0 0 1.09214,-0.24531 89.087873,89.087873 0 0 0 7.59529,-1.70475 89.087873,89.087873 0 0 0 2.10099,-0.69806 34.890477,34.890477 0 0 0 -0.87534,-2.63578 34.890477,34.890477 0 0 0 -1.42503,-3.18291 34.890477,34.890477 0 0 1 0,-5.3e-4 34.890477,34.890477 0 0 0 -0.50165,-0.87491 34.890477,34.890477 0 0 0 -1.23328,-2.15027 34.890477,34.890477 0 0 0 -1.94494,-2.71953 z"
       style="opacity:1;fill:url(#linearGradient8883);fill-opacity:1;stroke:#fa0000;stroke-width:0.0000463;stroke-linecap:round;stroke-linejoin:miter;stroke-miterlimit:4;stroke-dasharray:none;stroke-dashoffset:0;stroke-opacity:1;paint-order:markers fill stroke" />
    <path
       id="path8855"
       d="m 141.57117,203.61349 a 65.211682,64.122723 0 0 1 -3.55894,1.56626 89.082155,87.594588 0 0 0 1.64046,3.60358 89.082155,87.594588 0 0 0 0.16537,0.28382 v 0 a 89.082171,87.594604 0 0 0 0,5.3e-4 89.082171,87.594604 0 0 0 2.78058,4.76603 89.082155,87.594588 0 0 1 0,5.2e-4 89.082155,87.594588 0 0 0 1.48442,2.54438 89.082155,87.594588 0 0 0 1.21283,1.66739 89.082155,87.594588 0 0 0 2.94975,-1.66362 34.888239,34.305647 0 0 0 -0.0579,-0.2525 34.888239,34.305647 0 0 0 -1.09932,-3.25414 34.888239,34.305647 0 0 0 -0.89526,-1.96709 34.888239,34.305647 0 0 0 -0.52967,-1.16287 34.888239,34.305647 0 0 0 -1.73483,-2.97448 34.888239,34.305647 0 0 0 -0.0111,-0.0158 34.888239,34.305647 0 0 0 -2.0171,-2.77343 34.888239,34.305647 0 0 0 -0.32902,-0.36825 z m -1.75354,5.45408 a 89.082155,87.594588 0 0 1 -3.49516,1.97129 89.082155,87.594588 0 0 1 -8.12703,3.57682 89.082155,87.594588 0 0 1 -0.006,0.001 89.082155,87.594588 0 0 1 -0.0161,0.006 18.59474,18.284229 0 0 1 0,-5.3e-4 89.082163,87.594599 0 0 1 -6.3276,2.06743 34.888236,34.305642 0 0 1 0.22402,0.66253 34.888236,34.305642 0 0 1 0.70782,3.09904 34.888236,34.305642 0 0 1 0.056,0.24663 34.888236,34.305642 0 0 1 0.42042,3.40419 34.888236,34.305642 0 0 1 0.0867,2.41353 89.082155,87.594588 0 0 0 2.62202,-0.57893 89.082155,87.594588 0 0 0 7.93107,-2.59119 89.082163,87.594599 0 0 0 0.51905,-0.16971 89.082163,87.594599 0 0 0 2.51276,-1.1056 89.082163,87.594599 0 0 0 5.61469,-2.47122 89.082163,87.594599 0 0 0 2.75463,-1.55369 89.082163,87.594599 0 0 1 -1.21279,-1.6674 89.082163,87.594599 0 0 1 -1.48444,-2.54437 34.888236,34.305642 0 0 1 -1.71485,1.20592 34.888236,34.305642 0 0 1 -3.02502,1.70586 34.888236,34.305642 0 0 1 0,-5.3e-4 34.888236,34.305642 0 0 0 3.02499,-1.70586 34.888236,34.305642 0 0 0 1.71485,-1.20593 89.082155,87.594588 0 0 1 -2.78056,-4.76603 z m -82.762822,2.60539 a 34.888236,34.305642 0 0 0 -0.73544,1.49728 34.888236,34.305642 0 0 0 -0.58111,1.56499 89.082155,87.594588 0 0 0 0.19344,1.56415 89.082155,87.594588 0 0 0 3.49386,2.10673 89.082155,87.594588 0 0 0 8.0178,3.80839 89.082155,87.594588 0 0 0 8.36423,3.00249 89.082155,87.594588 0 0 0 3.90623,0.98062 34.888239,34.305647 0 0 1 -0.0324,-0.89116 34.888239,34.305647 0 0 1 0.17429,-3.42468 34.888239,34.305647 0 0 1 0.422991,-2.75294 89.082155,87.594588 0 0 1 -2.062161,-0.30639 89.082155,87.594588 0 0 1 -8.62738,-2.1661 89.082155,87.594588 0 0 1 -8.36423,-3.00248 89.082155,87.594588 0 0 1 -4.17021,-1.9809 z m 64.790952,5.01725 a 89.082163,87.594599 0 0 1 -2.10041,0.68635 89.082163,87.594599 0 0 1 -7.59568,1.67618 89.082155,87.594588 0 0 1 -1.09292,0.24119 89.082155,87.594588 0 0 1 -8.83951,1.05503 89.082155,87.594588 0 0 1 -2.551441,0.089 89.082163,87.594599 0 0 1 -3.74851,0.1304 89.082163,87.594599 0 0 1 -3.252851,-0.16008 65.211682,64.122723 0 0 0 3.081969,1.85801 65.211682,64.122723 0 0 0 5.869343,2.78807 65.211682,64.122723 0 0 0 1.98264,0.71184 65.211682,64.122723 0 0 0 0,5.3e-4 v 0 a 65.211682,64.122723 0 0 0 4.13875,1.48557 65.211682,64.122723 0 0 1 -4.13875,-1.48516 65.211682,64.122723 0 0 0 2.8694,3.21109 89.082171,87.594604 0 0 0 1.96777,-0.0686 89.082171,87.594604 0 0 0 4.00019,-0.47735 89.082155,87.594588 0 0 0 4.83888,-0.57769 89.082155,87.594588 0 0 0 6.06532,-1.33843 34.888236,34.305642 0 0 0 -0.0867,-2.41353 34.888236,34.305642 0 0 0 -0.42041,-3.40419 34.888236,34.305642 0 0 0 -0.0562,-0.24661 34.888236,34.305642 0 0 0 -0.70781,-3.09905 34.888236,34.305642 0 0 0 -0.224,-0.66253 z m -18.24907,9.07644 a 65.211682,64.122723 0 0 1 -1.98393,-0.71225 65.211682,64.122723 0 0 1 -5.869332,-2.78807 65.211682,64.122723 0 0 1 -3.081948,-1.85801 89.082155,87.594588 0 0 1 -5.638933,-0.27754 89.082155,87.594588 0 0 1 -6.741649,-1.00195 34.888239,34.305647 0 0 0 -0.422959,2.75294 34.888239,34.305647 0 0 0 -0.174311,3.42468 34.888239,34.305647 0 0 0 0.0324,0.89116 89.082155,87.594588 0 0 0 4.72072,1.18546 89.082155,87.594588 0 0 0 8.803791,1.30834 89.082155,87.594588 0 0 0 8.893061,0.43765 89.082155,87.594588 0 0 0 4.33259,-0.15092 65.211682,64.122723 0 0 1 -2.86942,-3.21149 z m 31.07896,-7.62012 a 34.888236,34.305642 0 0 0 0,5.2e-4 34.888236,34.305642 0 0 1 -3.3094,1.08095 34.888236,34.305642 0 0 1 -0.95138,0.21024 18.59474,18.284229 0 0 0 1.02619,1.41076 18.59474,18.284229 0 0 0 1.22642,1.37312 18.59474,18.284229 0 0 1 -1.22642,-1.37312 18.59474,18.284229 0 0 1 -1.02616,-1.41076 18.59474,18.284229 0 0 0 0,-5.3e-4 18.59474,18.284229 0 0 1 -0.0544,-0.0752 18.59474,18.284229 0 0 0 0.0549,0.0752 34.888236,34.305642 0 0 0 0.95177,-0.21025 34.888236,34.305642 0 0 0 3.3094,-1.08094 z"
       style="opacity:1;fill:url(#linearGradient8885);fill-opacity:1;stroke:#fa0000;stroke-width:0.0000463;stroke-linecap:round;stroke-linejoin:miter;stroke-miterlimit:4;stroke-dasharray:none;stroke-dashoffset:0;stroke-opacity:1;paint-order:markers fill stroke"
       inkscape:connector-curvature="0" />
    <path
       id="path8857"
       d="m 55.299548,215.25803 a 34.890477,34.890477 0 0 0 -0.17556,0.48083 34.890477,34.890477 0 0 0 -0.86302,3.37933 34.890477,34.890477 0 0 0 -0.52121,3.44818 34.890477,34.890477 0 0 0 -0.17429,3.48349 34.890477,34.890477 0 0 0 0.0876,2.46784 34.890477,34.890477 0 0 0 0.42002,3.46223 34.890477,34.890477 0 0 0 0.11995,0.53396 89.087896,89.087896 0 0 0 3.36827,2.06526 89.087896,89.087896 0 0 0 4.73718,2.28845 89.087896,89.087896 0 0 0 3.28111,1.58488 89.087896,89.087896 0 0 0 8.365211,3.05367 89.087896,89.087896 0 0 0 8.628338,2.20301 89.087896,89.087896 0 0 0 3.005222,0.45403 89.087896,89.087896 0 0 0 5.8,0.8766 89.087896,89.087896 0 0 0 8.893631,0.44511 89.087896,89.087896 0 0 0 6.30205,-0.22319 89.087896,89.087896 0 0 0 8.84007,-1.07302 89.087896,89.087896 0 0 0 3.242,-0.72738 34.890477,34.890477 0 0 0 0.002,-0.001 89.087896,89.087896 0 0 0 5.43908,-1.22096 89.087896,89.087896 0 0 0 0.17726,-0.0586 65.215871,65.215871 0 0 1 -1.16952,-0.56499 65.215871,65.215871 0 0 1 -2.6749,-1.64014 34.890477,34.890477 0 0 0 0.002,-0.004 65.215871,65.215871 0 0 0 2.68,1.64355 65.215871,65.215871 0 0 0 1.16953,0.56498 89.087896,89.087896 0 0 0 8.27337,-2.74928 89.087896,89.087896 0 0 0 8.12797,-3.6378 89.087896,89.087896 0 0 0 7.72454,-4.43067 89.087896,89.087896 0 0 0 0.4719,-0.33754 34.890482,34.890482 0 0 0 0.41365,-2.73569 34.890482,34.890482 0 0 0 0.0645,-1.29152 18.595935,18.595935 0 0 1 -0.18279,0.0408 18.595935,18.595935 0 0 1 -1.84508,0.22404 18.595935,18.595935 0 0 1 -1.31531,0.0467 18.595935,18.595935 0 0 1 -1.31876,-0.0663 65.215871,65.215871 0 0 0 4.7287,-1.57125 34.890482,34.890482 0 0 0 0.0433,-0.86556 34.890482,34.890482 0 0 0 -0.0595,-1.68052 34.890482,34.890482 0 0 0 -0.0276,-0.78734 34.890482,34.890482 0 0 0 -0.42045,-3.46222 34.890482,34.890482 0 0 0 -0.70613,-3.14636 h -0.007 a 89.087896,89.087896 0 0 1 -2.94996,1.69199 89.087896,89.087896 0 0 1 -2.75482,1.5802 89.087896,89.087896 0 0 0 0,5.3e-4 89.087896,89.087896 0 0 1 -5.61504,2.51291 89.087896,89.087896 0 0 1 -2.51293,1.12446 89.087896,89.087896 0 0 1 -0.51907,0.1726 89.087896,89.087896 0 0 1 -7.93159,2.63535 89.087896,89.087896 0 0 1 -2.62215,0.58881 34.890477,34.890477 0 0 1 0,0.0135 34.890477,34.890477 0 0 1 -0.17304,3.45585 34.890477,34.890477 0 0 0 0.173,-3.45585 34.890477,34.890477 0 0 0 0,-0.0135 89.087896,89.087896 0 0 1 -6.06566,1.36125 89.087896,89.087896 0 0 1 -4.83795,0.58752 89.087896,89.087896 0 0 1 -3.99914,0.48549 89.087896,89.087896 0 0 1 -1.96789,0.0697 89.087896,89.087896 0 0 1 -4.33289,0.15347 89.087896,89.087896 0 0 1 -8.893865,-0.44504 89.087896,89.087896 0 0 1 -8.804349,-1.33065 89.087896,89.087896 0 0 1 -4.721011,-1.20565 89.087896,89.087896 0 0 1 -3.90649,-0.99736 89.087896,89.087896 0 0 1 -8.36478,-3.05367 89.087896,89.087896 0 0 1 -8.0183,-3.87334 89.087896,89.087896 0 0 1 -3.4941,-2.14263 89.087896,89.087896 0 0 1 -0.63216,-0.38727 z"
       style="opacity:1;fill:url(#linearGradient8945);fill-opacity:1;stroke:#fa0000;stroke-width:0.0000463;stroke-linecap:round;stroke-linejoin:miter;stroke-miterlimit:4;stroke-dasharray:none;stroke-dashoffset:0;stroke-opacity:1;paint-order:markers fill stroke"
       inkscape:connector-curvature="0" />
    <path
       inkscape:connector-curvature="0"
       id="path8859"
       d="m 134.1253,193.69665 a 61.897715,61.897715 0 0 1 0.23477,0.70698 52.956457,52.956457 0 0 0 0.59548,-0.1978 72.34097,72.34097 0 0 1 -0.83025,-0.50918 z"
       style="opacity:1;fill:#ff0000;fill-opacity:1;stroke:#fa0000;stroke-width:0.0000463;stroke-linecap:round;stroke-linejoin:miter;stroke-miterlimit:4;stroke-dasharray:none;stroke-opacity:1;paint-order:markers fill stroke" />
    <path
       inkscape:connector-curvature="0"
       id="path8861"
       d="m 134.1253,193.69665 a 72.34097,72.34097 0 0 0 0.83025,0.50918 52.956457,52.956457 0 0 1 -0.59548,0.1978 61.897715,61.897715 0 0 0 -0.23477,-0.70698 z"
       style="opacity:1;fill:#ff0000;fill-opacity:1;stroke:#fa0000;stroke-width:0.0000463;stroke-linecap:round;stroke-linejoin:miter;stroke-miterlimit:4;stroke-dasharray:none;stroke-opacity:1;paint-order:markers fill stroke" />
    <path
       inkscape:connector-curvature="0"
       id="path8863"
       d="m 107.70948,83.25821 a 18.595935,18.595935 0 0 0 -0.0111,0.21299 18.595935,18.595935 0 0 1 0.0111,-0.21299 z"
       style="opacity:1;fill:#ff0000;fill-opacity:1;stroke:#fa0000;stroke-width:0.0000463;stroke-linecap:round;stroke-linejoin:miter;stroke-miterlimit:4;stroke-dasharray:none;stroke-dashoffset:0;stroke-opacity:1;paint-order:markers fill stroke" />
    <path
       inkscape:connector-curvature="0"
       id="path8865"
       d="m 131.13137,197.49885 a 3.3454919,3.3454919 0 0 1 0.22787,-0.24444 3.3454919,3.3454919 0 0 0 -0.22828,0.24444 z"
       style="opacity:1;fill:#ff0000;fill-opacity:1;stroke:#fa0000;stroke-width:0.0000463;stroke-linecap:round;stroke-linejoin:miter;stroke-miterlimit:4;stroke-dasharray:none;stroke-dashoffset:0;stroke-opacity:1;paint-order:markers fill stroke" />
    <path
       inkscape:connector-curvature="0"
       id="path8867"
       d="m 133.92698,202.99106 a 3.3454919,3.3454919 0 0 1 -0.23679,0.009 3.3454919,3.3454919 0 0 1 -0.33373,-0.017 3.3454919,3.3454919 0 0 0 0.33373,0.0175 3.3454919,3.3454919 0 0 0 0.23679,-0.009 z"
       style="opacity:1;fill:#ff0000;fill-opacity:1;stroke:#fa0000;stroke-width:0.0000463;stroke-linecap:round;stroke-linejoin:miter;stroke-miterlimit:4;stroke-dasharray:none;stroke-dashoffset:0;stroke-opacity:1;paint-order:markers fill stroke" />
  </g>
</svg>
