<?xml version="1.0" encoding="UTF-8" standalone="no"?>
<!-- Created with Inkscape (http://www.inkscape.org/) -->

<svg
   xmlns:dc="http://purl.org/dc/elements/1.1/"
   xmlns:cc="http://creativecommons.org/ns#"
   xmlns:rdf="http://www.w3.org/1999/02/22-rdf-syntax-ns#"
   xmlns:svg="http://www.w3.org/2000/svg"
   xmlns="http://www.w3.org/2000/svg"
   xmlns:xlink="http://www.w3.org/1999/xlink"
   xmlns:sodipodi="http://sodipodi.sourceforge.net/DTD/sodipodi-0.dtd"
   xmlns:inkscape="http://www.inkscape.org/namespaces/inkscape"
   width="210mm"
   height="297mm"
   viewBox="0 0 210 297"
   version="1.1"
   id="svg10743"
   inkscape:version="0.92.3 (2405546, 2018-03-11)"
   sodipodi:docname="wP.svg">
  <defs
     id="defs10737">
    <radialGradient
       inkscape:collect="always"
       xlink:href="#linearGradient16859"
       id="radialGradient16861"
       cx="467.70715"
       cy="210.05817"
       fx="467.70715"
       fy="210.05817"
       r="4.0667109"
       gradientTransform="matrix(1.7776579,0,0,1.7378733,-685.53306,-147.98824)"
       gradientUnits="userSpaceOnUse" />
    <linearGradient
       inkscape:collect="always"
       id="linearGradient16859">
      <stop
         style="stop-color:#ececec;stop-opacity:1;"
         offset="0"
         id="stop16855" />
      <stop
         style="stop-color:#cccccc;stop-opacity:1"
         offset="1"
         id="stop16857" />
    </linearGradient>
    <radialGradient
       inkscape:collect="always"
       xlink:href="#linearGradient16867"
       id="radialGradient16869"
       cx="426.69781"
       cy="209.828"
       fx="426.69781"
       fy="209.828"
       r="4.0665264"
       gradientTransform="matrix(1.7776579,0,0,1.7379522,-685.53306,-148.00479)"
       gradientUnits="userSpaceOnUse" />
    <linearGradient
       inkscape:collect="always"
       id="linearGradient16867">
      <stop
         style="stop-color:#f2f2f2;stop-opacity:1;"
         offset="0"
         id="stop16863" />
      <stop
         style="stop-color:#cccccc;stop-opacity:1"
         offset="1"
         id="stop16865" />
    </linearGradient>
    <linearGradient
       gradientTransform="matrix(1.7776579,0,0,1.7378691,-685.53306,-147.98737)"
       inkscape:collect="always"
       xlink:href="#linearGradient16821"
       id="linearGradient16815"
       x1="433.73135"
       y1="172.36681"
       x2="462.44366"
       y2="172.36681"
       gradientUnits="userSpaceOnUse" />
    <linearGradient
       id="linearGradient16821"
       inkscape:collect="always">
      <stop
         id="stop16817"
         offset="0"
         style="stop-color:#e6e6e6;stop-opacity:1" />
      <stop
         id="stop16819"
         offset="1"
         style="stop-color:#666666;stop-opacity:1" />
    </linearGradient>
    <linearGradient
       gradientTransform="matrix(1.7776579,0,0,1.7378691,-685.53306,-147.98737)"
       inkscape:collect="always"
       xlink:href="#linearGradient5261"
       id="linearGradient16845"
       x1="472.23297"
       y1="219.69455"
       x2="431.21866"
       y2="219.23605"
       gradientUnits="userSpaceOnUse" />
    <linearGradient
       inkscape:collect="always"
       id="linearGradient5261">
      <stop
         style="stop-color:#808080;stop-opacity:1;"
         offset="0"
         id="stop5257" />
      <stop
         style="stop-color:#e6e6e6;stop-opacity:1"
         offset="1"
         id="stop5259" />
    </linearGradient>
    <linearGradient
       gradientTransform="matrix(1.7776579,0,0,1.7378691,-685.53306,-147.98737)"
       inkscape:collect="always"
       xlink:href="#linearGradient16807"
       id="linearGradient16813"
       x1="443.9324"
       y1="149.3365"
       x2="497.96051"
       y2="191.83237"
       gradientUnits="userSpaceOnUse" />
    <linearGradient
       inkscape:collect="always"
       id="linearGradient16807">
      <stop
         style="stop-color:#e6e6e6;stop-opacity:1;"
         offset="0"
         id="stop16803" />
      <stop
         style="stop-color:#333333;stop-opacity:1"
         offset="1"
         id="stop16805" />
    </linearGradient>
    <linearGradient
       gradientTransform="matrix(1.7776579,0,0,1.7378691,-685.53306,-147.98737)"
       inkscape:collect="always"
       xlink:href="#linearGradient16827"
       id="linearGradient16829"
       x1="457.35703"
       y1="169.69981"
       x2="394.87659"
       y2="278.98779"
       gradientUnits="userSpaceOnUse" />
    <linearGradient
       inkscape:collect="always"
       id="linearGradient16827">
      <stop
         style="stop-color:#b3b3b3;stop-opacity:1"
         offset="0"
         id="stop16823" />
      <stop
         style="stop-color:#ececec;stop-opacity:0;"
         offset="1"
         id="stop16825" />
    </linearGradient>
    <linearGradient
       gradientTransform="matrix(1.7776579,0,0,1.7378691,-685.53306,-147.98737)"
       inkscape:collect="always"
       xlink:href="#linearGradient16837"
       id="linearGradient16831"
       x1="449.56216"
       y1="167.03279"
       x2="448.211"
       y2="214.41371"
       gradientUnits="userSpaceOnUse" />
    <linearGradient
       inkscape:collect="always"
       id="linearGradient16837">
      <stop
         style="stop-color:#b3b3b3;stop-opacity:1"
         offset="0"
         id="stop16833" />
      <stop
         style="stop-color:#e6e6e6;stop-opacity:1"
         offset="1"
         id="stop16835" />
    </linearGradient>
    <linearGradient
       gradientTransform="matrix(1.7776579,0,0,1.7378691,-685.53306,-147.98737)"
       inkscape:collect="always"
       xlink:href="#linearGradient16851"
       id="linearGradient16853"
       x1="473.18213"
       y1="221.87726"
       x2="430.14957"
       y2="222.17603"
       gradientUnits="userSpaceOnUse" />
    <linearGradient
       inkscape:collect="always"
       id="linearGradient16851">
      <stop
         style="stop-color:#666666;stop-opacity:1"
         offset="0"
         id="stop16847" />
      <stop
         style="stop-color:#cccccc;stop-opacity:1"
         offset="1"
         id="stop16849" />
    </linearGradient>
  </defs>
  <sodipodi:namedview
     id="base"
     pagecolor="#ffffff"
     bordercolor="#666666"
     borderopacity="1.0"
     inkscape:pageopacity="0.0"
     inkscape:pageshadow="2"
     inkscape:zoom="0.35"
     inkscape:cx="-388.31271"
     inkscape:cy="337.64212"
     inkscape:document-units="mm"
     inkscape:current-layer="layer1"
     showgrid="false"
     inkscape:window-width="1920"
     inkscape:window-height="1017"
     inkscape:window-x="0"
     inkscape:window-y="0"
     inkscape:window-maximized="1" />
  <metadata
     id="metadata10740">
    <rdf:RDF>
      <cc:Work
         rdf:about="">
        <dc:format>image/svg+xml</dc:format>
        <dc:type
           rdf:resource="http://purl.org/dc/dcmitype/StillImage" />
        <dc:title />
      </cc:Work>
    </rdf:RDF>
  </metadata>
  <g
     inkscape:label="Layer 1"
     inkscape:groupmode="layer"
     id="layer1">
    <path
       style="opacity:1;vector-effect:none;fill:url(#linearGradient16853);fill-opacity:1;stroke:#fa0000;stroke-width:0.0000463;stroke-linecap:round;stroke-linejoin:miter;stroke-miterlimit:4;stroke-dasharray:none;stroke-dashoffset:0;stroke-opacity:1;paint-order:markers fill stroke"
       d="m 61.188048,233.43128 a 14.099421,13.259925 0 0 0 0.60259,0.98607 14.099421,13.259925 0 0 0 0.81929,1.07863 14.099421,13.259925 0 0 0 0.73724,0.7894 14.099421,13.259925 0 0 0 -0.2139,0.1769 14.099421,13.259925 0 0 0 -0.96068,0.9699 14.099421,13.259925 0 0 0 -0.85273,1.0552 14.099421,13.259925 0 0 0 -0.73721,1.1298 14.099421,13.259925 0 0 0 -0.61304,1.19359 14.099421,13.259925 0 0 0 -0.48321,1.24471 14.099421,13.259925 0 0 0 -0.34856,1.2842 14.099421,13.259925 0 0 0 -0.12319,0.7661 14.099421,13.259925 0 0 0 -0.0878,0.5442 14.099421,13.259925 0 0 0 -0.0697,1.3237 14.099421,13.259925 0 0 0 0.0352,0.93849 14.099421,13.259925 0 0 0 0.16905,1.31571 14.099421,13.259925 0 0 0 0.0946,0.3951 171.22272,161.02793 0 0 0 1.26621,0.4347 171.22272,161.02793 0 0 0 16.58328,3.982 171.22272,161.02793 0 0 0 7.11131,1.01039 171.22272,161.02793 0 0 0 9.811895,1.39471 171.22272,161.02793 0 0 0 17.093137,0.8046 171.22272,161.02793 0 0 0 12.11232,-0.4032 171.22272,161.02793 0 0 0 13.02328,-1.4872 171.22272,161.02793 0 0 0 3.96677,-0.4526 171.22272,161.02793 0 0 0 16.6997,-3.5249 171.22272,161.02793 0 0 0 0.26168,-0.082 14.099421,13.259925 0 0 0 0.046,-0.07 14.099421,13.259925 0 0 0 0.61307,-1.1936 14.099421,13.259925 0 0 0 0.48319,-1.2456 14.099421,13.259925 0 0 0 0.34855,-1.2842 14.099421,13.259925 0 0 0 0.21103,-1.3103 14.099421,13.259925 0 0 0 0.0697,-1.32381 14.099421,13.259925 0 0 0 -0.0352,-0.93839 14.099421,13.259925 0 0 0 -0.16905,-1.3157 14.099421,13.259925 0 0 0 -0.30938,-1.2932 14.099421,13.259925 0 0 0 -0.44404,-1.2573 14.099421,13.259925 0 0 0 -0.57581,-1.2097 14.099421,13.259925 0 0 0 -0.56437,-0.92681 14.099421,13.259925 0 0 0 -0.13652,-0.2237 14.099421,13.259925 0 0 0 -0.8203,-1.07759 14.099421,13.259925 0 0 0 -0.48033,-0.5146 14.099421,13.259925 0 0 0 -0.44981,-0.4814 14.099421,13.259925 0 0 0 -0.93677,-0.82084 146.48923,137.7671 0 0 1 -1.59566,0.49843 146.48923,137.7671 0 0 1 -4.9255,1.5393 146.48923,137.7671 0 0 1 -12.41118,2.6196 146.48923,137.7671 0 0 1 -1.87642,0.3961 146.48923,137.7671 0 0 1 -1.48208,0.16881 146.48923,137.7671 0 0 1 -13.05385,1.4908 146.48923,137.7671 0 0 1 -10.36191,0.3448 146.48923,137.7671 0 0 1 -14.624677,-0.6879 146.48923,137.7671 0 0 1 -8.700305,-1.2367 146.48923,137.7671 0 0 1 -3.65929,-0.52 146.48923,137.7671 0 0 1 -2.11899,-0.30081 146.48923,137.7671 0 0 1 -7.51811,-1.80509 146.48923,137.7671 0 0 1 -6.26718,-1.50521 146.48923,137.7671 0 0 1 -0.402,-0.097 146.48923,137.7671 0 0 1 -3.75003,-1.2869 z"
       id="path15524-9"
       inkscape:connector-curvature="0" />
    <path
       style="opacity:1;vector-effect:none;fill:url(#linearGradient16831);fill-opacity:1;stroke:#fa0000;stroke-width:0.0000463;stroke-linecap:round;stroke-linejoin:miter;stroke-miterlimit:4;stroke-dasharray:none;stroke-dashoffset:0;stroke-opacity:1;paint-order:markers fill stroke"
       d="m 114.07837,142.46129 a 33.973643,27.728495 0 0 1 -0.46506,0.0857 33.973643,27.728495 0 0 1 -3.37079,0.3333 33.973643,27.728495 0 0 1 -2.40394,0.0695 33.973643,27.728495 0 0 1 -2.82597,-0.11488 15.499678,12.650475 0 0 0 -0.043,0.0377 15.499678,12.650475 0 0 0 -0.93849,1.00673 15.499678,12.650475 0 0 0 -0.80938,1.07868 15.499678,12.650475 0 0 0 -0.67396,1.13869 15.499678,12.650475 0 0 0 -0.39575,0.88423 219.9847,179.54638 0 0 1 1.45285,-0.0419 219.9847,179.54638 0 0 1 14.72192,0.60146 15.499678,12.650475 0 0 0 -0.0871,-0.21505 15.499678,12.650475 0 0 0 -0.63296,-1.15495 15.499678,12.650475 0 0 0 -0.77054,-1.0967 15.499678,12.650475 0 0 0 -0.90174,-1.02815 15.499678,12.650475 0 0 0 -1.02249,-0.95019 15.499678,12.650475 0 0 0 -0.83347,-0.63401 z m -10.948,14.87645 a 100.76453,82.24166 0 0 1 0.0524,0.12842 100.76453,82.24166 0 0 1 1.93681,7.03855 100.76453,82.24166 0 0 1 0.26974,0.98275 100.76453,82.24166 0 0 1 1.21359,8.16093 100.76453,82.24166 0 0 1 0.25193,5.81762 100.76453,82.24166 0 0 1 -0.50283,8.20979 100.76453,82.24166 0 0 1 -1.50537,8.12835 100.76453,82.24166 0 0 1 -2.49214,7.96562 100.76453,82.24166 0 0 1 -0.57314,1.28261 100.76453,82.24166 0 0 1 -2.88058,6.43966 100.76453,82.24166 0 0 1 -4.380637,7.40265 100.76453,82.24166 0 0 1 -5.264569,7.00773 100.76453,82.24166 0 0 1 -1.540027,1.65359 137.75904,112.43571 0 0 0 9.046886,1.11556 137.75904,112.43571 0 0 0 13.752927,0.5612 137.75904,112.43571 0 0 0 9.74391,-0.28103 137.75904,112.43571 0 0 0 13.67001,-1.35459 137.75904,112.43571 0 0 0 2.66428,-0.48838 15.499678,12.650475 0 0 1 0.36217,-0.31701 15.499678,12.650475 0 0 1 0.2047,-0.1465 100.76453,82.24166 0 0 1 -1.15266,-1.07098 100.76453,82.24166 0 0 1 -5.85868,-6.6864 100.76453,82.24166 0 0 1 -5.01161,-7.13108 100.76453,82.24166 0 0 1 -3.50727,-6.39597 100.76453,82.24166 0 0 1 -0.60778,-1.10781 100.76453,82.24166 0 0 1 -3.17554,-7.8011 100.76453,82.24166 0 0 1 -2.20552,-8.0213 100.76453,82.24166 0 0 1 -1.2146,-8.16095 100.76453,82.24166 0 0 1 -0.25198,-5.81761 100.76453,82.24166 0 0 1 0.50286,-8.21063 100.76453,82.24166 0 0 1 0.49022,-2.64578 100.76453,82.24166 0 0 1 0.69809,-3.77075 100.76453,82.24166 0 0 1 0.31706,-1.71185 100.76453,82.24166 0 0 1 0.22885,-0.73258 219.98469,179.54637 0 0 1 -12.99502,-0.0419 219.98469,179.54637 0 0 1 -0.28659,-0.001 z"
       id="path15478-3"
       inkscape:connector-curvature="0" />
    <path
       style="opacity:1;vector-effect:none;fill:url(#linearGradient16829);fill-opacity:1;stroke:#fa0000;stroke-width:0.0000463;stroke-linecap:round;stroke-linejoin:miter;stroke-miterlimit:4;stroke-dasharray:none;stroke-dashoffset:0;stroke-opacity:1;paint-order:markers fill stroke"
       d="m 133.91006,128.87632 a 29.729779,27.756779 0 0 1 -1.19694,1.82254 29.729779,27.756779 0 0 1 -1.79868,2.20851 29.729779,27.756779 0 0 1 -2.02561,2.03011 29.729779,27.756779 0 0 1 -2.23223,1.83109 29.729779,27.756779 0 0 1 -2.41787,1.61412 29.729779,27.756779 0 0 1 -2.14774,1.15013 88.177394,82.325554 0 0 0 -0.007,0.0121 13.563514,12.663381 0 0 0 -0.008,-0.003 29.729779,27.756779 0 0 1 -0.41521,0.22214 29.729779,27.756779 0 0 1 -2.71273,1.13297 29.729779,27.756779 0 0 1 -2.8193,0.87481 29.729779,27.756779 0 0 1 -2.49313,0.52232 13.563514,12.663381 0 0 1 0.72935,0.63467 13.563514,12.663381 0 0 1 0.89479,0.95118 13.563514,12.663381 0 0 1 0.78908,1.0292 13.563514,12.663381 0 0 1 0.67428,1.09778 13.563514,12.663381 0 0 1 0.5539,1.15614 13.563514,12.663381 0 0 1 0.0763,0.21528 192.50501,179.72953 0 0 1 1.30165,0.061 192.50499,179.72951 0 0 1 5.03413,0.235 192.50499,179.72951 0 0 1 3.60011,0.50772 88.177394,82.325554 0 0 1 0.20301,-1.25303 88.177394,82.325554 0 0 1 0.5374,-1.96578 88.177394,82.325554 0 0 1 1.64253,-6.0071 88.177394,82.325554 0 0 1 3.02224,-7.73099 88.177394,82.325554 0 0 1 1.21536,-2.34829 z m -43.658786,8.25076 a 88.177394,82.325554 0 0 1 0.52451,1.47348 88.177394,82.325554 0 0 1 1.783099,7.41451 88.177394,82.325554 0 0 1 0.1479,0.61495 88.177394,82.325554 0 0 1 0.069,0.53262 192.50499,179.72951 0 0 1 7.307697,-0.24188 192.50499,179.72951 0 0 1 3.11599,-0.10287 13.563514,12.663381 0 0 1 0.34632,-0.88508 13.563514,12.663381 0 0 1 0.58976,-1.13986 13.563514,12.663381 0 0 1 0.70827,-1.0798 13.563514,12.663381 0 0 1 0.82126,-1.00774 13.563514,12.663381 0 0 1 0.0377,-0.0377 29.729779,27.756779 0 0 1 -0.49517,-0.0231 29.729779,27.756779 0 0 1 -2.93778,-0.4151 29.729779,27.756779 0 0 1 -2.87989,-0.68616 29.729779,27.756779 0 0 1 -1.78398,-0.60806 13.563514,12.663381 0 0 0 -0.29853,0.15953 13.563514,12.663381 0 0 0 -0.0974,0.0652 88.177394,82.325554 0 0 0 -0.280177,-0.45541 29.729779,27.756779 0 0 1 -0.33071,-0.11245 29.729779,27.756779 0 0 1 -2.67598,-1.20673 29.729779,27.756779 0 0 1 -2.533569,-1.45034 29.729779,27.756779 0 0 1 -1.13817,-0.80789 z m 3.572549,19.12682 a 88.177394,82.325554 0 0 1 0.12407,3.28655 88.177394,82.325554 0 0 1 0.0414,1.08239 88.177394,82.325554 0 0 1 -0.44004,8.21815 88.177394,82.325554 0 0 1 -1.31733,8.13752 88.177394,82.325554 0 0 1 -2.180819,7.97289 88.177394,82.325554 0 0 1 -3.022298,7.73015 88.177394,82.325554 0 0 1 -3.83339,7.41021 88.177394,82.325554 0 0 1 -4.60698,7.01573 88.177394,82.325554 0 0 1 -0.005,0.007 88.177394,82.325554 0 0 1 -2.77153,3.40405 7.2290845,6.7493309 0 0 1 0.0569,0.0403 7.2290845,6.7493309 0 0 1 0.52825,0.45973 7.2290845,6.7493309 0 0 1 0.47673,0.50686 7.2290845,6.7493309 0 0 1 0.42077,0.54891 7.2290845,6.7493309 0 0 1 0.35919,0.58492 7.2290845,6.7493309 0 0 1 0.29579,0.61581 7.2290845,6.7493309 0 0 1 0.22779,0.63983 7.2290845,6.7493309 0 0 1 0.15803,0.65867 7.2290845,6.7493309 0 0 1 0.0873,0.66984 7.2290845,6.7493309 0 0 1 0.0178,0.47688 7.2290845,6.7493309 0 0 1 -0.0357,0.67412 7.2290845,6.7493309 0 0 1 -0.10755,0.66725 7.2290845,6.7493309 0 0 1 -0.1791,0.65353 7.2290845,6.7493309 0 0 1 -0.24805,0.63383 7.2290845,6.7493309 0 0 1 -0.31415,0.60721 7.2290845,6.7493309 0 0 1 -0.37759,0.5755 7.2290845,6.7493309 0 0 1 -0.43727,0.53693 7.2290845,6.7493309 0 0 1 -0.49236,0.49401 7.2290845,6.7493309 0 0 1 -0.54291,0.44511 7.2290845,6.7493309 0 0 1 -0.58791,0.39195 7.2290845,6.7493309 0 0 1 -0.62655,0.33624 7.2290845,6.7493309 0 0 1 -0.65955,0.27527 7.2290845,6.7493309 0 0 1 -0.68623,0.21272 7.2290845,6.7493309 0 0 1 -0.70455,0.14755 7.2290845,6.7493309 0 0 1 -0.71747,0.0815 7.2290845,6.7493309 0 0 1 -0.51168,0.0174 7.2290845,6.7493309 0 0 1 -0.72206,-0.0335 7.2290845,6.7493309 0 0 1 -0.71373,-0.10119 7.2290845,6.7493309 0 0 1 -0.46484,-0.1107 120.55068,112.55041 0 0 0 2.55652,0.87138 13.563514,12.663381 0 0 1 0.41888,-0.13035 13.563514,12.663381 0 0 1 1.32283,-0.27702 13.563514,12.663381 0 0 1 1.34672,-0.15276 13.563514,12.663381 0 0 1 0.95906,-0.0316 13.563514,12.663381 0 0 1 1.35406,0.0634 13.563514,12.663381 0 0 1 1.34028,0.18867 13.563514,12.663381 0 0 1 1.31366,0.31305 13.563514,12.663381 0 0 1 1.27415,0.434 13.563514,12.663381 0 0 1 1.22086,0.55061 13.563514,12.663381 0 0 1 1.15562,0.6621 13.563514,12.663381 0 0 1 1.07937,0.7659 13.563514,12.663381 0 0 1 0.992139,0.86283 13.563514,12.663381 0 0 1 0.41983,0.44596 120.55068,112.55041 0 0 0 0.503391,0.12026 120.55068,112.55041 0 0 0 3.998768,0.56432 88.177394,82.325554 0 0 0 1.347659,-1.65527 88.177394,82.325554 0 0 0 4.60692,-7.01487 88.177394,82.325554 0 0 0 3.833457,-7.4102 88.177394,82.325554 0 0 0 2.52073,-6.44623 88.177394,82.325554 0 0 0 0.50157,-1.28394 88.177394,82.325554 0 0 0 2.18082,-7.9737 88.177394,82.325554 0 0 0 1.31732,-8.13669 88.177394,82.325554 0 0 0 0.44001,-8.21817 88.177394,82.325554 0 0 0 -0.22044,-5.82355 88.177394,82.325554 0 0 0 -1.06199,-8.16926 88.177394,82.325554 0 0 0 -0.23605,-0.98375 88.177394,82.325554 0 0 0 -1.69489,-7.04573 88.177394,82.325554 0 0 0 -0.0458,-0.1286 192.50497,179.7295 0 0 1 -0.69629,-0.003 192.50497,179.7295 0 0 1 -9.535407,-0.92879 z m 32.250367,0.68783 a 192.50499,179.72951 0 0 1 -3.47243,0.31221 192.50499,179.72951 0 0 1 -5.75798,-0.0213 13.563514,12.663381 0 0 1 -0.30501,0.58919 13.563514,12.663381 0 0 1 -0.70822,1.0798 13.563514,12.663381 0 0 1 -0.63023,0.77364 88.177394,82.325554 0 0 0 -0.61087,3.77459 88.177394,82.325554 0 0 0 -0.42899,2.64847 88.177394,82.325554 0 0 0 -0.44006,8.21899 88.177394,82.325554 0 0 0 0.2205,5.82356 88.177394,82.325554 0 0 0 1.06288,8.16927 88.177394,82.325554 0 0 0 1.93002,8.02947 88.177394,82.325554 0 0 0 2.77887,7.80908 88.177394,82.325554 0 0 0 0.53186,1.10892 88.177394,82.325554 0 0 0 3.06914,6.40248 88.177394,82.325554 0 0 0 4.38558,7.13837 88.177394,82.325554 0 0 0 5.12683,6.69324 88.177394,82.325554 0 0 0 1.00868,1.07208 13.563514,12.663381 0 0 1 0.83961,-0.68874 13.563514,12.663381 0 0 1 1.10238,-0.73585 13.563514,12.663381 0 0 1 1.17586,-0.62954 13.563514,12.663381 0 0 1 1.2383,-0.51718 13.563514,12.663381 0 0 1 1.28609,-0.39966 13.563514,12.663381 0 0 1 1.32282,-0.277 13.563514,12.663381 0 0 1 1.34581,-0.15276 13.563514,12.663381 0 0 1 0.95995,-0.0316 13.563514,12.663381 0 0 1 1.35405,0.0634 13.563514,12.663381 0 0 1 1.34027,0.18958 13.563514,12.663381 0 0 1 1.31367,0.31303 13.563514,12.663381 0 0 1 0.008,0.003 120.55068,112.55041 0 0 0 5.19854,-1.61326 88.177394,82.325554 0 0 1 -0.97378,-0.84651 7.2290845,6.7493309 0 0 1 -0.23792,0.15866 7.2290845,6.7493309 0 0 1 -0.62648,0.33622 7.2290845,6.7493309 0 0 1 -0.65959,0.2753 7.2290845,6.7493309 0 0 1 -0.68528,0.21271 7.2290845,6.7493309 0 0 1 -0.70551,0.14752 7.2290845,6.7493309 0 0 1 -0.71746,0.0815 7.2290845,6.7493309 0 0 1 -0.51072,0.0174 7.2290845,6.7493309 0 0 1 -0.72208,-0.0335 7.2290845,6.7493309 0 0 1 -0.71469,-0.10118 7.2290845,6.7493309 0 0 1 -0.7,-0.16718 7.2290845,6.7493309 0 0 1 -0.67889,-0.23073 7.2290845,6.7493309 0 0 1 -0.65038,-0.29333 7.2290845,6.7493309 0 0 1 -0.6164,-0.35336 7.2290845,6.7493309 0 0 1 -0.57505,-0.40822 7.2290845,6.7493309 0 0 1 -0.52914,-0.45973 7.2290845,6.7493309 0 0 1 -0.47679,-0.5069 7.2290845,6.7493309 0 0 1 -0.41977,-0.54888 7.2290845,6.7493309 0 0 1 -0.36015,-0.58493 7.2290845,6.7493309 0 0 1 -0.29486,-0.6158 7.2290845,6.7493309 0 0 1 -0.22781,-0.64069 7.2290845,6.7493309 0 0 1 -0.15803,-0.65781 7.2290845,6.7493309 0 0 1 -0.0873,-0.66985 7.2290845,6.7493309 0 0 1 -0.0183,-0.47772 7.2290845,6.7493309 0 0 1 0.0357,-0.67327 7.2290845,6.7493309 0 0 1 0.10844,-0.66725 7.2290845,6.7493309 0 0 1 0.17915,-0.65358 7.2290845,6.7493309 0 0 1 0.24708,-0.63377 7.2290845,6.7493309 0 0 1 0.31512,-0.60725 7.2290845,6.7493309 0 0 1 0.37755,-0.57547 7.2290845,6.7493309 0 0 1 0.43726,-0.53691 7.2290845,6.7493309 0 0 1 0.45289,-0.45458 88.177394,82.325554 0 0 1 -2.41509,-3.15363 88.177394,82.325554 0 0 1 -0.35547,-0.57891 88.177394,82.325554 0 0 1 -4.03006,-6.5586 88.177394,82.325554 0 0 1 -3.60011,-7.51143 88.177394,82.325554 0 0 1 -2.7798,-7.80903 88.177394,82.325554 0 0 1 -1.93003,-8.02949 88.177394,82.325554 0 0 1 -1.06195,-8.16927 88.177394,82.325554 0 0 1 -0.22137,-5.82355 88.177394,82.325554 0 0 1 0.20305,-3.78659 88.177394,82.325554 0 0 1 0.13688,-2.55584 z"
       id="path15482-7"
       inkscape:connector-curvature="0" />
    <path
       id="path15634-0"
       style="opacity:1;vector-effect:none;fill:url(#linearGradient16813);fill-opacity:1;stroke:#fa0000;stroke-width:0.0000463;stroke-linecap:round;stroke-linejoin:miter;stroke-miterlimit:4;stroke-dasharray:none;stroke-dashoffset:0;stroke-opacity:1;paint-order:markers fill stroke"
       d="m 97.65265,91.384687 a 13.563514,13.259925 0 0 0 -0.958997,0.0332 13.563514,13.259925 0 0 0 -1.34674,0.15988 13.563514,13.259925 0 0 0 -1.32283,0.290078 13.563514,13.259925 0 0 0 -1.28608,0.4185 13.563514,13.259925 0 0 0 -1.237369,0.54064 13.563514,13.259925 0 0 0 -1.17586,0.66007 13.563514,13.259925 0 0 0 -1.10327,0.77054 13.563514,13.259925 0 0 0 -1.018785,0.87472 13.563514,13.259925 0 0 0 -0.924131,0.96992 13.563514,13.259925 0 0 0 -0.820309,1.05524 13.563514,13.259925 0 0 0 -0.708282,1.12977 13.563514,13.259925 0 0 0 -0.589749,1.193531 13.563514,13.259925 0 0 0 -0.46485,1.245634 13.563514,13.259925 0 0 0 -0.3362,1.28424 13.563514,13.259925 0 0 0 -0.20211,1.31028 13.563514,13.259925 0 0 0 -0.0681,1.32375 13.563514,13.259925 0 0 0 0.0339,0.93758 13.563514,13.259925 0 0 0 0.16355,1.31657 13.563514,13.259925 0 0 0 0.29668,1.29323 13.563514,13.259925 0 0 0 0.4281,1.25729 13.563514,13.259925 0 0 0 0.553031,1.2097 13.563514,13.259925 0 0 0 0.675169,1.15042 13.563514,13.259925 0 0 0 0.788189,1.07769 13.563514,13.259925 0 0 0 0.89472,0.99594 13.563514,13.259925 0 0 0 0.992147,0.90348 13.563514,13.259925 0 0 0 1.07937,0.80196 13.563514,13.259925 0 0 0 1.15568,0.69242 13.563514,13.259925 0 0 0 1.220839,0.57655 13.563514,13.259925 0 0 0 1.27417,0.45442 13.563514,13.259925 0 0 0 1.31359,0.3287 13.563514,13.259925 0 0 0 1.34026,0.19758 13.563514,13.259925 0 0 0 1.354067,0.0665 13.563514,13.259925 0 0 0 0.95908,-0.0332 13.563514,13.259925 0 0 0 1.3467,-0.15989 13.563514,13.259925 0 0 0 1.32284,-0.29006 13.563514,13.259925 0 0 0 1.28608,-0.41763 13.563514,13.259925 0 0 0 1.23738,-0.54154 13.563514,13.259925 0 0 0 1.17679,-0.66008 13.563514,13.259925 0 0 0 1.10234,-0.77053 13.563514,13.259925 0 0 0 1.01875,-0.87472 13.563514,13.259925 0 0 0 0.92417,-0.96992 13.563514,13.259925 0 0 0 0.82033,-1.05522 13.563514,13.259925 0 0 0 0.70826,-1.12976 13.563514,13.259925 0 0 0 0.58977,-1.19356 13.563514,13.259925 0 0 0 0.46571,-1.24561 13.563514,13.259925 0 0 0 0.33533,-1.28424 13.563514,13.259925 0 0 0 0.20209,-1.31029 13.563514,13.259925 0 0 0 0.0679,-1.32375 13.563514,13.259925 0 0 0 -0.0339,-0.93757 13.563514,13.259925 0 0 0 -0.16354,-1.31659 13.563514,13.259925 0 0 0 -0.29677,-1.29321 13.563514,13.259925 0 0 0 -0.42715,-1.257304 13.563514,13.259925 0 0 0 -0.55392,-1.2097 13.563514,13.259925 0 0 0 -0.67518,-1.150431 13.563514,13.259925 0 0 0 -0.78818,-1.07768 13.563514,13.259925 0 0 0 -0.89479,-0.99595 13.563514,13.259925 0 0 0 -0.99208,-0.90347 13.563514,13.259925 0 0 0 -1.07944,-0.80197 13.563514,13.259925 0 0 0 -1.15561,-0.69242 13.563514,13.259925 0 0 0 -1.22087,-0.57656 13.563514,13.259925 0 0 0 -1.27412,-0.45441 13.563514,13.259925 0 0 0 -1.31362,-0.328708 13.563514,13.259925 0 0 0 -1.34032,-0.19756 13.563514,13.259925 0 0 0 -1.35406,-0.0663 z m 10.52293,-6.12214 a 29.729777,29.064344 0 0 0 -2.10273,0.0728 29.729777,29.064344 0 0 0 -2.94974,0.35025 29.729777,29.064344 0 0 0 -2.90011,0.63584 29.729777,29.064344 0 0 0 -2.82021,0.91693 29.729777,29.064344 0 0 0 -2.711767,1.18633 29.729777,29.064344 0 0 0 -2.57769,1.44589 29.729777,29.064344 0 0 0 -2.417809,1.68927 29.729777,29.064344 0 0 0 -2.232265,1.917388 29.729777,29.064344 0 0 0 -2.025621,2.12572 29.729777,29.064344 0 0 0 -1.79867,2.31342 29.729777,29.064344 0 0 0 -1.55338,2.476895 29.729777,29.064344 0 0 0 -1.29254,2.61518 29.729777,29.064344 0 0 0 -1.01875,2.72923 29.729777,29.064344 0 0 0 -0.73579,2.81545 29.729777,29.064344 0 0 0 -0.44372,2.87201 29.729777,29.064344 0 0 0 -0.10204,1.99463 29.729777,29.064344 0 0 0 -0.0469,0.90704 29.729777,29.064344 0 0 0 0.0745,2.05657 29.729777,29.064344 0 0 0 0.23794,1.91469 29.729777,29.064344 0 0 0 0.12035,0.96903 29.729777,29.064344 0 0 0 0.65133,2.8343 29.729777,29.064344 0 0 0 0.937,2.75707 29.729777,29.064344 0 0 0 1.21352,2.652 29.729777,29.064344 0 0 0 1.47898,2.51998 29.729777,29.064344 0 0 0 1.72794,2.36371 29.729777,29.064344 0 0 0 1.9622,2.18233 29.729777,29.064344 0 0 0 2.174366,1.98021 29.729777,29.064344 0 0 0 1.22731,0.91245 29.729777,29.064344 0 0 0 1.13816,0.846 29.729777,29.064344 0 0 0 2.533589,1.51863 29.729777,29.064344 0 0 0 2.67598,1.26357 29.729777,29.064344 0 0 0 0.33069,0.11766 29.729777,29.064344 0 0 0 0.676107,0.24155 29.729779,29.064344 0 0 0 1.784,0.63673 29.729779,29.064344 0 0 0 2.87991,0.71849 29.729779,29.064344 0 0 0 2.93776,0.43464 29.729779,29.064344 0 0 0 0.49517,0.0242 29.729779,29.064344 0 0 0 2.47295,0.12043 29.729779,29.064344 0 0 0 2.10364,-0.0728 29.729779,29.064344 0 0 0 2.94972,-0.34935 29.729779,29.064344 0 0 0 0.40699,-0.0899 29.729779,29.064344 0 0 0 2.49312,-0.54693 29.729779,29.064344 0 0 0 2.81933,-0.91603 29.729779,29.064344 0 0 0 2.71272,-1.18635 29.729779,29.064344 0 0 0 0.4152,-0.23258 29.729777,29.064344 0 0 0 0.0142,-0.008 29.729777,29.064344 0 0 0 2.14773,-1.20434 29.729777,29.064344 0 0 0 2.41788,-1.69015 29.729777,29.064344 0 0 0 2.23225,-1.91736 29.729777,29.064344 0 0 0 2.0256,-2.12574 29.729777,29.064344 0 0 0 1.79866,-2.31253 29.729777,29.064344 0 0 0 1.19696,-1.90841 88.177394,86.203745 0 0 1 1.88136,-3.806 29.729777,29.064344 0 0 0 0.78636,-2.10778 29.729777,29.064344 0 0 0 0.73492,-2.81455 29.729777,29.064344 0 0 0 0.41059,-2.65289 29.729777,29.064344 0 0 0 0.0339,-0.22003 29.729777,29.064344 0 0 0 0.1488,-2.90164 29.729777,29.064344 0 0 0 -0.0745,-2.0557 29.729777,29.064344 0 0 0 -0.35825,-2.88369 29.729777,29.064344 0 0 0 -0.65133,-2.83519 29.729777,29.064344 0 0 0 -0.93705,-2.75708 29.729777,29.064344 0 0 0 -1.21344,-2.65199 29.729777,29.064344 0 0 0 -1.47905,-2.519984 29.729777,29.064344 0 0 0 -1.72883,-2.362841 29.729777,29.064344 0 0 0 -1.9613,-2.1823 29.729777,29.064344 0 0 0 -2.17438,-1.98024 29.729777,29.064344 0 0 0 -2.36549,-1.758418 29.729777,29.064344 0 0 0 -2.53355,-1.51863 29.729777,29.064344 0 0 0 -2.67601,-1.26362 29.729777,29.064344 0 0 0 -2.79169,-0.99597 29.729777,29.064344 0 0 0 -2.87899,-0.71934 29.729777,29.064344 0 0 0 -2.93874,-0.43377 29.729777,29.064344 0 0 0 -2.96807,-0.14547 z m -10.52293,6.12214 a 13.563514,13.259925 0 0 1 1.35406,0.0663 13.563514,13.259925 0 0 1 1.34032,0.19755 13.563514,13.259925 0 0 1 1.31363,0.328708 13.563514,13.259925 0 0 1 1.27413,0.45442 13.563514,13.259925 0 0 1 1.22085,0.57655 13.563514,13.259925 0 0 1 1.15562,0.69242 13.563514,13.259925 0 0 1 1.07944,0.80197 13.563514,13.259925 0 0 1 0.99208,0.90347 13.563514,13.259925 0 0 1 0.89477,0.99595 13.563514,13.259925 0 0 1 0.78821,1.07767 13.563514,13.259925 0 0 1 0.67516,1.150441 13.563514,13.259925 0 0 1 0.55393,1.2097 13.563514,13.259925 0 0 1 0.42714,1.257304 13.563514,13.259925 0 0 1 0.29676,1.29322 13.563514,13.259925 0 0 1 0.16353,1.31658 13.563514,13.259925 0 0 1 0.0339,0.93757 13.563514,13.259925 0 0 1 -0.0679,1.32375 13.563514,13.259925 0 0 1 -0.20209,1.31029 13.563514,13.259925 0 0 1 -0.33533,1.28423 13.563514,13.259925 0 0 1 -0.46572,1.24562 13.563514,13.259925 0 0 1 -0.58976,1.19356 13.563514,13.259925 0 0 1 -0.70827,1.12977 13.563514,13.259925 0 0 1 -0.82032,1.05522 13.563514,13.259925 0 0 1 -0.92417,0.96992 13.563514,13.259925 0 0 1 -1.01876,0.87471 13.563514,13.259925 0 0 1 -1.10233,0.77053 13.563514,13.259925 0 0 1 -1.17679,0.66008 13.563514,13.259925 0 0 1 -1.23737,0.54153 13.563514,13.259925 0 0 1 -1.28608,0.41764 13.563514,13.259925 0 0 1 -1.32284,0.29007 13.563514,13.259925 0 0 1 -1.34672,0.15988 13.563514,13.259925 0 0 1 -0.95907,0.0332 13.563514,13.259925 0 0 1 -1.354067,-0.0665 13.563514,13.259925 0 0 1 -1.34026,-0.19756 13.563514,13.259925 0 0 1 -1.3136,-0.32872 13.563514,13.259925 0 0 1 -1.27416,-0.45442 13.563514,13.259925 0 0 1 -1.220849,-0.57655 13.563514,13.259925 0 0 1 -1.15567,-0.69242 13.563514,13.259925 0 0 1 -1.07937,-0.80196 13.563514,13.259925 0 0 1 -0.992146,-0.90347 13.563514,13.259925 0 0 1 -0.894721,-0.99595 13.563514,13.259925 0 0 1 -0.78818,-1.07768 13.563514,13.259925 0 0 1 -0.67518,-1.15043 13.563514,13.259925 0 0 1 -0.55303,-1.2097 13.563514,13.259925 0 0 1 -0.4281,-1.2573 13.563514,13.259925 0 0 1 -0.29668,-1.29321 13.563514,13.259925 0 0 1 -0.16355,-1.31657 13.563514,13.259925 0 0 1 -0.034,-0.93759 13.563514,13.259925 0 0 1 0.0681,-1.32375 13.563514,13.259925 0 0 1 0.20211,-1.31029 13.563514,13.259925 0 0 1 0.3362,-1.28423 13.563514,13.259925 0 0 1 0.46485,-1.245634 13.563514,13.259925 0 0 1 0.589751,-1.193531 13.563514,13.259925 0 0 1 0.708279,-1.12977 13.563514,13.259925 0 0 1 0.820311,-1.05523 13.563514,13.259925 0 0 1 0.924129,-0.96992 13.563514,13.259925 0 0 1 1.018787,-0.87473 13.563514,13.259925 0 0 1 1.10327,-0.77054 13.563514,13.259925 0 0 1 1.17585,-0.66008 13.563514,13.259925 0 0 1 1.237379,-0.54063 13.563514,13.259925 0 0 1 1.28608,-0.41849 13.563514,13.259925 0 0 1 1.32282,-0.290088 13.563514,13.259925 0 0 1 1.34674,-0.15988 13.563514,13.259925 0 0 1 0.959007,-0.0332 z"
       inkscape:connector-curvature="0" />
    <path
       inkscape:connector-curvature="0"
       style="opacity:1;vector-effect:none;fill:#800000;fill-opacity:1;stroke:#fa0000;stroke-width:0.0000463;stroke-linecap:round;stroke-linejoin:miter;stroke-miterlimit:4;stroke-dasharray:none;stroke-dashoffset:0;stroke-opacity:1;paint-order:markers fill stroke"
       d="m 122.09097,128.95267 a 29.729779,29.064347 0 0 1 -0.0142,0.008 13.563514,13.259925 0 0 1 0.008,0.003 88.177394,86.203745 0 0 1 0.007,-0.0121 z"
       id="path15616-8" />
    <path
       style="opacity:1;vector-effect:none;fill:#800000;fill-opacity:1;stroke:#fa0000;stroke-width:0.0000463;stroke-linecap:round;stroke-linejoin:miter;stroke-miterlimit:4;stroke-dasharray:none;stroke-dashoffset:0;stroke-opacity:1;paint-order:markers fill stroke"
       d="m 67.628808,222.63178 a 120.55068,117.85243 0 0 1 -1.14005,-0.40678 7.2290845,7.067278 0 0 0 0.2251,0.106 7.2290845,7.067278 0 0 0 0.67884,0.24159 7.2290845,7.067278 0 0 0 0.23611,0.0592 z"
       id="path15562-1"
       inkscape:connector-curvature="0" />
    <path
       style="opacity:1;vector-effect:none;fill:url(#linearGradient16845);fill-opacity:1;stroke:#fa0000;stroke-width:0.0000463;stroke-linecap:round;stroke-linejoin:miter;stroke-miterlimit:4;stroke-dasharray:none;stroke-dashoffset:0;stroke-opacity:1;paint-order:markers fill stroke"
       d="m 75.914218,218.59162 a 13.563514,13.259925 0 0 0 -0.95906,0.0332 13.563514,13.259925 0 0 0 -1.34672,0.15988 13.563514,13.259925 0 0 0 -1.32283,0.29008 13.563514,13.259925 0 0 0 -0.41889,0.13642 13.563514,13.259925 0 0 0 -0.86716,0.2811 13.563514,13.259925 0 0 0 -1.23741,0.54154 13.563514,13.259925 0 0 0 -1.17673,0.6592 13.563514,13.259925 0 0 0 -1.10238,0.77143 13.563514,13.259925 0 0 0 -1.01876,0.87472 13.563514,13.259925 0 0 0 -0.92417,0.96992 13.563514,13.259925 0 0 0 -0.82032,1.05525 13.563514,13.259925 0 0 0 -0.70829,1.12974 13.563514,13.259925 0 0 0 -0.58975,1.19354 13.563514,13.259925 0 0 0 -0.46479,1.24474 13.563514,13.259925 0 0 0 -0.33624,1.28422 13.563514,13.259925 0 0 0 -0.20211,1.31118 13.563514,13.259925 0 0 0 -0.0679,1.32375 13.563514,13.259925 0 0 0 0.034,0.93758 13.563514,13.259925 0 0 0 0.16355,1.3157 13.563514,13.259925 0 0 0 0.29674,1.29317 13.563514,13.259925 0 0 0 0.42716,1.2582 13.563514,13.259925 0 0 0 0.55392,1.20969 13.563514,13.259925 0 0 0 0.0955,0.1636 140.9213,137.7671 0 0 0 3.6075,1.28691 140.9213,137.7671 0 0 0 0.38671,0.097 140.9213,137.7671 0 0 0 6.02898,1.5052 140.9213,137.7671 0 0 0 7.23235,1.8051 140.9213,137.7671 0 0 0 2.03846,0.3009 140.9213,137.7671 0 0 0 3.520191,0.5199 140.9213,137.7671 0 0 0 8.369624,1.2367 140.9213,137.7671 0 0 0 14.068817,0.6879 140.9213,137.7671 0 0 0 9.96807,-0.3449 140.9213,137.7671 0 0 0 12.55766,-1.4908 140.9213,137.7671 0 0 0 1.42575,-0.1687 140.9213,137.7671 0 0 0 1.8051,-0.3961 140.9213,137.7671 0 0 0 11.93943,-2.6196 140.9213,137.7671 0 0 0 4.73827,-1.53931 88.177394,86.203745 0 0 1 -4.62803,-3.43959 13.563514,13.259925 0 0 1 0.0293,0 13.563514,13.259925 0 0 1 1.31366,0.3278 13.563514,13.259925 0 0 1 1.27321,0.4544 13.563514,13.259925 0 0 1 1.22084,0.57659 13.563514,13.259925 0 0 1 1.15563,0.69331 13.563514,13.259925 0 0 1 1.07938,0.802 13.563514,13.259925 0 0 1 0.091,0.083 140.9213,137.7671 0 0 0 2.4794,-0.80561 13.563514,13.259925 0 0 0 0.44,-1.17919 13.563514,13.259925 0 0 0 0.3353,-1.2842 13.563514,13.259925 0 0 0 0.20305,-1.3103 13.563514,13.259925 0 0 0 0.0679,-1.32375 13.563514,13.259925 0 0 0 -0.034,-0.93758 13.563514,13.259925 0 0 0 -0.16355,-1.31569 13.563514,13.259925 0 0 0 -0.29673,-1.29323 13.563514,13.259925 0 0 0 -0.42805,-1.25818 13.563514,13.259925 0 0 0 -0.55397,-1.20968 13.563514,13.259925 0 0 0 -0.67429,-1.14953 13.563514,13.259925 0 0 0 -0.78814,-1.07861 13.563514,13.259925 0 0 0 -0.89565,-0.99594 13.563514,13.259925 0 0 0 -0.99124,-0.90345 13.563514,13.259925 0 0 0 -1.0794,-0.80199 13.563514,13.259925 0 0 0 -1.15655,-0.69241 13.563514,13.259925 0 0 0 -1.21993,-0.57655 13.563514,13.259925 0 0 0 -1.26496,-0.45085 13.563514,13.259925 0 0 0 -0.008,-0.003 13.563514,13.259925 0 0 0 -1.31365,-0.32778 13.563514,13.259925 0 0 0 -1.34029,-0.1985 13.563514,13.259925 0 0 0 -1.35406,-0.0663 13.563514,13.259925 0 0 0 -0.95994,0.0332 13.563514,13.259925 0 0 0 -1.34581,0.15989 13.563514,13.259925 0 0 0 -1.32282,0.29006 13.563514,13.259925 0 0 0 -1.28609,0.4185 13.563514,13.259925 0 0 0 -1.23831,0.54153 13.563514,13.259925 0 0 0 -1.17584,0.6592 13.563514,13.259925 0 0 0 -1.10239,0.77054 13.563514,13.259925 0 0 0 -0.83961,0.72114 88.177394,86.203745 0 0 0 0.28291,0.31523 120.55068,117.85243 0 0 1 -0.77895,0.17066 120.55068,117.85243 0 0 1 -2.33148,0.5119 120.55068,117.85243 0 0 1 -11.96241,1.41984 120.55068,117.85243 0 0 1 -8.52671,0.29458 120.55068,117.85243 0 0 1 -12.03498,-0.58824 120.55068,117.85243 0 0 1 -7.916796,-1.1693 88.177394,86.203745 0 0 1 -2.201927,2.83163 13.563514,13.259925 0 0 0 -0.361929,-0.7921 13.563514,13.259925 0 0 0 -0.67523,-1.14955 13.563514,13.259925 0 0 0 -0.78818,-1.07769 13.563514,13.259925 0 0 0 -0.474919,-0.52902 13.563514,13.259925 0 0 0 -0.419823,-0.467 13.563514,13.259925 0 0 0 -0.992128,-0.90344 13.563514,13.259925 0 0 0 -1.07938,-0.80198 13.563514,13.259925 0 0 0 -1.15562,-0.6933 13.563514,13.259925 0 0 0 -1.22085,-0.57655 13.563514,13.259925 0 0 0 -1.27416,-0.45445 13.563514,13.259925 0 0 0 -1.313651,-0.3278 13.563514,13.259925 0 0 0 -1.34028,-0.19755 13.563514,13.259925 0 0 0 -1.35406,-0.0663 z"
       id="path15560-9"
       inkscape:connector-curvature="0" />
    <path
       style="opacity:1;vector-effect:none;fill:#800000;fill-opacity:1;stroke:#fa0000;stroke-width:0.0000463;stroke-linecap:round;stroke-linejoin:miter;stroke-miterlimit:4;stroke-dasharray:none;stroke-dashoffset:0;stroke-opacity:1;paint-order:markers fill stroke"
       d="m 131.29566,220.39853 a 88.177394,86.203745 0 0 1 -0.28293,-0.31522 13.563514,13.259925 0 0 0 -0.17915,0.15362 13.563514,13.259925 0 0 0 -0.31692,0.33231 120.55068,117.85243 0 0 0 0.779,-0.17066 z"
       id="path15540-9"
       inkscape:connector-curvature="0" />
    <path
       inkscape:connector-curvature="0"
       style="opacity:1;vector-effect:none;fill:#800000;fill-opacity:1;stroke:#fa0000;stroke-width:0.0000463;stroke-linecap:round;stroke-linejoin:miter;stroke-miterlimit:4;stroke-dasharray:none;stroke-dashoffset:0;stroke-opacity:1;paint-order:markers fill stroke"
       d="m 89.163614,145.98634 a 192.50501,188.19622 0 0 1 -0.910346,-0.0933 4.3552049,4.2577234 0 0 0 0.032,0.008 4.3552049,4.2577234 0 0 0 0.430816,0.0638 4.3552049,4.2577234 0 0 0 0.43455,0.0216 4.3552049,4.2577234 0 0 0 0.0124,0 z"
       id="path15392-7" />
    <path
       style="opacity:1;vector-effect:none;fill:url(#linearGradient16815);fill-opacity:1;stroke:#fa0000;stroke-width:0.0000463;stroke-linecap:round;stroke-linejoin:miter;stroke-miterlimit:4;stroke-dasharray:none;stroke-dashoffset:0;stroke-opacity:1;paint-order:markers fill stroke"
       d="m 105.16817,145.83287 a 192.50497,196.15126 0 0 0 -1.27139,0.0457 192.50497,196.15126 0 0 0 -3.11599,0.11226 192.50497,196.15126 0 0 0 -7.307697,0.26388 192.50497,196.15126 0 0 0 -0.77714,0.0282 13.563514,13.820424 0 0 0 -0.32063,0.89486 13.563514,13.820424 0 0 0 -0.0965,0.38565 4.3552044,4.4376975 0 0 0 -0.34264,-0.21442 4.3552044,4.4376975 0 0 0 -0.392269,-0.19283 4.3552044,4.4376975 0 0 0 -0.40876,-0.15259 4.3552044,4.4376975 0 0 0 -0.42167,-0.10965 4.3552044,4.4376975 0 0 0 -0.42994,-0.0663 4.3552044,4.4376975 0 0 0 -0.43538,-0.0229 4.3552044,4.4376975 0 0 0 -0.30776,0.008 4.3552044,4.4376975 0 0 0 -0.43272,0.0536 4.3552044,4.4376975 0 0 0 -0.42437,0.0971 4.3552044,4.4376975 0 0 0 -0.413368,0.13938 4.3552044,4.4376975 0 0 0 -0.396888,0.18136 4.3552044,4.4376975 0 0 0 -0.377542,0.21993 4.3552044,4.4376975 0 0 0 -0.354579,0.25821 4.3552044,4.4376975 0 0 0 -0.327019,0.29302 4.3552044,4.4376975 0 0 0 -0.296752,0.32389 4.3552044,4.4376975 0 0 0 -0.26362,0.35382 4.3552044,4.4376975 0 0 0 -0.226888,0.3781 4.3552044,4.4376975 0 0 0 -0.190161,0.39873 4.3552044,4.4376975 0 0 0 -0.148789,0.41752 4.3552044,4.4376975 0 0 0 -0.10754,0.42963 4.3552044,4.4376975 0 0 0 -0.0653,0.43806 4.3552044,4.4376975 0 0 0 -0.02209,0.44367 4.3552044,4.4376975 0 0 0 0.01069,0.31361 4.3552044,4.4376975 0 0 0 0.0524,0.44086 4.3552044,4.4376975 0 0 0 0.0954,0.43244 4.3552044,4.4376975 0 0 0 0.136879,0.42123 4.3552044,4.4376975 0 0 0 0.178211,0.40435 4.3552044,4.4376975 0 0 0 0.216839,0.38468 4.3552044,4.4376975 0 0 0 0.252621,0.36135 4.3552044,4.4376975 0 0 0 0.28751,0.33317 4.3552044,4.4376975 0 0 0 0.318749,0.30243 4.3552044,4.4376975 0 0 0 0.346321,0.26856 4.3552044,4.4376975 0 0 0 0.371139,0.23129 4.3552044,4.4376975 0 0 0 0.39225,0.19261 4.3552044,4.4376975 0 0 0 0.40877,0.15259 4.3552044,4.4376975 0 0 0 0.389557,0.10129 192.50497,196.15126 0 0 0 0.91033,0.0971 192.50499,196.15128 0 0 0 2.732949,0.29017 192.50497,196.15126 0 0 0 1.92724,0.20504 192.50497,196.15126 0 0 0 9.535407,1.01369 192.50497,196.15126 0 0 0 0.69629,0.002 192.50501,196.15131 0 0 0 0.25079,8e-4 192.50497,196.15126 0 0 0 11.37174,0.0457 192.50497,196.15126 0 0 0 1.16573,0.007 192.50497,196.15126 0 0 0 5.75799,0.0229 192.50497,196.15126 0 0 0 3.47242,-0.34071 192.50497,196.15126 0 0 0 1.95483,-0.19194 192.50499,196.15128 0 0 0 1.52403,-0.14963 4.3552046,4.4376975 0 0 0 0.23239,0.11436 4.3552046,4.4376975 0 0 0 0.40878,0.15276 4.3552046,4.4376975 0 0 0 0.42166,0.10966 4.3552046,4.4376975 0 0 0 0.43083,0.0663 4.3552046,4.4376975 0 0 0 0.43455,0.0229 4.3552046,4.4376975 0 0 0 0.30863,-0.008 4.3552046,4.4376975 0 0 0 0.43176,-0.0534 4.3552046,4.4376975 0 0 0 0.4244,-0.0975 4.3552046,4.4376975 0 0 0 0.41338,-0.14024 4.3552046,4.4376975 0 0 0 0.39777,-0.18044 4.3552046,4.4376975 0 0 0 0.37757,-0.22085 4.3552046,4.4376975 0 0 0 0.28752,-0.20959 4.3552044,4.4376975 0 0 0 0.0661,-0.0487 4.3552044,4.4376975 0 0 0 0.32702,-0.29209 4.3552044,4.4376975 0 0 0 0.29674,-0.32478 4.3552044,4.4376975 0 0 0 0.26361,-0.3529 4.3552044,4.4376975 0 0 0 0.22784,-0.37815 4.3552044,4.4376975 0 0 0 0.18926,-0.39969 4.3552044,4.4376975 0 0 0 0.14879,-0.41651 4.3552044,4.4376975 0 0 0 0.10845,-0.43058 4.3552044,4.4376975 0 0 0 0.0643,-0.43802 4.3552044,4.4376975 0 0 0 0.0221,-0.44276 4.3552044,4.4376975 0 0 0 -0.0107,-0.31452 4.3552044,4.4376975 0 0 0 -0.0522,-0.43996 4.3552044,4.4376975 0 0 0 -0.0956,-0.43339 4.3552044,4.4376975 0 0 0 -0.13688,-0.42022 4.3552044,4.4376975 0 0 0 -0.17821,-0.40533 4.3552044,4.4376975 0 0 0 -0.21587,-0.38471 4.3552044,4.4376975 0 0 0 -0.25353,-0.36036 4.3552044,4.4376975 0 0 0 -0.28757,-0.33328 4.3552044,4.4376975 0 0 0 -0.31874,-0.30332 4.3552044,4.4376975 0 0 0 -0.3463,-0.26765 4.3552044,4.4376975 0 0 0 -0.37115,-0.23221 4.3552044,4.4376975 0 0 0 -0.39225,-0.1926 4.3552044,4.4376975 0 0 0 -0.40879,-0.15259 4.3552044,4.4376975 0 0 0 -0.42165,-0.10984 4.3552044,4.4376975 0 0 0 -0.43084,-0.0663 4.3552044,4.4376975 0 0 0 -0.43449,-0.0229 4.3552044,4.4376975 0 0 0 -0.30775,0.008 4.3552044,4.4376975 0 0 0 -0.43271,0.0542 4.3552044,4.4376975 0 0 0 -0.42439,0.0965 4.3552044,4.4376975 0 0 0 -0.41338,0.14042 4.3552044,4.4376975 0 0 0 -0.39688,0.18044 4.3552044,4.4376975 0 0 0 -0.016,0.008 13.563514,13.820424 0 0 0 -0.0862,-0.72166 13.563514,13.820424 0 0 0 -0.058,-0.26105 192.50497,196.15126 0 0 0 -2.05683,-0.31728 192.50497,196.15126 0 0 0 -3.60012,-0.55416 192.50497,196.15126 0 0 0 -5.03411,-0.25633 192.50497,196.15126 0 0 0 -1.30166,-0.0663 192.50497,196.15126 0 0 0 -12.88291,-0.65708 z"
       id="path15394-8"
       inkscape:connector-curvature="0" />
    <path
       style="opacity:1;vector-effect:none;fill:url(#radialGradient16869);fill-opacity:1;stroke:#fa0000;stroke-width:0.0000463;stroke-linecap:round;stroke-linejoin:miter;stroke-miterlimit:4;stroke-dasharray:none;stroke-dashoffset:0;stroke-opacity:1;paint-order:markers fill stroke"
       d="m 72.989438,209.59882 a 7.2290845,7.067278 0 0 0 -0.51168,0.0179 7.2290845,7.067278 0 0 0 -0.71746,0.0853 7.2290845,7.067278 0 0 0 -0.70456,0.15449 7.2290845,7.067278 0 0 0 -0.68623,0.22271 7.2290845,7.067278 0 0 0 -0.6596,0.28829 7.2290845,7.067278 0 0 0 -0.62648,0.35207 7.2290845,7.067278 0 0 0 -0.58793,0.41039 7.2290845,7.067278 0 0 0 -0.54291,0.46612 7.2290845,7.067278 0 0 0 -0.4924,0.51727 7.2290845,7.067278 0 0 0 -0.43728,0.56218 7.2290845,7.067278 0 0 0 -0.37754,0.60262 7.2290845,7.067278 0 0 0 -0.31418,0.63585 7.2290845,7.067278 0 0 0 -0.24802,0.66365 7.2290845,7.067278 0 0 0 -0.17916,0.68434 7.2290845,7.067278 0 0 0 -0.10737,0.69869 7.2290845,7.067278 0 0 0 -0.0359,0.70494 7.2290845,7.067278 0 0 0 0.0178,0.50024 7.2290845,7.067278 0 0 0 0.0873,0.7014 7.2290845,7.067278 0 0 0 0.15804,0.68971 7.2290845,7.067278 0 0 0 0.22784,0.66999 7.2290845,7.067278 0 0 0 0.2958,0.6448 7.2290845,7.067278 0 0 0 0.3592,0.61246 7.2290845,7.067278 0 0 0 0.42073,0.5748 7.2290845,7.067278 0 0 0 0.47675,0.53073 7.2290845,7.067278 0 0 0 0.15253,0.13921 7.2290845,7.067278 0 0 0 0.37572,0.34216 7.2290845,7.067278 0 0 0 0.576031,0.42747 7.2290845,7.067278 0 0 0 0.615429,0.37001 7.2290845,7.067278 0 0 0 0.425341,0.20117 120.55068,117.85243 0 0 0 1.14003,0.40681 7.2290845,7.067278 0 0 0 0.46486,0.11593 7.2290845,7.067278 0 0 0 0.713709,0.106 7.2290845,7.067278 0 0 0 0.72208,0.0351 7.2290845,7.067278 0 0 0 0.51168,-0.0179 7.2290845,7.067278 0 0 0 0.71747,-0.0853 7.2290845,7.067278 0 0 0 0.70455,-0.15449 7.2290845,7.067278 0 0 0 0.68623,-0.2227 7.2290845,7.067278 0 0 0 0.65955,-0.28826 7.2290845,7.067278 0 0 0 0.62653,-0.35209 7.2290845,7.067278 0 0 0 0.58791,-0.41039 7.2290845,7.067278 0 0 0 0.54292,-0.46609 7.2290845,7.067278 0 0 0 0.49235,-0.5173 7.2290845,7.067278 0 0 0 0.43727,-0.5622 7.2290845,7.067278 0 0 0 0.37759,-0.6026 7.2290845,7.067278 0 0 0 0.31415,-0.63583 7.2290845,7.067278 0 0 0 0.24806,-0.66367 7.2290845,7.067278 0 0 0 0.1791,-0.68431 7.2290845,7.067278 0 0 0 0.10754,-0.69869 7.2290845,7.067278 0 0 0 0.0357,-0.70589 7.2290845,7.067278 0 0 0 -0.0178,-0.49934 7.2290845,7.067278 0 0 0 -0.0873,-0.70139 7.2290845,7.067278 0 0 0 -0.15803,-0.68971 7.2290845,7.067278 0 0 0 -0.22779,-0.66996 7.2290845,7.067278 0 0 0 -0.29578,-0.64484 7.2290845,7.067278 0 0 0 -0.3592,-0.61246 7.2290845,7.067278 0 0 0 -0.42077,-0.57477 7.2290845,7.067278 0 0 0 -0.47673,-0.53076 7.2290845,7.067278 0 0 0 -0.52825,-0.48138 7.2290845,7.067278 0 0 0 -0.0569,-0.0422 7.2290845,7.067278 0 0 0 -0.51901,-0.38529 7.2290845,7.067278 0 0 0 -0.61549,-0.36998 7.2290845,7.067278 0 0 0 -0.65126,-0.30716 7.2290845,7.067278 0 0 0 -0.67795,-0.24247 7.2290845,7.067278 0 0 0 -0.70095,-0.1742 7.2290845,7.067278 0 0 0 -0.71378,-0.10602 7.2290845,7.067278 0 0 0 -0.72201,-0.035 z"
       id="path15745-2"
       inkscape:connector-curvature="0" />
    <path
       style="opacity:1;vector-effect:none;fill:url(#radialGradient16861);fill-opacity:1;stroke:#fa0000;stroke-width:0.0000463;stroke-linecap:round;stroke-linejoin:miter;stroke-miterlimit:4;stroke-dasharray:none;stroke-dashoffset:0;stroke-opacity:1;paint-order:markers fill stroke"
       d="m 145.8905,209.99882 a 7.2290845,7.067278 0 0 0 -0.51167,0.0179 7.2290845,7.067278 0 0 0 -0.71748,0.0853 7.2290845,7.067278 0 0 0 -0.7046,0.1545 7.2290845,7.067278 0 0 0 -0.68624,0.22274 7.2290845,7.067278 0 0 0 -0.65954,0.28828 7.2290845,7.067278 0 0 0 -0.62649,0.35206 7.2290845,7.067278 0 0 0 -0.58794,0.41041 7.2290845,7.067278 0 0 0 -0.5429,0.46608 7.2290845,7.067278 0 0 0 -0.0395,0.0413 7.2290845,7.067278 0 0 0 -0.45289,0.47594 7.2290845,7.067278 0 0 0 -0.43727,0.5622 7.2290845,7.067278 0 0 0 -0.37754,0.60262 7.2290845,7.067278 0 0 0 -0.31512,0.63585 7.2290845,7.067278 0 0 0 -0.24707,0.66363 7.2290845,7.067278 0 0 0 -0.17916,0.68436 7.2290845,7.067278 0 0 0 -0.10843,0.69868 7.2290845,7.067278 0 0 0 -0.0358,0.70499 7.2290845,7.067278 0 0 0 0.0183,0.50023 7.2290845,7.067278 0 0 0 0.0873,0.70138 7.2290845,7.067278 0 0 0 0.15804,0.68882 7.2290845,7.067278 0 0 0 0.22782,0.67087 7.2290845,7.067278 0 0 0 0.29487,0.6448 7.2290845,7.067278 0 0 0 0.36011,0.61247 7.2290845,7.067278 0 0 0 0.41978,0.57479 7.2290845,7.067278 0 0 0 0.4768,0.53075 7.2290845,7.067278 0 0 0 0.52912,0.48136 7.2290845,7.067278 0 0 0 0.57509,0.42746 7.2290845,7.067278 0 0 0 0.61637,0.37003 7.2290845,7.067278 0 0 0 0.6504,0.30715 7.2290845,7.067278 0 0 0 0.6789,0.24158 7.2290845,7.067278 0 0 0 0.69998,0.1751 7.2290845,7.067278 0 0 0 0.71469,0.10601 7.2290845,7.067278 0 0 0 0.72205,0.035 7.2290845,7.067278 0 0 0 0.51076,-0.0179 7.2290845,7.067278 0 0 0 0.71745,-0.0853 7.2290845,7.067278 0 0 0 0.70551,-0.15449 7.2290845,7.067278 0 0 0 0.68528,-0.2227 7.2290845,7.067278 0 0 0 0.65961,-0.28827 7.2290845,7.067278 0 0 0 0.62648,-0.35206 7.2290845,7.067278 0 0 0 0.23789,-0.16614 7.2290845,7.067278 0 0 0 0.35001,-0.24429 7.2290845,7.067278 0 0 0 0.54293,-0.46609 7.2290845,7.067278 0 0 0 0.4924,-0.51726 7.2290845,7.067278 0 0 0 0.43722,-0.5622 7.2290845,7.067278 0 0 0 0.37848,-0.60261 7.2290845,7.067278 0 0 0 0.3142,-0.63585 7.2290845,7.067278 0 0 0 0.24711,-0.66364 7.2290845,7.067278 0 0 0 0.17915,-0.68435 7.2290845,7.067278 0 0 0 0.10844,-0.6987 7.2290845,7.067278 0 0 0 0.0359,-0.70589 7.2290845,7.067278 0 0 0 -0.0185,-0.4993 7.2290845,7.067278 0 0 0 -0.0873,-0.70138 7.2290845,7.067278 0 0 0 -0.15804,-0.68974 7.2290845,7.067278 0 0 0 -0.22779,-0.66996 7.2290845,7.067278 0 0 0 -0.29489,-0.64481 7.2290845,7.067278 0 0 0 -0.36011,-0.61246 7.2290845,7.067278 0 0 0 -0.4198,-0.57478 7.2290845,7.067278 0 0 0 -0.47679,-0.53075 7.2290845,7.067278 0 0 0 -0.52913,-0.48138 7.2290845,7.067278 0 0 0 -0.57505,-0.42749 7.2290845,7.067278 0 0 0 -0.61641,-0.36998 7.2290845,7.067278 0 0 0 -0.6504,-0.30715 7.2290845,7.067278 0 0 0 -0.67883,-0.24247 7.2290845,7.067278 0 0 0 -0.7,-0.17422 7.2290845,7.067278 0 0 0 -0.71468,-0.10601 7.2290845,7.067278 0 0 0 -0.72113,-0.0351 z"
       id="path15568-5"
       inkscape:connector-curvature="0" />
  </g>
</svg>
