<?xml version="1.0" encoding="UTF-8" standalone="no"?>
<!-- Created with Inkscape (http://www.inkscape.org/) -->

<svg
   xmlns:dc="http://purl.org/dc/elements/1.1/"
   xmlns:cc="http://creativecommons.org/ns#"
   xmlns:rdf="http://www.w3.org/1999/02/22-rdf-syntax-ns#"
   xmlns:svg="http://www.w3.org/2000/svg"
   xmlns="http://www.w3.org/2000/svg"
   xmlns:xlink="http://www.w3.org/1999/xlink"
   xmlns:sodipodi="http://sodipodi.sourceforge.net/DTD/sodipodi-0.dtd"
   xmlns:inkscape="http://www.inkscape.org/namespaces/inkscape"
   width="210mm"
   height="297mm"
   viewBox="0 0 210 297"
   version="1.1"
   id="svg15274"
   sodipodi:docname="wQ.svg"
   inkscape:version="0.92.3 (2405546, 2018-03-11)">
  <defs
     id="defs15268">
    <radialGradient
       inkscape:collect="always"
       xlink:href="#linearGradient14098"
       id="radialGradient8271-1-2"
       cx="-423.30923"
       cy="213.14563"
       fx="-423.30923"
       fy="213.14563"
       r="50.000023"
       gradientTransform="matrix(0.903783,0,0,0.24199767,492.19326,197.01734)"
       gradientUnits="userSpaceOnUse" />
    <linearGradient
       inkscape:collect="always"
       id="linearGradient14098">
      <stop
         style="stop-color:#ececec;stop-opacity:1"
         offset="0"
         id="stop14094" />
      <stop
         style="stop-color:#999999;stop-opacity:1"
         offset="1"
         id="stop14096" />
    </linearGradient>
    <radialGradient
       inkscape:collect="always"
       xlink:href="#linearGradient14098"
       id="radialGradient8273-3-9"
       cx="-423.34436"
       cy="204.19659"
       fx="-423.34436"
       fy="204.19659"
       r="49.958801"
       gradientTransform="matrix(0.903783,0,0,0.29813419,492.19326,178.77106)"
       gradientUnits="userSpaceOnUse" />
    <radialGradient
       inkscape:collect="always"
       xlink:href="#linearGradient14098"
       id="radialGradient14092-0"
       cx="-295.24872"
       cy="472.73804"
       fx="-295.24872"
       fy="472.73804"
       r="32.874416"
       gradientTransform="matrix(1,0,0,0.24890732,404.70601,79.388431)"
       gradientUnits="userSpaceOnUse" />
    <radialGradient
       inkscape:collect="always"
       xlink:href="#linearGradient14098"
       id="radialGradient14084-5"
       cx="-295.08539"
       cy="429.02145"
       fx="-295.08539"
       fy="429.02145"
       r="31.000818"
       gradientTransform="matrix(1,0,0,1.4813024,404.70601,-482.17069)"
       gradientUnits="userSpaceOnUse" />
    <radialGradient
       inkscape:collect="always"
       xlink:href="#linearGradient14106"
       id="radialGradient14100-6"
       cx="-295.25568"
       cy="477.76215"
       fx="-295.25568"
       fy="477.76215"
       r="34.313728"
       gradientTransform="matrix(1,0,0,0.20734736,404.70601,103.01778)"
       gradientUnits="userSpaceOnUse" />
    <linearGradient
       inkscape:collect="always"
       id="linearGradient14106">
      <stop
         style="stop-color:#f2f2f2;stop-opacity:1"
         offset="0"
         id="stop14102" />
      <stop
         style="stop-color:#999999;stop-opacity:1"
         offset="1"
         id="stop14104" />
    </linearGradient>
    <radialGradient
       inkscape:collect="always"
       xlink:href="#linearGradient14098"
       id="radialGradient8269-5-5"
       cx="-423.70905"
       cy="186.0631"
       fx="-423.70905"
       fy="186.0631"
       r="47.043297"
       gradientTransform="matrix(0.903783,0,0,0.49566311,492.19326,129.29094)"
       gradientUnits="userSpaceOnUse" />
    <radialGradient
       inkscape:collect="always"
       xlink:href="#linearGradient8235"
       id="radialGradient8229-0-6"
       cx="188.23999"
       cy="38.737514"
       fx="188.23999"
       fy="38.737514"
       r="26.105078"
       gradientTransform="matrix(1,0,0,0.78799165,-79.582612,77.932951)"
       gradientUnits="userSpaceOnUse" />
    <linearGradient
       id="linearGradient8235"
       inkscape:collect="always">
      <stop
         id="stop8231"
         offset="0"
         style="stop-color:#f9f9f9;stop-opacity:1" />
      <stop
         id="stop8233"
         offset="1"
         style="stop-color:#999999;stop-opacity:1" />
    </linearGradient>
    <radialGradient
       inkscape:collect="always"
       xlink:href="#linearGradient14098"
       id="radialGradient8227-7"
       cx="353.29453"
       cy="9.6585512"
       fx="353.29453"
       fy="9.6585512"
       r="18.94643"
       gradientTransform="matrix(1.6873901,0,0,0.7707076,-486.58621,73.025501)"
       gradientUnits="userSpaceOnUse" />
    <linearGradient
       inkscape:collect="always"
       xlink:href="#linearGradient5863"
       id="linearGradient5767-0-3"
       x1="120.27129"
       y1="82.382568"
       x2="111.52992"
       y2="87.740005"
       gradientUnits="userSpaceOnUse"
       gradientTransform="matrix(1.6873901,0,0,1.7101948,-86.893542,-92.176734)" />
    <linearGradient
       id="linearGradient5863"
       inkscape:collect="always">
      <stop
         id="stop5859"
         offset="0"
         style="stop-color:#f2f2f2;stop-opacity:1" />
      <stop
         id="stop5861"
         offset="1"
         style="stop-color:#000000;stop-opacity:0;" />
    </linearGradient>
    <linearGradient
       inkscape:collect="always"
       id="linearGradient8223">
      <stop
         style="stop-color:#f2f2f2;stop-opacity:1;"
         offset="0"
         id="stop8219" />
      <stop
         style="stop-color:#808080;stop-opacity:1"
         offset="1"
         id="stop8221" />
    </linearGradient>
    <radialGradient
       inkscape:collect="always"
       xlink:href="#linearGradient8223"
       id="radialGradient16008"
       cx="108.53947"
       cy="73.717262"
       fx="108.53947"
       fy="73.717262"
       r="14.914601"
       gradientTransform="matrix(1.6873901,0,0,0.64605641,-73.743656,17.390197)"
       gradientUnits="userSpaceOnUse" />
  </defs>
  <sodipodi:namedview
     id="base"
     pagecolor="#ffffff"
     bordercolor="#666666"
     borderopacity="1.0"
     inkscape:pageopacity="0.0"
     inkscape:pageshadow="2"
     inkscape:zoom="0.98994949"
     inkscape:cx="135.27684"
     inkscape:cy="644.13069"
     inkscape:document-units="mm"
     inkscape:current-layer="layer1"
     showgrid="false"
     inkscape:window-width="1920"
     inkscape:window-height="1017"
     inkscape:window-x="0"
     inkscape:window-y="0"
     inkscape:window-maximized="1" />
  <metadata
     id="metadata15271">
    <rdf:RDF>
      <cc:Work
         rdf:about="">
        <dc:format>image/svg+xml</dc:format>
        <dc:type
           rdf:resource="http://purl.org/dc/dcmitype/StillImage" />
      </cc:Work>
    </rdf:RDF>
  </metadata>
  <g
     inkscape:label="Layer 1"
     inkscape:groupmode="layer"
     id="layer1">
    <path
       style="display:inline;opacity:1;fill:url(#radialGradient8229-0-6);fill-opacity:1;stroke:#fa0000;stroke-width:0.0000463;stroke-linecap:round;stroke-linejoin:miter;stroke-miterlimit:4;stroke-dasharray:none;stroke-opacity:1;paint-order:markers fill stroke"
       d="m 108.8692,87.887621 a 26.861103,26.861103 0 0 0 -1.90015,0.068 26.861103,26.861103 0 0 0 -2.66493,0.3231 26.861103,26.861103 0 0 0 -0.46449,0.10412 26.861103,26.861103 0 0 0 -2.15532,0.48389 26.861103,26.861103 0 0 0 -2.548102,0.8472 26.861103,26.861103 0 0 0 -0.86944,0.3892 26.861103,26.861103 0 0 0 -1.58191,0.70739 26.861103,26.861103 0 0 0 -2.32879,1.3361 26.861103,26.861103 0 0 0 -2.18399,1.56181 26.861103,26.861103 0 0 0 -2.01698,1.77181 26.861103,26.861103 0 0 0 -1.83063,1.96469 26.861103,26.861103 0 0 0 -1.6249,2.13741 26.861103,26.861103 0 0 0 -1.40344,2.288589 26.861103,26.861103 0 0 0 -1.16762,2.41781 26.861103,26.861103 0 0 0 -0.92032,2.5223 26.861103,26.861103 0 0 0 -0.42146,1.64989 26.861106,26.861106 0 0 0 -0.23438,0.91821 26.861106,26.861106 0 0 1 0.52825,0.25519 26.861103,26.861103 0 0 1 0.72895,0.3519 26.861103,26.861103 0 0 1 2.28864,1.4034 26.861103,26.861103 0 0 1 2.1374,1.62491 26.861103,26.861103 0 0 1 1.96466,1.82989 26.861103,26.861103 0 0 1 0.56626,0.64439 26.861106,26.861106 0 0 1 0.44009,0.50102 26.861103,26.861103 0 0 1 0.76621,0.87231 26.861103,26.861103 0 0 1 1.56185,2.18399 26.861103,26.861103 0 0 1 1.33534,2.32889 26.861103,26.861103 0 0 1 1.09737,2.4506 26.861103,26.861103 0 0 1 0.75261,2.2657 26.861103,26.861103 0 0 0 1.68943,0.81641 26.861103,26.861103 0 0 0 2.521592,0.92029 26.861103,26.861103 0 0 0 2.60186,0.66451 26.861103,26.861103 0 0 0 2.65491,0.4013 26.861103,26.861103 0 0 0 2.68143,0.1345 26.861103,26.861103 0 0 0 1.90015,-0.068 26.861103,26.861103 0 0 0 2.66567,-0.32318 26.861103,26.861103 0 0 0 1.6163,-0.36341 26.861103,26.861103 0 0 1 0.66087,-2.58911 26.861103,26.861103 0 0 1 0.92104,-2.5223 26.861103,26.861103 0 0 1 1.16763,-2.41758 26.861103,26.861103 0 0 1 1.40341,-2.28931 26.861103,26.861103 0 0 1 1.62492,-2.13751 26.861103,26.861103 0 0 1 1.83062,-1.96459 26.861103,26.861103 0 0 1 1.30165,-1.14321 26.861103,26.861103 0 0 1 0.71534,-0.6286 26.861103,26.861103 0 0 1 2.18399,-1.56188 26.861103,26.861103 0 0 1 1.19559,-0.68591 26.861103,26.861103 0 0 1 1.13318,-0.65011 26.861103,26.861103 0 0 1 2.45065,-1.0968 26.861103,26.861103 0 0 1 2.54812,-0.84648 26.861103,26.861103 0 0 1 0.57412,-0.12901 26.861103,26.861103 0 0 0 -0.0111,-0.049 26.861103,26.861103 0 0 0 -0.84651,-2.5473 26.861103,26.861103 0 0 0 -1.09736,-2.45139 26.861103,26.861103 0 0 0 -1.33534,-2.3288 26.861103,26.861103 0 0 0 -1.56183,-2.183899 26.861103,26.861103 0 0 0 -1.77257,-2.01699 26.861103,26.861103 0 0 0 -1.96468,-1.8306 26.861103,26.861103 0 0 0 -2.13738,-1.62499 26.861103,26.861103 0 0 0 -2.28866,-1.40331 26.861103,26.861103 0 0 0 -2.22128,-1.07312 26.861103,26.861103 0 0 0 -0.19639,-0.094 26.861103,26.861103 0 0 0 -2.43129,-0.88811 26.861103,26.861103 0 0 0 -0.091,-0.033 26.861103,26.861103 0 0 0 -2.60186,-0.66371 26.861103,26.861103 0 0 0 -2.65491,-0.4014 26.861103,26.861103 0 0 0 -2.68142,-0.13452 z"
       id="path3213-0-6-5"
       inkscape:connector-curvature="0" />
    <path
       inkscape:connector-curvature="0"
       style="opacity:1;vector-effect:none;fill:url(#radialGradient8269-5-5);fill-opacity:1;stroke:#fa0000;stroke-width:0.0000463;stroke-linecap:round;stroke-linejoin:miter;stroke-miterlimit:4;stroke-dasharray:none;stroke-dashoffset:0;stroke-opacity:1;paint-order:markers fill stroke"
       d="m 143.76404,198.19796 a 64.753744,71.647447 0 0 1 -1.79514,1.13928 9.9640702,11.024848 0 0 0 0.0222,0.20152 21.58423,23.882094 0 0 0 -0.16433,-0.11139 64.753744,71.647447 0 0 1 -3.10868,1.97318 64.753744,71.647447 0 0 1 -1.19364,0.59131 64.753744,71.647447 0 0 1 -4.71437,2.334 64.753744,71.647447 0 0 1 -1.97918,0.72789 64.753744,71.647447 0 0 1 -4.16267,1.5303 64.753744,71.647447 0 0 1 -6.31558,1.5685 64.753744,71.647447 0 0 1 -6.42559,0.86322 64.753744,71.647447 0 0 1 -3.15457,0.12401 21.58423,23.882094 0 0 0 -0.46678,1.06898 21.58423,23.882094 0 0 0 -0.73969,2.2423 21.58423,23.882094 0 0 1 0.73919,-2.2423 21.58423,23.882094 0 0 1 0.4668,-1.06898 64.753744,71.647447 0 0 1 -1.42606,0.056 64.753744,71.647447 0 0 1 -2.84518,-0.15768 64.753744,71.647447 0 0 1 -3.6194,-0.20039 64.753744,71.647447 0 0 1 -6.399932,-1.07011 64.753744,71.647447 0 0 1 -6.27118,-1.77222 64.753744,71.647447 0 0 1 -2.5185,-1.01719 64.753744,71.647447 0 0 1 -3.56167,-1.43862 64.753744,71.647447 0 0 1 -1.98362,-1.06029 64.753744,71.647447 0 0 1 -3.54392,-1.89398 64.753744,71.647447 0 0 1 -0.301,-0.16051 64.753744,71.647447 0 0 1 -1.8721,-1.26988 64.753744,71.647447 0 0 1 -1.29282,-0.87692 120.83967,133.70429 0 0 1 -3.69095,8.45451 120.83967,133.70429 0 0 1 -0.91434,1.64988 120.83968,133.7043 0 0 1 -0.32124,0.57991 120.83967,133.70429 0 0 1 -0.85019,1.53469 21.58423,23.882094 0 0 0 -0.92077,2.10852 21.58423,23.882094 0 0 0 -0.73967,2.2423 21.58423,23.882094 0 0 0 -0.5339,2.31329 21.58423,23.882094 0 0 0 -0.3227,2.36031 21.58423,23.882094 0 0 0 -0.10757,2.38417 21.58423,23.882094 0 0 0 0.0538,1.68932 21.58423,23.882094 0 0 0 0.0785,0.7163 21.58423,23.882094 0 0 0 0.18159,1.6537 21.58423,23.882094 0 0 0 0.47273,2.3291 21.58423,23.882094 0 0 0 0.35873,1.1941 64.753744,71.647447 0 0 0 3.36574,2.8308 64.753744,71.647447 0 0 0 2.76575,1.87661 64.753744,71.647447 0 0 0 2.75241,1.8672 64.753744,71.647447 0 0 0 5.82806,3.11479 64.753744,71.647447 0 0 0 6.08019,2.45571 64.753744,71.647447 0 0 0 6.27163,1.77239 64.753744,71.647447 0 0 0 2.03988,0.34111 64.753744,71.647447 0 0 0 4.360082,0.7289 64.753744,71.647447 0 0 0 6.46456,0.35758 64.753744,71.647447 0 0 0 4.58063,-0.179 64.753744,71.647447 0 0 0 6.42561,-0.8632 64.753744,71.647447 0 0 0 5.41798,-1.34579 64.753744,71.647447 0 0 0 0.89756,-0.22279 64.753744,71.647447 0 0 0 6.14237,-2.25821 64.753744,71.647447 0 0 0 5.90799,-2.9253 64.753744,71.647447 0 0 0 5.61436,-3.56362 64.753744,71.647447 0 0 0 2.03396,-1.60999 v 0 a 64.753744,71.647447 0 0 0 3.23007,-2.55579 64.753744,71.647447 0 0 0 2.70998,-2.6343 21.58423,23.882094 0 0 0 0.0355,-0.1081 21.58423,23.882094 0 0 0 0.53391,-2.3127 21.58423,23.882094 0 0 0 0.32222,-2.3608 21.58423,23.882094 0 0 0 0.0167,-0.37082 21.58423,23.882094 0 0 0 0.0913,-2.01347 21.58423,23.882094 0 0 0 -0.0542,-1.68932 21.58423,23.882094 0 0 0 -0.26004,-2.36938 21.58423,23.882094 0 0 0 -0.47223,-2.32972 21.58423,23.882094 0 0 0 -0.37206,-1.23878 120.83967,133.70429 0 0 1 -1.77837,-3.4304 120.83967,133.70429 0 0 1 -2.38478,-4.59992 120.83968,133.7043 0 0 1 -1.80799,-3.48699 120.83968,133.7043 0 0 1 -0.87634,-2.16649 z m -34.19849,14.2536 a 21.58423,23.882094 0 0 0 -0.53389,2.3128 21.58423,23.882094 0 0 0 -0.0439,0.32161 21.58423,23.882094 0 0 1 0.12927,0.43068 21.58423,23.882094 0 0 1 0.47272,2.32921 21.58423,23.882094 0 0 1 0.26004,2.37 21.58423,23.882094 0 0 1 0.0538,1.68929 21.58423,23.882094 0 0 1 -0.10756,2.38433 21.58423,23.882094 0 0 1 -0.2788,2.03758 21.58423,23.882094 0 0 0 0.55119,1.8361 21.58423,23.882094 0 0 0 0.88127,2.179 21.58423,23.882094 0 0 0 1.07373,2.0702 21.58423,23.882094 0 0 0 1.25483,1.9421 21.58423,23.882094 0 0 0 1.42408,1.79351 21.58423,23.882094 0 0 1 -1.42406,-1.79351 21.58423,23.882094 0 0 1 -1.25483,-1.9421 21.58423,23.882094 0 0 1 -1.07373,-2.0702 21.58423,23.882094 0 0 1 -0.88129,-2.179 21.58423,23.882094 0 0 1 -0.55116,-1.8361 21.58423,23.882094 0 0 0 0.27878,-2.03758 21.58423,23.882094 0 0 0 0.10759,-2.38433 21.58423,23.882094 0 0 0 -0.0538,-1.68929 21.58423,23.882094 0 0 0 -0.26005,-2.37 21.58423,23.882094 0 0 0 -0.47272,-2.32921 21.58423,23.882094 0 0 0 -0.12928,-0.43068 21.58423,23.882094 0 0 1 0.0439,-0.32161 21.58423,23.882094 0 0 1 0.53391,-2.3128 z"
       id="path20311-3-3-9" />
    <path
       inkscape:connector-curvature="0"
       style="opacity:1;vector-effect:none;fill:url(#radialGradient14100-6);fill-opacity:1;stroke:#fa0000;stroke-width:0.0000463;stroke-linecap:round;stroke-linejoin:miter;stroke-miterlimit:4;stroke-dasharray:none;stroke-dashoffset:0;stroke-opacity:1;paint-order:markers fill stroke"
       d="m 76.582918,194.96567 a 120.83968,133.7043 0 0 1 -0.45496,1.04129 120.83967,133.70429 0 0 1 -0.99132,2.2706 64.753744,71.647447 0 0 0 1.29283,0.8768 64.753744,71.647447 0 0 0 1.87209,1.27 64.753744,71.647447 0 0 0 0.30101,0.16061 64.753744,71.647447 0 0 0 3.54391,1.89389 64.753744,71.647447 0 0 0 1.98361,1.06029 64.753744,71.647447 0 0 0 3.56169,1.43862 64.753744,71.647447 0 0 0 2.5185,1.01719 64.753744,71.647447 0 0 0 6.27118,1.7722 64.753744,71.647447 0 0 0 6.399922,1.07009 64.753744,71.647447 0 0 0 3.61941,0.20043 64.753744,71.647447 0 0 0 2.84517,0.15768 64.753744,71.647447 0 0 0 1.42607,-0.056 64.753744,71.647447 0 0 0 3.15457,-0.12389 64.753744,71.647447 0 0 0 6.42559,-0.86321 64.753744,71.647447 0 0 0 6.31555,-1.5685 64.753744,71.647447 0 0 0 4.16316,-1.53039 64.753744,71.647447 0 0 0 1.9792,-0.7278 64.753744,71.647447 0 0 0 4.71437,-2.33403 64.753744,71.647447 0 0 0 1.19363,-0.59128 64.753744,71.647447 0 0 0 3.10869,-1.97321 64.753744,71.647447 0 0 0 0.14211,-0.09 64.753744,71.647447 0 0 0 1.79514,-1.1394 120.83967,133.70429 0 0 1 -1.16996,-2.89311 64.753744,71.647447 0 0 1 -0.48603,0.30851 64.753744,71.647447 0 0 1 -2.88959,1.8339 64.753744,71.647447 0 0 1 -0.38884,0.1922 64.753744,71.647447 0 0 1 -4.41432,2.18601 64.753744,71.647447 0 0 1 -1.10483,0.54708 64.753744,71.647447 0 0 1 -5.60896,2.06271 64.753744,71.647447 0 0 1 -0.5334,0.19602 64.753744,71.647447 0 0 1 -6.31556,1.568 64.753744,71.647447 0 0 1 -6.42561,0.8632 64.753744,71.647447 0 0 1 -1.43295,0.056 64.753744,71.647447 0 0 1 -3.14767,0.12341 64.753744,71.647447 0 0 1 -6.41127,-0.35539 64.753744,71.647447 0 0 1 -0.0533,0 64.753744,71.647447 0 0 1 -6.399922,-1.07022 64.753744,71.647447 0 0 1 -6.0042,-1.69629 64.753744,71.647447 0 0 1 -0.26745,-0.075 64.753744,71.647447 0 0 1 -4.94727,-1.99819 64.753744,71.647447 0 0 1 -1.13291,-0.45759 64.753744,71.647447 0 0 1 -1.54646,-0.82661 64.753744,71.647447 0 0 1 -4.28159,-2.2887 64.753744,71.647447 0 0 1 -2.21901,-1.50529 z"
       id="path20369-3-7-8" />
    <path
       inkscape:connector-curvature="0"
       style="opacity:1;vector-effect:none;fill:url(#radialGradient14084-5);fill-opacity:1;stroke:#fa0000;stroke-width:0.0000463;stroke-linecap:round;stroke-linejoin:miter;stroke-miterlimit:4;stroke-dasharray:none;stroke-dashoffset:0;stroke-opacity:1;paint-order:markers fill stroke"
       d="m 82.302888,107.41824 a 64.753744,71.647447 0 0 0 -0.3232,0.15991 120.83968,133.7043 0 0 1 2.50077,12.3271 120.83968,133.7043 0 0 1 1.45566,13.26711 120.83968,133.7043 0 0 1 0.30246,9.45791 120.83968,133.7043 0 0 1 -0.60347,13.34859 120.83968,133.7043 0 0 1 -1.80502,13.2147 120.83968,133.7043 0 0 1 -2.98828,12.94939 120.83968,133.7043 0 0 1 -2.22196,6.73521 64.753744,71.647447 0 0 0 1.20252,0.81561 64.753744,71.647447 0 0 0 5.82854,3.1154 64.753744,71.647447 0 0 0 6.08019,2.45581 64.753744,71.647447 0 0 0 3.0539,0.86258 40.497244,44.808592 0 0 0 -0.69625,0.17309 40.497244,44.808592 0 0 0 -3.84146,1.4124 40.497244,44.808592 0 0 0 -0.75693,0.3746 21.584231,23.882095 0 0 1 0.98394,0.055 21.584231,23.882095 0 0 1 2.13314,0.35702 21.584231,23.882095 0 0 1 2.0907,0.59078 21.584231,23.882095 0 0 1 0.42338,0.17091 40.497249,44.808598 0 0 1 0.81468,-0.5171 40.497249,44.808598 0 0 1 3.09931,-1.53471 64.753744,71.647447 0 0 0 5.367152,0.89761 64.753744,71.647447 0 0 0 6.46459,0.35822 64.753744,71.647447 0 0 0 4.58064,-0.17961 64.753744,71.647447 0 0 0 4.08518,-0.5488 64.753744,71.647447 0 0 0 2.3399,-0.31389 64.753744,71.647447 0 0 0 0.28718,-0.072 21.584231,23.882095 0 0 1 0.2043,-0.1015 21.584231,23.882095 0 0 1 2.04778,-0.75278 21.584231,23.882095 0 0 1 2.10501,-0.52262 21.584231,23.882095 0 0 1 0.011,0 21.584231,23.882095 0 0 1 2.1055,-0.28278 64.753744,71.647447 0 0 0 5.69777,-2.09441 64.753744,71.647447 0 0 0 5.90799,-2.9258 64.753744,71.647447 0 0 0 0.38193,-0.24251 120.83968,133.7043 0 0 1 -0.91485,-2.2624 120.83968,133.7043 0 0 1 -3.80889,-12.68309 120.83968,133.7043 0 0 1 -2.64535,-13.04051 120.83968,133.7043 0 0 1 -1.45565,-13.26721 120.83968,133.7043 0 0 1 -0.30247,-9.4579 120.83968,133.7043 0 0 1 0.60347,-13.3479 120.83968,133.7043 0 0 1 1.80503,-13.2148 120.83968,133.7043 0 0 1 1.128,-4.88809 64.753744,71.647447 0 0 0 -0.0425,-0.022 55.385338,61.281678 0 0 1 -0.52945,0.33581 55.385338,61.281678 0 0 1 -5.05332,2.50219 55.385338,61.281678 0 0 1 -5.25368,1.9317 55.385338,61.281678 0 0 1 -5.40222,1.34141 55.385338,61.281678 0 0 1 -5.49545,0.7381 55.385338,61.281678 0 0 1 -3.91792,0.15349 55.385338,61.281678 0 0 1 -5.5295,-0.30621 55.385338,61.281678 0 0 1 -5.473772,-0.91508 55.385338,61.281678 0 0 1 -5.3642,-1.51571 55.385338,61.281678 0 0 1 -5.20086,-2.1004 55.385338,61.281678 0 0 1 -4.98476,-2.6643 55.385338,61.281678 0 0 1 -0.48013,-0.32589 z"
       id="path20181-8-4-4" />
    <path
       inkscape:connector-curvature="0"
       style="opacity:1;vector-effect:none;fill:url(#radialGradient14092-0);fill-opacity:1;stroke:#fa0000;stroke-width:0.0000463;stroke-linecap:round;stroke-linejoin:miter;stroke-miterlimit:4;stroke-dasharray:none;stroke-dashoffset:0;stroke-opacity:1;paint-order:markers fill stroke"
       d="m 78.619848,188.87816 a 120.83967,133.70429 0 0 1 -1.91998,5.8195 120.83967,133.70429 0 0 1 -0.11695,0.26801 64.753744,71.647447 0 0 0 2.21901,1.50529 64.753744,71.647447 0 0 0 4.2816,2.2887 64.753744,71.647447 0 0 0 1.54645,0.82659 64.753744,71.647447 0 0 0 1.13292,0.45752 64.753744,71.647447 0 0 0 4.94726,1.9983 64.753744,71.647447 0 0 0 0.26745,0.075 64.753744,71.647447 0 0 0 6.00419,1.6964 64.753744,71.647447 0 0 0 6.399942,1.07001 64.753744,71.647447 0 0 0 0.0533,0 64.753744,71.647447 0 0 0 6.41126,0.3556 64.753744,71.647447 0 0 0 3.14768,-0.12341 64.753744,71.647447 0 0 0 1.43296,-0.056 64.753744,71.647447 0 0 0 6.42559,-0.86321 64.753744,71.647447 0 0 0 6.31556,-1.56809 64.753744,71.647447 0 0 0 0.5334,-0.19599 64.753744,71.647447 0 0 0 5.60896,-2.06261 64.753744,71.647447 0 0 0 1.10483,-0.54711 64.753744,71.647447 0 0 0 4.41433,-2.1862 64.753744,71.647447 0 0 0 0.38883,-0.19209 64.753744,71.647447 0 0 0 2.8896,-1.83401 9.9640702,11.024848 0 0 1 0.21366,-0.92638 9.9640702,11.024848 0 0 1 0.01,-0.031 120.83967,133.70429 0 0 1 -1.71027,-4.2286 64.753744,71.647447 0 0 1 -0.38191,0.24248 64.753744,71.647447 0 0 1 -5.908,2.92582 64.753744,71.647447 0 0 1 -5.69775,2.0944 21.584231,23.882095 0 0 0 -2.10553,0.2828 21.584231,23.882095 0 0 0 -0.0108,0 21.584231,23.882095 0 0 0 -2.10502,0.52251 21.584231,23.882095 0 0 0 -2.04779,0.75289 21.584231,23.882095 0 0 0 -0.20429,0.10137 64.753744,71.647447 0 0 1 -0.28717,0.072 64.753744,71.647447 0 0 1 -2.33991,0.31389 64.753744,71.647447 0 0 1 -4.08518,0.54873 64.753744,71.647447 0 0 1 -4.58065,0.17968 64.753744,71.647447 0 0 1 -6.46458,-0.3582 64.753744,71.647447 0 0 1 -5.367152,-0.89758 40.497249,44.808598 0 0 0 -3.09931,1.53466 40.497249,44.808598 0 0 0 -0.81468,0.51704 21.58423,23.882094 0 0 0 -0.42337,-0.17082 21.58423,23.882094 0 0 0 -2.09071,-0.59078 21.58423,23.882094 0 0 0 -2.13314,-0.35701 21.58423,23.882094 0 0 0 -0.98393,-0.055 40.497244,44.808592 0 0 1 0.75693,-0.37449 40.497244,44.808592 0 0 1 3.84146,-1.41251 40.497244,44.808592 0 0 1 0.69625,-0.17299 64.753744,71.647447 0 0 1 -3.05392,-0.8627 64.753744,71.647447 0 0 1 -6.08019,-2.45572 64.753744,71.647447 0 0 1 -5.82853,-3.1154 64.753744,71.647447 0 0 1 -1.20252,-0.8157 z"
       id="path20243-3-5-8" />
    <path
       style="opacity:1;vector-effect:none;fill:#b3b3b3;fill-opacity:1;stroke:#fa0000;stroke-width:0.0000463;stroke-linecap:round;stroke-linejoin:miter;stroke-miterlimit:4;stroke-dasharray:none;stroke-dashoffset:0;stroke-opacity:1;paint-order:markers fill stroke"
       d="m 80.544928,126.09898 a 64.753744,71.647447 0 0 1 0.32319,-0.15991 55.385338,61.281678 0 0 1 -0.412,-0.27948 120.83968,133.7043 0 0 1 0.0888,0.43939 z"
       id="path20397-7-2-1"
       inkscape:connector-curvature="0" />
    <path
       style="opacity:1;vector-effect:none;fill:#b3b3b3;fill-opacity:1;stroke:#fa0000;stroke-width:0.0000463;stroke-linecap:round;stroke-linejoin:miter;stroke-miterlimit:4;stroke-dasharray:none;stroke-dashoffset:0;stroke-opacity:1;paint-order:markers fill stroke"
       d="m 70.210128,208.96176 a 120.83968,133.7043 0 0 0 0.32122,-0.5798 21.584231,23.882095 0 0 0 -0.0262,0.038 21.584231,23.882095 0 0 0 -0.302,0.54488 9.9640694,11.024847 0 0 0 0.007,0 z"
       id="path20381-9-5-0"
       inkscape:connector-curvature="0" />
    <path
       style="opacity:1;vector-effect:none;fill:#b3b3b3;fill-opacity:1;stroke:#fa0000;stroke-width:0.0000463;stroke-linecap:round;stroke-linejoin:miter;stroke-miterlimit:4;stroke-dasharray:none;stroke-dashoffset:0;stroke-opacity:1;paint-order:markers fill stroke"
       d="m 70.210128,208.96176 a 9.9640694,11.024847 0 0 1 -0.007,0 21.584231,23.882095 0 0 0 -0.82552,1.4905 21.584231,23.882095 0 0 0 -0.0177,0.041 120.83968,133.7043 0 0 0 0.85017,-1.53468 z"
       id="path20379-3-4-3"
       inkscape:connector-curvature="0" />
    <path
       style="opacity:1;vector-effect:none;fill:#b3b3b3;fill-opacity:1;stroke:#fa0000;stroke-width:0.0000463;stroke-linecap:round;stroke-linejoin:miter;stroke-miterlimit:4;stroke-dasharray:none;stroke-dashoffset:0;stroke-opacity:1;paint-order:markers fill stroke"
       d="m 141.9689,199.33724 a 64.753744,71.647447 0 0 1 -0.14211,0.09 21.584231,23.882095 0 0 1 0.16431,0.11149 9.9640702,11.024848 0 0 1 -0.0222,-0.2015 z"
       id="path20325-7-7-0"
       inkscape:connector-curvature="0" />
    <path
       inkscape:connector-curvature="0"
       style="opacity:1;vector-effect:none;fill:url(#radialGradient8273-3-9);fill-opacity:1;stroke:#fa0000;stroke-width:0.0000463;stroke-linecap:round;stroke-linejoin:miter;stroke-miterlimit:4;stroke-dasharray:none;stroke-dashoffset:0;stroke-opacity:1;paint-order:markers fill stroke"
       d="m 152.74565,224.75516 a 64.753744,71.647447 0 0 1 -1.97523,1.91969 64.753744,71.647447 0 0 1 -2.71,2.63422 64.753744,71.647447 0 0 1 -3.23005,2.55569 64.753744,71.647447 0 0 1 -2.03496,1.61019 64.753744,71.647447 0 0 1 -5.61439,3.56352 64.753744,71.647447 0 0 1 -5.90799,2.92528 64.753744,71.647447 0 0 1 -6.14233,2.25813 64.753744,71.647447 0 0 1 -0.89759,0.22288 64.753744,71.647447 0 0 1 -5.41799,1.3458 64.753744,71.647447 0 0 1 -6.4256,0.8631 64.753744,71.647447 0 0 1 -4.58063,0.17909 64.753744,71.647447 0 0 1 -6.46455,-0.35758 64.753744,71.647447 0 0 1 -4.360082,-0.72891 21.584231,23.882095 0 0 1 -0.84378,0.4177 21.584231,23.882095 0 0 0 0.84378,-0.4177 64.753744,71.647447 0 0 1 -2.0389,-0.34119 64.753744,71.647447 0 0 1 -6.27165,-1.77233 64.753744,71.647447 0 0 1 -6.08018,-2.45577 64.753744,71.647447 0 0 1 -5.82806,-3.11471 64.753744,71.647447 0 0 1 -2.75142,-1.8667 64.753744,71.647447 0 0 1 -2.76573,-1.87662 64.753744,71.647447 0 0 1 -3.36576,-2.8308 21.584231,23.882095 0 0 0 0.32171,1.07119 21.584231,23.882095 0 0 0 0.88129,2.17889 21.584231,23.882095 0 0 0 1.07325,2.07092 21.584231,23.882095 0 0 0 1.25531,1.94199 21.584231,23.882095 0 0 0 1.42359,1.79361 21.584231,23.882095 0 0 0 0.99918,1.02971 21.584231,23.882095 0 0 1 -1.00017,-1.03068 21.584231,23.882095 0 0 1 -1.4236,-1.79362 21.584231,23.882095 0 0 1 -1.25532,-1.94198 21.584231,23.882095 0 0 1 -1.07322,-2.07092 21.584231,23.882095 0 0 1 -0.8813,-2.17891 21.584231,23.882095 0 0 1 -0.32171,-1.07119 64.753744,71.647447 0 0 1 -1.78724,-1.50319 64.753744,71.647447 0 0 1 -0.21319,-0.2199 40.497244,44.808592 0 0 0 -0.64837,2.80951 40.497244,44.808592 0 0 0 -0.60496,4.42837 40.497244,44.808592 0 0 0 -0.19786,4.37552 75.695813,83.754412 0 0 0 0.639,0.5372 75.695813,83.754412 0 0 0 6.45077,4.37591 75.695813,83.754412 0 0 0 2.82494,1.50968 75.695813,83.754412 0 0 0 3.988,2.13141 75.695813,83.754412 0 0 0 7.10754,2.8708 75.695813,83.754412 0 0 0 7.33155,2.07141 75.695813,83.754412 0 0 0 7.481062,1.2514 75.695813,83.754412 0 0 0 7.55707,0.4182 75.695813,83.754412 0 0 0 5.35485,-0.20972 75.695813,83.754412 0 0 0 7.51115,-1.00888 75.695813,83.754412 0 0 0 7.38289,-1.8334 75.695813,83.754412 0 0 0 7.18007,-2.64031 75.695813,83.754412 0 0 0 6.90669,-3.4194 75.695813,83.754412 0 0 0 3.0939,-1.96392 75.695813,83.754412 0 0 0 3.46937,-2.20199 75.695813,83.754412 0 0 0 6.02493,-4.768 40.497249,44.808598 0 0 0 -0.0316,-0.99038 40.497249,44.808598 0 0 0 -0.48752,-4.4463 40.497249,44.808598 0 0 0 -0.88672,-4.37061 40.497249,44.808598 0 0 0 -0.58128,-1.9359 z"
       id="path20315-8-4-4" />
    <path
       inkscape:connector-curvature="0"
       style="opacity:1;vector-effect:none;fill:url(#radialGradient8271-1-2);fill-opacity:1;stroke:#fa0000;stroke-width:0.0000463;stroke-linecap:round;stroke-linejoin:miter;stroke-miterlimit:4;stroke-dasharray:none;stroke-dashoffset:0;stroke-opacity:1;paint-order:markers fill stroke"
       d="m 154.73276,236.49845 a 75.695813,83.754412 0 0 1 -6.02494,4.76802 75.695813,83.754412 0 0 1 -3.46938,2.20187 75.695813,83.754412 0 0 1 -3.09388,1.96393 75.695813,83.754412 0 0 1 -6.90671,3.41939 75.695813,83.754412 0 0 1 -7.18006,2.6404 75.695813,83.754412 0 0 1 -7.38289,1.83339 75.695813,83.754412 0 0 1 -7.51116,1.0088 75.695813,83.754412 0 0 1 -5.35485,0.20982 75.695813,83.754412 0 0 1 -7.55706,-0.4183 75.695813,83.754412 0 0 1 -7.481062,-1.2514 75.695813,83.754412 0 0 1 -7.33155,-2.07141 75.695813,83.754412 0 0 1 -7.10754,-2.8707 75.695813,83.754412 0 0 1 -3.98801,-2.13151 75.695813,83.754412 0 0 1 -2.82493,-1.50959 75.695813,83.754412 0 0 1 -6.45076,-4.37601 75.695813,83.754412 0 0 1 -0.63902,-0.53717 40.497244,44.808592 0 0 0 -0.005,0.098 40.497244,44.808592 0 0 0 0.10114,3.1694 40.497244,44.808592 0 0 0 0.488,4.44639 40.497244,44.808592 0 0 0 0.0908,0.44829 88.476426,97.895651 0 0 0 1.73049,1.1739 88.476426,97.895651 0 0 0 7.96316,4.2564 88.476426,97.895651 0 0 0 1.34168,0.54161 88.476426,97.895651 0 0 0 6.96641,2.8139 88.476426,97.895651 0 0 0 8.56912,2.42081 88.476426,97.895651 0 0 0 8.744272,1.46268 88.476426,97.895651 0 0 0 8.83309,0.48862 88.476426,97.895651 0 0 0 6.25834,-0.24511 88.476426,97.895651 0 0 0 8.77979,-1.17931 88.476426,97.895651 0 0 0 8.62933,-2.14289 88.476426,97.895651 0 0 0 8.39244,-3.0853 88.476426,97.895651 0 0 0 2.22298,-1.10069 88.476426,97.895651 0 0 0 5.84975,-2.897 88.476426,97.895651 0 0 0 4.67881,-2.9695 40.497249,44.808598 0 0 0 0.53635,-3.92779 40.497249,44.808598 0 0 0 0.20233,-4.47311 40.497249,44.808598 0 0 0 -0.0701,-2.179 z"
       id="path20283-7-4-4" />
    <path
       style="opacity:1;vector-effect:none;fill:#b3b3b3;fill-opacity:1;stroke:#fa0000;stroke-width:0.0000463;stroke-linecap:round;stroke-linejoin:miter;stroke-miterlimit:4;stroke-dasharray:none;stroke-dashoffset:0;stroke-opacity:1;paint-order:markers fill stroke"
       d="m 133.59584,126.78647 a 120.83968,133.7043 0 0 1 0.0134,-0.058 55.385338,61.281678 0 0 1 -0.0558,0.036 64.753744,71.647447 0 0 1 0.0424,0.022 z"
       id="path20185-4-3-4"
       inkscape:connector-curvature="0" />
    <path
       style="opacity:1;vector-effect:none;fill:#b3b3b3;fill-opacity:1;stroke:#fa0000;stroke-width:0.0000463;stroke-linecap:round;stroke-linejoin:miter;stroke-miterlimit:4;stroke-dasharray:none;stroke-dashoffset:0;stroke-opacity:1;paint-order:markers fill stroke"
       d="m 142.59408,195.30476 a 120.83968,133.7043 0 0 1 -0.26252,-0.6486 9.9640702,11.024848 0 0 0 -0.01,0.031 9.9640702,11.024848 0 0 0 -0.21364,0.9266 64.753744,71.647447 0 0 0 0.48602,-0.3085 z"
       id="path20173-1-0-4"
       inkscape:connector-curvature="0" />
    <path
       style="opacity:1;vector-effect:none;fill:#999999;fill-opacity:1;stroke:#fa0000;stroke-width:0.0000463;stroke-linecap:round;stroke-linejoin:miter;stroke-miterlimit:4;stroke-dasharray:none;stroke-dashoffset:0;stroke-opacity:1;paint-order:markers fill stroke"
       d="m 85.455988,105.99875 a 64.753744,71.647447 0 0 0 -1.11125,0.40841 64.753744,71.647447 0 0 0 -2.04185,1.01108 55.385338,61.281678 0 0 0 0.48012,0.32591 55.385338,61.281678 0 0 0 4.98476,2.66449 55.385338,61.281678 0 0 0 5.20086,2.1002 55.385338,61.281678 0 0 0 5.36421,1.5157 55.385338,61.281678 0 0 0 5.473762,0.91511 55.385338,61.281678 0 0 0 5.5295,0.30628 55.385338,61.281678 0 0 0 3.91793,-0.15338 55.385338,61.281678 0 0 0 5.49545,-0.7382 55.385338,61.281678 0 0 0 5.40222,-1.3415 55.385338,61.281678 0 0 0 5.25368,-1.93162 55.385338,61.281678 0 0 0 5.05332,-2.50219 55.385338,61.281678 0 0 0 0.52946,-0.33581 64.753744,71.647447 0 0 0 -1.9629,-1.04939 64.753744,71.647447 0 0 0 -2.18694,-0.88339 103.40398,114.4124 0 0 1 -4.43752,1.10239 103.40398,114.4124 0 0 1 -10.26063,1.378 103.40398,114.4124 0 0 1 -7.31477,0.2867 103.40398,114.4124 0 0 1 -10.322812,-0.57168 103.40398,114.4124 0 0 1 -10.22016,-1.70892 103.40398,114.4124 0 0 1 -2.82644,-0.79819 z"
       id="path20093-9-8-6"
       inkscape:connector-curvature="0" />
    <path
       style="display:inline;opacity:1;fill:url(#radialGradient16008);fill-opacity:1;stroke:none;stroke-width:0.00004629;stroke-linecap:round;stroke-linejoin:miter;stroke-miterlimit:4;stroke-dasharray:none;stroke-opacity:1;paint-order:markers fill stroke"
       d="m 84.238019,69.415981 a 64.09706,64.963318 0 0 0 0.219699,0.107743 64.09706,64.963318 0 0 0 6.018414,2.22616 64.09706,64.963318 0 0 0 6.20774,1.606745 64.09706,64.963318 0 0 0 6.335808,0.970365 64.09706,64.963318 0 0 0 6.39859,0.32439 64.09706,64.963318 0 0 0 4.53435,-0.162469 64.09706,64.963318 0 0 0 6.36028,-0.78226 64.09706,64.963318 0 0 0 6.25111,-1.421856 64.09706,64.963318 0 0 0 6.08034,-2.047787 64.09706,64.963318 0 0 0 1.92717,-0.874064 29.359815,29.756606 0 0 0 -0.44733,-0.790093 29.359815,29.756606 0 0 0 -1.7073,-2.419771 29.359815,29.756606 0 0 0 -1.93679,-2.235037 29.359815,29.756606 0 0 0 -2.14771,-2.027282 29.359815,29.756606 0 0 0 -2.33602,-1.800322 29.359815,29.756606 0 0 0 -2.50257,-1.554379 29.359815,29.756606 0 0 0 -2.64211,-1.29395 29.359815,29.756606 0 0 0 -2.58981,-0.958052 46.921591,47.555725 0 0 0 -4.34942,-0.666291 46.921591,47.555725 0 0 0 -4.68436,-0.237735 46.921591,47.555725 0 0 0 -3.3196,0.119714 46.921591,47.555725 0 0 0 -4.60759,0.566417 29.359815,29.756606 0 0 0 -2.521638,0.850325 29.359815,29.756606 0 0 0 -2.67873,1.214205 29.359815,29.756606 0 0 0 -2.54543,1.480361 29.359815,29.756606 0 0 0 -2.38749,1.730375 29.359815,29.756606 0 0 0 -2.2044,1.962808 29.359815,29.756606 0 0 0 -2.000236,2.176736 29.359815,29.756606 0 0 0 -1.776316,2.36756 29.359815,29.756606 0 0 0 -0.948651,1.567923 z"
       id="path5573-5-4"
       inkscape:connector-curvature="0" />
    <ellipse
       style="display:inline;opacity:1;fill:url(#linearGradient5767-0-3);fill-opacity:1;stroke:none;stroke-width:0.00004629;stroke-linecap:round;stroke-linejoin:miter;stroke-miterlimit:4;stroke-dasharray:none;stroke-opacity:1;paint-order:markers fill stroke"
       id="path836-2-6-5-0-8"
       cx="110.22448"
       cy="51.779976"
       rx="5.5800171"
       ry="5.6554298" />
    <path
       inkscape:connector-curvature="0"
       style="display:inline;opacity:1;fill:url(#radialGradient8227-7);fill-opacity:1;stroke:#fa0000;stroke-width:0.00004629;stroke-linecap:round;stroke-linejoin:miter;stroke-miterlimit:4;stroke-dasharray:none;stroke-opacity:1;paint-order:markers fill stroke"
       d="m 78.839046,65.867327 a 46.921591,47.555725 0 0 0 -1.249512,1.112636 133.76545,135.57326 0 0 1 4.403582,6.241168 133.76545,135.57326 0 0 1 3.307284,4.686617 133.76545,135.57326 0 0 1 6.653382,11.75511 133.76545,135.57326 0 0 1 1.27566,2.889887 83.699827,84.831012 0 0 0 3.1966,0.827221 83.699827,84.831012 0 0 0 8.272598,1.267426 83.699827,84.831012 0 0 0 8.35612,0.424128 83.699827,84.831012 0 0 0 5.92089,-0.212919 83.699827,84.831012 0 0 0 6.1831,-0.760866 133.76545,135.57326 0 0 1 3.16706,-6.644278 133.76545,135.57326 0 0 1 6.989,-11.552588 133.76545,135.57326 0 0 1 1.69246,-2.256294 133.76545,135.57326 0 0 1 4.5222,-6.029104 46.921591,47.555725 0 0 0 -1.77108,-1.672074 64.09706,64.963318 0 0 1 -1.26521,0.735247 64.09706,64.963318 0 0 1 -3.92132,1.779098 64.09706,64.963318 0 0 1 -1.927,0.874064 64.09706,64.963318 0 0 1 -6.08035,2.04765 64.09706,64.963318 0 0 1 -6.25127,1.421993 64.09706,64.963318 0 0 1 -6.36028,0.782089 64.09706,64.963318 0 0 1 -4.53435,0.162468 64.09706,64.963318 0 0 1 -6.39859,-0.324252 64.09706,64.963318 0 0 1 -6.335808,-0.970365 64.09706,64.963318 0 0 1 -6.20757,-1.606745 64.09706,64.963318 0 0 1 -6.018587,-2.226332 64.09706,64.963318 0 0 1 -0.219698,-0.107742 64.09706,64.963318 0 0 1 -5.399311,-2.64326 z"
       id="path5581-2-1" />
  </g>
</svg>
