<?xml version="1.0" encoding="UTF-8" standalone="no"?>
<!-- Created with Inkscape (http://www.inkscape.org/) -->

<svg
   xmlns:dc="http://purl.org/dc/elements/1.1/"
   xmlns:cc="http://creativecommons.org/ns#"
   xmlns:rdf="http://www.w3.org/1999/02/22-rdf-syntax-ns#"
   xmlns:svg="http://www.w3.org/2000/svg"
   xmlns="http://www.w3.org/2000/svg"
   xmlns:xlink="http://www.w3.org/1999/xlink"
   xmlns:sodipodi="http://sodipodi.sourceforge.net/DTD/sodipodi-0.dtd"
   xmlns:inkscape="http://www.inkscape.org/namespaces/inkscape"
   width="210mm"
   height="297mm"
   viewBox="0 0 210 297"
   version="1.1"
   id="svg8515"
   inkscape:version="0.92.3 (2405546, 2018-03-11)"
   sodipodi:docname="wR.svg">
  <defs
     id="defs8509">
    <linearGradient
       inkscape:collect="always"
       xlink:href="#linearGradient21010"
       id="linearGradient20615-7"
       x1="1985.1484"
       y1="211.13672"
       x2="1383.7902"
       y2="372.05136"
       gradientUnits="userSpaceOnUse"
       gradientTransform="matrix(0.27953856,0,0,0.27953856,-411.55865,28.950879)" />
    <linearGradient
       id="linearGradient21010"
       inkscape:collect="always">
      <stop
         id="stop21006"
         offset="0"
         style="stop-color:#b3b3b3;stop-opacity:1" />
      <stop
         id="stop21008"
         offset="1"
         style="stop-color:#f9f9f9;stop-opacity:1" />
    </linearGradient>
    <radialGradient
       inkscape:collect="always"
       xlink:href="#linearGradient21034"
       id="radialGradient8271"
       cx="-423.30923"
       cy="213.14563"
       fx="-423.30923"
       fy="213.14563"
       r="50.000023"
       gradientTransform="matrix(1,0,0,0.24199767,528.38662,193.66501)"
       gradientUnits="userSpaceOnUse" />
    <linearGradient
       id="linearGradient21034"
       inkscape:collect="always">
      <stop
         id="stop21030"
         offset="0"
         style="stop-color:#ececec;stop-opacity:1" />
      <stop
         id="stop21032"
         offset="1"
         style="stop-color:#999999;stop-opacity:1" />
    </linearGradient>
    <radialGradient
       inkscape:collect="always"
       xlink:href="#linearGradient21034"
       id="radialGradient8273"
       cx="-423.34436"
       cy="204.19659"
       fx="-423.34436"
       fy="204.19659"
       r="49.958801"
       gradientTransform="matrix(1,0,0,0.29813419,528.38662,175.41873)"
       gradientUnits="userSpaceOnUse" />
    <linearGradient
       gradientTransform="matrix(0.27953856,0,0,0.27953856,-411.55865,25.596409)"
       inkscape:collect="always"
       xlink:href="#linearGradient21016"
       id="linearGradient20637-0"
       x1="1923.459"
       y1="596.48828"
       x2="1735.442"
       y2="694.21503"
       gradientUnits="userSpaceOnUse" />
    <linearGradient
       id="linearGradient21016"
       inkscape:collect="always">
      <stop
         id="stop21012"
         offset="0"
         style="stop-color:#cccccc;stop-opacity:1" />
      <stop
         id="stop21014"
         offset="1"
         style="stop-color:#f9f9f9;stop-opacity:1" />
    </linearGradient>
    <linearGradient
       gradientTransform="matrix(0.27953856,0,0,0.27953856,-411.55865,25.596409)"
       inkscape:collect="always"
       xlink:href="#linearGradient21004"
       id="linearGradient20629-5"
       x1="1948.7793"
       y1="283.74219"
       x2="1725.4961"
       y2="572.11914"
       gradientUnits="userSpaceOnUse" />
    <linearGradient
       id="linearGradient21004"
       inkscape:collect="always">
      <stop
         id="stop21000"
         offset="0"
         style="stop-color:#808080;stop-opacity:1" />
      <stop
         id="stop21002"
         offset="1"
         style="stop-color:#f2f2f2;stop-opacity:1" />
    </linearGradient>
    <linearGradient
       gradientTransform="matrix(0.27953856,0,0,0.27953856,-411.55865,25.596409)"
       inkscape:collect="always"
       xlink:href="#linearGradient21016"
       id="linearGradient20639-8"
       x1="1923.459"
       y1="596.48828"
       x2="1733.4218"
       y2="669.97137"
       gradientUnits="userSpaceOnUse" />
    <radialGradient
       inkscape:collect="always"
       xlink:href="#linearGradient21034"
       id="radialGradient8269"
       cx="-423.70905"
       cy="186.0631"
       fx="-423.70905"
       fy="186.0631"
       r="47.043297"
       gradientTransform="matrix(1,0,0,0.49566311,528.38662,125.9386)"
       gradientUnits="userSpaceOnUse" />
  </defs>
  <sodipodi:namedview
     id="base"
     pagecolor="#ffffff"
     bordercolor="#666666"
     borderopacity="1.0"
     inkscape:pageopacity="0.0"
     inkscape:pageshadow="2"
     inkscape:zoom="0.35"
     inkscape:cx="-58.571429"
     inkscape:cy="326.46525"
     inkscape:document-units="mm"
     inkscape:current-layer="layer1"
     showgrid="false"
     inkscape:window-width="1920"
     inkscape:window-height="1017"
     inkscape:window-x="0"
     inkscape:window-y="0"
     inkscape:window-maximized="1" />
  <metadata
     id="metadata8512">
    <rdf:RDF>
      <cc:Work
         rdf:about="">
        <dc:format>image/svg+xml</dc:format>
        <dc:type
           rdf:resource="http://purl.org/dc/dcmitype/StillImage" />
        <dc:title></dc:title>
      </cc:Work>
    </rdf:RDF>
  </metadata>
  <g
     inkscape:label="Layer 1"
     inkscape:groupmode="layer"
     id="layer1">
    <path
       inkscape:connector-curvature="0"
       style="opacity:1;vector-effect:none;fill:url(#radialGradient8269);fill-opacity:1;stroke:#fa0000;stroke-width:0.0000463;stroke-linecap:round;stroke-linejoin:miter;stroke-miterlimit:4;stroke-dasharray:none;stroke-dashoffset:0;stroke-opacity:1;paint-order:markers fill stroke"
       d="m 142.86349,194.84561 a 71.647447,71.647447 0 0 1 -1.98625,1.1393 11.024848,11.024848 0 0 0 0.0246,0.2015 23.882094,23.882094 0 0 0 -0.18182,-0.11139 71.647447,71.647447 0 0 1 -3.43964,1.97319 71.647447,71.647447 0 0 1 -1.32071,0.59131 71.647447,71.647447 0 0 1 -5.21625,2.334 71.647447,71.647447 0 0 1 -2.1899,0.72789 71.647447,71.647447 0 0 1 -4.60582,1.5303 71.647447,71.647447 0 0 1 -6.98793,1.5685 71.647447,71.647447 0 0 1 -7.10967,0.86321 71.647447,71.647447 0 0 1 -3.4904,0.12401 23.882094,23.882094 0 0 0 -0.51648,1.06899 23.882094,23.882094 0 0 0 -0.81843,2.2423 23.882094,23.882094 0 0 1 0.81787,-2.2423 23.882094,23.882094 0 0 1 0.5165,-1.06899 71.647447,71.647447 0 0 1 -1.57787,0.056 71.647447,71.647447 0 0 1 -3.14808,-0.15769 71.647447,71.647447 0 0 1 -4.004727,-0.20039 71.647447,71.647447 0 0 1 -7.081268,-1.07011 71.647447,71.647447 0 0 1 -6.938801,-1.77221 71.647447,71.647447 0 0 1 -2.786629,-1.01719 71.647447,71.647447 0 0 1 -3.94084,-1.43862 71.647447,71.647447 0 0 1 -2.1948,-1.06029 71.647447,71.647447 0 0 1 -3.92121,-1.89399 71.647447,71.647447 0 0 1 -0.33304,-0.1605 71.647447,71.647447 0 0 1 -2.071401,-1.26989 71.647447,71.647447 0 0 1 -1.43046,-0.87691 133.70429,133.70429 0 0 1 -4.08389,8.4545 133.70429,133.70429 0 0 1 -1.011679,1.64989 133.7043,133.7043 0 0 1 -0.355431,0.57991 133.70429,133.70429 0 0 1 -0.94071,1.53469 23.882094,23.882094 0 0 0 -1.018799,2.10852 23.882094,23.882094 0 0 0 -0.81841,2.24229 23.882094,23.882094 0 0 0 -0.59074,2.3133 23.882094,23.882094 0 0 0 -0.35706,2.3603 23.882094,23.882094 0 0 0 -0.11902,2.38418 23.882094,23.882094 0 0 0 0.0595,1.68932 23.882094,23.882094 0 0 0 0.0869,0.7163 23.882094,23.882094 0 0 0 0.20092,1.6537 23.882094,23.882094 0 0 0 0.52305,2.3291 23.882094,23.882094 0 0 0 0.39692,1.19409 71.647447,71.647447 0 0 0 3.72407,2.83081 71.647447,71.647447 0 0 0 3.06019,1.87661 71.647447,71.647447 0 0 0 3.045429,1.86719 71.647447,71.647447 0 0 0 6.448511,3.1148 71.647447,71.647447 0 0 0 6.72749,2.45571 71.647447,71.647447 0 0 0 6.93932,1.77239 71.647447,71.647447 0 0 0 2.257039,0.3411 71.647447,71.647447 0 0 0 4.824259,0.7289 71.647447,71.647447 0 0 0 7.152767,0.35758 71.647447,71.647447 0 0 0 5.06829,-0.17899 71.647447,71.647447 0 0 0 7.10967,-0.8632 71.647447,71.647447 0 0 0 5.99479,-1.3458 71.647447,71.647447 0 0 0 0.99312,-0.22278 71.647447,71.647447 0 0 0 6.79628,-2.25822 71.647447,71.647447 0 0 0 6.53695,-2.92529 71.647447,71.647447 0 0 0 6.21208,-3.56362 71.647447,71.647447 0 0 0 2.2505,-1.60999 v 0 a 71.647447,71.647447 0 0 0 3.57393,-2.55579 71.647447,71.647447 0 0 0 2.9985,-2.6343 23.882094,23.882094 0 0 0 0.0393,-0.10811 23.882094,23.882094 0 0 0 0.59075,-2.31269 23.882094,23.882094 0 0 0 0.35652,-2.3608 23.882094,23.882094 0 0 0 0.0185,-0.37082 23.882094,23.882094 0 0 0 0.101,-2.01347 23.882094,23.882094 0 0 0 -0.06,-1.68932 23.882094,23.882094 0 0 0 -0.28772,-2.36939 23.882094,23.882094 0 0 0 -0.52251,-2.32971 23.882094,23.882094 0 0 0 -0.41166,-1.23878 133.70429,133.70429 0 0 1 -1.9677,-3.4304 133.70429,133.70429 0 0 1 -2.63867,-4.59992 133.7043,133.7043 0 0 1 -2.00046,-3.48699 133.7043,133.7043 0 0 1 -0.96964,-2.16649 z m -37.83926,14.25361 a 23.882094,23.882094 0 0 0 -0.59074,2.3128 23.882094,23.882094 0 0 0 -0.0486,0.3216 23.882094,23.882094 0 0 1 0.14303,0.43069 23.882094,23.882094 0 0 1 0.52304,2.32921 23.882094,23.882094 0 0 1 0.28774,2.37 23.882094,23.882094 0 0 1 0.0595,1.68929 23.882094,23.882094 0 0 1 -0.11903,2.38432 23.882094,23.882094 0 0 1 -0.30847,2.03758 23.882094,23.882094 0 0 0 0.60987,1.8361 23.882094,23.882094 0 0 0 0.97508,2.179 23.882094,23.882094 0 0 0 1.18804,2.07021 23.882094,23.882094 0 0 0 1.38842,1.94209 23.882094,23.882094 0 0 0 1.5757,1.79351 23.882094,23.882094 0 0 1 -1.57568,-1.79351 23.882094,23.882094 0 0 1 -1.38841,-1.94209 23.882094,23.882094 0 0 1 -1.18804,-2.07021 23.882094,23.882094 0 0 1 -0.97511,-2.179 23.882094,23.882094 0 0 1 -0.60984,-1.8361 23.882094,23.882094 0 0 0 0.30847,-2.03758 23.882094,23.882094 0 0 0 0.11903,-2.38432 23.882094,23.882094 0 0 0 -0.0595,-1.68929 23.882094,23.882094 0 0 0 -0.28773,-2.37 23.882094,23.882094 0 0 0 -0.52305,-2.32921 23.882094,23.882094 0 0 0 -0.14304,-0.43069 23.882094,23.882094 0 0 1 0.0486,-0.3216 23.882094,23.882094 0 0 1 0.59076,-2.3128 z"
       id="path20311-3" />
    <path
       inkscape:connector-curvature="0"
       style="opacity:1;vector-effect:none;fill:url(#linearGradient20639-8);fill-opacity:1;stroke:#fa0000;stroke-width:0.0000463;stroke-linecap:round;stroke-linejoin:miter;stroke-miterlimit:4;stroke-dasharray:none;stroke-dashoffset:0;stroke-opacity:1;paint-order:markers fill stroke"
       d="m 68.530253,191.61333 a 133.7043,133.7043 0 0 1 -0.5034,1.04129 133.70429,133.70429 0 0 1 -1.09685,2.2706 71.647447,71.647447 0 0 0 1.43046,0.87681 71.647447,71.647447 0 0 0 2.071399,1.27 71.647447,71.647447 0 0 0 0.333051,0.1606 71.647447,71.647447 0 0 0 3.9212,1.89389 71.647447,71.647447 0 0 0 2.19479,1.06029 71.647447,71.647447 0 0 0 3.94086,1.43862 71.647447,71.647447 0 0 0 2.78663,1.01719 71.647447,71.647447 0 0 0 6.938799,1.7722 71.647447,71.647447 0 0 0 7.081261,1.07008 71.647447,71.647447 0 0 0 4.004727,0.20043 71.647447,71.647447 0 0 0 3.14807,0.15769 71.647447,71.647447 0 0 0 1.57789,-0.056 71.647447,71.647447 0 0 0 3.49041,-0.12388 71.647447,71.647447 0 0 0 7.10966,-0.86321 71.647447,71.647447 0 0 0 6.98791,-1.5685 71.647447,71.647447 0 0 0 4.60637,-1.5304 71.647447,71.647447 0 0 0 2.18991,-0.72779 71.647447,71.647447 0 0 0 5.21625,-2.33402 71.647447,71.647447 0 0 0 1.32071,-0.59129 71.647447,71.647447 0 0 0 3.43964,-1.97321 71.647447,71.647447 0 0 0 0.15724,-0.09 71.647447,71.647447 0 0 0 1.98625,-1.1394 133.70429,133.70429 0 0 1 -1.29451,-2.89311 71.647447,71.647447 0 0 1 -0.53777,0.3085 71.647447,71.647447 0 0 1 -3.19722,1.83391 71.647447,71.647447 0 0 1 -0.43024,0.19219 71.647447,71.647447 0 0 1 -4.88427,2.18602 71.647447,71.647447 0 0 1 -1.22245,0.54707 71.647447,71.647447 0 0 1 -6.20609,2.06272 71.647447,71.647447 0 0 1 -0.59019,0.19601 71.647447,71.647447 0 0 1 -6.98791,1.568 71.647447,71.647447 0 0 1 -7.10968,0.8632 71.647447,71.647447 0 0 1 -1.58551,0.056 71.647447,71.647447 0 0 1 -3.48277,0.12341 71.647447,71.647447 0 0 1 -7.093807,-0.35539 71.647447,71.647447 0 0 1 -0.059,0 71.647447,71.647447 0 0 1 -7.081268,-1.07022 71.647447,71.647447 0 0 1 -6.643402,-1.69629 71.647447,71.647447 0 0 1 -0.295928,-0.075 71.647447,71.647447 0 0 1 -5.47395,-1.99819 71.647447,71.647447 0 0 1 -1.25353,-0.45759 71.647447,71.647447 0 0 1 -1.71109,-0.82662 71.647447,71.647447 0 0 1 -4.737421,-2.28869 71.647447,71.647447 0 0 1 -2.455239,-1.5053 z"
       id="path20369-3" />
    <path
       inkscape:connector-curvature="0"
       style="opacity:1;vector-effect:none;fill:url(#linearGradient20629-5);fill-opacity:1;stroke:#fa0000;stroke-width:0.0000463;stroke-linecap:round;stroke-linejoin:miter;stroke-miterlimit:4;stroke-dasharray:none;stroke-dashoffset:0;stroke-opacity:1;paint-order:markers fill stroke"
       d="m 74.859173,104.06591 a 71.647447,71.647447 0 0 0 -0.35761,0.1599 133.7043,133.7043 0 0 1 2.76701,12.32711 133.7043,133.7043 0 0 1 1.61062,13.2671 133.7043,133.7043 0 0 1 0.33466,9.45791 133.7043,133.7043 0 0 1 -0.66771,13.34859 133.7043,133.7043 0 0 1 -1.99719,13.2147 133.7043,133.7043 0 0 1 -3.30641,12.94939 133.7043,133.7043 0 0 1 -2.45851,6.73521 71.647447,71.647447 0 0 0 1.33055,0.81561 71.647447,71.647447 0 0 0 6.44904,3.11539 71.647447,71.647447 0 0 0 6.727488,2.45581 71.647447,71.647447 0 0 0 3.379021,0.86259 44.808592,44.808592 0 0 0 -0.770369,0.17309 44.808592,44.808592 0 0 0 -4.25042,1.4124 44.808592,44.808592 0 0 0 -0.83752,0.3746 23.882095,23.882095 0 0 1 1.088689,0.055 23.882095,23.882095 0 0 1 2.360231,0.35701 23.882095,23.882095 0 0 1 2.313289,0.59078 23.882095,23.882095 0 0 1 0.46845,0.17092 44.808598,44.808598 0 0 1 0.901401,-0.5171 44.808598,44.808598 0 0 1 3.42927,-1.53471 71.647447,71.647447 0 0 0 5.93854,0.8976 71.647447,71.647447 0 0 0 7.152807,0.35822 71.647447,71.647447 0 0 0 5.06829,-0.1796 71.647447,71.647447 0 0 0 4.5201,-0.5488 71.647447,71.647447 0 0 0 2.589,-0.3139 71.647447,71.647447 0 0 0 0.31776,-0.072 23.882095,23.882095 0 0 1 0.22604,-0.1015 23.882095,23.882095 0 0 1 2.2658,-0.75279 23.882095,23.882095 0 0 1 2.32911,-0.52261 23.882095,23.882095 0 0 1 0.0121,0 23.882095,23.882095 0 0 1 2.32966,-0.28278 71.647447,71.647447 0 0 0 6.30436,-2.09442 71.647447,71.647447 0 0 0 6.53695,-2.92579 71.647447,71.647447 0 0 0 0.42258,-0.24251 133.7043,133.7043 0 0 1 -1.01224,-2.2624 133.7043,133.7043 0 0 1 -4.21437,-12.6831 133.7043,133.7043 0 0 1 -2.92698,-13.04049 133.7043,133.7043 0 0 1 -1.61061,-13.26721 133.7043,133.7043 0 0 1 -0.33469,-9.4579 133.7043,133.7043 0 0 1 0.66773,-13.34789 133.7043,133.7043 0 0 1 1.99719,-13.2148 133.7043,133.7043 0 0 1 1.24809,-4.8881 71.647447,71.647447 0 0 0 -0.047,-0.022 61.281678,61.281678 0 0 1 -0.58582,0.33581 61.281678,61.281678 0 0 1 -5.5913,2.50219 61.281678,61.281678 0 0 1 -5.81299,1.9317 61.281678,61.281678 0 0 1 -5.97734,1.34141 61.281678,61.281678 0 0 1 -6.0805,0.73811 61.281678,61.281678 0 0 1 -4.33502,0.15348 61.281678,61.281678 0 0 1 -6.118177,-0.3062 61.281678,61.281678 0 0 1 -6.056511,-0.91509 61.281678,61.281678 0 0 1 -5.935279,-1.51571 61.281678,61.281678 0 0 1 -5.754541,-2.1004 61.281678,61.281678 0 0 1 -5.51544,-2.6643 61.281678,61.281678 0 0 1 -0.53124,-0.32589 z"
       id="path20181-8" />
    <path
       inkscape:connector-curvature="0"
       style="opacity:1;vector-effect:none;fill:url(#linearGradient20637-0);fill-opacity:1;stroke:#fa0000;stroke-width:0.0000463;stroke-linecap:round;stroke-linejoin:miter;stroke-miterlimit:4;stroke-dasharray:none;stroke-dashoffset:0;stroke-opacity:1;paint-order:markers fill stroke"
       d="m 70.784033,185.52582 a 133.70429,133.70429 0 0 1 -2.12438,5.81949 133.70429,133.70429 0 0 1 -0.1294,0.26802 71.647447,71.647447 0 0 0 2.45524,1.50529 71.647447,71.647447 0 0 0 4.73743,2.2887 71.647447,71.647447 0 0 0 1.71108,0.82659 71.647447,71.647447 0 0 0 1.25354,0.45751 71.647447,71.647447 0 0 0 5.47394,1.9983 71.647447,71.647447 0 0 0 0.295918,0.075 71.647447,71.647447 0 0 0 6.643402,1.6964 71.647447,71.647447 0 0 0 7.08128,1.07 71.647447,71.647447 0 0 0 0.0589,0 71.647447,71.647447 0 0 0 7.093817,0.3556 71.647447,71.647447 0 0 0 3.48278,-0.1234 71.647447,71.647447 0 0 0 1.58551,-0.056 71.647447,71.647447 0 0 0 7.10967,-0.86321 71.647447,71.647447 0 0 0 6.98791,-1.5681 71.647447,71.647447 0 0 0 0.59018,-0.19598 71.647447,71.647447 0 0 0 6.2061,-2.06261 71.647447,71.647447 0 0 0 1.22245,-0.54711 71.647447,71.647447 0 0 0 4.88427,-2.1862 71.647447,71.647447 0 0 0 0.43023,-0.19209 71.647447,71.647447 0 0 0 3.19722,-1.83401 11.024848,11.024848 0 0 1 0.23641,-0.92638 11.024848,11.024848 0 0 1 0.0109,-0.031 133.70429,133.70429 0 0 1 -1.89234,-4.2286 71.647447,71.647447 0 0 1 -0.42257,0.24249 71.647447,71.647447 0 0 1 -6.53696,2.92582 71.647447,71.647447 0 0 1 -6.30434,2.09439 23.882095,23.882095 0 0 0 -2.32968,0.28281 23.882095,23.882095 0 0 0 -0.012,0 23.882095,23.882095 0 0 0 -2.32912,0.5225 23.882095,23.882095 0 0 0 -2.2658,0.7529 23.882095,23.882095 0 0 0 -0.22603,0.10138 71.647447,71.647447 0 0 1 -0.31775,0.072 71.647447,71.647447 0 0 1 -2.58901,0.3139 71.647447,71.647447 0 0 1 -4.5201,0.54872 71.647447,71.647447 0 0 1 -5.0683,0.17968 71.647447,71.647447 0 0 1 -7.152797,-0.3582 71.647447,71.647447 0 0 1 -5.938543,-0.89759 44.808598,44.808598 0 0 0 -3.42927,1.53468 44.808598,44.808598 0 0 0 -0.901401,0.51703 23.882094,23.882094 0 0 0 -0.46845,-0.17082 23.882094,23.882094 0 0 0 -2.313289,-0.59079 23.882094,23.882094 0 0 0 -2.360229,-0.357 23.882094,23.882094 0 0 0 -1.088691,-0.055 44.808592,44.808592 0 0 1 0.83752,-0.37449 44.808592,44.808592 0 0 1 4.25042,-1.4125 44.808592,44.808592 0 0 1 0.770371,-0.17301 71.647447,71.647447 0 0 1 -3.379031,-0.8627 71.647447,71.647447 0 0 1 -6.72749,-2.45571 71.647447,71.647447 0 0 1 -6.44904,-3.11539 71.647447,71.647447 0 0 1 -1.33054,-0.81571 z"
       id="path20243-3" />
    <path
       style="opacity:1;vector-effect:none;fill:#b3b3b3;fill-opacity:1;stroke:#fa0000;stroke-width:0.0000463;stroke-linecap:round;stroke-linejoin:miter;stroke-miterlimit:4;stroke-dasharray:none;stroke-dashoffset:0;stroke-opacity:1;paint-order:markers fill stroke"
       d="m 74.501563,104.22581 a 71.647447,71.647447 0 0 1 0.35761,-0.1599 61.281678,61.281678 0 0 1 -0.455871,-0.27948 133.7043,133.7043 0 0 1 0.0983,0.43938 z"
       id="path20397-7"
       inkscape:connector-curvature="0" />
    <path
       style="opacity:1;vector-effect:none;fill:#b3b3b3;fill-opacity:1;stroke:#fa0000;stroke-width:0.0000463;stroke-linecap:round;stroke-linejoin:miter;stroke-miterlimit:4;stroke-dasharray:none;stroke-dashoffset:0;stroke-opacity:1;paint-order:markers fill stroke"
       d="m 61.479013,205.60942 a 133.7043,133.7043 0 0 0 0.355419,-0.57981 23.882095,23.882095 0 0 0 -0.0289,0.038 23.882095,23.882095 0 0 0 -0.33415,0.54488 11.024847,11.024847 0 0 0 0.007,0 z"
       id="path20381-9"
       inkscape:connector-curvature="0" />
    <path
       style="opacity:1;vector-effect:none;fill:#b3b3b3;fill-opacity:1;stroke:#fa0000;stroke-width:0.0000463;stroke-linecap:round;stroke-linejoin:miter;stroke-miterlimit:4;stroke-dasharray:none;stroke-dashoffset:0;stroke-opacity:1;paint-order:markers fill stroke"
       d="m 61.479013,205.60942 a 11.024847,11.024847 0 0 1 -0.007,0 23.882095,23.882095 0 0 0 -0.913401,1.4905 23.882095,23.882095 0 0 0 -0.0195,0.041 133.7043,133.7043 0 0 0 0.9407,-1.53468 z"
       id="path20379-3"
       inkscape:connector-curvature="0" />
    <path
       style="opacity:1;vector-effect:none;fill:#b3b3b3;fill-opacity:1;stroke:#fa0000;stroke-width:0.0000463;stroke-linecap:round;stroke-linejoin:miter;stroke-miterlimit:4;stroke-dasharray:none;stroke-dashoffset:0;stroke-opacity:1;paint-order:markers fill stroke"
       d="m 140.87724,195.98491 a 71.647447,71.647447 0 0 1 -0.15724,0.09 23.882095,23.882095 0 0 1 0.1818,0.11149 11.024848,11.024848 0 0 1 -0.0246,-0.2015 z"
       id="path20325-7"
       inkscape:connector-curvature="0" />
    <path
       inkscape:connector-curvature="0"
       style="opacity:1;vector-effect:none;fill:url(#radialGradient8273);fill-opacity:1;stroke:#fa0000;stroke-width:0.0000463;stroke-linecap:round;stroke-linejoin:miter;stroke-miterlimit:4;stroke-dasharray:none;stroke-dashoffset:0;stroke-opacity:1;paint-order:markers fill stroke"
       d="m 152.80129,221.40282 a 71.647447,71.647447 0 0 1 -2.18552,1.91968 71.647447,71.647447 0 0 1 -2.9985,2.63422 71.647447,71.647447 0 0 1 -3.57393,2.55569 71.647447,71.647447 0 0 1 -2.2516,1.6102 71.647447,71.647447 0 0 1 -6.2121,3.56352 71.647447,71.647447 0 0 1 -6.53695,2.92528 71.647447,71.647447 0 0 1 -6.79625,2.25812 71.647447,71.647447 0 0 1 -0.99315,0.22288 71.647447,71.647447 0 0 1 -5.99479,1.3458 71.647447,71.647447 0 0 1 -7.10967,0.8631 71.647447,71.647447 0 0 1 -5.06828,0.1791 71.647447,71.647447 0 0 1 -7.152777,-0.35759 71.647447,71.647447 0 0 1 -4.82425,-0.7289 23.882095,23.882095 0 0 1 -0.933611,0.4177 23.882095,23.882095 0 0 0 0.933611,-0.4177 71.647447,71.647447 0 0 1 -2.255959,-0.3412 71.647447,71.647447 0 0 1 -6.93933,-1.77232 71.647447,71.647447 0 0 1 -6.727471,-2.45578 71.647447,71.647447 0 0 1 -6.44852,-3.1147 71.647447,71.647447 0 0 1 -3.04434,-1.86671 71.647447,71.647447 0 0 1 -3.06017,-1.87661 71.647447,71.647447 0 0 1 -3.72408,-2.83081 23.882095,23.882095 0 0 0 0.35596,1.07119 23.882095,23.882095 0 0 0 0.975109,2.1789 23.882095,23.882095 0 0 0 1.18751,2.07092 23.882095,23.882095 0 0 0 1.38894,1.94199 23.882095,23.882095 0 0 0 1.575151,1.79361 23.882095,23.882095 0 0 0 1.10556,1.02971 23.882095,23.882095 0 0 1 -1.106651,-1.03069 23.882095,23.882095 0 0 1 -1.57515,-1.79361 23.882095,23.882095 0 0 1 -1.388969,-1.94199 23.882095,23.882095 0 0 1 -1.18748,-2.07092 23.882095,23.882095 0 0 1 -0.97512,-2.1789 23.882095,23.882095 0 0 1 -0.35596,-1.07119 71.647447,71.647447 0 0 1 -1.97751,-1.5032 71.647447,71.647447 0 0 1 -0.23588,-0.2199 44.808592,44.808592 0 0 0 -0.7174,2.80951 44.808592,44.808592 0 0 0 -0.66936,4.42838 44.808592,44.808592 0 0 0 -0.21893,4.37552 83.754412,83.754412 0 0 0 0.70703,0.53719 83.754412,83.754412 0 0 0 7.13752,4.37591 83.754412,83.754412 0 0 0 3.12568,1.50969 83.754412,83.754412 0 0 0 4.41257,2.1314 83.754412,83.754412 0 0 0 7.86421,2.87081 83.754412,83.754412 0 0 0 8.112069,2.0714 83.754412,83.754412 0 0 0 8.277501,1.2514 83.754412,83.754412 0 0 0 8.361587,0.4182 83.754412,83.754412 0 0 0 5.92493,-0.20971 83.754412,83.754412 0 0 0 8.31079,-1.00888 83.754412,83.754412 0 0 0 8.16887,-1.83341 83.754412,83.754412 0 0 0 7.94446,-2.6403 83.754412,83.754412 0 0 0 7.64199,-3.4194 83.754412,83.754412 0 0 0 3.42327,-1.96392 83.754412,83.754412 0 0 0 3.83873,-2.20199 83.754412,83.754412 0 0 0 6.66635,-4.76801 44.808598,44.808598 0 0 0 -0.035,-0.99038 44.808598,44.808598 0 0 0 -0.53942,-4.4463 44.808598,44.808598 0 0 0 -0.98113,-4.3706 44.808598,44.808598 0 0 0 -0.64316,-1.9359 z"
       id="path20315-8" />
    <path
       inkscape:connector-curvature="0"
       style="opacity:1;vector-effect:none;fill:url(#radialGradient8271);fill-opacity:1;stroke:#fa0000;stroke-width:0.0000463;stroke-linecap:round;stroke-linejoin:miter;stroke-miterlimit:4;stroke-dasharray:none;stroke-dashoffset:0;stroke-opacity:1;paint-order:markers fill stroke"
       d="m 154.99994,233.14611 a 83.754412,83.754412 0 0 1 -6.66635,4.76801 83.754412,83.754412 0 0 1 -3.83874,2.20188 83.754412,83.754412 0 0 1 -3.42325,1.96393 83.754412,83.754412 0 0 1 -7.642,3.41939 83.754412,83.754412 0 0 1 -7.94445,2.64039 83.754412,83.754412 0 0 1 -8.16888,1.8334 83.754412,83.754412 0 0 1 -8.31079,1.0088 83.754412,83.754412 0 0 1 -5.92493,0.20982 83.754412,83.754412 0 0 1 -8.361587,-0.41831 83.754412,83.754412 0 0 1 -8.277501,-1.2514 83.754412,83.754412 0 0 1 -8.112069,-2.0714 83.754412,83.754412 0 0 1 -7.86421,-2.8707 83.754412,83.754412 0 0 1 -4.412571,-2.13151 83.754412,83.754412 0 0 1 -3.12568,-1.5096 83.754412,83.754412 0 0 1 -7.137509,-4.376 83.754412,83.754412 0 0 1 -0.70704,-0.53718 44.808592,44.808592 0 0 0 -0.005,0.098 44.808592,44.808592 0 0 0 0.11191,3.16939 44.808592,44.808592 0 0 0 0.53996,4.4464 44.808592,44.808592 0 0 0 0.10048,0.44828 97.895651,97.895651 0 0 0 1.91472,1.17391 97.895651,97.895651 0 0 0 8.810919,4.2564 97.895651,97.895651 0 0 0 1.484521,0.5416 97.895651,97.895651 0 0 0 7.708049,2.8139 97.895651,97.895651 0 0 0 9.481392,2.42081 97.895651,97.895651 0 0 0 9.675189,1.46269 97.895651,97.895651 0 0 0 9.773467,0.48861 97.895651,97.895651 0 0 0 6.9246,-0.24511 97.895651,97.895651 0 0 0 9.71449,-1.1793 97.895651,97.895651 0 0 0 9.54801,-2.14289 97.895651,97.895651 0 0 0 9.2859,-3.08531 97.895651,97.895651 0 0 0 2.45963,-1.10069 97.895651,97.895651 0 0 0 6.47253,-2.897 97.895651,97.895651 0 0 0 5.17691,-2.9695 44.808598,44.808598 0 0 0 0.59346,-3.92779 44.808598,44.808598 0 0 0 0.22386,-4.4731 44.808598,44.808598 0 0 0 -0.0776,-2.179 z"
       id="path20283-7" />
    <path
       style="opacity:1;vector-effect:none;fill:#b3b3b3;fill-opacity:1;stroke:#fa0000;stroke-width:0.0000463;stroke-linecap:round;stroke-linejoin:miter;stroke-miterlimit:4;stroke-dasharray:none;stroke-dashoffset:0;stroke-opacity:1;paint-order:markers fill stroke"
       d="m 133.20029,104.91331 a 133.7043,133.7043 0 0 1 0.0148,-0.058 61.281678,61.281678 0 0 1 -0.0617,0.036 71.647447,71.647447 0 0 1 0.0469,0.022 z"
       id="path20185-4"
       inkscape:connector-curvature="0" />
    <path
       style="opacity:1;vector-effect:none;fill:#b3b3b3;fill-opacity:1;stroke:#fa0000;stroke-width:0.0000463;stroke-linecap:round;stroke-linejoin:miter;stroke-miterlimit:4;stroke-dasharray:none;stroke-dashoffset:0;stroke-opacity:1;paint-order:markers fill stroke"
       d="m 141.56898,191.95242 a 133.7043,133.7043 0 0 1 -0.29047,-0.6486 11.024848,11.024848 0 0 0 -0.0109,0.031 11.024848,11.024848 0 0 0 -0.23639,0.9266 71.647447,71.647447 0 0 0 0.53777,-0.30851 z"
       id="path20173-1"
       inkscape:connector-curvature="0" />
    <path
       style="opacity:1;vector-effect:none;fill:#b3b3b3;fill-opacity:1;stroke:#fa0000;stroke-width:0.0000463;stroke-linecap:round;stroke-linejoin:miter;stroke-miterlimit:4;stroke-dasharray:none;stroke-dashoffset:0;stroke-opacity:1;paint-order:markers fill stroke"
       d="m 142.17284,99.109619 a 114.4124,114.4124 0 0 0 0.35814,-0.11901 83.754412,83.754412 0 0 1 -0.005,-0.1338 61.281678,61.281678 0 0 1 -0.35323,0.25281 z"
       id="path20101-9"
       inkscape:connector-curvature="0" />
    <path
       style="opacity:1;vector-effect:none;fill:#b3b3b3;fill-opacity:1;stroke:#fa0000;stroke-width:0.0000463;stroke-linecap:round;stroke-linejoin:miter;stroke-miterlimit:4;stroke-dasharray:none;stroke-dashoffset:0;stroke-opacity:1;paint-order:markers fill stroke"
       d="m 128.56169,102.95812 a 71.647447,71.647447 0 0 1 2.41977,0.88338 71.647447,71.647447 0 0 1 2.17187,1.0494 61.281678,61.281678 0 0 0 0.0617,-0.036 133.7043,133.7043 0 0 1 0.79658,-3.12021 114.4124,114.4124 0 0 1 -5.44992,1.22291 z"
       id="path20095-0"
       inkscape:connector-curvature="0" />
    <path
       style="opacity:1;vector-effect:none;fill:#999999;fill-opacity:1;stroke:#fa0000;stroke-width:0.0000463;stroke-linecap:round;stroke-linejoin:miter;stroke-miterlimit:4;stroke-dasharray:none;stroke-dashoffset:0;stroke-opacity:1;paint-order:markers fill stroke"
       d="m 78.347953,102.64642 a 71.647447,71.647447 0 0 0 -1.22955,0.40841 71.647447,71.647447 0 0 0 -2.25923,1.01108 61.281678,61.281678 0 0 0 0.53123,0.32591 61.281678,61.281678 0 0 0 5.51544,2.66449 61.281678,61.281678 0 0 0 5.754551,2.1002 61.281678,61.281678 0 0 0 5.935279,1.5157 61.281678,61.281678 0 0 0 6.05651,0.91511 61.281678,61.281678 0 0 0 6.118167,0.30628 61.281678,61.281678 0 0 0 4.33503,-0.15338 61.281678,61.281678 0 0 0 6.0805,-0.73821 61.281678,61.281678 0 0 0 5.97734,-1.34149 61.281678,61.281678 0 0 0 5.81298,-1.93162 61.281678,61.281678 0 0 0 5.5913,-2.50219 61.281678,61.281678 0 0 0 0.58583,-0.33581 71.647447,71.647447 0 0 0 -2.17187,-1.0494 71.647447,71.647447 0 0 0 -2.41977,-0.88338 114.4124,114.4124 0 0 1 -4.90993,1.10239 114.4124,114.4124 0 0 1 -11.35298,1.378 114.4124,114.4124 0 0 1 -8.09351,0.2867 114.4124,114.4124 0 0 1 -11.421778,-0.57168 114.4124,114.4124 0 0 1 -11.308199,-1.70892 114.4124,114.4124 0 0 1 -3.12734,-0.79819 z"
       id="path20093-9"
       inkscape:connector-curvature="0" />
    <path
       style="opacity:1;vector-effect:none;fill:#b3b3b3;fill-opacity:1;stroke:#fa0000;stroke-width:0.0000463;stroke-linecap:round;stroke-linejoin:miter;stroke-miterlimit:4;stroke-dasharray:none;stroke-dashoffset:0;stroke-opacity:1;paint-order:markers fill stroke"
       d="m 73.655843,101.44801 a 133.7043,133.7043 0 0 1 0.68576,2.06431 133.7043,133.7043 0 0 1 0.0617,0.27411 61.281678,61.281678 0 0 0 0.45588,0.27948 71.647447,71.647447 0 0 1 2.259231,-1.01108 71.647447,71.647447 0 0 1 1.22955,-0.40841 114.4124,114.4124 0 0 1 -4.692121,-1.19841 z"
       id="path20089-8"
       inkscape:connector-curvature="0" />
    <path
       style="opacity:1;vector-effect:none;fill:url(#linearGradient20615-7);fill-opacity:1;stroke:#fa0000;stroke-width:0.0000463;stroke-linecap:round;stroke-linejoin:miter;stroke-miterlimit:4;stroke-dasharray:none;stroke-dashoffset:0;stroke-opacity:1;paint-order:markers fill stroke"
       d="m 104.20527,75.094959 a 114.41239,114.41239 0 0 0 -8.092977,0.28665 114.41239,114.41239 0 0 0 -11.352981,1.37803 114.41239,114.41239 0 0 0 -11.159159,2.50436 114.41239,114.41239 0 0 0 -3.694611,1.22737 114.41239,114.41239 0 0 0 -1.352369,0.44934 6.8908837,6.8908837 0 0 1 -0.12121,0.47609 6.8908837,6.8908837 0 0 1 -0.235851,0.64702 6.8908837,6.8908837 0 0 1 -0.29975,0.62021 6.8908837,6.8908837 0 0 1 -0.360319,0.5869 6.8908837,6.8908837 0 0 1 -0.39913,0.52578 6.8908837,6.8908837 0 0 1 -0.0174,0.023 6.8908837,6.8908837 0 0 1 -0.46955,0.5039 6.8908837,6.8908837 0 0 1 -0.51756,0.4548 6.8908837,6.8908837 0 0 1 -0.16217,0.1158 133.70429,133.70429 0 0 1 0.77092,1.72249 133.70429,133.70429 0 0 1 0.0535,0.1201 133.70429,133.70429 0 0 1 2.33351,5.21401 83.754412,83.754412 0 0 1 -0.38767,2.56511 83.754412,83.754412 0 0 1 -0.483711,3.19828 83.754412,83.754412 0 0 1 -1.149819,4.503201 83.754412,83.754412 0 0 1 -0.12885,0.5055 114.41239,114.41239 0 0 0 1.52762,0.55749 114.4124,114.4124 0 0 0 1.88854,0.68961 114.4124,114.4124 0 0 0 3.26162,0.8326 114.41239,114.41239 0 0 0 4.69212,1.1983 114.4124,114.4124 0 0 0 3.12733,0.7983 114.4124,114.4124 0 0 0 11.308209,1.70881 114.4124,114.4124 0 0 0 11.421778,0.57169 114.4124,114.4124 0 0 0 8.0935,-0.2866 114.4124,114.4124 0 0 0 11.35299,-1.378 114.4124,114.4124 0 0 0 4.90992,-1.10239 114.41239,114.41239 0 0 0 5.44992,-1.2229 114.41239,114.41239 0 0 0 0.79931,-0.1796 114.41239,114.41239 0 0 0 7.36192,-2.446 61.281678,61.281678 0 0 0 0.35323,-0.25281 83.754412,83.754412 0 0 1 -0.0884,-2.500101 83.754412,83.754412 0 0 1 0.13705,-2.7396 83.754412,83.754412 0 0 1 0.28172,-5.62189 83.754412,83.754412 0 0 1 0.51046,-3.37791 97.895651,97.895651 0 0 1 0.75836,0.36632 6.8908835,6.8908835 0 0 1 -0.13759,-0.15621 6.8908835,6.8908835 0 0 1 -0.40018,-0.56071 6.8908835,6.8908835 0 0 1 -0.13266,-0.2309 6.8908835,6.8908835 0 0 1 -0.21022,-0.36629 6.8908835,6.8908835 0 0 1 -0.21075,-0.47181 6.8908835,6.8908835 0 0 1 -0.0704,-0.15668 6.8908835,6.8908835 0 0 1 -0.21732,-0.65411 6.8908835,6.8908835 0 0 1 -0.15123,-0.67212 6.8908835,6.8908835 0 0 1 -0.083,-0.68349 6.8908835,6.8908835 0 0 1 -0.0169,-0.4876 6.8908835,6.8908835 0 0 1 0.0344,-0.6879 6.8908835,6.8908835 0 0 1 0.10259,-0.68079 6.8908835,6.8908835 0 0 1 0.14961,-0.58532 114.41239,114.41239 0 0 0 -0.15562,-0.057 114.41239,114.41239 0 0 0 -1.25955,-0.4596 114.41239,114.41239 0 0 0 -3.35008,-1.22307 114.41239,114.41239 0 0 0 -11.08053,-2.82927 114.41239,114.41239 0 0 0 -11.3082,-1.70883 114.41239,114.41239 0 0 0 -11.42231,-0.57166 z"
       id="path20477-8"
       inkscape:connector-curvature="0" />
    <ellipse
       style="opacity:1;vector-effect:none;fill:#808080;fill-opacity:1;stroke:#fa0000;stroke-width:0.0000463;stroke-linecap:round;stroke-linejoin:miter;stroke-miterlimit:4;stroke-dasharray:none;stroke-dashoffset:0;stroke-opacity:1;paint-order:markers fill stroke"
       id="path20665-5"
       cx="104.3434"
       cy="81.856499"
       rx="21.742998"
       ry="3.9532726" />
  </g>
</svg>
