<?xml version="1.0" encoding="UTF-8" standalone="no"?>
<!-- Created with Inkscape (http://www.inkscape.org/) -->

<svg
   xmlns:dc="http://purl.org/dc/elements/1.1/"
   xmlns:cc="http://creativecommons.org/ns#"
   xmlns:rdf="http://www.w3.org/1999/02/22-rdf-syntax-ns#"
   xmlns:svg="http://www.w3.org/2000/svg"
   xmlns="http://www.w3.org/2000/svg"
   xmlns:xlink="http://www.w3.org/1999/xlink"
   xmlns:sodipodi="http://sodipodi.sourceforge.net/DTD/sodipodi-0.dtd"
   xmlns:inkscape="http://www.inkscape.org/namespaces/inkscape"
   width="210mm"
   height="297mm"
   viewBox="0 0 210 297"
   version="1.1"
   id="svg6172"
   inkscape:version="0.92.3 (2405546, 2018-03-11)"
   sodipodi:docname="bK.svg">
  <defs
     id="defs6166">
    <linearGradient
       gradientTransform="matrix(1.387031,0,0,1.387031,-16.565069,-80.88835)"
       inkscape:collect="always"
       xlink:href="#linearGradient3390"
       id="linearGradient3392"
       x1="90.928802"
       y1="96.678886"
       x2="91.123634"
       y2="118.13232"
       gradientUnits="userSpaceOnUse" />
    <linearGradient
       inkscape:collect="always"
       id="linearGradient3390">
      <stop
         style="stop-color:#000000;stop-opacity:1"
         offset="0"
         id="stop3386" />
      <stop
         style="stop-color:#4d4d4d;stop-opacity:1"
         offset="1"
         id="stop3388" />
    </linearGradient>
    <linearGradient
       gradientTransform="matrix(1.387031,0,0,1.387031,-16.565069,-80.88835)"
       inkscape:collect="always"
       xlink:href="#linearGradient3390"
       id="linearGradient3374"
       x1="95.194412"
       y1="75.096107"
       x2="82.432693"
       y2="80.970764"
       gradientUnits="userSpaceOnUse" />
    <linearGradient
       gradientTransform="matrix(1.387031,0,0,1.387031,-16.565069,-80.88835)"
       inkscape:collect="always"
       xlink:href="#linearGradient3390"
       id="linearGradient3376"
       x1="99.054413"
       y1="80.536171"
       x2="84.138016"
       y2="93.533829"
       gradientUnits="userSpaceOnUse" />
    <radialGradient
       inkscape:collect="always"
       xlink:href="#linearGradient15725"
       id="radialGradient3402"
       cx="335.33203"
       cy="789.77258"
       fx="335.33203"
       fy="789.77258"
       r="88.139137"
       gradientTransform="matrix(0.3668563,0.0097295,-0.01665483,0.62797986,-3.368279,-272.21663)"
       gradientUnits="userSpaceOnUse" />
    <linearGradient
       inkscape:collect="always"
       id="linearGradient15725">
      <stop
         style="stop-color:#b3b3b3;stop-opacity:1"
         offset="0"
         id="stop15721" />
      <stop
         style="stop-color:#000000;stop-opacity:1"
         offset="1"
         id="stop15723" />
    </linearGradient>
    <linearGradient
       gradientTransform="matrix(1.387031,0,0,1.387031,-16.565069,-80.88835)"
       inkscape:collect="always"
       xlink:href="#linearGradient3390"
       id="linearGradient3366"
       x1="90.648209"
       y1="69.305847"
       x2="85.801949"
       y2="73.414711"
       gradientUnits="userSpaceOnUse" />
    <linearGradient
       gradientTransform="matrix(1.387031,0,0,1.387031,-16.565069,-80.88835)"
       inkscape:collect="always"
       xlink:href="#linearGradient3390"
       id="linearGradient3384"
       x1="99.736542"
       y1="93.148827"
       x2="87.022072"
       y2="123.8317"
       gradientUnits="userSpaceOnUse" />
    <linearGradient
       inkscape:collect="always"
       xlink:href="#linearGradient6689"
       id="linearGradient3394"
       x1="371.64667"
       y1="472.71274"
       x2="272.5191"
       y2="720.16626"
       gradientUnits="userSpaceOnUse"
       gradientTransform="matrix(0.36698528,0,0,0.36698528,-16.565069,-80.88835)" />
    <linearGradient
       id="linearGradient6689"
       inkscape:collect="always">
      <stop
         id="stop6685"
         offset="0"
         style="stop-color:#000000;stop-opacity:1;" />
      <stop
         id="stop6687"
         offset="1"
         style="stop-color:#999999;stop-opacity:1" />
    </linearGradient>
    <linearGradient
       gradientTransform="matrix(0.36698528,0,0,0.36698528,-16.565069,-80.88835)"
       inkscape:collect="always"
       xlink:href="#linearGradient5299"
       id="linearGradient3418"
       x1="330.31989"
       y1="980.0882"
       x2="335.37064"
       y2="895.23535"
       gradientUnits="userSpaceOnUse" />
    <linearGradient
       inkscape:collect="always"
       id="linearGradient5299">
      <stop
         style="stop-color:#000000;stop-opacity:1;"
         offset="0"
         id="stop5295" />
      <stop
         style="stop-color:#000000;stop-opacity:0;"
         offset="1"
         id="stop5297" />
    </linearGradient>
  </defs>
  <sodipodi:namedview
     id="base"
     pagecolor="#ffffff"
     bordercolor="#666666"
     borderopacity="1.0"
     inkscape:pageopacity="0.0"
     inkscape:pageshadow="2"
     inkscape:zoom="0.35"
     inkscape:cx="-574.28572"
     inkscape:cy="106.48095"
     inkscape:document-units="mm"
     inkscape:current-layer="layer1"
     showgrid="false"
     inkscape:window-width="1920"
     inkscape:window-height="1017"
     inkscape:window-x="0"
     inkscape:window-y="0"
     inkscape:window-maximized="1" />
  <metadata
     id="metadata6169">
    <rdf:RDF>
      <cc:Work
         rdf:about="">
        <dc:format>image/svg+xml</dc:format>
        <dc:type
           rdf:resource="http://purl.org/dc/dcmitype/StillImage" />
        <dc:title />
      </cc:Work>
    </rdf:RDF>
  </metadata>
  <g
     inkscape:label="Layer 1"
     inkscape:groupmode="layer"
     id="layer1">
    <path
       inkscape:connector-curvature="0"
       style="display:inline;opacity:1;fill:url(#linearGradient3418);fill-opacity:1;stroke:#fa0000;stroke-width:0;stroke-linecap:round;stroke-linejoin:miter;stroke-miterlimit:4;stroke-dasharray:none;stroke-opacity:1;paint-order:markers fill stroke"
       d="m 150.1404,243.95449 a 109.95491,109.95491 0 0 1 -1.26152,0.5648 109.95491,109.95491 0 0 1 -5.93341,2.6556 109.95491,109.95491 0 0 1 -9.06497,3.012 109.95491,109.95491 0 0 1 -1.36545,0.4537 109.95491,109.95491 0 0 1 -10.72356,2.4069 109.95491,109.95491 0 0 1 -10.91136,1.3245 109.95491,109.95491 0 0 1 -7.77765,0.2753 109.95491,109.95491 0 0 1 -10.977307,-0.5491 109.95491,109.95491 0 0 1 -10.867639,-1.6421 109.95491,109.95491 0 0 1 -5.888251,-1.5037 109.95491,109.95491 0 0 1 -4.76076,-1.2157 109.95491,109.95491 0 0 1 -10.32434,-3.7687 109.95491,109.95491 0 0 1 -3.11794,-1.5059 10.535916,10.535916 0 0 0 -0.36699,0.3935 10.535916,10.535916 0 0 0 -0.6372,0.8379 10.535916,10.535916 0 0 0 -0.55049,0.8981 10.535916,10.535916 0 0 0 -0.45872,0.9481 10.535916,10.535916 0 0 0 -0.36054,0.9893 10.535916,10.535916 0 0 0 -0.2609,1.0207 10.535916,10.535916 0 0 0 -0.15697,1.0414 10.535916,10.535916 0 0 0 -0.053,1.0515 10.535916,10.535916 0 0 0 0.0265,0.7454 10.535916,10.535916 0 0 0 0.12691,1.0451 10.535916,10.535916 0 0 0 0.2308,1.0278 10.535916,10.535916 0 0 0 0.33186,0.9992 10.535916,10.535916 0 0 0 0.43006,0.9619 10.535916,10.535916 0 0 0 0.52396,0.9131 10.535916,10.535916 0 0 0 0.61283,0.8566 10.535916,10.535916 0 0 0 0.69527,0.7913 10.535916,10.535916 0 0 0 0.77053,0.7182 10.535916,10.535916 0 0 0 0.83861,0.6372 10.535916,10.535916 0 0 0 0.8974,0.5505 10.535916,10.535916 0 0 0 0.56194,0.2716 10.535916,10.535916 0 0 0 0.38634,0.1864 10.535916,10.535916 0 0 0 0.98915,0.3612 10.535916,10.535916 0 0 0 0.415,0.1054 128.51988,128.51988 0 0 0 4.01247,1.4645 128.51988,128.51988 0 0 0 12.44668,3.1781 128.51988,128.51988 0 0 0 12.702559,1.9195 128.51988,128.51988 0 0 0 12.830868,0.6422 128.51988,128.51988 0 0 0 9.09077,-0.3218 128.51988,128.51988 0 0 0 12.75345,-1.5482 128.51988,128.51988 0 0 0 12.53412,-2.8133 128.51988,128.51988 0 0 0 1.88152,-0.625 128.51988,128.51988 0 0 0 10.31,-3.4263 128.51988,128.51988 0 0 0 1.92309,-0.8608 10.535916,10.535916 0 0 0 0.38705,-0.6322 10.535916,10.535916 0 0 0 0.45874,-0.9483 10.535916,10.535916 0 0 0 0.36053,-0.9891 10.535916,10.535916 0 0 0 0.2609,-1.0207 10.535916,10.535916 0 0 0 0.15697,-1.0414 10.535916,10.535916 0 0 0 0.0165,-0.3333 10.535916,10.535916 0 0 0 0.0366,-0.7182 10.535916,10.535916 0 0 0 -0.0265,-0.7455 10.535916,10.535916 0 0 0 -0.12692,-1.045 10.535916,10.535916 0 0 0 -0.23078,-1.0278 10.535916,10.535916 0 0 0 -0.33188,-0.9992 10.535916,10.535916 0 0 0 -0.43006,-0.9619 10.535916,10.535916 0 0 0 -0.52395,-0.9132 10.535916,10.535916 0 0 0 -0.61283,-0.8565 10.535916,10.535916 0 0 0 -0.69527,-0.7913 10.535916,10.535916 0 0 0 -0.0774,-0.072 52.687643,52.687643 0 0 0 -0.83719,-1.87 52.687643,52.687643 0 0 0 -0.28814,-0.5025 z"
       id="path3241" />
    <path
       style="display:inline;opacity:1;fill:url(#linearGradient3394);fill-opacity:1;stroke:#fa0000;stroke-width:0;stroke-linecap:round;stroke-linejoin:miter;stroke-miterlimit:4;stroke-dasharray:none;stroke-opacity:1;paint-order:markers fill stroke"
       d="m 108.34491,81.972094 a 26.861109,26.861109 0 0 0 -1.90015,0.068 26.861109,26.861109 0 0 0 -2.66494,0.3233 26.861109,26.861109 0 0 0 -0.46446,0.104 26.861109,26.861109 0 0 0 -2.15532,0.4838 26.861109,26.861109 0 0 0 -2.54812,0.8472 26.861109,26.861109 0 0 0 -0.86943,0.3892 26.861109,26.861109 0 0 0 -1.581908,0.7075 26.861109,26.861109 0 0 0 -2.328778,1.336 26.861109,26.861109 0 0 0 -2.18399,1.5619 26.861109,26.861109 0 0 0 -2.017001,1.7718 26.861109,26.861109 0 0 0 -1.830609,1.9646 26.861109,26.861109 0 0 0 -1.62492,2.1374 26.861109,26.861109 0 0 0 -1.403432,2.2888 26.861109,26.861109 0 0 0 -1.16762,2.4176 26.861109,26.861109 0 0 0 -0.920329,2.522296 26.861109,26.861109 0 0 0 -0.42145,1.65 26.861109,26.861109 0 0 0 -0.234399,0.9182 26.861109,26.861109 0 0 1 0.528269,0.2551 26.861109,26.861109 0 0 1 0.728949,0.352 26.861109,26.861109 0 0 1 2.28864,1.4034 26.861109,26.861109 0 0 1 2.13741,1.6249 26.861109,26.861109 0 0 1 1.964661,1.8299 26.861109,26.861109 0 0 1 0.56624,0.6444 26.861109,26.861109 0 0 1 0.4401,0.501 26.861109,26.861109 0 0 1 0.766231,0.8723 26.861109,26.861109 0 0 1 1.56183,2.184 26.861109,26.861109 0 0 1 1.335339,2.3287 26.861109,26.861109 0 0 1 1.09738,2.4508 26.861109,26.861109 0 0 1 0.7526,2.2657 26.861109,26.861109 0 0 0 1.689417,0.8163 26.861109,26.861109 0 0 0 2.52159,0.9204 26.861109,26.861109 0 0 0 2.60187,0.6644 26.861109,26.861109 0 0 0 2.65491,0.4014 26.861109,26.861109 0 0 0 2.68142,0.1345 26.861109,26.861109 0 0 0 1.90017,-0.068 26.861109,26.861109 0 0 0 2.66565,-0.3233 26.861109,26.861109 0 0 0 1.61631,-0.3635 26.861109,26.861109 0 0 1 0.66086,-2.5888 26.861109,26.861109 0 0 1 0.92104,-2.5224 26.861109,26.861109 0 0 1 1.16762,-2.4177 26.861109,26.861109 0 0 1 1.40344,-2.2893 26.861109,26.861109 0 0 1 1.62491,-2.1374 26.861109,26.861109 0 0 1 1.83063,-1.9647 26.861109,26.861109 0 0 1 1.30164,-1.1432 26.861109,26.861109 0 0 1 0.71534,-0.6286 26.861109,26.861109 0 0 1 2.18399,-1.5618 26.861109,26.861109 0 0 1 1.19558,-0.686 26.861109,26.861109 0 0 1 1.1332,-0.6502 26.861109,26.861109 0 0 1 2.45064,-1.0965 26.861109,26.861109 0 0 1 2.54811,-0.8465 26.861109,26.861109 0 0 1 0.57412,-0.129 26.861109,26.861109 0 0 0 -0.0111,-0.049 26.861109,26.861109 0 0 0 -0.8465,-2.547396 26.861109,26.861109 0 0 0 -1.09736,-2.4513 26.861109,26.861109 0 0 0 -1.33534,-2.3288 26.861109,26.861109 0 0 0 -1.56184,-2.184 26.861109,26.861109 0 0 0 -1.77257,-2.0171 26.861109,26.861109 0 0 0 -1.96466,-1.8306 26.861109,26.861109 0 0 0 -2.1374,-1.6249 26.861109,26.861109 0 0 0 -2.28864,-1.4034 26.861109,26.861109 0 0 0 -2.22128,-1.073 26.861109,26.861109 0 0 0 -0.19639,-0.094 26.861109,26.861109 0 0 0 -2.43127,-0.8881 26.861109,26.861109 0 0 0 -0.091,-0.033 26.861109,26.861109 0 0 0 -2.60186,-0.6637 26.861109,26.861109 0 0 0 -2.65492,-0.4014 26.861109,26.861109 0 0 0 -2.68143,-0.1345 z"
       id="path3213"
       inkscape:connector-curvature="0" />
    <path
       style="display:inline;opacity:1;fill:url(#linearGradient3384);fill-opacity:1;stroke:#fa0000;stroke-width:0;stroke-linecap:round;stroke-linejoin:miter;stroke-miterlimit:4;stroke-dasharray:none;stroke-opacity:1;paint-order:markers fill stroke"
       d="m 119.51215,41.349294 a 19.670469,19.670469 0 0 0 -0.76335,0.028 5.3663932,5.3880747 0 0 1 -0.17202,0.099 5.3663932,5.3880747 0 0 1 -0.48954,0.2201 5.3663932,5.3880747 0 0 1 -0.50892,0.1698 5.3663932,5.3880747 0 0 1 -0.52324,0.1179 5.3663932,5.3880747 0 0 1 -0.53255,0.065 5.3663932,5.3880747 0 0 1 -0.37989,0.014 5.3663932,5.3880747 0 0 1 -0.53543,-0.028 5.3663932,5.3880747 0 0 1 -0.53041,-0.08 5.3663932,5.3880747 0 0 1 -0.15267,-0.039 19.670469,19.670469 0 0 0 -0.67375,0.1513 19.670469,19.670469 0 0 0 -1.86647,0.62 19.670469,19.670469 0 0 0 -1.79479,0.8035 19.670469,19.670469 0 0 0 -1.70519,0.9783 19.670469,19.670469 0 0 0 -1.59911,1.144 19.670469,19.670469 0 0 0 -0.7526,0.6609 19.670469,19.670469 0 0 1 1.40127,1.3045 19.670469,19.670469 0 0 1 1.29807,1.4772 19.670469,19.670469 0 0 1 1.14325,1.5999 19.670469,19.670469 0 0 1 0.12261,0.2143 10.535916,10.535916 0 0 1 0.43221,-0.5677 10.535916,10.535916 0 0 1 0.71749,-0.7712 10.535916,10.535916 0 0 1 0.79131,-0.6946 10.535916,10.535916 0 0 1 0.85653,-0.6128 10.535916,10.535916 0 0 1 0.91389,-0.524 10.535916,10.535916 0 0 1 0.96119,-0.43 10.535916,10.535916 0 0 1 0.99916,-0.3326 10.535916,10.535916 0 0 1 1.02786,-0.2301 10.535916,10.535916 0 0 1 1.04504,-0.1262 10.535916,10.535916 0 0 1 0.74543,-0.026 10.535916,10.535916 0 0 1 1.0522,0.053 10.535916,10.535916 0 0 1 1.04076,0.1577 10.535916,10.535916 0 0 1 1.02068,0.2602 10.535916,10.535916 0 0 1 0.89237,0.3261 10.535916,10.535916 0 0 1 0.0968,0.035 10.535916,10.535916 0 0 1 0.94828,0.458 10.535916,10.535916 0 0 1 0.89812,0.5505 10.535916,10.535916 0 0 1 0.83861,0.6372 10.535916,10.535916 0 0 1 0.77052,0.7182 10.535916,10.535916 0 0 1 0.69456,0.7913 10.535916,10.535916 0 0 1 0.61283,0.8565 10.535916,10.535916 0 0 1 0.52397,0.9139 10.535916,10.535916 0 0 1 0.34476,0.7705 10.535916,10.535916 0 0 1 0.0853,0.1907 10.535916,10.535916 0 0 1 0.33258,0.9992 10.535916,10.535916 0 0 1 0.23008,1.0278 10.535916,10.535916 0 0 1 0.0939,0.7662 128.51988,128.51988 0 0 1 -1.51524,4.1509 128.51988,128.51988 0 0 1 -2.51085,5.1966 128.51988,128.51988 0 0 1 -3.07707,6.3706 128.51988,128.51988 0 0 1 -1.96538,3.206 128.51988,128.51988 0 0 1 -3.38601,5.5228 128.51988,128.51988 0 0 1 -1.36328,2.2234 128.51988,128.51988 0 0 1 -1.47368,1.938 26.861106,26.861106 0 0 1 2.43128,0.8882 26.861106,26.861106 0 0 1 0.19639,0.094 128.51988,128.51988 0 0 0 3.80388,-5.003 128.51988,128.51988 0 0 0 2.71656,-3.5745 128.51988,128.51988 0 0 0 1.08016,-1.4206 128.51988,128.51988 0 0 0 6.71539,-10.9523 128.51988,128.51988 0 0 0 5.58723,-11.5678 128.51988,128.51988 0 0 0 0.36124,-0.9893 19.670469,19.670469 0 0 0 -0.0222,-0.05 19.670469,19.670469 0 0 0 -0.97838,-1.7059 19.670469,19.670469 0 0 0 -1.14325,-1.5991 19.670469,19.670469 0 0 0 -1.29806,-1.4773 19.670469,19.670469 0 0 0 -0.85368,-0.7956 19.670469,19.670469 0 0 0 -0.58488,-0.5447 19.670469,19.670469 0 0 0 -1.56542,-1.1898 19.670469,19.670469 0 0 0 -1.67581,-1.0279 19.670469,19.670469 0 0 0 -1.77041,-0.8551 19.670469,19.670469 0 0 0 -1.84712,-0.6745 19.670469,19.670469 0 0 0 -1.90517,-0.4866 19.670469,19.670469 0 0 0 -1.94459,-0.2932 19.670469,19.670469 0 0 0 -1.96323,-0.099 z m -12.97993,4.9235 a 19.670469,19.670469 0 0 0 -0.0373,-0.035 19.670469,19.670469 0 0 0 -1.56544,-1.1906 19.670469,19.670469 0 0 0 -1.67579,-1.0271 19.670469,19.670469 0 0 0 -1.77114,-0.8558 19.670469,19.670469 0 0 0 -1.84639,-0.6738 19.670469,19.670469 0 0 0 -1.90517,-0.4867 19.670469,19.670469 0 0 0 -0.61786,-0.093 5.3663932,5.3880747 0 0 1 -0.32326,0.072 5.3663932,5.3880747 0 0 1 -0.532558,0.065 5.3663932,5.3880747 0 0 1 -0.379881,0.014 5.3663932,5.3880747 0 0 1 -0.53544,-0.028 5.3663932,5.3880747 0 0 1 -0.5304,-0.08 5.3663932,5.3880747 0 0 1 -0.51966,-0.1332 5.3663932,5.3880747 0 0 1 -0.50388,-0.1849 5.3663932,5.3880747 0 0 1 -0.0444,-0.021 19.670469,19.670469 0 0 0 -1.31241,0.047 19.670469,19.670469 0 0 0 -1.951739,0.2365 19.670469,19.670469 0 0 0 -1.918091,0.4308 19.670469,19.670469 0 0 0 -1.866461,0.62 19.670469,19.670469 0 0 0 -1.794788,0.8035 19.670469,19.670469 0 0 0 -1.705181,0.9784 19.670469,19.670469 0 0 0 -0.30964,0.2215 4.5867619,4.5867619 0 0 0 -0.239411,0.1068 4.5867619,4.5867619 0 0 0 -0.397809,0.2279 4.5867619,4.5867619 0 0 0 -0.37271,0.2666 4.5867619,4.5867619 0 0 0 -0.344771,0.3025 4.5867619,4.5867619 0 0 0 -0.31252,0.3356 4.5867619,4.5867619 0 0 0 -0.033,0.043 19.67047,19.67047 0 0 0 -1.06654,0.9374 19.67047,19.67047 0 0 0 -0.88665,0.952 19.670469,19.670469 0 0 0 -0.45371,0.4865 19.670469,19.670469 0 0 0 -1.18984,1.5656 19.670469,19.670469 0 0 0 -1.02784,1.6758 19.670469,19.670469 0 0 0 -0.85511,1.7704 19.670469,19.670469 0 0 0 -0.0874,0.2394 128.51988,128.51988 0 0 0 3.01545,6.7376 128.51988,128.51988 0 0 0 6.39213,11.1429 128.51988,128.51988 0 0 0 3.873421,5.4166 128.51988,128.51988 0 0 0 2.604738,3.64261 128.51988,128.51988 0 0 0 0.994151,1.39049 128.51988,128.51988 0 0 0 3.04269,3.4635 26.861106,26.861106 0 0 1 0.869431,-0.3892 26.861106,26.861106 0 0 1 2.548119,-0.84719 26.861106,26.861106 0 0 1 2.15532,-0.48391 128.51988,128.51988 0 0 1 -3.04842,-3.4699 128.51988,128.51988 0 0 1 -0.3247,-0.3699 128.51988,128.51988 0 0 1 -4.302029,-6.0165 128.51988,128.51988 0 0 1 -3.170272,-4.4332 128.51988,128.51988 0 0 1 -2.439879,-4.2534 128.51988,128.51988 0 0 1 -3.952271,-6.8902 128.51988,128.51988 0 0 1 -0.849358,-1.89799 10.535916,10.535916 0 0 1 -0.0011,-0.04 10.535916,10.535916 0 0 1 0.0523,-1.0515 10.535916,10.535916 0 0 1 0.157692,-1.0414 10.535916,10.535916 0 0 1 0.233659,-0.9175 10.535916,10.535916 0 0 1 0.0265,-0.1027 10.535916,10.535916 0 0 1 0.361249,-0.9899 10.535916,10.535916 0 0 1 0.458013,-0.9482 10.535916,10.535916 0 0 1 0.550489,-0.8974 10.535916,10.535916 0 0 1 0.637199,-0.8386 10.535916,10.535916 0 0 1 0.718201,-0.7706 10.535916,10.535916 0 0 1 0.791321,-0.6952 10.535916,10.535916 0 0 1 0.856527,-0.6121 10.535916,10.535916 0 0 1 0.913173,-0.5247 10.535916,10.535916 0 0 1 0.0681,-0.03 10.535916,10.535916 0 0 1 0.89381,-0.4 10.535916,10.535916 0 0 1 0.99917,-0.3318 10.535916,10.535916 0 0 1 1.027851,-0.2308 10.535916,10.535916 0 0 1 1.045048,-0.1262 10.535916,10.535916 0 0 1 0.745443,-0.026 10.535916,10.535916 0 0 1 1.051488,0.053 10.535916,10.535916 0 0 1 1.041472,0.1569 10.535916,10.535916 0 0 1 1.020688,0.2609 10.535916,10.535916 0 0 1 0.989136,0.3613 10.535916,10.535916 0 0 1 0.94828,0.458 10.535916,10.535916 0 0 1 0.8981,0.5505 10.535916,10.535916 0 0 1 0.8379,0.6372 10.535916,10.535916 0 0 1 0.77053,0.7175 10.535916,10.535916 0 0 1 0.69526,0.7913 10.535916,10.535916 0 0 1 0.61284,0.8565 10.535916,10.535916 0 0 1 0.1276,0.2222 19.670469,19.670469 0 0 1 0.72322,-1.1798 19.670469,19.670469 0 0 1 1.18984,-1.5654 19.670469,19.670469 0 0 1 1.34036,-1.4385 19.670469,19.670469 0 0 1 0.72466,-0.6365 z"
       id="path3087"
       inkscape:connector-curvature="0" />
    <path
       style="display:inline;opacity:1;fill:url(#linearGradient3366);fill-opacity:1;stroke:#fa0000;stroke-width:0;stroke-linecap:round;stroke-linejoin:miter;stroke-miterlimit:4;stroke-dasharray:none;stroke-opacity:1;paint-order:markers fill stroke"
       d="m 106.143,10.507464 a 4.5867619,4.5867619 0 0 0 -0.32469,0.0111 4.5867619,4.5867619 0 0 0 -0.45515,0.0559 4.5867619,4.5867619 0 0 0 -0.44726,0.10042 4.5867619,4.5867619 0 0 0 -0.43507,0.14411 4.5867619,4.5867619 0 0 0 -0.4186,0.1877 4.5867619,4.5867619 0 0 0 -0.39709,0.228 4.5867619,4.5867619 0 0 0 -0.37344,0.2666 4.5867619,4.5867619 0 0 0 -0.34404,0.3025 4.5867619,4.5867619 0 0 0 -0.31252,0.3354 4.5867619,4.5867619 0 0 0 -0.27739,0.3648 4.5867619,4.5867619 0 0 0 -0.24012,0.3914 4.5867619,4.5867619 0 0 0 -0.19926,0.413 4.5867619,4.5867619 0 0 0 -0.15697,0.4306 4.5867619,4.5867619 0 0 0 -0.11402,0.4437 4.5867619,4.5867619 0 0 0 -0.0681,0.4537 4.5867619,4.5867619 0 0 0 -0.0229,0.458 4.5867619,4.5867619 0 0 0 0.0111,0.3241 4.5867619,4.5867619 0 0 0 0.0552,0.4552 4.5867619,4.5867619 0 0 0 0.10028,0.4472 4.5867619,4.5867619 0 0 0 0.14479,0.4351 4.5867619,4.5867619 0 0 0 0.18708,0.4186 4.5867619,4.5867619 0 0 0 0.22793,0.3978 4.5867619,4.5867619 0 0 0 0.26663,0.3727 4.5867619,4.5867619 0 0 0 0.30321,0.3448 4.5867619,4.5867619 0 0 0 0.33544,0.3125 4.5867619,4.5867619 0 0 0 0.36483,0.2774 4.5867619,4.5867619 0 0 0 0.39064,0.2394 4.5867619,4.5867619 0 0 0 0.41286,0.1999 4.5867619,4.5867619 0 0 0 0.43077,0.157 4.5867619,4.5867619 0 0 0 0.44441,0.1137 4.5867619,4.5867619 0 0 0 0.45299,0.069 4.5867619,4.5867619 0 0 0 0.45801,0.024 4.5867619,4.5867619 0 0 0 0.32471,-0.014 4.5867619,4.5867619 0 0 0 0.45514,-0.056 4.5867619,4.5867619 0 0 0 0.44726,-0.1 4.5867619,4.5867619 0 0 0 0.43508,-0.1448 4.5867619,4.5867619 0 0 0 0.41859,-0.1871 4.5867619,4.5867619 0 0 0 0.3978,-0.2286 4.5867619,4.5867619 0 0 0 0.37273,-0.2666 4.5867619,4.5867619 0 0 0 0.34477,-0.3025 4.5867619,4.5867619 0 0 0 0.31251,-0.3355 4.5867619,4.5867619 0 0 0 0.27738,-0.3648 4.5867619,4.5867619 0 0 0 0.2394,-0.3906 4.5867619,4.5867619 0 0 0 0.19926,-0.4129 4.5867619,4.5867619 0 0 0 0.1577,-0.4308 4.5867619,4.5867619 0 0 0 0.11332,-0.4444 4.5867619,4.5867619 0 0 0 0.0681,-0.4537 4.5867619,4.5867619 0 0 0 0.0229,-0.4573 4.5867619,4.5867619 0 0 0 -0.0111,-0.3247 4.5867619,4.5867619 0 0 0 -0.0552,-0.4551 4.5867619,4.5867619 0 0 0 -0.10043,-0.4473 4.5867619,4.5867619 0 0 0 -0.14478,-0.435 4.5867619,4.5867619 0 0 0 -0.18707,-0.4186 4.5867619,4.5867619 0 0 0 -0.22794,-0.3978 4.5867619,4.5867619 0 0 0 -0.26663,-0.3727 4.5867619,4.5867619 0 0 0 -0.30247,-0.3448 4.5867619,4.5867619 0 0 0 -0.33546,-0.3126 4.5867619,4.5867619 0 0 0 -0.36555,-0.2774 4.5867619,4.5867619 0 0 0 -0.39064,-0.2394 4.5867619,4.5867619 0 0 0 -0.41285,-0.1992 4.5867619,4.5867619 0 0 0 -0.43077,-0.1577 4.5867619,4.5867619 0 0 0 -0.4444,-0.11318 4.5867619,4.5867619 0 0 0 -0.45302,-0.0688 4.5867619,4.5867619 0 0 0 -0.45801,-0.0229 z"
       id="path3321"
       inkscape:connector-curvature="0" />
    <path
       inkscape:connector-curvature="0"
       id="path3299"
       style="display:inline;opacity:1;fill:url(#radialGradient3402);fill-opacity:1;stroke:#fa0000;stroke-width:0;stroke-linecap:round;stroke-linejoin:miter;stroke-miterlimit:4;stroke-dasharray:none;stroke-opacity:1;paint-order:markers fill stroke"
       d="m 96.195703,118.70719 a 26.861109,26.861109 0 0 1 0.0939,0.2824 26.861109,26.861109 0 0 1 0.587759,2.6198 26.861109,26.861109 0 0 1 0.323968,2.6656 26.861109,26.861109 0 0 1 0.0667,1.9002 26.861109,26.861109 0 0 1 -0.13399,2.6814 26.861109,26.861109 0 0 1 -0.401385,2.6549 26.861109,26.861109 0 0 1 -0.008,0.033 26.861109,26.861109 0 0 1 -0.655119,2.5676 26.861109,26.861109 0 0 1 -0.92106,2.5223 26.861109,26.861109 0 0 1 -1.1676,2.4176 26.861109,26.861109 0 0 1 -1.40344,2.2893 26.861109,26.861109 0 0 1 -0.278101,0.3663 94.060579,94.060579 0 0 1 1.788321,7.9676 94.060579,94.060579 0 0 1 1.133218,9.3338 94.060579,94.060579 0 0 1 0.235101,6.6537 94.060579,94.060579 0 0 1 -0.469479,9.3904 94.060579,94.060579 0 0 1 -1.404871,9.2964 94.060579,94.060579 0 0 1 -2.32663,9.1102 94.060579,94.060579 0 0 1 -3.22403,8.832 94.060579,94.060579 0 0 1 -4.089148,8.4658 94.060579,94.060579 0 0 1 -4.914892,8.0156 94.060579,94.060579 0 0 1 -5.68969,7.4851 94.060579,94.060579 0 0 1 -1.18052,1.2674 52.687643,52.687643 0 0 1 2.84986,-2.0379 52.687643,52.687643 0 0 1 4.56869,-2.6205 52.687643,52.687643 0 0 1 4.806641,-2.151 52.687643,52.687643 0 0 1 4.998029,-1.6607 52.687643,52.687643 0 0 1 5.13851,-1.154 52.687643,52.687643 0 0 1 5.228115,-0.6344 52.687643,52.687643 0 0 1 3.72718,-0.1318 52.687643,52.687643 0 0 1 5.26038,0.2631 52.687643,52.687643 0 0 1 5.20731,0.787 52.687643,52.687643 0 0 1 5.10268,1.3031 52.687643,52.687643 0 0 1 4.94712,1.8062 52.687643,52.687643 0 0 1 4.74214,2.2902 52.687643,52.687643 0 0 1 4.48985,2.7531 52.687643,52.687643 0 0 1 3.35447,2.5495 94.060579,94.060579 0 0 1 -0.30965,-0.3519 94.060579,94.060579 0 0 1 -5.46894,-7.648 94.060579,94.060579 0 0 1 -4.67835,-8.1553 94.060579,94.060579 0 0 1 -3.84044,-8.582 94.060579,94.060579 0 0 1 -2.96455,-8.923 94.060579,94.060579 0 0 1 -2.05929,-9.1738 94.060579,94.060579 0 0 1 -1.13321,-9.3331 94.060579,94.060579 0 0 1 -0.23581,-6.6537 94.060579,94.060579 0 0 1 0.4702,-9.3905 94.060579,94.060579 0 0 1 1.40486,-9.2964 94.060579,94.060579 0 0 1 2.13168,-8.3482 26.861109,26.861109 0 0 1 -0.0853,-0.097 26.861109,26.861109 0 0 1 -1.56185,-2.1841 26.861109,26.861109 0 0 1 -1.33533,-2.3288 26.861109,26.861109 0 0 1 -1.09738,-2.4506 26.861109,26.861109 0 0 1 -0.8465,-2.5481 26.861109,26.861109 0 0 1 -0.0111,-0.047 26.861109,26.861109 0 0 1 -0.57699,-2.5725 26.861109,26.861109 0 0 1 -0.32399,-2.6656 26.861109,26.861109 0 0 1 -0.0674,-1.9002 26.861109,26.861109 0 0 1 0.13469,-2.6814 26.861109,26.861109 0 0 1 0.40139,-2.655 26.861109,26.861109 0 0 1 0.003,-0.014 26.861109,26.861109 0 0 1 -1.6163,0.3634 26.861109,26.861109 0 0 1 -2.66567,0.32329 26.861109,26.861109 0 0 1 -1.90015,0.068 26.861109,26.861109 0 0 1 -2.68144,-0.13461 26.861109,26.861109 0 0 1 -2.6549,-0.4014 26.861109,26.861109 0 0 1 -2.60187,-0.6644 26.861109,26.861109 0 0 1 -2.52159,-0.9204 26.861109,26.861109 0 0 1 -1.689433,-0.81639 z m 7.277347,96.9608 a 52.687643,52.687643 0 0 0 -3.7272,0.1318 52.687643,52.687643 0 0 0 -5.228108,0.6342 52.687643,52.687643 0 0 0 -5.13851,1.1541 52.687643,52.687643 0 0 0 -4.998019,1.6608 52.687643,52.687643 0 0 0 -4.80665,2.151 52.687643,52.687643 0 0 0 -4.56868,2.6205 52.687643,52.687643 0 0 0 -2.84987,2.0377 94.060579,94.060579 0 0 1 -5.22811,5.6123 94.060579,94.060579 0 0 1 -5.01809,4.4082 52.687643,52.687643 0 0 0 -1.92165,2.5273 52.687643,52.687643 0 0 0 -2.75311,4.4898 52.687643,52.687643 0 0 0 -0.54833,1.1347 109.95491,109.95491 0 0 0 0.47952,0.2315 109.95491,109.95491 0 0 0 3.11794,1.5059 109.95491,109.95491 0 0 0 10.32434,3.7687 109.95491,109.95491 0 0 0 4.76076,1.2158 109.95491,109.95491 0 0 0 5.888251,1.5038 109.95491,109.95491 0 0 0 10.867639,1.6421 109.95491,109.95491 0 0 0 10.977307,0.549 109.95491,109.95491 0 0 0 7.77765,-0.2752 109.95491,109.95491 0 0 0 10.91136,-1.3246 109.95491,109.95491 0 0 0 10.72356,-2.407 109.95491,109.95491 0 0 0 1.36545,-0.4537 109.95491,109.95491 0 0 0 9.06497,-3.0119 109.95491,109.95491 0 0 0 5.93341,-2.6556 109.95491,109.95491 0 0 0 1.26152,-0.5648 52.687643,52.687643 0 0 0 -2.33239,-4.0662 52.687643,52.687643 0 0 0 -1.68369,-2.3539 94.060579,94.060579 0 0 1 -3.65193,-3.4024 94.060579,94.060579 0 0 1 -5.8954,-6.7119 52.687643,52.687643 0 0 0 -3.35448,-2.5495 52.687643,52.687643 0 0 0 -4.48984,-2.7531 52.687643,52.687643 0 0 0 -4.74214,-2.2901 52.687643,52.687643 0 0 0 -4.94713,-1.8062 52.687643,52.687643 0 0 0 -5.10268,-1.3031 52.687643,52.687643 0 0 0 -5.20731,-0.787 52.687643,52.687643 0 0 0 -5.26036,-0.2632 z" />
    <path
       style="display:inline;opacity:1;fill:url(#linearGradient3376);fill-opacity:1;stroke:#fa0000;stroke-width:0;stroke-linecap:round;stroke-linejoin:miter;stroke-miterlimit:4;stroke-dasharray:none;stroke-opacity:1;paint-order:markers fill stroke"
       d="m 118.71296,24.093794 a 26.861109,26.861109 0 0 1 -0.91028,0.5225 26.861109,26.861109 0 0 1 -0.53472,0.2394 26.861109,26.861109 0 0 1 -1.91592,0.8573 26.861109,26.861109 0 0 1 -2.54811,0.8465 26.861109,26.861109 0 0 1 -2.61979,0.5877 26.861109,26.861109 0 0 1 -2.66494,0.324 26.861109,26.861109 0 0 1 -1.90015,0.068 26.861109,26.861109 0 0 1 -2.68144,-0.1346 26.861109,26.861109 0 0 1 -2.6549,-0.4007 26.861109,26.861109 0 0 1 -2.60187,-0.6644 26.861109,26.861109 0 0 1 -2.522307,-0.9209 26.861109,26.861109 0 0 1 -0.41071,-0.1987 26.861109,26.861109 0 0 1 -1.891551,-0.913 10.535916,10.535916 0 0 1 0.395671,0.6888 10.535916,10.535916 0 0 1 0.430041,0.9612 10.535916,10.535916 0 0 1 0.33188,0.9997 10.535916,10.535916 0 0 1 0.0853,0.3806 10.535916,10.535916 0 0 1 0.1455,0.6467 10.535916,10.535916 0 0 1 0.12691,1.0457 10.535916,10.535916 0 0 1 0.0265,0.7455 10.535916,10.535916 0 0 1 -0.053,1.0515 10.535916,10.535916 0 0 1 -0.156969,1.0414 10.535916,10.535916 0 0 1 -0.0953,0.372 12.249277,12.249277 0 0 0 0.01929,0.086 5.3663932,5.3880747 0 0 1 0.330439,-0.111 5.3663932,5.3880747 0 0 1 0.52324,-0.1179 5.3663932,5.3880747 0 0 1 0.53255,-0.065 5.3663932,5.3880747 0 0 1 0.379172,-0.014 5.3663932,5.3880747 0 0 1 0.536138,0.028 5.3663932,5.3880747 0 0 1 0.530421,0.08 5.3663932,5.3880747 0 0 1 0.519645,0.1332 5.3663932,5.3880747 0 0 1 0.5039,0.1849 5.3663932,5.3880747 0 0 1 0.4831,0.2344 5.3663932,5.3880747 0 0 1 0.45729,0.281 5.3663932,5.3880747 0 0 1 0.42719,0.3261 5.3663932,5.3880747 0 0 1 0.39207,0.367 5.3663932,5.3880747 0 0 1 0.35408,0.405 5.3663932,5.3880747 0 0 1 0.31181,0.4379 5.3663932,5.3880747 0 0 1 0.26736,0.4673 5.3663932,5.3880747 0 0 1 0.2186,0.4917 5.3663932,5.3880747 0 0 1 0.16916,0.5111 5.3663932,5.3880747 0 0 1 0.11748,0.5254 5.3663932,5.3880747 0 0 1 0.0652,0.5347 5.3663932,5.3880747 0 0 1 0.0125,0.3813 5.3663932,5.3880747 0 0 1 -0.0265,0.5376 5.3663932,5.3880747 0 0 1 -0.0803,0.5325 5.3663932,5.3880747 0 0 1 -0.1326,0.5218 5.3663932,5.3880747 0 0 1 -0.18421,0.5061 5.3663932,5.3880747 0 0 1 -0.18206,0.3792 5.3663932,5.3880747 0 0 1 -0.0509,0.1068 5.3663932,5.3880747 0 0 1 -0.28025,0.4587 5.3663932,5.3880747 0 0 1 -0.0939,0.1235 5.3663932,5.3880747 0 0 1 -0.23081,0.3046 5.3663932,5.3880747 0 0 1 -0.36555,0.3942 5.3663932,5.3880747 0 0 1 -0.0208,0.018 5.3663932,5.3880747 0 0 1 -0.38276,0.3369 5.3663932,5.3880747 0 0 1 -0.43579,0.3132 5.3663932,5.3880747 0 0 1 -0.4659,0.2681 5.3663932,5.3880747 0 0 1 -0.48955,0.22 5.3663932,5.3880747 0 0 1 -0.5089,0.1699 5.3663932,5.3880747 0 0 1 -0.19999,0.046 19.67047,19.67047 0 0 1 0.61786,0.093 19.67047,19.67047 0 0 1 1.90517,0.4867 19.67047,19.67047 0 0 1 1.84638,0.6738 19.67047,19.67047 0 0 1 1.77115,0.8558 19.67047,19.67047 0 0 1 1.67579,1.0271 19.67047,19.67047 0 0 1 1.56543,1.1906 19.67047,19.67047 0 0 1 0.0373,0.035 19.67047,19.67047 0 0 1 0.75261,-0.6609 19.67047,19.67047 0 0 1 1.59911,-1.144 19.67047,19.67047 0 0 1 1.70518,-0.9783 19.67047,19.67047 0 0 1 1.79479,-0.8035 19.67047,19.67047 0 0 1 1.86648,-0.62 19.67047,19.67047 0 0 1 0.67376,-0.1513 5.3663932,5.3880747 0 0 1 -0.36699,-0.094 5.3663932,5.3880747 0 0 1 -0.50388,-0.1849 5.3663932,5.3880747 0 0 1 -0.48311,-0.2337 5.3663932,5.3880747 0 0 1 -0.4573,-0.2817 5.3663932,5.3880747 0 0 1 -0.30677,-0.2343 5.3663932,5.3880747 0 0 1 -0.1204,-0.092 5.3663932,5.3880747 0 0 1 -0.39279,-0.367 5.3663932,5.3880747 0 0 1 -0.35337,-0.405 5.3663932,5.3880747 0 0 1 -0.0917,-0.1276 5.3663932,5.3880747 0 0 1 -0.15124,-0.2129 5.3663932,5.3880747 0 0 1 -0.0695,-0.097 5.3663932,5.3880747 0 0 1 -0.26663,-0.4673 5.3663932,5.3880747 0 0 1 -0.21933,-0.491 5.3663932,5.3880747 0 0 1 -0.16916,-0.5119 5.3663932,5.3880747 0 0 1 -0.11748,-0.5252 5.3663932,5.3880747 0 0 1 -0.0645,-0.5349 5.3663932,5.3880747 0 0 1 -0.0139,-0.3806 5.3663932,5.3880747 0 0 1 0.0272,-0.5381 5.3663932,5.3880747 0 0 1 0.0803,-0.5327 5.3663932,5.3880747 0 0 1 0.1326,-0.5218 5.3663932,5.3880747 0 0 1 0.18349,-0.5059 5.3663932,5.3880747 0 0 1 0.23367,-0.4847 5.3663932,5.3880747 0 0 1 0.28025,-0.4594 5.3663932,5.3880747 0 0 1 0.3247,-0.4285 5.3663932,5.3880747 0 0 1 0.36556,-0.3944 5.3663932,5.3880747 0 0 1 0.40282,-0.3555 5.3663932,5.3880747 0 0 1 0.43651,-0.3132 5.3663932,5.3880747 0 0 1 0.46518,-0.2681 5.3663932,5.3880747 0 0 1 0.48955,-0.22 5.3663932,5.3880747 0 0 1 0.50961,-0.1699 5.3663932,5.3880747 0 0 1 0.52325,-0.1179 5.3663932,5.3880747 0 0 1 0.53256,-0.065 5.3663932,5.3880747 0 0 1 0.37917,-0.014 5.3663932,5.3880747 0 0 1 0.53615,0.028 5.3663932,5.3880747 0 0 1 0.5304,0.08 5.3663932,5.3880747 0 0 1 0.51966,0.1332 5.3663932,5.3880747 0 0 1 0.33473,0.1234 12.249277,12.249277 0 0 0 0.0315,-0.122 12.249277,12.249277 0 0 0 0.048,-0.3175 10.535916,10.535916 0 0 1 -0.1326,-0.3994 10.535916,10.535916 0 0 1 -0.23079,-1.0277 10.535916,10.535916 0 0 1 -0.12691,-1.0459 10.535916,10.535916 0 0 1 -0.0265,-0.7447 10.535916,10.535916 0 0 1 0.0523,-1.0522 10.535916,10.535916 0 0 1 0.15769,-1.0413 10.535916,10.535916 0 0 1 0.0366,-0.1428 10.535916,10.535916 0 0 1 0.22435,-0.8773 10.535916,10.535916 0 0 1 0.36052,-0.9891 10.535916,10.535916 0 0 1 0.25517,-0.529 z"
       id="path3167"
       inkscape:connector-curvature="0" />
    <path
       style="display:inline;opacity:1;fill:url(#linearGradient3374);fill-opacity:1;stroke:#fa0000;stroke-width:0;stroke-linecap:round;stroke-linejoin:miter;stroke-miterlimit:4;stroke-dasharray:none;stroke-opacity:1;paint-order:markers fill stroke"
       d="m 117.26796,26.323694 a 12.249277,12.249277 0 0 0 -0.26162,-0.5849 12.249277,12.249277 0 0 0 -0.60925,-1.0622 12.249277,12.249277 0 0 0 -0.71175,-0.9956 12.249277,12.249277 0 0 0 -0.80851,-0.9204 12.249277,12.249277 0 0 0 -0.89597,-0.8343 12.249277,12.249277 0 0 0 -0.9748,-0.7411 12.249277,12.249277 0 0 0 -1.04362,-0.6402 12.249277,12.249277 0 0 0 -1.10238,-0.5324 12.249277,12.249277 0 0 0 -1.15042,-0.4193 12.249277,12.249277 0 0 0 -1.18624,-0.3032 12.249277,12.249277 0 0 0 -1.21063,-0.1829 12.249277,12.249277 0 0 0 -1.22281,-0.061 12.249277,12.249277 0 0 0 -0.86657,0.03 12.249277,12.249277 0 0 0 -1.21564,0.1476 12.249277,12.249277 0 0 0 -1.19484,0.2681 12.249277,12.249277 0 0 0 -1.16189,0.3865 12.249277,12.249277 0 0 0 -1.11744,0.4994 12.249277,12.249277 0 0 0 -1.06225,0.6094 12.249277,12.249277 0 0 0 -0.9956,0.7125 12.249277,12.249277 0 0 0 -0.92032,0.8085 12.249277,12.249277 0 0 0 -0.834316,0.8952 12.249277,12.249277 0 0 0 -0.741141,0.9748 12.249277,12.249277 0 0 0 -0.64008,1.0443 12.249277,12.249277 0 0 0 -0.53255,1.1024 12.249277,12.249277 0 0 0 -0.0595,0.162 26.861109,26.861109 0 0 0 0.4107,0.1985 26.861109,26.861109 0 0 0 2.522317,0.9211 26.861109,26.861109 0 0 0 2.60186,0.6644 26.861109,26.861109 0 0 0 2.65491,0.4007 26.861109,26.861109 0 0 0 2.68143,0.1345 26.861109,26.861109 0 0 0 1.90015,-0.068 26.861109,26.861109 0 0 0 2.66494,-0.324 26.861109,26.861109 0 0 0 2.61978,-0.5877 26.861109,26.861109 0 0 0 2.54812,-0.8465 26.861109,26.861109 0 0 0 1.91592,-0.8573 z"
       id="path3165"
       inkscape:connector-curvature="0" />
    <path
       style="display:inline;opacity:1;fill:#00ff00;fill-opacity:1;stroke:#fa0000;stroke-width:0;stroke-linecap:round;stroke-linejoin:miter;stroke-miterlimit:4;stroke-dasharray:none;stroke-opacity:1;paint-order:markers fill stroke"
       d="m 118.06358,33.851094 a 5.3663932,5.3880747 0 0 1 0.16916,0.061 5.3663932,5.3880747 0 0 1 0.0918,0.044 10.535916,10.535916 0 0 1 -0.18135,-0.5461 12.249277,12.249277 0 0 1 -0.048,0.3175 12.249277,12.249277 0 0 1 -0.0315,0.1221 z"
       id="path3159"
       inkscape:connector-curvature="0" />
    <path
       style="display:inline;opacity:1;fill:#00ff00;fill-opacity:1;stroke:#fa0000;stroke-width:0;stroke-linecap:round;stroke-linejoin:miter;stroke-miterlimit:4;stroke-dasharray:none;stroke-opacity:1;paint-order:markers fill stroke"
       d="m 94.112053,33.793794 a 12.249277,12.249277 0 0 1 -0.01929,-0.086 10.535916,10.535916 0 0 1 -0.0258,0.1013 5.3663932,5.3880747 0 0 1 0.0452,-0.015 z"
       id="path3111"
       inkscape:connector-curvature="0" />
    <path
       style="display:inline;opacity:1;fill:url(#linearGradient3392);fill-opacity:1;stroke:#fa0000;stroke-width:0;stroke-linecap:round;stroke-linejoin:miter;stroke-miterlimit:4;stroke-dasharray:none;stroke-opacity:1;paint-order:markers fill stroke"
       d="m 106.53222,44.804794 a 19.670488,19.670471 0 0 0 -0.72466,0.6365 19.670488,19.670471 0 0 0 -1.34036,1.4386 19.670488,19.670471 0 0 0 -1.18983,1.5654 19.670488,19.670471 0 0 0 -0.72321,1.1798 19.670488,19.670471 0 0 0 -0.30464,0.4967 19.670488,19.670471 0 0 0 -0.8551,1.7704 19.670488,19.670471 0 0 0 -0.67447,1.8471 19.670488,19.670471 0 0 0 -0.4867,1.9053 19.670488,19.670471 0 0 0 -0.29387,1.9437 19.670488,19.670471 0 0 0 -0.0982,1.9641 19.670488,19.670471 0 0 0 0.0495,1.3912 19.670488,19.670471 0 0 0 0.23725,1.9518 19.670488,19.670471 0 0 0 0.0817,0.3662 19.670488,19.670471 0 0 0 0.34836,1.5525 19.670488,19.670471 0 0 0 0.62,1.8658 19.670488,19.670471 0 0 0 0.80349,1.7948 19.670488,19.670471 0 0 0 0.67449,1.1747 19.670488,19.670471 0 0 0 0.30391,0.5304 19.670488,19.670471 0 0 0 1.14395,1.5998 19.670488,19.670471 0 0 0 1.29736,1.4773 19.670488,19.670471 0 0 0 1.40128,1.3045 19.670488,19.670471 0 0 0 0.72465,-0.6365 19.670488,19.670471 0 0 0 1.34036,-1.4385 19.670488,19.670471 0 0 0 1.18984,-1.5654 19.670488,19.670471 0 0 0 0.67949,-1.1082 19.670488,19.670471 0 0 0 0.34835,-0.5684 19.670488,19.670471 0 0 0 0.85583,-1.7704 19.670488,19.670471 0 0 0 0.67376,-1.847 19.670488,19.670471 0 0 0 0.34978,-1.3676 19.670488,19.670471 0 0 0 0.1369,-0.5369 19.670488,19.670471 0 0 0 0.29388,-1.9446 19.670488,19.670471 0 0 0 0.0982,-1.9639 19.670488,19.670471 0 0 0 -0.0495,-1.3912 19.670488,19.670471 0 0 0 -0.23653,-1.9518 19.670488,19.670471 0 0 0 -0.43078,-1.9189 19.670488,19.670471 0 0 0 -0.62001,-1.8657 19.670488,19.670471 0 0 0 -0.80349,-1.7948 19.670488,19.670471 0 0 0 -0.85583,-1.4909 19.670488,19.670471 0 0 0 -0.12261,-0.2143 19.670488,19.670471 0 0 0 -1.14325,-1.5998 19.670488,19.670471 0 0 0 -1.29806,-1.4773 19.670488,19.670471 0 0 0 -1.40128,-1.3045 z"
       id="path3081"
       inkscape:connector-curvature="0" />
  </g>
</svg>
