<?xml version="1.0" encoding="UTF-8" standalone="no"?>
<!-- Created with Inkscape (http://www.inkscape.org/) -->

<svg
   xmlns:dc="http://purl.org/dc/elements/1.1/"
   xmlns:cc="http://creativecommons.org/ns#"
   xmlns:rdf="http://www.w3.org/1999/02/22-rdf-syntax-ns#"
   xmlns:svg="http://www.w3.org/2000/svg"
   xmlns="http://www.w3.org/2000/svg"
   xmlns:xlink="http://www.w3.org/1999/xlink"
   xmlns:sodipodi="http://sodipodi.sourceforge.net/DTD/sodipodi-0.dtd"
   xmlns:inkscape="http://www.inkscape.org/namespaces/inkscape"
   width="210mm"
   height="297mm"
   viewBox="0 0 210 297"
   version="1.1"
   id="svg12037"
   inkscape:version="0.92.3 (2405546, 2018-03-11)"
   sodipodi:docname="bN.svg">
  <defs
     id="defs12031">
    <linearGradient
       inkscape:collect="always"
       id="linearGradient5299">
      <stop
         style="stop-color:#000000;stop-opacity:1;"
         offset="0"
         id="stop5295" />
      <stop
         style="stop-color:#000000;stop-opacity:0;"
         offset="1"
         id="stop5297" />
    </linearGradient>
    <linearGradient
       inkscape:collect="always"
       id="linearGradient5291">
      <stop
         style="stop-color:#000000;stop-opacity:1;"
         offset="0"
         id="stop5287" />
      <stop
         style="stop-color:#cccccc;stop-opacity:1"
         offset="1"
         id="stop5289" />
    </linearGradient>
    <linearGradient
       inkscape:collect="always"
       id="linearGradient5261">
      <stop
         style="stop-color:#808080;stop-opacity:1;"
         offset="0"
         id="stop5257" />
      <stop
         style="stop-color:#e6e6e6;stop-opacity:1"
         offset="1"
         id="stop5259" />
    </linearGradient>
    <linearGradient
       id="linearGradient6683"
       inkscape:collect="always">
      <stop
         id="stop6679"
         offset="0"
         style="stop-color:#000000;stop-opacity:1;" />
      <stop
         id="stop6681"
         offset="1"
         style="stop-color:#808080;stop-opacity:1" />
    </linearGradient>
    <linearGradient
       inkscape:collect="always"
       id="linearGradient5219">
      <stop
         style="stop-color:#000000;stop-opacity:1;"
         offset="0"
         id="stop5215" />
      <stop
         style="stop-color:#b3b3b3;stop-opacity:1"
         offset="1"
         id="stop5217" />
    </linearGradient>
    <linearGradient
       id="linearGradient6689"
       inkscape:collect="always">
      <stop
         id="stop6685"
         offset="0"
         style="stop-color:#000000;stop-opacity:1;" />
      <stop
         id="stop6687"
         offset="1"
         style="stop-color:#999999;stop-opacity:1" />
    </linearGradient>
    <linearGradient
       inkscape:collect="always"
       id="linearGradient5199">
      <stop
         style="stop-color:#1a1a1a;stop-opacity:1;"
         offset="0"
         id="stop5195" />
      <stop
         style="stop-color:#808080;stop-opacity:1"
         offset="1"
         id="stop5197" />
    </linearGradient>
    <linearGradient
       gradientTransform="matrix(0.66802154,0,0,0.66802154,329.29742,68.632157)"
       inkscape:collect="always"
       xlink:href="#linearGradient5299"
       id="linearGradient5301-7"
       x1="-341.03592"
       y1="226.84175"
       x2="-344.10953"
       y2="280.96384"
       gradientUnits="userSpaceOnUse" />
    <linearGradient
       inkscape:collect="always"
       xlink:href="#linearGradient5291"
       id="linearGradient5293-1"
       x1="-1339.6445"
       y1="792.31055"
       x2="-1324.3101"
       y2="969.98663"
       gradientUnits="userSpaceOnUse"
       gradientTransform="matrix(0.17674736,0,0,0.17674736,329.29742,68.632157)" />
    <linearGradient
       inkscape:collect="always"
       xlink:href="#linearGradient5261"
       id="linearGradient5263-9"
       x1="-1325.8252"
       y1="764.92572"
       x2="-1323.2998"
       y2="704.31653"
       gradientUnits="userSpaceOnUse"
       gradientTransform="matrix(0.17674736,0,0,0.17674736,329.29742,68.632157)" />
    <linearGradient
       gradientTransform="matrix(0.66802154,0,0,0.66802154,329.29742,68.632157)"
       inkscape:collect="always"
       xlink:href="#linearGradient6683"
       id="linearGradient5211-2"
       x1="-319.15442"
       y1="57.147972"
       x2="-287.582"
       y2="24.385082"
       gradientUnits="userSpaceOnUse" />
    <linearGradient
       gradientTransform="matrix(0.66802154,0,0,0.66802154,329.29742,68.632157)"
       inkscape:collect="always"
       xlink:href="#linearGradient5219"
       id="linearGradient5221-1"
       x1="-383.51843"
       y1="143.05534"
       x2="-247.49158"
       y2="222.69907"
       gradientUnits="userSpaceOnUse" />
    <linearGradient
       gradientTransform="matrix(0.66802154,0,0,0.66802154,329.29742,68.632157)"
       inkscape:collect="always"
       xlink:href="#linearGradient6689"
       id="linearGradient5237-8"
       x1="-309.49811"
       y1="157.48531"
       x2="-427.63126"
       y2="153.209"
       gradientUnits="userSpaceOnUse" />
    <linearGradient
       gradientTransform="matrix(0.66802154,0,0,0.66802154,329.29742,68.632157)"
       inkscape:collect="always"
       xlink:href="#linearGradient5299"
       id="linearGradient5239-8"
       x1="-308.95853"
       y1="143.55212"
       x2="-265.13138"
       y2="159.08893"
       gradientUnits="userSpaceOnUse" />
    <radialGradient
       inkscape:collect="always"
       xlink:href="#linearGradient5199"
       id="radialGradient5201-8"
       cx="-345.39563"
       cy="84.427818"
       fx="-345.39563"
       fy="84.427818"
       r="50.989544"
       gradientTransform="matrix(4.9466976,0.02219761,-0.01569769,3.4981995,1808.4588,-162.64664)"
       gradientUnits="userSpaceOnUse" />
    <linearGradient
       inkscape:collect="always"
       xlink:href="#linearGradient6683"
       id="linearGradient13004"
       gradientUnits="userSpaceOnUse"
       gradientTransform="matrix(0.66802154,0,0,0.66802154,329.29742,68.632157)"
       x1="-319.15442"
       y1="57.147972"
       x2="-287.582"
       y2="24.385082" />
  </defs>
  <sodipodi:namedview
     id="base"
     pagecolor="#ffffff"
     bordercolor="#666666"
     borderopacity="1.0"
     inkscape:pageopacity="0.0"
     inkscape:pageshadow="2"
     inkscape:zoom="0.49497475"
     inkscape:cx="-13.322807"
     inkscape:cy="754.32726"
     inkscape:document-units="mm"
     inkscape:current-layer="layer1"
     showgrid="false"
     inkscape:window-width="1920"
     inkscape:window-height="1017"
     inkscape:window-x="0"
     inkscape:window-y="0"
     inkscape:window-maximized="1" />
  <metadata
     id="metadata12034">
    <rdf:RDF>
      <cc:Work
         rdf:about="">
        <dc:format>image/svg+xml</dc:format>
        <dc:type
           rdf:resource="http://purl.org/dc/dcmitype/StillImage" />
        <dc:title />
      </cc:Work>
    </rdf:RDF>
  </metadata>
  <g
     inkscape:label="Layer 1"
     inkscape:groupmode="layer"
     id="layer1">
    <path
       style="opacity:1;fill:#4d4d4d;fill-opacity:1;stroke:none;stroke-width:0.26458332;stroke-linecap:round;stroke-linejoin:miter;stroke-miterlimit:4;stroke-dasharray:0.26458333, 0.26458333;stroke-dashoffset:0;stroke-opacity:1;paint-order:markers fill stroke"
       d="m 104.14012,122.88779 a 15.100233,15.100233 0 0 0 0.20644,0.4612 15.100233,15.100233 0 0 0 0.75083,1.30938 15.100233,15.100233 0 0 0 0.87822,1.22756 15.100233,15.100233 0 0 0 0.30446,0.34694 2.7165992,2.7165992 0 0 0 0.0345,-0.13497 2.7165992,2.7165992 0 0 0 0.0408,-0.26823 2.7165992,2.7165992 0 0 1 0,-3.6e-4 2.7165992,2.7165992 0 0 0 0.0135,-0.27099 2.7165992,2.7165992 0 0 1 0,-3.5e-4 2.7165992,2.7165992 0 0 0 -0.007,-0.19194 2.7165992,2.7165992 0 0 0 -0.0328,-0.26961 2.7165992,2.7165992 0 0 0 -0.059,-0.26477 2.7165992,2.7165992 0 0 0 0,-3.6e-4 h -3.5e-4 a 2.7165992,2.7165992 0 0 0 -0.0856,-0.25752 2.7165992,2.7165992 0 0 0 -0.11083,-0.24786 2.7165992,2.7165992 0 0 0 -0.13532,-0.23543 2.7165992,2.7165992 0 0 0 -0.15776,-0.22094 2.7165992,2.7165992 0 0 0 -0.17917,-0.20402 2.7165992,2.7165992 0 0 0 -0.19849,-0.18503 2.7165992,2.7165992 0 0 0 -0.21611,-0.16432 2.7165992,2.7165992 0 0 0 -0.23129,-0.14188 2.7165992,2.7165992 0 0 1 0,-3.6e-4 2.7165992,2.7165992 0 0 0 -0.24441,-0.11806 2.7165992,2.7165992 0 0 0 -0.25509,-0.0929 2.7165992,2.7165992 0 0 0 -0.26306,-0.0673 2.7165992,2.7165992 0 0 0 -0.0518,-0.008 z m -2.38092,0.72149 a 2.7165992,2.7165992 0 0 0 -0.18504,0.19884 h 3.6e-4 a 2.7165992,2.7165992 0 0 1 0.18468,-0.19884 z m -0.3497,0.41494 a 2.7165992,2.7165992 0 0 0 -0.14153,0.23163 2.7165992,2.7165992 0 0 1 0.14187,-0.23163 z m -0.28928,2.51831 a 2.7165992,2.7165992 0 0 0 0.11081,0.24786 2.7165992,2.7165992 0 0 0 0.13531,0.23543 2.7165992,2.7165992 0 0 0 0.15777,0.22093 2.7165992,2.7165992 0 0 0 0.1795,0.20402 2.7165992,2.7165992 0 0 1 -0.17915,-0.20402 2.7165992,2.7165992 0 0 1 -0.15776,-0.22093 2.7165992,2.7165992 0 0 1 -0.13532,-0.23543 2.7165992,2.7165992 0 0 1 -0.11116,-0.24786 z"
       id="path3901-8"
       inkscape:connector-curvature="0" />
    <path
       style="opacity:1;fill:#000000;fill-opacity:1;stroke:none;stroke-width:0.26458332;stroke-linecap:round;stroke-linejoin:miter;stroke-miterlimit:4;stroke-dasharray:0.26458333, 0.26458333;stroke-dashoffset:0;stroke-opacity:1;paint-order:markers fill stroke"
       d="m 106.28206,126.58673 a 15.109882,15.10031 0 0 1 0,-3.6e-4 15.109882,15.10031 0 0 1 -0.30468,-0.34693 15.109882,15.10031 0 0 1 -0.87878,-1.22758 15.109882,15.10031 0 0 1 -0.75131,-1.30938 15.109882,15.10031 0 0 1 -0.20657,-0.4612 2.7183352,2.716613 0 0 0 -0.21691,-0.0328 2.7183352,2.716613 0 0 0 -0.27117,-0.0135 2.7183352,2.716613 0 0 0 -0.19241,0.007 2.7183352,2.716613 0 0 0 -0.26944,0.0328 2.7183352,2.716613 0 0 0 -0.26496,0.0594 2.7183352,2.716613 0 0 0 -0.25768,0.0856 2.7183352,2.716613 0 0 0 -0.24801,0.11081 2.7183352,2.716613 0 0 0 -0.23558,0.13532 2.7183352,2.716613 0 0 0 -0.22108,0.15777 2.7183352,2.716613 0 0 0 -0.20415,0.17916 2.7183352,2.716613 0 0 0 -0.18481,0.19884 2.7183352,2.716613 0 0 0 -0.16443,0.2161 2.7183352,2.716613 0 0 0 -0.14163,0.23164 2.7183352,2.716613 0 0 0 -0.11848,0.24441 2.7183352,2.716613 0 0 0 -0.0929,0.25511 2.7183352,2.716613 0 0 0 -0.0674,0.26305 2.7183352,2.716613 0 0 1 0,3.6e-4 2.7183352,2.716613 0 0 0 -0.0408,0.26823 2.7183352,2.716613 0 0 0 -0.0131,0.27099 2.7183352,2.716613 0 0 0 0.007,0.19228 2.7183352,2.716613 0 0 0 0.0328,0.26961 2.7183352,2.716613 0 0 1 0,3.5e-4 2.7183352,2.716613 0 0 0 0.0594,0.26478 2.7183352,2.716613 0 0 0 0.0853,0.25753 2.7183352,2.716613 0 0 0 0.11123,0.24786 2.7183352,2.716613 0 0 0 0.13541,0.23543 2.7183352,2.716613 0 0 0 0.15786,0.22094 2.7183352,2.716613 0 0 0 0.17928,0.20402 2.7183352,2.716613 0 0 0 0.19863,0.18503 2.7183352,2.716613 0 0 0 0.21589,0.16432 2.7183352,2.716613 0 0 1 0,3.6e-4 2.7183352,2.716613 0 0 0 0.0895,0.0549 2.7183352,2.716613 0 0 0 0.14196,0.087 2.7183352,2.716613 0 0 0 0.24456,0.11806 2.7183352,2.716613 0 0 0 0.25493,0.0929 2.7183352,2.716613 0 0 0 0.26322,0.0673 2.7183352,2.716613 0 0 0 0.26841,0.0408 2.7183352,2.716613 0 0 0 0.27115,0.0135 2.7183352,2.716613 0 0 0 0.19172,-0.007 2.7183352,2.716613 0 0 0 0.26943,-0.0328 2.7183352,2.716613 0 0 0 0.26495,-0.0594 2.7183352,2.716613 0 0 0 0.25771,-0.0856 2.7183352,2.716613 0 0 0 0.24767,-0.11081 2.7183352,2.716613 0 0 0 0.23525,-0.13532 2.7183352,2.716613 0 0 0 0.22107,-0.15776 2.7183352,2.716613 0 0 0 0.20415,-0.17917 2.7183352,2.716613 0 0 0 0.18515,-0.19884 2.7183352,2.716613 0 0 0 0.16443,-0.21611 2.7183352,2.716613 0 0 0 0.14231,-0.23129 2.7183352,2.716613 0 0 1 0,-3.5e-4 2.7183352,2.716613 0 0 0 0.11849,-0.24441 2.7183352,2.716613 0 0 0 0.0929,-0.25511 2.7183352,2.716613 0 0 0 0.0328,-0.12773 z"
       id="path3887-3"
       inkscape:connector-curvature="0" />
    <path
       inkscape:connector-curvature="0"
       style="opacity:1;fill:url(#radialGradient5201-8);fill-opacity:1;stroke:none;stroke-width:0.26458332;stroke-linecap:round;stroke-linejoin:miter;stroke-miterlimit:4;stroke-dasharray:0.26458333, 0.26458333;stroke-dashoffset:0;stroke-opacity:1;paint-order:markers fill stroke"
       d="m 106.68253,115.37465 a 52.956456,52.956456 0 0 0 -1.54965,0.0549 52.956456,52.956456 0 0 0 -2.19554,0.0777 52.956456,52.956456 0 0 0 -0.16604,0.02 15.100231,15.100231 0 0 0 0,3.5e-4 52.956456,52.956456 0 0 0 -1.60316,0.1947 h -0.005 a 24.218327,24.218327 0 0 0 -2.246973,0.74669 24.218327,24.218327 0 0 0 -2.20934,0.98903 24.218327,24.218327 0 0 0 -2.099904,1.20443 24.218327,24.218327 0 0 0 -1.969067,1.40811 24.218327,24.218327 0 0 0 -1.818575,1.59764 24.218327,24.218327 0 0 0 -1.6501,1.77127 24.218327,24.218327 0 0 0 -1.464738,1.9273 24.218327,24.218327 0 0 0 -0.926191,1.50995 24.218327,24.218327 0 0 0 -0.339355,0.55372 24.218327,24.218327 0 0 0 0,3.5e-4 24.218327,24.218327 0 0 0 -1.052522,2.17965 24.218327,24.218327 0 0 0 -0.830237,2.2739 24.218327,24.218327 0 0 0 -0.143959,0.562 28.331693,28.331693 0 0 0 0,0.003 24.218327,24.218327 0 0 1 0.002,-0.003 28.331693,28.331693 0 0 0 -0.002,0.0304 28.331693,28.331693 0 0 0 0.07112,2.00395 28.331693,28.331693 0 0 0 0.340718,2.81138 28.331693,28.331693 0 0 1 0,3.6e-4 28.331693,28.331693 0 0 0 0.620351,2.76306 28.331693,28.331693 0 0 0 0.877173,2.64016 52.956456,52.956456 0 0 0 -0.002,6.6e-4 28.331693,28.331693 0 0 0 0,3.6e-4 28.331693,28.331693 0 0 0 0.01556,0.0463 28.331693,28.331693 0 0 0 1.156793,2.58493 28.331693,28.331693 0 0 0 0.175369,0.30586 28.331693,28.331693 0 0 0 0.298613,0.52023 15.100233,15.100233 0 0 1 0.704923,0.34072 15.100233,15.100233 0 0 1 1.286596,0.78881 15.100233,15.100233 0 0 1 1.201316,0.91342 15.100233,15.100233 0 0 1 0.587899,0.54716 15.100233,15.100233 0 0 0 0.126691,-0.16639 15.100233,15.100233 0 0 0 0.789147,-1.2866 15.100233,15.100233 0 0 0 0.302747,-0.62621 v 0 a 15.100233,15.100233 0 0 1 0,-3.5e-4 15.100231,15.100231 0 0 0 0.17088,-0.35384 15.100231,15.100231 0 0 0 0.182951,-0.3787 15.100231,15.100231 0 0 1 0,-3.5e-4 15.100231,15.100231 0 0 0 0.517129,-1.41743 15.100231,15.100231 0 0 0 0.373518,-1.4623 15.100231,15.100231 0 0 1 0,-3.6e-4 15.100231,15.100231 0 0 0 0.225423,-1.49234 15.100231,15.100231 0 0 1 0,-3.5e-4 15.100231,15.100231 0 0 0 0.07559,-1.50719 15.100231,15.100231 0 0 0 -0.03794,-1.06808 15.100231,15.100231 0 0 0 -0.171568,-1.41259 52.956456,52.956456 0 0 1 0.002,-0.001 52.956456,52.956456 0 0 0 0,-3.5e-4 h -0.002 a 15.100231,15.100231 0 0 0 0,-3.6e-4 52.956456,52.956456 0 0 1 0.476727,-0.27341 52.956456,52.956456 0 0 1 0,-3.5e-4 52.956456,52.956456 0 0 1 4.831212,-2.1617 52.956456,52.956456 0 0 1 0,-3.6e-4 52.956456,52.956456 0 0 1 5.023173,-1.66908 52.956456,52.956456 0 0 1 0,-3.6e-4 52.956456,52.956456 0 0 1 5.16468,-1.15921 52.956456,52.956456 0 0 1 5.16743,-0.62759 52.956456,52.956456 0 0 1 0.086,-0.0104 52.956456,52.956456 0 0 1 3.25117,-0.11495 h 0.003 a 52.956456,52.956456 0 0 1 0.49471,-0.0176 52.956456,52.956456 0 0 1 2.00808,0.10045 15.100232,15.100232 0 0 1 -0.43876,0.0987 15.100232,15.100232 0 0 1 -1.49822,0.18192 15.100232,15.100232 0 0 1 -0.39561,0.0142 15.100232,15.100232 0 0 0 0.15327,0.3428 15.100232,15.100232 0 0 1 0,3.5e-4 15.100232,15.100232 0 0 0 0.75084,1.30903 15.100232,15.100232 0 0 1 0,3.6e-4 15.100232,15.100232 0 0 0 0.87785,1.22756 15.100232,15.100232 0 0 0 0.99629,1.13367 15.100232,15.100232 0 0 1 0,3.6e-4 15.100232,15.100232 0 0 0 1.10399,1.02872 15.100232,15.100232 0 0 0 1.20167,0.91342 15.100232,15.100232 0 0 0 1.28693,0.78881 15.100232,15.100232 0 0 0 1.35909,0.65659 15.100232,15.100232 0 0 0 1.41778,0.51781 15.100232,15.100232 0 0 0 1.46266,0.37317 15.100231,15.100231 0 0 1 -0.002,0 15.100231,15.100231 0 0 1 -1.4623,-0.37282 15.100231,15.100231 0 0 1 0,-3.5e-4 15.100231,15.100231 0 0 1 -1.41778,-0.51782 15.100231,15.100231 0 0 1 -1.3591,-0.65659 15.100231,15.100231 0 0 1 -1.28693,-0.78846 15.100231,15.100231 0 0 1 0,-3.5e-4 15.100231,15.100231 0 0 1 -1.20167,-0.91308 15.100231,15.100231 0 0 1 0,-3.5e-4 15.100231,15.100231 0 0 1 -1.10398,-1.02873 15.100231,15.100231 0 0 1 0,-3.5e-4 15.100231,15.100231 0 0 1 -0.99629,-1.13367 15.100231,15.100231 0 0 1 -0.87787,-1.22757 15.100231,15.100231 0 0 1 0,-3.5e-4 15.100231,15.100231 0 0 1 -0.75082,-1.30904 15.100231,15.100231 0 0 1 0,-3.4e-4 15.100231,15.100231 0 0 1 -0.15328,-0.3428 15.100232,15.100232 0 0 1 -0.67247,0.0239 15.100232,15.100232 0 0 1 -1.50753,-0.0756 15.100232,15.100232 0 0 1 -1.32664,-0.20057 52.956456,52.956456 0 0 0 -5.1678,0.62759 52.956456,52.956456 0 0 0 -4.0058,0.89928 52.956456,52.956456 0 0 0 -1.15921,0.25994 52.956456,52.956456 0 0 1 0,3.5e-4 52.956456,52.956456 0 0 0 -5.023153,1.66909 52.956456,52.956456 0 0 1 0,3.5e-4 52.956456,52.956456 0 0 0 -4.831212,2.1617 52.956456,52.956456 0 0 1 0,3.6e-4 52.956456,52.956456 0 0 0 -0.477435,0.27375 15.100231,15.100231 0 0 1 0.171568,1.41364 15.100231,15.100231 0 0 1 0.03794,1.06807 15.100231,15.100231 0 0 1 -0.07559,1.50753 15.100231,15.100231 0 0 1 0,3.5e-4 15.100231,15.100231 0 0 1 -0.22507,1.49234 15.100231,15.100231 0 0 1 -0.373518,1.46232 15.100231,15.100231 0 0 0 0,3.5e-4 15.100231,15.100231 0 0 1 -0.517128,1.41742 15.100231,15.100231 0 0 1 0,3.6e-4 15.100231,15.100231 0 0 1 -0.182952,0.37869 15.100231,15.100231 0 0 1 -0.170879,0.35385 17.681665,17.681665 0 0 1 0.90583,0.33071 17.681665,17.681665 0 0 1 1.591414,0.76878 17.681665,17.681665 0 0 1 1.506842,0.92378 17.681665,17.681665 0 0 1 0,3.5e-4 17.681665,17.681665 0 0 1 1.40672,1.06946 17.681665,17.681665 0 0 1 0.51126,0.47639 72.340954,72.340954 0 0 1 0.73115,-0.41943 72.340954,72.340954 0 0 1 6.600423,-2.95361 72.340954,72.340954 0 0 1 6.86208,-2.28011 72.340954,72.340954 0 0 1 7.05539,-1.58382 72.340954,72.340954 0 0 1 7.1783,-0.87131 72.340954,72.340954 0 0 1 4.39244,-0.15569 24.218327,24.218327 0 0 0 0.0773,-0.51057 24.218327,24.218327 0 0 0 0.0476,-0.94863 24.218327,24.218327 0 0 0 0.0735,-1.46922 24.218327,24.218327 0 0 0 -0.0608,-1.71327 24.218327,24.218327 0 0 0 -0.29169,-2.403 24.218327,24.218327 0 0 0 -0.42011,-1.87173 24.218327,24.218327 0 0 0 -0.11014,-0.49054 24.218327,24.218327 0 0 0 -0.76324,-2.29738 24.218327,24.218327 0 0 0 -0.98904,-2.20934 24.218327,24.218327 0 0 0 -0.49433,-0.86164 15.100233,15.100233 0 0 1 -0.45706,0.49054 15.100233,15.100233 0 0 1 -1.13367,0.99628 15.100233,15.100233 0 0 1 -1.22756,0.87787 15.100233,15.100233 0 0 1 -1.30905,0.75118 15.100233,15.100233 0 0 1 -1.37773,0.61654 15.100231,15.100231 0 0 0 1.37773,-0.61654 15.100231,15.100231 0 0 0 1.30905,-0.75118 15.100231,15.100231 0 0 0 1.22756,-0.87787 15.100231,15.100231 0 0 0 1.13365,-0.99628 15.100231,15.100231 0 0 0 0.45708,-0.49054 24.218327,24.218327 0 0 0 -0.7101,-1.23826 24.218327,24.218327 0 0 0 -0.3359,-0.46984 15.100231,15.100231 0 0 1 -0.9393,0.53888 15.100231,15.100231 0 0 1 -1.37774,0.61654 15.100231,15.100231 0 0 0 0,3.5e-4 15.100231,15.100231 0 0 1 -1.07532,0.35695 15.100231,15.100231 0 0 1 -0.35696,0.11875 15.100231,15.100231 0 0 1 -1.47266,0.33037 15.100231,15.100231 0 0 1 -1.49821,0.18192 15.100231,15.100231 0 0 1 -1.06842,0.0379 15.100231,15.100231 0 0 1 -1.50718,-0.0756 15.100231,15.100231 0 0 1 -1.30421,-0.19711 15.100231,15.100231 0 0 1 -0.10977,-0.90445 15.100231,15.100231 0 0 1 -0.0376,-1.06808 15.100231,15.100231 0 0 1 0.0753,-1.50753 15.100231,15.100231 0 0 1 0.22576,-1.49234 15.100231,15.100231 0 0 1 0.37316,-1.46231 15.100231,15.100231 0 0 1 0,-3.5e-4 15.100231,15.100231 0 0 1 0.51782,-1.41778 15.100231,15.100231 0 0 1 0.65625,-1.35909 15.100231,15.100231 0 0 1 0.29412,-0.47949 24.218327,24.218327 0 0 0 -2.00636,-0.96935 24.218327,24.218327 0 0 0 -1.48059,-0.54026 52.956456,52.956456 0 0 0 -3.6734,-0.55544 52.956456,52.956456 0 0 0 -5.28653,-0.26443 z m -7.791053,34.85928 a 72.340954,72.340954 0 0 0 -0.002,6.7e-4 h 0.002 a 17.681665,17.681665 0 0 0 0,-6.7e-4 z m -0.002,6.7e-4 a 17.681665,17.681665 0 0 0 -0.51195,-0.47674 17.681665,17.681665 0 0 1 0,-3.5e-4 17.681665,17.681665 0 0 0 -1.40674,-1.06946 17.681665,17.681665 0 0 1 0,-3.5e-4 17.681665,17.681665 0 0 0 -1.506839,-0.92343 17.681665,17.681665 0 0 0 -1.591414,-0.76879 17.681665,17.681665 0 0 0 -0.90583,-0.33071 15.100233,15.100233 0 0 1 -0.302748,0.62621 15.100233,15.100233 0 0 1 -0.788793,1.2866 15.100233,15.100233 0 0 1 -0.12669,0.16673 15.100233,15.100233 0 0 1 0,3.6e-4 15.100233,15.100233 0 0 1 -0.78709,1.03459 15.100233,15.100233 0 0 1 -0.03487,0.0376 15.100233,15.100233 0 0 1 0,3.5e-4 15.100233,15.100233 0 0 1 0.182617,0.25511 15.100233,15.100233 0 0 1 0.750823,1.30938 15.100233,15.100233 0 0 1 0.1809,0.40425 28.331693,28.331693 0 0 0 0.377299,0.42943 28.331693,28.331693 0 0 0 1.15024,1.07188 72.340968,72.340968 0 0 1 1.162324,-0.6666 72.340968,72.340968 0 0 1 4.158741,-2.38609 z m -5.321073,3.05268 a 72.340968,72.340968 0 0 1 0,3.5e-4 v 0 a 28.331693,28.331693 0 0 0 0,-3.5e-4 z m 7.592886,-37.56506 a 52.956456,52.956456 0 0 0 -3.482133,0.42288 52.956456,52.956456 0 0 0 -5.164684,1.15921 52.956456,52.956456 0 0 0 -4.600257,1.5286 28.331693,28.331693 0 0 0 0,3.5e-4 h 0.002 a 28.331693,28.331693 0 0 0 -0.03728,0.0604 28.331693,28.331693 0 0 0 -1.231698,2.55006 28.331693,28.331693 0 0 0 -0.97109,2.66019 28.331693,28.331693 0 0 0 -0.509173,1.99324 15.100231,15.100231 0 0 1 0.002,3.5e-4 28.331693,28.331693 0 0 0 -0.191929,0.75049 28.331693,28.331693 0 0 0 -0.422884,2.79999 28.331693,28.331693 0 0 0 -0.141187,2.79828 24.218327,24.218327 0 0 1 0.143605,-0.56201 24.218327,24.218327 0 0 1 0.830237,-2.27389 24.218327,24.218327 0 0 1 1.052882,-2.17966 24.218327,24.218327 0 0 0 0,-3.5e-4 24.218327,24.218327 0 0 1 0.339335,-0.55372 15.100231,15.100231 0 0 0 0,-3.5e-4 24.218327,24.218327 0 0 1 0.925858,-1.5096 24.218327,24.218327 0 0 1 1.465058,-1.92731 24.218327,24.218327 0 0 1 1.65012,-1.77127 24.218327,24.218327 0 0 1 1.818549,-1.59763 24.218327,24.218327 0 0 1 1.969093,-1.40811 24.218327,24.218327 0 0 1 2.099895,-1.20444 24.218327,24.218327 0 0 1 2.20935,-0.98902 24.218327,24.218327 0 0 1 2.246963,-0.74669 z m -16.749638,16.72399 a 28.331693,28.331693 0 0 1 0.140499,-2.79827 28.331693,28.331693 0 0 1 0.422884,-2.8 28.331693,28.331693 0 0 0 -0.423218,2.8 28.331693,28.331693 0 0 0 -0.140165,2.79827 z m 3.503192,-13.61303 a 52.956456,52.956456 0 0 0 -0.42253,0.1405 52.956456,52.956456 0 0 0 -4.831566,2.16205 52.956456,52.956456 0 0 0 0,3.5e-4 52.956456,52.956456 0 0 0 -4.591633,2.63395 52.956456,52.956456 0 0 0 -2.293912,1.64078 15.100231,15.100231 0 0 0 -0.0033,6.7e-4 52.956456,52.956456 0 0 0 -2.009817,1.43711 52.956456,52.956456 0 0 0 -3.976812,3.49351 52.956456,52.956456 0 0 0 -3.608138,3.87326 52.956456,52.956456 0 0 0 -1.26693,1.66633 15.100231,15.100231 0 0 0 -0.274082,1.07395 h 0.002 a 8.1499283,8.1499283 0 0 1 0.66247,-0.38008 8.1499283,8.1499283 0 0 1 0.743575,-0.33278 8.1499283,8.1499283 0 0 0 -0.743575,0.33278 8.1499283,8.1499283 0 0 0 -0.66247,0.38008 15.100231,15.100231 0 0 0 -0.02452,0.0956 15.100231,15.100231 0 0 0 -0.225417,1.49269 15.100231,15.100231 0 0 0 -0.07561,1.50718 15.100231,15.100231 0 0 0 0.03801,1.06843 15.100231,15.100231 0 0 0 0.181923,1.49821 15.100231,15.100231 0 0 0 0.330356,1.47266 15.100231,15.100231 0 0 0 0.476053,1.43262 15.100231,15.100231 0 0 0 0.61655,1.37773 15.100231,15.100231 0 0 0 0.751177,1.30904 15.100231,15.100231 0 0 0 0.182263,0.2551 15.100231,15.100231 0 0 1 0.99282,-1.06601 15.100231,15.100231 0 0 1 1.133679,-0.99627 15.100231,15.100231 0 0 1 1.227564,-0.87786 15.100231,15.100231 0 0 1 1.309028,-0.75118 15.100231,15.100231 0 0 1 1.377387,-0.61654 15.100231,15.100231 0 0 1 1.432271,-0.47605 15.100231,15.100231 0 0 1 1.472326,-0.33036 15.100231,15.100231 0 0 1 1.281065,-0.15569 15.100231,15.100231 0 0 1 0.002,0 15.100231,15.100231 0 0 1 0.215404,-0.0263 15.100231,15.100231 0 0 1 0.0033,0 15.100232,15.100232 0 0 0 -0.216446,0.0263 8.1499296,8.1499296 0 0 1 0.0083,0.0673 8.1499296,8.1499296 0 0 1 0.02071,0.57649 8.1499296,8.1499296 0 0 1 -0.04075,0.81366 8.1499296,8.1499296 0 0 1 -0.10184,0.67282 v 0 a 15.100232,15.100232 0 0 0 -1.04357,0.34659 15.100232,15.100232 0 0 0 -1.377393,0.61688 15.100232,15.100232 0 0 0 -1.309382,0.75084 15.100232,15.100232 0 0 0 -1.227564,0.87786 15.100232,15.100232 0 0 0 -1.133672,0.99627 15.100232,15.100232 0 0 0 -1.028727,1.10433 15.100232,15.100232 0 0 0 -0.786381,1.03459 15.100232,15.100232 0 0 0 0.587899,0.54785 15.100232,15.100232 0 0 0 0.401815,0.30551 15.100232,15.100232 0 0 0 0.799855,0.60792 15.100232,15.100232 0 0 0 1.286597,0.78914 15.100232,15.100232 0 0 0 0.167766,0.0811 17.681665,17.681665 0 0 1 0.05317,-0.087 17.681665,17.681665 0 0 1 1.069796,-1.40674 17.681665,17.681665 0 0 1 0,-3.5e-4 17.681665,17.681665 0 0 1 1.204784,-1.29316 17.681665,17.681665 0 0 1 1.327673,-1.16646 17.681665,17.681665 0 0 1 1.437802,-1.02803 17.681665,17.681665 0 0 1 1.533077,-0.87959 17.681665,17.681665 0 0 1 1.613171,-0.72184 17.681665,17.681665 0 0 1 1.586572,-0.52748 52.956456,52.956456 0 0 1 0,-6.6e-4 17.681665,17.681665 0 0 1 0.08873,-0.0293 17.681665,17.681665 0 0 1 1.724665,-0.38698 17.681665,17.681665 0 0 1 0.467408,-0.0566 24.218327,24.218327 0 0 1 -0.0932,-0.2803 24.218327,24.218327 0 0 1 -0.135675,-0.60482 15.100232,15.100232 0 0 0 -0.431509,-0.0649 52.956456,52.956456 0 0 1 0,-3.5e-4 h -0.002 a 52.956456,52.956456 0 0 1 0.349022,-0.30689 24.218327,24.218327 0 0 1 -0.06698,-0.29757 15.100231,15.100231 0 0 1 0.212304,0.0777 15.100231,15.100231 0 0 1 0.06766,0.0328 52.956456,52.956456 0 0 0 0,-3.6e-4 v 0 a 15.100231,15.100231 0 0 0 -0.06731,-0.0325 15.100231,15.100231 0 0 0 -0.212645,-0.0777 24.218327,24.218327 0 0 1 -0.244068,-1.08742 24.218327,24.218327 0 0 1 -0.291705,-2.40334 24.218327,24.218327 0 0 1 -0.06072,-1.71294 24.218327,24.218327 0 0 1 0.121159,-2.41784 24.218327,24.218327 0 0 1 0.361433,-2.39369 24.218327,24.218327 0 0 1 0.454295,-1.78024 28.331693,28.331693 0 0 1 0,-0.003 24.218327,24.218327 0 0 0 -0.455324,1.78369 24.218327,24.218327 0 0 0 -0.361446,2.39369 24.218327,24.218327 0 0 1 0,3.5e-4 24.218327,24.218327 0 0 0 -0.121159,2.4175 24.218327,24.218327 0 0 0 0.06072,1.71294 24.218327,24.218327 0 0 1 0,3.5e-4 24.218327,24.218327 0 0 0 0.291705,2.40301 24.218327,24.218327 0 0 0 0.244068,1.0874 15.100232,15.100232 0 0 0 -0.0033,-0.001 24.218327,24.218327 0 0 1 -0.243714,-1.08603 24.218327,24.218327 0 0 1 -0.291705,-2.403 24.218327,24.218327 0 0 1 0,-3.6e-4 24.218327,24.218327 0 0 1 -0.06072,-1.71293 24.218327,24.218327 0 0 1 0.121159,-2.4175 24.218327,24.218327 0 0 1 0,-3.6e-4 24.218327,24.218327 0 0 1 0.361433,-2.39368 24.218327,24.218327 0 0 1 0.455337,-1.7837 28.331693,28.331693 0 0 1 0.140157,-2.79827 28.331693,28.331693 0 0 1 0.423225,-2.8 28.331693,28.331693 0 0 1 0.191596,-0.75082 15.100231,15.100231 0 0 0 -1.29178,-0.47156 15.100231,15.100231 0 0 0 -1.4623,-0.37352 15.100231,15.100231 0 0 0 -1.492346,-0.22542 15.100231,15.100231 0 0 1 0.0027,0 15.100231,15.100231 0 0 1 1.492327,0.22542 15.100231,15.100231 0 0 1 1.462319,0.37352 15.100231,15.100231 0 0 1 1.29178,0.47156 28.331693,28.331693 0 0 1 0.509172,-1.99325 28.331693,28.331693 0 0 1 0.971083,-2.66019 28.331693,28.331693 0 0 1 1.231698,-2.55005 28.331693,28.331693 0 0 1 0.03694,-0.0604 z m -21.025691,29.63176 a 15.100231,15.100231 0 0 1 0,3.5e-4 v 0 a 15.100231,15.100231 0 0 0 0,-3.5e-4 z M 103.65642,123.1949 a 2.7165992,2.7165992 0 0 1 0.27099,0.0135 2.7165992,2.7165992 0 0 1 0.21333,0.0325 15.100231,15.100231 0 0 0 0,3.6e-4 2.7165992,2.7165992 0 0 1 0.0518,0.008 2.7165992,2.7165992 0 0 1 0.26304,0.0673 2.7165992,2.7165992 0 0 1 0.25511,0.0929 2.7165992,2.7165992 0 0 1 0.24441,0.11806 2.7165992,2.7165992 0 0 1 0,3.6e-4 2.7165992,2.7165992 0 0 1 0.23129,0.14188 2.7165992,2.7165992 0 0 1 0.21611,0.16432 2.7165992,2.7165992 0 0 1 0.19849,0.18503 2.7165992,2.7165992 0 0 1 0.17917,0.20402 2.7165992,2.7165992 0 0 1 0.15776,0.22093 2.7165992,2.7165992 0 0 1 0.13532,0.23544 2.7165992,2.7165992 0 0 1 0.1108,0.24786 2.7165992,2.7165992 0 0 1 0.0856,0.25752 2.7165992,2.7165992 0 0 0 0,3.6e-4 2.7165992,2.7165992 0 0 1 0.059,0.26478 2.7165992,2.7165992 0 0 1 0.0325,0.2696 2.7165992,2.7165992 0 0 1 0.007,0.19194 2.7165992,2.7165992 0 0 1 0,3.5e-4 2.7165992,2.7165992 0 0 1 -0.0131,0.27099 2.7165992,2.7165992 0 0 1 0,3.6e-4 2.7165992,2.7165992 0 0 1 -0.0408,0.26823 2.7165992,2.7165992 0 0 1 -0.0345,0.13497 15.100231,15.100231 0 0 1 0,3.5e-4 15.100231,15.100231 0 0 0 0,6.7e-4 2.7165992,2.7165992 0 0 1 -0.0325,0.12704 2.7165992,2.7165992 0 0 1 -0.0932,0.25511 2.7165992,2.7165992 0 0 1 -0.11805,0.24441 2.7165992,2.7165992 0 0 1 0,3.5e-4 2.7165992,2.7165992 0 0 1 -0.14189,0.23129 2.7165992,2.7165992 0 0 1 -0.16432,0.2161 2.7165992,2.7165992 0 0 1 -0.18503,0.19884 2.7165992,2.7165992 0 0 1 -0.20401,0.17917 2.7165992,2.7165992 0 0 1 -0.22094,0.15776 2.7165992,2.7165992 0 0 1 -0.23509,0.13532 2.7165992,2.7165992 0 0 1 -0.24752,0.11081 2.7165992,2.7165992 0 0 1 -0.25752,0.0856 2.7165992,2.7165992 0 0 1 -0.26478,0.0594 2.7165992,2.7165992 0 0 1 -0.26926,0.0328 2.7165992,2.7165992 0 0 1 -0.19159,0.007 2.7165992,2.7165992 0 0 1 -0.27099,-0.0135 2.7165992,2.7165992 0 0 1 -0.26823,-0.0407 2.7165992,2.7165992 0 0 1 -0.26306,-0.0673 2.7165992,2.7165992 0 0 1 -0.25476,-0.0929 2.7165992,2.7165992 0 0 1 -0.24441,-0.11806 2.7165992,2.7165992 0 0 1 -0.14187,-0.087 2.7165992,2.7165992 0 0 1 -0.0894,-0.0549 2.7165992,2.7165992 0 0 1 0,-3.5e-4 2.7165992,2.7165992 0 0 1 -0.21576,-0.16432 2.7165992,2.7165992 0 0 1 -0.1985,-0.18503 2.7165992,2.7165992 0 0 1 -0.17952,-0.20402 2.7165992,2.7165992 0 0 1 -0.15775,-0.22094 2.7165992,2.7165992 0 0 1 -0.13533,-0.23543 2.7165992,2.7165992 0 0 1 -0.1108,-0.24786 2.7165992,2.7165992 0 0 1 -0.0853,-0.25753 2.7165992,2.7165992 0 0 1 -0.0594,-0.26512 2.7165992,2.7165992 0 0 1 -0.0328,-0.2696 2.7165992,2.7165992 0 0 1 -0.007,-0.19229 2.7165992,2.7165992 0 0 1 0.0131,-0.27099 2.7165992,2.7165992 0 0 1 0.0408,-0.26823 2.7165992,2.7165992 0 0 1 0,-3.5e-4 2.7165992,2.7165992 0 0 1 0.0673,-0.26305 2.7165992,2.7165992 0 0 1 0.0929,-0.25511 2.7165992,2.7165992 0 0 1 0.1184,-0.24441 2.7165992,2.7165992 0 0 1 0.14189,-0.23164 2.7165992,2.7165992 0 0 1 0.1643,-0.21609 2.7165992,2.7165992 0 0 1 0.18504,-0.19885 2.7165992,2.7165992 0 0 1 0.20403,-0.17916 2.7165992,2.7165992 0 0 1 0.22093,-0.15776 2.7165992,2.7165992 0 0 1 0.23543,-0.13532 2.7165992,2.7165992 0 0 1 0.24787,-0.11081 2.7165992,2.7165992 0 0 1 0.25753,-0.0856 2.7165992,2.7165992 0 0 1 0.26478,-0.0594 2.7165992,2.7165992 0 0 1 0.26926,-0.0328 2.7165992,2.7165992 0 0 1 0.19228,-0.007 z m 9.68347,8.08378 a 15.100231,15.100231 0 0 0 0.8109,0.20712 15.100231,15.100231 0 0 1 -0.8109,-0.20678 15.100231,15.100231 0 0 1 0,-3.5e-4 z m -28.927897,1.17095 a 24.218327,24.218327 0 0 0 -0.454288,1.78025 24.218327,24.218327 0 0 0 -0.361433,2.39368 24.218327,24.218327 0 0 0 -0.121159,2.41785 24.218327,24.218327 0 0 0 0.06072,1.71293 24.218327,24.218327 0 0 0 0.291705,2.40335 24.218327,24.218327 0 0 0 0.244068,1.08741 15.100231,15.100231 0 0 1 0.212645,0.0777 15.100231,15.100231 0 0 1 0.06697,0.0321 52.956456,52.956456 0 0 1 1.532381,-1.34632 52.956456,52.956456 0 0 0 -1.532047,1.347 15.100232,15.100232 0 0 1 1.291439,0.6238 15.100232,15.100232 0 0 1 1.001806,0.61412 15.100232,15.100232 0 0 1 0.04489,0.0166 17.681665,17.681665 0 0 1 0.297911,-0.0107 17.681665,17.681665 0 0 1 0.68076,0.0342 28.331693,28.331693 0 0 1 -0.175369,-0.30584 28.331693,28.331693 0 0 1 -1.156799,-2.58493 28.331693,28.331693 0 0 1 -0.01557,-0.0463 28.331693,28.331693 0 0 1 0,-3.5e-4 28.331693,28.331693 0 0 1 -0.877533,-2.64086 28.331693,28.331693 0 0 1 -0.620325,-2.7634 28.331693,28.331693 0 0 1 -0.340738,-2.81139 28.331693,28.331693 0 0 1 -0.0711,-2.00394 28.331693,28.331693 0 0 1 0.002,-0.0269 z m -0.06039,11.90594 a 52.956456,52.956456 0 0 1 0,-3.6e-4 15.100232,15.100232 0 0 1 0,3.6e-4 z m -0.130471,0.55924 a 24.218327,24.218327 0 0 0 0.135655,0.6048 24.218327,24.218327 0 0 0 0.09322,0.28031 17.681665,17.681665 0 0 1 1.286931,-0.15638 17.681665,17.681665 0 0 1 0.934836,-0.0331 15.100232,15.100232 0 0 0 -0.02766,-0.0169 v 0 a 15.100232,15.100232 0 0 0 -0.748752,-0.2734 15.100232,15.100232 0 0 0 -1.462326,-0.37282 15.100232,15.100232 0 0 0 0,-3.5e-4 15.100232,15.100232 0 0 0 -0.211596,-0.0321 z m -9.257837,4.46183 a 8.1499296,8.1499296 0 0 1 -0.287216,0.30862 8.1499296,8.1499296 0 0 0 0.28757,-0.30862 z m -3.012303,2.05814 a 8.1499296,8.1499296 0 0 0 0,3.5e-4 8.1499296,8.1499296 0 0 1 -0.580297,0.19263 8.1499296,8.1499296 0 0 0 0.579956,-0.19298 z"
       id="path3925-8" />
    <path
       inkscape:connector-curvature="0"
       style="opacity:1;fill:url(#linearGradient5239-8);fill-opacity:1;stroke:none;stroke-width:0.26458332;stroke-linecap:round;stroke-linejoin:miter;stroke-miterlimit:4;stroke-dasharray:0.26458333, 0.26458333;stroke-dashoffset:0;stroke-opacity:1;paint-order:markers fill stroke"
       d="m 136.47651,146.64444 a 52.956456,52.956456 0 0 0 -3.44243,0.12186 52.956456,52.956456 0 0 0 -0.8147,0.0987 v 0 a 52.956456,52.956456 0 0 0 -4.00064,0.48571 72.340961,72.340961 0 0 0 -2.40474,3.92227 72.340961,72.340961 0 0 0 -1.88103,3.89397 72.340954,72.340954 0 0 0 -1.26415,2.61737 72.340954,72.340954 0 0 0 -2.47964,6.7927 72.340954,72.340954 0 0 0 0,3.5e-4 72.340954,72.340954 0 0 0 -1.78888,7.00604 72.340954,72.340954 0 0 0 -0.19195,1.27037 72.340954,72.340954 0 0 0 -0.88892,5.87928 72.340954,72.340954 0 0 0 -0.36109,7.22212 72.340954,72.340954 0 0 0 0.18123,5.11739 72.340954,72.340954 0 0 0 0.87132,7.17829 72.340954,72.340954 0 0 0 1.58348,7.0554 72.340954,72.340954 0 0 0 0.26512,0.79743 2.7165992,2.7165992 0 0 1 0.0456,0.003 2.7165992,2.7165992 0 0 1 0.10562,0.0162 61.897716,61.897716 0 0 0 2.58149,-1.15541 61.897716,61.897716 0 0 0 5.36697,-3.07858 61.897716,61.897716 0 0 0 2.79103,-1.996 v 0 a 72.340954,72.340954 0 0 1 -0.0466,-0.14085 72.340954,72.340954 0 0 1 -1.58382,-7.05539 72.340954,72.340954 0 0 1 0,-3.6e-4 72.340954,72.340954 0 0 1 -0.8713,-7.17829 72.340954,72.340954 0 0 1 -0.18125,-5.11705 72.340954,72.340954 0 0 1 0.12116,-2.41784 72.340954,72.340954 0 0 1 0.24028,-4.80428 72.340954,72.340954 0 0 1 1.08084,-7.14965 72.340954,72.340954 0 0 1 0,-3.5e-4 72.340954,72.340954 0 0 1 1.78888,-7.00604 72.340954,72.340954 0 0 1 2.47964,-6.79269 72.340954,72.340954 0 0 1 2.69782,-5.58515 z m -7.23836,4.02271 a 28.331693,28.331693 0 0 1 -0.99904,1.07292 28.331693,28.331693 0 0 0 0.99939,-1.07292 z m 1.51202,49.22554 a 61.897716,61.897716 0 0 1 -2.79067,1.99566 61.897716,61.897716 0 0 1 -5.36699,3.07857 61.897716,61.897716 0 0 1 -2.58148,1.15542 2.7165992,2.7165992 0 0 1 0.16226,0.0245 2.7165992,2.7165992 0 0 1 0.26305,0.067 2.7165992,2.7165992 0 0 1 0.25512,0.0932 2.7165992,2.7165992 0 0 1 0.2444,0.11807 2.7165992,2.7165992 0 0 1 0.23163,0.14188 2.7165992,2.7165992 0 0 1 0.21611,0.16432 2.7165992,2.7165992 0 0 1 0.13773,0.12911 15.100232,15.100232 0 0 1 0.30725,-0.2199 15.100232,15.100232 0 0 1 1.30937,-0.75084 15.100232,15.100232 0 0 1 0,-3.5e-4 15.100232,15.100232 0 0 1 1.37773,-0.61654 15.100232,15.100232 0 0 1 1.43228,-0.47604 15.100232,15.100232 0 0 1 1.47265,-0.33037 15.100232,15.100232 0 0 1 1.49856,-0.18192 15.100232,15.100232 0 0 1 1.06808,-0.0379 15.100232,15.100232 0 0 1 0.86614,0.0435 15.100233,15.100233 0 0 1 0.64139,0.0321 15.100233,15.100233 0 0 1 0.76601,0.11565 72.340968,72.340968 0 0 1 -0.33,-0.99282 72.340954,72.340954 0 0 1 -1.18062,-3.55221 z"
       id="path3785-3" />
    <path
       inkscape:connector-curvature="0"
       style="opacity:1;fill:url(#linearGradient5237-8);fill-opacity:1;stroke:none;stroke-width:0.26458332;stroke-linecap:round;stroke-linejoin:miter;stroke-miterlimit:4;stroke-dasharray:0.26458333, 0.26458333;stroke-dashoffset:0;stroke-opacity:1;paint-order:markers fill stroke"
       d="m 131.39987,147.70423 a 52.956456,52.956456 0 0 0 -0.4398,0.0535 52.956456,52.956456 0 0 0 -2.26353,0.50815 52.956456,52.956456 0 0 0 -2.90115,0.65106 52.956456,52.956456 0 0 0 -5.0235,1.6691 52.956456,52.956456 0 0 0 -4.83154,2.16239 52.956456,52.956456 0 0 0 -4.59163,2.63395 52.956456,52.956456 0 0 0 -4.30579,3.07892 52.956456,52.956456 0 0 0 -1.17062,1.02908 52.956456,52.956456 0 0 0 -2.30014,2.02086 17.681665,17.681665 0 0 1 0.0293,0.82781 17.681665,17.681665 0 0 1 0.008,0.23508 17.681665,17.681665 0 0 1 -0.0884,1.76506 17.681665,17.681665 0 0 0 0,3.5e-4 17.681665,17.681665 0 0 1 -0.26408,1.74745 17.681665,17.681665 0 0 1 -0.43704,1.71224 17.681665,17.681665 0 0 0 0,3.6e-4 17.681665,17.681665 0 0 1 -0.60619,1.66011 17.681665,17.681665 0 0 1 -0.7688,1.59142 17.681665,17.681665 0 0 1 -0.92376,1.50685 17.681665,17.681665 0 0 1 -1.069463,1.40707 17.681665,17.681665 0 0 1 -1.20478,1.29316 17.681665,17.681665 0 0 0 0,3.5e-4 17.681665,17.681665 0 0 1 -0.70699,0.62069 17.681665,17.681665 0 0 1 -0.62069,0.54543 17.681665,17.681665 0 0 1 -1.437467,1.02804 17.681665,17.681665 0 0 0 0,3.5e-4 17.681665,17.681665 0 0 1 -0.653465,0.37489 17.681665,17.681665 0 0 1 -0.87925,0.50437 17.681665,17.681665 0 0 1 -1.613172,0.72183 17.681665,17.681665 0 0 1 -1.196493,0.39734 52.956456,52.956456 0 0 0 -1.767472,4.84225 52.956456,52.956456 0 0 0 -0.796054,3.11656 28.331693,28.331693 0 0 0 -0.002,0.003 28.331693,28.331693 0 0 1 0,3.5e-4 52.956456,52.956456 0 0 0 -0.512994,2.00911 52.956456,52.956456 0 0 0 0,3.6e-4 52.956456,52.956456 0 0 0 -0.790871,5.23338 52.956456,52.956456 0 0 0 0,3.5e-4 52.956456,52.956456 0 0 0 -0.26477,5.28655 52.956456,52.956456 0 0 0 0,3.5e-4 52.956456,52.956456 0 0 0 0.132896,3.74587 52.956456,52.956456 0 0 0 0,3.5e-4 52.956456,52.956456 0 0 0 0.218864,1.80269 28.331693,28.331693 0 0 1 0.420466,0.021 61.897714,61.897714 0 0 0 -0.41253,0.05 52.956456,52.956456 0 0 0 0.410112,3.38065 52.956456,52.956456 0 0 0 0.519547,2.31325 61.897716,61.897716 0 0 0 0.817792,0.12392 61.897716,61.897716 0 0 0 2.405425,0.36351 61.897716,61.897716 0 0 0 6.179266,0.30931 61.897716,61.897716 0 0 0 4.378643,-0.15535 61.897716,61.897716 0 0 0 2.01015,-0.24406 61.897716,61.897716 0 0 0 4.13045,-0.50124 61.897716,61.897716 0 0 0 6.03701,-1.3553 61.897716,61.897716 0 0 0 4.1667,-1.38428 61.897714,61.897714 0 0 0 -2.58804,-0.94485 61.897714,61.897714 0 0 0 -5.99457,-1.53066 61.897714,61.897714 0 0 1 0.002,0 61.897714,61.897714 0 0 1 5.99457,1.53066 61.897714,61.897714 0 0 1 2.58803,0.94485 61.897716,61.897716 0 0 0 1.705,-0.56649 61.897716,61.897716 0 0 0 0.42944,-0.19229 2.7165992,2.7165992 0 0 1 0.0162,-0.0266 2.7165992,2.7165992 0 0 1 0.0217,-0.0283 2.7165992,2.7165992 0 0 1 0,-3.5e-4 2.7165992,2.7165992 0 0 1 0.14257,-0.1871 2.7165992,2.7165992 0 0 1 0,-3.6e-4 2.7165992,2.7165992 0 0 1 0.18538,-0.19849 2.7165992,2.7165992 0 0 1 0,-3.6e-4 2.7165992,2.7165992 0 0 1 0.20402,-0.17916 2.7165992,2.7165992 0 0 1 0.22058,-0.15811 2.7165992,2.7165992 0 0 1 0.23578,-0.13497 2.7165992,2.7165992 0 0 1 0.24787,-0.11082 2.7165992,2.7165992 0 0 1 0.25752,-0.0856 2.7165992,2.7165992 0 0 1 0.26512,-0.0597 2.7165992,2.7165992 0 0 1 0.26961,-0.0328 2.7165992,2.7165992 0 0 1 0.19193,-0.007 2.7165992,2.7165992 0 0 1 0.22578,0.011 72.340948,72.340948 0 0 1 -0.26512,-0.79743 72.340948,72.340948 0 0 1 -1.58349,-7.0554 72.340948,72.340948 0 0 1 -0.8713,-7.17829 72.340948,72.340948 0 0 1 -0.18124,-5.11739 72.340948,72.340948 0 0 1 0.3611,-7.22213 72.340948,72.340948 0 0 1 0.88891,-5.87927 28.331693,28.331693 0 0 0 -2.05953,-0.52575 28.331693,28.331693 0 0 1 0.002,0 28.331693,28.331693 0 0 1 2.05952,0.52575 72.340948,72.340948 0 0 1 0.19194,-1.27037 72.340948,72.340948 0 0 1 1.78888,-7.00604 72.340948,72.340948 0 0 0 0,-3.5e-4 72.340948,72.340948 0 0 1 2.47964,-6.79269 72.340948,72.340948 0 0 1 1.26415,-2.61739 h -0.002 a 72.340954,72.340954 0 0 1 1.88103,-3.89395 72.340954,72.340954 0 0 1 2.40474,-3.92228 z m -25.34668,11.8324 a 28.331693,28.331693 0 0 0 2.8,0.42324 28.331693,28.331693 0 0 1 -2.8,-0.42289 28.331693,28.331693 0 0 1 0,-3.5e-4 z m 4.69486,2.66365 a 24.218327,24.218327 0 0 0 0,3.5e-4 24.218327,24.218327 0 0 0 0,-3.5e-4 z m -7.92981,0.0207 a 52.956456,52.956456 0 0 0 -3.360633,3.60709 52.956456,52.956456 0 0 0 -3.20355,4.21398 52.956456,52.956456 0 0 0 -2.766501,4.51293 52.956456,52.956456 0 0 0 -2.302537,4.76631 52.956456,52.956456 0 0 0 -0.04763,0.13015 17.681665,17.681665 0 0 0 1.196507,-0.39734 17.681665,17.681665 0 0 0 1.613159,-0.72183 17.681665,17.681665 0 0 0 0.879243,-0.50436 17.681665,17.681665 0 0 0 0.653492,-0.37489 17.681665,17.681665 0 0 0 0,-3.6e-4 17.681665,17.681665 0 0 0 1.437447,-1.02804 17.681665,17.681665 0 0 0 0.62069,-0.54542 17.681665,17.681665 0 0 0 0.70699,-0.62104 17.681665,17.681665 0 0 0 1.20478,-1.29315 17.681665,17.681665 0 0 0 1.069463,-1.40707 17.681665,17.681665 0 0 0 0.92378,-1.50685 17.681665,17.681665 0 0 0 0.76879,-1.59142 17.681665,17.681665 0 0 0 0.60619,-1.66011 17.681665,17.681665 0 0 0 0,-3.6e-4 17.681665,17.681665 0 0 0 0.43703,-1.71224 17.681665,17.681665 0 0 0 0.2641,-1.74745 17.681665,17.681665 0 0 0 0,-3.6e-4 17.681665,17.681665 0 0 0 0.0884,-1.76506 17.681665,17.681665 0 0 0 -0.008,-0.23509 24.218327,24.218327 0 0 1 -0.78088,-0.11806 z"
       id="path3797-3" />
    <path
       inkscape:connector-curvature="0"
       style="opacity:1;fill:url(#linearGradient5221-1);fill-opacity:1;stroke:none;stroke-width:0.26458332;stroke-linecap:round;stroke-linejoin:miter;stroke-miterlimit:4;stroke-dasharray:0.26458333, 0.26458333;stroke-dashoffset:0;stroke-opacity:1;paint-order:markers fill stroke"
       d="m 131.35845,141.61646 a 72.340954,72.340954 0 0 0 -4.39244,0.15569 72.340954,72.340954 0 0 0 -7.17829,0.87131 72.340954,72.340954 0 0 0 -7.0554,1.58383 72.340954,72.340954 0 0 0 -6.86207,2.2801 72.340954,72.340954 0 0 0 0,3.5e-4 72.340941,72.340941 0 0 0 -6.600413,2.95361 72.340954,72.340954 0 0 0 -0.7322,0.41978 17.681665,17.681665 0 0 1 0,3.5e-4 72.340921,72.340921 0 0 0 -4.158386,2.38574 h -0.002 a 72.340934,72.340934 0 0 0 -1.162658,0.66695 72.340928,72.340928 0 0 0 -0.217828,0.12497 72.340928,72.340928 0 0 0 -0.531285,0.37973 15.100229,15.100229 0 0 1 0.132917,0.3994 15.100229,15.100229 0 0 1 0,3.6e-4 15.100229,15.100229 0 0 1 0.330356,1.47266 15.100229,15.100229 0 0 1 0.181929,1.49821 15.100229,15.100229 0 0 1 0.03794,1.06808 15.100229,15.100229 0 0 1 -0.01971,0.39251 24.218327,24.218327 0 0 0 0.534377,0.40631 24.218327,24.218327 0 0 0 2.063668,1.26519 24.218327,24.218327 0 0 0 0.41426,0.19988 24.218327,24.218327 0 0 0 1.76574,0.85301 24.218327,24.218327 0 0 0 2.273893,0.83023 24.218327,24.218327 0 0 0 2.34538,0.59894 24.218327,24.218327 0 0 0 0.998,0.15085 52.956456,52.956456 0 0 1 0.24785,-0.26615 52.956456,52.956456 0 0 1 0.50471,-0.44359 v 0 a 17.681665,17.681665 0 0 0 -0.007,-0.1878 17.681665,17.681665 0 0 1 0.007,0.18745 52.956456,52.956456 0 0 0 0,3.5e-4 52.956456,52.956456 0 0 1 2.30047,-2.02085 v 0 a 52.956456,52.956456 0 0 1 1.17095,-1.02907 52.956456,52.956456 0 0 1 4.3058,-3.07893 52.956456,52.956456 0 0 1 4.59162,-2.63395 52.956456,52.956456 0 0 1 4.83156,-2.16239 52.956456,52.956456 0 0 1 5.02348,-1.66909 52.956456,52.956456 0 0 1 2.90115,-0.65107 24.218327,24.218327 0 0 0 0.24166,-0.5002 24.218327,24.218327 0 0 0 0.82988,-2.2739 24.218327,24.218327 0 0 1 0,-3.6e-4 24.218327,24.218327 0 0 0 0.59892,-2.34535 24.218327,24.218327 0 0 1 0,-3.5e-4 24.218327,24.218327 0 0 0 0.28446,-1.88242 24.218327,24.218327 0 0 1 0,-3.6e-4 z m -38.228873,16.65361 a 15.10023,15.10023 0 0 0 0.01964,-0.39251 15.10023,15.10023 0 0 0 -0.03801,-1.06808 15.10023,15.10023 0 0 0 -0.181922,-1.49821 15.10023,15.10023 0 0 0 -0.330364,-1.47266 15.10023,15.10023 0 0 1 0,-3.6e-4 15.10023,15.10023 0 0 0 -0.132909,-0.3994 72.340941,72.340941 0 0 0 -2.68055,1.91695 24.218327,24.218327 0 0 0 0.180212,0.20505 24.218327,24.218327 0 0 0 0,3.6e-4 24.218327,24.218327 0 0 0 1.770918,1.6501 24.218327,24.218327 0 0 0 1.392217,1.05876 15.100228,15.100228 0 0 1 -0.05591,1.11502 15.100228,15.100228 0 0 0 0,3.5e-4 15.100228,15.100228 0 0 1 -0.225417,1.49235 15.100228,15.100228 0 0 1 -0.373524,1.4623 15.100228,15.100228 0 0 1 -0.517463,1.41778 15.100228,15.100228 0 0 1 -0.656599,1.35909 15.100228,15.100228 0 0 0 0,3.5e-4 15.100228,15.100228 0 0 1 -0.788786,1.28659 15.100228,15.100228 0 0 0 0,3.6e-4 15.100228,15.100228 0 0 1 -0.913433,1.20133 15.100228,15.100228 0 0 0 0,3.5e-4 15.100228,15.100228 0 0 1 -1.02908,1.10399 15.100228,15.100228 0 0 0 0,3.4e-4 15.100228,15.100228 0 0 1 -1.134007,0.99594 15.100228,15.100228 0 0 0 1.133673,-0.99628 15.100228,15.100228 0 0 0 1.02906,-1.10398 15.100228,15.100228 0 0 0 0,-3.5e-4 15.100228,15.100228 0 0 0 0.913433,-1.20134 15.100228,15.100228 0 0 0 0,-3.4e-4 15.100228,15.100228 0 0 0 0.788806,-1.28661 15.100228,15.100228 0 0 0 0,-3.5e-4 15.100228,15.100228 0 0 0 0.656579,-1.35909 15.100228,15.100228 0 0 0 0.517483,-1.41778 15.100228,15.100228 0 0 0 0.373517,-1.46229 15.100228,15.100228 0 0 0 0.225411,-1.49234 15.100228,15.100228 0 0 0 0,-3.6e-4 15.100228,15.100228 0 0 0 0.05591,-1.11503 24.218327,24.218327 0 0 1 -1.392912,-1.05876 24.218327,24.218327 0 0 1 -1.770925,-1.6501 24.218327,24.218327 0 0 0 0,-3.5e-4 24.218327,24.218327 0 0 1 -0.180205,-0.20506 72.340921,72.340921 0 0 0 -2.669842,1.90936 72.340921,72.340921 0 0 0 -5.432224,4.77253 72.340921,72.340921 0 0 0 -4.928904,5.29068 72.340921,72.340921 0 0 0 -3.648526,4.79946 v 0 a 72.340921,72.340921 0 0 0 -0.03454,0.0452 72.340921,72.340921 0 0 0 -0.693186,0.91204 72.340921,72.340921 0 0 0 -0.08802,0.14327 17.681665,17.681665 0 0 0 0,6.7e-4 72.340921,72.340921 0 0 0 -3.691334,6.0208 72.340921,72.340921 0 0 0 -3.055116,6.32424 52.956456,52.956456 0 0 0 0.08182,2.3091 52.956456,52.956456 0 0 0 0.637954,5.25479 52.956456,52.956456 0 0 0 0,3.5e-4 52.956456,52.956456 0 0 0 1.159211,5.16468 52.956456,52.956456 0 0 0 1.669099,5.0235 52.956456,52.956456 0 0 0 0.958644,2.14202 v 0 a 61.897716,61.897716 0 0 0 4.250915,2.05297 61.897716,61.897716 0 0 0 1.667362,0.60859 28.331693,28.331693 0 0 1 0.904788,-0.40492 28.331693,28.331693 0 0 1 2.687458,-0.89272 28.331693,28.331693 0 0 1 2.762703,-0.62033 28.331693,28.331693 0 0 1 0.002,0 28.331693,28.331693 0 0 0 -2.762717,0.62033 28.331693,28.331693 0 0 0 -2.687444,0.89272 28.331693,28.331693 0 0 1 0,3.5e-4 28.331693,28.331693 0 0 0 -0.904454,0.40493 61.897716,61.897716 0 0 0 1.555855,0.56753 61.897714,61.897714 0 0 0 0,3.4e-4 61.897716,61.897716 0 0 0 2.588043,0.94485 61.897716,61.897716 0 0 0 5.994899,1.53066 61.897716,61.897716 0 0 0 2.083004,0.31483 61.897716,61.897716 0 0 0 0.811232,0.12255 52.956456,52.956456 0 0 1 -0.519527,-2.31326 52.956456,52.956456 0 0 1 -0.410111,-3.38063 61.897714,61.897714 0 0 0 -0.343824,0.0418 61.897714,61.897714 0 0 0 -1.106759,0.2482 28.331693,28.331693 0 0 1 -0.08664,-0.38594 28.331693,28.331693 0 0 0 -0.002,0 28.331693,28.331693 0 0 1 -0.04556,-0.20367 28.331693,28.331693 0 0 1 -0.341406,-2.81105 28.331693,28.331693 0 0 1 0,-3.5e-4 28.331693,28.331693 0 0 1 -0.07112,-2.0043 28.331693,28.331693 0 0 1 0.14154,-2.82829 28.331693,28.331693 0 0 1 0.423239,-2.8 28.331693,28.331693 0 0 1 0,-3.5e-4 28.331693,28.331693 0 0 1 0.700768,-2.74373 28.331693,28.331693 0 0 1 0.971069,-2.66018 28.331693,28.331693 0 0 1 0,-3.6e-4 28.331693,28.331693 0 0 1 0.966935,-2.00186 28.331693,28.331693 0 0 1 0,-3.6e-4 52.956456,52.956456 0 0 1 0.796762,-3.11966 52.956456,52.956456 0 0 1 1.767472,-4.84226 52.956456,52.956456 0 0 1 0.04763,-0.13014 52.956456,52.956456 0 0 1 2.302543,-4.76631 52.956456,52.956456 0 0 1 2.766516,-4.51294 52.956456,52.956456 0 0 1 3.203553,-4.21397 52.956456,52.956456 0 0 1 3.36061,-3.6071 24.218327,24.218327 0 0 1 -0.99799,-0.15085 24.218327,24.218327 0 0 1 -2.34537,-0.59894 24.218327,24.218327 0 0 1 -2.273893,-0.83023 24.218327,24.218327 0 0 1 -1.76505,-0.85267 15.100228,15.100228 0 0 0 0,-3.6e-4 24.218327,24.218327 0 0 1 -0.41426,-0.19987 24.218327,24.218327 0 0 1 -2.06367,-1.26519 24.218327,24.218327 0 0 1 -0.533689,-0.40632 z m -6.594889,47.55125 a 28.331693,28.331693 0 0 1 0.604125,-0.0214 28.331693,28.331693 0 0 1 0.924462,0.0463 52.956456,52.956456 0 0 1 -0.218851,-1.80268 52.956456,52.956456 0 0 0 0,-3.6e-4 52.956456,52.956456 0 0 1 -0.132916,-3.74587 52.956456,52.956456 0 0 0 0,-3.5e-4 52.956456,52.956456 0 0 1 0.264783,-5.28654 52.956456,52.956456 0 0 0 0,-3.6e-4 52.956456,52.956456 0 0 1 0.790878,-5.23338 52.956456,52.956456 0 0 0 0,-3.5e-4 52.956456,52.956456 0 0 1 0.512974,-2.00912 28.331693,28.331693 0 0 0 -0.966935,2.00187 28.331693,28.331693 0 0 1 0,3.5e-4 28.331693,28.331693 0 0 0 -0.971063,2.66019 28.331693,28.331693 0 0 0 -0.700788,2.74372 28.331693,28.331693 0 0 1 0,3.5e-4 28.331693,28.331693 0 0 0 -0.423225,2.8 28.331693,28.331693 0 0 0 -0.141533,2.8283 28.331693,28.331693 0 0 0 0.07112,2.00428 28.331693,28.331693 0 0 1 0,3.6e-4 28.331693,28.331693 0 0 0 0.341406,2.81104 28.331693,28.331693 0 0 0 0.04556,0.20367 z m -0.327952,-35.23729 a 15.100228,15.100228 0 0 0 0,3.5e-4 15.100228,15.100228 0 0 1 -0.831948,0.47708 15.100228,15.100228 0 0 0 0.831594,-0.47741 z m -4.119028,1.84344 a 15.100228,15.100228 0 0 0 0,3.5e-4 15.100228,15.100228 0 0 1 -1.202712,0.26996 15.100228,15.100228 0 0 0 1.202378,-0.27031 z m 9.274397,7.5373 a 17.681665,17.681665 0 0 0 0,3.6e-4 17.681665,17.681665 0 0 1 -1.40845,0.31587 17.681665,17.681665 0 0 0 1.407762,-0.31622 z"
       id="path3671-3" />
    <path
       inkscape:connector-curvature="0"
       style="opacity:1;fill:url(#linearGradient13004);fill-opacity:1;stroke:none;stroke-width:0.26458332;stroke-linecap:round;stroke-linejoin:miter;stroke-miterlimit:4;stroke-dasharray:0.26458333, 0.26458333;stroke-dashoffset:0;stroke-opacity:1;paint-order:markers fill stroke"
       d="m 133.45007,115.49134 a 15.100232,15.100232 0 0 1 -0.1184,0.78363 15.100232,15.100232 0 0 1 -0.15397,0.60307 15.100231,15.100231 0 0 1 -0.21956,0.85923 15.100231,15.100231 0 0 0 0,3.6e-4 15.100231,15.100231 0 0 1 -0.51746,1.41777 15.100231,15.100231 0 0 1 -0.6566,1.35909 15.100231,15.100231 0 0 1 -0.78914,1.2866 15.100231,15.100231 0 0 1 -0.18917,0.2489 15.100231,15.100231 0 0 1 -0.18193,0.49848 52.956456,52.956456 0 0 0 -0.14396,-0.0697 15.100233,15.100233 0 0 1 -0.39837,0.52403 15.100233,15.100233 0 0 1 -1.02872,1.10432 15.100233,15.100233 0 0 0 0,3.6e-4 15.100233,15.100233 0 0 1 -0.60343,0.53024 15.100233,15.100233 0 0 1 -0.53024,0.46568 15.100233,15.100233 0 0 0 0,3.6e-4 15.100233,15.100233 0 0 1 -0.71595,0.5116 15.100233,15.100233 0 0 1 -0.51162,0.36627 15.100233,15.100233 0 0 1 -0.36972,0.21196 24.218327,24.218327 0 0 1 0.33589,0.46982 24.218327,24.218327 0 0 1 0.7101,1.23793 15.100231,15.100231 0 0 1 0,3.5e-4 24.218327,24.218327 0 0 1 0.49435,0.86165 24.218327,24.218327 0 0 1 0.98902,2.20934 24.218327,24.218327 0 0 1 0.76327,2.29737 24.218327,24.218327 0 0 1 0.11011,0.49054 24.218327,24.218327 0 0 1 0.42013,1.87173 24.218327,24.218327 0 0 1 0.2917,2.403 24.218327,24.218327 0 0 1 0.0604,1.71328 24.218327,24.218327 0 0 1 -0.0735,1.46921 15.100231,15.100231 0 0 0 0.002,0 24.218327,24.218327 0 0 1 -0.0476,0.94864 24.218327,24.218327 0 0 1 -0.0773,0.51056 72.340954,72.340954 0 0 0 -0.002,0 24.218327,24.218327 0 0 1 0,3.6e-4 24.218327,24.218327 0 0 1 -0.28445,1.88243 24.218327,24.218327 0 0 1 0,3.4e-4 24.218327,24.218327 0 0 1 -0.59893,2.34536 24.218327,24.218327 0 0 1 0,3.6e-4 24.218327,24.218327 0 0 1 -0.82989,2.27389 24.218327,24.218327 0 0 1 -0.24165,0.50021 52.956456,52.956456 0 0 1 2.26354,-0.50815 52.956456,52.956456 0 0 1 0.4398,-0.0535 52.956456,52.956456 0 0 1 4.00064,-0.4857 28.331693,28.331693 0 0 0 1.14437,-1.86587 28.331693,28.331693 0 0 0 1.2317,-2.55006 28.331693,28.331693 0 0 0 0.44636,-1.22239 28.331693,28.331693 0 0 0 0.52473,-1.43813 28.331693,28.331693 0 0 0 0.70076,-2.74374 28.331693,28.331693 0 0 0 0.028,-0.18365 v 0 a 15.100231,15.100231 0 0 1 -0.0138,0.0104 72.340954,72.340954 0 0 0 -2.31083,2.48033 72.340954,72.340954 0 0 0 -1.33389,1.75435 72.340954,72.340954 0 0 1 1.33354,-1.75435 72.340954,72.340954 0 0 1 2.3098,-2.4793 15.100231,15.100231 0 0 1 -0.27445,0.19643 15.100231,15.100231 0 0 1 -1.30938,0.75083 15.100231,15.100231 0 0 1 -1.37773,0.61655 15.100231,15.100231 0 0 1 -1.43227,0.47604 15.100231,15.100231 0 0 1 -1.47266,0.33071 15.100231,15.100231 0 0 1 -0.002,0 15.100231,15.100231 0 0 0 1.47264,-0.33071 15.100231,15.100231 0 0 0 1.43229,-0.47604 15.100231,15.100231 0 0 0 1.37774,-0.61655 15.100231,15.100231 0 0 0 1.30938,-0.75083 15.100231,15.100231 0 0 0 0.27548,-0.19712 72.340954,72.340954 0 0 1 0.0156,-0.0166 72.340954,72.340954 0 0 1 0,-3.6e-4 72.340954,72.340954 0 0 1 0,-3.5e-4 28.331693,28.331693 0 0 0 0.23439,-1.5493 h 0.002 a 28.331693,28.331693 0 0 0 0.16017,-1.06083 28.331693,28.331693 0 0 0 0.14153,-2.8283 28.331693,28.331693 0 0 0 -0.0711,-2.00429 28.331693,28.331693 0 0 0 -0.33243,-2.74166 28.331693,28.331693 0 0 0 0,-3.5e-4 28.331693,28.331693 0 0 0 -0.009,-0.0694 28.331693,28.331693 0 0 0 -0.62032,-2.76306 28.331693,28.331693 0 0 0 -0.89307,-2.68746 28.331693,28.331693 0 0 0 -1.1568,-2.58493 28.331693,28.331693 0 0 0 -1.21203,-2.11337 28.331693,28.331693 0 0 0 -0.1971,-0.34349 28.331693,28.331693 0 0 0 -1.64735,-2.30358 28.331693,28.331693 0 0 0 -0.0708,-0.0808 z"
       id="path3783-8" />
    <path
       inkscape:connector-curvature="0"
       style="opacity:1;fill:#000000;fill-opacity:1;stroke:none;stroke-width:0.26458332;stroke-linecap:round;stroke-linejoin:miter;stroke-miterlimit:4;stroke-dasharray:0.26458333, 0.26458333;stroke-dashoffset:0;stroke-opacity:1;paint-order:markers fill stroke"
       d="m 131.02671,111.02985 a 15.100232,15.100232 0 0 0 -0.67247,0.0239 15.100232,15.100232 0 0 1 0.46292,1.03459 15.100232,15.100232 0 0 1 0.12013,0.36108 28.331693,28.331693 0 0 1 1.06773,0.99525 28.331693,28.331693 0 0 1 1.79819,2.04674 15.100232,15.100232 0 0 0 0.10703,-0.70871 15.100232,15.100232 0 0 0 0.0756,-1.50753 15.100232,15.100232 0 0 0 -0.038,-1.06808 15.100232,15.100232 0 0 0 -0.10978,-0.90445 15.100232,15.100232 0 0 0 -1.3042,-0.19745 15.100232,15.100232 0 0 0 -1.50753,-0.0753 z m 0.97831,2.41474 a 28.331693,28.331693 0 0 0 -1.06773,-0.99489 15.100232,15.100232 0 0 0 0,-3.6e-4 28.331693,28.331693 0 0 0 -1.00387,-0.93518 28.331693,28.331693 0 0 0 -0.5033,-0.38248 15.100232,15.100232 0 0 0 -0.97005,0.11771 15.100232,15.100232 0 0 0 -1.47266,0.33072 15.100232,15.100232 0 0 1 0,3.5e-4 15.100232,15.100232 0 0 0 -1.07533,0.35694 15.100232,15.100232 0 0 0 -0.35696,0.11876 15.100232,15.100232 0 0 0 -0.64622,0.28928 15.100232,15.100232 0 0 0 -0.73082,0.32726 15.100232,15.100232 0 0 0 -1.30937,0.75083 15.100232,15.100232 0 0 1 0,3.5e-4 15.100232,15.100232 0 0 0 -0.71597,0.5116 15.100232,15.100232 0 0 0 -0.5116,0.36627 15.100232,15.100232 0 0 0 -1.13401,0.99594 15.100232,15.100232 0 0 0 -1.02873,1.10432 15.100232,15.100232 0 0 0 -0.91342,1.20167 15.100232,15.100232 0 0 0 -0.0804,0.13118 h -0.002 a 52.956456,52.956456 0 0 1 2.78791,0.71183 52.956456,52.956456 0 0 1 4.9724,1.81511 52.956456,52.956456 0 0 1 4.58957,2.21694 15.100232,15.100232 0 0 0 0.32588,-0.42875 15.100233,15.100233 0 0 0 0.18917,-0.2489 15.100233,15.100233 0 0 0 0.78914,-1.2866 15.100233,15.100233 0 0 0 0.6566,-1.35909 15.100233,15.100233 0 0 0 0.51747,-1.41777 15.100233,15.100233 0 0 0 0,-3.6e-4 15.100233,15.100233 0 0 0 0.21955,-0.85923 15.100233,15.100233 0 0 0 0,-3.5e-4 15.100233,15.100233 0 0 0 0.15397,-0.60274 15.100233,15.100233 0 0 0 0.11842,-0.78362 28.331693,28.331693 0 0 0 -1.79822,-2.04675 z m -1.29591,1.70326 a 72.340961,72.340961 0 0 1 1.0087,0.61827 15.100233,15.100233 0 0 0 0,3.6e-4 72.340961,72.340961 0 0 0 -1.0087,-0.61862 z m 1.0087,0.61897 a 72.340968,72.340968 0 0 1 0,3.5e-4 15.100233,15.100233 0 0 1 0.088,0.7246 15.100233,15.100233 0 0 1 0.0373,1.06807 15.100232,15.100232 0 0 0 -0.0376,-1.06807 15.100232,15.100232 0 0 0 -0.088,-0.72495 z m -13.23534,1.96803 a 15.100232,15.100232 0 0 0 -0.41459,0.67627 v 0 a 15.100232,15.100232 0 0 0 -0.29411,0.4795 15.100232,15.100232 0 0 0 -0.65625,1.35909 15.100232,15.100232 0 0 0 -0.51781,1.41777 15.100232,15.100232 0 0 1 0,3.6e-4 15.100232,15.100232 0 0 0 -0.37318,1.4623 15.100232,15.100232 0 0 0 -0.22577,1.49235 15.100232,15.100232 0 0 0 -0.0752,1.50753 15.100232,15.100232 0 0 0 0.0376,1.06807 15.100232,15.100232 0 0 0 0.10978,0.90446 v 0 a 15.100232,15.100232 0 0 0 1.30419,0.19711 15.100232,15.100232 0 0 0 1.50718,0.0756 15.100232,15.100232 0 0 0 1.06842,-0.0379 15.100232,15.100232 0 0 0 1.49822,-0.18192 15.100232,15.100232 0 0 0 1.47266,-0.33037 15.100232,15.100232 0 0 0 0.35695,-0.11875 15.100232,15.100232 0 0 0 1.07532,-0.35729 15.100232,15.100232 0 0 0 1.37774,-0.61655 15.100232,15.100232 0 0 0 0.9393,-0.53887 24.218327,24.218327 0 0 0 -1.07221,-1.49959 24.218327,24.218327 0 0 0 -1.59764,-1.81857 24.218327,24.218327 0 0 1 1.59764,1.81857 24.218327,24.218327 0 0 1 1.07221,1.49959 15.100232,15.100232 0 0 0 0.36973,-0.21196 15.100232,15.100232 0 0 0 0.51159,-0.36627 15.100232,15.100232 0 0 0 0.71597,-0.51195 15.100232,15.100232 0 0 0 0.53024,-0.46568 15.100232,15.100232 0 0 0 0.60342,-0.53059 15.100232,15.100232 0 0 0 1.02874,-1.10433 15.100232,15.100232 0 0 0 0.39837,-0.52402 52.956456,52.956456 0 0 0 -4.58957,-2.21694 52.956456,52.956456 0 0 0 -4.97241,-1.81511 52.956456,52.956456 0 0 0 -2.7879,-0.71183 z m 1.8234,2.02535 a 24.218327,24.218327 0 0 1 0,3.6e-4 24.218327,24.218327 0 0 1 0,-3.6e-4 z"
       id="path3853-0" />
    <path
       inkscape:connector-curvature="0"
       style="opacity:1;fill:url(#linearGradient5211-2);fill-opacity:1;stroke:none;stroke-width:0.26458332;stroke-linecap:round;stroke-linejoin:miter;stroke-miterlimit:4;stroke-dasharray:0.26458333, 0.26458333;stroke-dashoffset:0;stroke-opacity:1;paint-order:markers fill stroke"
       d="m 111.68115,105.55897 a 28.331693,28.331693 0 0 0 -2.00393,0.0708 28.331693,28.331693 0 0 0 -1.43298,0.17399 28.331693,28.331693 0 0 0 -1.37807,0.16742 28.331693,28.331693 0 0 0 -0.88028,0.19746 15.100233,15.100233 0 0 0 -0.35177,0.57409 15.100233,15.100233 0 0 0 -0.44049,0.91135 72.340968,72.340968 0 0 1 0.72286,0.10943 72.340968,72.340968 0 0 1 4.48222,0.67731 72.340968,72.340968 0 0 1 7.00603,1.78922 72.340968,72.340968 0 0 1 6.79268,2.4793 72.340968,72.340968 0 0 1 0.71044,0.34313 15.100233,15.100233 0 0 1 0.64623,-0.28929 15.100233,15.100233 0 0 1 0.35695,-0.11875 15.100233,15.100233 0 0 1 1.07533,-0.35729 15.100233,15.100233 0 0 1 1.47266,-0.33071 15.100233,15.100233 0 0 1 0.97004,-0.11771 28.331693,28.331693 0 0 0 -1.75125,-1.33114 28.331693,28.331693 0 0 0 -2.4144,-1.48025 28.331693,28.331693 0 0 0 -2.54971,-1.23205 28.331693,28.331693 0 0 0 -2.66019,-0.97108 28.331693,28.331693 0 0 0 -2.74407,-0.70043 28.331693,28.331693 0 0 0 -2.79999,-0.42323 28.331693,28.331693 0 0 0 -2.82831,-0.14153 z m -4.32445,0.87959 a 15.100233,15.100233 0 0 1 0,3.5e-4 15.100233,15.100233 0 0 0 -1.134,0.99593 15.100233,15.100233 0 0 1 1.134,-0.99627 z m -1.44227,1.32491 a 15.100233,15.100233 0 0 0 -0.72253,0.77569 15.100233,15.100233 0 0 0 -0.72355,0.95174 15.100233,15.100233 0 0 0 0,0.001 h 0.002 v 0 a 15.100233,15.100233 0 0 0 -0.0104,0.0276 15.100233,15.100233 0 0 1 0.0101,-0.0276 15.100233,15.100233 0 0 0 -0.18917,0.2489 15.100233,15.100233 0 0 0 -0.78881,1.28659 15.100233,15.100233 0 0 0 -0.65658,1.35909 15.100233,15.100233 0 0 0 -0.51782,1.41778 15.100233,15.100233 0 0 0 0,3.5e-4 15.100233,15.100233 0 0 0 -0.37318,1.46231 15.100233,15.100233 0 0 0 -0.22577,1.49234 15.100233,15.100233 0 0 0 0,3.6e-4 15.100233,15.100233 0 0 0 0,0.009 v 0 a 24.218327,24.218327 0 0 1 0.79642,-0.17883 24.218327,24.218327 0 0 1 1.47301,-0.17881 24.218327,24.218327 0 0 1 0.92895,-0.11289 24.218327,24.218327 0 0 1 1.71292,-0.0608 24.218327,24.218327 0 0 1 2.41752,0.12117 24.218327,24.218327 0 0 1 2.39368,0.36178 24.218327,24.218327 0 0 1 2.34536,0.59894 24.218327,24.218327 0 0 1 0.79328,0.28963 52.956456,52.956456 0 0 1 0.003,6.7e-4 24.218327,24.218327 0 0 1 1.47921,0.53956 24.218327,24.218327 0 0 1 2.00637,0.96935 15.100233,15.100233 0 0 1 0.4146,-0.67626 52.956456,52.956456 0 0 0 -0.002,-3.6e-4 15.100233,15.100233 0 0 1 0.0801,-0.13084 15.100233,15.100233 0 0 1 0.91344,-1.20167 15.100233,15.100233 0 0 1 1.02872,-1.10432 15.100233,15.100233 0 0 1 1.13401,-0.99594 15.100233,15.100233 0 0 1 0.51161,-0.36626 15.100233,15.100233 0 0 1 0.71595,-0.51195 15.100233,15.100233 0 0 1 1.30939,-0.75083 15.100233,15.100233 0 0 1 0.7308,-0.32724 72.340968,72.340968 0 0 0 -0.71044,-0.34313 72.340968,72.340968 0 0 0 -6.79269,-2.4793 72.340968,72.340968 0 0 0 -7.00602,-1.78922 72.340968,72.340968 0 0 0 -4.48221,-0.6773 z"
       id="path3753-4" />
    <path
       style="opacity:1;fill:url(#linearGradient5263-9);fill-opacity:1;stroke:none;stroke-width:0.26458332;stroke-linecap:round;stroke-linejoin:miter;stroke-miterlimit:4;stroke-dasharray:0.26458333, 0.26458333;stroke-dashoffset:0;stroke-opacity:1;paint-order:markers fill stroke"
       d="m 70.39828,204.40767 -3.54e-4,3.5e-4 a 52.956456,52.956456 0 0 0 0.598607,1.337 h 0.0053 a 2.7165992,2.7165992 0 0 1 0.109088,-0.0363 2.7165992,2.7165992 0 0 1 0.264417,-0.0594 2.7165992,2.7165992 0 0 1 0.269272,-0.0328 2.7165992,2.7165992 0 0 1 0.004,0 2.7165992,2.7165992 0 0 0 -0.26926,0.0328 2.7165992,2.7165992 0 0 0 -0.264429,0.0594 2.7165992,2.7165992 0 0 0 -0.109088,0.0363 52.956456,52.956456 0 0 0 0.166738,0.37282 52.956456,52.956456 0 0 0 1.397755,1.30247 52.956456,52.956456 0 0 0 1.191316,0.90619 28.331693,28.331693 0 0 1 0.756354,-0.43394 2.7165992,2.7165992 0 0 0 0,-0.003 28.331693,28.331693 0 0 1 0.118754,-0.0683 28.331693,28.331693 0 0 1 0.799161,-0.35763 28.331693,28.331693 0 0 1 0.880626,-0.39458 61.897716,61.897716 0 0 1 -1.667362,-0.6086 61.897716,61.897716 0 0 1 -4.250915,-2.05297 z m 3.363382,3.91882 h -6.69e-4 a 52.956456,52.956456 0 0 1 3.41e-4,3.5e-4 28.331693,28.331693 0 0 0 3.48e-4,-3.5e-4 z m -3.55e-4,3.5e-4 a 28.331693,28.331693 0 0 0 -0.002,0.001 h 0.0033 a 52.956456,52.956456 0 0 1 -0.002,-0.001 z m -0.002,0.001 a 28.331693,28.331693 0 0 0 -1.088447,0.62414 28.331693,28.331693 0 0 0 -6.68e-4,3.5e-4 52.956456,52.956456 0 0 0 0.374212,0.6521 61.897714,61.897714 0 0 0 0,3.5e-4 52.956456,52.956456 0 0 0 0,3.6e-4 52.956456,52.956456 0 0 0 0.485699,0.84611 2.7165992,2.7165992 0 0 0 0.199531,-0.17571 2.7165992,2.7165992 0 0 0 0.185035,-0.19885 2.7165992,2.7165992 0 0 0 0.164327,-0.21609 2.7165992,2.7165992 0 0 0 0.142228,-0.23129 2.7165992,2.7165992 0 0 0 0.118046,-0.24441 2.7165992,2.7165992 0 0 1 0,-3.6e-4 2.7165992,2.7165992 0 0 0 0.09322,-0.25511 2.7165992,2.7165992 0 0 0 0.04209,-0.16432 2.7165992,2.7165992 0 0 0 0,-3.4e-4 2.7165992,2.7165992 0 0 0 0.01964,-0.078 52.956456,52.956456 0 0 1 -0.734944,-0.5589 z m -1.088447,0.62414 a 52.956456,52.956456 0 0 0 0,-3.5e-4 28.331693,28.331693 0 0 0 -6.68e-4,3.5e-4 z m 0,-3.5e-4 a 28.331693,28.331693 0 0 1 1.088447,-0.62414 52.956456,52.956456 0 0 1 -1.192705,-0.90721 52.956456,52.956456 0 0 1 -1.397755,-1.30248 52.956456,52.956456 0 0 0 0.438422,0.97971 52.956456,52.956456 0 0 0 1.063591,1.85412 z m 51.20393,-3.21225 a 2.7165992,2.7165992 0 0 0 -0.19195,0.007 2.7165992,2.7165992 0 0 0 -0.26961,0.0328 2.7165992,2.7165992 0 0 0 -0.26477,0.0597 2.7165992,2.7165992 0 0 0 -0.25753,0.0856 2.7165992,2.7165992 0 0 0 -0.24786,0.11081 2.7165992,2.7165992 0 0 0 -0.23578,0.13498 2.7165992,2.7165992 0 0 0 -0.22058,0.1581 2.7165992,2.7165992 0 0 0 -0.20402,0.17917 2.7165992,2.7165992 0 0 0 -0.18503,0.19849 2.7165992,2.7165992 0 0 1 0,3.6e-4 2.7165992,2.7165992 0 0 0 -0.14223,0.1871 28.331696,28.331696 0 0 1 0.0408,0.0197 61.897716,61.897716 0 0 1 -0.0791,0.0355 61.897716,61.897716 0 0 1 -0.42978,0.19228 61.897716,61.897716 0 0 1 -1.70466,0.56649 61.897716,61.897716 0 0 1 -4.16632,1.3843 61.897716,61.897716 0 0 1 -6.03703,1.35529 61.897716,61.897716 0 0 1 -4.13112,0.50124 61.897716,61.897716 0 0 1 -2.0105,0.24407 61.897716,61.897716 0 0 1 -4.378653,0.15534 61.897716,61.897716 0 0 1 -6.179251,-0.30931 61.897716,61.897716 0 0 1 -2.405766,-0.3635 28.331696,28.331696 0 0 0 -0.660046,0.57961 52.956456,52.956456 0 0 0 0.482258,2.14823 52.956456,52.956456 0 0 0 0.02485,0.0746 28.331693,28.331693 0 0 0 0.901695,1.57209 28.331693,28.331693 0 0 0 1.139545,1.59383 61.897716,61.897716 0 0 0 5.181935,0.25925 61.897716,61.897716 0 0 0 4.378293,-0.155 61.897716,61.897716 0 0 0 6.14234,-0.74565 61.897716,61.897716 0 0 0 1.98978,-0.4467 61.897716,61.897716 0 0 0 4.04689,-0.90825 61.897716,61.897716 0 0 0 5.87167,-1.95112 61.897716,61.897716 0 0 0 1.08567,-0.48572 61.897716,61.897716 0 0 0 2.48898,-1.11434 2.7165992,2.7165992 0 0 0 0.0884,0.0228 2.7165992,2.7165992 0 0 0 0.26857,0.0404 2.7165992,2.7165992 0 0 0 0.27099,0.0138 2.7165992,2.7165992 0 0 0 0.19228,-0.007 2.7165992,2.7165992 0 0 0 0.26961,-0.0328 2.7165992,2.7165992 0 0 0 0.26477,-0.0594 2.7165992,2.7165992 0 0 0 0.0639,-0.0214 2.7165992,2.7165992 0 0 0 0.19366,-0.0642 2.7165992,2.7165992 0 0 0 0.24786,-0.11116 2.7165992,2.7165992 0 0 0 0.23542,-0.13498 2.7165992,2.7165992 0 0 0 0.22094,-0.15776 2.7165992,2.7165992 0 0 0 0.11047,-0.0974 72.340941,72.340941 0 0 1 -0.0666,-0.2009 61.897714,61.897714 0 0 0 -0.26755,-0.12911 61.897716,61.897716 0 0 0 0.18849,-0.1084 72.340948,72.340948 0 0 1 -0.32862,-0.98938 28.331696,28.331696 0 0 1 0.88302,0.67144 61.897716,61.897716 0 0 0 0.26237,-0.15051 2.7165992,2.7165992 0 0 0 0.0318,-0.0659 2.7165992,2.7165992 0 0 0 0.0932,-0.25476 2.7165992,2.7165992 0 0 0 0,-3.5e-4 2.7165992,2.7165992 0 0 0 0.0673,-0.26305 2.7165992,2.7165992 0 0 0 0.0404,-0.26858 2.7165992,2.7165992 0 0 0 0.0138,-0.27099 2.7165992,2.7165992 0 0 0 0,-3.5e-4 2.7165992,2.7165992 0 0 0 -0.007,-0.19195 2.7165992,2.7165992 0 0 0 -0.0328,-0.2696 2.7165992,2.7165992 0 0 0 -0.0594,-0.26477 2.7165992,2.7165992 0 0 0 0,-3.6e-4 2.7165992,2.7165992 0 0 0 -0.0856,-0.25753 2.7165992,2.7165992 0 0 0 -0.11081,-0.24785 2.7165992,2.7165992 0 0 0 -0.13533,-0.23544 2.7165992,2.7165992 0 0 0 0,-3.5e-4 2.7165992,2.7165992 0 0 0 -0.15775,-0.22094 2.7165992,2.7165992 0 0 0 -0.17952,-0.20367 2.7165992,2.7165992 0 0 0 -0.0601,-0.0563 2.7165992,2.7165992 0 0 0 -0.13738,-0.12876 2.7165992,2.7165992 0 0 0 -0.21611,-0.16432 2.7165992,2.7165992 0 0 0 -0.23163,-0.14188 2.7165992,2.7165992 0 0 0 -0.24442,-0.11807 2.7165992,2.7165992 0 0 0 -0.2551,-0.0932 2.7165992,2.7165992 0 0 0 -0.26305,-0.067 2.7165992,2.7165992 0 0 0 -0.16226,-0.0248 61.897716,61.897716 0 0 1 -0.12633,0.0566 72.340941,72.340941 0 0 1 -0.0249,-0.0753 2.7165992,2.7165992 0 0 0 -0.22579,-0.011 z m -53.043902,0.0645 v 3.5e-4 a 2.7165992,2.7165992 0 0 0 -0.226112,0.10115 2.7165992,2.7165992 0 0 0 -0.235431,0.13532 2.7165992,2.7165992 0 0 0 -0.220935,0.15777 2.7165992,2.7165992 0 0 0 -0.203666,0.17949 2.7165992,2.7165992 0 0 0 -0.185035,0.19851 2.7165992,2.7165992 0 0 0 -0.16432,0.2161 2.7165992,2.7165992 0 0 0 -0.141541,0.23163 2.7165992,2.7165992 0 0 0 -0.118406,0.24441 2.7165992,2.7165992 0 0 0 -0.09286,0.25511 2.7165992,2.7165992 0 0 0 -0.06732,0.26305 2.7165992,2.7165992 0 0 0 -0.04075,0.26857 2.7165992,2.7165992 0 0 0 -0.01349,0.27133 2.7165992,2.7165992 0 0 0 0.0069,0.19195 2.7165992,2.7165992 0 0 0 0.0328,0.2696 2.7165992,2.7165992 0 0 0 0.05939,0.26513 2.7165992,2.7165992 0 0 0 0.08561,0.25751 2.7165992,2.7165992 0 0 0 0.110824,0.24787 2.7165992,2.7165992 0 0 0 0.135315,0.23578 2.7165992,2.7165992 0 0 0 0.157766,0.22059 2.7165992,2.7165992 0 0 0 0.179151,0.20402 2.7165992,2.7165992 0 0 0 0.198843,0.18538 2.7165992,2.7165992 0 0 0 0.216105,0.16432 2.7165992,2.7165992 0 0 0 0.0047,0.003 28.331693,28.331693 0 0 0 -3.34e-4,3.5e-4 2.7165992,2.7165992 0 0 0 0.226119,0.13843 2.7165992,2.7165992 0 0 0 0.0169,0.008 61.897714,61.897714 0 0 0 -0.002,0.001 h 0.0047 a 2.7165992,2.7165992 0 0 0 0.0027,10e-4 61.897714,61.897714 0 0 0 -0.02592,0.0114 h -0.0053 a 61.897714,61.897714 0 0 0 -0.02037,0.0121 61.897716,61.897716 0 0 0 2.633601,1.2721 61.897716,61.897716 0 0 0 1.806818,0.6597 52.956456,52.956456 0 0 1 -0.705257,-0.98627 52.956456,52.956456 0 0 1 0,-3.5e-4 52.956456,52.956456 0 0 1 -0.7101,-1.23793 2.7165992,2.7165992 0 0 1 -0.002,0.002 2.7165992,2.7165992 0 0 1 -0.002,0.001 2.7165992,2.7165992 0 0 1 0,3.6e-4 2.7165992,2.7165992 0 0 1 -0.06286,0.0449 2.7165992,2.7165992 0 0 1 -0.157767,0.11288 2.7165992,2.7165992 0 0 1 -0.23509,0.13497 2.7165992,2.7165992 0 0 1 -0.247495,0.11081 2.7165992,2.7165992 0 0 1 -0.257189,0.0856 2.7165992,2.7165992 0 0 1 -0.264429,0.0597 2.7165992,2.7165992 0 0 1 -0.26928,0.0325 2.7165992,2.7165992 0 0 1 -0.0047,0 2.7165992,2.7165992 0 0 0 0.269259,-0.0325 2.7165992,2.7165992 0 0 0 0.26443,-0.0597 2.7165992,2.7165992 0 0 0 0.257188,-0.0856 2.7165992,2.7165992 0 0 0 0.247516,-0.11081 2.7165992,2.7165992 0 0 0 0.23507,-0.13497 2.7165992,2.7165992 0 0 0 0.157766,-0.11288 2.7165992,2.7165992 0 0 0 0.06286,-0.0449 2.7165992,2.7165992 0 0 1 0,-3.6e-4 2.7165992,2.7165992 0 0 0 0.002,-0.001 2.7165992,2.7165992 0 0 0 0.002,-0.002 52.956456,52.956456 0 0 1 0,-3.5e-4 52.956456,52.956456 0 0 1 -0.485364,-0.84542 61.897714,61.897714 0 0 1 0.004,-0.002 52.956456,52.956456 0 0 1 -0.374205,-0.65244 28.331693,28.331693 0 0 1 3.34e-4,0 52.956456,52.956456 0 0 1 -1.063591,-1.85447 52.956456,52.956456 0 0 1 -0.438409,-0.97971 52.956456,52.956456 0 0 1 -0.33693,-0.31379 z m 5.489875,1.26623 a 28.331693,28.331693 0 0 0 -0.88064,0.39423 28.331693,28.331693 0 0 0 -0.799147,0.35764 28.331693,28.331693 0 0 0 -0.12289,0.0708 2.7165992,2.7165992 0 0 1 0.02933,0.24165 2.7165992,2.7165992 0 0 1 0.0069,0.19228 2.7165992,2.7165992 0 0 1 -0.01343,0.27099 2.7165992,2.7165992 0 0 0 0,3.6e-4 2.7165992,2.7165992 0 0 1 -0.04075,0.26823 2.7165992,2.7165992 0 0 1 -0.0053,0.02 2.7165992,2.7165992 0 0 1 0,3.5e-4 52.956456,52.956456 0 0 0 0.05698,0.0435 61.897714,61.897714 0 0 0 -0.07664,0.0342 61.897714,61.897714 0 0 0 0,3.6e-4 2.7165992,2.7165992 0 0 1 -0.04142,0.16466 2.7165992,2.7165992 0 0 1 -0.0932,0.25511 2.7165992,2.7165992 0 0 1 0,3.5e-4 2.7165992,2.7165992 0 0 1 -0.117712,0.24441 2.7165992,2.7165992 0 0 1 -0.142229,0.23129 2.7165992,2.7165992 0 0 1 -0.16432,0.2161 2.7165992,2.7165992 0 0 1 -0.185042,0.19884 2.7165992,2.7165992 0 0 1 -0.199524,0.17571 52.956456,52.956456 0 0 0 0.7101,1.23828 52.956456,52.956456 0 0 0 0.705604,0.9866 61.897716,61.897716 0 0 0 4.004783,1.46197 61.897716,61.897716 0 0 0 5.994571,1.53066 61.897716,61.897716 0 0 0 0.604112,0.0915 28.331696,28.331696 0 0 1 0.17398,-0.22887 52.956456,52.956456 0 0 0 0.334505,0.16191 52.956456,52.956456 0 0 1 0,3.4e-4 52.956456,52.956456 0 0 0 0.669711,0.24441 61.897716,61.897716 0 0 0 4.324445,0.65348 52.956456,52.956456 0 0 1 -1.034946,-3.11448 28.331693,28.331693 0 0 1 -0.507456,-0.88443 28.331693,28.331693 0 0 1 -0.429444,-0.95934 28.331696,28.331696 0 0 0 -0.118401,0.10391 28.331696,28.331696 0 0 0 -1.930421,2.07195 28.331696,28.331696 0 0 0 -1.309022,1.72191 52.956456,52.956456 0 0 0 6.68e-4,3.5e-4 h -0.002 a 28.331696,28.331696 0 0 1 1.309055,-1.72191 28.331696,28.331696 0 0 1 1.930415,-2.07194 28.331696,28.331696 0 0 1 0.119088,-0.10495 28.331693,28.331693 0 0 1 3.54e-4,0 28.331693,28.331693 0 0 0 0,6.7e-4 28.331696,28.331696 0 0 1 0.0013,-0.001 h -0.0013 a 28.331693,28.331693 0 0 1 -3.54e-4,0 28.331693,28.331693 0 0 1 -0.538525,-1.20374 61.897716,61.897716 0 0 1 -2.083005,-0.31484 61.897716,61.897716 0 0 1 -5.994905,-1.53065 61.897716,61.897716 0 0 1 -2.588043,-0.94484 61.897716,61.897716 0 0 1 -1.555849,-0.56787 z m 12.761709,4.56194 a 28.331696,28.331696 0 0 1 0.430133,-0.378 52.956456,52.956456 0 0 1 -0.157767,-0.70354 61.897716,61.897716 0 0 1 -0.811232,-0.12255 28.331693,28.331693 0 0 0 0.538866,1.20409 z m 0.937241,1.8448 a 52.956456,52.956456 0 0 0 1.034939,3.11449 61.897716,61.897716 0 0 0 0.0086,0.001 61.897716,61.897716 0 0 0 0.997663,0.05 28.331693,28.331693 0 0 1 -1.139531,-1.59383 28.331693,28.331693 0 0 1 -0.901695,-1.57209 z"
       id="path3647-7"
       inkscape:connector-curvature="0" />
    <path
       style="opacity:1;fill:url(#linearGradient5293-1);fill-opacity:1;stroke:none;stroke-width:0.26458332;stroke-linecap:round;stroke-linejoin:miter;stroke-miterlimit:4;stroke-dasharray:0.26458333, 0.26458333;stroke-dashoffset:0;stroke-opacity:1;paint-order:markers fill stroke"
       d="m 125.63875,209.2261 a 61.897716,61.897716 0 0 1 -0.26237,0.15052 28.331696,28.331696 0 0 1 0.13187,0.10011 2.7165992,2.7165992 0 0 0 0.0442,-0.0721 2.7165992,2.7165992 0 0 0 0.0863,-0.17848 z m -0.1305,0.25063 a 2.7165992,2.7165992 0 0 1 -0.0977,0.15948 2.7165992,2.7165992 0 0 1 -0.16431,0.2161 2.7165992,2.7165992 0 0 1 -0.15845,0.17019 2.7165992,2.7165992 0 0 1 -0.0266,0.0283 2.7165992,2.7165992 0 0 1 -0.0932,0.0821 2.7165992,2.7165992 0 0 1 -0.11048,0.0974 2.7165992,2.7165992 0 0 1 -0.22093,0.15776 2.7165992,2.7165992 0 0 1 -0.23542,0.13498 2.7165992,2.7165992 0 0 1 -0.24786,0.11116 2.7165992,2.7165992 0 0 0 0,3.5e-4 2.7165992,2.7165992 0 0 1 -0.19366,0.0639 2.7165992,2.7165992 0 0 1 -0.0639,0.0214 2.7165992,2.7165992 0 0 1 -0.26477,0.0594 2.7165992,2.7165992 0 0 1 -0.26961,0.0328 2.7165992,2.7165992 0 0 1 -0.19228,0.007 2.7165992,2.7165992 0 0 1 -0.27099,-0.0142 2.7165992,2.7165992 0 0 1 -0.26857,-0.0404 2.7165992,2.7165992 0 0 1 -0.0884,-0.0228 61.897716,61.897716 0 0 1 -2.48966,1.11433 61.897716,61.897716 0 0 1 -1.08567,0.48571 61.897716,61.897716 0 0 1 -5.87167,1.95113 61.897716,61.897716 0 0 1 -4.0469,0.90825 28.331693,28.331693 0 0 1 1.57933,2.20865 28.331693,28.331693 0 0 1 1.00145,1.74607 28.331693,28.331693 0 0 1 0.40735,0.71044 28.331693,28.331693 0 0 1 0,3.5e-4 28.331693,28.331693 0 0 1 1.15715,2.58458 28.331693,28.331693 0 0 1 0.71079,2.14031 72.340948,72.340948 0 0 0 5.13843,-1.70741 72.340948,72.340948 0 0 0 0.0132,-0.005 72.340948,72.340948 0 0 0 0.005,-0.001 72.340948,72.340948 0 0 0 6.59971,-2.95395 72.340948,72.340948 0 0 0 2.83831,-1.62836 72.340948,72.340948 0 0 1 -0.13429,-0.2344 72.340948,72.340948 0 0 1 -1.33181,-2.9757 52.956456,52.956456 0 0 0 0,-3.6e-4 52.956456,52.956456 0 0 0 2.88975,-1.29349 28.331696,28.331696 0 0 0 -1.60213,-1.8234 28.331696,28.331696 0 0 0 -0.85922,-0.80055 28.331696,28.331696 0 0 0 -1.21271,-1.12987 28.331696,28.331696 0 0 0 -0.73876,-0.56165 z m -55.710989,0.91377 a 61.897714,61.897714 0 0 0 -1.356672,0.7781 28.331693,28.331693 0 0 0 -1.393953,1.22515 28.331693,28.331693 0 0 0 -1.930422,2.07195 28.331693,28.331693 0 0 0 -1.71395,2.25456 28.331693,28.331693 0 0 0 -1.480262,2.4144 28.331693,28.331693 0 0 0 -0.634507,1.31352 72.340948,72.340948 0 0 0 3.386515,1.63595 72.340948,72.340948 0 0 0 6.79235,2.47964 72.340948,72.340948 0 0 0 7.006016,1.78888 72.340948,72.340948 0 0 0 1.67463,0.25303 28.331696,28.331696 0 0 1 0.07973,-0.52678 28.331696,28.331696 0 0 1 0.700788,-2.74373 28.331696,28.331696 0 0 0 0,-3.5e-4 28.331696,28.331696 0 0 1 0.803636,-2.2014 52.956456,52.956456 0 0 1 -1.625937,-1.51513 52.956456,52.956456 0 0 1 -3.493519,-3.97682 52.956456,52.956456 0 0 1 -2.373995,-3.31919 61.897716,61.897716 0 0 1 -1.806838,-0.65969 61.897716,61.897716 0 0 1 -2.633254,-1.2721 z m 4.442156,1.93179 a 52.956456,52.956456 0 0 0 2.373334,3.31919 52.956456,52.956456 0 0 0 3.493512,3.97682 52.956456,52.956456 0 0 0 1.625938,1.51478 28.331696,28.331696 0 0 1 0.167433,-0.45844 28.331696,28.331696 0 0 1 1.231698,-2.55006 28.331696,28.331696 0 0 1 1.480262,-2.41406 28.331696,28.331696 0 0 0 0,-3.5e-4 28.331696,28.331696 0 0 1 0.230955,-0.30379 61.897716,61.897716 0 0 1 -0.603791,-0.0915 61.897716,61.897716 0 0 1 -5.994558,-1.53066 61.897716,61.897716 0 0 1 -4.004783,-1.46197 z m 34.805793,2.87905 a 28.331693,28.331693 0 0 0 0,3.5e-4 61.897716,61.897716 0 0 0 0.001,-3.5e-4 z m 0,3.5e-4 a 61.897716,61.897716 0 0 1 -1.98876,0.44636 61.897716,61.897716 0 0 1 -6.14234,0.74565 61.897716,61.897716 0 0 1 -4.378273,0.155 61.897716,61.897716 0 0 1 -5.181601,-0.25925 61.897716,61.897716 0 0 1 -0.997664,-0.05 61.897716,61.897716 0 0 1 -0.0083,-0.001 61.897716,61.897716 0 0 1 -3.54e-4,0 61.897716,61.897716 0 0 1 -4.324083,-0.65348 52.956456,52.956456 0 0 1 -3.48e-4,0 h -3.54e-4 a 52.956456,52.956456 0 0 1 -3.54e-4,0 61.897716,61.897716 0 0 1 -1.179245,-0.17813 h -3.54e-4 a 28.331696,28.331696 0 0 0 -0.230955,0.30378 28.331696,28.331696 0 0 0 0,3.6e-4 28.331696,28.331696 0 0 0 -1.479908,2.41405 28.331696,28.331696 0 0 0 -1.231718,2.55007 28.331696,28.331696 0 0 0 -0.167413,0.45878 52.956456,52.956456 0 0 1 -3.54e-4,0 28.331696,28.331696 0 0 0 -0.80365,2.2014 28.331696,28.331696 0 0 0 0,3.5e-4 28.331696,28.331696 0 0 0 -0.700768,2.74373 28.331696,28.331696 0 0 0 -0.07975,0.52679 72.340961,72.340961 0 0 0 5.474677,0.82747 72.340961,72.340961 0 0 0 4.58025,0.22922 52.956456,52.956456 0 0 0 3.54e-4,0 72.340948,72.340948 0 0 0 2.641564,0.13221 72.340948,72.340948 0 0 0 3.044738,-0.1077 52.956456,52.956456 0 0 1 -0.1367,-0.19125 52.956456,52.956456 0 0 1 -2.633962,-4.59163 52.956456,52.956456 0 0 1 -2.162038,-4.83156 52.956456,52.956456 0 0 0 0,-3.5e-4 52.956456,52.956456 0 0 1 -0.274437,-0.82609 52.956456,52.956456 0 0 0 3.47e-4,0 52.956456,52.956456 0 0 0 0,3.5e-4 52.956456,52.956456 0 0 0 0.27445,0.82575 52.956456,52.956456 0 0 0 0,3.5e-4 52.956456,52.956456 0 0 0 2.162052,4.83155 52.956456,52.956456 0 0 0 2.633938,4.59164 52.956456,52.956456 0 0 0 0.13672,0.19124 72.340954,72.340954 0 0 0 2.07194,-0.0735 72.340954,72.340954 0 0 0 7.178303,-0.8713 72.340954,72.340954 0 0 0 0.88684,-0.19919 72.340948,72.340948 0 0 0 6.16752,-1.38429 72.340948,72.340948 0 0 0 1.70603,-0.56684 28.331693,28.331693 0 0 0 -0.71079,-2.1403 28.331693,28.331693 0 0 0 -1.15714,-2.58458 28.331693,28.331693 0 0 1 0,-3.5e-4 28.331693,28.331693 0 0 0 -0.40735,-0.71045 28.331693,28.331693 0 0 0 -1.00145,-1.74606 28.331693,28.331693 0 0 0 -1.57932,-2.20832 z"
       id="path3581-6"
       inkscape:connector-curvature="0" />
    <path
       inkscape:connector-curvature="0"
       style="opacity:1;fill:url(#linearGradient5301-7);fill-opacity:1;stroke:none;stroke-width:0.26458332;stroke-linecap:round;stroke-linejoin:miter;stroke-miterlimit:4;stroke-dasharray:0.26458333, 0.26458333;stroke-dashoffset:0;stroke-opacity:1;paint-order:markers fill stroke"
       d="m 129.92134,213.79193 a 52.953053,52.0688 0 0 1 -2.88991,1.27182 72.336305,71.128375 0 0 0 1.33208,2.92617 72.336305,71.128375 0 0 0 0.13428,0.23046 v 0 a 72.336318,71.128388 0 0 0 0,3.6e-4 72.336318,71.128388 0 0 0 2.25788,3.8701 72.336305,71.128375 0 0 1 0,3.5e-4 72.336305,71.128375 0 0 0 1.20539,2.06607 72.336305,71.128375 0 0 0 0.98483,1.35396 72.336305,71.128375 0 0 0 2.39525,-1.3509 28.329876,27.856801 0 0 0 -0.047,-0.20502 28.329876,27.856801 0 0 0 -0.89267,-2.64242 28.329876,27.856801 0 0 0 -0.72697,-1.59732 28.329876,27.856801 0 0 0 -0.4301,-0.94427 28.329876,27.856801 0 0 0 -1.40871,-2.41533 28.329876,27.856801 0 0 0 -0.009,-0.0128 28.329876,27.856801 0 0 0 -1.63792,-2.25208 28.329876,27.856801 0 0 0 -0.26718,-0.29902 z m -1.4239,4.42879 a 72.336305,71.128375 0 0 1 -2.83813,1.60072 72.336305,71.128375 0 0 1 -6.59929,2.90445 72.336305,71.128375 0 0 1 -0.005,0.001 72.336305,71.128375 0 0 1 -0.0131,0.005 15.099261,14.847121 0 0 1 0,-3.5e-4 72.336312,71.128382 0 0 1 -5.13812,1.67879 28.329872,27.856797 0 0 1 0.18191,0.53798 28.329872,27.856797 0 0 1 0.57476,2.51648 28.329872,27.856797 0 0 1 0.0456,0.20027 28.329872,27.856797 0 0 1 0.34138,2.76426 28.329872,27.856797 0 0 1 0.0704,1.95982 72.336305,71.128375 0 0 0 2.12913,-0.4701 72.336305,71.128375 0 0 0 6.44017,-2.10408 72.336312,71.128382 0 0 0 0.42148,-0.13781 72.336312,71.128382 0 0 0 2.0404,-0.89776 72.336312,71.128382 0 0 0 4.55923,-2.00668 72.336312,71.128382 0 0 0 2.23681,-1.26164 72.336312,71.128382 0 0 1 -0.98481,-1.35396 72.336312,71.128382 0 0 1 -1.20539,-2.06606 28.329872,27.856797 0 0 1 -1.39249,0.97923 28.329872,27.856797 0 0 1 -2.45637,1.38519 28.329872,27.856797 0 0 1 0,-3.6e-4 28.329872,27.856797 0 0 0 2.45635,-1.38519 28.329872,27.856797 0 0 0 1.39249,-0.97924 72.336305,71.128375 0 0 1 -2.25788,-3.8701 z m -67.204902,2.11563 a 28.329872,27.856797 0 0 0 -0.597191,1.21581 28.329872,27.856797 0 0 0 -0.47187,1.27081 72.336305,71.128375 0 0 0 0.157072,1.27012 72.336305,71.128375 0 0 0 2.837087,1.71069 72.336305,71.128375 0 0 0 6.510592,3.09248 72.336305,71.128375 0 0 0 6.791902,2.43809 72.336305,71.128375 0 0 0 3.171933,0.79628 28.329876,27.856801 0 0 1 -0.02625,-0.72365 28.329876,27.856801 0 0 1 0.141533,-2.78089 28.329876,27.856801 0 0 1 0.34347,-2.23544 72.336305,71.128375 0 0 1 -1.674503,-0.2488 72.336305,71.128375 0 0 1 -7.005595,-1.7589 72.336305,71.128375 0 0 1 -6.791909,-2.43807 72.336305,71.128375 0 0 1 -3.386281,-1.60853 z m 52.611422,4.07409 a 72.336312,71.128382 0 0 1 -1.70557,0.55734 72.336312,71.128382 0 0 1 -6.16782,1.36109 72.336305,71.128375 0 0 1 -0.88748,0.19584 72.336305,71.128375 0 0 1 -7.177843,0.85671 72.336305,71.128375 0 0 1 -2.07181,0.0723 72.336312,71.128382 0 0 1 -3.043868,0.1059 72.336312,71.128382 0 0 1 -2.641371,-0.12999 52.953053,52.0688 0 0 0 2.502616,1.50874 52.953053,52.0688 0 0 0 4.766003,2.26395 52.953053,52.0688 0 0 0 1.60994,0.57804 52.953053,52.0688 0 0 0 0,3.5e-4 v 0 a 52.953053,52.0688 0 0 0 3.360753,1.20631 52.953053,52.0688 0 0 1 -3.360753,-1.20598 52.953053,52.0688 0 0 0 2.330013,2.60746 72.336318,71.128388 0 0 0 1.59789,-0.0557 72.336318,71.128388 0 0 0 3.24821,-0.38762 72.336305,71.128375 0 0 0 3.92926,-0.46909 72.336305,71.128375 0 0 0 4.92515,-1.08683 28.329872,27.856797 0 0 0 -0.0704,-1.95982 28.329872,27.856797 0 0 0 -0.34138,-2.76427 28.329872,27.856797 0 0 0 -0.0456,-0.20026 28.329872,27.856797 0 0 0 -0.57474,-2.51648 28.329872,27.856797 0 0 0 -0.1819,-0.53799 z m -14.818573,7.37024 a 52.953053,52.0688 0 0 1 -1.61099,-0.57837 52.953053,52.0688 0 0 1 -4.766008,-2.26395 52.953053,52.0688 0 0 1 -2.502596,-1.50874 72.336305,71.128375 0 0 1 -4.578913,-0.22538 72.336305,71.128375 0 0 1 -5.474343,-0.81359 28.329876,27.856801 0 0 0 -0.34345,2.23544 28.329876,27.856801 0 0 0 -0.141534,2.78089 28.329876,27.856801 0 0 0 0.02625,0.72365 72.336305,71.128375 0 0 0 3.833315,0.96261 72.336305,71.128375 0 0 0 7.148826,1.06239 72.336305,71.128375 0 0 0 7.221343,0.35538 72.336305,71.128375 0 0 0 3.518143,-0.12254 52.953053,52.0688 0 0 1 -2.330033,-2.60779 z M 124.32206,225.593 a 28.329872,27.856797 0 0 0 0,3.6e-4 28.329872,27.856797 0 0 1 -2.6873,0.87775 28.329872,27.856797 0 0 1 -0.77252,0.17072 15.099261,14.847121 0 0 0 0.83328,1.14556 15.099261,14.847121 0 0 0 0.99587,1.115 15.099261,14.847121 0 0 1 -0.99587,-1.115 15.099261,14.847121 0 0 1 -0.83326,-1.14556 15.099261,14.847121 0 0 0 0,-3.5e-4 15.099261,14.847121 0 0 1 -0.0442,-0.0611 15.099261,14.847121 0 0 0 0.0446,0.0611 28.329872,27.856797 0 0 0 0.77286,-0.17074 28.329872,27.856797 0 0 0 2.68729,-0.87774 z"
       id="path3595-8" />
    <path
       inkscape:connector-curvature="0"
       style="opacity:1;fill:#000000;fill-opacity:1;stroke:none;stroke-width:0.26458332;stroke-linecap:round;stroke-linejoin:miter;stroke-miterlimit:4;stroke-dasharray:0.26458333, 0.26458333;stroke-dashoffset:0;stroke-opacity:1;paint-order:markers fill stroke"
       d="m 59.867241,223.2475 a 28.331693,28.331693 0 0 0 -0.142562,0.39043 28.331693,28.331693 0 0 0 -0.700788,2.74407 28.331693,28.331693 0 0 0 -0.423226,2.8 28.331693,28.331693 0 0 0 -0.141533,2.82865 28.331693,28.331693 0 0 0 0.0711,2.00393 28.331693,28.331693 0 0 0 0.341065,2.81139 28.331693,28.331693 0 0 0 0.09736,0.43359 72.340968,72.340968 0 0 0 2.735093,1.67703 72.340968,72.340968 0 0 0 3.846676,1.85826 72.340968,72.340968 0 0 0 2.664323,1.28694 72.340968,72.340968 0 0 0 6.792704,2.47964 72.340968,72.340968 0 0 0 7.00637,1.78888 72.340968,72.340968 0 0 0 2.440283,0.36869 72.340968,72.340968 0 0 0 4.709699,0.71181 72.340968,72.340968 0 0 0 7.221792,0.36144 72.340968,72.340968 0 0 0 5.117383,-0.18124 72.340968,72.340968 0 0 0 7.17831,-0.8713 72.340968,72.340968 0 0 0 2.63256,-0.59066 28.331693,28.331693 0 0 0 0.002,-10e-4 72.340968,72.340968 0 0 0 4.41661,-0.99145 72.340968,72.340968 0 0 0 0.14396,-0.0476 52.956456,52.956456 0 0 1 -0.94968,-0.45878 52.956456,52.956456 0 0 1 -2.17206,-1.33182 28.331693,28.331693 0 0 0 0.002,-0.003 52.956456,52.956456 0 0 0 2.1762,1.33458 52.956456,52.956456 0 0 0 0.94969,0.45878 72.340968,72.340968 0 0 0 6.71811,-2.23247 72.340968,72.340968 0 0 0 6.60005,-2.95395 72.340968,72.340968 0 0 0 6.27248,-3.59778 72.340968,72.340968 0 0 0 0.38318,-0.2741 28.331696,28.331696 0 0 0 0.3359,-2.22142 28.331696,28.331696 0 0 0 0.0524,-1.04875 15.100233,15.100233 0 0 1 -0.14844,0.0331 15.100233,15.100233 0 0 1 -1.49822,0.18193 15.100233,15.100233 0 0 1 -1.06806,0.0379 15.100233,15.100233 0 0 1 -1.07084,-0.0539 52.956456,52.956456 0 0 0 3.83976,-1.27589 28.331696,28.331696 0 0 0 0.0352,-0.70285 28.331696,28.331696 0 0 0 -0.0483,-1.36461 28.331696,28.331696 0 0 0 -0.0224,-0.63933 28.331696,28.331696 0 0 0 -0.3414,-2.81138 28.331696,28.331696 0 0 0 -0.57341,-2.5549 h -0.006 a 72.340968,72.340968 0 0 1 -2.3954,1.37393 72.340968,72.340968 0 0 1 -2.23697,1.28315 72.340968,72.340968 0 0 0 0,3.5e-4 72.340968,72.340968 0 0 1 -4.55952,2.04053 72.340968,72.340968 0 0 1 -2.04054,0.91308 72.340968,72.340968 0 0 1 -0.42149,0.14016 72.340968,72.340968 0 0 1 -6.44059,2.13995 72.340968,72.340968 0 0 1 -2.12923,0.47812 28.331693,28.331693 0 0 1 0,0.011 28.331693,28.331693 0 0 1 -0.14052,2.80621 28.331693,28.331693 0 0 0 0.1405,-2.80621 28.331693,28.331693 0 0 0 0,-0.011 72.340968,72.340968 0 0 1 -4.92544,1.10536 72.340968,72.340968 0 0 1 -3.9285,0.47708 72.340968,72.340968 0 0 1 -3.24737,0.39423 72.340968,72.340968 0 0 1 -1.59798,0.0566 72.340968,72.340968 0 0 1 -3.518393,0.12462 72.340968,72.340968 0 0 1 -7.221787,-0.36144 72.340968,72.340968 0 0 1 -7.149293,-1.08051 72.340968,72.340968 0 0 1 -3.833549,-0.97901 72.340968,72.340968 0 0 1 -3.172133,-0.80986 72.340968,72.340968 0 0 1 -6.79235,-2.47964 72.340968,72.340968 0 0 1 -6.510999,-3.14521 72.340968,72.340968 0 0 1 -2.837274,-1.73986 72.340968,72.340968 0 0 1 -0.513328,-0.31448 z"
       id="path3599-9" />
    <path
       style="opacity:1;fill:#ff0000;fill-opacity:1;stroke:none;stroke-width:0.26458332;stroke-linecap:round;stroke-linejoin:miter;stroke-miterlimit:4;stroke-dasharray:none;stroke-opacity:1;paint-order:markers fill stroke"
       d="m 157.6289,250.67063 a 61.897714,61.897714 0 0 1 0.23476,0.70699 52.956456,52.956456 0 0 0 0.59548,-0.19781 72.340968,72.340968 0 0 1 -0.83024,-0.50918 z"
       id="path4065-0"
       inkscape:connector-curvature="0" />
    <path
       style="opacity:1;fill:#ff0000;fill-opacity:1;stroke:none;stroke-width:0.26458332;stroke-linecap:round;stroke-linejoin:miter;stroke-miterlimit:4;stroke-dasharray:none;stroke-opacity:1;paint-order:markers fill stroke"
       d="m 157.6289,250.67063 a 72.340968,72.340968 0 0 0 0.83024,0.50918 52.956456,52.956456 0 0 1 -0.59548,0.19781 61.897714,61.897714 0 0 0 -0.23476,-0.70699 z"
       id="path4063-6"
       inkscape:connector-curvature="0" />
    <path
       style="opacity:1;fill:#ff0000;fill-opacity:1;stroke:none;stroke-width:0.26458332;stroke-linecap:round;stroke-linejoin:miter;stroke-miterlimit:4;stroke-dasharray:0.26458333, 0.26458333;stroke-dashoffset:0;stroke-opacity:1;paint-order:markers fill stroke"
       d="m 102.42505,116.06128 a 15.100233,15.100233 0 0 0 -0.009,0.17295 15.100233,15.100233 0 0 1 0.009,-0.17295 z"
       id="path3737-8"
       inkscape:connector-curvature="0" />
    <path
       style="opacity:1;fill:#ff0000;fill-opacity:1;stroke:none;stroke-width:0.26458332;stroke-linecap:round;stroke-linejoin:miter;stroke-miterlimit:4;stroke-dasharray:0.26458333, 0.26458333;stroke-dashoffset:0;stroke-opacity:1;paint-order:markers fill stroke"
       d="m 121.44404,208.82672 a 2.7165992,2.7165992 0 0 1 0.18503,-0.19849 2.7165992,2.7165992 0 0 0 -0.18537,0.19849 z"
       id="path3519-7"
       inkscape:connector-curvature="0" />
    <path
       style="opacity:1;fill:#ff0000;fill-opacity:1;stroke:none;stroke-width:0.26458332;stroke-linecap:round;stroke-linejoin:miter;stroke-miterlimit:4;stroke-dasharray:0.26458333, 0.26458333;stroke-dashoffset:0;stroke-opacity:1;paint-order:markers fill stroke"
       d="m 123.71413,213.28649 a 2.7165992,2.7165992 0 0 1 -0.19228,0.007 2.7165992,2.7165992 0 0 1 -0.27099,-0.0138 2.7165992,2.7165992 0 0 0 0.27099,0.0142 2.7165992,2.7165992 0 0 0 0.19228,-0.007 z"
       id="path3493-9"
       inkscape:connector-curvature="0" />
  </g>
</svg>
