<?xml version="1.0" encoding="UTF-8" standalone="no"?>
<!-- Created with Inkscape (http://www.inkscape.org/) -->

<svg
   xmlns:dc="http://purl.org/dc/elements/1.1/"
   xmlns:cc="http://creativecommons.org/ns#"
   xmlns:rdf="http://www.w3.org/1999/02/22-rdf-syntax-ns#"
   xmlns:svg="http://www.w3.org/2000/svg"
   xmlns="http://www.w3.org/2000/svg"
   xmlns:xlink="http://www.w3.org/1999/xlink"
   xmlns:sodipodi="http://sodipodi.sourceforge.net/DTD/sodipodi-0.dtd"
   xmlns:inkscape="http://www.inkscape.org/namespaces/inkscape"
   width="210mm"
   height="297mm"
   viewBox="0 0 210 297"
   version="1.1"
   id="svg15813"
   inkscape:version="0.92.3 (2405546, 2018-03-11)"
   sodipodi:docname="bP.svg">
  <defs
     id="defs15807">
    <radialGradient
       inkscape:collect="always"
       xlink:href="#linearGradient15725"
       id="radialGradient15727"
       cx="1301.2783"
       cy="798.81738"
       fx="1301.2783"
       fy="798.81738"
       r="97.655777"
       gradientTransform="matrix(0.4703387,0,0,0.08125368,-507.59921,128.57031)"
       gradientUnits="userSpaceOnUse" />
    <linearGradient
       inkscape:collect="always"
       id="linearGradient15725">
      <stop
         style="stop-color:#b3b3b3;stop-opacity:1"
         offset="0"
         id="stop15721" />
      <stop
         style="stop-color:#000000;stop-opacity:1"
         offset="1"
         id="stop15723" />
    </linearGradient>
    <radialGradient
       inkscape:collect="always"
       xlink:href="#linearGradient15725"
       id="radialGradient15747"
       gradientUnits="userSpaceOnUse"
       gradientTransform="matrix(0.4703387,0,0,0.08125368,-504.50655,128.16113)"
       cx="1301.2783"
       cy="798.81738"
       fx="1301.2783"
       fy="798.81738"
       r="97.655777" />
    <radialGradient
       inkscape:collect="always"
       xlink:href="#linearGradient15717"
       id="radialGradient15719"
       cx="1322.4269"
       cy="831.05078"
       fx="1322.4269"
       fy="831.05078"
       r="55.760223"
       gradientTransform="matrix(0.33259747,0.001252,-0.00100878,0.1701594,-330.98436,13.87853)"
       gradientUnits="userSpaceOnUse" />
    <linearGradient
       inkscape:collect="always"
       id="linearGradient15717">
      <stop
         style="stop-color:#000000;stop-opacity:1"
         offset="0"
         id="stop15713" />
      <stop
         style="stop-color:#808080;stop-opacity:1"
         offset="1"
         id="stop15715" />
    </linearGradient>
    <radialGradient
       inkscape:collect="always"
       xlink:href="#linearGradient15733"
       id="radialGradient15735"
       cx="1301.9209"
       cy="843.49219"
       fx="1301.9209"
       fy="843.49219"
       r="101.76707"
       gradientTransform="matrix(1.1939779,-0.04203136,0.03957789,1.1242828,-1481.7898,-684.81834)"
       gradientUnits="userSpaceOnUse" />
    <linearGradient
       inkscape:collect="always"
       id="linearGradient15733">
      <stop
         style="stop-color:#000000;stop-opacity:1"
         offset="0"
         id="stop15729" />
      <stop
         style="stop-color:#b3b3b3;stop-opacity:1"
         offset="1"
         id="stop15731" />
    </linearGradient>
    <linearGradient
       inkscape:collect="always"
       xlink:href="#linearGradient15701"
       id="linearGradient15703"
       x1="1273.6804"
       y1="545.87921"
       x2="1295.9038"
       y2="560.02136"
       gradientUnits="userSpaceOnUse"
       gradientTransform="matrix(0.26458333,0,0,0.26458333,-245.44758,-49.392754)" />
    <linearGradient
       inkscape:collect="always"
       id="linearGradient15701">
      <stop
         style="stop-color:#ececec;stop-opacity:1"
         offset="0"
         id="stop15697" />
      <stop
         style="stop-color:#1a1a1a;stop-opacity:1"
         offset="1"
         id="stop15699" />
    </linearGradient>
    <filter
       style="color-interpolation-filters:sRGB"
       inkscape:label="Blur"
       id="filter15751">
      <feGaussianBlur
         stdDeviation="1.86 2"
         result="blur"
         id="feGaussianBlur15749" />
    </filter>
    <radialGradient
       inkscape:collect="always"
       xlink:href="#linearGradient15709"
       id="radialGradient15711"
       cx="1302.825"
       cy="789.83508"
       fx="1302.825"
       fy="789.83508"
       r="89.934769"
       gradientTransform="matrix(0.4703387,0,0,0.56655348,-506.28518,-250.48753)"
       gradientUnits="userSpaceOnUse" />
    <linearGradient
       inkscape:collect="always"
       id="linearGradient15709">
      <stop
         style="stop-color:#cccccc;stop-opacity:1"
         offset="0"
         id="stop15705" />
      <stop
         style="stop-color:#000000;stop-opacity:1"
         offset="1"
         id="stop15707" />
    </linearGradient>
    <radialGradient
       inkscape:collect="always"
       xlink:href="#linearGradient15693"
       id="radialGradient15695"
       cx="1259.689"
       cy="540.2149"
       fx="1259.689"
       fy="540.2149"
       r="64.710426"
       gradientTransform="matrix(0.17047917,-0.00938753,0.01274504,0.23145245,-135.4405,-38.601541)"
       gradientUnits="userSpaceOnUse" />
    <linearGradient
       inkscape:collect="always"
       id="linearGradient15693">
      <stop
         style="stop-color:#808080;stop-opacity:1;"
         offset="0"
         id="stop15689" />
      <stop
         style="stop-color:#000000;stop-opacity:1"
         offset="1"
         id="stop15691" />
    </linearGradient>
  </defs>
  <sodipodi:namedview
     id="base"
     pagecolor="#ffffff"
     bordercolor="#666666"
     borderopacity="1.0"
     inkscape:pageopacity="0.0"
     inkscape:pageshadow="2"
     inkscape:zoom="0.35"
     inkscape:cx="-1032.8571"
     inkscape:cy="560"
     inkscape:document-units="mm"
     inkscape:current-layer="layer1"
     showgrid="false"
     inkscape:window-width="1920"
     inkscape:window-height="1017"
     inkscape:window-x="0"
     inkscape:window-y="0"
     inkscape:window-maximized="1" />
  <metadata
     id="metadata15810">
    <rdf:RDF>
      <cc:Work
         rdf:about="">
        <dc:format>image/svg+xml</dc:format>
        <dc:type
           rdf:resource="http://purl.org/dc/dcmitype/StillImage" />
        <dc:title />
      </cc:Work>
    </rdf:RDF>
  </metadata>
  <g
     inkscape:label="Layer 1"
     inkscape:groupmode="layer"
     id="layer1">
    <path
       style="opacity:1;vector-effect:none;fill:#000000;fill-opacity:1;stroke:#000000;stroke-width:0;stroke-linecap:round;stroke-linejoin:miter;stroke-miterlimit:4;stroke-dasharray:none;stroke-dashoffset:0;stroke-opacity:1;paint-order:markers fill stroke"
       d="m 57.736749,239.69908 a 14.099423,13.563516 0 0 0 0.602591,1.00864 14.099423,13.563516 0 0 0 0.819287,1.10329 14.099423,13.563516 0 0 0 0.737248,0.80748 14.099423,13.563516 0 0 0 -0.213905,0.18097 14.099423,13.563516 0 0 0 -0.960682,0.99211 14.099423,13.563516 0 0 0 -0.852725,1.07939 14.099423,13.563516 0 0 0 -0.737213,1.15566 14.099423,13.563516 0 0 0 -0.613043,1.22084 14.099423,13.563516 0 0 0 -0.483203,1.27321 14.099423,13.563516 0 0 0 -0.348563,1.31365 14.099423,13.563516 0 0 0 -0.123192,0.7836 14.099423,13.563516 0 0 0 -0.08782,0.55669 14.099423,13.563516 0 0 0 -0.06968,1.35406 14.099423,13.563516 0 0 0 0.0352,0.95997 14.099423,13.563516 0 0 0 0.169056,1.34579 14.099423,13.563516 0 0 0 0.09457,0.40419 171.22275,164.71471 0 0 0 1.266208,0.44463 171.22275,164.71471 0 0 0 16.583275,4.0732 171.22275,164.71471 0 0 0 7.111325,1.03346 171.22275,164.71471 0 0 0 9.811869,1.42662 171.22275,164.71471 0 0 0 17.093158,0.82309 171.22275,164.71471 0 0 0 12.11233,-0.41243 171.22275,164.71471 0 0 0 13.02329,-1.52127 171.22275,164.71471 0 0 0 3.96677,-0.46299 171.22275,164.71471 0 0 0 16.69971,-3.60562 171.22275,164.71471 0 0 0 0.26167,-0.0836 14.099423,13.563516 0 0 0 0.046,-0.0716 14.099423,13.563516 0 0 0 0.61306,-1.22088 14.099423,13.563516 0 0 0 0.48321,-1.27414 14.099423,13.563516 0 0 0 0.34854,-1.31363 14.099423,13.563516 0 0 0 0.21103,-1.34029 14.099423,13.563516 0 0 0 0.0697,-1.35406 14.099423,13.563516 0 0 0 -0.0352,-0.95997 14.099423,13.563516 0 0 0 -0.16905,-1.34579 14.099423,13.563516 0 0 0 -0.30939,-1.32283 14.099423,13.563516 0 0 0 -0.44404,-1.28606 14.099423,13.563516 0 0 0 -0.5758,-1.23741 14.099423,13.563516 0 0 0 -0.56437,-0.94803 14.099423,13.563516 0 0 0 -0.13652,-0.22875 14.099423,13.563516 0 0 0 -0.82029,-1.10234 14.099423,13.563516 0 0 0 -0.48035,-0.52638 14.099423,13.563516 0 0 0 -0.44979,-0.49238 14.099423,13.563516 0 0 0 -0.93677,-0.83964 146.48925,140.92131 0 0 1 -1.59568,0.50985 146.48925,140.92131 0 0 1 -4.9255,1.57453 146.48925,140.92131 0 0 1 -12.41116,2.67964 146.48925,140.92131 0 0 1 -1.87643,0.40514 146.48925,140.92131 0 0 1 -1.48207,0.17261 146.48925,140.92131 0 0 1 -13.05384,1.52493 146.48925,140.92131 0 0 1 -10.36191,0.35273 146.48925,140.92131 0 0 1 -14.624678,-0.70367 146.48925,140.92131 0 0 1 -8.700324,-1.26493 146.48925,140.92131 0 0 1 -3.659291,-0.53191 146.48925,140.92131 0 0 1 -2.118986,-0.30773 146.48925,140.92131 0 0 1 -7.518123,-1.84644 146.48925,140.92131 0 0 1 -6.267187,-1.53963 146.48925,140.92131 0 0 1 -0.402002,-0.0992 146.48925,140.92131 0 0 1 -3.750023,-1.31641 z"
       id="path15524"
       inkscape:connector-curvature="0" />
    <path
       style="opacity:1;vector-effect:none;fill:#000000;fill-opacity:1;stroke:#000000;stroke-width:0;stroke-linecap:round;stroke-linejoin:miter;stroke-miterlimit:4;stroke-dasharray:none;stroke-dashoffset:0;stroke-opacity:1;paint-order:markers fill stroke"
       d="m 110.6271,146.64628 a 33.973645,28.363346 0 0 1 -0.46507,0.0876 33.973645,28.363346 0 0 1 -3.37079,0.34094 33.973645,28.363346 0 0 1 -2.40394,0.0711 33.973645,28.363346 0 0 1 -2.82597,-0.1175 15.49968,12.940111 0 0 0 -0.043,0.0386 15.49968,12.940111 0 0 0 -0.9385,1.02976 15.49968,12.940111 0 0 0 -0.809388,1.10339 15.49968,12.940111 0 0 0 -0.67394,1.16476 15.49968,12.940111 0 0 0 -0.39576,0.90445 219.98473,183.65715 0 0 1 1.452858,-0.0428 219.98473,183.65715 0 0 1 14.72193,0.61525 15.49968,12.940111 0 0 0 -0.0871,-0.21997 15.49968,12.940111 0 0 0 -0.63297,-1.18141 15.49968,12.940111 0 0 0 -0.77055,-1.12181 15.49968,12.940111 0 0 0 -0.90173,-1.05168 15.49968,12.940111 0 0 0 -1.02249,-0.97195 15.49968,12.940111 0 0 0 -0.83348,-0.64851 z m -10.948018,15.21706 a 100.76455,84.124607 0 0 1 0.0524,0.13137 100.76455,84.124607 0 0 1 1.936808,7.19971 100.76455,84.124607 0 0 1 0.26974,1.00523 100.76455,84.124607 0 0 1 1.2136,8.34779 100.76455,84.124607 0 0 1 0.25192,5.9508 100.76455,84.124607 0 0 1 -0.50283,8.39777 100.76455,84.124607 0 0 1 -1.50537,8.31446 100.76455,84.124607 0 0 1 -2.492128,8.14798 100.76455,84.124607 0 0 1 -0.57316,1.31197 100.76455,84.124607 0 0 1 -2.88057,6.58711 100.76455,84.124607 0 0 1 -4.38064,7.57215 100.76455,84.124607 0 0 1 -5.26457,7.16816 100.76455,84.124607 0 0 1 -1.540025,1.69146 137.75906,115.00996 0 0 0 9.046895,1.14109 137.75906,115.00996 0 0 0 13.752938,0.57404 137.75906,115.00996 0 0 0 9.7439,-0.28748 137.75906,115.00996 0 0 0 13.67001,-1.38558 137.75906,115.00996 0 0 0 2.66429,-0.49955 15.49968,12.940111 0 0 1 0.36216,-0.32427 15.49968,12.940111 0 0 1 0.2047,-0.14985 100.76455,84.124607 0 0 1 -1.15265,-1.0955 100.76455,84.124607 0 0 1 -5.85869,-6.83949 100.76455,84.124607 0 0 1 -5.01161,-7.29435 100.76455,84.124607 0 0 1 -3.50726,-6.54241 100.76455,84.124607 0 0 1 -0.60778,-1.13318 100.76455,84.124607 0 0 1 -3.17554,-7.9797 100.76455,84.124607 0 0 1 -2.20552,-8.20494 100.76455,84.124607 0 0 1 -1.21461,-8.34779 100.76455,84.124607 0 0 1 -0.25198,-5.9508 100.76455,84.124607 0 0 1 0.50287,-8.39862 100.76455,84.124607 0 0 1 0.49022,-2.70636 100.76455,84.124607 0 0 1 0.69809,-3.85707 100.76455,84.124607 0 0 1 0.31704,-1.75105 100.76455,84.124607 0 0 1 0.22888,-0.74935 219.98471,183.65713 0 0 1 -12.995048,-0.0428 219.98471,183.65713 0 0 1 -0.28659,-9.5e-4 z"
       id="path15478"
       inkscape:connector-curvature="0" />
    <path
       style="opacity:1;vector-effect:none;fill:url(#radialGradient15695);fill-opacity:1;stroke:#000000;stroke-width:0;stroke-linecap:round;stroke-linejoin:miter;stroke-miterlimit:4;stroke-dasharray:none;stroke-dashoffset:0;stroke-opacity:1;paint-order:markers fill stroke"
       d="m 104.7243,88.138028 a 29.72978,29.72978 0 0 0 -2.10273,0.07448 29.72978,29.72978 0 0 0 -2.949738,0.358269 29.72978,29.72978 0 0 0 -2.90011,0.650374 29.72978,29.72978 0 0 0 -2.8202,0.937928 29.72978,29.72978 0 0 0 -2.71178,1.2135 29.72978,29.72978 0 0 0 -2.5777,1.478994 29.72978,29.72978 0 0 0 -2.41781,1.727937 29.72978,29.72978 0 0 0 -2.232274,1.96129 29.72978,29.72978 0 0 0 -2.025606,2.174396 29.72978,29.72978 0 0 0 -1.79867,2.366384 29.72978,29.72978 0 0 0 -1.553388,2.53359 29.72978,29.72978 0 0 0 -1.292536,2.67505 29.72978,29.72978 0 0 0 -1.018758,2.79171 29.72978,29.72978 0 0 0 -0.73579,2.87991 29.72978,29.72978 0 0 0 -0.443721,2.93778 29.72978,29.72978 0 0 0 -0.102038,2.04029 29.72978,29.72978 0 0 0 -0.04693,0.92781 29.72978,29.72978 0 0 0 0.07448,2.10366 29.72978,29.72978 0 0 0 0.237939,1.95852 29.72978,29.72978 0 0 0 0.120348,0.9912 29.72978,29.72978 0 0 0 0.651334,2.8992 29.72978,29.72978 0 0 0 0.937003,2.82019 29.72978,29.72978 0 0 0 1.213519,2.71272 29.72978,29.72978 0 0 0 1.478976,2.57768 29.72978,29.72978 0 0 0 1.727937,2.41782 29.72978,29.72978 0 0 0 1.962214,2.23228 29.72978,29.72978 0 0 0 2.174361,2.02557 29.72978,29.72978 0 0 0 1.22732,0.93334 29.72978,29.72978 0 0 0 1.13816,0.86535 29.72978,29.72978 0 0 0 2.53357,1.5534 29.72978,29.72978 0 0 0 2.676,1.2925 29.72978,29.72978 0 0 0 0.3307,0.12035 29.72978,29.72978 0 0 0 0.67611,0.24711 29.729782,29.729782 0 0 0 1.78399,0.65132 29.729782,29.729782 0 0 0 2.87989,0.7349 29.729782,29.729782 0 0 0 2.937778,0.44463 29.729782,29.729782 0 0 0 0.49517,0.0247 29.729782,29.729782 0 0 0 2.47295,0.12319 29.729782,29.729782 0 0 0 2.10364,-0.0745 29.729782,29.729782 0 0 0 2.94973,-0.35734 29.729782,29.729782 0 0 0 0.40698,-0.0919 29.729782,29.729782 0 0 0 2.49313,-0.55947 29.729782,29.729782 0 0 0 2.81931,-0.937 29.729782,29.729782 0 0 0 2.71273,-1.2135 29.729782,29.729782 0 0 0 0.4152,-0.23792 29.72978,29.72978 0 0 0 0.0142,-0.009 29.72978,29.72978 0 0 0 2.14774,-1.23189 29.72978,29.72978 0 0 0 2.41788,-1.72886 29.72978,29.72978 0 0 0 2.23224,-1.96127 29.72978,29.72978 0 0 0 2.0256,-2.17439 29.72978,29.72978 0 0 0 1.79867,-2.36548 29.72978,29.72978 0 0 0 1.19695,-1.9521 88.177402,88.177402 0 0 1 1.88137,-3.89314 29.72978,29.72978 0 0 0 0.78635,-2.15603 29.72978,29.72978 0 0 0 0.73492,-2.87899 29.72978,29.72978 0 0 0 0.4106,-2.71363 29.72978,29.72978 0 0 0 0.034,-0.22507 29.72978,29.72978 0 0 0 0.14879,-2.96809 29.72978,29.72978 0 0 0 -0.0745,-2.10275 29.72978,29.72978 0 0 0 -0.35825,-2.94972 29.72978,29.72978 0 0 0 -0.65132,-2.90011 29.72978,29.72978 0 0 0 -0.93704,-2.8202 29.72978,29.72978 0 0 0 -1.21346,-2.71271 29.72978,29.72978 0 0 0 -1.47903,-2.57767 29.72978,29.72978 0 0 0 -1.72883,-2.416926 29.72978,29.72978 0 0 0 -1.9613,-2.232276 29.72978,29.72978 0 0 0 -2.17438,-2.02557 29.72978,29.72978 0 0 0 -2.36548,-1.798688 29.72978,29.72978 0 0 0 -2.53357,-1.553407 29.72978,29.72978 0 0 0 -2.676,-1.292499 29.72978,29.72978 0 0 0 -2.79169,-1.018776 29.72978,29.72978 0 0 0 -2.87898,-0.735808 29.72978,29.72978 0 0 0 -2.93874,-0.443704 29.72978,29.72978 0 0 0 -2.96807,-0.14879 z m -10.522928,6.26228 a 13.563516,13.563516 0 0 1 1.35406,0.06791 13.563516,13.563516 0 0 1 1.34032,0.202084 13.563516,13.563516 0 0 1 1.31361,0.336226 13.563516,13.563516 0 0 1 1.27414,0.464822 13.563516,13.563516 0 0 1 1.220858,0.589756 13.563516,13.563516 0 0 1 1.15562,0.708273 13.563516,13.563516 0 0 1 1.07943,0.820336 13.563516,13.563516 0 0 1 0.9921,0.924151 13.563516,13.563516 0 0 1 0.89476,1.018758 13.563516,13.563516 0 0 1 0.7882,1.102346 13.563516,13.563516 0 0 1 0.67517,1.17677 13.563516,13.563516 0 0 1 0.55392,1.23739 13.563516,13.563516 0 0 1 0.42715,1.28609 13.563516,13.563516 0 0 1 0.29674,1.32282 13.563516,13.563516 0 0 1 0.16355,1.34672 13.563516,13.563516 0 0 1 0.034,0.95905 13.563516,13.563516 0 0 1 -0.0679,1.35406 13.563516,13.563516 0 0 1 -0.20211,1.34028 13.563516,13.563516 0 0 1 -0.33532,1.31364 13.563516,13.563516 0 0 1 -0.46573,1.27413 13.563516,13.563516 0 0 1 -0.58975,1.22088 13.563516,13.563516 0 0 1 -0.70827,1.15564 13.563516,13.563516 0 0 1 -0.82032,1.07937 13.563516,13.563516 0 0 1 -0.92417,0.99213 13.563516,13.563516 0 0 1 -1.01876,0.89475 13.563516,13.563516 0 0 1 -1.10232,0.78818 13.563516,13.563516 0 0 1 -1.1768,0.67519 13.563516,13.563516 0 0 1 -1.237368,0.55394 13.563516,13.563516 0 0 1 -1.28608,0.42717 13.563516,13.563516 0 0 1 -1.32285,0.29671 13.563516,13.563516 0 0 1 -1.34671,0.16354 13.563516,13.563516 0 0 1 -0.95907,0.034 13.563516,13.563516 0 0 1 -1.35406,-0.0681 13.563516,13.563516 0 0 1 -1.34027,-0.20208 13.563516,13.563516 0 0 1 -1.31361,-0.33623 13.563516,13.563516 0 0 1 -1.27416,-0.46482 13.563516,13.563516 0 0 1 -1.22084,-0.58976 13.563516,13.563516 0 0 1 -1.15567,-0.70827 13.563516,13.563516 0 0 1 -1.07938,-0.82034 13.563516,13.563516 0 0 1 -0.992146,-0.92415 13.563516,13.563516 0 0 1 -0.894713,-1.01876 13.563516,13.563516 0 0 1 -0.788196,-1.10234 13.563516,13.563516 0 0 1 -0.675173,-1.17677 13.563516,13.563516 0 0 1 -0.553029,-1.2374 13.563516,13.563516 0 0 1 -0.428096,-1.28608 13.563516,13.563516 0 0 1 -0.296691,-1.32282 13.563516,13.563516 0 0 1 -0.163544,-1.34672 13.563516,13.563516 0 0 1 -0.03395,-0.95905 13.563516,13.563516 0 0 1 0.06808,-1.35406 13.563516,13.563516 0 0 1 0.202102,-1.34028 13.563516,13.563516 0 0 1 0.336208,-1.31364 13.563516,13.563516 0 0 1 0.46484,-1.27413 13.563516,13.563516 0 0 1 0.589756,-1.22086 13.563516,13.563516 0 0 1 0.708272,-1.15564 13.563516,13.563516 0 0 1 0.820318,-1.079396 13.563516,13.563516 0 0 1 0.924134,-0.992129 13.563516,13.563516 0 0 1 1.018798,-0.894748 13.563516,13.563516 0 0 1 1.10326,-0.788178 13.563516,13.563516 0 0 1 1.17585,-0.67519 13.563516,13.563516 0 0 1 1.23738,-0.553012 13.563516,13.563516 0 0 1 1.28608,-0.428078 13.563516,13.563516 0 0 1 1.32283,-0.296727 13.563516,13.563516 0 0 1 1.34673,-0.163544 13.563516,13.563516 0 0 1 0.95901,-0.03395 z"
       id="path15612"
       inkscape:connector-curvature="0" />
    <path
       style="opacity:1;vector-effect:none;fill:url(#radialGradient15711);fill-opacity:1;stroke:#000000;stroke-width:0;stroke-linecap:round;stroke-linejoin:miter;stroke-miterlimit:4;stroke-dasharray:none;stroke-dashoffset:0;stroke-opacity:1;paint-order:markers fill stroke"
       d="m 130.45879,132.75031 a 29.729782,28.392279 0 0 1 -1.19695,1.86427 29.729782,28.392279 0 0 1 -1.79867,2.25906 29.729782,28.392279 0 0 1 -2.0256,2.07657 29.729782,28.392279 0 0 1 -2.23225,1.87303 29.729782,28.392279 0 0 1 -2.41786,1.65109 29.729782,28.392279 0 0 1 -2.14775,1.17646 88.177402,84.21042 0 0 0 -0.007,0.0124 13.563516,12.953312 0 0 0 -0.009,-0.004 29.729782,28.392279 0 0 1 -0.4152,0.22722 29.729782,28.392279 0 0 1 -2.71273,1.15892 29.729782,28.392279 0 0 1 -2.81931,0.89484 29.729782,28.392279 0 0 1 -2.49313,0.53427 13.563516,12.953312 0 0 1 0.72935,0.64921 13.563516,12.953312 0 0 1 0.89479,0.97293 13.563516,12.953312 0 0 1 0.78908,1.05276 13.563516,12.953312 0 0 1 0.67429,1.12295 13.563516,12.953312 0 0 1 0.5539,1.1826 13.563516,12.953312 0 0 1 0.0763,0.2202 192.50503,183.84449 0 0 1 1.30165,0.0624 192.50501,183.84448 0 0 1 5.03414,0.24037 192.50501,183.84448 0 0 1 3.60011,0.51935 88.177402,84.21042 0 0 1 0.20301,-1.28173 88.177402,84.21042 0 0 1 0.5374,-2.01078 88.177402,84.21042 0 0 1 1.64252,-6.14462 88.177402,84.21042 0 0 1 3.02225,-7.908 88.177402,84.21042 0 0 1 1.21535,-2.40206 z m -43.658808,8.43966 a 88.177402,84.21042 0 0 1 0.52452,1.50721 88.177402,84.21042 0 0 1 1.7831,7.58427 88.177402,84.21042 0 0 1 0.1479,0.62902 88.177402,84.21042 0 0 1 0.069,0.54482 192.50501,183.84448 0 0 1 7.3077,-0.24741 192.50501,183.84448 0 0 1 3.11599,-0.10524 13.563516,12.953312 0 0 1 0.346318,-0.90538 13.563516,12.953312 0 0 1 0.58976,-1.16593 13.563516,12.953312 0 0 1 0.70827,-1.10453 13.563516,12.953312 0 0 1 0.82126,-1.03083 13.563516,12.953312 0 0 1 0.0377,-0.0386 29.729782,28.392279 0 0 1 -0.49517,-0.0236 29.729782,28.392279 0 0 1 -2.937768,-0.42459 29.729782,28.392279 0 0 1 -2.8799,-0.70186 29.729782,28.392279 0 0 1 -1.78399,-0.622 13.563516,12.953312 0 0 0 -0.29852,0.16319 13.563516,12.953312 0 0 0 -0.0974,0.0667 88.177402,84.21042 0 0 0 -0.28018,-0.46584 29.729782,28.392279 0 0 1 -0.3307,-0.11501 29.729782,28.392279 0 0 1 -2.676,-1.23435 29.729782,28.392279 0 0 1 -2.53357,-1.48353 29.729782,28.392279 0 0 1 -1.13816,-0.82641 z m 3.57254,19.56471 a 88.177402,84.21042 0 0 1 0.12408,3.36182 88.177402,84.21042 0 0 1 0.0414,1.10715 88.177402,84.21042 0 0 1 -0.44004,8.40633 88.177402,84.21042 0 0 1 -1.31733,8.32383 88.177402,84.21042 0 0 1 -2.18081,8.15542 88.177402,84.21042 0 0 1 -3.022308,7.90712 88.177402,84.21042 0 0 1 -3.833395,7.57989 88.177402,84.21042 0 0 1 -4.606979,7.17633 88.177402,84.21042 0 0 1 -0.0053,0.007 88.177402,84.21042 0 0 1 -2.771527,3.48201 7.2290852,6.9038588 0 0 1 0.05688,0.0412 7.2290852,6.9038588 0 0 1 0.528247,0.47026 7.2290852,6.9038588 0 0 1 0.476733,0.51847 7.2290852,6.9038588 0 0 1 0.420771,0.56147 7.2290852,6.9038588 0 0 1 0.359194,0.59831 7.2290852,6.9038588 0 0 1 0.295784,0.62991 7.2290852,6.9038588 0 0 1 0.22779,0.65447 7.2290852,6.9038588 0 0 1 0.158033,0.67377 7.2290852,6.9038588 0 0 1 0.08728,0.68518 7.2290852,6.9038588 0 0 1 0.01778,0.48777 7.2290852,6.9038588 0 0 1 -0.03573,0.68957 7.2290852,6.9038588 0 0 1 -0.107548,0.68253 7.2290852,6.9038588 0 0 1 -0.179099,0.66851 7.2290852,6.9038588 0 0 1 -0.248055,0.64831 7.2290852,6.9038588 0 0 1 -0.314148,0.62113 7.2290852,6.9038588 0 0 1 -0.377592,0.58867 7.2290852,6.9038588 0 0 1 -0.437268,0.54921 7.2290852,6.9038588 0 0 1 -0.492358,0.50532 7.2290852,6.9038588 0 0 1 -0.542915,0.45531 7.2290852,6.9038588 0 0 1 -0.587907,0.40093 7.2290852,6.9038588 0 0 1 -0.626553,0.34392 7.2290852,6.9038588 0 0 1 -0.659547,0.2816 7.2290852,6.9038588 0 0 1 -0.686229,0.21757 7.2290852,6.9038588 0 0 1 -0.704557,0.15092 7.2290852,6.9038588 0 0 1 -0.717463,0.0834 7.2290852,6.9038588 0 0 1 -0.511681,0.0178 7.2290852,6.9038588 0 0 1 -0.722067,-0.0343 7.2290852,6.9038588 0 0 1 -0.71373,-0.10346 7.2290852,6.9038588 0 0 1 -0.46484,-0.11323 120.55069,115.12728 0 0 0 2.556522,0.89133 13.563516,12.953312 0 0 1 0.418887,-0.13332 13.563516,12.953312 0 0 1 1.322826,-0.28338 13.563516,12.953312 0 0 1 1.346719,-0.15625 13.563516,12.953312 0 0 1 0.959064,-0.0324 13.563516,12.953312 0 0 1 1.35406,0.0649 13.563516,12.953312 0 0 1 1.340283,0.19301 13.563516,12.953312 0 0 1 1.313654,0.3202 13.563516,12.953312 0 0 1 1.274154,0.44393 13.563516,12.953312 0 0 1 1.22086,0.56322 13.563516,12.953312 0 0 1 1.15562,0.67727 13.563516,12.953312 0 0 1 1.079376,0.78345 13.563516,12.953312 0 0 1 0.992129,0.88257 13.563516,12.953312 0 0 1 0.419829,0.45616 120.55069,115.12728 0 0 0 0.503398,0.12302 120.55069,115.12728 0 0 0 3.998773,0.57726 88.177402,84.21042 0 0 0 1.34766,-1.69319 88.177402,84.21042 0 0 0 4.60692,-7.17546 88.177402,84.21042 0 0 0 3.83345,-7.57988 88.177402,84.21042 0 0 0 2.52074,-6.59382 88.177402,84.21042 0 0 0 0.50157,-1.31331 88.177402,84.21042 0 0 0 2.180808,-8.15629 88.177402,84.21042 0 0 0 1.31733,-8.32296 88.177402,84.21042 0 0 0 0.44001,-8.40631 88.177402,84.21042 0 0 0 -0.22045,-5.95688 88.177402,84.21042 0 0 0 -1.06199,-8.35631 88.177402,84.21042 0 0 0 -0.23605,-1.00626 88.177402,84.21042 0 0 0 -1.69488,-7.20706 88.177402,84.21042 0 0 0 -0.0459,-0.13154 192.505,183.84446 0 0 1 -0.696288,-0.004 192.505,183.84446 0 0 1 -9.53541,-0.95011 z m 32.250388,0.7036 a 192.50501,183.84448 0 0 1 -3.47242,0.31934 192.50501,183.84448 0 0 1 -5.75798,-0.0219 13.563516,12.953312 0 0 1 -0.30501,0.6027 13.563516,12.953312 0 0 1 -0.70824,1.10453 13.563516,12.953312 0 0 1 -0.63021,0.79133 88.177402,84.21042 0 0 0 -0.61088,3.86102 88.177402,84.21042 0 0 0 -0.42898,2.7091 88.177402,84.21042 0 0 0 -0.44006,8.40718 88.177402,84.21042 0 0 0 0.2205,5.9569 88.177402,84.21042 0 0 0 1.06288,8.35628 88.177402,84.21042 0 0 0 1.93002,8.21331 88.177402,84.21042 0 0 0 2.77885,7.98784 88.177402,84.21042 0 0 0 0.53188,1.13435 88.177402,84.21042 0 0 0 3.06914,6.54907 88.177402,84.21042 0 0 0 4.38557,7.3018 88.177402,84.21042 0 0 0 5.12684,6.84646 88.177402,84.21042 0 0 0 1.00868,1.09661 13.563516,12.953312 0 0 1 0.83961,-0.70446 13.563516,12.953312 0 0 1 1.10238,-0.7527 13.563516,12.953312 0 0 1 1.17584,-0.64397 13.563516,12.953312 0 0 1 1.23832,-0.52902 13.563516,12.953312 0 0 1 1.28608,-0.40881 13.563516,12.953312 0 0 1 1.32283,-0.28335 13.563516,12.953312 0 0 1 1.34579,-0.15626 13.563516,12.953312 0 0 1 0.95996,-0.0324 13.563516,12.953312 0 0 1 1.35406,0.0649 13.563516,12.953312 0 0 1 1.34028,0.1939 13.563516,12.953312 0 0 1 1.31365,0.32024 13.563516,12.953312 0 0 1 0.009,0.004 120.55069,115.12728 0 0 0 5.19855,-1.65021 88.177402,84.21042 0 0 1 -0.97378,-0.86589 7.2290852,6.9038588 0 0 1 -0.23792,0.1623 7.2290852,6.9038588 0 0 1 -0.62649,0.34389 7.2290852,6.9038588 0 0 1 -0.65958,0.28164 7.2290852,6.9038588 0 0 1 -0.68529,0.21756 7.2290852,6.9038588 0 0 1 -0.70551,0.15093 7.2290852,6.9038588 0 0 1 -0.71747,0.0834 7.2290852,6.9038588 0 0 1 -0.51072,0.0178 7.2290852,6.9038588 0 0 1 -0.72206,-0.0343 7.2290852,6.9038588 0 0 1 -0.71469,-0.10346 7.2290852,6.9038588 0 0 1 -0.70001,-0.17101 7.2290852,6.9038588 0 0 1 -0.67889,-0.23601 7.2290852,6.9038588 0 0 1 -0.65037,-0.30006 7.2290852,6.9038588 0 0 1 -0.6164,-0.36144 7.2290852,6.9038588 0 0 1 -0.57506,-0.41757 7.2290852,6.9038588 0 0 1 -0.52914,-0.47026 7.2290852,6.9038588 0 0 1 -0.47678,-0.51849 7.2290852,6.9038588 0 0 1 -0.41978,-0.56147 7.2290852,6.9038588 0 0 1 -0.36015,-0.59831 7.2290852,6.9038588 0 0 1 -0.29486,-0.62991 7.2290852,6.9038588 0 0 1 -0.22781,-0.65535 7.2290852,6.9038588 0 0 1 -0.15803,-0.67288 7.2290852,6.9038588 0 0 1 -0.0873,-0.68518 7.2290852,6.9038588 0 0 1 -0.0183,-0.48865 7.2290852,6.9038588 0 0 1 0.0357,-0.6887 7.2290852,6.9038588 0 0 1 0.10844,-0.68253 7.2290852,6.9038588 0 0 1 0.17915,-0.66852 7.2290852,6.9038588 0 0 1 0.24708,-0.64828 7.2290852,6.9038588 0 0 1 0.31513,-0.62115 7.2290852,6.9038588 0 0 1 0.37754,-0.58867 7.2290852,6.9038588 0 0 1 0.43726,-0.54919 7.2290852,6.9038588 0 0 1 0.4529,-0.46498 88.177402,84.21042 0 0 1 -2.41509,-3.22583 88.177402,84.21042 0 0 1 -0.35548,-0.59219 88.177402,84.21042 0 0 1 -4.03006,-6.70874 88.177402,84.21042 0 0 1 -3.60011,-7.68341 88.177402,84.21042 0 0 1 -2.7798,-7.98782 88.177402,84.21042 0 0 1 -1.93004,-8.21331 88.177402,84.21042 0 0 1 -1.06193,-8.35633 88.177402,84.21042 0 0 1 -0.22138,-5.95688 88.177402,84.21042 0 0 1 0.20305,-3.87327 88.177402,84.21042 0 0 1 0.13688,-2.61438 z"
       id="path15482"
       inkscape:connector-curvature="0" />
    <path
       style="opacity:1;vector-effect:none;fill:url(#linearGradient15703);fill-opacity:1;stroke:#000000;stroke-width:0;stroke-linecap:round;stroke-linejoin:miter;stroke-miterlimit:4;stroke-dasharray:none;stroke-dashoffset:0;stroke-opacity:1;paint-order:markers fill stroke;filter:url(#filter15751)"
       d="m 92.348837,104.67362 a 7.6299912,7.6299912 0 0 0 -0.53948,0.0191 7.6299912,7.6299912 0 0 0 -0.75759,0.092 7.6299912,7.6299912 0 0 0 -0.74414,0.16692 7.6299912,7.6299912 0 0 0 -0.72347,0.24081 7.6299912,7.6299912 0 0 0 -0.69607,0.31109 7.6299912,7.6299912 0 0 0 -0.66146,0.37982 7.6299912,7.6299912 0 0 0 -0.62063,0.44338 7.6299912,7.6299912 0 0 0 -0.57311,0.50333 7.6299912,7.6299912 0 0 0 -0.51986,0.55811 7.6299912,7.6299912 0 0 0 -0.46146,0.6072 7.6299912,7.6299912 0 0 0 -0.39843,0.65009 7.6299912,7.6299912 0 0 0 -0.33176,0.68678 7.6299912,7.6299912 0 0 0 -0.26149,0.71675 7.6299912,7.6299912 0 0 0 -0.18913,0.73897 7.6299912,7.6299912 0 0 0 -0.11369,0.75396 7.6299912,7.6299912 0 0 0 -0.0383,0.76171 7.6299912,7.6299912 0 0 0 0.0191,0.5395 7.6299912,7.6299912 0 0 0 0.092,0.75758 7.6299912,7.6299912 0 0 0 0.1669,0.74414 7.6299912,7.6299912 0 0 0 0.24082,0.72347 7.6299912,7.6299912 0 0 0 0.3111,0.69608 7.6299912,7.6299912 0 0 0 0.37981,0.66198 7.6299912,7.6299912 0 0 0 0.44339,0.62011 7.6299912,7.6299912 0 0 0 0.50331,0.57309 7.6299912,7.6299912 0 0 0 0.55812,0.51987 7.6299912,7.6299912 0 0 0 0.60719,0.46147 7.6299912,7.6299912 0 0 0 0.65011,0.39843 7.6299912,7.6299912 0 0 0 0.68677,0.33176 7.6299912,7.6299912 0 0 0 0.71676,0.26148 7.6299912,7.6299912 0 0 0 0.73896,0.18914 7.6299912,7.6299912 0 0 0 0.75395,0.11368 7.6299912,7.6299912 0 0 0 0.76171,0.0383 7.6299912,7.6299912 0 0 0 0.53951,-0.0191 7.6299912,7.6299912 0 0 0 0.75758,-0.092 7.6299912,7.6299912 0 0 0 0.74415,-0.16691 7.6299912,7.6299912 0 0 0 0.72347,-0.2403 7.6299912,7.6299912 0 0 0 0.69607,-0.31161 7.6299912,7.6299912 0 0 0 0.66199,-0.37982 7.6299912,7.6299912 0 0 0 0.6201,-0.44338 7.6299912,7.6299912 0 0 0 0.57309,-0.50333 7.6299912,7.6299912 0 0 0 0.51988,-0.55811 7.6299912,7.6299912 0 0 0 0.46146,-0.60719 7.6299912,7.6299912 0 0 0 0.39843,-0.65009 7.6299912,7.6299912 0 0 0 0.33176,-0.68679 7.6299912,7.6299912 0 0 0 0.26199,-0.71675 7.6299912,7.6299912 0 0 0 0.18863,-0.73897 7.6299912,7.6299912 0 0 0 0.11369,-0.75396 7.6299912,7.6299912 0 0 0 0.0382,-0.76171 7.6299912,7.6299912 0 0 0 -0.0191,-0.5395 7.6299912,7.6299912 0 0 0 -0.092,-0.75758 7.6299912,7.6299912 0 0 0 -0.16693,-0.74414 7.6299912,7.6299912 0 0 0 -0.24029,-0.72347 7.6299912,7.6299912 0 0 0 -0.3116,-0.69608 7.6299912,7.6299912 0 0 0 -0.37981,-0.66198 7.6299912,7.6299912 0 0 0 -0.44339,-0.62011 7.6299912,7.6299912 0 0 0 -0.50334,-0.57309 7.6299912,7.6299912 0 0 0 -0.55809,-0.51987 7.6299912,7.6299912 0 0 0 -0.60722,-0.46147 7.6299912,7.6299912 0 0 0 -0.65008,-0.39843 7.6299912,7.6299912 0 0 0 -0.68678,-0.33176 7.6299912,7.6299912 0 0 0 -0.71675,-0.26148 7.6299912,7.6299912 0 0 0 -0.73896,-0.18914 7.6299912,7.6299912 0 0 0 -0.75398,-0.11368 7.6299912,7.6299912 0 0 0 -0.76171,-0.0382 z"
       id="path15634"
       inkscape:connector-curvature="0"
       transform="matrix(1.7776581,0,0,1.7776581,-69.963304,-91.673597)" />
    <path
       inkscape:connector-curvature="0"
       style="opacity:1;vector-effect:none;fill:#800000;fill-opacity:1;stroke:#000000;stroke-width:0;stroke-linecap:round;stroke-linejoin:miter;stroke-miterlimit:4;stroke-dasharray:none;stroke-dashoffset:0;stroke-opacity:1;paint-order:markers fill stroke"
       d="m 118.63969,132.8284 a 29.729783,29.729783 0 0 1 -0.0142,0.009 13.563516,13.563516 0 0 1 0.007,0.004 88.177402,88.177402 0 0 1 0.007,-0.0124 z"
       id="path15616" />
    <path
       style="opacity:1;vector-effect:none;fill:#800000;fill-opacity:1;stroke:#000000;stroke-width:0;stroke-linecap:round;stroke-linejoin:miter;stroke-miterlimit:4;stroke-dasharray:none;stroke-dashoffset:0;stroke-opacity:1;paint-order:markers fill stroke"
       d="m 64.177507,228.65232 a 120.55069,120.55069 0 0 1 -1.140048,-0.41612 7.2290852,7.2290852 0 0 0 0.225105,0.10844 7.2290852,7.2290852 0 0 0 0.678834,0.24711 7.2290852,7.2290852 0 0 0 0.236109,0.0606 z"
       id="path15562"
       inkscape:connector-curvature="0" />
    <path
       style="opacity:1;vector-effect:none;fill:url(#radialGradient15735);fill-opacity:1;stroke:#000000;stroke-width:0;stroke-linecap:round;stroke-linejoin:miter;stroke-miterlimit:4;stroke-dasharray:none;stroke-dashoffset:0;stroke-opacity:1;paint-order:markers fill stroke"
       d="m 72.462923,224.51966 a 13.563516,13.563516 0 0 0 -0.959065,0.034 13.563516,13.563516 0 0 0 -1.346718,0.16354 13.563516,13.563516 0 0 0 -1.322827,0.29673 13.563516,13.563516 0 0 0 -0.418887,0.13955 13.563516,13.563516 0 0 0 -0.867159,0.28753 13.563516,13.563516 0 0 0 -1.23741,0.55394 13.563516,13.563516 0 0 0 -1.176739,0.67428 13.563516,13.563516 0 0 0 -1.102379,0.7891 13.563516,13.563516 0 0 0 -1.018758,0.89475 13.563516,13.563516 0 0 0 -0.924169,0.99211 13.563516,13.563516 0 0 0 -0.820318,1.0794 13.563516,13.563516 0 0 0 -0.70829,1.15564 13.563516,13.563516 0 0 0 -0.589756,1.22086 13.563516,13.563516 0 0 0 -0.464786,1.27321 13.563516,13.563516 0 0 0 -0.336245,1.31365 13.563516,13.563516 0 0 0 -0.202101,1.34119 13.563516,13.563516 0 0 0 -0.06791,1.35406 13.563516,13.563516 0 0 0 0.03395,0.95905 13.563516,13.563516 0 0 0 0.163545,1.34581 13.563516,13.563516 0 0 0 0.296744,1.32283 13.563516,13.563516 0 0 0 0.427154,1.28698 13.563516,13.563516 0 0 0 0.553918,1.2374 13.563516,13.563516 0 0 0 0.09546,0.16727 140.92131,140.92131 0 0 0 3.607508,1.31643 140.92131,140.92131 0 0 0 0.386712,0.0992 140.92131,140.92131 0 0 0 6.028981,1.53962 140.92131,140.92131 0 0 0 7.232349,1.84643 140.92131,140.92131 0 0 0 2.038458,0.30775 140.92131,140.92131 0 0 0 3.52019,0.53189 140.92131,140.92131 0 0 0 8.369637,1.26495 140.92131,140.92131 0 0 0 14.068808,0.70367 140.92131,140.92131 0 0 0 9.96809,-0.35276 140.92131,140.92131 0 0 0 12.55766,-1.52493 140.92131,140.92131 0 0 0 1.42575,-0.17261 140.92131,140.92131 0 0 0 1.8051,-0.40511 140.92131,140.92131 0 0 0 11.93941,-2.67964 140.92131,140.92131 0 0 0 4.73828,-1.57455 88.177402,88.177402 0 0 1 -4.62803,-3.51834 13.563516,13.563516 0 0 1 0.0293,0.005 13.563516,13.563516 0 0 1 1.31365,0.3353 13.563516,13.563516 0 0 1 1.27321,0.46482 13.563516,13.563516 0 0 1 1.22086,0.58976 13.563516,13.563516 0 0 1 1.15562,0.70919 13.563516,13.563516 0 0 1 1.07938,0.82034 13.563516,13.563516 0 0 1 0.091,0.0844 140.92131,140.92131 0 0 0 2.47941,-0.82402 13.563516,13.563516 0 0 0 0.43999,-1.20616 13.563516,13.563516 0 0 0 0.33532,-1.31363 13.563516,13.563516 0 0 0 0.20304,-1.34029 13.563516,13.563516 0 0 0 0.0679,-1.35406 13.563516,13.563516 0 0 0 -0.034,-0.95904 13.563516,13.563516 0 0 0 -0.16355,-1.3458 13.563516,13.563516 0 0 0 -0.29674,-1.32284 13.563516,13.563516 0 0 0 -0.42805,-1.28699 13.563516,13.563516 0 0 0 -0.55397,-1.23739 13.563516,13.563516 0 0 0 -0.67428,-1.17585 13.563516,13.563516 0 0 0 -0.78814,-1.10329 13.563516,13.563516 0 0 0 -0.89566,-1.01875 13.563516,13.563516 0 0 0 -0.99124,-0.92414 13.563516,13.563516 0 0 0 -1.07939,-0.82033 13.563516,13.563516 0 0 0 -1.15656,-0.70828 13.563516,13.563516 0 0 0 -1.21992,-0.58975 13.563516,13.563516 0 0 0 -1.26497,-0.46116 13.563516,13.563516 0 0 0 -0.009,-0.004 13.563516,13.563516 0 0 0 -1.31366,-0.3353 13.563516,13.563516 0 0 0 -1.34028,-0.20303 13.563516,13.563516 0 0 0 -1.35406,-0.0679 13.563516,13.563516 0 0 0 -0.95995,0.0339 13.563516,13.563516 0 0 0 -1.3458,0.16355 13.563516,13.563516 0 0 0 -1.32282,0.2967 13.563516,13.563516 0 0 0 -1.28609,0.42808 13.563516,13.563516 0 0 0 -1.23831,0.55394 13.563516,13.563516 0 0 0 -1.17585,0.67428 13.563516,13.563516 0 0 0 -1.10238,0.78818 13.563516,13.563516 0 0 0 -0.83961,0.73766 88.177402,88.177402 0 0 0 0.28292,0.32245 120.55069,120.55069 0 0 1 -0.77897,0.17456 120.55069,120.55069 0 0 1 -2.33147,0.52363 120.55069,120.55069 0 0 1 -11.96242,1.45235 120.55069,120.55069 0 0 1 -8.52672,0.30131 120.55069,120.55069 0 0 1 -12.034968,-0.6017 120.55069,120.55069 0 0 1 -7.9168,-1.19606 88.177402,88.177402 0 0 1 -2.20193,2.89644 13.563516,13.563516 0 0 0 -0.36193,-0.81024 13.563516,13.563516 0 0 0 -0.675215,-1.17587 13.563516,13.563516 0 0 0 -0.788196,-1.10236 13.563516,13.563516 0 0 0 -0.474901,-0.54108 13.563516,13.563516 0 0 0 -0.41983,-0.47768 13.563516,13.563516 0 0 0 -0.992129,-0.92415 13.563516,13.563516 0 0 0 -1.079376,-0.82033 13.563516,13.563516 0 0 0 -1.15562,-0.70918 13.563516,13.563516 0 0 0 -1.22086,-0.58976 13.563516,13.563516 0 0 0 -1.274154,-0.46484 13.563516,13.563516 0 0 0 -1.313654,-0.3353 13.563516,13.563516 0 0 0 -1.340283,-0.20208 13.563516,13.563516 0 0 0 -1.35406,-0.0679 z"
       id="path15560"
       inkscape:connector-curvature="0" />
    <path
       style="opacity:1;vector-effect:none;fill:#800000;fill-opacity:1;stroke:#000000;stroke-width:0;stroke-linecap:round;stroke-linejoin:miter;stroke-miterlimit:4;stroke-dasharray:none;stroke-dashoffset:0;stroke-opacity:1;paint-order:markers fill stroke"
       d="m 127.84437,226.36794 a 88.177402,88.177402 0 0 1 -0.28291,-0.32245 13.563516,13.563516 0 0 0 -0.17915,0.15715 13.563516,13.563516 0 0 0 -0.31693,0.3399 120.55069,120.55069 0 0 0 0.77899,-0.17456 z"
       id="path15540"
       inkscape:connector-curvature="0" />
    <path
       inkscape:connector-curvature="0"
       style="opacity:1;vector-effect:none;fill:#800000;fill-opacity:1;stroke:#000000;stroke-width:0;stroke-linecap:round;stroke-linejoin:miter;stroke-miterlimit:4;stroke-dasharray:none;stroke-dashoffset:0;stroke-opacity:1;paint-order:markers fill stroke"
       d="m 85.712322,150.25207 a 192.50503,192.50503 0 0 1 -0.910339,-0.0955 4.3552053,4.3552053 0 0 0 0.03198,0.009 4.3552053,4.3552053 0 0 0 0.430829,0.0652 4.3552053,4.3552053 0 0 0 0.43455,0.022 4.3552053,4.3552053 0 0 0 0.0126,0 z"
       id="path15392" />
    <path
       style="opacity:1;vector-effect:none;fill:url(#radialGradient15719);fill-opacity:1;stroke:#000000;stroke-width:0;stroke-linecap:round;stroke-linejoin:miter;stroke-miterlimit:4;stroke-dasharray:none;stroke-dashoffset:0;stroke-opacity:1;paint-order:markers fill stroke"
       d="m 101.71688,150.09506 a 192.505,200.64221 0 0 0 -1.27138,0.0468 192.505,200.64221 0 0 0 -3.115988,0.11484 192.505,200.64221 0 0 0 -7.3077,0.26994 192.505,200.64221 0 0 0 -0.77714,0.0288 13.563516,14.136846 0 0 0 -0.32064,0.91533 13.563516,14.136846 0 0 0 -0.0965,0.3945 4.3552049,4.5392999 0 0 0 -0.34265,-0.21933 4.3552049,4.5392999 0 0 0 -0.39225,-0.19726 4.3552049,4.5392999 0 0 0 -0.40878,-0.15608 4.3552049,4.5392999 0 0 0 -0.42166,-0.11217 4.3552049,4.5392999 0 0 0 -0.42994,-0.0679 4.3552049,4.5392999 0 0 0 -0.43539,-0.0235 4.3552049,4.5392999 0 0 0 -0.30774,0.009 4.3552049,4.5392999 0 0 0 -0.43272,0.0547 4.3552049,4.5392999 0 0 0 -0.42438,0.0994 4.3552049,4.5392999 0 0 0 -0.413378,0.14256 4.3552049,4.5392999 0 0 0 -0.39688,0.18554 4.3552049,4.5392999 0 0 0 -0.377539,0.22494 4.3552049,4.5392999 0 0 0 -0.354589,0.26415 4.3552049,4.5392999 0 0 0 -0.327018,0.29973 4.3552049,4.5392999 0 0 0 -0.296745,0.33128 4.3552049,4.5392999 0 0 0 -0.263627,0.36193 4.3552049,4.5392999 0 0 0 -0.226882,0.38677 4.3552049,4.5392999 0 0 0 -0.190156,0.40785 4.3552049,4.5392999 0 0 0 -0.14879,0.42708 4.3552049,4.5392999 0 0 0 -0.107548,0.43947 4.3552049,4.5392999 0 0 0 -0.06524,0.44809 4.3552049,4.5392999 0 0 0 -0.02204,0.45381 4.3552049,4.5392999 0 0 0 0.01066,0.32081 4.3552049,4.5392999 0 0 0 0.05244,0.45094 4.3552049,4.5392999 0 0 0 0.09546,0.44235 4.3552049,4.5392999 0 0 0 0.136879,0.43087 4.3552049,4.5392999 0 0 0 0.178212,0.41361 4.3552049,4.5392999 0 0 0 0.216839,0.3935 4.3552049,4.5392999 0 0 0 0.252621,0.36961 4.3552049,4.5392999 0 0 0 0.287519,0.34081 4.3552049,4.5392999 0 0 0 0.318736,0.30935 4.3552049,4.5392999 0 0 0 0.346323,0.2747 4.3552049,4.5392999 0 0 0 0.371139,0.23659 4.3552049,4.5392999 0 0 0 0.392257,0.197 4.3552049,4.5392999 0 0 0 0.408777,0.15608 4.3552049,4.5392999 0 0 0 0.38954,0.10364 192.505,200.64221 0 0 0 0.91034,0.0994 192.50501,200.64223 0 0 0 2.73295,0.29683 192.505,200.64221 0 0 0 1.92725,0.20971 192.505,200.64221 0 0 0 9.535408,1.03693 192.505,200.64221 0 0 0 0.69629,0.002 192.50503,200.64224 0 0 0 0.25079,9.4e-4 192.505,200.64221 0 0 0 11.37176,0.0468 192.505,200.64221 0 0 0 1.16573,0.007 192.505,200.64221 0 0 0 5.75798,0.0235 192.505,200.64221 0 0 0 3.47242,-0.34853 192.505,200.64221 0 0 0 1.95482,-0.19632 192.50501,200.64223 0 0 0 1.52404,-0.15306 4.3552051,4.5392999 0 0 0 0.2324,0.11697 4.3552051,4.5392999 0 0 0 0.40877,0.15626 4.3552051,4.5392999 0 0 0 0.42166,0.11217 4.3552051,4.5392999 0 0 0 0.43083,0.0679 4.3552051,4.5392999 0 0 0 0.43455,0.0235 4.3552051,4.5392999 0 0 0 0.30864,-0.009 4.3552051,4.5392999 0 0 0 0.43176,-0.0546 4.3552051,4.5392999 0 0 0 0.42439,-0.0997 4.3552051,4.5392999 0 0 0 0.41338,-0.14346 4.3552051,4.5392999 0 0 0 0.39777,-0.18458 4.3552051,4.5392999 0 0 0 0.37757,-0.2259 4.3552051,4.5392999 0 0 0 0.28752,-0.21439 4.3552049,4.5392999 0 0 0 0.0661,-0.0498 4.3552049,4.5392999 0 0 0 0.32702,-0.29877 4.3552049,4.5392999 0 0 0 0.29674,-0.33222 4.3552049,4.5392999 0 0 0 0.26361,-0.36098 4.3552049,4.5392999 0 0 0 0.22785,-0.3868 4.3552049,4.5392999 0 0 0 0.18926,-0.40886 4.3552049,4.5392999 0 0 0 0.14879,-0.42603 4.3552049,4.5392999 0 0 0 0.10844,-0.44043 4.3552049,4.5392999 0 0 0 0.0643,-0.44808 4.3552049,4.5392999 0 0 0 0.022,-0.45288 4.3552049,4.5392999 0 0 0 -0.0107,-0.32172 4.3552049,4.5392999 0 0 0 -0.0523,-0.45003 4.3552049,4.5392999 0 0 0 -0.0956,-0.44331 4.3552049,4.5392999 0 0 0 -0.13688,-0.42984 4.3552049,4.5392999 0 0 0 -0.17821,-0.41462 4.3552049,4.5392999 0 0 0 -0.21588,-0.39352 4.3552049,4.5392999 0 0 0 -0.25351,-0.3686 4.3552049,4.5392999 0 0 0 -0.28758,-0.3409 4.3552049,4.5392999 0 0 0 -0.31875,-0.31029 4.3552049,4.5392999 0 0 0 -0.3463,-0.27376 4.3552049,4.5392999 0 0 0 -0.37114,-0.23753 4.3552049,4.5392999 0 0 0 -0.39226,-0.19702 4.3552049,4.5392999 0 0 0 -0.40877,-0.15608 4.3552049,4.5392999 0 0 0 -0.42166,-0.11234 4.3552049,4.5392999 0 0 0 -0.43084,-0.0679 4.3552049,4.5392999 0 0 0 -0.43449,-0.0235 4.3552049,4.5392999 0 0 0 -0.30775,0.009 4.3552049,4.5392999 0 0 0 -0.43272,0.0555 4.3552049,4.5392999 0 0 0 -0.42438,0.0987 4.3552049,4.5392999 0 0 0 -0.41337,0.14363 4.3552049,4.5392999 0 0 0 -0.39688,0.18458 4.3552049,4.5392999 0 0 0 -0.016,0.009 13.563516,14.136846 0 0 0 -0.0862,-0.73821 13.563516,14.136846 0 0 0 -0.0579,-0.26702 192.505,200.64221 0 0 0 -2.05682,-0.32455 192.505,200.64221 0 0 0 -3.60012,-0.56682 192.505,200.64221 0 0 0 -5.03413,-0.26221 192.505,200.64221 0 0 0 -1.30165,-0.0679 192.505,200.64221 0 0 0 -12.8829,-0.67211 z"
       id="path15394"
       inkscape:connector-curvature="0" />
    <path
       style="opacity:1;vector-effect:none;fill:url(#radialGradient15747);fill-opacity:1;stroke:#000000;stroke-width:0;stroke-linecap:round;stroke-linejoin:miter;stroke-miterlimit:4;stroke-dasharray:none;stroke-dashoffset:0;stroke-opacity:1;paint-order:markers fill stroke"
       d="m 69.538142,215.32095 a 7.2290852,7.2290852 0 0 0 -0.511681,0.0183 7.2290852,7.2290852 0 0 0 -0.717463,0.0873 7.2290852,7.2290852 0 0 0 -0.704557,0.15804 7.2290852,7.2290852 0 0 0 -0.68623,0.22782 7.2290852,7.2290852 0 0 0 -0.6596,0.29488 7.2290852,7.2290852 0 0 0 -0.626482,0.36012 7.2290852,7.2290852 0 0 0 -0.587925,0.41981 7.2290852,7.2290852 0 0 0 -0.542914,0.47677 7.2290852,7.2290852 0 0 0 -0.492394,0.52913 7.2290852,7.2290852 0 0 0 -0.437286,0.57506 7.2290852,7.2290852 0 0 0 -0.377539,0.61642 7.2290852,7.2290852 0 0 0 -0.314183,0.65037 7.2290852,7.2290852 0 0 0 -0.248019,0.67887 7.2290852,7.2290852 0 0 0 -0.179153,0.69999 7.2290852,7.2290852 0 0 0 -0.10737,0.71469 7.2290852,7.2290852 0 0 0 -0.03591,0.72113 7.2290852,7.2290852 0 0 0 0.01778,0.51168 7.2290852,7.2290852 0 0 0 0.08728,0.71744 7.2290852,7.2290852 0 0 0 0.158034,0.70552 7.2290852,7.2290852 0 0 0 0.227842,0.68529 7.2290852,7.2290852 0 0 0 0.295785,0.6596 7.2290852,7.2290852 0 0 0 0.359211,0.62648 7.2290852,7.2290852 0 0 0 0.420718,0.58794 7.2290852,7.2290852 0 0 0 0.476768,0.5429 7.2290852,7.2290852 0 0 0 0.152523,0.14239 7.2290852,7.2290852 0 0 0 0.375708,0.35 7.2290852,7.2290852 0 0 0 0.576033,0.43727 7.2290852,7.2290852 0 0 0 0.615425,0.37846 7.2290852,7.2290852 0 0 0 0.42534,0.20579 120.55069,120.55069 0 0 0 1.140048,0.41613 7.2290852,7.2290852 0 0 0 0.46484,0.11857 7.2290852,7.2290852 0 0 0 0.713729,0.10843 7.2290852,7.2290852 0 0 0 0.722067,0.0359 7.2290852,7.2290852 0 0 0 0.511681,-0.0183 7.2290852,7.2290852 0 0 0 0.717463,-0.0873 7.2290852,7.2290852 0 0 0 0.704557,-0.15803 7.2290852,7.2290852 0 0 0 0.68623,-0.22781 7.2290852,7.2290852 0 0 0 0.659546,-0.29488 7.2290852,7.2290852 0 0 0 0.626552,-0.36012 7.2290852,7.2290852 0 0 0 0.587907,-0.41981 7.2290852,7.2290852 0 0 0 0.542915,-0.47677 7.2290852,7.2290852 0 0 0 0.492357,-0.52912 7.2290852,7.2290852 0 0 0 0.437269,-0.57507 7.2290852,7.2290852 0 0 0 0.377592,-0.6164 7.2290852,7.2290852 0 0 0 0.314148,-0.65039 7.2290852,7.2290852 0 0 0 0.248054,-0.67886 7.2290852,7.2290852 0 0 0 0.179099,-0.7 7.2290852,7.2290852 0 0 0 0.107549,-0.71469 7.2290852,7.2290852 0 0 0 0.03573,-0.72205 7.2290852,7.2290852 0 0 0 -0.01778,-0.51076 7.2290852,7.2290852 0 0 0 -0.08728,-0.71744 7.2290852,7.2290852 0 0 0 -0.158034,-0.70552 7.2290852,7.2290852 0 0 0 -0.227789,-0.68529 7.2290852,7.2290852 0 0 0 -0.295784,-0.65958 7.2290852,7.2290852 0 0 0 -0.359194,-0.6265 7.2290852,7.2290852 0 0 0 -0.420772,-0.58792 7.2290852,7.2290852 0 0 0 -0.476732,-0.54292 7.2290852,7.2290852 0 0 0 -0.528249,-0.49239 7.2290852,7.2290852 0 0 0 -0.05688,-0.0432 7.2290852,7.2290852 0 0 0 -0.519005,-0.39411 7.2290852,7.2290852 0 0 0 -0.615495,-0.37846 7.2290852,7.2290852 0 0 0 -0.65128,-0.31418 7.2290852,7.2290852 0 0 0 -0.677946,-0.24802 7.2290852,7.2290852 0 0 0 -0.700948,-0.17821 7.2290852,7.2290852 0 0 0 -0.713783,-0.10844 7.2290852,7.2290852 0 0 0 -0.722014,-0.0359 z"
       id="path15745"
       inkscape:connector-curvature="0" />
    <path
       style="opacity:1;vector-effect:none;fill:url(#radialGradient15727);fill-opacity:1;stroke:#000000;stroke-width:0;stroke-linecap:round;stroke-linejoin:miter;stroke-miterlimit:4;stroke-dasharray:none;stroke-dashoffset:0;stroke-opacity:1;paint-order:markers fill stroke"
       d="m 142.43923,215.73011 a 7.2290852,7.2290852 0 0 0 -0.51168,0.0183 7.2290852,7.2290852 0 0 0 -0.71746,0.0873 7.2290852,7.2290852 0 0 0 -0.70461,0.15803 7.2290852,7.2290852 0 0 0 -0.68623,0.22784 7.2290852,7.2290852 0 0 0 -0.65955,0.29488 7.2290852,7.2290852 0 0 0 -0.6265,0.3601 7.2290852,7.2290852 0 0 0 -0.58793,0.41983 7.2290852,7.2290852 0 0 0 -0.54291,0.47675 7.2290852,7.2290852 0 0 0 -0.0395,0.0423 7.2290852,7.2290852 0 0 0 -0.4529,0.48686 7.2290852,7.2290852 0 0 0 -0.43727,0.57508 7.2290852,7.2290852 0 0 0 -0.37754,0.6164 7.2290852,7.2290852 0 0 0 -0.31512,0.65039 7.2290852,7.2290852 0 0 0 -0.24708,0.67885 7.2290852,7.2290852 0 0 0 -0.17915,0.70001 7.2290852,7.2290852 0 0 0 -0.10844,0.71469 7.2290852,7.2290852 0 0 0 -0.0357,0.72112 7.2290852,7.2290852 0 0 0 0.0183,0.51168 7.2290852,7.2290852 0 0 0 0.0873,0.71745 7.2290852,7.2290852 0 0 0 0.15803,0.70459 7.2290852,7.2290852 0 0 0 0.22782,0.68621 7.2290852,7.2290852 0 0 0 0.29486,0.65959 7.2290852,7.2290852 0 0 0 0.36012,0.6265 7.2290852,7.2290852 0 0 0 0.41978,0.58792 7.2290852,7.2290852 0 0 0 0.4768,0.54292 7.2290852,7.2290852 0 0 0 0.52912,0.49239 7.2290852,7.2290852 0 0 0 0.57509,0.43725 7.2290852,7.2290852 0 0 0 0.61637,0.37848 7.2290852,7.2290852 0 0 0 0.65041,0.31418 7.2290852,7.2290852 0 0 0 0.67889,0.24712 7.2290852,7.2290852 0 0 0 0.69998,0.17911 7.2290852,7.2290852 0 0 0 0.71469,0.10844 7.2290852,7.2290852 0 0 0 0.72205,0.0359 7.2290852,7.2290852 0 0 0 0.51076,-0.0183 7.2290852,7.2290852 0 0 0 0.71745,-0.0873 7.2290852,7.2290852 0 0 0 0.70551,-0.15804 7.2290852,7.2290852 0 0 0 0.68529,-0.2278 7.2290852,7.2290852 0 0 0 0.6596,-0.29488 7.2290852,7.2290852 0 0 0 0.62648,-0.36012 7.2290852,7.2290852 0 0 0 0.23789,-0.16994 7.2290852,7.2290852 0 0 0 0.35002,-0.24987 7.2290852,7.2290852 0 0 0 0.54293,-0.47677 7.2290852,7.2290852 0 0 0 0.49239,-0.52912 7.2290852,7.2290852 0 0 0 0.43722,-0.57507 7.2290852,7.2290852 0 0 0 0.37848,-0.61641 7.2290852,7.2290852 0 0 0 0.3142,-0.65039 7.2290852,7.2290852 0 0 0 0.24711,-0.67885 7.2290852,7.2290852 0 0 0 0.17916,-0.70001 7.2290852,7.2290852 0 0 0 0.10843,-0.71469 7.2290852,7.2290852 0 0 0 0.0359,-0.72204 7.2290852,7.2290852 0 0 0 -0.0185,-0.51076 7.2290852,7.2290852 0 0 0 -0.0873,-0.71745 7.2290852,7.2290852 0 0 0 -0.15803,-0.70551 7.2290852,7.2290852 0 0 0 -0.22779,-0.68529 7.2290852,7.2290852 0 0 0 -0.2949,-0.65958 7.2290852,7.2290852 0 0 0 -0.3601,-0.6265 7.2290852,7.2290852 0 0 0 -0.41981,-0.58793 7.2290852,7.2290852 0 0 0 -0.47678,-0.54291 7.2290852,7.2290852 0 0 0 -0.52914,-0.4924 7.2290852,7.2290852 0 0 0 -0.57504,-0.43726 7.2290852,7.2290852 0 0 0 -0.61642,-0.37847 7.2290852,7.2290852 0 0 0 -0.65039,-0.31418 7.2290852,7.2290852 0 0 0 -0.67884,-0.24802 7.2290852,7.2290852 0 0 0 -0.7,-0.17821 7.2290852,7.2290852 0 0 0 -0.71467,-0.10844 7.2290852,7.2290852 0 0 0 -0.72113,-0.0359 z"
       id="path15568"
       inkscape:connector-curvature="0" />
  </g>
</svg>
