<?xml version="1.0" encoding="UTF-8" standalone="no"?>
<!-- Created with Inkscape (http://www.inkscape.org/) -->

<svg
   xmlns:dc="http://purl.org/dc/elements/1.1/"
   xmlns:cc="http://creativecommons.org/ns#"
   xmlns:rdf="http://www.w3.org/1999/02/22-rdf-syntax-ns#"
   xmlns:svg="http://www.w3.org/2000/svg"
   xmlns="http://www.w3.org/2000/svg"
   xmlns:xlink="http://www.w3.org/1999/xlink"
   xmlns:sodipodi="http://sodipodi.sourceforge.net/DTD/sodipodi-0.dtd"
   xmlns:inkscape="http://www.inkscape.org/namespaces/inkscape"
   width="210mm"
   height="297mm"
   viewBox="0 0 210 297"
   version="1.1"
   id="svg7558"
   inkscape:version="0.92.3 (2405546, 2018-03-11)"
   sodipodi:docname="bQ.svg">
  <defs
     id="defs7552">
    <linearGradient
       gradientTransform="matrix(0.26458333,0,0,0.26458333,-6.4147474,-39.92618)"
       inkscape:collect="always"
       xlink:href="#linearGradient6689"
       id="linearGradient5753"
       x1="496.05188"
       y1="361.0025"
       x2="349.51279"
       y2="431.57535"
       gradientUnits="userSpaceOnUse" />
    <linearGradient
       id="linearGradient6689"
       inkscape:collect="always">
      <stop
         id="stop6685"
         offset="0"
         style="stop-color:#000000;stop-opacity:1;" />
      <stop
         id="stop6687"
         offset="1"
         style="stop-color:#999999;stop-opacity:1" />
    </linearGradient>
    <radialGradient
       inkscape:collect="always"
       xlink:href="#linearGradient15725"
       id="radialGradient3402-5"
       cx="335.33203"
       cy="789.77258"
       fx="335.33203"
       fy="789.77258"
       r="88.139137"
       gradientTransform="matrix(0.3668563,0.0097295,-0.01665483,0.62797986,-4.8802194,-297.43713)"
       gradientUnits="userSpaceOnUse" />
    <linearGradient
       inkscape:collect="always"
       id="linearGradient15725">
      <stop
         style="stop-color:#b3b3b3;stop-opacity:1"
         offset="0"
         id="stop15721" />
      <stop
         style="stop-color:#000000;stop-opacity:1"
         offset="1"
         id="stop15723" />
    </linearGradient>
    <linearGradient
       inkscape:collect="always"
       xlink:href="#linearGradient6689"
       id="linearGradient3394-2"
       x1="371.64667"
       y1="472.71274"
       x2="272.5191"
       y2="720.16626"
       gradientUnits="userSpaceOnUse"
       gradientTransform="matrix(0.36698528,0,0,0.36698528,-18.077008,-106.10888)" />
    <linearGradient
       gradientTransform="matrix(0.36698528,0,0,0.36698528,-18.077008,-106.10888)"
       inkscape:collect="always"
       xlink:href="#linearGradient5299"
       id="linearGradient3418-7"
       x1="330.31989"
       y1="980.0882"
       x2="335.37064"
       y2="895.23535"
       gradientUnits="userSpaceOnUse" />
    <linearGradient
       inkscape:collect="always"
       id="linearGradient5299">
      <stop
         style="stop-color:#000000;stop-opacity:1;"
         offset="0"
         id="stop5295" />
      <stop
         style="stop-color:#000000;stop-opacity:0;"
         offset="1"
         id="stop5297" />
    </linearGradient>
    <linearGradient
       inkscape:collect="always"
       xlink:href="#linearGradient5299"
       id="linearGradient5767"
       x1="120.27129"
       y1="82.382568"
       x2="111.52992"
       y2="87.740005"
       gradientUnits="userSpaceOnUse"
       gradientTransform="translate(-6.4147474,-38.33868)" />
    <linearGradient
       inkscape:collect="always"
       xlink:href="#linearGradient6683"
       id="linearGradient5751"
       x1="121.5815"
       y1="87.867645"
       x2="92.475258"
       y2="97.349663"
       gradientUnits="userSpaceOnUse"
       gradientTransform="translate(-6.4147474,-39.39708)" />
    <linearGradient
       id="linearGradient6683"
       inkscape:collect="always">
      <stop
         id="stop6679"
         offset="0"
         style="stop-color:#000000;stop-opacity:1;" />
      <stop
         id="stop6681"
         offset="1"
         style="stop-color:#808080;stop-opacity:1" />
    </linearGradient>
  </defs>
  <sodipodi:namedview
     id="base"
     pagecolor="#ffffff"
     bordercolor="#666666"
     borderopacity="1.0"
     inkscape:pageopacity="0.0"
     inkscape:pageshadow="2"
     inkscape:zoom="0.35"
     inkscape:cx="-574.28572"
     inkscape:cy="560"
     inkscape:document-units="mm"
     inkscape:current-layer="layer1"
     showgrid="false"
     inkscape:window-width="1920"
     inkscape:window-height="1017"
     inkscape:window-x="0"
     inkscape:window-y="0"
     inkscape:window-maximized="1" />
  <metadata
     id="metadata7555">
    <rdf:RDF>
      <cc:Work
         rdf:about="">
        <dc:format>image/svg+xml</dc:format>
        <dc:type
           rdf:resource="http://purl.org/dc/dcmitype/StillImage" />
        <dc:title />
      </cc:Work>
    </rdf:RDF>
  </metadata>
  <g
     inkscape:label="Layer 1"
     inkscape:groupmode="layer"
     id="layer1">
    <path
       style="display:inline;opacity:1;fill:url(#linearGradient5751);fill-opacity:1;stroke:#fa0000;stroke-width:0;stroke-linecap:round;stroke-linejoin:miter;stroke-miterlimit:4;stroke-dasharray:none;stroke-opacity:1;paint-order:markers fill stroke"
       d="m 93.49123,62.196839 a 37.985917,37.985917 0 0 0 0.13022,0.063 37.985917,37.985917 0 0 0 3.56671,1.3017 37.985917,37.985917 0 0 0 3.67884,0.9395 37.985917,37.985917 0 0 0 3.75481,0.5674 37.985917,37.985917 0 0 0 3.79202,0.1896 37.985917,37.985917 0 0 0 2.68718,-0.095 37.985917,37.985917 0 0 0 3.76927,-0.4573 37.985917,37.985917 0 0 0 3.70469,-0.8315 37.985917,37.985917 0 0 0 3.60339,-1.1973 37.985917,37.985917 0 0 0 1.14205,-0.5111 17.399542,17.399542 0 0 0 -0.2651,-0.462 17.399542,17.399542 0 0 0 -1.01182,-1.4149 17.399542,17.399542 0 0 0 -1.14773,-1.3069 17.399542,17.399542 0 0 0 -1.2728,-1.1854 17.399542,17.399542 0 0 0 -1.38441,-1.0527 17.399542,17.399542 0 0 0 -1.48311,-0.909 17.399542,17.399542 0 0 0 -1.5658,-0.7565 17.399542,17.399542 0 0 0 -1.53479,-0.5602 27.807198,27.807198 0 0 0 -2.57762,-0.3896 27.807198,27.807198 0 0 0 -2.77606,-0.139 27.807198,27.807198 0 0 0 -1.96732,0.07 27.807198,27.807198 0 0 0 -2.73058,0.3312 17.399542,17.399542 0 0 0 -1.49448,0.4971 17.399542,17.399542 0 0 0 -1.5875,0.7101 17.399542,17.399542 0 0 0 -1.508445,0.8656 17.399542,17.399542 0 0 0 -1.414896,1.0118 17.399542,17.399542 0 0 0 -1.30638,1.1477 17.399542,17.399542 0 0 0 -1.18546,1.2728 17.399542,17.399542 0 0 0 -1.05265,1.3844 17.399542,17.399542 0 0 0 -0.562229,0.9168 z"
       id="path5573"
       inkscape:connector-curvature="0" />
    <circle
       style="display:inline;opacity:1;fill:url(#linearGradient5767);fill-opacity:1;stroke:#000000;stroke-width:0;stroke-linecap:round;stroke-linejoin:miter;stroke-miterlimit:4;stroke-dasharray:none;stroke-opacity:1;paint-order:markers fill stroke"
       id="path836-2-6-5"
       cx="108.89167"
       cy="51.884655"
       r="3.3068922" />
    <path
       inkscape:connector-curvature="0"
       style="display:inline;opacity:1;fill:url(#linearGradient3418-7);fill-opacity:1;stroke:#fa0000;stroke-width:0;stroke-linecap:round;stroke-linejoin:miter;stroke-miterlimit:4;stroke-dasharray:none;stroke-opacity:1;paint-order:markers fill stroke"
       d="m 150.14043,236.12084 a 109.95491,109.95491 0 0 1 -1.26152,0.5648 109.95491,109.95491 0 0 1 -5.93341,2.6556 109.95491,109.95491 0 0 1 -9.06497,3.012 109.95491,109.95491 0 0 1 -1.36545,0.4537 109.95491,109.95491 0 0 1 -10.72356,2.4069 109.95491,109.95491 0 0 1 -10.91136,1.3245 109.95491,109.95491 0 0 1 -7.77764,0.2753 109.95491,109.95491 0 0 1 -10.977371,-0.5491 109.95491,109.95491 0 0 1 -10.867639,-1.6421 109.95491,109.95491 0 0 1 -5.888251,-1.5037 109.95491,109.95491 0 0 1 -4.76076,-1.2157 109.95491,109.95491 0 0 1 -10.324341,-3.7687 109.95491,109.95491 0 0 1 -3.11794,-1.5059 10.535916,10.535916 0 0 0 -0.36699,0.3935 10.535916,10.535916 0 0 0 -0.6372,0.8379 10.535916,10.535916 0 0 0 -0.55049,0.8981 10.535916,10.535916 0 0 0 -0.45872,0.9481 10.535916,10.535916 0 0 0 -0.36054,0.9893 10.535916,10.535916 0 0 0 -0.2609,1.0207 10.535916,10.535916 0 0 0 -0.15697,1.0414 10.535916,10.535916 0 0 0 -0.053,1.0515 10.535916,10.535916 0 0 0 0.0265,0.7454 10.535916,10.535916 0 0 0 0.12691,1.0451 10.535916,10.535916 0 0 0 0.2308,1.0278 10.535916,10.535916 0 0 0 0.33186,0.9992 10.535916,10.535916 0 0 0 0.43006,0.9619 10.535916,10.535916 0 0 0 0.52396,0.9131 10.535916,10.535916 0 0 0 0.61283,0.8566 10.535916,10.535916 0 0 0 0.69527,0.7913 10.535916,10.535916 0 0 0 0.77053,0.7182 10.535916,10.535916 0 0 0 0.83861,0.6372 10.535916,10.535916 0 0 0 0.8974,0.5505 10.535916,10.535916 0 0 0 0.56194,0.2716 10.535916,10.535916 0 0 0 0.38634,0.1864 10.535916,10.535916 0 0 0 0.98915,0.3612 10.535916,10.535916 0 0 0 0.415,0.1054 128.51988,128.51988 0 0 0 4.012471,1.4645 128.51988,128.51988 0 0 0 12.44668,3.1781 128.51988,128.51988 0 0 0 12.702559,1.9195 128.51988,128.51988 0 0 0 12.830922,0.6422 128.51988,128.51988 0 0 0 9.09078,-0.3218 128.51988,128.51988 0 0 0 12.75344,-1.5482 128.51988,128.51988 0 0 0 12.53412,-2.8133 128.51988,128.51988 0 0 0 1.88152,-0.625 128.51988,128.51988 0 0 0 10.31,-3.4263 128.51988,128.51988 0 0 0 1.92309,-0.8608 10.535916,10.535916 0 0 0 0.38705,-0.6322 10.535916,10.535916 0 0 0 0.45874,-0.9483 10.535916,10.535916 0 0 0 0.36053,-0.9891 10.535916,10.535916 0 0 0 0.2609,-1.0207 10.535916,10.535916 0 0 0 0.15697,-1.0414 10.535916,10.535916 0 0 0 0.0165,-0.3333 10.535916,10.535916 0 0 0 0.0366,-0.7182 10.535916,10.535916 0 0 0 -0.0265,-0.7455 10.535916,10.535916 0 0 0 -0.12692,-1.045 10.535916,10.535916 0 0 0 -0.23078,-1.0278 10.535916,10.535916 0 0 0 -0.33188,-0.9992 10.535916,10.535916 0 0 0 -0.43006,-0.9619 10.535916,10.535916 0 0 0 -0.52395,-0.9132 10.535916,10.535916 0 0 0 -0.61283,-0.8565 10.535916,10.535916 0 0 0 -0.69527,-0.7913 10.535916,10.535916 0 0 0 -0.0774,-0.072 52.687643,52.687643 0 0 0 -0.83719,-1.87 52.687643,52.687643 0 0 0 -0.28814,-0.5025 z"
       id="path3241-0" />
    <path
       style="display:inline;opacity:1;fill:url(#linearGradient3394-2);fill-opacity:1;stroke:#fa0000;stroke-width:0;stroke-linecap:round;stroke-linejoin:miter;stroke-miterlimit:4;stroke-dasharray:none;stroke-opacity:1;paint-order:markers fill stroke"
       d="m 108.34494,74.138539 a 26.861109,26.861109 0 0 0 -1.90014,0.068 26.861109,26.861109 0 0 0 -2.66495,0.3233 26.861109,26.861109 0 0 0 -0.46446,0.104 26.861109,26.861109 0 0 0 -2.15532,0.483801 26.861109,26.861109 0 0 0 -2.548135,0.847198 26.861109,26.861109 0 0 0 -0.869436,0.3892 26.861109,26.861109 0 0 0 -1.58192,0.707501 26.861109,26.861109 0 0 0 -2.328791,1.336 26.861109,26.861109 0 0 0 -2.183998,1.561899 26.861109,26.861109 0 0 0 -2.017001,1.771801 26.861109,26.861109 0 0 0 -1.830609,1.9646 26.861109,26.861109 0 0 0 -1.62492,2.137399 26.861109,26.861109 0 0 0 -1.403432,2.288802 26.861109,26.861109 0 0 0 -1.16762,2.417599 26.861109,26.861109 0 0 0 -0.920329,2.522299 26.861109,26.861109 0 0 0 -0.42145,1.65 26.861109,26.861109 0 0 0 -0.234399,0.918202 26.861109,26.861109 0 0 1 0.528269,0.255098 26.861109,26.861109 0 0 1 0.728949,0.352002 26.861109,26.861109 0 0 1 2.28864,1.4034 26.861109,26.861109 0 0 1 2.13741,1.624899 26.861109,26.861109 0 0 1 1.964661,1.829901 26.861109,26.861109 0 0 1 0.56624,0.6444 26.861109,26.861109 0 0 1 0.4401,0.501 26.861109,26.861109 0 0 1 0.766231,0.8723 26.861109,26.861109 0 0 1 1.56183,2.184 26.861109,26.861109 0 0 1 1.335349,2.3287 26.861109,26.861109 0 0 1 1.097389,2.4508 26.861109,26.861109 0 0 1 0.752602,2.2657 26.861109,26.861109 0 0 0 1.689428,0.8163 26.861109,26.861109 0 0 0 2.521602,0.9204 26.861109,26.861109 0 0 0 2.60188,0.6644 26.861109,26.861109 0 0 0 2.65491,0.4014 26.861109,26.861109 0 0 0 2.68142,0.1345 26.861109,26.861109 0 0 0 1.90017,-0.068 26.861109,26.861109 0 0 0 2.66566,-0.3233 26.861109,26.861109 0 0 0 1.61631,-0.3635 26.861109,26.861109 0 0 1 0.66086,-2.5888 26.861109,26.861109 0 0 1 0.92103,-2.5224 26.861109,26.861109 0 0 1 1.16762,-2.4177 26.861109,26.861109 0 0 1 1.40344,-2.2893 26.861109,26.861109 0 0 1 1.62491,-2.1374 26.861109,26.861109 0 0 1 1.83063,-1.9647 26.861109,26.861109 0 0 1 1.30164,-1.1432 26.861109,26.861109 0 0 1 0.71534,-0.6286 26.861109,26.861109 0 0 1 2.18399,-1.561801 26.861109,26.861109 0 0 1 1.19558,-0.685999 26.861109,26.861109 0 0 1 1.1332,-0.6502 26.861109,26.861109 0 0 1 2.45064,-1.096499 26.861109,26.861109 0 0 1 2.54812,-0.8465 26.861109,26.861109 0 0 1 0.57411,-0.129001 26.861109,26.861109 0 0 0 -0.0111,-0.049 26.861109,26.861109 0 0 0 -0.8465,-2.547401 26.861109,26.861109 0 0 0 -1.09736,-2.451301 26.861109,26.861109 0 0 0 -1.33533,-2.328799 26.861109,26.861109 0 0 0 -1.56184,-2.184 26.861109,26.861109 0 0 0 -1.77258,-2.017099 26.861109,26.861109 0 0 0 -1.96466,-1.830602 26.861109,26.861109 0 0 0 -2.1374,-1.624899 26.861109,26.861109 0 0 0 -2.28864,-1.4034 26.861109,26.861109 0 0 0 -2.22128,-1.072999 26.861109,26.861109 0 0 0 -0.19639,-0.094 26.861109,26.861109 0 0 0 -2.43127,-0.888101 26.861109,26.861109 0 0 0 -0.091,-0.033 26.861109,26.861109 0 0 0 -2.60186,-0.6637 26.861109,26.861109 0 0 0 -2.65492,-0.4014 26.861109,26.861109 0 0 0 -2.68143,-0.1345 z"
       id="path3213-6"
       inkscape:connector-curvature="0" />
    <path
       inkscape:connector-curvature="0"
       id="path3299-2"
       style="display:inline;opacity:1;fill:url(#radialGradient3402-5);fill-opacity:1;stroke:#fa0000;stroke-width:0;stroke-linecap:round;stroke-linejoin:miter;stroke-miterlimit:4;stroke-dasharray:none;stroke-opacity:1;paint-order:markers fill stroke"
       d="m 96.1957,110.87364 a 26.861109,26.861109 0 0 1 0.0939,0.2824 26.861109,26.861109 0 0 1 0.587772,2.6198 26.861109,26.861109 0 0 1 0.323969,2.6655 26.861109,26.861109 0 0 1 0.0667,1.9002 26.861109,26.861109 0 0 1 -0.13399,2.6814 26.861109,26.861109 0 0 1 -0.401392,2.6549 26.861109,26.861109 0 0 1 -0.008,0.033 26.861109,26.861109 0 0 1 -0.655132,2.5676 26.861109,26.861109 0 0 1 -0.92106,2.5223 26.861109,26.861109 0 0 1 -1.167609,2.4176 26.861109,26.861109 0 0 1 -1.40345,2.2893 26.861109,26.861109 0 0 1 -0.278101,0.3663 94.060579,94.060579 0 0 1 1.788332,7.9676 94.060579,94.060579 0 0 1 1.133229,9.3338 94.060579,94.060579 0 0 1 0.235101,6.6537 94.060579,94.060579 0 0 1 -0.469482,9.3904 94.060579,94.060579 0 0 1 -1.40488,9.2964 94.060579,94.060579 0 0 1 -2.32664,9.1102 94.060579,94.060579 0 0 1 -3.224029,8.832 94.060579,94.060579 0 0 1 -4.089149,8.4658 94.060579,94.060579 0 0 1 -4.914891,8.0156 94.060579,94.060579 0 0 1 -5.68969,7.4851 94.060579,94.060579 0 0 1 -1.18052,1.2674 52.687643,52.687643 0 0 1 2.84986,-2.0379 52.687643,52.687643 0 0 1 4.56869,-2.6205 52.687643,52.687643 0 0 1 4.80664,-2.151 52.687643,52.687643 0 0 1 4.99803,-1.6607 52.687643,52.687643 0 0 1 5.13852,-1.154 52.687643,52.687643 0 0 1 5.228137,-0.6344 52.687643,52.687643 0 0 1 3.727205,-0.1318 52.687643,52.687643 0 0 1 5.26038,0.2631 52.687643,52.687643 0 0 1 5.20731,0.787 52.687643,52.687643 0 0 1 5.10268,1.3031 52.687643,52.687643 0 0 1 4.94712,1.8062 52.687643,52.687643 0 0 1 4.74215,2.2902 52.687643,52.687643 0 0 1 4.48984,2.7531 52.687643,52.687643 0 0 1 3.35447,2.5495 94.060579,94.060579 0 0 1 -0.30965,-0.3519 94.060579,94.060579 0 0 1 -5.46894,-7.648 94.060579,94.060579 0 0 1 -4.67834,-8.1553 94.060579,94.060579 0 0 1 -3.84044,-8.582 94.060579,94.060579 0 0 1 -2.96456,-8.923 94.060579,94.060579 0 0 1 -2.05928,-9.1738 94.060579,94.060579 0 0 1 -1.13321,-9.3331 94.060579,94.060579 0 0 1 -0.23582,-6.6537 94.060579,94.060579 0 0 1 0.4702,-9.3905 94.060579,94.060579 0 0 1 1.40487,-9.2964 94.060579,94.060579 0 0 1 2.13167,-8.3482 26.861109,26.861109 0 0 1 -0.0853,-0.097 26.861109,26.861109 0 0 1 -1.56183,-2.1841 26.861109,26.861109 0 0 1 -1.33534,-2.3288 26.861109,26.861109 0 0 1 -1.09738,-2.4506 26.861109,26.861109 0 0 1 -0.84651,-2.5481 26.861109,26.861109 0 0 1 -0.0111,-0.047 26.861109,26.861109 0 0 1 -0.57699,-2.5725 26.861109,26.861109 0 0 1 -0.32399,-2.6656 26.861109,26.861109 0 0 1 -0.0674,-1.9002 26.861109,26.861109 0 0 1 0.13469,-2.6813 26.861109,26.861109 0 0 1 0.40139,-2.6551 26.861109,26.861109 0 0 1 0.003,-0.014 26.861109,26.861109 0 0 1 -1.6163,0.3634 26.861109,26.861109 0 0 1 -2.66567,0.3233 26.861109,26.861109 0 0 1 -1.90015,0.068 26.861109,26.861109 0 0 1 -2.68144,-0.1346 26.861109,26.861109 0 0 1 -2.6549,-0.4014 26.861109,26.861109 0 0 1 -2.60188,-0.6644 26.861109,26.861109 0 0 1 -2.5216,-0.9204 26.861109,26.861109 0 0 1 -1.68945,-0.8164 z m 7.27739,96.9607 a 52.687643,52.687643 0 0 0 -3.727225,0.1318 52.687643,52.687643 0 0 0 -5.228137,0.6342 52.687643,52.687643 0 0 0 -5.13852,1.1541 52.687643,52.687643 0 0 0 -4.998019,1.6608 52.687643,52.687643 0 0 0 -4.80665,2.151 52.687643,52.687643 0 0 0 -4.56868,2.6205 52.687643,52.687643 0 0 0 -2.84987,2.0377 94.060579,94.060579 0 0 1 -5.22811,5.6123 94.060579,94.060579 0 0 1 -5.018091,4.4082 52.687643,52.687643 0 0 0 -1.92165,2.5273 52.687643,52.687643 0 0 0 -2.75311,4.4898 52.687643,52.687643 0 0 0 -0.54833,1.1347 109.95491,109.95491 0 0 0 0.47952,0.2315 109.95491,109.95491 0 0 0 3.11794,1.5059 109.95491,109.95491 0 0 0 10.324341,3.7687 109.95491,109.95491 0 0 0 4.76076,1.2158 109.95491,109.95491 0 0 0 5.888251,1.5038 109.95491,109.95491 0 0 0 10.867639,1.6421 109.95491,109.95491 0 0 0 10.977371,0.549 109.95491,109.95491 0 0 0 7.77764,-0.2752 109.95491,109.95491 0 0 0 10.91136,-1.3246 109.95491,109.95491 0 0 0 10.72356,-2.407 109.95491,109.95491 0 0 0 1.36545,-0.4537 109.95491,109.95491 0 0 0 9.06498,-3.0119 109.95491,109.95491 0 0 0 5.9334,-2.6556 109.95491,109.95491 0 0 0 1.26152,-0.5648 52.687643,52.687643 0 0 0 -2.33239,-4.0662 52.687643,52.687643 0 0 0 -1.68369,-2.3539 94.060579,94.060579 0 0 1 -3.65193,-3.4024 94.060579,94.060579 0 0 1 -5.8954,-6.7119 52.687643,52.687643 0 0 0 -3.35448,-2.5495 52.687643,52.687643 0 0 0 -4.48984,-2.7531 52.687643,52.687643 0 0 0 -4.74214,-2.2901 52.687643,52.687643 0 0 0 -4.94713,-1.8062 52.687643,52.687643 0 0 0 -5.10268,-1.3031 52.687643,52.687643 0 0 0 -5.20731,-0.787 52.687643,52.687643 0 0 0 -5.26035,-0.2632 z" />
    <path
       inkscape:connector-curvature="0"
       style="display:inline;opacity:1;fill:url(#linearGradient5753);fill-opacity:1;stroke:#fa0000;stroke-width:0;stroke-linecap:round;stroke-linejoin:miter;stroke-miterlimit:4;stroke-dasharray:none;stroke-opacity:1;paint-order:markers fill stroke"
       d="m 90.291639,60.121839 a 27.807198,27.807198 0 0 0 -0.740521,0.6506 79.273575,79.273575 0 0 1 2.609662,3.6494 79.273575,79.273575 0 0 1 1.960078,2.7404 79.273575,79.273575 0 0 1 3.942911,6.8735 79.273575,79.273575 0 0 1 0.756026,1.6898 49.603128,49.603128 0 0 0 1.894465,0.4837 49.603128,49.603128 0 0 0 4.90254,0.741101 49.603128,49.603128 0 0 0 4.95215,0.247999 49.603128,49.603128 0 0 0 3.50883,-0.1245 49.603128,49.603128 0 0 0 3.66438,-0.445 79.273575,79.273575 0 0 1 1.87689,-3.885 79.273575,79.273575 0 0 1 4.14187,-6.7551 79.273575,79.273575 0 0 1 1.00303,-1.3193 79.273575,79.273575 0 0 1 2.67994,-3.5254 27.807198,27.807198 0 0 0 -1.04955,-0.9777 37.985917,37.985917 0 0 1 -0.74982,0.4299 37.985917,37.985917 0 0 1 -2.32389,1.0403 37.985917,37.985917 0 0 1 -1.14205,0.511 37.985917,37.985917 0 0 1 -3.6034,1.1974 37.985917,37.985917 0 0 1 -3.70468,0.8315 37.985917,37.985917 0 0 1 -3.76928,0.4573 37.985917,37.985917 0 0 1 -2.68717,0.095 37.985917,37.985917 0 0 1 -3.79202,-0.1897 37.985917,37.985917 0 0 1 -3.75481,-0.5674 37.985917,37.985917 0 0 1 -3.678841,-0.9394 37.985917,37.985917 0 0 1 -3.56671,-1.3018 37.985917,37.985917 0 0 1 -0.13023,-0.063 37.985917,37.985917 0 0 1 -3.1998,-1.5456 z"
       id="path5581" />
  </g>
</svg>
