<?xml version="1.0" encoding="UTF-8" standalone="no"?>
<!-- Created with Inkscape (http://www.inkscape.org/) -->

<svg
   xmlns:dc="http://purl.org/dc/elements/1.1/"
   xmlns:cc="http://creativecommons.org/ns#"
   xmlns:rdf="http://www.w3.org/1999/02/22-rdf-syntax-ns#"
   xmlns:svg="http://www.w3.org/2000/svg"
   xmlns="http://www.w3.org/2000/svg"
   xmlns:xlink="http://www.w3.org/1999/xlink"
   xmlns:sodipodi="http://sodipodi.sourceforge.net/DTD/sodipodi-0.dtd"
   xmlns:inkscape="http://www.inkscape.org/namespaces/inkscape"
   width="210mm"
   height="297mm"
   viewBox="0 0 210 297"
   version="1.1"
   id="svg10229"
   inkscape:version="0.92.3 (2405546, 2018-03-11)"
   sodipodi:docname="bR.svg">
  <defs
     id="defs10223">
    <linearGradient
       inkscape:collect="always"
       id="linearGradient12395">
      <stop
         style="stop-color:#000000;stop-opacity:1;"
         offset="0"
         id="stop12391" />
      <stop
         style="stop-color:#808080;stop-opacity:1"
         offset="1"
         id="stop12393" />
    </linearGradient>
    <linearGradient
       id="linearGradient12389"
       inkscape:collect="always">
      <stop
         id="stop12385"
         offset="0"
         style="stop-color:#000000;stop-opacity:1;" />
      <stop
         id="stop12387"
         offset="1"
         style="stop-color:#808080;stop-opacity:1" />
    </linearGradient>
    <linearGradient
       inkscape:collect="always"
       xlink:href="#linearGradient20621"
       id="linearGradient20615"
       x1="1985.1484"
       y1="211.13672"
       x2="1172.8558"
       y2="396.38995"
       gradientUnits="userSpaceOnUse"
       gradientTransform="matrix(0.27953853,0,0,0.27953853,-413.82647,33.486421)" />
    <linearGradient
       inkscape:collect="always"
       id="linearGradient20621">
      <stop
         style="stop-color:#333333;stop-opacity:1;"
         offset="0"
         id="stop20617" />
      <stop
         style="stop-color:#cccccc;stop-opacity:1"
         offset="1"
         id="stop20619" />
    </linearGradient>
    <linearGradient
       gradientTransform="matrix(0.27953853,0,0,0.27953853,-413.82647,30.131959)"
       inkscape:collect="always"
       xlink:href="#linearGradient15725"
       id="linearGradient20663"
       x1="1672"
       y1="781.97266"
       x2="1909.1884"
       y2="722.49927"
       gradientUnits="userSpaceOnUse" />
    <linearGradient
       inkscape:collect="always"
       id="linearGradient15725">
      <stop
         style="stop-color:#808080;stop-opacity:1"
         offset="0"
         id="stop15721" />
      <stop
         style="stop-color:#000000;stop-opacity:1"
         offset="1"
         id="stop15723" />
    </linearGradient>
    <linearGradient
       gradientTransform="matrix(0.27953853,0,0,0.27953853,-413.82647,30.131959)"
       inkscape:collect="always"
       xlink:href="#linearGradient5299"
       id="linearGradient20655"
       x1="1868.3184"
       y1="741.21875"
       x2="1672"
       y2="781.97266"
       gradientUnits="userSpaceOnUse" />
    <linearGradient
       inkscape:collect="always"
       id="linearGradient5299">
      <stop
         style="stop-color:#000000;stop-opacity:1;"
         offset="0"
         id="stop5295" />
      <stop
         style="stop-color:#808080;stop-opacity:1"
         offset="1"
         id="stop5297" />
    </linearGradient>
    <linearGradient
       gradientTransform="matrix(0.27953853,0,0,0.27953853,-413.82647,30.131959)"
       inkscape:collect="always"
       xlink:href="#linearGradient12389"
       id="linearGradient20637"
       x1="1923.459"
       y1="596.48828"
       x2="1735.442"
       y2="694.21503"
       gradientUnits="userSpaceOnUse" />
    <linearGradient
       inkscape:collect="always"
       id="linearGradient5219">
      <stop
         style="stop-color:#000000;stop-opacity:1;"
         offset="0"
         id="stop5215" />
      <stop
         style="stop-color:#808080;stop-opacity:1"
         offset="1"
         id="stop5217" />
    </linearGradient>
    <linearGradient
       gradientTransform="matrix(0.27953853,0,0,0.27953853,-413.82647,30.131959)"
       inkscape:collect="always"
       xlink:href="#linearGradient12395"
       id="linearGradient20629"
       x1="1948.7793"
       y1="283.74219"
       x2="1725.4961"
       y2="572.11914"
       gradientUnits="userSpaceOnUse" />
    <linearGradient
       id="linearGradient6689"
       inkscape:collect="always">
      <stop
         id="stop6685"
         offset="0"
         style="stop-color:#000000;stop-opacity:1;" />
      <stop
         id="stop6687"
         offset="1"
         style="stop-color:#808080;stop-opacity:1" />
    </linearGradient>
    <linearGradient
       gradientTransform="matrix(0.27953853,0,0,0.27953853,-413.82647,30.131959)"
       inkscape:collect="always"
       xlink:href="#linearGradient5219"
       id="linearGradient20639"
       x1="1923.459"
       y1="596.48828"
       x2="1733.4218"
       y2="669.97137"
       gradientUnits="userSpaceOnUse" />
    <linearGradient
       gradientTransform="matrix(0.27953853,0,0,0.27953853,-413.82647,30.131959)"
       inkscape:collect="always"
       xlink:href="#linearGradient6689"
       id="linearGradient20647"
       x1="1947.5741"
       y1="514.4079"
       x2="1688.8445"
       y2="649.45508"
       gradientUnits="userSpaceOnUse" />
  </defs>
  <sodipodi:namedview
     id="base"
     pagecolor="#ffffff"
     bordercolor="#666666"
     borderopacity="1.0"
     inkscape:pageopacity="0.0"
     inkscape:pageshadow="2"
     inkscape:zoom="0.35"
     inkscape:cx="-115.71429"
     inkscape:cy="560"
     inkscape:document-units="mm"
     inkscape:current-layer="layer1"
     showgrid="false"
     inkscape:window-width="1920"
     inkscape:window-height="1017"
     inkscape:window-x="0"
     inkscape:window-y="0"
     inkscape:window-maximized="1" />
  <metadata
     id="metadata10226">
    <rdf:RDF>
      <cc:Work
         rdf:about="">
        <dc:format>image/svg+xml</dc:format>
        <dc:type
           rdf:resource="http://purl.org/dc/dcmitype/StillImage" />
        <dc:title></dc:title>
      </cc:Work>
    </rdf:RDF>
  </metadata>
  <g
     inkscape:label="Layer 1"
     inkscape:groupmode="layer"
     id="layer1">
    <path
       inkscape:connector-curvature="0"
       style="opacity:1;vector-effect:none;fill:url(#linearGradient20647);fill-opacity:1;stroke:#000000;stroke-width:0;stroke-linecap:round;stroke-linejoin:miter;stroke-miterlimit:4;stroke-dasharray:none;stroke-dashoffset:0;stroke-opacity:1;paint-order:markers fill stroke"
       d="m 140.59563,199.38106 a 71.647442,71.647442 0 0 1 -1.98626,1.13945 11.024847,11.024847 0 0 0 0.0246,0.20147 23.882092,23.882092 0 0 0 -0.18182,-0.11139 71.647442,71.647442 0 0 1 -3.43963,1.97315 71.647442,71.647442 0 0 1 -1.32072,0.59129 71.647442,71.647442 0 0 1 -5.21623,2.33404 71.647442,71.647442 0 0 1 -2.18991,0.72778 71.647442,71.647442 0 0 1 -4.60582,1.53036 71.647442,71.647442 0 0 1 -6.98794,1.56859 71.647442,71.647442 0 0 1 -7.10966,0.86318 71.647442,71.647442 0 0 1 -3.4904,0.12394 23.882092,23.882092 0 0 0 -0.51648,1.06901 23.882092,23.882092 0 0 0 -0.81843,2.24232 23.882092,23.882092 0 0 1 0.81787,-2.24232 23.882092,23.882092 0 0 1 0.51651,-1.06901 71.647442,71.647442 0 0 1 -1.57789,0.0557 71.647442,71.647442 0 0 1 -3.148075,-0.15779 71.647442,71.647442 0 0 1 -4.00472,-0.20037 71.647442,71.647442 0 0 1 -7.08128,-1.07011 71.647442,71.647442 0 0 1 -6.93878,-1.77223 71.647442,71.647442 0 0 1 -2.786641,-1.01715 71.647442,71.647442 0 0 1 -3.94085,-1.43864 71.647442,71.647442 0 0 1 -2.1948,-1.06028 71.647442,71.647442 0 0 1 -3.92119,-1.89398 71.647442,71.647442 0 0 1 -0.33305,-0.16052 71.647442,71.647442 0 0 1 -2.07141,-1.26994 71.647442,71.647442 0 0 1 -1.43045,-0.87683 133.70428,133.70428 0 0 1 -4.083889,8.4544 133.70428,133.70428 0 0 1 -1.011681,1.64994 133.70429,133.70429 0 0 1 -0.355429,0.57982 133.70428,133.70428 0 0 1 -0.940701,1.53474 23.882092,23.882092 0 0 0 -1.01881,2.10854 23.882092,23.882092 0 0 0 -0.81841,2.24232 23.882092,23.882092 0 0 0 -0.59075,2.31329 23.882092,23.882092 0 0 0 -0.35705,2.36024 23.882092,23.882092 0 0 0 -0.11903,2.38427 23.882092,23.882092 0 0 0 0.0595,1.68924 23.882092,23.882092 0 0 0 0.0868,0.71632 23.882092,23.882092 0 0 0 0.20093,1.65375 23.882092,23.882092 0 0 0 0.52306,2.32913 23.882092,23.882092 0 0 0 0.39691,1.19405 71.647442,71.647442 0 0 0 3.72407,2.83087 71.647442,71.647442 0 0 0 3.06019,1.87651 71.647442,71.647442 0 0 0 3.04544,1.86723 71.647442,71.647442 0 0 0 6.4485,3.11478 71.647442,71.647442 0 0 0 6.727489,2.45579 71.647442,71.647442 0 0 0 6.939322,1.77223 71.647442,71.647442 0 0 0 2.25705,0.34123 71.647442,71.647442 0 0 0 4.82424,0.72887 71.647442,71.647442 0 0 0 7.152765,0.35762 71.647442,71.647442 0 0 0 5.0683,-0.17909 71.647442,71.647442 0 0 0 7.10967,-0.86318 71.647442,71.647442 0 0 0 5.99478,-1.34582 71.647442,71.647442 0 0 0 0.99312,-0.22275 71.647442,71.647442 0 0 0 6.79628,-2.25815 71.647442,71.647442 0 0 0 6.53695,-2.92533 71.647442,71.647442 0 0 0 6.21208,-3.56357 71.647442,71.647442 0 0 0 2.25051,-1.61008 v 0 a 71.647442,71.647442 0 0 0 3.57392,-2.5557 71.647442,71.647442 0 0 0 2.9985,-2.63432 23.882092,23.882092 0 0 0 0.0393,-0.1081 23.882092,23.882092 0 0 0 0.59076,-2.31275 23.882092,23.882092 0 0 0 0.35652,-2.3608 23.882092,23.882092 0 0 0 0.0185,-0.37071 23.882092,23.882092 0 0 0 0.101,-2.01355 23.882092,23.882092 0 0 0 -0.06,-1.68925 23.882092,23.882092 0 0 0 -0.28773,-2.36952 23.882092,23.882092 0 0 0 -0.52251,-2.32966 23.882092,23.882092 0 0 0 -0.41165,-1.23882 133.70428,133.70428 0 0 1 -1.9677,-3.43035 133.70428,133.70428 0 0 1 -2.63868,-4.59983 133.70429,133.70429 0 0 1 -2.00046,-3.48714 133.70429,133.70429 0 0 1 -0.96964,-2.16642 z m -37.83926,14.25374 a 23.882092,23.882092 0 0 0 -0.59075,2.31274 23.882092,23.882092 0 0 0 -0.0486,0.32158 23.882092,23.882092 0 0 1 0.14305,0.43077 23.882092,23.882092 0 0 1 0.52304,2.32913 23.882092,23.882092 0 0 1 0.28772,2.37006 23.882092,23.882092 0 0 1 0.0595,1.68925 23.882092,23.882092 0 0 1 -0.11902,2.38426 23.882092,23.882092 0 0 1 -0.30847,2.03758 23.882092,23.882092 0 0 0 0.60987,1.83612 23.882092,23.882092 0 0 0 0.97509,2.17897 23.882092,23.882092 0 0 0 1.18804,2.07033 23.882092,23.882092 0 0 0 1.38841,1.94203 23.882092,23.882092 0 0 0 1.5757,1.79352 23.882092,23.882092 0 0 1 -1.57567,-1.79352 23.882092,23.882092 0 0 1 -1.38842,-1.94203 23.882092,23.882092 0 0 1 -1.18804,-2.07033 23.882092,23.882092 0 0 1 -0.97511,-2.17897 23.882092,23.882092 0 0 1 -0.60985,-1.83612 23.882092,23.882092 0 0 0 0.30848,-2.03758 23.882092,23.882092 0 0 0 0.11902,-2.38426 23.882092,23.882092 0 0 0 -0.0595,-1.68925 23.882092,23.882092 0 0 0 -0.28773,-2.37006 23.882092,23.882092 0 0 0 -0.52304,-2.32913 23.882092,23.882092 0 0 0 -0.14304,-0.43077 23.882092,23.882092 0 0 1 0.0486,-0.32158 23.882092,23.882092 0 0 1 0.59075,-2.31274 z"
       id="path20311" />
    <path
       inkscape:connector-curvature="0"
       style="opacity:1;vector-effect:none;fill:url(#linearGradient20639);fill-opacity:1;stroke:#000000;stroke-width:0;stroke-linecap:round;stroke-linejoin:miter;stroke-miterlimit:4;stroke-dasharray:none;stroke-dashoffset:0;stroke-opacity:1;paint-order:markers fill stroke"
       d="m 66.262395,196.1489 a 133.70429,133.70429 0 0 1 -0.50339,1.04117 133.70428,133.70428 0 0 1 -1.09686,2.2707 71.647442,71.647442 0 0 0 1.43046,0.87683 71.647442,71.647442 0 0 0 2.07141,1.26994 71.647442,71.647442 0 0 0 0.33304,0.16052 71.647442,71.647442 0 0 0 3.9212,1.89398 71.647442,71.647442 0 0 0 2.19479,1.06028 71.647442,71.647442 0 0 0 3.94085,1.43864 71.647442,71.647442 0 0 0 2.786639,1.01715 71.647442,71.647442 0 0 0 6.938791,1.77223 71.647442,71.647442 0 0 0 7.081271,1.07011 71.647442,71.647442 0 0 0 4.004728,0.20037 71.647442,71.647442 0 0 0 3.148076,0.15779 71.647442,71.647442 0 0 0 1.57787,-0.0557 71.647442,71.647442 0 0 0 3.49041,-0.12394 71.647442,71.647442 0 0 0 7.10967,-0.86318 71.647442,71.647442 0 0 0 6.9879,-1.56859 71.647442,71.647442 0 0 0 4.60638,-1.53036 71.647442,71.647442 0 0 0 2.1899,-0.72778 71.647442,71.647442 0 0 0 5.21625,-2.33404 71.647442,71.647442 0 0 0 1.32071,-0.59129 71.647442,71.647442 0 0 0 3.43964,-1.97315 71.647442,71.647442 0 0 0 0.15724,-0.0901 71.647442,71.647442 0 0 0 1.98626,-1.13945 133.70428,133.70428 0 0 1 -1.29451,-2.89311 71.647442,71.647442 0 0 1 -0.53778,0.30847 71.647442,71.647442 0 0 1 -3.19722,1.83392 71.647442,71.647442 0 0 1 -0.43024,0.19218 71.647442,71.647442 0 0 1 -4.88427,2.18609 71.647442,71.647442 0 0 1 -1.22245,0.54706 71.647442,71.647442 0 0 1 -6.20609,2.06269 71.647442,71.647442 0 0 1 -0.59019,0.19601 71.647442,71.647442 0 0 1 -6.98791,1.56803 71.647442,71.647442 0 0 1 -7.10966,0.86319 71.647442,71.647442 0 0 1 -1.58552,0.0562 71.647442,71.647442 0 0 1 -3.48277,0.12338 71.647442,71.647442 0 0 1 -7.093815,-0.35542 71.647442,71.647442 0 0 1 -0.0589,-0.003 71.647442,71.647442 0 0 1 -7.08128,-1.07011 71.647442,71.647442 0 0 1 -6.643401,-1.69635 71.647442,71.647442 0 0 1 -0.295921,-0.0753 71.647442,71.647442 0 0 1 -5.473939,-1.99826 71.647442,71.647442 0 0 1 -1.25354,-0.45753 71.647442,71.647442 0 0 1 -1.71108,-0.8266 71.647442,71.647442 0 0 1 -4.73743,-2.28872 71.647442,71.647442 0 0 1 -2.45525,-1.50525 z"
       id="path20369" />
    <path
       inkscape:connector-curvature="0"
       style="opacity:1;vector-effect:none;fill:url(#linearGradient20629);fill-opacity:1;stroke:#000000;stroke-width:0;stroke-linecap:round;stroke-linejoin:miter;stroke-miterlimit:4;stroke-dasharray:none;stroke-dashoffset:0;stroke-opacity:1;paint-order:markers fill stroke"
       d="m 72.591315,108.60147 a 71.647442,71.647442 0 0 0 -0.35761,0.15998 133.70429,133.70429 0 0 1 2.76701,12.32699 133.70429,133.70429 0 0 1 1.61062,13.26715 133.70429,133.70429 0 0 1 0.33466,9.4579 133.70429,133.70429 0 0 1 -0.66771,13.34851 133.70429,133.70429 0 0 1 -1.99719,13.21476 133.70429,133.70429 0 0 1 -3.30641,12.9494 133.70429,133.70429 0 0 1 -2.45851,6.73513 71.647442,71.647442 0 0 0 1.33054,0.81568 71.647442,71.647442 0 0 0 6.44904,3.11533 71.647442,71.647442 0 0 0 6.72749,2.4558 71.647442,71.647442 0 0 0 3.379041,0.86263 44.80859,44.80859 0 0 0 -0.77039,0.17308 44.80859,44.80859 0 0 0 -4.250412,1.41243 44.80859,44.80859 0 0 0 -0.83752,0.37453 23.882093,23.882093 0 0 1 1.088692,0.0546 23.882093,23.882093 0 0 1 2.360228,0.35707 23.882093,23.882093 0 0 1 2.313292,0.59074 23.882093,23.882093 0 0 1 0.46845,0.17089 44.808592,44.808592 0 0 1 0.901399,-0.51703 44.808592,44.808592 0 0 1 3.429269,-1.53474 71.647442,71.647442 0 0 0 5.938542,0.89758 71.647442,71.647442 0 0 0 7.152794,0.35816 71.647442,71.647442 0 0 0 5.06829,-0.17963 71.647442,71.647442 0 0 0 4.52011,-0.54869 71.647442,71.647442 0 0 0 2.58901,-0.31394 71.647442,71.647442 0 0 0 0.31775,-0.0715 23.882093,23.882093 0 0 1 0.22603,-0.10101 23.882093,23.882093 0 0 1 2.2658,-0.7529 23.882093,23.882093 0 0 1 2.32912,-0.52249 23.882093,23.882093 0 0 1 0.012,-0.002 23.882093,23.882093 0 0 1 2.32968,-0.28281 71.647442,71.647442 0 0 0 6.30435,-2.09436 71.647442,71.647442 0 0 0 6.53694,-2.92587 71.647442,71.647442 0 0 0 0.42258,-0.24241 133.70429,133.70429 0 0 1 -1.01224,-2.26252 133.70429,133.70429 0 0 1 -4.21437,-12.68297 133.70429,133.70429 0 0 1 -2.92696,-13.04057 133.70429,133.70429 0 0 1 -1.61062,-13.26718 133.70429,133.70429 0 0 1 -0.3347,-9.4579 133.70429,133.70429 0 0 1 0.66774,-13.34796 133.70429,133.70429 0 0 1 1.99718,-13.21473 133.70429,133.70429 0 0 1 1.2481,-4.88811 71.647442,71.647442 0 0 0 -0.0469,-0.0224 61.28167,61.28167 0 0 1 -0.58583,0.33577 61.28167,61.28167 0 0 1 -5.59131,2.5022 61.28167,61.28167 0 0 1 -5.81297,1.93165 61.28167,61.28167 0 0 1 -5.97734,1.34146 61.28167,61.28167 0 0 1 -6.0805,0.73815 61.28167,61.28167 0 0 1 -4.33503,0.15341 61.28167,61.28167 0 0 1 -6.118174,-0.30628 61.28167,61.28167 0 0 1 -6.0565,-0.91506 61.28167,61.28167 0 0 1 -5.935279,-1.51561 61.28167,61.28167 0 0 1 -5.75455,-2.10037 61.28167,61.28167 0 0 1 -5.51544,-2.66435 61.28167,61.28167 0 0 1 -0.53123,-0.32594 z"
       id="path20181" />
    <path
       inkscape:connector-curvature="0"
       style="opacity:1;vector-effect:none;fill:url(#linearGradient20637);fill-opacity:1;stroke:#000000;stroke-width:0;stroke-linecap:round;stroke-linejoin:miter;stroke-miterlimit:4;stroke-dasharray:none;stroke-dashoffset:0;stroke-opacity:1;paint-order:markers fill stroke"
       d="m 68.516175,190.06129 a 133.70428,133.70428 0 0 1 -2.12438,5.81954 133.70428,133.70428 0 0 1 -0.1294,0.26807 71.647442,71.647442 0 0 0 2.45525,1.50525 71.647442,71.647442 0 0 0 4.73742,2.28871 71.647442,71.647442 0 0 0 1.71108,0.82661 71.647442,71.647442 0 0 0 1.25353,0.45752 71.647442,71.647442 0 0 0 5.47396,1.99827 71.647442,71.647442 0 0 0 0.295921,0.0753 71.647442,71.647442 0 0 0 6.643399,1.69634 71.647442,71.647442 0 0 0 7.081261,1.07012 71.647442,71.647442 0 0 0 0.059,0.003 71.647442,71.647442 0 0 0 7.093824,0.35543 71.647442,71.647442 0 0 0 3.48276,-0.12339 71.647442,71.647442 0 0 0 1.58552,-0.0562 71.647442,71.647442 0 0 0 7.10967,-0.86318 71.647442,71.647442 0 0 0 6.9879,-1.56804 71.647442,71.647442 0 0 0 0.5902,-0.196 71.647442,71.647442 0 0 0 6.20608,-2.06269 71.647442,71.647442 0 0 0 1.22245,-0.54706 71.647442,71.647442 0 0 0 4.88427,-2.18609 71.647442,71.647442 0 0 0 0.43023,-0.19218 71.647442,71.647442 0 0 0 3.19722,-1.83392 11.024847,11.024847 0 0 1 0.23641,-0.92652 11.024847,11.024847 0 0 1 0.0109,-0.0305 133.70428,133.70428 0 0 1 -1.89232,-4.22856 71.647442,71.647442 0 0 1 -0.42258,0.24242 71.647442,71.647442 0 0 1 -6.53696,2.92587 71.647442,71.647442 0 0 1 -6.30435,2.09435 23.882093,23.882093 0 0 0 -2.32966,0.28282 23.882093,23.882093 0 0 0 -0.0121,0.002 23.882093,23.882093 0 0 0 -2.32912,0.52249 23.882093,23.882093 0 0 0 -2.26579,0.7529 23.882093,23.882093 0 0 0 -0.22604,0.10101 71.647442,71.647442 0 0 1 -0.31775,0.0715 71.647442,71.647442 0 0 1 -2.589,0.31393 71.647442,71.647442 0 0 1 -4.52011,0.5487 71.647442,71.647442 0 0 1 -5.06829,0.17963 71.647442,71.647442 0 0 1 -7.15279,-0.35816 71.647442,71.647442 0 0 1 -5.938549,-0.89758 44.808592,44.808592 0 0 0 -3.429273,1.53473 44.808592,44.808592 0 0 0 -0.901398,0.51704 23.882092,23.882092 0 0 0 -0.468461,-0.17089 23.882092,23.882092 0 0 0 -2.313289,-0.59075 23.882092,23.882092 0 0 0 -2.360232,-0.35706 23.882092,23.882092 0 0 0 -1.088678,-0.0546 44.80859,44.80859 0 0 1 0.837531,-0.37454 44.80859,44.80859 0 0 1 4.250399,-1.41242 44.80859,44.80859 0 0 1 0.770389,-0.17308 71.647442,71.647442 0 0 1 -3.379041,-0.86264 71.647442,71.647442 0 0 1 -6.727489,-2.45579 71.647442,71.647442 0 0 1 -6.44903,-3.11533 71.647442,71.647442 0 0 1 -1.33055,-0.81569 z"
       id="path20243" />
    <path
       style="opacity:1;vector-effect:none;fill:#b3b3b3;fill-opacity:1;stroke:#000000;stroke-width:0;stroke-linecap:round;stroke-linejoin:miter;stroke-miterlimit:4;stroke-dasharray:none;stroke-dashoffset:0;stroke-opacity:1;paint-order:markers fill stroke"
       d="m 72.233705,108.76145 a 71.647442,71.647442 0 0 1 0.35761,-0.15998 61.28167,61.28167 0 0 1 -0.45587,-0.27953 133.70429,133.70429 0 0 1 0.0983,0.43951 z"
       id="path20397"
       inkscape:connector-curvature="0" />
    <path
       style="opacity:1;vector-effect:none;fill:#b3b3b3;fill-opacity:1;stroke:#000000;stroke-width:0;stroke-linecap:round;stroke-linejoin:miter;stroke-miterlimit:4;stroke-dasharray:none;stroke-dashoffset:0;stroke-opacity:1;paint-order:markers fill stroke"
       d="m 59.211145,210.14493 a 133.70429,133.70429 0 0 0 0.35544,-0.57982 23.882093,23.882093 0 0 0 -0.029,0.0382 23.882093,23.882093 0 0 0 -0.33416,0.54488 11.024846,11.024846 0 0 0 0.007,-0.003 z"
       id="path20381"
       inkscape:connector-curvature="0" />
    <path
       style="opacity:1;vector-effect:none;fill:#b3b3b3;fill-opacity:1;stroke:#000000;stroke-width:0;stroke-linecap:round;stroke-linejoin:miter;stroke-miterlimit:4;stroke-dasharray:none;stroke-dashoffset:0;stroke-opacity:1;paint-order:markers fill stroke"
       d="m 59.211145,210.14493 a 11.024846,11.024846 0 0 1 -0.007,0.003 23.882093,23.882093 0 0 0 -0.9134,1.4905 23.882093,23.882093 0 0 0 -0.0195,0.041 133.70429,133.70429 0 0 0 0.9407,-1.53473 z"
       id="path20379"
       inkscape:connector-curvature="0" />
    <path
       style="opacity:1;vector-effect:none;fill:#b3b3b3;fill-opacity:1;stroke:#000000;stroke-width:0;stroke-linecap:round;stroke-linejoin:miter;stroke-miterlimit:4;stroke-dasharray:none;stroke-dashoffset:0;stroke-opacity:1;paint-order:markers fill stroke"
       d="m 138.60937,200.52051 a 71.647442,71.647442 0 0 1 -0.15724,0.0901 23.882093,23.882093 0 0 1 0.18181,0.11139 11.024847,11.024847 0 0 1 -0.0246,-0.20147 z"
       id="path20325"
       inkscape:connector-curvature="0" />
    <path
       inkscape:connector-curvature="0"
       style="opacity:1;vector-effect:none;fill:url(#linearGradient20655);fill-opacity:1;stroke:#000000;stroke-width:0;stroke-linecap:round;stroke-linejoin:miter;stroke-miterlimit:4;stroke-dasharray:none;stroke-dashoffset:0;stroke-opacity:1;paint-order:markers fill stroke"
       d="m 150.53342,225.93831 a 71.647442,71.647442 0 0 1 -2.18551,1.91965 71.647442,71.647442 0 0 1 -2.9985,2.63432 71.647442,71.647442 0 0 1 -3.57394,2.55571 71.647442,71.647442 0 0 1 -2.2516,1.61007 71.647442,71.647442 0 0 1 -6.21209,3.56357 71.647442,71.647442 0 0 1 -6.53695,2.92533 71.647442,71.647442 0 0 1 -6.79626,2.25815 71.647442,71.647442 0 0 1 -0.99314,0.22275 71.647442,71.647442 0 0 1 -5.99479,1.34583 71.647442,71.647442 0 0 1 -7.10967,0.86318 71.647442,71.647442 0 0 1 -5.06829,0.17908 71.647442,71.647442 0 0 1 -7.152765,-0.35762 71.647442,71.647442 0 0 1 -4.824259,-0.72887 23.882093,23.882093 0 0 1 -0.93359,0.41767 23.882093,23.882093 0 0 0 0.93359,-0.41767 71.647442,71.647442 0 0 1 -2.255951,-0.34123 71.647442,71.647442 0 0 1 -6.93932,-1.77223 71.647442,71.647442 0 0 1 -6.72749,-2.45579 71.647442,71.647442 0 0 1 -6.44851,-3.11478 71.647442,71.647442 0 0 1 -3.04434,-1.86668 44.808592,44.808592 0 0 1 0,-5.3e-4 71.647442,71.647442 0 0 1 -3.06016,-1.87651 71.647442,71.647442 0 0 1 -3.7241,-2.83087 23.882093,23.882093 0 0 0 0.35597,1.0712 23.882093,23.882093 0 0 0 0.97511,2.17897 23.882093,23.882093 0 0 0 1.18751,2.07088 23.882093,23.882093 0 0 0 1.38895,1.94203 23.882093,23.882093 0 0 0 1.57513,1.79352 23.882093,23.882093 0 0 0 1.10558,1.02971 44.808592,44.808592 0 0 0 0,0.001 23.882093,23.882093 0 0 1 -1.10666,-1.0308 23.882093,23.882093 0 0 1 -1.57515,-1.79353 23.882093,23.882093 0 0 1 -1.38897,-1.94203 23.882093,23.882093 0 0 1 -1.18748,-2.07087 23.882093,23.882093 0 0 1 -0.97511,-2.17899 23.882093,23.882093 0 0 1 -0.35596,-1.0712 71.647442,71.647442 0 0 1 -1.97752,-1.50306 71.647442,71.647442 0 0 1 -0.23587,-0.22003 44.80859,44.80859 0 0 0 -0.71741,2.80958 44.80859,44.80859 0 0 0 -0.66936,4.42839 44.80859,44.80859 0 0 0 -0.21893,4.37544 83.754404,83.754404 0 0 0 0.70703,0.53723 83.754404,83.754404 0 0 0 7.13752,4.37599 83.754404,83.754404 0 0 0 3.12569,1.50961 83.754404,83.754404 0 0 0 4.41257,2.13149 83.754404,83.754404 0 0 0 7.8642,2.87072 83.754404,83.754404 0 0 0 8.11206,2.07143 83.754404,83.754404 0 0 0 8.277511,1.25137 83.754404,83.754404 0 0 0 8.361574,0.41821 83.754404,83.754404 0 0 0 5.92493,-0.20965 83.754404,83.754404 0 0 0 8.31079,-1.00895 83.754404,83.754404 0 0 0 8.16888,-1.83339 83.754404,83.754404 0 0 0 7.94445,-2.64033 83.754404,83.754404 0 0 0 7.64201,-3.41943 83.754404,83.754404 0 0 0 3.42325,-1.96387 83.754404,83.754404 0 0 0 3.83873,-2.20191 83.754404,83.754404 0 0 0 6.66636,-4.76799 44.808592,44.808592 0 0 0 -0.035,-0.99039 44.808592,44.808592 0 0 0 -0.53943,-4.44641 44.808592,44.808592 0 0 0 -0.98112,-4.37053 44.808592,44.808592 0 0 0 -0.64317,-1.93601 z"
       id="path20315" />
    <path
       inkscape:connector-curvature="0"
       style="opacity:1;vector-effect:none;fill:url(#linearGradient20663);fill-opacity:1;stroke:#000000;stroke-width:0;stroke-linecap:round;stroke-linejoin:miter;stroke-miterlimit:4;stroke-dasharray:none;stroke-dashoffset:0;stroke-opacity:1;paint-order:markers fill stroke"
       d="m 152.73208,237.68167 a 83.754404,83.754404 0 0 1 -6.66636,4.76798 83.754404,83.754404 0 0 1 -3.83873,2.20191 83.754404,83.754404 0 0 1 -3.42326,1.96387 83.754404,83.754404 0 0 1 -7.642,3.41944 83.754404,83.754404 0 0 1 -7.94445,2.64032 83.754404,83.754404 0 0 1 -8.16887,1.83338 83.754404,83.754404 0 0 1 -8.3108,1.00896 83.754404,83.754404 0 0 1 -5.92493,0.20965 83.754404,83.754404 0 0 1 -8.361574,-0.41821 83.754404,83.754404 0 0 1 -8.277501,-1.25137 83.754404,83.754404 0 0 1 -8.11207,-2.07143 83.754404,83.754404 0 0 1 -7.8642,-2.87073 83.754404,83.754404 0 0 1 -4.41257,-2.13148 83.754404,83.754404 0 0 1 -3.12569,-1.50962 83.754404,83.754404 0 0 1 -7.13752,-4.37597 83.754404,83.754404 0 0 1 -0.70703,-0.53724 44.80859,44.80859 0 0 0 -0.005,0.0983 44.80859,44.80859 0 0 0 0.11192,3.16938 44.80859,44.80859 0 0 0 0.53996,4.4464 44.80859,44.80859 0 0 0 0.10048,0.44825 97.895643,97.895643 0 0 0 1.91472,1.17384 97.895643,97.895643 0 0 0 8.81091,4.25642 97.895643,97.895643 0 0 0 1.48452,0.54161 97.895643,97.895643 0 0 0 7.70805,2.81394 97.895643,97.895643 0 0 0 9.48139,2.42085 97.895643,97.895643 0 0 0 9.675191,1.46266 97.895643,97.895643 0 0 0 9.773474,0.48865 97.895643,97.895643 0 0 0 6.92459,-0.24514 97.895643,97.895643 0 0 0 9.71449,-1.17931 97.895643,97.895643 0 0 0 9.54801,-2.14294 97.895643,97.895643 0 0 0 9.2859,-3.08531 97.895643,97.895643 0 0 0 2.45964,-1.10067 97.895643,97.895643 0 0 0 6.47252,-2.89694 97.895643,97.895643 0 0 0 5.17691,-2.96956 44.808592,44.808592 0 0 0 0.59346,-3.92773 44.808592,44.808592 0 0 0 0.22386,-4.47316 44.808592,44.808592 0 0 0 -0.0775,-2.17898 z"
       id="path20283" />
    <path
       style="opacity:1;vector-effect:none;fill:#b3b3b3;fill-opacity:1;stroke:#000000;stroke-width:0;stroke-linecap:round;stroke-linejoin:miter;stroke-miterlimit:4;stroke-dasharray:none;stroke-dashoffset:0;stroke-opacity:1;paint-order:markers fill stroke"
       d="m 130.93243,109.44883 a 133.70429,133.70429 0 0 1 0.0148,-0.0579 61.28167,61.28167 0 0 1 -0.0617,0.0355 71.647442,71.647442 0 0 1 0.0469,0.0224 z"
       id="path20185"
       inkscape:connector-curvature="0" />
    <path
       style="opacity:1;vector-effect:none;fill:#b3b3b3;fill-opacity:1;stroke:#000000;stroke-width:0;stroke-linecap:round;stroke-linejoin:miter;stroke-miterlimit:4;stroke-dasharray:none;stroke-dashoffset:0;stroke-opacity:1;paint-order:markers fill stroke"
       d="m 139.30112,196.48795 a 133.70429,133.70429 0 0 1 -0.29047,-0.64862 11.024847,11.024847 0 0 0 -0.0109,0.0305 11.024847,11.024847 0 0 0 -0.2364,0.92652 71.647442,71.647442 0 0 0 0.53777,-0.30847 z"
       id="path20173"
       inkscape:connector-curvature="0" />
    <path
       style="opacity:1;vector-effect:none;fill:#b3b3b3;fill-opacity:1;stroke:#000000;stroke-width:0;stroke-linecap:round;stroke-linejoin:miter;stroke-miterlimit:4;stroke-dasharray:none;stroke-dashoffset:0;stroke-opacity:1;paint-order:markers fill stroke"
       d="m 139.90497,103.64513 a 114.41239,114.41239 0 0 0 0.35814,-0.11903 83.754404,83.754404 0 0 1 -0.005,-0.13375 61.28167,61.28167 0 0 1 -0.35322,0.25278 z"
       id="path20101"
       inkscape:connector-curvature="0" />
    <path
       style="opacity:1;vector-effect:none;fill:#b3b3b3;fill-opacity:1;stroke:#000000;stroke-width:0;stroke-linecap:round;stroke-linejoin:miter;stroke-miterlimit:4;stroke-dasharray:none;stroke-dashoffset:0;stroke-opacity:1;paint-order:markers fill stroke"
       d="m 126.29382,107.4937 a 71.647442,71.647442 0 0 1 2.41977,0.88338 71.647442,71.647442 0 0 1 2.17187,1.04936 61.28167,61.28167 0 0 0 0.0617,-0.0355 133.70429,133.70429 0 0 1 0.79658,-3.12023 114.41239,114.41239 0 0 1 -5.44991,1.22297 z"
       id="path20095"
       inkscape:connector-curvature="0" />
    <path
       style="opacity:1;vector-effect:none;fill:#000000;fill-opacity:1;stroke:#000000;stroke-width:0;stroke-linecap:round;stroke-linejoin:miter;stroke-miterlimit:4;stroke-dasharray:none;stroke-dashoffset:0;stroke-opacity:1;paint-order:markers fill stroke"
       d="m 76.080095,107.18194 a 71.647442,71.647442 0 0 0 -1.22955,0.40839 71.647442,71.647442 0 0 0 -2.25923,1.01114 61.28167,61.28167 0 0 0 0.53124,0.32595 61.28167,61.28167 0 0 0 5.51543,2.66435 61.28167,61.28167 0 0 0 5.75455,2.10037 61.28167,61.28167 0 0 0 5.935271,1.51561 61.28167,61.28167 0 0 0 6.056508,0.91506 61.28167,61.28167 0 0 0 6.118186,0.30628 61.28167,61.28167 0 0 0 4.33502,-0.15341 61.28167,61.28167 0 0 0 6.08049,-0.73815 61.28167,61.28167 0 0 0 5.97735,-1.34147 61.28167,61.28167 0 0 0 5.81298,-1.93165 61.28167,61.28167 0 0 0 5.5913,-2.5022 61.28167,61.28167 0 0 0 0.58582,-0.33577 71.647442,71.647442 0 0 0 -2.17187,-1.04936 71.647442,71.647442 0 0 0 -2.41977,-0.88338 114.41239,114.41239 0 0 1 -4.90993,1.10232 114.41239,114.41239 0 0 1 -11.35298,1.37804 114.41239,114.41239 0 0 1 -8.09351,0.28663 114.41239,114.41239 0 0 1 -11.421764,-0.57164 114.41239,114.41239 0 0 1 -11.308201,-1.70888 114.41239,114.41239 0 0 1 -3.12734,-0.79823 z"
       id="path20093"
       inkscape:connector-curvature="0" />
    <path
       style="opacity:1;vector-effect:none;fill:#b3b3b3;fill-opacity:1;stroke:#000000;stroke-width:0;stroke-linecap:round;stroke-linejoin:miter;stroke-miterlimit:4;stroke-dasharray:none;stroke-dashoffset:0;stroke-opacity:1;paint-order:markers fill stroke"
       d="m 71.387985,105.98354 a 133.70429,133.70429 0 0 1 0.68577,2.06432 133.70429,133.70429 0 0 1 0.0617,0.27408 61.28167,61.28167 0 0 0 0.45587,0.27953 71.647442,71.647442 0 0 1 2.25923,-1.01114 71.647442,71.647442 0 0 1 1.22955,-0.40839 114.41239,114.41239 0 0 1 -4.69211,-1.1984 z"
       id="path20089"
       inkscape:connector-curvature="0" />
    <path
       style="opacity:1;vector-effect:none;fill:url(#linearGradient20615);fill-opacity:1;stroke:#000000;stroke-width:0;stroke-linecap:round;stroke-linejoin:miter;stroke-miterlimit:4;stroke-dasharray:none;stroke-dashoffset:0;stroke-opacity:1;paint-order:markers fill stroke"
       d="m 101.93741,79.630473 a 114.41238,114.41238 0 0 0 -8.092985,0.28663 114.41238,114.41238 0 0 0 -11.352969,1.37804 114.41238,114.41238 0 0 0 -11.159161,2.50438 114.41238,114.41238 0 0 0 -3.69461,1.22735 114.41238,114.41238 0 0 0 -1.35237,0.44934 6.8908829,6.8908829 0 0 1 -0.12122,0.47609 6.8908829,6.8908829 0 0 1 -0.23584,0.64698 6.8908829,6.8908829 0 0 1 -0.29975,0.62023 6.8908829,6.8908829 0 0 1 -0.36032,0.58692 6.8908829,6.8908829 0 0 1 -0.39913,0.52577 6.8908829,6.8908829 0 0 1 -0.0174,0.0229 6.8908829,6.8908829 0 0 1 -0.46955,0.50394 6.8908829,6.8908829 0 0 1 -0.51756,0.4548 6.8908829,6.8908829 0 0 1 -0.16217,0.11575 133.70428,133.70428 0 0 1 0.77092,1.72254 133.70428,133.70428 0 0 1 0.0535,0.12012 133.70428,133.70428 0 0 1 2.33351,5.21404 83.754404,83.754404 0 0 1 -0.38767,2.564981 83.754404,83.754404 0 0 1 -0.48371,3.198316 83.754404,83.754404 0 0 1 -1.14983,4.50319 83.754404,83.754404 0 0 1 -0.12884,0.50558 114.41238,114.41238 0 0 0 1.52762,0.55744 114.41239,114.41239 0 0 0 1.88853,0.68956 114.41239,114.41239 0 0 0 3.26163,0.83262 114.41238,114.41238 0 0 0 4.69212,1.1984 114.41239,114.41239 0 0 0 3.12733,0.79823 114.41239,114.41239 0 0 0 11.3082,1.70888 114.41239,114.41239 0 0 0 11.421775,0.57163 114.41239,114.41239 0 0 0 8.0935,-0.28662 114.41239,114.41239 0 0 0 11.35299,-1.37803 114.41239,114.41239 0 0 0 4.90993,-1.10233 114.41238,114.41238 0 0 0 5.44991,-1.22299 114.41238,114.41238 0 0 0 0.79931,-0.17962 114.41238,114.41238 0 0 0 7.36193,-2.44595 61.28167,61.28167 0 0 0 0.35323,-0.2528 83.754404,83.754404 0 0 1 -0.0884,-2.50002 83.754404,83.754404 0 0 1 0.13705,-2.73969 83.754404,83.754404 0 0 1 0.28171,-5.621887 83.754404,83.754404 0 0 1 0.51047,-3.377939 97.895643,97.895643 0 0 1 0.75836,0.366349 6.8908827,6.8908827 0 0 1 -0.13759,-0.15615 6.8908827,6.8908827 0 0 1 -0.40018,-0.56072 6.8908827,6.8908827 0 0 1 -0.13267,-0.23095 6.8908827,6.8908827 0 0 1 -0.21021,-0.36635 6.8908827,6.8908827 0 0 1 -0.21074,-0.47171 6.8908827,6.8908827 0 0 1 -0.0704,-0.1567 6.8908827,6.8908827 0 0 1 -0.21732,-0.65408 6.8908827,6.8908827 0 0 1 -0.15123,-0.672089 6.8908827,6.8908827 0 0 1 -0.083,-0.683561 6.8908827,6.8908827 0 0 1 -0.0169,-0.48755 6.8908827,6.8908827 0 0 1 0.0344,-0.68793 6.8908827,6.8908827 0 0 1 0.10259,-0.68083 6.8908827,6.8908827 0 0 1 0.14961,-0.58528 114.41238,114.41238 0 0 0 -0.15562,-0.0567 114.41238,114.41238 0 0 0 -1.25955,-0.45971 114.41238,114.41238 0 0 0 -3.35011,-1.22298 114.41238,114.41238 0 0 0 -11.08051,-2.82923 114.41238,114.41238 0 0 0 -11.30821,-1.7089 114.41238,114.41238 0 0 0 -11.4223,-0.57164 z"
       id="path20477"
       inkscape:connector-curvature="0" />
    <ellipse
       style="opacity:1;vector-effect:none;fill:#b3b3b3;fill-opacity:1;stroke:#000000;stroke-width:0;stroke-linecap:round;stroke-linejoin:miter;stroke-miterlimit:4;stroke-dasharray:none;stroke-dashoffset:0;stroke-opacity:1;paint-order:markers fill stroke"
       id="path20665"
       cx="102.0755"
       cy="86.392059"
       rx="21.742996"
       ry="3.9532721" />
  </g>
</svg>
