<?xml version="1.0" encoding="UTF-8" standalone="no"?>
<!-- Created with Inkscape (http://www.inkscape.org/) -->

<svg
   xmlns:dc="http://purl.org/dc/elements/1.1/"
   xmlns:cc="http://creativecommons.org/ns#"
   xmlns:rdf="http://www.w3.org/1999/02/22-rdf-syntax-ns#"
   xmlns:svg="http://www.w3.org/2000/svg"
   xmlns="http://www.w3.org/2000/svg"
   xmlns:xlink="http://www.w3.org/1999/xlink"
   xmlns:sodipodi="http://sodipodi.sourceforge.net/DTD/sodipodi-0.dtd"
   xmlns:inkscape="http://www.inkscape.org/namespaces/inkscape"
   width="210mm"
   height="297mm"
   viewBox="0 0 210 297"
   version="1.1"
   id="svg24217"
   inkscape:version="0.92.3 (2405546, 2018-03-11)"
   sodipodi:docname="wB.svg">
  <defs
     id="defs24211">
    <linearGradient
       inkscape:collect="always"
       xlink:href="#linearGradient21016"
       id="linearGradient23064-1"
       x1="1842.3164"
       y1="567.95508"
       x2="1801.4286"
       y2="616.80542"
       gradientUnits="userSpaceOnUse"
       gradientTransform="matrix(0.27667791,0,0,0.27667791,-398.52764,-91.179435)" />
    <linearGradient
       id="linearGradient21016"
       inkscape:collect="always">
      <stop
         id="stop21012"
         offset="0"
         style="stop-color:#cccccc;stop-opacity:1" />
      <stop
         id="stop21014"
         offset="1"
         style="stop-color:#f9f9f9;stop-opacity:1" />
    </linearGradient>
    <linearGradient
       inkscape:collect="always"
       xlink:href="#linearGradient21010"
       id="linearGradient23080-0"
       x1="1882.123"
       y1="735.74219"
       x2="1704.2858"
       y2="773.94824"
       gradientUnits="userSpaceOnUse"
       gradientTransform="matrix(0.27667791,0,0,0.27667791,-398.52764,-92.286135)" />
    <linearGradient
       id="linearGradient21010"
       inkscape:collect="always">
      <stop
         id="stop21006"
         offset="0"
         style="stop-color:#b3b3b3;stop-opacity:1" />
      <stop
         id="stop21008"
         offset="1"
         style="stop-color:#f9f9f9;stop-opacity:1" />
    </linearGradient>
    <linearGradient
       inkscape:collect="always"
       xlink:href="#linearGradient21016"
       id="linearGradient23072-7"
       x1="1917.1428"
       y1="601.09113"
       x2="1710"
       y2="752.51971"
       gradientUnits="userSpaceOnUse"
       gradientTransform="matrix(0.27667791,0,0,0.27667791,-398.52764,-91.179435)" />
    <linearGradient
       inkscape:collect="always"
       xlink:href="#linearGradient21016"
       id="linearGradient23088-7"
       x1="1814.0198"
       y1="921.29382"
       x2="1717.3691"
       y2="1028.3125"
       gradientUnits="userSpaceOnUse"
       gradientTransform="matrix(0.27667791,0,0,0.27667791,-398.52764,-93.392935)" />
    <linearGradient
       gradientTransform="matrix(0.27667791,0,0,0.27667791,-398.52764,-96.159635)"
       inkscape:collect="always"
       xlink:href="#linearGradient21010"
       id="linearGradient23106-7"
       x1="1961.0195"
       y1="1027.7188"
       x2="1684.0996"
       y2="1164.2949"
       gradientUnits="userSpaceOnUse" />
    <linearGradient
       inkscape:collect="always"
       xlink:href="#linearGradient21010"
       id="linearGradient23114-1"
       x1="1986.8926"
       y1="1166.7734"
       x2="1627.1428"
       y2="1258.234"
       gradientUnits="userSpaceOnUse"
       gradientTransform="matrix(0.27667791,0,0,0.27667791,-398.52764,-97.266335)" />
    <radialGradient
       inkscape:collect="always"
       xlink:href="#linearGradient21010"
       id="radialGradient23098-4"
       cx="1840.5992"
       cy="982.91565"
       fx="1840.5992"
       fy="982.91565"
       r="88.264076"
       gradientTransform="matrix(0.32186282,0,0,0.38339318,-481.55169,-182.22962)"
       gradientUnits="userSpaceOnUse" />
  </defs>
  <sodipodi:namedview
     id="base"
     pagecolor="#ffffff"
     bordercolor="#666666"
     borderopacity="1.0"
     inkscape:pageopacity="0.0"
     inkscape:pageshadow="2"
     inkscape:zoom="0.35"
     inkscape:cx="-574.28572"
     inkscape:cy="560"
     inkscape:document-units="mm"
     inkscape:current-layer="layer1"
     showgrid="false"
     inkscape:window-width="1920"
     inkscape:window-height="1017"
     inkscape:window-x="0"
     inkscape:window-y="0"
     inkscape:window-maximized="1" />
  <metadata
     id="metadata24214">
    <rdf:RDF>
      <cc:Work
         rdf:about="">
        <dc:format>image/svg+xml</dc:format>
        <dc:type
           rdf:resource="http://purl.org/dc/dcmitype/StillImage" />
        <dc:title />
      </cc:Work>
    </rdf:RDF>
  </metadata>
  <g
     inkscape:label="Layer 1"
     inkscape:groupmode="layer"
     id="layer1">
    <path
       style="opacity:1;vector-effect:none;fill:url(#radialGradient23098-4);fill-opacity:1;stroke:#000000;stroke-width:0;stroke-linecap:round;stroke-linejoin:miter;stroke-miterlimit:4;stroke-dasharray:none;stroke-dashoffset:0;stroke-opacity:1;paint-order:markers fill stroke"
       d="m 107.20804,131.93594 a 153.89364,139.85087 0 0 1 0.22943,5.89401 153.89364,139.85087 0 0 1 -0.76881,13.96129 153.89364,139.85087 0 0 1 -2.29895,13.8226 153.89364,139.85087 0 0 1 -3.80576,13.54491 153.89364,139.85087 0 0 1 -5.274292,13.13129 153.89364,139.85087 0 0 1 -3.26264,6.1378 153.89364,139.85087 0 0 1 -3.42859,6.4498 153.89364,139.85087 0 0 1 -3.71086,5.5007 153.89364,139.85087 0 0 1 -1.87523,2.7787 23.726563,21.561518 0 0 1 0.77011,0.1788 23.726563,21.561518 0 0 1 2.22789,0.7392 23.726563,21.561518 0 0 1 0.91968,0.404 112.71779,102.43232 0 0 0 1.47292,0.3416 112.71779,102.43232 0 0 0 11.14073,1.5304 112.71779,102.43232 0 0 0 2.266842,0.1025 112.71779,102.43232 0 0 0 8.98577,0.4084 112.71779,102.43232 0 0 0 7.97357,-0.2565 112.71779,102.43232 0 0 0 2.71582,-0.2993 112.71779,102.43232 0 0 0 8.46901,-0.934 112.71779,102.43232 0 0 0 6.6729,-1.3614 23.726563,21.561518 0 0 1 0.42435,-0.1725 23.726563,21.561518 0 0 1 2.25058,-0.6799 23.726563,21.561518 0 0 1 0.0199,0 153.89364,139.85087 0 0 1 -1.25914,-1.9949 153.89364,139.85087 0 0 1 -6.24552,-9.8944 153.89364,139.85087 0 0 1 -1.05617,-2.1446 153.89364,139.85087 0 0 1 -5.22772,-10.6148 153.89364,139.85087 0 0 1 -4.85064,-13.2663 153.89364,139.85087 0 0 1 -3.36886,-13.6397 153.89364,139.85087 0 0 1 -1.85379,-13.87739 153.89364,139.85087 0 0 1 -0.38539,-9.89281 153.89364,139.85087 0 0 1 0.32313,-5.8727 153.89364,139.85087 0 0 1 -4.52177,0.1457 153.89364,139.85087 0 0 1 -3.66873,-0.1668 z"
       id="path22857-5"
       inkscape:connector-curvature="0" />
    <path
       style="opacity:1;vector-effect:none;fill:url(#linearGradient23114-1);fill-opacity:1;stroke:#000000;stroke-width:0;stroke-linecap:round;stroke-linejoin:miter;stroke-miterlimit:4;stroke-dasharray:none;stroke-dashoffset:0;stroke-opacity:1;paint-order:markers fill stroke"
       d="m 69.642128,242.62814 a 7.9787718,7.9787718 0 0 0 -0.54469,0.067 7.9787718,7.9787718 0 0 0 -0.29615,0.067 7.9787718,7.9787718 0 0 0 -0.482,0.108 7.9787718,7.9787718 0 0 0 -0.75711,0.2518 7.9787718,7.9787718 0 0 0 -0.72788,0.3254 7.9787718,7.9787718 0 0 0 -0.69169,0.3972 7.9787718,7.9787718 0 0 0 -0.649,0.4636 7.9787718,7.9787718 0 0 0 -0.59877,0.5264 7.9787718,7.9787718 0 0 0 -0.54361,0.5836 7.9787718,7.9787718 0 0 0 -0.48311,0.635 7.9787718,7.9787718 0 0 0 -0.41665,0.6798 7.9787718,7.9787718 0 0 0 -0.34693,0.7181 7.9787718,7.9787718 0 0 0 -0.27344,0.7496 7.9787718,7.9787718 0 0 0 -0.19724,0.7727 7.9787718,7.9787718 0 0 0 -0.11941,0.7884 7.9787718,7.9787718 0 0 0 -0.0394,0.7966 7.9787718,7.9787718 0 0 0 0.02,0.5647 7.9787718,7.9787718 0 0 0 0.0957,0.7916 7.9787718,7.9787718 0 0 0 0.17508,0.7782 7.9787718,7.9787718 0 0 0 0.25129,0.7565 7.9787718,7.9787718 0 0 0 0.32584,0.7279 7.9787718,7.9787718 0 0 0 0.34748,0.6068 180.52254,180.52254 0 0 0 4.64138,1.1851 180.52254,180.52254 0 0 0 6.02369,1.538 180.52254,180.52254 0 0 0 0.32477,0.083 180.52254,180.52254 0 0 0 17.84193,2.6966 180.52254,180.52254 0 0 0 18.022452,0.9019 180.52254,180.52254 0 0 0 12.7693,-0.4524 180.52254,180.52254 0 0 0 17.91325,-2.1744 180.52254,180.52254 0 0 0 4.51173,-1.0128 180.52254,180.52254 0 0 0 8.17391,-1.8346 180.52254,180.52254 0 0 0 2.12373,-0.4765 7.9787718,7.9787718 0 0 0 0.13239,-0.174 7.9787718,7.9787718 0 0 0 0.41661,-0.6799 7.9787718,7.9787718 0 0 0 0.34686,-0.7182 7.9787718,7.9787718 0 0 0 0.27346,-0.7495 7.9787718,7.9787718 0 0 0 0.19722,-0.7727 7.9787718,7.9787718 0 0 0 0.11952,-0.7885 7.9787718,7.9787718 0 0 0 0.0397,-0.7965 7.9787718,7.9787718 0 0 0 -0.0199,-0.5641 7.9787718,7.9787718 0 0 0 -0.0952,-0.7918 7.9787718,7.9787718 0 0 0 -0.17515,-0.7786 7.9787718,7.9787718 0 0 0 -0.25129,-0.7566 7.9787718,7.9787718 0 0 0 -0.32584,-0.7279 7.9787718,7.9787718 0 0 0 -0.39664,-0.6916 7.9787718,7.9787718 0 0 0 -0.46419,-0.6491 7.9787718,7.9787718 0 0 0 -0.52631,-0.5993 7.9787718,7.9787718 0 0 0 -0.58361,-0.5436 7.9787718,7.9787718 0 0 0 -0.63496,-0.4825 7.9787718,7.9787718 0 0 0 -0.67982,-0.4167 7.9787718,7.9787718 0 0 0 -0.6155,-0.2973 7.9787718,7.9787718 0 0 0 -0.10248,-0.05 7.9787718,7.9787718 0 0 0 -0.73273,-0.2675 154.53683,154.53683 0 0 1 -7.76159,1.7422 154.53683,154.53683 0 0 1 -6.80999,1.5282 154.53683,154.53683 0 0 1 -0.54471,0.066 154.53684,154.53684 0 0 1 -1.58007,0.1919 154.53683,154.53683 0 0 1 -13.21027,1.6039 154.53683,154.53683 0 0 1 -10.93149,0.3869 154.53683,154.53683 0 0 1 -15.428042,-0.7722 154.53683,154.53683 0 0 1 -8.45866,-1.2781 154.53683,154.53683 0 0 1 -1.21047,-0.1831 154.53683,154.53683 0 0 1 -5.60433,-0.8468 154.53683,154.53683 0 0 1 -5.43252,-1.3872 154.53683,154.53683 0 0 1 -5.34335,-1.3645 z"
       id="path22905-1"
       inkscape:connector-curvature="0" />
    <path
       inkscape:connector-curvature="0"
       style="opacity:1;vector-effect:none;fill:url(#linearGradient23106-7);fill-opacity:1;stroke:#000000;stroke-width:0;stroke-linecap:round;stroke-linejoin:miter;stroke-miterlimit:4;stroke-dasharray:none;stroke-dashoffset:0;stroke-opacity:1;paint-order:markers fill stroke"
       d="m 81.520358,207.55324 a 20.395693,20.395693 0 0 0 -1.44226,0.051 20.395693,20.395693 0 0 0 -2.02431,0.2458 20.395693,20.395693 0 0 0 -1.98915,0.4463 20.395693,20.395693 0 0 0 -0.30963,0.1025 20.395693,20.395693 0 0 0 -1.62496,0.5404 20.395693,20.395693 0 0 0 -1.8611,0.8327 20.395693,20.395693 0 0 0 -1.76814,1.0144 20.395693,20.395693 0 0 0 -1.65844,1.1856 20.395693,20.395693 0 0 0 -1.53146,1.3455 20.395693,20.395693 0 0 0 -1.38987,1.492 20.395693,20.395693 0 0 0 -1.23371,1.6228 20.395693,20.395693 0 0 0 -1.06564,1.7385 20.395693,20.395693 0 0 0 -0.88675,1.8356 20.395693,20.395693 0 0 0 -0.69928,1.9151 20.395693,20.395693 0 0 0 -0.50417,1.9752 20.395693,20.395693 0 0 0 -0.30478,2.0156 20.395693,20.395693 0 0 0 -0.0611,1.225 20.395693,20.395693 0 0 0 -0.0406,0.8112 20.395693,20.395693 0 0 0 0.0508,1.4427 20.395693,20.395693 0 0 0 0.24589,2.0238 20.395693,20.395693 0 0 0 0.44633,1.9897 20.395693,20.395693 0 0 0 0.64309,1.9347 20.395693,20.395693 0 0 0 0.38906,0.8688 20.395693,20.395693 0 0 0 0.44366,0.9917 20.395693,20.395693 0 0 0 1.0143,1.7686 20.395693,20.395693 0 0 0 1.18617,1.6585 20.395693,20.395693 0 0 0 1.34501,1.5314 20.395693,20.395693 0 0 0 1.29206,1.2035 154.53682,154.53682 0 0 0 1.46067,0.3729 154.53684,154.53684 0 0 0 5.34334,1.3644 154.53682,154.53682 0 0 0 5.43252,1.3872 154.53682,154.53682 0 0 0 5.60433,0.8468 154.53683,154.53683 0 0 0 1.21046,0.1832 154.53682,154.53682 0 0 0 8.45868,1.278 154.53682,154.53682 0 0 0 15.428032,0.7722 154.53682,154.53682 0 0 0 10.9315,-0.3869 154.53682,154.53682 0 0 0 13.21027,-1.6038 154.53682,154.53682 0 0 0 1.58007,-0.1919 154.53682,154.53682 0 0 0 0.54471,-0.066 154.53682,154.53682 0 0 0 6.80999,-1.5282 154.53684,154.53684 0 0 0 7.76159,-1.7423 154.53682,154.53682 0 0 0 0.50037,-0.1123 154.53682,154.53682 0 0 0 1.50875,-0.5015 20.395693,20.395693 0 0 0 0.97273,-0.8543 20.395693,20.395693 0 0 0 1.38985,-1.4915 20.395693,20.395693 0 0 0 1.23363,-1.6228 20.395693,20.395693 0 0 0 1.06568,-1.7385 20.395693,20.395693 0 0 0 0.73064,-1.513 20.395693,20.395693 0 0 0 0.15613,-0.3226 20.395693,20.395693 0 0 0 0.69926,-1.9151 20.395693,20.395693 0 0 0 0.50425,-1.9752 20.395693,20.395693 0 0 0 0.30472,-2.0161 20.395693,20.395693 0 0 0 0.10143,-2.0362 20.395693,20.395693 0 0 0 -0.0282,-0.7998 20.395694,20.395694 0 0 0 -0.023,-0.6426 20.395694,20.395694 0 0 0 -0.24585,-2.0242 20.395694,20.395694 0 0 0 -0.44641,-1.9891 20.395694,20.395694 0 0 0 -0.64301,-1.9347 20.395694,20.395694 0 0 0 -0.8327,-1.861 20.395694,20.395694 0 0 0 -1.01434,-1.7682 20.395694,20.395694 0 0 0 -1.18615,-1.6584 20.395694,20.395694 0 0 0 -1.34562,-1.5315 20.395694,20.395694 0 0 0 -1.4914,-1.3898 20.395694,20.395694 0 0 0 -1.11912,-0.8506 20.395694,20.395694 0 0 0 -0.50372,-0.3832 20.395694,20.395694 0 0 0 -1.73839,-1.0656 20.395694,20.395694 0 0 0 -1.83564,-0.8868 20.395694,20.395694 0 0 0 -1.91522,-0.6993 20.395694,20.395694 0 0 0 -0.35178,-0.09 20.395694,20.395694 0 0 0 -1.62326,-0.4144 20.395694,20.395694 0 0 0 -2.01623,-0.3048 20.395694,20.395694 0 0 0 -2.03621,-0.1015 20.395694,20.395694 0 0 0 -1.32764,0.047 20.395693,20.395693 0 0 0 -0.11461,0 20.395693,20.395693 0 0 0 -0.94292,0.1146 96.89384,96.89384 0 0 1 -1.65578,0.55 96.89384,96.89384 0 0 1 -1.24565,0.28 96.89384,96.89384 0 0 1 -2.4684,0.5539 96.89384,96.89384 0 0 1 -5.73626,1.2878 96.89384,96.89384 0 0 1 -7.28003,0.8835 96.89384,96.89384 0 0 1 -2.33455,0.2832 96.89384,96.89384 0 0 1 -6.85422,0.2426 96.89384,96.89384 0 0 1 -7.72427,-0.3864 96.89384,96.89384 0 0 1 -1.94862,-0.097 96.89384,96.89384 0 0 1 -9.576742,-1.4476 96.89384,96.89384 0 0 1 -1.26613,-0.3232 96.89384,96.89384 0 0 1 -3.57412,-0.9127 96.89384,96.89384 0 0 1 -3.99993,-1.0213 20.395693,20.395693 0 0 0 -1.15915,-0.057 z"
       id="path22889-6" />
    <path
       style="opacity:1;vector-effect:none;fill:url(#linearGradient23088-7);fill-opacity:1;stroke:#000000;stroke-width:0;stroke-linecap:round;stroke-linejoin:miter;stroke-miterlimit:4;stroke-dasharray:none;stroke-dashoffset:0;stroke-opacity:1;paint-order:markers fill stroke"
       d="m 125.83688,133.37325 a 132.28918,132.28918 0 0 1 -5.64047,0.6847 132.28918,132.28918 0 0 1 -5.47091,0.19409 132.28918,132.28918 0 0 0 -0.27776,5.55511 132.28918,132.28918 0 0 0 0.33126,9.35789 132.28918,132.28918 0 0 0 1.59359,13.12701 132.28918,132.28918 0 0 0 2.89596,12.9023 132.28918,132.28918 0 0 0 4.16957,12.54889 132.28918,132.28918 0 0 0 4.49384,10.0409 132.28918,132.28918 0 0 0 0.90789,2.0286 132.28918,132.28918 0 0 0 5.36879,9.3595 132.28918,132.28918 0 0 0 1.08231,1.887 20.395695,20.395695 0 0 1 1.9719,-0.4426 20.395695,20.395695 0 0 1 1.08137,-0.1313 96.89384,96.89384 0 0 0 0.66141,-0.2199 96.89384,96.89384 0 0 0 5.79345,-1.9243 132.28918,132.28918 0 0 1 -4.89215,-8.5284 132.28918,132.28918 0 0 1 -5.40162,-12.0695 132.28918,132.28918 0 0 1 -1.77468,-5.34119 132.28918,132.28918 0 0 1 -2.395,-7.2077 132.28918,132.28918 0 0 1 -2.89588,-12.9023 132.28918,132.28918 0 0 1 -1.59367,-13.12701 132.28918,132.28918 0 0 1 -0.33128,-9.35789 132.28918,132.28918 0 0 1 0.32208,-6.4339 z m -29.242412,0.19889 a 132.28918,132.28918 0 0 1 0.22045,6.23501 132.28918,132.28918 0 0 1 -0.66088,13.20649 132.28918,132.28918 0 0 1 -1.97619,13.07521 132.28918,132.28918 0 0 1 -3.27149,12.8125 132.28918,132.28918 0 0 1 -0.923,2.52789 132.28918,132.28918 0 0 1 -3.61084,9.8935 132.28918,132.28918 0 0 1 -5.75189,11.9068 132.28918,132.28918 0 0 1 -3.23422,5.2758 96.89384,96.89384 0 0 0 3.79406,1.3851 96.89384,96.89384 0 0 0 0.95487,0.3485 96.89384,96.89384 0 0 0 0.54416,0.1389 20.395695,20.395695 0 0 1 0.87705,0.044 20.395695,20.395695 0 0 1 2.01618,0.3047 20.395695,20.395695 0 0 1 1.31314,0.3352 132.28918,132.28918 0 0 0 1.61198,-2.6285 132.28918,132.28918 0 0 0 3.1899,-5.2034 132.28918,132.28918 0 0 0 2.94726,-6.101 132.28918,132.28918 0 0 0 2.80462,-5.8059 132.28918,132.28918 0 0 0 4.533842,-12.42119 132.28918,132.28918 0 0 0 3.2715,-12.81261 132.28918,132.28918 0 0 0 1.9762,-13.07529 132.28918,132.28918 0 0 0 0.66088,-13.20651 132.28918,132.28918 0 0 0 -0.19722,-5.5751 132.28918,132.28918 0 0 1 -10.053372,-0.5031 132.28918,132.28918 0 0 1 -1.03699,-0.1568 z"
       id="path22859-6"
       inkscape:connector-curvature="0" />
    <path
       style="opacity:1;vector-effect:none;fill:url(#linearGradient23072-7);fill-opacity:1;stroke:#000000;stroke-width:0;stroke-linecap:round;stroke-linejoin:miter;stroke-miterlimit:4;stroke-dasharray:none;stroke-dashoffset:0;stroke-opacity:1;paint-order:markers fill stroke"
       d="m 109.52213,91.085354 a 113.24156,113.24156 0 0 0 -2.71003,3.5644 113.24156,113.24156 0 0 0 -5.01479,8.179196 113.24156,113.24156 0 0 0 -0.90192,1.4705 113.24156,113.24156 0 0 0 -4.923452,10.1928 113.24156,113.24156 0 0 0 -1.37097,3.75571 132.28918,132.28918 0 0 1 0.2891,1.28768 132.28918,132.28918 0 0 1 0.55716,4.5917 20.395692,20.395692 0 0 0 0.65279,0.7424 20.395692,20.395692 0 0 0 1.49145,1.3899 20.395692,20.395692 0 0 0 1.62333,1.2337 20.395692,20.395692 0 0 0 1.737872,1.0657 20.395692,20.395692 0 0 0 1.66439,0.804 132.28918,132.28918 0 0 1 4.51385,-0.15989 132.28918,132.28918 0 0 1 2.63223,-0.093 132.28918,132.28918 0 0 1 5.31739,0.2659 132.28918,132.28918 0 0 1 3.32447,0.1664 20.395692,20.395692 0 0 0 1.57736,-0.7057 20.395692,20.395692 0 0 0 1.76819,-1.01431 20.395692,20.395692 0 0 0 1.65839,-1.18559 20.395692,20.395692 0 0 0 1.53197,-1.3455 20.395692,20.395692 0 0 0 1.38944,-1.4921 20.395692,20.395692 0 0 0 0.75323,-0.9906 132.28918,132.28918 0 0 1 0.87327,-5.7788 113.24156,113.24156 0 0 0 -4.38791,-9.80529 113.24156,113.24156 0 0 0 -2.92193,-5.0943 113.24156,113.24156 0 0 0 -2.71048,-4.724496 113.24156,113.24156 0 0 0 -4.24047,-5.9303 4.2525275,4.2525275 0 0 1 -0.19885,0.089 4.2525275,4.2525275 0 0 1 -0.40315,0.1341 4.2525275,4.2525275 0 0 1 -0.41502,0.093 4.2525275,4.2525275 0 0 1 -0.42149,0.051 4.2525275,4.2525275 0 0 1 -0.301,0.01 4.2525275,4.2525275 0 0 1 -0.42475,-0.021 4.2525275,4.2525275 0 0 1 -0.42042,-0.064 4.2525275,4.2525275 0 0 1 -0.41177,-0.1049 4.2525275,4.2525275 0 0 1 -0.39932,-0.1459 4.2525275,4.2525275 0 0 1 -0.38259,-0.1848 4.2525275,4.2525275 0 0 1 -0.36207,-0.2221 4.2525275,4.2525275 0 0 1 -0.0335,-0.025 z"
       id="path22973-2"
       inkscape:connector-curvature="0" />
    <path
       style="opacity:1;vector-effect:none;fill:url(#linearGradient23080-0);fill-opacity:1;stroke:#000000;stroke-width:0;stroke-linecap:round;stroke-linejoin:miter;stroke-miterlimit:4;stroke-dasharray:none;stroke-dashoffset:0;stroke-opacity:1;paint-order:markers fill stroke"
       d="m 109.76314,128.00344 a 132.28918,132.28918 0 0 0 -2.63223,0.093 132.28918,132.28918 0 0 0 -4.51385,0.16001 132.28918,132.28918 0 0 0 -2.2118,0.078 132.28918,132.28918 0 0 0 -4.250132,0.5161 132.28918,132.28918 0 0 0 -2.5663,0.3113 132.28918,132.28918 0 0 0 -2.90188,0.3523 132.28918,132.28918 0 0 0 -3.40875,0.4139 132.28918,132.28918 0 0 0 -1.90703,0.428 4.2525275,4.2525275 0 0 0 -0.0152,0.2966 4.2525275,4.2525275 0 0 0 0.0108,0.301 4.2525275,4.2525275 0 0 0 0.0513,0.422 4.2525275,4.2525275 0 0 0 0.093,0.4146 4.2525275,4.2525275 0 0 0 0.13403,0.4036 4.2525275,4.2525275 0 0 0 0.174,0.388 4.2525275,4.2525275 0 0 0 0.21127,0.3686 4.2525275,4.2525275 0 0 0 0.10539,0.1475 132.28918,132.28918 0 0 0 3.50117,0.5291 132.28918,132.28918 0 0 0 2.57169,0.3884 132.28918,132.28918 0 0 0 4.38577,0.6631 132.28918,132.28918 0 0 0 1.03701,0.1568 132.28918,132.28918 0 0 0 10.053362,0.5031 132.28918,132.28918 0 0 0 3.15367,0.1578 132.28918,132.28918 0 0 0 3.88701,-0.1379 132.28918,132.28918 0 0 0 5.47086,-0.1939 132.28918,132.28918 0 0 0 5.64057,-0.6848 132.28918,132.28918 0 0 0 4.26849,-0.5176 132.28918,132.28918 0 0 0 3.09154,-0.3756 132.28918,132.28918 0 0 0 0.12653,-0.015 132.28918,132.28918 0 0 0 3.06122,-0.6868 4.2525275,4.2525275 0 0 0 0.11785,-0.1929 4.2525275,4.2525275 0 0 0 0.18478,-0.3826 4.2525275,4.2525275 0 0 0 0.14588,-0.39931 4.2525275,4.2525275 0 0 0 0.10488,-0.41179 4.2525275,4.2525275 0 0 0 0.0638,-0.42051 4.2525275,4.2525275 0 0 0 0.0105,-0.19069 132.28918,132.28918 0 0 0 -0.96676,-0.2469 132.28918,132.28918 0 0 0 -3.63249,-0.54911 132.28918,132.28918 0 0 0 -3.73727,-0.5647 132.28918,132.28918 0 0 0 -2.5712,-0.38849 132.28918,132.28918 0 0 0 -3.13368,-0.4734 132.28918,132.28918 0 0 0 -4.56516,-0.2286 132.28918,132.28918 0 0 0 -3.32451,-0.1664 132.28918,132.28918 0 0 0 -5.31738,-0.2659 z"
       id="path22671-1"
       inkscape:connector-curvature="0" />
    <path
       style="opacity:1;vector-effect:none;fill:url(#linearGradient23064-1);fill-opacity:1;stroke:#000000;stroke-width:0;stroke-linecap:round;stroke-linejoin:miter;stroke-miterlimit:4;stroke-dasharray:none;stroke-dashoffset:0;stroke-opacity:1;paint-order:markers fill stroke"
       d="m 111.95655,83.348154 a 4.2525275,4.2525275 0 0 0 -0.30099,0.01 4.2525275,4.2525275 0 0 0 -0.42205,0.051 4.2525275,4.2525275 0 0 0 -0.41445,0.093 4.2525275,4.2525275 0 0 0 -0.40367,0.134 4.2525275,4.2525275 0 0 0 -0.38799,0.174 4.2525275,4.2525275 0 0 0 -0.36856,0.2113 4.2525275,4.2525275 0 0 0 -0.34585,0.2476 4.2525275,4.2525275 0 0 0 -0.31936,0.2804 4.2525275,4.2525275 0 0 0 -0.28966,0.3107 4.2525275,4.2525275 0 0 0 -0.13131,0.173 4.2525275,4.2525275 0 0 0 -0.12589,0.1653 4.2525275,4.2525275 0 0 0 -0.22212,0.3626 4.2525275,4.2525275 0 0 0 -0.1848,0.3826 4.2525275,4.2525275 0 0 0 -0.14591,0.3993 4.2525275,4.2525275 0 0 0 -0.10536,0.4118 4.2525275,4.2525275 0 0 0 -0.0633,0.4204 4.2525275,4.2525275 0 0 0 -0.021,0.4248 4.2525275,4.2525275 0 0 0 0.0104,0.3009 4.2525275,4.2525275 0 0 0 0.0514,0.4215 4.2525275,4.2525275 0 0 0 0.093,0.4151 4.2525275,4.2525275 0 0 0 0.13399,0.4031 4.2525275,4.2525275 0 0 0 0.17401,0.388 4.2525275,4.2525275 0 0 0 0.21129,0.3691 4.2525275,4.2525275 0 0 0 0.24749,0.3458 4.2525275,4.2525275 0 0 0 0.11998,0.1368 4.2525275,4.2525275 0 0 0 0.16048,0.1826 4.2525275,4.2525275 0 0 0 0.31075,0.2896 4.2525275,4.2525275 0 0 0 0.0372,0.028 4.2525275,4.2525275 0 0 0 0.26805,0.2037 4.2525275,4.2525275 0 0 0 0.0335,0.025 4.2525275,4.2525275 0 0 0 0.36207,0.2221 4.2525275,4.2525275 0 0 0 0.38258,0.1849 4.2525275,4.2525275 0 0 0 0.39933,0.1458 4.2525275,4.2525275 0 0 0 0.41178,0.1048 4.2525275,4.2525275 0 0 0 0.42041,0.064 4.2525275,4.2525275 0 0 0 0.42476,0.021 4.2525275,4.2525275 0 0 0 0.30099,-0.01 4.2525275,4.2525275 0 0 0 0.42149,-0.051 4.2525275,4.2525275 0 0 0 0.41502,-0.093 4.2525275,4.2525275 0 0 0 0.40314,-0.134 4.2525275,4.2525275 0 0 0 0.19886,-0.089 4.2525275,4.2525275 0 0 0 0.18913,-0.085 4.2525275,4.2525275 0 0 0 0.36909,-0.2113 4.2525275,4.2525275 0 0 0 0.34585,-0.2475 4.2525275,4.2525275 0 0 0 0.0146,-0.013 4.2525275,4.2525275 0 0 0 0.2567,-0.2253 4.2525275,4.2525275 0 0 0 0.0481,-0.042 4.2525275,4.2525275 0 0 0 0.28965,-0.3106 4.2525275,4.2525275 0 0 0 0.25724,-0.3389 4.2525275,4.2525275 0 0 0 0.22208,-0.362 4.2525275,4.2525275 0 0 0 0.18482,-0.3831 4.2525275,4.2525275 0 0 0 0.14589,-0.3994 4.2525275,4.2525275 0 0 0 0.10483,-0.4118 4.2525275,4.2525275 0 0 0 0.0638,-0.4198 4.2525275,4.2525275 0 0 0 0.021,-0.4248 4.2525275,4.2525275 0 0 0 -0.0105,-0.301 4.2525275,4.2525275 0 0 0 -0.0513,-0.422 4.2525275,4.2525275 0 0 0 -0.093,-0.4145 4.2525275,4.2525275 0 0 0 -0.13403,-0.4037 4.2525275,4.2525275 0 0 0 -0.174,-0.3879 4.2525275,4.2525275 0 0 0 -0.21131,-0.3687 4.2525275,4.2525275 0 0 0 -0.24748,-0.3458 4.2525275,4.2525275 0 0 0 -0.28046,-0.3193 4.2525275,4.2525275 0 0 0 -0.22102,-0.2059 4.2525275,4.2525275 0 0 0 -0.0897,-0.084 4.2525275,4.2525275 0 0 0 -0.33885,-0.2572 4.2525275,4.2525275 0 0 0 -0.36206,-0.2221 4.2525275,4.2525275 0 0 0 -0.38311,-0.1848 4.2525275,4.2525275 0 0 0 -0.39936,-0.1459 4.2525275,4.2525275 0 0 0 -0.41178,-0.1054 4.2525275,4.2525275 0 0 0 -0.41986,-0.063 4.2525275,4.2525275 0 0 0 -0.42476,-0.022 z"
       id="path23003-9"
       inkscape:connector-curvature="0" />
    <path
       inkscape:connector-curvature="0"
       style="opacity:1;vector-effect:none;fill:#ffff00;fill-opacity:1;stroke:#000000;stroke-width:0;stroke-linecap:round;stroke-linejoin:miter;stroke-miterlimit:4;stroke-dasharray:none;stroke-dashoffset:0;stroke-opacity:1;paint-order:markers fill stroke"
       d="m 68.801288,243.86774 a 7.9787718,7.9787718 0 0 1 0.29615,-0.066 7.9787718,7.9787718 0 0 1 0.54471,-0.067 154.53684,154.53684 0 0 1 -1.46068,-0.3729 20.395695,20.395695 0 0 0 0.19996,0.1866 20.395695,20.395695 0 0 0 0.41986,0.3193 z"
       id="path22909-6" />
  </g>
</svg>
