<?xml version="1.0" encoding="UTF-8" standalone="no"?>
<!-- Created with Inkscape (http://www.inkscape.org/) -->

<svg
   xmlns:dc="http://purl.org/dc/elements/1.1/"
   xmlns:cc="http://creativecommons.org/ns#"
   xmlns:rdf="http://www.w3.org/1999/02/22-rdf-syntax-ns#"
   xmlns:svg="http://www.w3.org/2000/svg"
   xmlns="http://www.w3.org/2000/svg"
   xmlns:xlink="http://www.w3.org/1999/xlink"
   xmlns:sodipodi="http://sodipodi.sourceforge.net/DTD/sodipodi-0.dtd"
   xmlns:inkscape="http://www.inkscape.org/namespaces/inkscape"
   width="210mm"
   height="297mm"
   viewBox="0 0 210 297"
   version="1.1"
   id="svg6882"
   inkscape:version="0.92.3 (2405546, 2018-03-11)"
   sodipodi:docname="wK.svg">
  <defs
     id="defs6876">
    <linearGradient
       inkscape:collect="always"
       id="linearGradient836">
      <stop
         style="stop-color:#f2f2f2;stop-opacity:1"
         offset="0"
         id="stop832" />
      <stop
         style="stop-color:#cccccc;stop-opacity:1"
         offset="1"
         id="stop834" />
    </linearGradient>
    <linearGradient
       gradientTransform="matrix(1.3870308,0,0,1.3870308,-19.588855,-75.597251)"
       inkscape:collect="always"
       xlink:href="#linearGradient5190"
       id="linearGradient3392-8"
       x1="90.928802"
       y1="96.678886"
       x2="91.123634"
       y2="118.13232"
       gradientUnits="userSpaceOnUse" />
    <linearGradient
       inkscape:collect="always"
       id="linearGradient5190">
      <stop
         style="stop-color:#f9f9f9;stop-opacity:1"
         offset="0"
         id="stop5186" />
      <stop
         style="stop-color:#b3b3b3;stop-opacity:1"
         offset="1"
         id="stop5188" />
    </linearGradient>
    <linearGradient
       gradientTransform="matrix(1.3870308,0,0,1.3870308,-19.588855,-75.597251)"
       inkscape:collect="always"
       xlink:href="#linearGradient5190"
       id="linearGradient3374-8"
       x1="95.194412"
       y1="75.096107"
       x2="82.432693"
       y2="80.970764"
       gradientUnits="userSpaceOnUse" />
    <linearGradient
       gradientTransform="matrix(1.3870308,0,0,1.3870308,-19.588855,-75.597251)"
       inkscape:collect="always"
       xlink:href="#linearGradient5190"
       id="linearGradient3376-4"
       x1="99.054413"
       y1="80.536171"
       x2="84.138016"
       y2="93.533829"
       gradientUnits="userSpaceOnUse" />
    <linearGradient
       gradientTransform="matrix(1.3870308,0,0,1.3870308,-19.588855,-75.597251)"
       inkscape:collect="always"
       xlink:href="#linearGradient5190"
       id="linearGradient3366-0"
       x1="90.648209"
       y1="69.305847"
       x2="85.801949"
       y2="73.414711"
       gradientUnits="userSpaceOnUse" />
    <linearGradient
       gradientTransform="matrix(1.3870308,0,0,1.3870308,-19.588855,-75.597251)"
       inkscape:collect="always"
       xlink:href="#linearGradient5190"
       id="linearGradient3384-8"
       x1="99.736542"
       y1="93.148827"
       x2="87.022072"
       y2="123.8317"
       gradientUnits="userSpaceOnUse" />
    <linearGradient
       inkscape:collect="always"
       xlink:href="#linearGradient5190"
       id="linearGradient3394-7"
       x1="371.64667"
       y1="472.71274"
       x2="272.5191"
       y2="720.16626"
       gradientUnits="userSpaceOnUse"
       gradientTransform="matrix(0.36698523,0,0,0.36698523,-19.588855,-75.597251)" />
    <linearGradient
       gradientTransform="matrix(0.36698523,0,0,0.36698523,-19.588855,-75.597251)"
       inkscape:collect="always"
       xlink:href="#linearGradient5190"
       id="linearGradient3418-4"
       x1="330.31989"
       y1="980.0882"
       x2="335.37064"
       y2="895.23535"
       gradientUnits="userSpaceOnUse" />
    <radialGradient
       inkscape:collect="always"
       xlink:href="#linearGradient836"
       id="radialGradient840"
       cx="107.74937"
       cy="211.70703"
       fx="107.74937"
       fy="211.70703"
       r="46.726832"
       gradientTransform="matrix(0.99997092,0.0076264,-0.01143966,1.4999633,2.4249898,-101.26292)"
       gradientUnits="userSpaceOnUse" />
  </defs>
  <sodipodi:namedview
     id="base"
     pagecolor="#ffffff"
     bordercolor="#666666"
     borderopacity="1.0"
     inkscape:pageopacity="0.0"
     inkscape:pageshadow="2"
     inkscape:zoom="0.49497475"
     inkscape:cx="-370.90126"
     inkscape:cy="622.457"
     inkscape:document-units="mm"
     inkscape:current-layer="layer1"
     showgrid="false"
     inkscape:window-width="1920"
     inkscape:window-height="1017"
     inkscape:window-x="0"
     inkscape:window-y="0"
     inkscape:window-maximized="1" />
  <metadata
     id="metadata6879">
    <rdf:RDF>
      <cc:Work
         rdf:about="">
        <dc:format>image/svg+xml</dc:format>
        <dc:type
           rdf:resource="http://purl.org/dc/dcmitype/StillImage" />
        <dc:title />
      </cc:Work>
    </rdf:RDF>
  </metadata>
  <g
     inkscape:label="Layer 1"
     inkscape:groupmode="layer"
     id="layer1">
    <path
       inkscape:connector-curvature="0"
       style="display:inline;opacity:1;fill:url(#linearGradient3418-4);fill-opacity:1;stroke:#fa0000;stroke-width:0;stroke-linecap:round;stroke-linejoin:miter;stroke-miterlimit:4;stroke-dasharray:none;stroke-opacity:1;paint-order:markers fill stroke"
       d="m 154.4167,241.83017 a 109.95489,96.086035 0 0 1 -1.26151,0.49364 109.95489,96.086035 0 0 1 -5.93341,2.32073 109.95489,96.086035 0 0 1 -9.06497,2.63192 109.95489,96.086035 0 0 1 -1.36543,0.39639 109.95489,96.086035 0 0 1 -10.72357,2.1034 109.95489,96.086035 0 0 1 -10.91137,1.15752 109.95489,96.086035 0 0 1 -7.77765,0.24049 109.95489,96.086035 0 0 1 -10.977291,-0.47975 109.95489,96.086035 0 0 1 -10.867642,-1.43498 109.95489,96.086035 0 0 1 -5.88825,-1.31412 109.95489,96.086035 0 0 1 -4.76077,-1.06228 109.95489,96.086035 0 0 1 -10.32434,-3.29352 109.95489,96.086035 0 0 1 -3.11793,-1.31596 10.535915,9.2069965 0 0 0 -0.36699,0.34387 10.535915,9.2069965 0 0 0 -0.63721,0.73221 10.535915,9.2069965 0 0 0 -0.55047,0.78483 10.535915,9.2069965 0 0 0 -0.45873,0.82868 10.535915,9.2069965 0 0 0 -0.36054,0.86435 10.535915,9.2069965 0 0 0 -0.26091,0.89195 10.535915,9.2069965 0 0 0 -0.15697,0.91022 10.535915,9.2069965 0 0 0 -0.053,0.91888 10.535915,9.2069965 0 0 0 0.0265,0.65138 10.535915,9.2069965 0 0 0 0.12691,0.91319 10.535915,9.2069965 0 0 0 0.2308,0.89825 10.535915,9.2069965 0 0 0 0.33186,0.87308 10.535915,9.2069965 0 0 0 0.43007,0.84057 10.535915,9.2069965 0 0 0 0.52396,0.79802 10.535915,9.2069965 0 0 0 0.61283,0.74847 10.535915,9.2069965 0 0 0 0.69527,0.69149 10.535915,9.2069965 0 0 0 0.77052,0.62761 10.535915,9.2069965 0 0 0 0.83863,0.55683 10.535915,9.2069965 0 0 0 0.89738,0.48106 10.535915,9.2069965 0 0 0 0.56195,0.23743 10.535915,9.2069965 0 0 0 0.38633,0.1628 10.535915,9.2069965 0 0 0 0.98915,0.31573 10.535915,9.2069965 0 0 0 0.41501,0.0933 128.51986,112.30936 0 0 0 4.01246,1.27961 128.51986,112.30936 0 0 0 12.44669,2.77741 128.51986,112.30936 0 0 0 12.702552,1.67739 128.51986,112.30936 0 0 0 12.830871,0.5612 128.51986,112.30936 0 0 0 9.09076,-0.28121 128.51986,112.30936 0 0 0 12.75346,-1.3531 128.51986,112.30936 0 0 0 12.53413,-2.45845 128.51986,112.30936 0 0 0 1.88152,-0.54617 128.51986,112.30936 0 0 0 10.30998,-2.99396 128.51986,112.30936 0 0 0 1.92309,-0.75231 10.535915,9.2069965 0 0 0 0.38705,-0.55237 10.535915,9.2069965 0 0 0 0.45873,-0.82869 10.535915,9.2069965 0 0 0 0.36055,-0.86443 10.535915,9.2069965 0 0 0 0.2609,-0.89187 10.535915,9.2069965 0 0 0 0.15697,-0.91013 10.535915,9.2069965 0 0 0 0.0165,-0.29126 10.535915,9.2069965 0 0 0 0.0366,-0.62762 10.535915,9.2069965 0 0 0 -0.0265,-0.65138 10.535915,9.2069965 0 0 0 -0.12691,-0.91319 10.535915,9.2069965 0 0 0 -0.23081,-0.89825 10.535915,9.2069965 0 0 0 -0.33186,-0.87325 10.535915,9.2069965 0 0 0 -0.43006,-0.84058 10.535915,9.2069965 0 0 0 -0.52395,-0.79793 10.535915,9.2069965 0 0 0 -0.61285,-0.74855 10.535915,9.2069965 0 0 0 -0.69526,-0.69149 10.535915,9.2069965 0 0 0 -0.0774,-0.0629 52.687638,46.042029 0 0 0 -0.83718,-1.63413 52.687638,46.042029 0 0 0 -0.28815,-0.43912 z"
       id="path3241-3" />
    <path
       style="display:inline;opacity:1;fill:url(#linearGradient3394-7);fill-opacity:1;stroke:#fa0000;stroke-width:0;stroke-linecap:round;stroke-linejoin:miter;stroke-miterlimit:4;stroke-dasharray:none;stroke-opacity:1;paint-order:markers fill stroke"
       d="m 112.62124,100.27907 a 26.861103,23.473052 0 0 0 -1.90015,0.0594 26.861103,23.473052 0 0 0 -2.66494,0.28235 26.861103,23.473052 0 0 0 -0.46448,0.091 26.861103,23.473052 0 0 0 -2.15532,0.42287 26.861103,23.473052 0 0 0 -2.5481,0.74033 26.861103,23.473052 0 0 0 -0.86944,0.34012 26.861103,23.473052 0 0 0 -1.58191,0.61816 26.861103,23.473052 0 0 0 -2.328791,1.16757 26.861103,23.473052 0 0 0 -2.18399,1.36481 26.861103,23.473052 0 0 0 -2.016982,1.54831 26.861103,23.473052 0 0 0 -1.83063,1.71689 26.861103,23.473052 0 0 0 -1.6249,1.86781 26.861103,23.473052 0 0 0 -1.40344,1.99993 26.861103,23.473052 0 0 0 -1.16762,2.11284 26.861103,23.473052 0 0 0 -0.92032,2.20416 26.861103,23.473052 0 0 0 -0.42146,1.4418 26.861106,23.473055 0 0 0 -0.23438,0.80237 26.861106,23.473055 0 0 1 0.52825,0.22302 26.861103,23.473052 0 0 1 0.72895,0.30751 26.861103,23.473052 0 0 1 2.28864,1.22638 26.861103,23.473052 0 0 1 2.1374,1.41996 26.861103,23.473052 0 0 1 1.96466,1.59908 26.861103,23.473052 0 0 1 0.56626,0.56312 26.861106,23.473055 0 0 1 0.440092,0.43781 26.861103,23.473052 0 0 1 0.76622,0.76228 26.861103,23.473052 0 0 1 1.56184,1.90853 26.861103,23.473052 0 0 1 1.33534,2.03515 26.861103,23.473052 0 0 1 1.097373,2.1415 26.861103,23.473052 0 0 1 0.752608,1.97992 26.861103,23.473052 0 0 0 1.68943,0.71342 26.861103,23.473052 0 0 0 2.52158,0.80423 26.861103,23.473052 0 0 0 2.60187,0.58068 26.861103,23.473052 0 0 0 2.65491,0.35068 26.861103,23.473052 0 0 0 2.68143,0.11754 26.861103,23.473052 0 0 0 1.90015,-0.0594 26.861103,23.473052 0 0 0 2.66567,-0.28244 26.861103,23.473052 0 0 0 1.6163,-0.31756 26.861103,23.473052 0 0 1 0.66087,-2.26253 26.861103,23.473052 0 0 1 0.92104,-2.20416 26.861103,23.473052 0 0 1 1.16762,-2.11266 26.861103,23.473052 0 0 1 1.40342,-2.00054 26.861103,23.473052 0 0 1 1.62492,-1.86789 26.861103,23.473052 0 0 1 1.83062,-1.7168 26.861103,23.473052 0 0 1 1.30165,-0.99902 26.861103,23.473052 0 0 1 0.71534,-0.5493 26.861103,23.473052 0 0 1 2.18399,-1.36489 26.861103,23.473052 0 0 1 1.19558,-0.59939 26.861103,23.473052 0 0 1 1.13319,-0.5681 26.861103,23.473052 0 0 1 2.45065,-0.95847 26.861103,23.473052 0 0 1 2.54812,-0.73973 26.861103,23.473052 0 0 1 0.57412,-0.11273 26.861103,23.473052 0 0 0 -0.0111,-0.0428 26.861103,23.473052 0 0 0 -0.84651,-2.226 26.861103,23.473052 0 0 0 -1.09736,-2.14219 26.861103,23.473052 0 0 0 -1.33534,-2.03506 26.861103,23.473052 0 0 0 -1.56183,-1.90844 26.861103,23.473052 0 0 0 -1.77257,-1.76259 26.861103,23.473052 0 0 0 -1.96468,-1.59971 26.861103,23.473052 0 0 0 -2.13738,-1.42004 26.861103,23.473052 0 0 0 -2.28866,-1.22628 26.861103,23.473052 0 0 0 -2.22126,-0.93775 26.861103,23.473052 0 0 0 -0.19639,-0.0821 26.861103,23.473052 0 0 0 -2.43129,-0.77608 26.861103,23.473052 0 0 0 -0.091,-0.0288 26.861103,23.473052 0 0 0 -2.60187,-0.57999 26.861103,23.473052 0 0 0 -2.65491,-0.35077 26.861103,23.473052 0 0 0 -2.68142,-0.11753 z"
       id="path3213-0"
       inkscape:connector-curvature="0" />
    <path
       style="display:inline;opacity:1;fill:url(#linearGradient3384-8);fill-opacity:1;stroke:#fa0000;stroke-width:0;stroke-linecap:round;stroke-linejoin:miter;stroke-miterlimit:4;stroke-dasharray:none;stroke-opacity:1;paint-order:markers fill stroke"
       d="m 123.78848,64.780122 a 19.670466,17.189386 0 0 0 -0.76336,0.02447 5.3663924,4.7084642 0 0 1 -0.17202,0.08651 5.3663924,4.7084642 0 0 1 -0.48955,0.192251 5.3663924,4.7084642 0 0 1 -0.5089,0.14847 5.3663924,4.7084642 0 0 1 -0.52324,0.10302 5.3663924,4.7084642 0 0 1 -0.53257,0.0568 5.3663924,4.7084642 0 0 1 -0.37988,0.01223 5.3663924,4.7084642 0 0 1 -0.53543,-0.02447 5.3663924,4.7084642 0 0 1 -0.5304,-0.06991 5.3663924,4.7084642 0 0 1 -0.15267,-0.03408 19.670466,17.189386 0 0 0 -0.67377,0.132129 19.670466,17.189386 0 0 0 -1.86647,0.541798 19.670466,17.189386 0 0 0 -1.79478,0.702153 19.670466,17.189386 0 0 0 -1.7052,0.854992 19.670466,17.189386 0 0 0 -1.59911,0.999705 19.670466,17.189386 0 0 0 -0.7526,0.577452 19.670466,17.189386 0 0 1 1.40129,1.13996 19.670466,17.189386 0 0 1 1.29807,1.290965 19.670466,17.189386 0 0 1 1.14323,1.398014 19.670466,17.189386 0 0 1 0.12261,0.187269 10.535915,9.2069965 0 0 1 0.43222,-0.496094 10.535915,9.2069965 0 0 1 0.71748,-0.673927 10.535915,9.2069965 0 0 1 0.79131,-0.606814 10.535915,9.2069965 0 0 1 0.85654,-0.535681 10.535915,9.2069965 0 0 1 0.91388,-0.457819 10.535915,9.2069965 0 0 1 0.96119,-0.375851 10.535915,9.2069965 0 0 1 0.99917,-0.290648 10.535915,9.2069965 0 0 1 1.02785,-0.201077 10.535915,9.2069965 0 0 1 1.04504,-0.110282 10.535915,9.2069965 0 0 1 0.74544,-0.02272 10.535915,9.2069965 0 0 1 1.05221,0.04631 10.535915,9.2069965 0 0 1 1.04076,0.137809 10.535915,9.2069965 0 0 1 1.02067,0.227381 10.535915,9.2069965 0 0 1 0.89238,0.284968 10.535915,9.2069965 0 0 1 0.0968,0.03059 10.535915,9.2069965 0 0 1 0.94829,0.400232 10.535915,9.2069965 0 0 1 0.89811,0.481064 10.535915,9.2069965 0 0 1 0.83862,0.556828 10.535915,9.2069965 0 0 1 0.77052,0.627612 10.535915,9.2069965 0 0 1 0.69456,0.691492 10.535915,9.2069965 0 0 1 0.61283,0.748555 10.535915,9.2069965 0 0 1 0.52396,0.798628 10.535915,9.2069965 0 0 1 0.34476,0.673315 10.535915,9.2069965 0 0 1 0.0853,0.166559 10.535915,9.2069965 0 0 1 0.33256,0.873177 10.535915,9.2069965 0 0 1 0.23008,0.898153 10.535915,9.2069965 0 0 1 0.0939,0.669732 128.51986,112.30936 0 0 1 -1.51524,3.627076 128.51986,112.30936 0 0 1 -2.51084,4.541228 128.51986,112.30936 0 0 1 -3.07707,5.567063 128.51986,112.30936 0 0 1 -1.9654,2.801716 128.51986,112.30936 0 0 1 -3.38599,4.826013 128.51986,112.30936 0 0 1 -1.3633,1.943132 128.51986,112.30936 0 0 1 -1.47368,1.69364 26.861103,23.473052 0 0 1 2.43127,0.77608 26.861103,23.473052 0 0 1 0.19641,0.0821 128.51986,112.30936 0 0 0 3.80389,-4.372042 128.51986,112.30936 0 0 0 2.71654,-3.123728 128.51986,112.30936 0 0 0 1.08018,-1.241417 128.51986,112.30936 0 0 0 6.71539,-9.570687 128.51986,112.30936 0 0 0 5.58721,-10.108815 128.51986,112.30936 0 0 0 0.36124,-0.864343 19.670466,17.189386 0 0 0 -0.0222,-0.04369 19.670466,17.189386 0 0 0 -0.97839,-1.490906 19.670466,17.189386 0 0 0 -1.14324,-1.397402 19.670466,17.189386 0 0 0 -1.29807,-1.290877 19.670466,17.189386 0 0 0 -0.85366,-0.69525 19.670466,17.189386 0 0 0 -0.58489,-0.476083 19.670466,17.189386 0 0 0 -1.56543,-1.039728 19.670466,17.189386 0 0 0 -1.6758,-0.898161 19.670466,17.189386 0 0 0 -1.77042,-0.747244 19.670466,17.189386 0 0 0 -1.84712,-0.589424 19.670466,17.189386 0 0 0 -1.90515,-0.425311 19.670466,17.189386 0 0 0 -1.94461,-0.256219 19.670466,17.189386 0 0 0 -1.96322,-0.08651 z m -12.97995,4.3024 a 19.670466,17.189386 0 0 0 -0.0373,-0.03059 19.670466,17.189386 0 0 0 -1.56542,-1.04034 19.670466,17.189386 0 0 0 -1.67581,-0.897637 19.670466,17.189386 0 0 0 -1.77112,-0.747856 19.670466,17.189386 0 0 0 -1.84641,-0.588724 19.670466,17.189386 0 0 0 -1.90517,-0.425312 19.670466,17.189386 0 0 0 -0.61785,-0.08127 5.3663924,4.7084642 0 0 1 -0.32326,0.06292 5.3663924,4.7084642 0 0 1 -0.53257,0.0568 5.3663924,4.7084642 0 0 1 -0.37987,0.01224 5.3663924,4.7084642 0 0 1 -0.535428,-0.02447 5.3663924,4.7084642 0 0 1 -0.53041,-0.06991 5.3663924,4.7084642 0 0 1 -0.519653,-0.116312 5.3663924,4.7084642 0 0 1 -0.5039,-0.161578 5.3663924,4.7084642 0 0 1 -0.0444,-0.01835 19.670466,17.189386 0 0 0 -1.3124,0.04107 19.670466,17.189386 0 0 0 -1.95176,0.20667 19.670466,17.189386 0 0 0 -1.918072,0.376462 19.670466,17.189386 0 0 0 -1.86647,0.541798 19.670466,17.189386 0 0 0 -1.79477,0.702153 19.670466,17.189386 0 0 0 -1.70521,0.854905 19.670466,17.189386 0 0 0 -0.30964,0.193562 4.5867614,4.008223 0 0 0 -0.2394,0.09333 4.5867614,4.008223 0 0 0 -0.3978,0.199242 4.5867614,4.008223 0 0 0 -0.37272,0.232973 4.5867614,4.008223 0 0 0 -0.34476,0.264345 4.5867614,4.008223 0 0 0 -0.31251,0.293095 4.5867614,4.008223 0 0 0 -0.033,0.03758 19.670467,17.189387 0 0 0 -1.06655,0.819251 19.670467,17.189387 0 0 0 -0.88665,0.831835 19.670466,17.189386 0 0 0 -0.45371,0.425312 19.670466,17.189386 0 0 0 -1.18984,1.367952 19.670466,17.189386 0 0 0 -1.02784,1.464428 19.670466,17.189386 0 0 0 -0.85511,1.547095 19.670466,17.189386 0 0 0 -0.0875,0.209204 128.51986,112.30936 0 0 0 3.01545,5.887859 128.51986,112.30936 0 0 0 6.39213,9.737334 128.51986,112.30936 0 0 0 3.87342,4.733479 128.51986,112.30936 0 0 0 2.604742,3.183151 128.51986,112.30936 0 0 0 0.99415,1.215112 128.51986,112.30936 0 0 0 3.042693,3.02655 26.861103,23.473052 0 0 1 0.869428,-0.34011 26.861103,23.473052 0 0 1 2.54811,-0.74034 26.861103,23.473052 0 0 1 2.15533,-0.42277 128.51986,112.30936 0 0 1 -3.04842,-3.032242 128.51986,112.30936 0 0 1 -0.32469,-0.32315 128.51986,112.30936 0 0 1 -4.302041,-5.257626 128.51986,112.30936 0 0 1 -3.170272,-3.874118 128.51986,112.30936 0 0 1 -2.43988,-3.716822 128.51986,112.30936 0 0 1 -3.95227,-6.021298 128.51986,112.30936 0 0 1 -0.84936,-1.658426 10.535915,9.2069965 0 0 1 -0.001,-0.03496 10.535915,9.2069965 0 0 1 0.0523,-0.918872 10.535915,9.2069965 0 0 1 0.15769,-0.910221 10.535915,9.2069965 0 0 1 0.23367,-0.801773 10.535915,9.2069965 0 0 1 0.0265,-0.08966 10.535915,9.2069965 0 0 1 0.36126,-0.864955 10.535915,9.2069965 0 0 1 0.45801,-0.828688 10.535915,9.2069965 0 0 1 0.55047,-0.784209 10.535915,9.2069965 0 0 1 0.63721,-0.732826 10.535915,9.2069965 0 0 1 0.71819,-0.673315 10.535915,9.2069965 0 0 1 0.79132,-0.6076 10.535915,9.2069965 0 0 1 0.85655,-0.534895 10.535915,9.2069965 0 0 1 0.91315,-0.458606 10.535915,9.2069965 0 0 1 0.0681,-0.02709 10.535915,9.2069965 0 0 1 0.89382,-0.349373 10.535915,9.2069965 0 0 1 0.999172,-0.290124 10.535915,9.2069965 0 0 1 1.02785,-0.201689 10.535915,9.2069965 0 0 1 1.04504,-0.110282 10.535915,9.2069965 0 0 1 0.74543,-0.02272 10.535915,9.2069965 0 0 1 1.05151,0.04631 10.535915,9.2069965 0 0 1 1.041473,0.137197 10.535915,9.2069965 0 0 1 1.020668,0.227992 10.535915,9.2069965 0 0 1 0.98914,0.315641 10.535915,9.2069965 0 0 1 0.94828,0.400406 10.535915,9.2069965 0 0 1 0.89812,0.48089 10.535915,9.2069965 0 0 1 0.8379,0.556828 10.535915,9.2069965 0 0 1 0.77053,0.627 10.535915,9.2069965 0 0 1 0.69526,0.691492 10.535915,9.2069965 0 0 1 0.61283,0.748643 10.535915,9.2069965 0 0 1 0.12761,0.194173 19.670466,17.189386 0 0 1 0.72322,-1.030989 19.670466,17.189386 0 0 1 1.18983,-1.368128 19.670466,17.189386 0 0 1 1.34035,-1.257058 19.670466,17.189386 0 0 1 0.72466,-0.556217 z"
       id="path3087-9"
       inkscape:connector-curvature="0" />
    <path
       style="display:inline;opacity:1;fill:url(#linearGradient3366-0);fill-opacity:1;stroke:#fa0000;stroke-width:0;stroke-linecap:round;stroke-linejoin:miter;stroke-miterlimit:4;stroke-dasharray:none;stroke-opacity:1;paint-order:markers fill stroke"
       d="m 110.41933,37.82837 a 4.5867614,4.008223 0 0 0 -0.3247,0.01223 4.5867614,4.008223 0 0 0 -0.45516,0.04894 4.5867614,4.008223 0 0 0 -0.44725,0.08739 4.5867614,4.008223 0 0 0 -0.43508,0.125925 4.5867614,4.008223 0 0 0 -0.41859,0.1642 4.5867614,4.008223 0 0 0 -0.39709,0.199067 4.5867614,4.008223 0 0 0 -0.37344,0.232973 4.5867614,4.008223 0 0 0 -0.34405,0.264345 4.5867614,4.008223 0 0 0 -0.31251,0.29327 4.5867614,4.008223 0 0 0 -0.27738,0.318787 4.5867614,4.008223 0 0 0 -0.24012,0.341857 4.5867614,4.008223 0 0 0 -0.19926,0.360907 4.5867614,4.008223 0 0 0 -0.15697,0.376462 4.5867614,4.008223 0 0 0 -0.11402,0.387736 4.5867614,4.008223 0 0 0 -0.0681,0.396473 4.5867614,4.008223 0 0 0 -0.0229,0.400232 4.5867614,4.008223 0 0 0 0.0111,0.283133 4.5867614,4.008223 0 0 0 0.0552,0.397697 4.5867614,4.008223 0 0 0 0.10029,0.390882 4.5867614,4.008223 0 0 0 0.14476,0.380133 4.5867614,4.008223 0 0 0 0.18708,0.365801 4.5867614,4.008223 0 0 0 0.22793,0.347624 4.5867614,4.008223 0 0 0 0.26665,0.325778 4.5867614,4.008223 0 0 0 0.3032,0.301223 4.5867614,4.008223 0 0 0 0.33544,0.273083 4.5867614,4.008223 0 0 0 0.36485,0.242411 4.5867614,4.008223 0 0 0 0.39061,0.209204 4.5867614,4.008223 0 0 0 0.41288,0.174774 4.5867614,4.008223 0 0 0 0.43077,0.137197 4.5867614,4.008223 0 0 0 0.4444,0.09936 4.5867614,4.008223 0 0 0 0.45299,0.0603 4.5867614,4.008223 0 0 0 0.45803,0.01922 4.5867614,4.008223 0 0 0 0.32469,-0.01223 4.5867614,4.008223 0 0 0 0.45514,-0.04806 4.5867614,4.008223 0 0 0 0.44728,-0.08739 4.5867614,4.008223 0 0 0 0.43505,-0.126536 4.5867614,4.008223 0 0 0 0.41859,-0.163501 4.5867614,4.008223 0 0 0 0.39782,-0.199853 4.5867614,4.008223 0 0 0 0.37274,-0.232974 4.5867614,4.008223 0 0 0 0.34474,-0.264345 4.5867614,4.008223 0 0 0 0.31251,-0.293095 4.5867614,4.008223 0 0 0 0.27741,-0.318787 4.5867614,4.008223 0 0 0 0.23939,-0.34142 4.5867614,4.008223 0 0 0 0.19926,-0.360733 4.5867614,4.008223 0 0 0 0.15769,-0.376462 4.5867614,4.008223 0 0 0 0.11318,-0.388347 4.5867614,4.008223 0 0 0 0.0681,-0.396474 4.5867614,4.008223 0 0 0 0.0229,-0.39962 4.5867614,4.008223 0 0 0 -0.0111,-0.283745 4.5867614,4.008223 0 0 0 -0.0552,-0.397785 4.5867614,4.008223 0 0 0 -0.10042,-0.390793 4.5867614,4.008223 0 0 0 -0.14479,-0.38022 4.5867614,4.008223 0 0 0 -0.18707,-0.365801 4.5867614,4.008223 0 0 0 -0.22793,-0.347625 4.5867614,4.008223 0 0 0 -0.26663,-0.32569 4.5867614,4.008223 0 0 0 -0.3025,-0.30131 4.5867614,4.008223 0 0 0 -0.33542,-0.273084 4.5867614,4.008223 0 0 0 -0.36558,-0.242411 4.5867614,4.008223 0 0 0 -0.39062,-0.209203 4.5867614,4.008223 0 0 0 -0.41288,-0.174075 4.5867614,4.008223 0 0 0 -0.43077,-0.137809 4.5867614,4.008223 0 0 0 -0.4444,-0.09945 4.5867614,4.008223 0 0 0 -0.45298,-0.0603 4.5867614,4.008223 0 0 0 -0.45802,-0.02097 z"
       id="path3321-2"
       inkscape:connector-curvature="0" />
    <path
       inkscape:connector-curvature="0"
       id="path3299-5"
       style="display:inline;opacity:1;fill:url(#radialGradient840);fill-opacity:1;stroke:#fa0000;stroke-width:0;stroke-linecap:round;stroke-linejoin:miter;stroke-miterlimit:4;stroke-dasharray:none;stroke-opacity:1;paint-order:markers fill stroke"
       d="m 100.47202,132.38068 a 26.861106,23.473055 0 0 1 0.0939,0.24678 26.861106,23.473055 0 0 1 0.58774,2.28927 26.861106,23.473055 0 0 1 0.32398,2.32947 26.861106,23.473055 0 0 1 0.0667,1.66044 26.861106,23.473055 0 0 1 -0.13399,2.34328 26.861106,23.473055 0 0 1 -0.40138,2.32012 26.861106,23.473055 0 0 1 -0.008,0.0288 26.861106,23.473055 0 0 1 -0.65514,2.24366 26.861106,23.473055 0 0 1 -0.921038,2.20416 26.861106,23.473055 0 0 1 -1.167623,2.11266 26.861106,23.473055 0 0 1 -1.40344,2.00063 26.861106,23.473055 0 0 1 -0.2781,0.32001 94.060566,82.196497 0 0 1 1.78834,6.96272 94.060566,82.196497 0 0 1 1.133193,8.15642 94.060566,82.196497 0 0 1 0.23511,5.81445 94.060566,82.196497 0 0 1 -0.46947,8.20597 94.060566,82.196497 0 0 1 -1.404873,8.12391 94.060566,82.196497 0 0 1 -2.32662,7.96111 94.060566,82.196497 0 0 1 -3.224032,7.71791 94.060566,82.196497 0 0 1 -4.08916,7.39799 94.060566,82.196497 0 0 1 -4.91487,7.00458 94.060566,82.196497 0 0 1 -5.68971,6.54115 94.060566,82.196497 0 0 1 -1.18052,1.10737 52.687638,46.042029 0 0 1 2.84988,-1.78068 52.687638,46.042029 0 0 1 4.56867,-2.28997 52.687638,46.042029 0 0 1 4.80664,-1.87977 52.687638,46.042029 0 0 1 4.99803,-1.45132 52.687638,46.042029 0 0 1 5.138502,-1.00844 52.687638,46.042029 0 0 1 5.228111,-0.5543 52.687638,46.042029 0 0 1 3.7272,-0.11517 52.687638,46.042029 0 0 1 5.26036,0.22982 52.687638,46.042029 0 0 1 5.20732,0.68774 52.687638,46.042029 0 0 1 5.10267,1.13873 52.687638,46.042029 0 0 1 4.94713,1.57855 52.687638,46.042029 0 0 1 4.74214,2.00116 52.687638,46.042029 0 0 1 4.48984,2.40584 52.687638,46.042029 0 0 1 3.35448,2.22802 94.060566,82.196497 0 0 1 -0.30966,-0.30761 94.060566,82.196497 0 0 1 -5.46894,-6.68315 94.060566,82.196497 0 0 1 -4.67834,-7.12683 94.060566,82.196497 0 0 1 -3.84044,-7.49936 94.060566,82.196497 0 0 1 -2.96456,-7.79761 94.060566,82.196497 0 0 1 -2.05927,-8.01678 94.060566,82.196497 0 0 1 -1.13321,-8.15589 94.060566,82.196497 0 0 1 -0.23581,-5.81445 94.060566,82.196497 0 0 1 0.4702,-8.20589 94.060566,82.196497 0 0 1 1.40486,-8.12399 94.060566,82.196497 0 0 1 2.13167,-7.29514 26.861106,23.473055 0 0 1 -0.0853,-0.0848 26.861106,23.473055 0 0 1 -1.56182,-1.90852 26.861106,23.473055 0 0 1 -1.33535,-2.03498 26.861106,23.473055 0 0 1 -1.09736,-2.14167 26.861106,23.473055 0 0 1 -0.84651,-2.22671 26.861106,23.473055 0 0 1 -0.0111,-0.0411 26.861106,23.473055 0 0 1 -0.57701,-2.24785 26.861106,23.473055 0 0 1 -0.32397,-2.32955 26.861106,23.473055 0 0 1 -0.0674,-1.66044 26.861106,23.473055 0 0 1 0.13468,-2.34319 26.861106,23.473055 0 0 1 0.40138,-2.32003 26.861106,23.473055 0 0 1 0.003,-0.0122 26.861106,23.473055 0 0 1 -1.61631,0.31756 26.861106,23.473055 0 0 1 -2.66565,0.28243 26.861106,23.473055 0 0 1 -1.90016,0.0594 26.861106,23.473055 0 0 1 -2.68143,-0.11761 26.861106,23.473055 0 0 1 -2.65491,-0.35078 26.861106,23.473055 0 0 1 -2.60186,-0.58059 26.861106,23.473055 0 0 1 -2.5216,-0.80414 26.861106,23.473055 0 0 1 -1.68942,-0.71351 z m 7.27735,84.73092 a 52.687638,46.042029 0 0 0 -3.72719,0.11518 52.687638,46.042029 0 0 0 -5.228111,0.55429 52.687638,46.042029 0 0 0 -5.138522,1.00845 52.687638,46.042029 0 0 0 -4.99803,1.45123 52.687638,46.042029 0 0 0 -4.80664,1.87968 52.687638,46.042029 0 0 0 -4.56867,2.28997 52.687638,46.042029 0 0 0 -2.84988,1.78077 94.060566,82.196497 0 0 1 -5.22811,4.9044 94.060566,82.196497 0 0 1 -5.01808,3.85219 52.687638,46.042029 0 0 0 -1.92166,2.20852 52.687638,46.042029 0 0 0 -2.7531,3.9235 52.687638,46.042029 0 0 0 -0.54833,0.99149 109.95489,96.086035 0 0 0 0.47952,0.2023 109.95489,96.086035 0 0 0 3.11793,1.31595 109.95489,96.086035 0 0 0 10.32434,3.29344 109.95489,96.086035 0 0 0 4.76077,1.06227 109.95489,96.086035 0 0 0 5.88825,1.31412 109.95489,96.086035 0 0 0 10.867642,1.43498 109.95489,96.086035 0 0 0 10.977291,0.47993 109.95489,96.086035 0 0 0 7.77765,-0.24066 109.95489,96.086035 0 0 0 10.91136,-1.15753 109.95489,96.086035 0 0 0 10.72356,-2.10331 109.95489,96.086035 0 0 0 1.36547,-0.39648 109.95489,96.086035 0 0 0 9.06496,-2.63191 109.95489,96.086035 0 0 0 5.9334,-2.32064 109.95489,96.086035 0 0 0 1.26152,-0.49356 52.687638,46.042029 0 0 0 -2.33239,-3.55332 52.687638,46.042029 0 0 0 -1.68367,-2.057 94.060566,82.196497 0 0 1 -3.65194,-2.97342 94.060566,82.196497 0 0 1 -5.8954,-5.86514 52.687638,46.042029 0 0 0 -3.35448,-2.22802 52.687638,46.042029 0 0 0 -4.48984,-2.40584 52.687638,46.042029 0 0 0 -4.74214,-2.00115 52.687638,46.042029 0 0 0 -4.94713,-1.57847 52.687638,46.042029 0 0 0 -5.10267,-1.13882 52.687638,46.042029 0 0 0 -5.20731,-0.68774 52.687638,46.042029 0 0 0 -5.26037,-0.22974 z" />
    <path
       style="display:inline;opacity:1;fill:url(#linearGradient3376-4);fill-opacity:1;stroke:#fa0000;stroke-width:0;stroke-linecap:round;stroke-linejoin:miter;stroke-miterlimit:4;stroke-dasharray:none;stroke-opacity:1;paint-order:markers fill stroke"
       d="m 122.98928,49.701096 a 26.861103,23.473052 0 0 1 -0.91029,0.456596 26.861103,23.473052 0 0 1 -0.5347,0.209204 26.861103,23.473052 0 0 1 -1.91592,0.74908 26.861103,23.473052 0 0 1 -2.54812,0.739729 26.861103,23.473052 0 0 1 -2.61979,0.513659 26.861103,23.473052 0 0 1 -2.66495,0.283133 26.861103,23.473052 0 0 1 -1.90014,0.05942 26.861103,23.473052 0 0 1 -2.68143,-0.117535 26.861103,23.473052 0 0 1 -2.65491,-0.350159 26.861103,23.473052 0 0 1 -2.60186,-0.580597 26.861103,23.473052 0 0 1 -2.522318,-0.80492 26.861103,23.473052 0 0 1 -0.4107,-0.173463 26.861103,23.473052 0 0 1 -1.891553,-0.798016 10.535915,9.2069965 0 0 1 0.39565,0.60192 10.535915,9.2069965 0 0 1 0.43006,0.839962 10.535915,9.2069965 0 0 1 0.33187,0.87378 10.535915,9.2069965 0 0 1 0.0853,0.332595 10.535915,9.2069965 0 0 1 0.14551,0.564955 10.535915,9.2069965 0 0 1 0.12692,0.913891 10.535915,9.2069965 0 0 1 0.0265,0.651381 10.535915,9.2069965 0 0 1 -0.053,0.918872 10.535915,9.2069965 0 0 1 -0.15697,0.910133 10.535915,9.2069965 0 0 1 -0.0953,0.325079 12.249276,10.704248 0 0 0 0.0193,0.07515 5.3663924,4.7084642 0 0 1 0.33042,-0.09691 5.3663924,4.7084642 0 0 1 0.523253,-0.103029 5.3663924,4.7084642 0 0 1 0.53256,-0.0568 5.3663924,4.7084642 0 0 1 0.379168,-0.01223 5.3663924,4.7084642 0 0 1 0.53614,0.02447 5.3663924,4.7084642 0 0 1 0.53041,0.06991 5.3663924,4.7084642 0 0 1 0.51966,0.116312 5.3663924,4.7084642 0 0 1 0.50388,0.161578 5.3663924,4.7084642 0 0 1 0.4831,0.204834 5.3663924,4.7084642 0 0 1 0.45731,0.24547 5.3663924,4.7084642 0 0 1 0.42719,0.285056 5.3663924,4.7084642 0 0 1 0.39207,0.320709 5.3663924,4.7084642 0 0 1 0.35408,0.353829 5.3663924,4.7084642 0 0 1 0.31179,0.382754 5.3663924,4.7084642 0 0 1 0.26737,0.408359 5.3663924,4.7084642 0 0 1 0.21861,0.42968 5.3663924,4.7084642 0 0 1 0.16915,0.446722 5.3663924,4.7084642 0 0 1 0.11748,0.458955 5.3663924,4.7084642 0 0 1 0.0652,0.467248 5.3663924,4.7084642 0 0 1 0.0125,0.333381 5.3663924,4.7084642 0 0 1 -0.0265,0.469616 5.3663924,4.7084642 0 0 1 -0.0803,0.465422 5.3663924,4.7084642 0 0 1 -0.1326,0.456072 5.3663924,4.7084642 0 0 1 -0.1842,0.442098 5.3663924,4.7084642 0 0 1 -0.18207,0.33145 5.3663924,4.7084642 0 0 1 -0.0509,0.09333 5.3663924,4.7084642 0 0 1 -0.28026,0.400764 5.3663924,4.7084642 0 0 1 -0.0939,0.107914 5.3663924,4.7084642 0 0 1 -0.23081,0.266268 5.3663924,4.7084642 0 0 1 -0.36555,0.344478 5.3663924,4.7084642 0 0 1 -0.0208,0.01573 5.3663924,4.7084642 0 0 1 -0.38275,0.294406 5.3663924,4.7084642 0 0 1 -0.43579,0.273695 5.3663924,4.7084642 0 0 1 -0.46591,0.234284 5.3663924,4.7084642 0 0 1 -0.48955,0.192251 5.3663924,4.7084642 0 0 1 -0.5089,0.14847 5.3663924,4.7084642 0 0 1 -0.19998,0.0402 19.670467,17.189387 0 0 1 0.61785,0.08127 19.670467,17.189387 0 0 1 1.90517,0.425312 19.670467,17.189387 0 0 1 1.8464,0.588724 19.670467,17.189387 0 0 1 1.77113,0.747856 19.670467,17.189387 0 0 1 1.67581,0.897637 19.670467,17.189387 0 0 1 1.56541,1.04034 19.670467,17.189387 0 0 1 0.0373,0.03059 19.670467,17.189387 0 0 1 0.7526,-0.577539 19.670467,17.189387 0 0 1 1.59912,-0.999617 19.670467,17.189387 0 0 1 1.70519,-0.854993 19.670467,17.189387 0 0 1 1.79479,-0.702152 19.670467,17.189387 0 0 1 1.86646,-0.541798 19.670467,17.189387 0 0 1 0.67376,-0.132129 5.3663924,4.7084642 0 0 1 -0.36698,-0.08214 5.3663924,4.7084642 0 0 1 -0.50389,-0.161657 5.3663924,4.7084642 0 0 1 -0.48311,-0.204144 5.3663924,4.7084642 0 0 1 -0.45729,-0.24616 5.3663924,4.7084642 0 0 1 -0.30678,-0.204834 5.3663924,4.7084642 0 0 1 -0.1204,-0.07952 5.3663924,4.7084642 0 0 1 -0.39279,-0.320718 5.3663924,4.7084642 0 0 1 -0.35336,-0.353829 5.3663924,4.7084642 0 0 1 -0.0917,-0.111497 5.3663924,4.7084642 0 0 1 -0.15124,-0.186055 5.3663924,4.7084642 0 0 1 -0.0695,-0.08477 5.3663924,4.7084642 0 0 1 -0.26665,-0.408445 5.3663924,4.7084642 0 0 1 -0.21933,-0.428982 5.3663924,4.7084642 0 0 1 -0.16916,-0.447237 5.3663924,4.7084642 0 0 1 -0.11748,-0.459139 5.3663924,4.7084642 0 0 1 -0.0645,-0.467257 5.3663924,4.7084642 0 0 1 -0.0139,-0.332594 5.3663924,4.7084642 0 0 1 0.0272,-0.470394 5.3663924,4.7084642 0 0 1 0.0803,-0.465422 5.3663924,4.7084642 0 0 1 0.1326,-0.455984 5.3663924,4.7084642 0 0 1 0.1835,-0.442177 5.3663924,4.7084642 0 0 1 0.23366,-0.423389 5.3663924,4.7084642 0 0 1 0.28026,-0.401543 5.3663924,4.7084642 0 0 1 0.32469,-0.374539 5.3663924,4.7084642 0 0 1 0.36556,-0.344479 5.3663924,4.7084642 0 0 1 0.40282,-0.31066 5.3663924,4.7084642 0 0 1 0.43651,-0.27387 5.3663924,4.7084642 0 0 1 0.46518,-0.234109 5.3663924,4.7084642 0 0 1 0.48955,-0.192426 5.3663924,4.7084642 0 0 1 0.50963,-0.148295 5.3663924,4.7084642 0 0 1 0.52324,-0.103029 5.3663924,4.7084642 0 0 1 0.53255,-0.0568 5.3663924,4.7084642 0 0 1 0.37917,-0.01223 5.3663924,4.7084642 0 0 1 0.53615,0.02447 5.3663924,4.7084642 0 0 1 0.53041,0.06991 5.3663924,4.7084642 0 0 1 0.51965,0.116312 5.3663924,4.7084642 0 0 1 0.33473,0.107922 12.249276,10.704248 0 0 0 0.0315,-0.106699 12.249276,10.704248 0 0 0 0.048,-0.27754 10.535915,9.2069965 0 0 1 -0.1326,-0.348848 10.535915,9.2069965 0 0 1 -0.23079,-0.898249 10.535915,9.2069965 0 0 1 -0.12691,-0.913804 10.535915,9.2069965 0 0 1 -0.0265,-0.650769 10.535915,9.2069965 0 0 1 0.0523,-0.919492 10.535915,9.2069965 0 0 1 0.15769,-0.910134 10.535915,9.2069965 0 0 1 0.0366,-0.124604 10.535915,9.2069965 0 0 1 0.22435,-0.766819 10.535915,9.2069965 0 0 1 0.36053,-0.864256 10.535915,9.2069965 0 0 1 0.25517,-0.462372 z"
       id="path3167-4"
       inkscape:connector-curvature="0" />
    <path
       style="display:inline;opacity:1;fill:url(#linearGradient3374-8);fill-opacity:1;stroke:#fa0000;stroke-width:0;stroke-linecap:round;stroke-linejoin:miter;stroke-miterlimit:4;stroke-dasharray:none;stroke-opacity:1;paint-order:markers fill stroke"
       d="m 121.54429,51.649647 a 12.249276,10.704248 0 0 0 -0.26162,-0.511038 12.249276,10.704248 0 0 0 -0.60926,-0.92831 12.249276,10.704248 0 0 0 -0.71175,-0.870023 12.249276,10.704248 0 0 0 -0.80852,-0.80422 12.249276,10.704248 0 0 0 -0.89596,-0.729068 12.249276,10.704248 0 0 0 -0.97479,-0.647711 12.249276,10.704248 0 0 0 -1.04362,-0.559275 12.249276,10.704248 0 0 0 -1.1024,-0.465431 12.249276,10.704248 0 0 0 -1.1504,-0.366412 12.249276,10.704248 0 0 0 -1.18626,-0.264957 12.249276,10.704248 0 0 0 -1.21061,-0.159743 12.249276,10.704248 0 0 0 -1.22281,-0.05331 12.249276,10.704248 0 0 0 -0.86658,0.02709 12.249276,10.704248 0 0 0 -1.21563,0.12907 12.249276,10.704248 0 0 0 -1.19486,0.234284 12.249276,10.704248 0 0 0 -1.16187,0.337575 12.249276,10.704248 0 0 0 -1.11745,0.436584 12.249276,10.704248 0 0 0 -1.06226,0.532369 12.249276,10.704248 0 0 0 -0.99558,0.622631 12.249276,10.704248 0 0 0 -0.92034,0.706522 12.249276,10.704248 0 0 0 -0.83431,0.782374 12.249276,10.704248 0 0 0 -0.74113,0.851846 12.249276,10.704248 0 0 0 -0.640068,0.91258 12.249276,10.704248 0 0 0 -0.53257,0.963352 12.249276,10.704248 0 0 0 -0.0595,0.141479 26.861106,23.473055 0 0 0 0.41071,0.173551 26.861106,23.473055 0 0 0 2.522298,0.804832 26.861106,23.473055 0 0 0 2.60186,0.580685 26.861106,23.473055 0 0 0 2.65492,0.350071 26.861106,23.473055 0 0 0 2.68142,0.117623 26.861106,23.473055 0 0 0 1.90016,-0.05942 26.861106,23.473055 0 0 0 2.66495,-0.283046 26.861106,23.473055 0 0 0 2.61978,-0.513659 26.861106,23.473055 0 0 0 2.54811,-0.739729 26.861106,23.473055 0 0 0 1.91592,-0.74908 z"
       id="path3165-0"
       inkscape:connector-curvature="0" />
    <path
       style="display:inline;opacity:1;fill:#00ff00;fill-opacity:1;stroke:#fa0000;stroke-width:0;stroke-linecap:round;stroke-linejoin:miter;stroke-miterlimit:4;stroke-dasharray:none;stroke-opacity:1;paint-order:markers fill stroke"
       d="m 122.33989,58.227774 a 5.3663924,4.7084642 0 0 1 0.16916,0.05331 5.3663924,4.7084642 0 0 1 0.0918,0.03845 10.535915,9.2069965 0 0 1 -0.18135,-0.477394 12.249276,10.704248 0 0 1 -0.048,0.277453 12.249276,10.704248 0 0 1 -0.0315,0.106699 z"
       id="path3159-5"
       inkscape:connector-curvature="0" />
    <path
       style="display:inline;opacity:1;fill:#00ff00;fill-opacity:1;stroke:#fa0000;stroke-width:0;stroke-linecap:round;stroke-linejoin:miter;stroke-miterlimit:4;stroke-dasharray:none;stroke-opacity:1;paint-order:markers fill stroke"
       d="m 98.388379,58.177526 a 12.249276,10.704248 0 0 1 -0.0193,-0.07515 10.535915,9.2069965 0 0 1 -0.0258,0.08852 5.3663924,4.7084642 0 0 1 0.0452,-0.01311 z"
       id="path3111-9"
       inkscape:connector-curvature="0" />
    <path
       style="display:inline;opacity:1;fill:url(#linearGradient3392-8);fill-opacity:1;stroke:#fa0000;stroke-width:0;stroke-linecap:round;stroke-linejoin:miter;stroke-miterlimit:4;stroke-dasharray:none;stroke-opacity:1;paint-order:markers fill stroke"
       d="m 110.80853,67.799772 a 19.670485,17.189389 0 0 0 -0.72465,0.556217 19.670485,17.189389 0 0 0 -1.34035,1.257058 19.670485,17.189389 0 0 0 -1.18983,1.367953 19.670485,17.189389 0 0 0 -0.72323,1.030989 19.670485,17.189389 0 0 0 -0.30463,0.434216 19.670485,17.189389 0 0 0 -0.85511,1.547105 19.670485,17.189389 0 0 0 -0.67447,1.614112 19.670485,17.189389 0 0 0 -0.48668,1.664806 19.670485,17.189389 0 0 0 -0.29388,1.69872 19.670485,17.189389 0 0 0 -0.0982,1.716189 19.670485,17.189389 0 0 0 0.0495,1.215812 19.670485,17.189389 0 0 0 0.23725,1.705528 19.670485,17.189389 0 0 0 0.0817,0.320097 19.670485,17.189389 0 0 0 0.34834,1.35668 19.670485,17.189389 0 0 0 0.62,1.630367 19.670485,17.189389 0 0 0 0.80351,1.568426 19.670485,17.189389 0 0 0 0.67448,1.02662 19.670485,17.189389 0 0 0 0.30392,0.463499 19.670485,17.189389 0 0 0 1.14395,1.398014 19.670485,17.189389 0 0 0 1.29734,1.291052 19.670485,17.189389 0 0 0 1.40129,1.139961 19.670485,17.189389 0 0 0 0.72466,-0.556217 19.670485,17.189389 0 0 0 1.34036,-1.257234 19.670485,17.189389 0 0 0 1.18985,-1.367952 19.670485,17.189389 0 0 0 0.67947,-0.968342 19.670485,17.189389 0 0 0 0.34836,-0.496697 19.670485,17.189389 0 0 0 0.85581,-1.547105 19.670485,17.189389 0 0 0 0.67376,-1.614112 19.670485,17.189389 0 0 0 0.34978,-1.195102 19.670485,17.189389 0 0 0 0.1369,-0.469092 19.670485,17.189389 0 0 0 0.29389,-1.699323 19.670485,17.189389 0 0 0 0.0982,-1.716285 19.670485,17.189389 0 0 0 -0.0495,-1.215716 19.670485,17.189389 0 0 0 -0.23654,-1.705537 19.670485,17.189389 0 0 0 -0.43077,-1.676777 19.670485,17.189389 0 0 0 -0.62,-1.630463 19.670485,17.189389 0 0 0 -0.80351,-1.56833 19.670485,17.189389 0 0 0 -0.85581,-1.302841 19.670485,17.189389 0 0 0 -0.12262,-0.187279 19.670485,17.189389 0 0 0 -1.14324,-1.398013 19.670485,17.189389 0 0 0 -1.29807,-1.291044 19.670485,17.189389 0 0 0 -1.40129,-1.13996 z"
       id="path3081-4"
       inkscape:connector-curvature="0" />
  </g>
</svg>
