<?xml version="1.0" encoding="UTF-8" standalone="no"?>
<!-- Created with Inkscape (http://www.inkscape.org/) -->

<svg
   xmlns:dc="http://purl.org/dc/elements/1.1/"
   xmlns:cc="http://creativecommons.org/ns#"
   xmlns:rdf="http://www.w3.org/1999/02/22-rdf-syntax-ns#"
   xmlns:svg="http://www.w3.org/2000/svg"
   xmlns="http://www.w3.org/2000/svg"
   xmlns:xlink="http://www.w3.org/1999/xlink"
   xmlns:sodipodi="http://sodipodi.sourceforge.net/DTD/sodipodi-0.dtd"
   xmlns:inkscape="http://www.inkscape.org/namespaces/inkscape"
   width="210mm"
   height="297mm"
   viewBox="0 0 210 297"
   version="1.1"
   id="svg11386"
   sodipodi:docname="wN.svg"
   inkscape:version="0.92.3 (2405546, 2018-03-11)">
  <defs
     id="defs11380">
    <linearGradient
       inkscape:collect="always"
       xlink:href="#linearGradient8943"
       id="linearGradient8945"
       x1="-327.70535"
       y1="540.41669"
       x2="-327.70535"
       y2="498.08334"
       gradientUnits="userSpaceOnUse"
       gradientTransform="matrix(0.82266847,0,0,0.82266847,374.23265,-199.31059)" />
    <linearGradient
       inkscape:collect="always"
       id="linearGradient8943">
      <stop
         style="stop-color:#cccccc;stop-opacity:1"
         offset="0"
         id="stop8939" />
      <stop
         style="stop-color:#cccccc;stop-opacity:1"
         offset="1"
         id="stop8941" />
    </linearGradient>
    <linearGradient
       inkscape:collect="always"
       xlink:href="#linearGradient8937"
       id="linearGradient8885"
       gradientUnits="userSpaceOnUse"
       x1="-329.08478"
       y1="516.8822"
       x2="-334.13095"
       y2="482.96429"
       gradientTransform="matrix(0.82266847,0,0,0.82266847,374.23265,-199.31059)" />
    <linearGradient
       inkscape:collect="always"
       id="linearGradient8937">
      <stop
         style="stop-color:#ececec;stop-opacity:1"
         offset="0"
         id="stop8933" />
      <stop
         style="stop-color:#cccccc;stop-opacity:1"
         offset="1"
         id="stop8935" />
    </linearGradient>
    <linearGradient
       inkscape:collect="always"
       xlink:href="#linearGradient8937"
       id="linearGradient8883"
       gradientUnits="userSpaceOnUse"
       gradientTransform="matrix(0.21766437,0,0,0.21766437,374.23265,-199.31059)"
       x1="-1222.8572"
       y1="1919.6626"
       x2="-1171.4286"
       y2="1703.9482" />
    <linearGradient
       inkscape:collect="always"
       xlink:href="#linearGradient8937"
       id="linearGradient8925"
       x1="-339.59796"
       y1="494.2226"
       x2="-389.69345"
       y2="481.45239"
       gradientUnits="userSpaceOnUse"
       gradientTransform="matrix(0.82266847,0,0,0.82266847,374.23265,-199.31059)" />
    <linearGradient
       inkscape:collect="always"
       xlink:href="#linearGradient11086"
       id="linearGradient8895"
       x1="-305.88525"
       y1="345.97269"
       x2="-263.07144"
       y2="314.00894"
       gradientUnits="userSpaceOnUse"
       gradientTransform="matrix(0.82266847,0,0,0.82266847,375.83627,-206.2596)" />
    <linearGradient
       inkscape:collect="always"
       id="linearGradient11086">
      <stop
         style="stop-color:#e6e6e6;stop-opacity:1;"
         offset="0"
         id="stop11082" />
      <stop
         style="stop-color:#cccccc;stop-opacity:1"
         offset="1"
         id="stop11084" />
    </linearGradient>
    <radialGradient
       inkscape:collect="always"
       xlink:href="#linearGradient8907"
       id="radialGradient8909"
       cx="-290.35806"
       cy="349.10596"
       fx="-290.35806"
       fy="349.10596"
       r="13.51777"
       gradientTransform="matrix(0.82266847,0,0,0.79010377,374.23265,-187.94205)"
       gradientUnits="userSpaceOnUse" />
    <linearGradient
       inkscape:collect="always"
       id="linearGradient8907">
      <stop
         style="stop-color:#999999;stop-opacity:1"
         offset="0"
         id="stop8903" />
      <stop
         style="stop-color:#cccccc;stop-opacity:1"
         offset="1"
         id="stop8905" />
    </linearGradient>
    <linearGradient
       inkscape:collect="always"
       xlink:href="#linearGradient8937"
       id="linearGradient8875"
       gradientUnits="userSpaceOnUse"
       x1="-342.73816"
       y1="402.78485"
       x2="-262.31549"
       y2="456.88394"
       gradientTransform="matrix(0.82266847,0,0,0.82266847,374.23265,-199.31059)" />
    <linearGradient
       inkscape:collect="always"
       xlink:href="#linearGradient8937"
       id="linearGradient8873"
       gradientUnits="userSpaceOnUse"
       x1="-323.49734"
       y1="421.10516"
       x2="-217.3363"
       y2="467.08929"
       gradientTransform="matrix(0.82266847,0,0,0.82266847,374.23265,-199.31059)" />
    <linearGradient
       inkscape:collect="always"
       xlink:href="#linearGradient5235"
       id="linearGradient8871"
       gradientUnits="userSpaceOnUse"
       x1="-308.95853"
       y1="143.55212"
       x2="-265.13138"
       y2="159.08893"
       gradientTransform="matrix(0.82266847,0,0,0.82266847,374.23265,-199.31059)" />
    <linearGradient
       inkscape:collect="always"
       id="linearGradient5235">
      <stop
         style="stop-color:#000000;stop-opacity:1;"
         offset="0"
         id="stop5231" />
      <stop
         style="stop-color:#000000;stop-opacity:0;"
         offset="1"
         id="stop5233" />
    </linearGradient>
    <linearGradient
       inkscape:collect="always"
       xlink:href="#linearGradient8937"
       id="linearGradient8917"
       x1="-349.92001"
       y1="358.67844"
       x2="-245.30655"
       y2="416.0625"
       gradientUnits="userSpaceOnUse"
       gradientTransform="matrix(0.82266847,0,0,0.82266847,374.23265,-199.31059)" />
    <linearGradient
       inkscape:collect="always"
       xlink:href="#linearGradient11086"
       id="linearGradient12040"
       gradientUnits="userSpaceOnUse"
       gradientTransform="matrix(0.82266847,0,0,0.82266847,374.23265,-199.31059)"
       x1="-305.88525"
       y1="345.97269"
       x2="-263.07144"
       y2="314.00894" />
    <linearGradient
       inkscape:collect="always"
       xlink:href="#linearGradient11086"
       id="linearGradient12383"
       gradientUnits="userSpaceOnUse"
       gradientTransform="matrix(0.82266847,0,0,0.82266847,374.23265,-199.31059)"
       x1="-305.88525"
       y1="345.97269"
       x2="-263.07144"
       y2="314.00894" />
  </defs>
  <sodipodi:namedview
     id="base"
     pagecolor="#ffffff"
     bordercolor="#666666"
     borderopacity="1.0"
     inkscape:pageopacity="0.0"
     inkscape:pageshadow="2"
     inkscape:zoom="0.49497475"
     inkscape:cx="-289.51079"
     inkscape:cy="685.01587"
     inkscape:document-units="mm"
     inkscape:current-layer="layer1"
     showgrid="false"
     inkscape:window-width="1920"
     inkscape:window-height="1017"
     inkscape:window-x="0"
     inkscape:window-y="0"
     inkscape:window-maximized="1" />
  <metadata
     id="metadata11383">
    <rdf:RDF>
      <cc:Work
         rdf:about="">
        <dc:format>image/svg+xml</dc:format>
        <dc:type
           rdf:resource="http://purl.org/dc/dcmitype/StillImage" />
      </cc:Work>
    </rdf:RDF>
  </metadata>
  <g
     inkscape:label="Layer 1"
     inkscape:groupmode="layer"
     id="layer1">
    <path
       inkscape:connector-curvature="0"
       id="path8833"
       d="m 109.72988,91.810503 a 18.595935,18.595935 0 0 0 0.25423,0.56798 18.595935,18.595935 0 0 0 0.92465,1.6125 18.595935,18.595935 0 0 0 1.08153,1.51174 18.595935,18.595935 0 0 0 0.37494,0.42725 3.3454917,3.3454917 0 0 0 0.0425,-0.16622 3.3454917,3.3454917 0 0 0 0.0503,-0.33033 3.3454917,3.3454917 0 0 1 0,-4.3e-4 3.3454917,3.3454917 0 0 0 0.0166,-0.33372 3.3454917,3.3454917 0 0 1 0,-4.2e-4 3.3454917,3.3454917 0 0 0 -0.009,-0.23638 3.3454917,3.3454917 0 0 0 -0.0404,-0.33201 3.3454917,3.3454917 0 0 0 -0.0727,-0.32608 3.3454917,3.3454917 0 0 0 0,-4.2e-4 h -5.3e-4 a 3.3454917,3.3454917 0 0 0 -0.10542,-0.31713 3.3454917,3.3454917 0 0 0 -0.13647,-0.30524 3.3454917,3.3454917 0 0 0 -0.16665,-0.28994 3.3454917,3.3454917 0 0 0 -0.19428,-0.27208 3.3454917,3.3454917 0 0 0 -0.22065,-0.25125 3.3454917,3.3454917 0 0 0 -0.24444,-0.22787 3.3454917,3.3454917 0 0 0 -0.26614,-0.20236 3.3454917,3.3454917 0 0 0 -0.28483,-0.17472 3.3454917,3.3454917 0 0 1 0,-4.3e-4 3.3454917,3.3454917 0 0 0 -0.30099,-0.1454 3.3454917,3.3454917 0 0 0 -0.31415,-0.11441 3.3454917,3.3454917 0 0 0 -0.32395,-0.0829 3.3454917,3.3454917 0 0 0 -0.0638,-0.01 z m -2.93209,0.88851 a 3.3454917,3.3454917 0 0 0 -0.22788,0.24487 h 5.3e-4 a 3.3454917,3.3454917 0 0 1 0.22743,-0.24487 z m -0.43066,0.51101 a 3.3454917,3.3454917 0 0 0 -0.17429,0.28525 3.3454917,3.3454917 0 0 1 0.17471,-0.28525 z m -0.35624,3.10129 a 3.3454917,3.3454917 0 0 0 0.13646,0.30524 3.3454917,3.3454917 0 0 0 0.16663,0.28993 3.3454917,3.3454917 0 0 0 0.1943,0.27209 3.3454917,3.3454917 0 0 0 0.22105,0.25125 3.3454917,3.3454917 0 0 1 -0.22062,-0.25125 3.3454917,3.3454917 0 0 1 -0.19428,-0.27209 3.3454917,3.3454917 0 0 1 -0.16665,-0.28993 3.3454917,3.3454917 0 0 1 -0.13689,-0.30524 z"
       style="display:inline;opacity:1;fill:#4d4d4d;fill-opacity:1;stroke:none;stroke-width:0;stroke-linecap:round;stroke-linejoin:miter;stroke-miterlimit:4;stroke-dasharray:none;stroke-dashoffset:0;stroke-opacity:1;paint-order:markers fill stroke" />
    <path
       inkscape:connector-curvature="0"
       id="path8835"
       d="m 112.36767,96.365743 a 18.607818,18.59603 0 0 1 0,-4.3e-4 18.607818,18.59603 0 0 1 -0.37521,-0.42726 18.607818,18.59603 0 0 1 -1.08222,-1.51175 18.607818,18.59603 0 0 1 -0.92523,-1.61251 18.607818,18.59603 0 0 1 -0.25439,-0.56797 3.3476295,3.3455089 0 0 0 -0.26713,-0.0404 3.3476295,3.3455089 0 0 0 -0.33394,-0.0166 3.3476295,3.3455089 0 0 0 -0.23695,0.009 3.3476295,3.3455089 0 0 0 -0.33182,0.0404 3.3476295,3.3455089 0 0 0 -0.3263,0.0731 3.3476295,3.3455089 0 0 0 -0.31733,0.10542 3.3476295,3.3455089 0 0 0 -0.30543,0.13646 3.3476295,3.3455089 0 0 0 -0.29011,0.16665 3.3476295,3.3455089 0 0 0 -0.27226,0.19428 3.3476295,3.3455089 0 0 0 -0.2514,0.22065 3.3476295,3.3455089 0 0 0 -0.22759,0.24487 3.3476295,3.3455089 0 0 0 -0.2025,0.26613 3.3476295,3.3455089 0 0 0 -0.17442,0.28526 3.3476295,3.3455089 0 0 0 -0.14591,0.30099 3.3476295,3.3455089 0 0 0 -0.1144,0.31417 3.3476295,3.3455089 0 0 0 -0.083,0.32395 3.3476295,3.3455089 0 0 1 0,4.3e-4 3.3476295,3.3455089 0 0 0 -0.0503,0.33032 3.3476295,3.3455089 0 0 0 -0.0161,0.33373 3.3476295,3.3455089 0 0 0 0.009,0.2368 3.3476295,3.3455089 0 0 0 0.0404,0.33202 3.3476295,3.3455089 0 0 1 0,4.5e-4 3.3476295,3.3455089 0 0 0 0.0731,0.32608 3.3476295,3.3455089 0 0 0 0.10505,0.31713 3.3476295,3.3455089 0 0 0 0.13698,0.30525 3.3476295,3.3455089 0 0 0 0.16676,0.28993 3.3476295,3.3455089 0 0 0 0.1944,0.27209 3.3476295,3.3455089 0 0 0 0.22078,0.25124 3.3476295,3.3455089 0 0 0 0.2446,0.22787 3.3476295,3.3455089 0 0 0 0.26587,0.20237 3.3476295,3.3455089 0 0 1 0,5.2e-4 3.3476295,3.3455089 0 0 0 0.11022,0.0676 3.3476295,3.3455089 0 0 0 0.17483,0.10714 3.3476295,3.3455089 0 0 0 0.30117,0.14539 3.3476295,3.3455089 0 0 0 0.31395,0.11441 3.3476295,3.3455089 0 0 0 0.32415,0.0829 3.3476295,3.3455089 0 0 0 0.33055,0.0502 3.3476295,3.3455089 0 0 0 0.33392,0.0166 3.3476295,3.3455089 0 0 0 0.2361,-0.009 3.3476295,3.3455089 0 0 0 0.33181,-0.0404 3.3476295,3.3455089 0 0 0 0.32628,-0.0731 3.3476295,3.3455089 0 0 0 0.31737,-0.10542 3.3476295,3.3455089 0 0 0 0.30501,-0.13647 3.3476295,3.3455089 0 0 0 0.28971,-0.16665 3.3476295,3.3455089 0 0 0 0.27225,-0.19427 3.3476295,3.3455089 0 0 0 0.25141,-0.22063 3.3476295,3.3455089 0 0 0 0.22801,-0.2449 3.3476295,3.3455089 0 0 0 0.2025,-0.26612 3.3476295,3.3455089 0 0 0 0.17525,-0.28484 3.3476295,3.3455089 0 0 1 0,-5.2e-4 3.3476295,3.3455089 0 0 0 0.14592,-0.30099 3.3476295,3.3455089 0 0 0 0.11441,-0.31417 3.3476295,3.3455089 0 0 0 0.0404,-0.1573 z"
       style="display:inline;opacity:1;fill:#000000;fill-opacity:1;stroke:none;stroke-width:0;stroke-linecap:round;stroke-linejoin:miter;stroke-miterlimit:4;stroke-dasharray:none;stroke-dashoffset:0;stroke-opacity:1;paint-order:markers fill stroke" />
    <path
       id="path8837"
       d="m 112.86086,82.558083 a 65.215871,65.215871 0 0 0 -1.9084,0.0676 65.215871,65.215871 0 0 0 -2.7038,0.0957 65.215871,65.215871 0 0 0 -0.20448,0.0246 18.595933,18.595933 0 0 0 0,4.2e-4 65.215871,65.215871 0 0 0 -1.97428,0.23978 h -0.006 a 29.82487,29.82487 0 0 0 -2.76715,0.91955 29.82487,29.82487 0 0 0 -2.72082,1.21799 29.82487,29.82487 0 0 0 -2.58601,1.48325 29.82487,29.82487 0 0 0 -2.42491,1.73409 29.82487,29.82487 0 0 0 -2.23957,1.96748 29.82487,29.82487 0 0 0 -2.0321,2.18132 29.82487,29.82487 0 0 0 -1.80381,2.37347 29.82487,29.82487 0 0 0 -1.14063,1.8595 29.82487,29.82487 0 0 0 -0.41791,0.68191 29.82487,29.82487 0 0 0 0,5.3e-4 29.82487,29.82487 0 0 0 -1.29618,2.684247 29.82487,29.82487 0 0 0 -1.02245,2.8003 29.82487,29.82487 0 0 0 -0.17726,0.6921 34.890477,34.890477 0 0 0 0,0.004 29.82487,29.82487 0 0 1 0.002,-0.004 34.890477,34.890477 0 0 0 -0.002,0.0374 34.890477,34.890477 0 0 0 0.0876,2.46785 34.890477,34.890477 0 0 0 0.41959,3.46223 34.890477,34.890477 0 0 1 0,5.3e-4 34.890477,34.890477 0 0 0 0.76396,3.4027 34.890477,34.890477 0 0 0 1.08025,3.25137 65.215871,65.215871 0 0 0 -0.002,7.9e-4 34.890477,34.890477 0 0 0 0,5.3e-4 34.890477,34.890477 0 0 0 0.0192,0.0569 34.890477,34.890477 0 0 0 1.4246,3.18333 34.890477,34.890477 0 0 0 0.21595,0.37668 34.890477,34.890477 0 0 0 0.36775,0.64065 18.595935,18.595935 0 0 1 0.86811,0.4196 18.595935,18.595935 0 0 1 1.58445,0.97141 18.595935,18.595935 0 0 1 1.47941,1.12489 18.595935,18.595935 0 0 1 0.724,0.67382 18.595935,18.595935 0 0 0 0.15602,-0.20492 18.595935,18.595935 0 0 0 0.97184,-1.58442 18.595935,18.595935 0 0 0 0.37284,-0.77119 v 0 a 18.595935,18.595935 0 0 1 0,-5.2e-4 18.595934,18.595934 0 0 0 0.21043,-0.43577 18.595934,18.595934 0 0 0 0.22531,-0.46636 18.595934,18.595934 0 0 1 0,-5.2e-4 18.595934,18.595934 0 0 0 0.63684,-1.74556 18.595934,18.595934 0 0 0 0.45998,-1.80085 18.595934,18.595934 0 0 1 0,-5.2e-4 18.595934,18.595934 0 0 0 0.27762,-1.83783 18.595934,18.595934 0 0 1 0,-5.3e-4 18.595934,18.595934 0 0 0 0.0931,-1.8561 18.595934,18.595934 0 0 0 -0.0467,-1.31535 18.595934,18.595934 0 0 0 -0.21129,-1.7396 65.215871,65.215871 0 0 1 0.002,-0.001 65.215871,65.215871 0 0 0 0,-5.3e-4 h -0.002 a 18.595933,18.595933 0 0 0 0,-5.3e-4 65.215871,65.215871 0 0 1 0.58709,-0.3367 65.215871,65.215871 0 0 1 0,-5.3e-4 65.215871,65.215871 0 0 1 5.94963,-2.66215 65.215871,65.215871 0 0 1 0,-5.3e-4 65.215871,65.215871 0 0 1 6.18603,-2.05549 65.215871,65.215871 0 0 1 0,-5.3e-4 65.215871,65.215871 0 0 1 6.3603,-1.42758 65.215871,65.215871 0 0 1 6.3637,-0.77287 65.215871,65.215871 0 0 1 0.10591,-0.0128 65.215871,65.215871 0 0 1 4.00381,-0.14157 h 0.004 a 65.215871,65.215871 0 0 1 0.60922,-0.0217 65.215871,65.215871 0 0 1 2.47294,0.12372 18.595934,18.595934 0 0 1 -0.54032,0.12156 18.595934,18.595934 0 0 1 -1.84506,0.22403 18.595934,18.595934 0 0 1 -0.48719,0.0175 18.595934,18.595934 0 0 0 0.18874,0.42216 18.595934,18.595934 0 0 1 0,5.2e-4 18.595934,18.595934 0 0 0 0.92466,1.61208 18.595934,18.595934 0 0 1 0,5.3e-4 18.595934,18.595934 0 0 0 1.08108,1.51173 18.595934,18.595934 0 0 0 1.22692,1.39614 18.595934,18.595934 0 0 1 0,5.3e-4 18.595934,18.595934 0 0 0 1.35957,1.26688 18.595934,18.595934 0 0 0 1.47986,1.12487 18.595934,18.595934 0 0 0 1.58486,0.97142 18.595934,18.595934 0 0 0 1.67373,0.80857 18.595934,18.595934 0 0 0 1.74598,0.63771 18.595934,18.595934 0 0 0 1.80127,0.45956 18.595934,18.595934 0 0 1 -0.002,0 18.595934,18.595934 0 0 1 -1.80082,-0.45914 18.595934,18.595934 0 0 1 0,-5.2e-4 18.595934,18.595934 0 0 1 -1.74599,-0.63769 18.595934,18.595934 0 0 1 -1.67374,-0.80859 18.595934,18.595934 0 0 1 -1.58485,-0.97098 18.595934,18.595934 0 0 1 0,-5.3e-4 18.595934,18.595934 0 0 1 -1.47986,-1.12445 18.595934,18.595934 0 0 1 0,-5.3e-4 18.595934,18.595934 0 0 1 -1.35955,-1.26689 18.595934,18.595934 0 0 1 0,-5.3e-4 18.595934,18.595934 0 0 1 -1.22694,-1.39613 18.595934,18.595934 0 0 1 -1.08108,-1.51174 18.595934,18.595934 0 0 1 0,-5.3e-4 18.595934,18.595934 0 0 1 -0.92465,-1.61209 18.595934,18.595934 0 0 1 0,-5.3e-4 18.595934,18.595934 0 0 1 -0.18875,-0.42214 18.595934,18.595934 0 0 1 -0.82815,0.0293 18.595934,18.595934 0 0 1 -1.85652,-0.0931 18.595934,18.595934 0 0 1 -1.63377,-0.24698 65.215871,65.215871 0 0 0 -6.36414,0.77287 65.215871,65.215871 0 0 0 -4.93315,1.10745 65.215871,65.215871 0 0 0 -1.42757,0.32012 65.215871,65.215871 0 0 1 0,5.3e-4 65.215871,65.215871 0 0 0 -6.18599,2.05547 65.215871,65.215871 0 0 1 0,5.3e-4 65.215871,65.215871 0 0 0 -5.94964,2.66214 65.215871,65.215871 0 0 1 0,5.3e-4 65.215871,65.215871 0 0 0 -0.58797,0.33713 18.595934,18.595934 0 0 1 0.21129,1.74088 18.595934,18.595934 0 0 1 0.0467,1.31534 18.595934,18.595934 0 0 1 -0.0931,1.85653 18.595934,18.595934 0 0 1 0,5.3e-4 18.595934,18.595934 0 0 1 -0.27717,1.8378 18.595934,18.595934 0 0 1 -0.45999,1.80085 18.595934,18.595934 0 0 0 0,5.3e-4 18.595934,18.595934 0 0 1 -0.63683,1.74555 18.595934,18.595934 0 0 1 0,5.3e-4 18.595934,18.595934 0 0 1 -0.22532,0.46636 18.595934,18.595934 0 0 1 -0.21044,0.43575 21.774969,21.774969 0 0 1 1.11553,0.40729 21.774969,21.774969 0 0 1 1.959833,0.94674 21.774969,21.774969 0 0 1 1.855677,1.13765 21.774969,21.774969 0 0 1 0,5.2e-4 21.774969,21.774969 0 0 1 1.73238,1.31705 21.774969,21.774969 0 0 1 0.62961,0.58666 89.087883,89.087883 0 0 1 0.90041,-0.51653 89.087883,89.087883 0 0 1 8.12841,-3.63737 89.087883,89.087883 0 0 1 8.45065,-2.80795 89.087883,89.087883 0 0 1 8.68872,-1.95047 89.087883,89.087883 0 0 1 8.84008,-1.07304 89.087883,89.087883 0 0 1 5.40928,-0.19173 29.82487,29.82487 0 0 0 0.0952,-0.62875 29.82487,29.82487 0 0 0 0.0586,-1.16825 29.82487,29.82487 0 0 0 0.0905,-1.80932 29.82487,29.82487 0 0 0 -0.0749,-2.10991 29.82487,29.82487 0 0 0 -0.35923,-2.9593 29.82487,29.82487 0 0 0 -0.51736,-2.30504 29.82487,29.82487 0 0 0 -0.13563,-0.60411 29.82487,29.82487 0 0 0 -0.93994,-2.82921 29.82487,29.82487 0 0 0 -1.21799,-2.720787 29.82487,29.82487 0 0 0 -0.60878,-1.06113 18.595935,18.595935 0 0 1 -0.56286,0.60411 18.595935,18.595935 0 0 1 -1.39612,1.22691 18.595935,18.595935 0 0 1 -1.51174,1.081087 18.595935,18.595935 0 0 1 -1.61209,0.92508 18.595935,18.595935 0 0 1 -1.69667,0.75927 18.595933,18.595933 0 0 0 1.69667,-0.75927 18.595933,18.595933 0 0 0 1.61209,-0.92508 18.595933,18.595933 0 0 0 1.51174,-1.081087 18.595933,18.595933 0 0 0 1.3961,-1.22691 18.595933,18.595933 0 0 0 0.56288,-0.60411 29.82487,29.82487 0 0 0 -0.87449,-1.52492 29.82487,29.82487 0 0 0 -0.41365,-0.5786 18.595933,18.595933 0 0 1 -1.15674,0.66362 18.595933,18.595933 0 0 1 -1.6967,0.75928 18.595933,18.595933 0 0 0 0,4.3e-4 18.595933,18.595933 0 0 1 -1.32426,0.43959 18.595933,18.595933 0 0 1 -0.43958,0.14623 18.595933,18.595933 0 0 1 -1.81358,0.40685 18.595933,18.595933 0 0 1 -1.84506,0.22403 18.595933,18.595933 0 0 1 -1.31577,0.0467 18.595933,18.595933 0 0 1 -1.85607,-0.0931 18.595933,18.595933 0 0 1 -1.60614,-0.24273 18.595933,18.595933 0 0 1 -0.13518,-1.11383 18.595933,18.595933 0 0 1 -0.0463,-1.31534 18.595933,18.595933 0 0 1 0.0927,-1.85653 18.595933,18.595933 0 0 1 0.27801,-1.83781 18.595933,18.595933 0 0 1 0.45956,-1.80084 18.595933,18.595933 0 0 1 0,-4.5e-4 18.595933,18.595933 0 0 1 0.63768,-1.74599 18.595933,18.595933 0 0 1 0.80819,-1.67372 18.595933,18.595933 0 0 1 0.36221,-0.5905 29.82487,29.82487 0 0 0 -2.47085,-1.19375 29.82487,29.82487 0 0 0 -1.82335,-0.66532 65.215871,65.215871 0 0 0 -4.52379,-0.68403 65.215871,65.215871 0 0 0 -6.51037,-0.32564 z m -9.59467,42.929187 a 89.087883,89.087883 0 0 0 -0.002,7.9e-4 h 0.002 a 21.774969,21.774969 0 0 0 0,-7.9e-4 z m -0.002,7.9e-4 a 21.774969,21.774969 0 0 0 -0.63048,-0.58708 21.774969,21.774969 0 0 1 0,-5.3e-4 21.774969,21.774969 0 0 0 -1.73239,-1.31702 21.774969,21.774969 0 0 1 0,-5.3e-4 21.774969,21.774969 0 0 0 -1.855677,-1.1372 21.774969,21.774969 0 0 0 -1.959823,-0.94676 21.774969,21.774969 0 0 0 -1.11553,-0.40728 18.595935,18.595935 0 0 1 -0.37284,0.77118 18.595935,18.595935 0 0 1 -0.97139,1.58446 18.595935,18.595935 0 0 1 -0.15602,0.20533 18.595935,18.595935 0 0 1 0,5.3e-4 18.595935,18.595935 0 0 1 -0.9693,1.27409 18.595935,18.595935 0 0 1 -0.043,0.0463 18.595935,18.595935 0 0 1 0,5.3e-4 18.595935,18.595935 0 0 1 0.22488,0.31416 18.595935,18.595935 0 0 1 0.92465,1.6125 18.595935,18.595935 0 0 1 0.22278,0.49783 34.890477,34.890477 0 0 0 0.46464,0.52885 34.890477,34.890477 0 0 0 1.41652,1.32002 89.087896,89.087896 0 0 1 1.4314,-0.82092 89.087896,89.087896 0 0 1 5.12149,-2.93847 z m -6.55291,3.7594 a 89.087896,89.087896 0 0 1 0,5.3e-4 v 0 a 34.890477,34.890477 0 0 0 0,-5.3e-4 z m 9.35086,-46.261297 a 65.215871,65.215871 0 0 0 -4.28825,0.52077 65.215871,65.215871 0 0 0 -6.36031,1.42757 65.215871,65.215871 0 0 0 -5.66521,1.88246 34.890477,34.890477 0 0 0 0,4.2e-4 h 0.002 a 34.890477,34.890477 0 0 0 -0.0459,0.0744 34.890477,34.890477 0 0 0 -1.51685,3.14041 34.890477,34.890477 0 0 0 -1.19589,3.27602 34.890477,34.890477 0 0 0 -0.62704,2.45467 18.595933,18.595933 0 0 1 0.002,4.5e-4 34.890477,34.890477 0 0 0 -0.23636,0.92422 34.890477,34.890477 0 0 0 -0.52078,3.448197 34.890477,34.890477 0 0 0 -0.17387,3.44607 29.82487,29.82487 0 0 1 0.17684,-0.6921 29.82487,29.82487 0 0 1 1.02244,-2.80031 29.82487,29.82487 0 0 1 1.29662,-2.684237 29.82487,29.82487 0 0 0 0,-5.3e-4 29.82487,29.82487 0 0 1 0.4179,-0.6819 18.595934,18.595934 0 0 0 0,-4.5e-4 29.82487,29.82487 0 0 1 1.1402,-1.85907 29.82487,29.82487 0 0 1 1.80421,-2.37347 29.82487,29.82487 0 0 1 2.03212,-2.18133 29.82487,29.82487 0 0 1 2.23954,-1.96747 29.82487,29.82487 0 0 1 2.42495,-1.7341 29.82487,29.82487 0 0 1 2.58603,-1.48326 29.82487,29.82487 0 0 1 2.7208,-1.21799 29.82487,29.82487 0 0 1 2.76714,-0.91955 z M 85.43496,103.58174 a 34.890477,34.890477 0 0 1 0.17302,-3.44607 34.890477,34.890477 0 0 1 0.52079,-3.448187 34.890477,34.890477 0 0 0 -0.5212,3.448187 34.890477,34.890477 0 0 0 -0.17261,3.44607 z m 4.31417,-16.764407 a 65.215871,65.215871 0 0 0 -0.52034,0.17303 65.215871,65.215871 0 0 0 -5.95008,2.66256 65.215871,65.215871 0 0 0 0,4.5e-4 65.215871,65.215871 0 0 0 -5.65459,3.2437 65.215871,65.215871 0 0 0 -2.82495,2.02063 18.595933,18.595933 0 0 0 -0.004,8.2e-4 65.215871,65.215871 0 0 0 -2.47509,1.7698 65.215871,65.215871 0 0 0 -4.89745,4.302267 65.215871,65.215871 0 0 0 -4.44342,4.76992 65.215871,65.215871 0 0 0 -1.56023,2.05208 18.595933,18.595933 0 0 0 -0.33753,1.32257 h 0.002 a 10.036636,10.036636 0 0 1 0.81584,-0.46807 10.036636,10.036636 0 0 1 0.91571,-0.40982 10.036636,10.036636 0 0 0 -0.91571,0.40982 10.036636,10.036636 0 0 0 -0.81584,0.46807 18.595933,18.595933 0 0 0 -0.0302,0.11773 18.595933,18.595933 0 0 0 -0.2776,1.83825 18.595933,18.595933 0 0 0 -0.0931,1.8561 18.595933,18.595933 0 0 0 0.0468,1.31576 18.595933,18.595933 0 0 0 0.22404,1.84505 18.595933,18.595933 0 0 0 0.40682,1.81358 18.595933,18.595933 0 0 0 0.58627,1.76427 18.595933,18.595933 0 0 0 0.75928,1.69667 18.595933,18.595933 0 0 0 0.92507,1.61208 18.595933,18.595933 0 0 0 0.22446,0.31417 18.595933,18.595933 0 0 1 1.22266,-1.31279 18.595933,18.595933 0 0 1 1.39613,-1.22692 18.595933,18.595933 0 0 1 1.51174,-1.08108 18.595933,18.595933 0 0 1 1.61207,-0.92508 18.595933,18.595933 0 0 1 1.69626,-0.75927 18.595933,18.595933 0 0 1 1.76385,-0.58625 18.595933,18.595933 0 0 1 1.81316,-0.40684 18.595933,18.595933 0 0 1 1.57763,-0.19174 18.595933,18.595933 0 0 1 0.002,0 18.595933,18.595933 0 0 1 0.26528,-0.0323 18.595933,18.595933 0 0 1 0.004,0 18.595934,18.595934 0 0 0 -0.26656,0.0323 10.036638,10.036638 0 0 1 0.01,0.0829 10.036638,10.036638 0 0 1 0.0255,0.70995 10.036638,10.036638 0 0 1 -0.0503,1.00201 10.036638,10.036638 0 0 1 -0.12542,0.82859 v 0 a 18.595934,18.595934 0 0 0 -1.28515,0.42682 18.595934,18.595934 0 0 0 -1.69626,0.7597 18.595934,18.595934 0 0 0 -1.6125,0.92464 18.595934,18.595934 0 0 0 -1.51176,1.08109 18.595934,18.595934 0 0 0 -1.39612,1.22692 18.595934,18.595934 0 0 0 -1.26686,1.35997 18.595934,18.595934 0 0 0 -0.96844,1.27412 18.595934,18.595934 0 0 0 0.724,0.67466 18.595934,18.595934 0 0 0 0.49484,0.37624 18.595934,18.595934 0 0 0 0.98501,0.74865 18.595934,18.595934 0 0 0 1.58445,0.97183 18.595934,18.595934 0 0 0 0.20661,0.0999 21.774969,21.774969 0 0 1 0.0655,-0.10714 21.774969,21.774969 0 0 1 1.31747,-1.73238 21.774969,21.774969 0 0 1 0,-5.3e-4 21.774969,21.774969 0 0 1 1.48369,-1.59252 21.774969,21.774969 0 0 1 1.63502,-1.4365 21.774969,21.774969 0 0 1 1.77067,-1.26603 21.774969,21.774969 0 0 1 1.88797,-1.08321 21.774969,21.774969 0 0 1 1.98662,-0.88894 21.774969,21.774969 0 0 1 1.95387,-0.64959 65.215871,65.215871 0 0 1 0,-7.9e-4 21.774969,21.774969 0 0 1 0.10924,-0.0361 21.774969,21.774969 0 0 1 2.12393,-0.47656 21.774969,21.774969 0 0 1 0.5756,-0.0697 29.82487,29.82487 0 0 1 -0.11477,-0.34521 29.82487,29.82487 0 0 1 -0.16709,-0.74483 18.595934,18.595934 0 0 0 -0.53139,-0.0799 65.215871,65.215871 0 0 1 0,-5.3e-4 h -0.002 a 65.215871,65.215871 0 0 1 0.42982,-0.37792 29.82487,29.82487 0 0 1 -0.0825,-0.36646 18.595934,18.595934 0 0 1 0.26145,0.0957 18.595934,18.595934 0 0 1 0.0834,0.0404 65.215871,65.215871 0 0 0 0,-5.3e-4 v 0 a 18.595934,18.595934 0 0 0 -0.0829,-0.04 18.595934,18.595934 0 0 0 -0.26188,-0.0957 29.82487,29.82487 0 0 1 -0.30057,-1.33915 29.82487,29.82487 0 0 1 -0.35923,-2.95972 29.82487,29.82487 0 0 1 -0.0747,-2.10948 29.82487,29.82487 0 0 1 0.14921,-2.97758 29.82487,29.82487 0 0 1 0.4451,-2.94782 29.82487,29.82487 0 0 1 0.55946,-2.19238 34.890477,34.890477 0 0 1 0,-0.004 29.82487,29.82487 0 0 0 -0.56073,2.19664 29.82487,29.82487 0 0 0 -0.44513,2.94783 29.82487,29.82487 0 0 1 0,5.3e-4 29.82487,29.82487 0 0 0 -0.1492,2.97716 29.82487,29.82487 0 0 0 0.0747,2.10948 29.82487,29.82487 0 0 1 0,5.3e-4 29.82487,29.82487 0 0 0 0.35923,2.95929 29.82487,29.82487 0 0 0 0.30057,1.33916 18.595934,18.595934 0 0 0 -0.004,-10e-4 29.82487,29.82487 0 0 1 -0.30013,-1.33745 29.82487,29.82487 0 0 1 -0.35924,-2.9593 29.82487,29.82487 0 0 1 0,-5.2e-4 29.82487,29.82487 0 0 1 -0.0748,-2.10947 29.82487,29.82487 0 0 1 0.14921,-2.97715 29.82487,29.82487 0 0 1 0,-5.3e-4 29.82487,29.82487 0 0 1 0.4451,-2.94784 29.82487,29.82487 0 0 1 0.56075,-2.19663 34.890477,34.890477 0 0 1 0.17261,-3.44607 34.890477,34.890477 0 0 1 0.52119,-3.448197 34.890477,34.890477 0 0 1 0.23596,-0.92464 18.595933,18.595933 0 0 0 -1.59083,-0.58072 18.595933,18.595933 0 0 0 -1.80082,-0.45999 18.595933,18.595933 0 0 0 -1.83783,-0.2776 18.595933,18.595933 0 0 1 0.004,0 18.595933,18.595933 0 0 1 1.8378,0.2776 18.595933,18.595933 0 0 1 1.80085,0.45999 18.595933,18.595933 0 0 1 1.59082,0.58072 34.890477,34.890477 0 0 1 0.62705,-2.45468 34.890477,34.890477 0 0 1 1.19588,-3.27601 34.890477,34.890477 0 0 1 1.51684,-3.14041 34.890477,34.890477 0 0 1 0.0454,-0.0744 z M 63.85599,123.30885 a 18.595933,18.595933 0 0 1 0,5.3e-4 v 0 a 18.595933,18.595933 0 0 0 0,-5.3e-4 z m 45.27889,-31.120047 a 3.3454919,3.3454919 0 0 1 0.33372,0.0166 3.3454919,3.3454919 0 0 1 0.26272,0.04 18.595933,18.595933 0 0 0 0,4.2e-4 3.3454919,3.3454919 0 0 1 0.0638,0.01 3.3454919,3.3454919 0 0 1 0.32392,0.0829 3.3454919,3.3454919 0 0 1 0.31417,0.11441 3.3454919,3.3454919 0 0 1 0.30099,0.14539 3.3454919,3.3454919 0 0 1 0,4.2e-4 3.3454919,3.3454919 0 0 1 0.28484,0.17473 3.3454919,3.3454919 0 0 1 0.26614,0.20236 3.3454919,3.3454919 0 0 1 0.24443,0.22786 3.3454919,3.3454919 0 0 1 0.22065,0.25125 3.3454919,3.3454919 0 0 1 0.19429,0.27209 3.3454919,3.3454919 0 0 1 0.16665,0.28993 3.3454919,3.3454919 0 0 1 0.13645,0.30524 3.3454919,3.3454919 0 0 1 0.10542,0.31715 3.3454919,3.3454919 0 0 0 0,4.3e-4 3.3454919,3.3454919 0 0 1 0.0728,0.32608 3.3454919,3.3454919 0 0 1 0.04,0.33202 3.3454919,3.3454919 0 0 1 0.009,0.23636 3.3454919,3.3454919 0 0 1 0,4.5e-4 3.3454919,3.3454919 0 0 1 -0.0161,0.33373 3.3454919,3.3454919 0 0 1 0,4.2e-4 3.3454919,3.3454919 0 0 1 -0.0503,0.33033 3.3454919,3.3454919 0 0 1 -0.0425,0.16622 18.595933,18.595933 0 0 1 0,4.2e-4 18.595933,18.595933 0 0 0 0,8.2e-4 3.3454919,3.3454919 0 0 1 -0.04,0.15645 3.3454919,3.3454919 0 0 1 -0.11478,0.31416 3.3454919,3.3454919 0 0 1 -0.14538,0.30099 3.3454919,3.3454919 0 0 1 0,5.3e-4 3.3454919,3.3454919 0 0 1 -0.17475,0.28483 3.3454919,3.3454919 0 0 1 -0.20236,0.26614 3.3454919,3.3454919 0 0 1 -0.22785,0.24486 3.3454919,3.3454919 0 0 1 -0.25124,0.22065 3.3454919,3.3454919 0 0 1 -0.27209,0.19428 3.3454919,3.3454919 0 0 1 -0.28952,0.16666 3.3454919,3.3454919 0 0 1 -0.30481,0.13647 3.3454919,3.3454919 0 0 1 -0.31714,0.10541 3.3454919,3.3454919 0 0 1 -0.32608,0.0731 3.3454919,3.3454919 0 0 1 -0.3316,0.0404 3.3454919,3.3454919 0 0 1 -0.23594,0.009 3.3454919,3.3454919 0 0 1 -0.33373,-0.0166 3.3454919,3.3454919 0 0 1 -0.33031,-0.0503 3.3454919,3.3454919 0 0 1 -0.32396,-0.0829 3.3454919,3.3454919 0 0 1 -0.31374,-0.1144 3.3454919,3.3454919 0 0 1 -0.30099,-0.14539 3.3454919,3.3454919 0 0 1 -0.17472,-0.10714 3.3454919,3.3454919 0 0 1 -0.1101,-0.0676 3.3454919,3.3454919 0 0 1 0,-5.3e-4 3.3454919,3.3454919 0 0 1 -0.2657,-0.20236 3.3454919,3.3454919 0 0 1 -0.24445,-0.22786 3.3454919,3.3454919 0 0 1 -0.22108,-0.25126 3.3454919,3.3454919 0 0 1 -0.19427,-0.27207 3.3454919,3.3454919 0 0 1 -0.16666,-0.28994 3.3454919,3.3454919 0 0 1 -0.13645,-0.30524 3.3454919,3.3454919 0 0 1 -0.10504,-0.31714 3.3454919,3.3454919 0 0 1 -0.0731,-0.32651 3.3454919,3.3454919 0 0 1 -0.0404,-0.33202 3.3454919,3.3454919 0 0 1 -0.009,-0.2368 3.3454919,3.3454919 0 0 1 0.0161,-0.33372 3.3454919,3.3454919 0 0 1 0.0502,-0.33031 3.3454919,3.3454919 0 0 1 0,-4.5e-4 3.3454919,3.3454919 0 0 1 0.0829,-0.32394 3.3454919,3.3454919 0 0 1 0.11442,-0.31416 3.3454919,3.3454919 0 0 1 0.1458,-0.30099 3.3454919,3.3454919 0 0 1 0.17474,-0.28526 3.3454919,3.3454919 0 0 1 0.20233,-0.26613 3.3454919,3.3454919 0 0 1 0.22789,-0.24487 3.3454919,3.3454919 0 0 1 0.25126,-0.22064 3.3454919,3.3454919 0 0 1 0.27206,-0.19429 3.3454919,3.3454919 0 0 1 0.28994,-0.16665 3.3454919,3.3454919 0 0 1 0.30524,-0.13646 3.3454919,3.3454919 0 0 1 0.31714,-0.10542 3.3454919,3.3454919 0 0 1 0.32608,-0.0731 3.3454919,3.3454919 0 0 1 0.33159,-0.0404 3.3454919,3.3454919 0 0 1 0.23681,-0.009 z m 11.92519,9.955157 a 18.595933,18.595933 0 0 0 0.99862,0.25508 18.595933,18.595933 0 0 1 -0.99862,-0.25466 18.595933,18.595933 0 0 1 0,-5.3e-4 z m -35.6247,1.44203 a 29.82487,29.82487 0 0 0 -0.55945,2.19236 29.82487,29.82487 0 0 0 -0.44511,2.94784 29.82487,29.82487 0 0 0 -0.1492,2.97758 29.82487,29.82487 0 0 0 0.0747,2.10948 29.82487,29.82487 0 0 0 0.35924,2.95973 29.82487,29.82487 0 0 0 0.30056,1.33914 18.595934,18.595934 0 0 1 0.26188,0.0957 18.595934,18.595934 0 0 1 0.0825,0.0395 65.215871,65.215871 0 0 1 1.88712,-1.65799 65.215871,65.215871 0 0 0 -1.88672,1.65885 18.595934,18.595934 0 0 1 1.59041,0.76818 18.595934,18.595934 0 0 1 1.23373,0.75632 18.595934,18.595934 0 0 1 0.0553,0.0204 21.774969,21.774969 0 0 1 0.36687,-0.0132 21.774969,21.774969 0 0 1 0.83836,0.0421 34.890477,34.890477 0 0 1 -0.21597,-0.37668 34.890477,34.890477 0 0 1 -1.4246,-3.18334 34.890477,34.890477 0 0 1 -0.0192,-0.0569 34.890477,34.890477 0 0 1 0,-5.2e-4 34.890477,34.890477 0 0 1 -1.08069,-3.2522 34.890477,34.890477 0 0 1 -0.76393,-3.40313 34.890477,34.890477 0 0 1 -0.41962,-3.46225 34.890477,34.890477 0 0 1 -0.0876,-2.46784 34.890477,34.890477 0 0 1 0.002,-0.0331 z m -0.0744,14.66217 a 65.215871,65.215871 0 0 1 0,-5.3e-4 18.595934,18.595934 0 0 1 0,5.3e-4 z m -0.16067,0.6887 a 29.82487,29.82487 0 0 0 0.16705,0.74482 29.82487,29.82487 0 0 0 0.11478,0.3452 21.774969,21.774969 0 0 1 1.58485,-0.19258 21.774969,21.774969 0 0 1 1.15124,-0.0408 18.595934,18.595934 0 0 0 -0.034,-0.0208 v 0 a 18.595934,18.595934 0 0 0 -0.92208,-0.3367 18.595934,18.595934 0 0 0 -1.80086,-0.45913 18.595934,18.595934 0 0 0 0,-5.3e-4 18.595934,18.595934 0 0 0 -0.26059,-0.0395 z m -11.40103,5.49475 a 10.036638,10.036638 0 0 1 -0.35371,0.38006 10.036638,10.036638 0 0 0 0.35414,-0.38006 z m -3.70966,2.5346 a 10.036638,10.036638 0 0 0 0,5.3e-4 10.036638,10.036638 0 0 1 -0.71464,0.23721 10.036638,10.036638 0 0 0 0.71422,-0.23764 z"
       style="display:inline;opacity:1;fill:url(#linearGradient8917);fill-opacity:1;stroke:none;stroke-width:0;stroke-linecap:round;stroke-linejoin:miter;stroke-miterlimit:4;stroke-dasharray:none;stroke-dashoffset:0;stroke-opacity:1;paint-order:markers fill stroke"
       inkscape:connector-curvature="0" />
    <path
       id="path8839"
       d="m 149.55215,121.06682 a 65.215871,65.215871 0 0 0 -4.23936,0.15007 65.215871,65.215871 0 0 0 -1.0033,0.12155 v 0 a 65.215871,65.215871 0 0 0 -4.92679,0.59815 89.087891,89.087891 0 0 0 -2.96144,4.83027 89.087891,89.087891 0 0 0 -2.31649,4.79543 89.087883,89.087883 0 0 0 -1.5568,3.22329 89.087883,89.087883 0 0 0 -3.05367,8.36521 89.087883,89.087883 0 0 0 0,5.3e-4 89.087883,89.087883 0 0 0 -2.20301,8.62791 89.087883,89.087883 0 0 0 -0.23639,1.56446 89.087883,89.087883 0 0 0 -1.0947,7.24033 89.087883,89.087883 0 0 0 -0.44468,8.89405 89.087883,89.087883 0 0 0 0.22319,6.30207 89.087883,89.087883 0 0 0 1.07302,8.84007 89.087883,89.087883 0 0 0 1.95006,8.68872 89.087883,89.087883 0 0 0 0.32649,0.98204 3.3454919,3.3454919 0 0 1 0.0562,0.004 3.3454919,3.3454919 0 0 1 0.13007,0.0199 76.227032,76.227032 0 0 0 3.1791,-1.4229 76.227032,76.227032 0 0 0 6.60943,-3.79127 76.227032,76.227032 0 0 0 3.43715,-2.45807 v 0 a 89.087883,89.087883 0 0 1 -0.0574,-0.17345 89.087883,89.087883 0 0 1 -1.95048,-8.68872 89.087883,89.087883 0 0 1 0,-5.3e-4 89.087883,89.087883 0 0 1 -1.073,-8.84008 89.087883,89.087883 0 0 1 -0.22319,-6.30163 89.087883,89.087883 0 0 1 0.14919,-2.97757 89.087883,89.087883 0 0 1 0.29591,-5.91649 89.087883,89.087883 0 0 1 1.33105,-8.80479 89.087883,89.087883 0 0 1 0,-5.3e-4 89.087883,89.087883 0 0 1 2.203,-8.62794 89.087883,89.087883 0 0 1 3.05367,-8.36519 89.087883,89.087883 0 0 1 3.32237,-6.87811 z m -8.91405,4.95398 a 34.890477,34.890477 0 0 1 -1.23032,1.3213 34.890477,34.890477 0 0 0 1.23075,-1.3213 z m 1.86205,60.62124 a 76.227032,76.227032 0 0 1 -3.43671,2.45765 76.227032,76.227032 0 0 1 -6.60943,3.79127 76.227032,76.227032 0 0 1 -3.17911,1.42289 3.3454919,3.3454919 0 0 1 0.19983,0.0302 3.3454919,3.3454919 0 0 1 0.32394,0.0825 3.3454919,3.3454919 0 0 1 0.31418,0.11477 3.3454919,3.3454919 0 0 1 0.30098,0.14541 3.3454919,3.3454919 0 0 1 0.28525,0.17472 3.3454919,3.3454919 0 0 1 0.26614,0.20236 3.3454919,3.3454919 0 0 1 0.16963,0.159 18.595934,18.595934 0 0 1 0.37837,-0.27081 18.595934,18.595934 0 0 1 1.6125,-0.92466 18.595934,18.595934 0 0 1 0,-5.3e-4 18.595934,18.595934 0 0 1 1.69666,-0.75928 18.595934,18.595934 0 0 1 1.76385,-0.58624 18.595934,18.595934 0 0 1 1.81357,-0.40685 18.595934,18.595934 0 0 1 1.84548,-0.22404 18.595934,18.595934 0 0 1 1.31534,-0.0467 18.595934,18.595934 0 0 1 1.06665,0.0536 18.595935,18.595935 0 0 1 0.78987,0.0395 18.595935,18.595935 0 0 1 0.94334,0.14241 89.087896,89.087896 0 0 1 -0.40639,-1.22266 89.087883,89.087883 0 0 1 -1.45394,-4.37454 z"
       style="display:inline;opacity:1;fill:url(#linearGradient8871);fill-opacity:1;stroke:none;stroke-width:0;stroke-linecap:round;stroke-linejoin:miter;stroke-miterlimit:4;stroke-dasharray:none;stroke-dashoffset:0;stroke-opacity:1;paint-order:markers fill stroke"
       inkscape:connector-curvature="0" />
    <path
       id="path8841"
       d="m 143.30026,122.37195 a 65.215871,65.215871 0 0 0 -0.54161,0.0659 65.215871,65.215871 0 0 0 -2.78754,0.62579 65.215871,65.215871 0 0 0 -3.57277,0.80178 65.215871,65.215871 0 0 0 -6.18643,2.0555 65.215871,65.215871 0 0 0 -5.95005,2.66297 65.215871,65.215871 0 0 0 -5.65459,3.24372 65.215871,65.215871 0 0 0 -5.30259,3.79169 65.215871,65.215871 0 0 0 -1.44161,1.26731 65.215871,65.215871 0 0 0 -2.83262,2.48868 21.774969,21.774969 0 0 1 0.0361,1.01946 21.774969,21.774969 0 0 1 0.01,0.2895 21.774969,21.774969 0 0 1 -0.10886,2.17367 21.774969,21.774969 0 0 0 0,5.3e-4 21.774969,21.774969 0 0 1 -0.32523,2.15199 21.774969,21.774969 0 0 1 -0.53821,2.10862 21.774969,21.774969 0 0 0 0,5.2e-4 21.774969,21.774969 0 0 1 -0.74651,2.04443 21.774969,21.774969 0 0 1 -0.94677,1.95983 21.774969,21.774969 0 0 1 -1.13762,1.85569 21.774969,21.774969 0 0 1 -1.31704,1.7328 21.774969,21.774969 0 0 1 -1.48369,1.59253 21.774969,21.774969 0 0 0 0,5.3e-4 21.774969,21.774969 0 0 1 -0.87065,0.76439 21.774969,21.774969 0 0 1 -0.76437,0.67169 21.774969,21.774969 0 0 1 -1.770257,1.26603 21.774969,21.774969 0 0 0 0,5.3e-4 21.774969,21.774969 0 0 1 -0.804733,0.46169 21.774969,21.774969 0 0 1 -1.08281,0.6211 21.774969,21.774969 0 0 1 -1.98661,0.88894 21.774969,21.774969 0 0 1 -1.47348,0.48932 65.215871,65.215871 0 0 0 -2.17664,5.96324 65.215871,65.215871 0 0 0 -0.98034,3.83804 34.890477,34.890477 0 0 0 -0.002,0.004 34.890477,34.890477 0 0 1 0,5.3e-4 65.215871,65.215871 0 0 0 -0.63176,2.47423 65.215871,65.215871 0 0 0 0,5.3e-4 65.215871,65.215871 0 0 0 -0.97395,6.44489 65.215871,65.215871 0 0 0 0,5.3e-4 65.215871,65.215871 0 0 0 -0.32607,6.51037 65.215871,65.215871 0 0 0 0,5.3e-4 65.215871,65.215871 0 0 0 0.16367,4.61304 65.215871,65.215871 0 0 0 0,5.3e-4 65.215871,65.215871 0 0 0 0.26953,2.22 34.890477,34.890477 0 0 1 0.5178,0.0259 76.22703,76.22703 0 0 0 -0.50803,0.0616 65.215871,65.215871 0 0 0 0.50505,4.16326 65.215871,65.215871 0 0 0 0.63983,2.84876 76.227032,76.227032 0 0 0 1.00711,0.15262 76.227032,76.227032 0 0 0 2.96227,0.44767 76.227032,76.227032 0 0 0 7.60977,0.38091 76.227032,76.227032 0 0 0 5.39229,-0.19131 76.227032,76.227032 0 0 0 2.4755,-0.30056 76.227032,76.227032 0 0 0 5.08664,-0.61729 76.227032,76.227032 0 0 0 7.43459,-1.66904 76.227032,76.227032 0 0 0 5.13128,-1.70475 76.22703,76.22703 0 0 0 -3.18717,-1.16356 76.22703,76.22703 0 0 0 -7.3823,-1.88502 76.22703,76.22703 0 0 1 0.002,0 76.22703,76.22703 0 0 1 7.38232,1.88502 76.22703,76.22703 0 0 1 3.18715,1.16356 76.227032,76.227032 0 0 0 2.09971,-0.69764 76.227032,76.227032 0 0 0 0.52886,-0.23678 3.3454919,3.3454919 0 0 1 0.0199,-0.0328 3.3454919,3.3454919 0 0 1 0.0267,-0.0349 3.3454919,3.3454919 0 0 1 0,-5.3e-4 3.3454919,3.3454919 0 0 1 0.17558,-0.23042 3.3454919,3.3454919 0 0 1 0,-5.3e-4 3.3454919,3.3454919 0 0 1 0.22829,-0.24445 3.3454919,3.3454919 0 0 1 0,-5.3e-4 3.3454919,3.3454919 0 0 1 0.25125,-0.22064 3.3454919,3.3454919 0 0 1 0.27165,-0.19471 3.3454919,3.3454919 0 0 1 0.29036,-0.16623 3.3454919,3.3454919 0 0 1 0.30525,-0.13645 3.3454919,3.3454919 0 0 1 0.31714,-0.10543 3.3454919,3.3454919 0 0 1 0.32649,-0.0735 3.3454919,3.3454919 0 0 1 0.33203,-0.0404 3.3454919,3.3454919 0 0 1 0.23636,-0.009 3.3454919,3.3454919 0 0 1 0.27805,0.0135 89.087873,89.087873 0 0 1 -0.3265,-0.98204 89.087873,89.087873 0 0 1 -1.95005,-8.68872 89.087873,89.087873 0 0 1 -1.07302,-8.84007 89.087873,89.087873 0 0 1 -0.2232,-6.30205 89.087873,89.087873 0 0 1 0.4447,-8.89406 89.087873,89.087873 0 0 1 1.09469,-7.24031 34.890477,34.890477 0 0 0 -2.53631,-0.64748 34.890477,34.890477 0 0 1 0.002,0 34.890477,34.890477 0 0 1 2.53629,0.64748 89.087873,89.087873 0 0 1 0.23638,-1.56446 89.087873,89.087873 0 0 1 2.203,-8.62794 89.087873,89.087873 0 0 0 0,-5.3e-4 89.087873,89.087873 0 0 1 3.05367,-8.3652 89.087873,89.087873 0 0 1 1.5568,-3.22331 h -0.002 a 89.087883,89.087883 0 0 1 2.3165,-4.79541 89.087883,89.087883 0 0 1 2.96143,-4.83029 z m -31.21444,14.57161 a 34.890477,34.890477 0 0 0 3.4482,0.52121 34.890477,34.890477 0 0 1 -3.4482,-0.52078 34.890477,34.890477 0 0 1 0,-5.3e-4 z m 5.78172,3.28027 a 29.82487,29.82487 0 0 0 0,5.3e-4 29.82487,29.82487 0 0 0 0,-5.3e-4 z m -9.76556,0.0255 a 65.215871,65.215871 0 0 0 -4.13861,4.44215 65.215871,65.215871 0 0 0 -3.94516,5.18949 65.215871,65.215871 0 0 0 -3.40694,5.55767 65.215871,65.215871 0 0 0 -2.83558,5.86971 65.215871,65.215871 0 0 0 -0.0586,0.16028 21.774969,21.774969 0 0 0 1.4735,-0.48932 21.774969,21.774969 0 0 0 1.98659,-0.88893 21.774969,21.774969 0 0 0 1.0828,-0.62112 21.774969,21.774969 0 0 0 0.804773,-0.46168 21.774969,21.774969 0 0 0 0,-5.3e-4 21.774969,21.774969 0 0 0 1.770217,-1.26602 21.774969,21.774969 0 0 0 0.76437,-0.67171 21.774969,21.774969 0 0 0 0.87066,-0.76479 21.774969,21.774969 0 0 0 1.48368,-1.59253 21.774969,21.774969 0 0 0 1.31706,-1.73281 21.774969,21.774969 0 0 0 1.13763,-1.85569 21.774969,21.774969 0 0 0 0.94675,-1.95981 21.774969,21.774969 0 0 0 0.74653,-2.04443 21.774969,21.774969 0 0 0 0,-5.3e-4 21.774969,21.774969 0 0 0 0.5382,-2.10862 21.774969,21.774969 0 0 0 0.32523,-2.152 21.774969,21.774969 0 0 0 0,-5.3e-4 21.774969,21.774969 0 0 0 0.10886,-2.17367 21.774969,21.774969 0 0 0 -0.01,-0.28951 29.82487,29.82487 0 0 1 -0.96164,-0.14539 z"
       style="display:inline;opacity:1;fill:url(#linearGradient8873);fill-opacity:1;stroke:#000000;stroke-width:0;stroke-linecap:round;stroke-linejoin:miter;stroke-miterlimit:4;stroke-dasharray:none;stroke-dashoffset:0;stroke-opacity:1;paint-order:markers fill stroke"
       inkscape:connector-curvature="0" />
    <path
       id="path8843"
       d="m 143.24925,114.87487 a 89.087883,89.087883 0 0 0 -5.40929,0.19173 89.087883,89.087883 0 0 0 -8.84006,1.07302 89.087883,89.087883 0 0 0 -8.68873,1.95048 89.087883,89.087883 0 0 0 -8.45064,2.80793 89.087883,89.087883 0 0 0 0,5.3e-4 89.087865,89.087865 0 0 0 -8.12839,3.63737 89.087883,89.087883 0 0 0 -0.9017,0.51696 21.774969,21.774969 0 0 1 0,5.3e-4 89.087838,89.087838 0 0 0 -5.12106,2.93806 h -0.002 a 89.087854,89.087854 0 0 0 -1.43182,0.82133 89.087849,89.087849 0 0 0 -0.26825,0.1539 89.087849,89.087849 0 0 0 -0.65428,0.46763 18.595931,18.595931 0 0 1 0.16368,0.49186 18.595931,18.595931 0 0 1 0,5.3e-4 18.595931,18.595931 0 0 1 0.40684,1.81358 18.595931,18.595931 0 0 1 0.22405,1.84505 18.595931,18.595931 0 0 1 0.0467,1.31534 18.595931,18.595931 0 0 1 -0.0243,0.48338 29.82487,29.82487 0 0 0 0.65809,0.50037 29.82487,29.82487 0 0 0 2.541413,1.55808 29.82487,29.82487 0 0 0 0.51016,0.24615 29.82487,29.82487 0 0 0 2.174507,1.05048 29.82487,29.82487 0 0 0 2.80029,1.02243 29.82487,29.82487 0 0 0 2.88833,0.7376 29.82487,29.82487 0 0 0 1.22903,0.18577 65.215871,65.215871 0 0 1 0.30523,-0.32777 65.215871,65.215871 0 0 1 0.62155,-0.54628 v 0 a 21.774969,21.774969 0 0 0 -0.009,-0.23127 21.774969,21.774969 0 0 1 0.009,0.23084 65.215871,65.215871 0 0 0 0,5.3e-4 65.215871,65.215871 0 0 1 2.83303,-2.48867 v 0 a 65.215871,65.215871 0 0 1 1.44202,-1.2673 65.215871,65.215871 0 0 1 5.3026,-3.79171 65.215871,65.215871 0 0 1 5.65458,-3.24371 65.215871,65.215871 0 0 1 5.95006,-2.66298 65.215871,65.215871 0 0 1 6.18643,-2.05548 65.215871,65.215871 0 0 1 3.57277,-0.80179 29.82487,29.82487 0 0 0 0.29759,-0.616 29.82487,29.82487 0 0 0 1.02199,-2.80031 29.82487,29.82487 0 0 1 0,-5.3e-4 29.82487,29.82487 0 0 0 0.73757,-2.8883 29.82487,29.82487 0 0 1 0,-5.3e-4 29.82487,29.82487 0 0 0 0.35032,-2.31821 29.82487,29.82487 0 0 1 0,-5.3e-4 z m -47.07884,20.50891 a 18.595932,18.595932 0 0 0 0.0241,-0.48336 18.595932,18.595932 0 0 0 -0.0468,-1.31534 18.595932,18.595932 0 0 0 -0.22404,-1.84505 18.595932,18.595932 0 0 0 -0.40684,-1.81359 18.595932,18.595932 0 0 1 0,-5.3e-4 18.595932,18.595932 0 0 0 -0.16368,-0.49188 89.087865,89.087865 0 0 0 -3.3011,2.36073 29.82487,29.82487 0 0 0 0.22193,0.25253 29.82487,29.82487 0 0 0 0,5.2e-4 29.82487,29.82487 0 0 0 2.18089,2.0321 29.82487,29.82487 0 0 0 1.71452,1.30386 18.595929,18.595929 0 0 1 -0.0688,1.37315 18.595929,18.595929 0 0 0 0,5.3e-4 18.595929,18.595929 0 0 1 -0.2776,1.83782 18.595929,18.595929 0 0 1 -0.46,1.80083 18.595929,18.595929 0 0 1 -0.63725,1.74598 18.595929,18.595929 0 0 1 -0.8086,1.67372 18.595929,18.595929 0 0 0 0,5.3e-4 18.595929,18.595929 0 0 1 -0.9714,1.58443 18.595929,18.595929 0 0 0 0,5.3e-4 18.595929,18.595929 0 0 1 -1.12489,1.47943 18.595929,18.595929 0 0 0 0,5.3e-4 18.595929,18.595929 0 0 1 -1.26731,1.35956 18.595929,18.595929 0 0 0 0,5.3e-4 18.595929,18.595929 0 0 1 -1.39652,1.22649 18.595929,18.595929 0 0 0 1.39612,-1.22691 18.595929,18.595929 0 0 0 1.26728,-1.35956 18.595929,18.595929 0 0 0 0,-5.2e-4 18.595929,18.595929 0 0 0 1.12489,-1.47943 18.595929,18.595929 0 0 0 0,-5.2e-4 18.595929,18.595929 0 0 0 0.97142,-1.58444 18.595929,18.595929 0 0 0 0,-5.3e-4 18.595929,18.595929 0 0 0 0.80858,-1.67372 18.595929,18.595929 0 0 0 0.63728,-1.74599 18.595929,18.595929 0 0 0 0.45999,-1.80083 18.595929,18.595929 0 0 0 0.27759,-1.83782 18.595929,18.595929 0 0 0 0,-5.3e-4 18.595929,18.595929 0 0 0 0.0688,-1.37316 29.82487,29.82487 0 0 1 -1.71537,-1.30386 29.82487,29.82487 0 0 1 -2.1809,-2.0321 29.82487,29.82487 0 0 0 0,-5.3e-4 29.82487,29.82487 0 0 1 -0.22193,-0.25252 89.087838,89.087838 0 0 0 -3.2879,2.35138 89.087838,89.087838 0 0 0 -6.68978,5.87735 89.087838,89.087838 0 0 0 -6.06994,6.51548 89.087838,89.087838 0 0 0 -4.49317,5.91052 v 0 a 89.087838,89.087838 0 0 0 -0.0425,0.0557 89.087838,89.087838 0 0 0 -0.85366,1.12318 89.087838,89.087838 0 0 0 -0.10837,0.17643 21.774969,21.774969 0 0 0 0,8e-4 89.087838,89.087838 0 0 0 -4.54587,7.41463 89.087838,89.087838 0 0 0 -3.76238,7.7883 65.215871,65.215871 0 0 0 0.10074,2.84365 65.215871,65.215871 0 0 0 0.78563,6.47127 65.215871,65.215871 0 0 0 0,5.3e-4 65.215871,65.215871 0 0 0 1.42757,6.3603 65.215871,65.215871 0 0 0 2.05549,6.18643 65.215871,65.215871 0 0 0 1.18058,2.63791 v 0 a 76.227032,76.227032 0 0 0 5.23501,2.52822 76.227032,76.227032 0 0 0 2.05335,0.74949 34.890477,34.890477 0 0 1 1.11425,-0.49866 34.890477,34.890477 0 0 1 3.30961,-1.09938 34.890477,34.890477 0 0 1 3.40225,-0.76395 34.890477,34.890477 0 0 1 0.002,0 34.890477,34.890477 0 0 0 -3.40229,0.76395 34.890477,34.890477 0 0 0 -3.30958,1.09938 34.890477,34.890477 0 0 1 0,5.3e-4 34.890477,34.890477 0 0 0 -1.11384,0.49867 76.227032,76.227032 0 0 0 1.91604,0.6989 76.22703,76.22703 0 0 0 0,5.3e-4 76.227032,76.227032 0 0 0 3.18718,1.16357 76.227032,76.227032 0 0 0 7.38271,1.88501 76.227032,76.227032 0 0 0 2.56522,0.38771 76.227032,76.227032 0 0 0 0.99904,0.15092 65.215871,65.215871 0 0 1 -0.6398,-2.84877 65.215871,65.215871 0 0 1 -0.50505,-4.16326 76.22703,76.22703 0 0 0 -0.42343,0.0515 76.22703,76.22703 0 0 0 -1.36295,0.30566 34.890477,34.890477 0 0 1 -0.10677,-0.47529 34.890477,34.890477 0 0 0 -0.002,0 34.890477,34.890477 0 0 1 -0.0562,-0.25082 34.890477,34.890477 0 0 1 -0.42045,-3.4618 34.890477,34.890477 0 0 1 0,-5.3e-4 34.890477,34.890477 0 0 1 -0.0876,-2.46829 34.890477,34.890477 0 0 1 0.17431,-3.48305 34.890477,34.890477 0 0 1 0.52122,-3.44819 34.890477,34.890477 0 0 1 0,-5.3e-4 34.890477,34.890477 0 0 1 0.863,-3.37889 34.890477,34.890477 0 0 1 1.19586,-3.27602 34.890477,34.890477 0 0 1 0,-5.3e-4 34.890477,34.890477 0 0 1 1.19078,-2.46529 34.890477,34.890477 0 0 1 0,-5.2e-4 65.215871,65.215871 0 0 1 0.98121,-3.84187 65.215871,65.215871 0 0 1 2.17664,-5.96324 65.215871,65.215871 0 0 1 0.0586,-0.16027 65.215871,65.215871 0 0 1 2.83559,-5.86971 65.215871,65.215871 0 0 1 3.40697,-5.55768 65.215871,65.215871 0 0 1 3.94516,-5.18951 65.215871,65.215871 0 0 1 4.13858,-4.44213 29.82487,29.82487 0 0 1 -1.22901,-0.18579 29.82487,29.82487 0 0 1 -2.88833,-0.73759 29.82487,29.82487 0 0 1 -2.80029,-1.02242 29.82487,29.82487 0 0 1 -2.173657,-1.05006 18.595929,18.595929 0 0 0 0,-5.3e-4 29.82487,29.82487 0 0 1 -0.51016,-0.24613 29.82487,29.82487 0 0 1 -2.541413,-1.5581 29.82487,29.82487 0 0 1 -0.65724,-0.50038 z m -8.1216,58.55937 a 34.890477,34.890477 0 0 1 0.74397,-0.0263 34.890477,34.890477 0 0 1 1.13847,0.057 65.215871,65.215871 0 0 1 -0.26951,-2.22 65.215871,65.215871 0 0 0 0,-5.3e-4 65.215871,65.215871 0 0 1 -0.16368,-4.61303 65.215871,65.215871 0 0 0 0,-5.3e-4 65.215871,65.215871 0 0 1 0.32608,-6.51037 65.215871,65.215871 0 0 0 0,-5.3e-4 65.215871,65.215871 0 0 1 0.97397,-6.44491 65.215871,65.215871 0 0 0 0,-5.3e-4 65.215871,65.215871 0 0 1 0.63172,-2.47423 34.890477,34.890477 0 0 0 -1.19078,2.4653 34.890477,34.890477 0 0 1 0,5.3e-4 34.890477,34.890477 0 0 0 -1.19587,3.27601 34.890477,34.890477 0 0 0 -0.86301,3.3789 34.890477,34.890477 0 0 1 0,5.3e-4 34.890477,34.890477 0 0 0 -0.52121,3.4482 34.890477,34.890477 0 0 0 -0.17429,3.48305 34.890477,34.890477 0 0 0 0.0876,2.46828 34.890477,34.890477 0 0 1 0,5.3e-4 34.890477,34.890477 0 0 0 0.42044,3.4618 34.890477,34.890477 0 0 0 0.0562,0.25082 z m -0.40389,-43.39473 a 18.595929,18.595929 0 0 0 0,5.3e-4 18.595929,18.595929 0 0 1 -1.02453,0.58753 18.595929,18.595929 0 0 0 1.0241,-0.58795 z m -5.07257,2.27019 a 18.595929,18.595929 0 0 0 0,5.3e-4 18.595929,18.595929 0 0 1 -1.48115,0.33244 18.595929,18.595929 0 0 0 1.48073,-0.33287 z m 11.42141,9.28219 a 21.774969,21.774969 0 0 0 0,5.3e-4 21.774969,21.774969 0 0 1 -1.7345,0.389 21.774969,21.774969 0 0 0 1.73366,-0.38941 z"
       style="display:inline;opacity:1;fill:url(#linearGradient8875);fill-opacity:1;stroke:none;stroke-width:0;stroke-linecap:round;stroke-linejoin:miter;stroke-miterlimit:4;stroke-dasharray:none;stroke-dashoffset:0;stroke-opacity:1;paint-order:markers fill stroke"
       inkscape:connector-curvature="0" />
    <path
       id="path8845"
       d="m 145.82508,82.701783 a 18.595934,18.595934 0 0 1 -0.14581,0.96503 18.595934,18.595934 0 0 1 -0.18961,0.74269 18.595934,18.595934 0 0 1 -0.27038,1.05814 18.595934,18.595934 0 0 0 0,4.2e-4 18.595934,18.595934 0 0 1 -0.63726,1.74599 18.595934,18.595934 0 0 1 -0.80861,1.67373 18.595934,18.595934 0 0 1 -0.97182,1.58445 18.595934,18.595934 0 0 1 -0.23297,0.3065 18.595934,18.595934 0 0 1 -0.22404,0.61388 65.215871,65.215871 0 0 0 -0.17728,-0.0858 18.595935,18.595935 0 0 1 -0.4906,0.64533 18.595935,18.595935 0 0 1 -1.26687,1.35997 18.595935,18.595935 0 0 0 0,4.5e-4 18.595935,18.595935 0 0 1 -0.74312,0.65299 18.595935,18.595935 0 0 1 -0.65299,0.5735 18.595935,18.595935 0 0 0 0,4.5e-4 18.595935,18.595935 0 0 1 -0.8817,0.63003 18.595935,18.595935 0 0 1 -0.63006,0.45106 18.595935,18.595935 0 0 1 -0.45531,0.26103 29.82487,29.82487 0 0 1 0.41365,0.57859 29.82487,29.82487 0 0 1 0.87449,1.52451 18.595934,18.595934 0 0 1 0,5.3e-4 29.82487,29.82487 0 0 1 0.60879,1.06111 29.82487,29.82487 0 0 1 1.21799,2.720797 29.82487,29.82487 0 0 1 0.93996,2.82923 29.82487,29.82487 0 0 1 0.1356,0.6041 29.82487,29.82487 0 0 1 0.51739,2.30504 29.82487,29.82487 0 0 1 0.35923,2.9593 29.82487,29.82487 0 0 1 0.0744,2.10989 29.82487,29.82487 0 0 1 -0.0905,1.80934 18.595934,18.595934 0 0 0 0.002,0 29.82487,29.82487 0 0 1 -0.0586,1.16824 29.82487,29.82487 0 0 1 -0.0952,0.62877 89.087883,89.087883 0 0 0 -0.002,0 29.82487,29.82487 0 0 1 0,5.3e-4 29.82487,29.82487 0 0 1 -0.3503,2.31821 29.82487,29.82487 0 0 1 0,5.3e-4 29.82487,29.82487 0 0 1 -0.73758,2.88831 29.82487,29.82487 0 0 1 0,5.3e-4 29.82487,29.82487 0 0 1 -1.022,2.80031 29.82487,29.82487 0 0 1 -0.29759,0.61601 65.215871,65.215871 0 0 1 2.78753,-0.62579 65.215871,65.215871 0 0 1 0.54162,-0.0659 65.215871,65.215871 0 0 1 4.92679,-0.59815 34.890477,34.890477 0 0 0 1.40929,-2.29781 34.890477,34.890477 0 0 0 1.51684,-3.1404 34.890477,34.890477 0 0 0 0.54969,-1.50537 34.890477,34.890477 0 0 0 0.6462,-1.77107 34.890477,34.890477 0 0 0 0.863,-3.3789 34.890477,34.890477 0 0 0 0.0345,-0.22617 v 0 a 18.595934,18.595934 0 0 1 -0.017,0.0128 89.087883,89.087883 0 0 0 -2.8458,3.05454 89.087883,89.087883 0 0 0 -1.64269,2.16048 89.087883,89.087883 0 0 1 1.64226,-2.16048 89.087883,89.087883 0 0 1 2.84452,-3.05326 18.595934,18.595934 0 0 1 -0.33799,0.2419 18.595934,18.595934 0 0 1 -1.6125,0.92464 18.595934,18.595934 0 0 1 -1.69667,0.75928 18.595934,18.595934 0 0 1 -1.76384,0.58624 18.595934,18.595934 0 0 1 -1.81359,0.40728 18.595934,18.595934 0 0 1 -0.002,0 18.595934,18.595934 0 0 0 1.81356,-0.40728 18.595934,18.595934 0 0 0 1.76385,-0.58624 18.595934,18.595934 0 0 0 1.6967,-0.75928 18.595934,18.595934 0 0 0 1.6125,-0.92464 18.595934,18.595934 0 0 0 0.33924,-0.24275 89.087883,89.087883 0 0 1 0.0192,-0.0204 89.087883,89.087883 0 0 1 0,-5.3e-4 89.087883,89.087883 0 0 1 0,-5.3e-4 34.890477,34.890477 0 0 0 0.28863,-1.90796 h 0.002 a 34.890477,34.890477 0 0 0 0.19725,-1.30642 34.890477,34.890477 0 0 0 0.1743,-3.48306 34.890477,34.890477 0 0 0 -0.0876,-2.46827 34.890477,34.890477 0 0 0 -0.4094,-3.376367 34.890477,34.890477 0 0 0 0,-5.3e-4 34.890477,34.890477 0 0 0 -0.0111,-0.0855 34.890477,34.890477 0 0 0 -0.76392,-3.40269 34.890477,34.890477 0 0 0 -1.09982,-3.30961 34.890477,34.890477 0 0 0 -1.42459,-3.18334 34.890477,34.890477 0 0 0 -1.49262,-2.60262 34.890477,34.890477 0 0 0 -0.24273,-0.423 34.890477,34.890477 0 0 0 -2.0287,-2.83686 34.890477,34.890477 0 0 0 -0.0872,-0.0995 z"
       style="display:inline;opacity:1;fill:url(#linearGradient12040);fill-opacity:1;stroke:none;stroke-width:0;stroke-linecap:round;stroke-linejoin:miter;stroke-miterlimit:4;stroke-dasharray:none;stroke-dashoffset:0;stroke-opacity:1;paint-order:markers fill stroke"
       inkscape:connector-curvature="0" />
    <path
       id="path8847"
       d="m 142.84071,77.207443 a 18.595934,18.595934 0 0 0 -0.82814,0.0293 18.595934,18.595934 0 0 1 0.57008,1.2741 18.595934,18.595934 0 0 1 0.14794,0.44468 34.890477,34.890477 0 0 1 1.31491,1.22564 34.890477,34.890477 0 0 1 2.21447,2.52057 18.595934,18.595934 0 0 0 0.13181,-0.87277 18.595934,18.595934 0 0 0 0.0931,-1.85653 18.595934,18.595934 0 0 0 -0.0467,-1.31534 18.595934,18.595934 0 0 0 -0.13521,-1.11383 18.595934,18.595934 0 0 0 -1.60611,-0.24317 18.595934,18.595934 0 0 0 -1.85653,-0.0927 z m 1.20479,2.97377 a 34.890477,34.890477 0 0 0 -1.31491,-1.22522 18.595934,18.595934 0 0 0 0,-4.5e-4 34.890477,34.890477 0 0 0 -1.23626,-1.15167 34.890477,34.890477 0 0 0 -0.61982,-0.47103 18.595934,18.595934 0 0 0 -1.19461,0.14497 18.595934,18.595934 0 0 0 -1.81359,0.40727 18.595934,18.595934 0 0 1 0,4.2e-4 18.595934,18.595934 0 0 0 -1.32426,0.43958 18.595934,18.595934 0 0 0 -0.4396,0.14624 18.595934,18.595934 0 0 0 -0.79582,0.35626 18.595934,18.595934 0 0 0 -0.9,0.40301 18.595934,18.595934 0 0 0 -1.61249,0.92466 18.595934,18.595934 0 0 1 0,4.2e-4 18.595934,18.595934 0 0 0 -0.88172,0.63004 18.595934,18.595934 0 0 0 -0.63004,0.45106 18.595934,18.595934 0 0 0 -1.39653,1.22649 18.595934,18.595934 0 0 0 -1.26687,1.35997 18.595934,18.595934 0 0 0 -1.12489,1.47987 18.595934,18.595934 0 0 0 -0.099,0.16154 h -0.002 a 65.215871,65.215871 0 0 1 3.43331,0.87661 65.215871,65.215871 0 0 1 6.1235,2.23531 65.215871,65.215871 0 0 1 5.65206,2.73016 18.595934,18.595934 0 0 0 0.40134,-0.52801 18.595935,18.595935 0 0 0 0.23296,-0.30652 18.595935,18.595935 0 0 0 0.97183,-1.58443 18.595935,18.595935 0 0 0 0.80859,-1.67373 18.595935,18.595935 0 0 0 0.63726,-1.74599 18.595935,18.595935 0 0 0 0,-4.2e-4 18.595935,18.595935 0 0 0 0.27039,-1.05814 18.595935,18.595935 0 0 0 0,-4.2e-4 18.595935,18.595935 0 0 0 0.1896,-0.74227 18.595935,18.595935 0 0 0 0.14583,-0.96504 34.890477,34.890477 0 0 0 -2.2145,-2.52056 z m -1.59591,2.09756 a 89.087891,89.087891 0 0 1 1.24221,0.7614 18.595935,18.595935 0 0 0 0,4.2e-4 89.087891,89.087891 0 0 0 -1.24221,-0.76182 z m 1.24221,0.76225 a 89.087896,89.087896 0 0 1 0,4.2e-4 18.595935,18.595935 0 0 1 0.10837,0.89235 18.595935,18.595935 0 0 1 0.0459,1.31534 18.595934,18.595934 0 0 0 -0.0463,-1.31534 18.595934,18.595934 0 0 0 -0.10837,-0.89277 z m -16.29932,2.42364 a 18.595934,18.595934 0 0 0 -0.51057,0.83283 v 0 a 18.595934,18.595934 0 0 0 -0.36219,0.59049 18.595934,18.595934 0 0 0 -0.80817,1.67372 18.595934,18.595934 0 0 0 -0.63769,1.746 18.595934,18.595934 0 0 1 0,4.2e-4 18.595934,18.595934 0 0 0 -0.45958,1.80083 18.595934,18.595934 0 0 0 -0.27802,1.83782 18.595934,18.595934 0 0 0 -0.0927,1.85652 18.595934,18.595934 0 0 0 0.0463,1.31534 18.595934,18.595934 0 0 0 0.13518,1.11383 v 0 a 18.595934,18.595934 0 0 0 1.60612,0.24274 18.595934,18.595934 0 0 0 1.85609,0.0931 18.595934,18.595934 0 0 0 1.31576,-0.0467 18.595934,18.595934 0 0 0 1.84506,-0.22405 18.595934,18.595934 0 0 0 1.81358,-0.40683 18.595934,18.595934 0 0 0 0.43959,-0.14626 18.595934,18.595934 0 0 0 1.32425,-0.44 18.595934,18.595934 0 0 0 1.69669,-0.75927 18.595934,18.595934 0 0 0 1.15675,-0.66363 29.82487,29.82487 0 0 0 -1.32043,-1.84674 29.82487,29.82487 0 0 0 -1.96748,-2.23956 29.82487,29.82487 0 0 1 1.96748,2.23956 29.82487,29.82487 0 0 1 1.32043,1.84674 18.595934,18.595934 0 0 0 0.45532,-0.26102 18.595934,18.595934 0 0 0 0.63004,-0.45106 18.595934,18.595934 0 0 0 0.8817,-0.63046 18.595934,18.595934 0 0 0 0.65299,-0.5735 18.595934,18.595934 0 0 0 0.74311,-0.65341 18.595934,18.595934 0 0 0 1.2669,-1.35998 18.595934,18.595934 0 0 0 0.49059,-0.64535 65.215871,65.215871 0 0 0 -5.65204,-2.73014 65.215871,65.215871 0 0 0 -6.12354,-2.23533 65.215871,65.215871 0 0 0 -3.4333,-0.8766 z m 2.24552,2.49421 a 29.82487,29.82487 0 0 1 0,4.5e-4 29.82487,29.82487 0 0 1 0,-4.5e-4 z"
       style="display:inline;opacity:1;fill:url(#radialGradient8909);fill-opacity:1;stroke:none;stroke-width:0;stroke-linecap:round;stroke-linejoin:miter;stroke-miterlimit:4;stroke-dasharray:none;stroke-dashoffset:0;stroke-opacity:1;paint-order:markers fill stroke"
       inkscape:connector-curvature="0" />
    <path
       id="path8849"
       d="m 119.01666,70.470063 a 34.890477,34.890477 0 0 0 -2.46784,0.0872 34.890477,34.890477 0 0 0 -1.76472,0.21425 34.890477,34.890477 0 0 0 -1.69709,0.20619 34.890477,34.890477 0 0 0 -1.08406,0.24317 18.595935,18.595935 0 0 0 -0.43321,0.707 18.595935,18.595935 0 0 0 -0.54246,1.12231 89.087896,89.087896 0 0 1 0.8902,0.13478 89.087896,89.087896 0 0 1 5.51984,0.83409 89.087896,89.087896 0 0 1 8.62794,2.20343 89.087896,89.087896 0 0 1 8.36518,3.05325 89.087896,89.087896 0 0 1 0.87491,0.42258 18.595935,18.595935 0 0 1 0.79584,-0.35626 18.595935,18.595935 0 0 1 0.43958,-0.14624 18.595935,18.595935 0 0 1 1.32426,-0.44 18.595935,18.595935 0 0 1 1.81358,-0.40727 18.595935,18.595935 0 0 1 1.19461,-0.14498 34.890477,34.890477 0 0 0 -2.15667,-1.63928 34.890477,34.890477 0 0 0 -2.97333,-1.82294 34.890477,34.890477 0 0 0 -3.13997,-1.51727 34.890477,34.890477 0 0 0 -3.27601,-1.19589 34.890477,34.890477 0 0 0 -3.37933,-0.86258 34.890477,34.890477 0 0 0 -3.4482,-0.52119 34.890477,34.890477 0 0 0 -3.48305,-0.17431 z m -5.32556,1.08322 a 18.595935,18.595935 0 0 1 0,4.3e-4 18.595935,18.595935 0 0 0 -1.39654,1.22649 18.595935,18.595935 0 0 1 1.39654,-1.22692 z m -1.77616,1.63163 a 18.595935,18.595935 0 0 0 -0.88979,0.95526 18.595935,18.595935 0 0 0 -0.89106,1.17207 18.595935,18.595935 0 0 0 0,0.001 h 0.002 v 0 a 18.595935,18.595935 0 0 0 -0.0128,0.034 18.595935,18.595935 0 0 1 0.0124,-0.034 18.595935,18.595935 0 0 0 -0.23296,0.30651 18.595935,18.595935 0 0 0 -0.97142,1.58445 18.595935,18.595935 0 0 0 -0.80858,1.67372 18.595935,18.595935 0 0 0 -0.6377,1.74599 18.595935,18.595935 0 0 0 0,4.2e-4 18.595935,18.595935 0 0 0 -0.45957,1.80084 18.595935,18.595935 0 0 0 -0.27802,1.83781 18.595935,18.595935 0 0 0 0,4.2e-4 18.595935,18.595935 0 0 0 0,0.0111 v 0 a 29.82487,29.82487 0 0 1 0.98078,-0.22022 29.82487,29.82487 0 0 1 1.81401,-0.22022 29.82487,29.82487 0 0 1 1.144,-0.13901 29.82487,29.82487 0 0 1 2.10946,-0.0749 29.82487,29.82487 0 0 1 2.97718,0.14922 29.82487,29.82487 0 0 1 2.94781,0.44553 29.82487,29.82487 0 0 1 2.88831,0.73758 29.82487,29.82487 0 0 1 0.97693,0.35669 65.215871,65.215871 0 0 1 0.004,8.2e-4 29.82487,29.82487 0 0 1 1.82164,0.66447 29.82487,29.82487 0 0 1 2.47085,1.19374 18.595935,18.595935 0 0 1 0.51057,-0.83281 65.215871,65.215871 0 0 0 -0.002,-4.5e-4 18.595935,18.595935 0 0 1 0.0986,-0.16112 18.595935,18.595935 0 0 1 1.1249,-1.47986 18.595935,18.595935 0 0 1 1.26687,-1.35997 18.595935,18.595935 0 0 1 1.39653,-1.22649 18.595935,18.595935 0 0 1 0.63005,-0.45106 18.595935,18.595935 0 0 1 0.88171,-0.63046 18.595935,18.595935 0 0 1 1.6125,-0.92464 18.595935,18.595935 0 0 1 0.89998,-0.403 89.087896,89.087896 0 0 0 -0.8749,-0.42258 89.087896,89.087896 0 0 0 -8.36521,-3.05326 89.087896,89.087896 0 0 0 -8.62791,-2.20343 89.087896,89.087896 0 0 0 -5.51985,-0.83409 z"
       style="display:inline;opacity:1;fill:url(#linearGradient12383);fill-opacity:1;stroke:none;stroke-width:0;stroke-linecap:round;stroke-linejoin:miter;stroke-miterlimit:4;stroke-dasharray:none;stroke-dashoffset:0;stroke-opacity:1;paint-order:markers fill stroke"
       inkscape:connector-curvature="0" />
    <path
       inkscape:connector-curvature="0"
       id="path8851"
       d="m 68.17681,192.20223 -4.5e-4,5.3e-4 a 65.215871,65.215871 0 0 0 0.73718,1.64651 h 0.006 a 3.3454917,3.3454917 0 0 1 0.13433,-0.0447 3.3454917,3.3454917 0 0 1 0.32564,-0.0731 3.3454917,3.3454917 0 0 1 0.3316,-0.0404 3.3454917,3.3454917 0 0 1 0.005,0 3.3454917,3.3454917 0 0 0 -0.33159,0.0404 3.3454917,3.3454917 0 0 0 -0.32565,0.0731 3.3454917,3.3454917 0 0 0 -0.13434,0.0447 65.215871,65.215871 0 0 0 0.20534,0.45912 65.215871,65.215871 0 0 0 1.72134,1.60401 65.215871,65.215871 0 0 0 1.4671,1.11596 34.890477,34.890477 0 0 1 0.93146,-0.53439 3.3454917,3.3454917 0 0 0 0,-0.004 34.890477,34.890477 0 0 1 0.14624,-0.0842 34.890477,34.890477 0 0 1 0.98417,-0.44042 34.890477,34.890477 0 0 1 1.08449,-0.48591 76.227032,76.227032 0 0 1 -2.05335,-0.7495 76.227032,76.227032 0 0 1 -5.23502,-2.52822 z m 4.14201,4.82604 H 72.318 a 65.215871,65.215871 0 0 1 4.2e-4,5.3e-4 34.890477,34.890477 0 0 0 4.5e-4,-5.3e-4 z m -4.3e-4,5.3e-4 a 34.890477,34.890477 0 0 0 -0.002,0.001 h 0.004 a 65.215871,65.215871 0 0 1 -0.002,-0.001 z m -0.002,0.001 a 34.890477,34.890477 0 0 0 -1.34043,0.76863 34.890477,34.890477 0 0 0 -8.2e-4,5.3e-4 65.215871,65.215871 0 0 0 0.46084,0.80305 76.22703,76.22703 0 0 0 0,5.3e-4 65.215871,65.215871 0 0 0 0,5.2e-4 65.215871,65.215871 0 0 0 0.59814,1.04198 3.3454917,3.3454917 0 0 0 0.24572,-0.21639 3.3454917,3.3454917 0 0 0 0.22786,-0.24487 3.3454917,3.3454917 0 0 0 0.20238,-0.26612 3.3454917,3.3454917 0 0 0 0.17515,-0.28484 3.3454917,3.3454917 0 0 0 0.14538,-0.30099 3.3454917,3.3454917 0 0 1 0,-5.3e-4 3.3454917,3.3454917 0 0 0 0.11478,-0.31417 3.3454917,3.3454917 0 0 0 0.0518,-0.20236 3.3454917,3.3454917 0 0 0 0,-5.3e-4 3.3454917,3.3454917 0 0 0 0.0241,-0.096 65.215871,65.215871 0 0 1 -0.90509,-0.68828 z m -1.34043,0.76863 a 65.215871,65.215871 0 0 0 0,-5.3e-4 34.890477,34.890477 0 0 0 -8.2e-4,5.3e-4 z m 0,-5.3e-4 a 34.890477,34.890477 0 0 1 1.34043,-0.76863 65.215871,65.215871 0 0 1 -1.46881,-1.11723 65.215871,65.215871 0 0 1 -1.72134,-1.60401 65.215871,65.215871 0 0 0 0.53991,1.20652 65.215871,65.215871 0 0 0 1.30981,2.28335 z m 63.05766,-3.95592 a 3.3454917,3.3454917 0 0 0 -0.23639,0.009 3.3454917,3.3454917 0 0 0 -0.33203,0.0404 3.3454917,3.3454917 0 0 0 -0.32606,0.0735 3.3454917,3.3454917 0 0 0 -0.31715,0.10541 3.3454917,3.3454917 0 0 0 -0.30524,0.13647 3.3454917,3.3454917 0 0 0 -0.29036,0.16623 3.3454917,3.3454917 0 0 0 -0.27164,0.1947 3.3454917,3.3454917 0 0 0 -0.25126,0.22065 3.3454917,3.3454917 0 0 0 -0.22786,0.24444 3.3454917,3.3454917 0 0 1 0,5.3e-4 3.3454917,3.3454917 0 0 0 -0.17516,0.23042 34.890482,34.890482 0 0 1 0.0502,0.0243 76.227032,76.227032 0 0 1 -0.0974,0.0437 76.227032,76.227032 0 0 1 -0.52928,0.23681 76.227032,76.227032 0 0 1 -2.09928,0.69763 76.227032,76.227032 0 0 1 -5.13083,1.70475 76.227032,76.227032 0 0 1 -7.4346,1.66904 76.227032,76.227032 0 0 1 -5.08747,0.61728 76.227032,76.227032 0 0 1 -2.47595,0.30057 76.227032,76.227032 0 0 1 -5.39229,0.19131 76.227032,76.227032 0 0 1 -7.60975,-0.38091 76.227032,76.227032 0 0 1 -2.9627,-0.44766 34.890482,34.890482 0 0 0 -0.81284,0.71379 65.215871,65.215871 0 0 0 0.5939,2.64555 65.215871,65.215871 0 0 0 0.0307,0.0919 34.890477,34.890477 0 0 0 1.11042,1.93604 34.890477,34.890477 0 0 0 1.40335,1.96279 76.227032,76.227032 0 0 0 6.38155,0.31928 76.227032,76.227032 0 0 0 5.39188,-0.19088 76.227032,76.227032 0 0 0 7.56426,-0.91828 76.227032,76.227032 0 0 0 2.45042,-0.55011 76.227032,76.227032 0 0 0 4.98375,-1.11851 76.227032,76.227032 0 0 0 7.23096,-2.40281 76.227032,76.227032 0 0 0 1.33701,-0.59815 76.227032,76.227032 0 0 0 3.06517,-1.37231 3.3454917,3.3454917 0 0 0 0.10887,0.0281 3.3454917,3.3454917 0 0 0 0.33074,0.0498 3.3454917,3.3454917 0 0 0 0.33373,0.017 3.3454917,3.3454917 0 0 0 0.23681,-0.009 3.3454917,3.3454917 0 0 0 0.33201,-0.0404 3.3454917,3.3454917 0 0 0 0.32607,-0.0731 3.3454917,3.3454917 0 0 0 0.0787,-0.0264 3.3454917,3.3454917 0 0 0 0.23847,-0.0791 3.3454917,3.3454917 0 0 0 0.30524,-0.13688 3.3454917,3.3454917 0 0 0 0.28992,-0.16623 3.3454917,3.3454917 0 0 0 0.27209,-0.19428 3.3454917,3.3454917 0 0 0 0.13604,-0.11995 89.087865,89.087865 0 0 1 -0.082,-0.24742 76.22703,76.22703 0 0 0 -0.32947,-0.15899 76.227032,76.227032 0 0 0 0.23211,-0.1335 89.087873,89.087873 0 0 1 -0.40468,-1.21841 34.890482,34.890482 0 0 1 1.08744,0.82686 76.227032,76.227032 0 0 0 0.32309,-0.18534 3.3454917,3.3454917 0 0 0 0.0392,-0.0812 3.3454917,3.3454917 0 0 0 0.11477,-0.31375 3.3454917,3.3454917 0 0 0 0,-5.2e-4 3.3454917,3.3454917 0 0 0 0.0829,-0.32393 3.3454917,3.3454917 0 0 0 0.0497,-0.33076 3.3454917,3.3454917 0 0 0 0.017,-0.33372 3.3454917,3.3454917 0 0 0 0,-5.3e-4 3.3454917,3.3454917 0 0 0 -0.009,-0.23637 3.3454917,3.3454917 0 0 0 -0.0404,-0.33204 3.3454917,3.3454917 0 0 0 -0.0732,-0.32606 3.3454917,3.3454917 0 0 0 0,-5.3e-4 3.3454917,3.3454917 0 0 0 -0.10541,-0.31714 3.3454917,3.3454917 0 0 0 -0.13644,-0.30525 3.3454917,3.3454917 0 0 0 -0.16668,-0.28993 3.3454917,3.3454917 0 0 0 0,-5.3e-4 3.3454917,3.3454917 0 0 0 -0.19427,-0.27207 3.3454917,3.3454917 0 0 0 -0.22107,-0.25082 3.3454917,3.3454917 0 0 0 -0.0739,-0.0693 3.3454917,3.3454917 0 0 0 -0.1692,-0.15857 3.3454917,3.3454917 0 0 0 -0.26614,-0.20236 3.3454917,3.3454917 0 0 0 -0.28525,-0.17473 3.3454917,3.3454917 0 0 0 -0.301,-0.1454 3.3454917,3.3454917 0 0 0 -0.31416,-0.11478 3.3454917,3.3454917 0 0 0 -0.32394,-0.0825 3.3454917,3.3454917 0 0 0 -0.19983,-0.0307 76.227032,76.227032 0 0 1 -0.15558,0.0697 89.087865,89.087865 0 0 1 -0.0307,-0.0927 3.3454917,3.3454917 0 0 0 -0.27805,-0.0136 z m -65.32357,0.0794 v 5.3e-4 a 3.3454917,3.3454917 0 0 0 -0.27846,0.12457 3.3454917,3.3454917 0 0 0 -0.28993,0.16664 3.3454917,3.3454917 0 0 0 -0.27207,0.1943 3.3454917,3.3454917 0 0 0 -0.25082,0.22105 3.3454917,3.3454917 0 0 0 -0.22788,0.24445 3.3454917,3.3454917 0 0 0 -0.20236,0.26613 3.3454917,3.3454917 0 0 0 -0.17431,0.28525 3.3454917,3.3454917 0 0 0 -0.14581,0.30099 3.3454917,3.3454917 0 0 0 -0.1144,0.31417 3.3454917,3.3454917 0 0 0 -0.0829,0.32395 3.3454917,3.3454917 0 0 0 -0.0503,0.33075 3.3454917,3.3454917 0 0 0 -0.0166,0.33415 3.3454917,3.3454917 0 0 0 0.009,0.23637 3.3454917,3.3454917 0 0 0 0.0404,0.33202 3.3454917,3.3454917 0 0 0 0.0731,0.3265 3.3454917,3.3454917 0 0 0 0.10542,0.31714 3.3454917,3.3454917 0 0 0 0.13647,0.30525 3.3454917,3.3454917 0 0 0 0.16665,0.29035 3.3454917,3.3454917 0 0 0 0.19429,0.27166 3.3454917,3.3454917 0 0 0 0.22063,0.25125 3.3454917,3.3454917 0 0 0 0.24487,0.22829 3.3454917,3.3454917 0 0 0 0.26613,0.20236 3.3454917,3.3454917 0 0 0 0.006,0.004 34.890477,34.890477 0 0 0 -4.2e-4,5.3e-4 3.3454917,3.3454917 0 0 0 0.27847,0.17045 3.3454917,3.3454917 0 0 0 0.0208,0.01 76.22703,76.22703 0 0 0 -0.002,0.001 h 0.006 a 3.3454917,3.3454917 0 0 0 0.004,0.001 76.22703,76.22703 0 0 0 -0.0319,0.014 h -0.006 a 76.22703,76.22703 0 0 0 -0.0251,0.0149 76.227032,76.227032 0 0 0 3.24329,1.56659 76.227032,76.227032 0 0 0 2.22508,0.81242 65.215871,65.215871 0 0 1 -0.86851,-1.21458 65.215871,65.215871 0 0 1 0,-5.2e-4 65.215871,65.215871 0 0 1 -0.87449,-1.52451 3.3454917,3.3454917 0 0 1 -0.002,0.002 3.3454917,3.3454917 0 0 1 -0.002,0.001 3.3454917,3.3454917 0 0 1 0,5.3e-4 3.3454917,3.3454917 0 0 1 -0.0775,0.0553 3.3454917,3.3454917 0 0 1 -0.19429,0.13901 3.3454917,3.3454917 0 0 1 -0.28951,0.16622 3.3454917,3.3454917 0 0 1 -0.30478,0.13647 3.3454917,3.3454917 0 0 1 -0.31674,0.10542 3.3454917,3.3454917 0 0 1 -0.32564,0.0735 3.3454917,3.3454917 0 0 1 -0.33162,0.04 3.3454917,3.3454917 0 0 1 -0.006,0 3.3454917,3.3454917 0 0 0 0.33159,-0.04 3.3454917,3.3454917 0 0 0 0.32565,-0.0735 3.3454917,3.3454917 0 0 0 0.31673,-0.10542 3.3454917,3.3454917 0 0 0 0.30481,-0.13647 3.3454917,3.3454917 0 0 0 0.28949,-0.16622 3.3454917,3.3454917 0 0 0 0.19429,-0.13901 3.3454917,3.3454917 0 0 0 0.0775,-0.0553 3.3454917,3.3454917 0 0 1 0,-5.3e-4 3.3454917,3.3454917 0 0 0 0.002,-0.001 3.3454917,3.3454917 0 0 0 0.002,-0.002 65.215871,65.215871 0 0 1 0,-5.2e-4 65.215871,65.215871 0 0 1 -0.59772,-1.04113 76.22703,76.22703 0 0 1 0.005,-0.002 65.215871,65.215871 0 0 1 -0.46082,-0.80349 34.890477,34.890477 0 0 1 4e-4,0 65.215871,65.215871 0 0 1 -1.30981,-2.28377 65.215871,65.215871 0 0 1 -0.5399,-1.20651 65.215871,65.215871 0 0 1 -0.41493,-0.38645 z m 6.7608,1.55936 a 34.890477,34.890477 0 0 0 -1.08451,0.4855 34.890477,34.890477 0 0 0 -0.98416,0.44043 34.890477,34.890477 0 0 0 -0.15134,0.0872 3.3454917,3.3454917 0 0 1 0.0361,0.29759 3.3454917,3.3454917 0 0 1 0.009,0.2368 3.3454917,3.3454917 0 0 1 -0.0165,0.33372 3.3454917,3.3454917 0 0 0 0,5.3e-4 3.3454917,3.3454917 0 0 1 -0.0503,0.33032 3.3454917,3.3454917 0 0 1 -0.006,0.0246 3.3454917,3.3454917 0 0 1 0,5.3e-4 65.215871,65.215871 0 0 0 0.0702,0.0536 76.22703,76.22703 0 0 0 -0.0943,0.0421 76.22703,76.22703 0 0 0 0,5.3e-4 3.3454917,3.3454917 0 0 1 -0.051,0.20278 3.3454917,3.3454917 0 0 1 -0.11477,0.31417 3.3454917,3.3454917 0 0 1 0,5.3e-4 3.3454917,3.3454917 0 0 1 -0.14496,0.30099 3.3454917,3.3454917 0 0 1 -0.17516,0.28484 3.3454917,3.3454917 0 0 1 -0.20236,0.26612 3.3454917,3.3454917 0 0 1 -0.22788,0.24487 3.3454917,3.3454917 0 0 1 -0.24572,0.21639 65.215871,65.215871 0 0 0 0.87449,1.52493 65.215871,65.215871 0 0 0 0.86896,1.21501 76.227032,76.227032 0 0 0 4.93188,1.8004 76.227032,76.227032 0 0 0 7.38231,1.88501 76.227032,76.227032 0 0 0 0.74397,0.11268 34.890482,34.890482 0 0 1 0.21424,-0.28185 65.215871,65.215871 0 0 0 0.41196,0.19938 65.215871,65.215871 0 0 1 0,5.3e-4 65.215871,65.215871 0 0 0 0.82475,0.30099 76.227032,76.227032 0 0 0 5.32555,0.80476 65.215871,65.215871 0 0 1 -1.27453,-3.83549 34.890477,34.890477 0 0 1 -0.62494,-1.08916 34.890477,34.890477 0 0 1 -0.52885,-1.18143 34.890482,34.890482 0 0 0 -0.14581,0.12796 34.890482,34.890482 0 0 0 -2.37733,2.55161 34.890482,34.890482 0 0 0 -1.61205,2.12052 65.215871,65.215871 0 0 0 7.9e-4,5.3e-4 h -0.002 a 34.890482,34.890482 0 0 1 1.61208,-2.12053 34.890482,34.890482 0 0 1 2.37731,-2.55161 34.890482,34.890482 0 0 1 0.14666,-0.12923 34.890477,34.890477 0 0 1 5.3e-4,0 34.890477,34.890477 0 0 0 0,8e-4 34.890482,34.890482 0 0 1 10e-4,-10e-4 h -10e-4 a 34.890477,34.890477 0 0 1 -5.3e-4,0 34.890477,34.890477 0 0 1 -0.6632,-1.4824 76.227032,76.227032 0 0 1 -2.56521,-0.38772 76.227032,76.227032 0 0 1 -7.38272,-1.885 76.227032,76.227032 0 0 1 -3.18717,-1.16358 76.227032,76.227032 0 0 1 -1.91604,-0.69933 z m 15.71604,5.61803 a 34.890482,34.890482 0 0 1 0.5297,-0.46551 65.215871,65.215871 0 0 1 -0.19429,-0.86641 76.227032,76.227032 0 0 1 -0.99903,-0.15092 34.890477,34.890477 0 0 0 0.66362,1.48284 z m 1.15421,2.27187 a 65.215871,65.215871 0 0 0 1.27453,3.8355 76.227032,76.227032 0 0 0 0.0111,0.001 76.227032,76.227032 0 0 0 1.22863,0.0616 34.890477,34.890477 0 0 1 -1.40334,-1.96281 34.890477,34.890477 0 0 1 -1.11044,-1.93602 z"
       style="display:inline;opacity:1;fill:url(#linearGradient8925);fill-opacity:1;stroke:none;stroke-width:0;stroke-linecap:round;stroke-linejoin:miter;stroke-miterlimit:4;stroke-dasharray:none;stroke-dashoffset:0;stroke-opacity:1;paint-order:markers fill stroke" />
    <path
       inkscape:connector-curvature="0"
       id="path8853"
       d="m 136.20544,198.13614 a 76.227032,76.227032 0 0 1 -0.32311,0.18536 34.890482,34.890482 0 0 1 0.16241,0.12328 3.3454917,3.3454917 0 0 0 0.0544,-0.0888 3.3454917,3.3454917 0 0 0 0.10628,-0.21979 z m -0.1607,0.30864 a 3.3454917,3.3454917 0 0 1 -0.12032,0.19641 3.3454917,3.3454917 0 0 1 -0.20234,0.26613 3.3454917,3.3454917 0 0 1 -0.19513,0.20958 3.3454917,3.3454917 0 0 1 -0.0328,0.0349 3.3454917,3.3454917 0 0 1 -0.11478,0.10123 3.3454917,3.3454917 0 0 1 -0.13604,0.11994 3.3454917,3.3454917 0 0 1 -0.27209,0.19428 3.3454917,3.3454917 0 0 1 -0.28992,0.16623 3.3454917,3.3454917 0 0 1 -0.30524,0.1369 3.3454917,3.3454917 0 0 0 0,5.3e-4 3.3454917,3.3454917 0 0 1 -0.23849,0.0787 3.3454917,3.3454917 0 0 1 -0.0787,0.0263 3.3454917,3.3454917 0 0 1 -0.32607,0.0731 3.3454917,3.3454917 0 0 1 -0.33202,0.0404 3.3454917,3.3454917 0 0 1 -0.2368,0.009 3.3454917,3.3454917 0 0 1 -0.33372,-0.0175 3.3454917,3.3454917 0 0 1 -0.33074,-0.0498 3.3454917,3.3454917 0 0 1 -0.10887,-0.0281 76.227032,76.227032 0 0 1 -3.06601,1.37229 76.227032,76.227032 0 0 1 -1.33701,0.59817 76.227032,76.227032 0 0 1 -7.23096,2.40279 76.227032,76.227032 0 0 1 -4.98376,1.11851 34.890477,34.890477 0 0 1 1.94495,2.71997 34.890477,34.890477 0 0 1 1.23329,2.15028 34.890477,34.890477 0 0 1 0.50165,0.87491 34.890477,34.890477 0 0 1 0,5.3e-4 34.890477,34.890477 0 0 1 1.42503,3.18291 34.890477,34.890477 0 0 1 0.87533,2.63578 89.087873,89.087873 0 0 0 6.32798,-2.10268 89.087873,89.087873 0 0 0 0.0163,-0.006 89.087873,89.087873 0 0 0 0.006,-0.001 89.087873,89.087873 0 0 0 8.12755,-3.63781 89.087873,89.087873 0 0 0 3.49539,-2.0053 89.087873,89.087873 0 0 1 -0.16539,-0.28866 89.087873,89.087873 0 0 1 -1.64013,-3.66459 65.215871,65.215871 0 0 0 0,-5.3e-4 65.215871,65.215871 0 0 0 3.55873,-1.59294 34.890482,34.890482 0 0 0 -1.97302,-2.24551 34.890482,34.890482 0 0 0 -1.05813,-0.98587 34.890482,34.890482 0 0 0 -1.49346,-1.39144 34.890482,34.890482 0 0 0 -0.90977,-0.69168 z m -68.60809,1.1253 a 76.22703,76.22703 0 0 0 -1.67074,0.95825 34.890477,34.890477 0 0 0 -1.71666,1.50876 34.890477,34.890477 0 0 0 -2.37731,2.5516 34.890477,34.890477 0 0 0 -2.11073,2.77651 34.890477,34.890477 0 0 0 -1.82294,2.97332 34.890477,34.890477 0 0 0 -0.7814,1.61761 89.087873,89.087873 0 0 0 4.1705,2.01467 89.087873,89.087873 0 0 0 8.36478,3.05366 89.087873,89.087873 0 0 0 8.62791,2.20302 89.087873,89.087873 0 0 0 2.06231,0.31161 34.890482,34.890482 0 0 1 0.0982,-0.64874 34.890482,34.890482 0 0 1 0.86302,-3.37889 34.890482,34.890482 0 0 0 0,-5.3e-4 34.890482,34.890482 0 0 1 0.98968,-2.71103 65.215871,65.215871 0 0 1 -2.00234,-1.86588 65.215871,65.215871 0 0 1 -4.30227,-4.89745 65.215871,65.215871 0 0 1 -2.92357,-4.08759 76.227032,76.227032 0 0 1 -2.22513,-0.81241 76.227032,76.227032 0 0 1 -3.24286,-1.56659 z m 5.47053,2.379 a 65.215871,65.215871 0 0 0 2.92276,4.08759 65.215871,65.215871 0 0 0 4.30226,4.89745 65.215871,65.215871 0 0 0 2.00234,1.86545 34.890482,34.890482 0 0 1 0.20619,-0.56456 34.890482,34.890482 0 0 1 1.51684,-3.14041 34.890482,34.890482 0 0 1 1.82294,-2.97291 34.890482,34.890482 0 0 0 0,-5.3e-4 34.890482,34.890482 0 0 1 0.28443,-0.37411 76.227032,76.227032 0 0 1 -0.74357,-0.11268 76.227032,76.227032 0 0 1 -7.3823,-1.88501 76.227032,76.227032 0 0 1 -4.93189,-1.80041 z m 42.86332,3.54557 a 34.890477,34.890477 0 0 0 0,5.3e-4 76.227032,76.227032 0 0 0 0.001,-5.3e-4 z m 0,5.3e-4 a 76.227032,76.227032 0 0 1 -2.44916,0.54968 76.227032,76.227032 0 0 1 -7.56428,0.91827 76.227032,76.227032 0 0 1 -5.39185,0.19089 76.227032,76.227032 0 0 1 -6.38114,-0.31927 76.227032,76.227032 0 0 1 -1.22862,-0.0616 76.227032,76.227032 0 0 1 -0.01,-10e-4 76.227032,76.227032 0 0 1 -5.3e-4,0 76.227032,76.227032 0 0 1 -5.32512,-0.80474 65.215871,65.215871 0 0 1 -5.3e-4,0 h -5.3e-4 a 65.215871,65.215871 0 0 1 -5.3e-4,0 76.227032,76.227032 0 0 1 -1.45223,-0.21937 h -5.3e-4 a 34.890482,34.890482 0 0 0 -0.2844,0.3741 34.890482,34.890482 0 0 0 0,5.3e-4 34.890482,34.890482 0 0 0 -1.82252,2.97292 34.890482,34.890482 0 0 0 -1.51687,3.1404 34.890482,34.890482 0 0 0 -0.20616,0.565 65.215871,65.215871 0 0 1 -5.3e-4,0 34.890482,34.890482 0 0 0 -0.9897,2.71102 34.890482,34.890482 0 0 0 0,5.3e-4 34.890482,34.890482 0 0 0 -0.86299,3.3789 34.890482,34.890482 0 0 0 -0.0983,0.64874 89.087891,89.087891 0 0 0 6.74206,1.01903 89.087891,89.087891 0 0 0 5.64057,0.28229 65.215871,65.215871 0 0 0 5.3e-4,0 89.087873,89.087873 0 0 0 3.25308,0.16281 89.087873,89.087873 0 0 0 3.749603,-0.13263 65.215871,65.215871 0 0 1 -0.16835,-0.23552 65.215871,65.215871 0 0 1 -3.243723,-5.65461 65.215871,65.215871 0 0 1 -2.66255,-5.95005 65.215871,65.215871 0 0 0 0,-5.3e-4 65.215871,65.215871 0 0 1 -0.33797,-1.01732 65.215871,65.215871 0 0 0 5.3e-4,0 65.215871,65.215871 0 0 0 0,5.3e-4 65.215871,65.215871 0 0 0 0.33798,1.0169 65.215871,65.215871 0 0 0 0,5.2e-4 65.215871,65.215871 0 0 0 2.66255,5.95006 65.215871,65.215871 0 0 0 3.243703,5.6546 65.215871,65.215871 0 0 0 0.16837,0.23552 89.087883,89.087883 0 0 0 2.551597,-0.0905 89.087883,89.087883 0 0 0 8.84007,-1.07302 89.087883,89.087883 0 0 0 1.09214,-0.24531 89.087873,89.087873 0 0 0 7.59529,-1.70475 89.087873,89.087873 0 0 0 2.10099,-0.69805 34.890477,34.890477 0 0 0 -0.87534,-2.63579 34.890477,34.890477 0 0 0 -1.42503,-3.18291 34.890477,34.890477 0 0 1 0,-5.2e-4 34.890477,34.890477 0 0 0 -0.50165,-0.87491 34.890477,34.890477 0 0 0 -1.23328,-2.15027 34.890477,34.890477 0 0 0 -1.94494,-2.71953 z"
       style="display:inline;opacity:1;fill:url(#linearGradient8883);fill-opacity:1;stroke:none;stroke-width:0;stroke-linecap:round;stroke-linejoin:miter;stroke-miterlimit:4;stroke-dasharray:none;stroke-dashoffset:0;stroke-opacity:1;paint-order:markers fill stroke" />
    <path
       id="path8855"
       d="m 141.47946,203.75894 a 65.211682,64.122723 0 0 1 -3.55893,1.56625 89.082155,87.594588 0 0 0 1.64045,3.60358 89.082155,87.594588 0 0 0 0.16537,0.28382 v 0 a 89.082171,87.594604 0 0 0 0,5.3e-4 89.082171,87.594604 0 0 0 2.78058,4.76603 89.082155,87.594588 0 0 1 0,5.3e-4 89.082155,87.594588 0 0 0 1.48443,2.54436 89.082155,87.594588 0 0 0 1.21282,1.66741 89.082155,87.594588 0 0 0 2.94975,-1.66364 34.888239,34.305647 0 0 0 -0.0579,-0.2525 34.888239,34.305647 0 0 0 -1.09932,-3.25412 34.888239,34.305647 0 0 0 -0.89525,-1.9671 34.888239,34.305647 0 0 0 -0.52967,-1.16286 34.888239,34.305647 0 0 0 -1.73483,-2.9745 34.888239,34.305647 0 0 0 -0.0111,-0.0158 34.888239,34.305647 0 0 0 -2.0171,-2.77343 34.888239,34.305647 0 0 0 -0.32902,-0.36825 z m -1.75354,5.45407 a 89.082155,87.594588 0 0 1 -3.49516,1.97129 89.082155,87.594588 0 0 1 -8.12703,3.57682 89.082155,87.594588 0 0 1 -0.006,0.001 89.082155,87.594588 0 0 1 -0.0161,0.006 18.59474,18.284229 0 0 1 0,-5.3e-4 89.082163,87.594599 0 0 1 -6.3276,2.06743 34.888236,34.305642 0 0 1 0.22402,0.66253 34.888236,34.305642 0 0 1 0.70782,3.09904 34.888236,34.305642 0 0 1 0.056,0.24663 34.888236,34.305642 0 0 1 0.42042,3.40419 34.888236,34.305642 0 0 1 0.0867,2.41353 89.082155,87.594588 0 0 0 2.62202,-0.57893 89.082155,87.594588 0 0 0 7.93106,-2.59119 89.082163,87.594599 0 0 0 0.51906,-0.16971 89.082163,87.594599 0 0 0 2.51275,-1.1056 89.082163,87.594599 0 0 0 5.6147,-2.47122 89.082163,87.594599 0 0 0 2.75463,-1.55368 89.082163,87.594599 0 0 1 -1.21279,-1.66741 89.082163,87.594599 0 0 1 -1.48445,-2.54437 34.888236,34.305642 0 0 1 -1.71484,1.20592 34.888236,34.305642 0 0 1 -3.02503,1.70586 34.888236,34.305642 0 0 1 0,-5.2e-4 34.888236,34.305642 0 0 0 3.025,-1.70586 34.888236,34.305642 0 0 0 1.71485,-1.20593 89.082155,87.594588 0 0 1 -2.78056,-4.76603 z m -82.76283,2.60539 a 34.888236,34.305642 0 0 0 -0.73544,1.49728 34.888236,34.305642 0 0 0 -0.58111,1.56499 89.082155,87.594588 0 0 0 0.19344,1.56415 89.082155,87.594588 0 0 0 3.49386,2.10673 89.082155,87.594588 0 0 0 8.0178,3.80839 89.082155,87.594588 0 0 0 8.36424,3.00249 89.082155,87.594588 0 0 0 3.90623,0.98062 34.888239,34.305647 0 0 1 -0.0324,-0.89116 34.888239,34.305647 0 0 1 0.17429,-3.42468 34.888239,34.305647 0 0 1 0.42299,-2.75294 89.082155,87.594588 0 0 1 -2.06216,-0.30639 89.082155,87.594588 0 0 1 -8.62739,-2.1661 89.082155,87.594588 0 0 1 -8.36423,-3.00248 89.082155,87.594588 0 0 1 -4.17021,-1.9809 z m 64.79096,5.01725 a 89.082163,87.594599 0 0 1 -2.10041,0.68635 89.082163,87.594599 0 0 1 -7.59568,1.67618 89.082155,87.594588 0 0 1 -1.09292,0.24119 89.082155,87.594588 0 0 1 -8.83951,1.05503 89.082155,87.594588 0 0 1 -2.551437,0.089 89.082163,87.594599 0 0 1 -3.748513,0.13041 89.082163,87.594599 0 0 1 -3.25285,-0.16009 65.211682,64.122723 0 0 0 3.08197,1.85801 65.211682,64.122723 0 0 0 5.86934,2.78807 65.211682,64.122723 0 0 0 1.98264,0.71184 65.211682,64.122723 0 0 0 0,5.3e-4 v 0 a 65.211682,64.122723 0 0 0 4.13875,1.48557 65.211682,64.122723 0 0 1 -4.13875,-1.48516 65.211682,64.122723 0 0 0 2.86941,3.21109 89.082171,87.594604 0 0 0 1.96777,-0.0686 89.082171,87.594604 0 0 0 4.00019,-0.47735 89.082155,87.594588 0 0 0 4.83888,-0.57769 89.082155,87.594588 0 0 0 6.06531,-1.33843 34.888236,34.305642 0 0 0 -0.0867,-2.41352 34.888236,34.305642 0 0 0 -0.42041,-3.40419 34.888236,34.305642 0 0 0 -0.0562,-0.24662 34.888236,34.305642 0 0 0 -0.70781,-3.09905 34.888236,34.305642 0 0 0 -0.224,-0.66253 z m -18.24907,9.07645 a 65.211682,64.122723 0 0 1 -1.98393,-0.71226 65.211682,64.122723 0 0 1 -5.86933,-2.78807 65.211682,64.122723 0 0 1 -3.08195,-1.85801 89.082155,87.594588 0 0 1 -5.63893,-0.27754 89.082155,87.594588 0 0 1 -6.74165,-1.00195 34.888239,34.305647 0 0 0 -0.42296,2.75294 34.888239,34.305647 0 0 0 -0.17431,3.42468 34.888239,34.305647 0 0 0 0.0324,0.89116 89.082155,87.594588 0 0 0 4.72072,1.18546 89.082155,87.594588 0 0 0 8.80379,1.30834 89.082155,87.594588 0 0 0 8.89306,0.43765 89.082155,87.594588 0 0 0 4.33259,-0.15092 65.211682,64.122723 0 0 1 -2.86942,-3.21148 z m 31.07896,-7.62013 a 34.888236,34.305642 0 0 0 0,5.3e-4 34.888236,34.305642 0 0 1 -3.3094,1.08095 34.888236,34.305642 0 0 1 -0.95137,0.21024 18.59474,18.284229 0 0 0 1.02618,1.41076 18.59474,18.284229 0 0 0 1.22643,1.37312 18.59474,18.284229 0 0 1 -1.22643,-1.37312 18.59474,18.284229 0 0 1 -1.02616,-1.41076 18.59474,18.284229 0 0 0 0,-5.3e-4 18.59474,18.284229 0 0 1 -0.0544,-0.0752 18.59474,18.284229 0 0 0 0.0549,0.0752 34.888236,34.305642 0 0 0 0.95177,-0.21025 34.888236,34.305642 0 0 0 3.3094,-1.08094 z"
       style="display:inline;opacity:1;fill:url(#linearGradient8885);fill-opacity:1;stroke:none;stroke-width:0;stroke-linecap:round;stroke-linejoin:miter;stroke-miterlimit:4;stroke-dasharray:none;stroke-dashoffset:0;stroke-opacity:1;paint-order:markers fill stroke"
       inkscape:connector-curvature="0" />
    <path
       id="path8857"
       d="m 55.20783,215.40348 a 34.890477,34.890477 0 0 0 -0.17556,0.48082 34.890477,34.890477 0 0 0 -0.86302,3.37933 34.890477,34.890477 0 0 0 -0.52121,3.44818 34.890477,34.890477 0 0 0 -0.17429,3.48349 34.890477,34.890477 0 0 0 0.0876,2.46785 34.890477,34.890477 0 0 0 0.42002,3.46222 34.890477,34.890477 0 0 0 0.11995,0.53396 89.087896,89.087896 0 0 0 3.36827,2.06526 89.087896,89.087896 0 0 0 4.73718,2.28845 89.087896,89.087896 0 0 0 3.28111,1.58488 89.087896,89.087896 0 0 0 8.36522,3.05367 89.087896,89.087896 0 0 0 8.62834,2.20301 89.087896,89.087896 0 0 0 3.00522,0.45403 89.087896,89.087896 0 0 0 5.8,0.8766 89.087896,89.087896 0 0 0 8.89363,0.44512 89.087896,89.087896 0 0 0 6.30205,-0.2232 89.087896,89.087896 0 0 0 8.84008,-1.07302 89.087896,89.087896 0 0 0 3.242,-0.72738 34.890477,34.890477 0 0 0 0.002,-0.001 89.087896,89.087896 0 0 0 5.43907,-1.22096 89.087896,89.087896 0 0 0 0.17726,-0.0586 65.215871,65.215871 0 0 1 -1.16951,-0.56499 65.215871,65.215871 0 0 1 -2.6749,-1.64014 34.890477,34.890477 0 0 0 0.002,-0.004 65.215871,65.215871 0 0 0 2.67999,1.64355 65.215871,65.215871 0 0 0 1.16953,0.56498 89.087896,89.087896 0 0 0 8.27337,-2.74928 89.087896,89.087896 0 0 0 8.12797,-3.6378 89.087896,89.087896 0 0 0 7.72453,-4.43067 89.087896,89.087896 0 0 0 0.4719,-0.33754 34.890482,34.890482 0 0 0 0.41365,-2.73569 34.890482,34.890482 0 0 0 0.0645,-1.29152 18.595935,18.595935 0 0 1 -0.18279,0.0408 18.595935,18.595935 0 0 1 -1.84506,0.22404 18.595935,18.595935 0 0 1 -1.31533,0.0467 18.595935,18.595935 0 0 1 -1.31874,-0.0663 65.215871,65.215871 0 0 0 4.72868,-1.57125 34.890482,34.890482 0 0 0 0.0433,-0.86556 34.890482,34.890482 0 0 0 -0.0595,-1.68052 34.890482,34.890482 0 0 0 -0.0276,-0.78734 34.890482,34.890482 0 0 0 -0.42044,-3.46222 34.890482,34.890482 0 0 0 -0.70615,-3.14636 h -0.007 a 89.087896,89.087896 0 0 1 -2.94995,1.69199 89.087896,89.087896 0 0 1 -2.75483,1.5802 89.087896,89.087896 0 0 0 0,5.3e-4 89.087896,89.087896 0 0 1 -5.61504,2.51291 89.087896,89.087896 0 0 1 -2.51293,1.12446 89.087896,89.087896 0 0 1 -0.51907,0.1726 89.087896,89.087896 0 0 1 -7.93158,2.63535 89.087896,89.087896 0 0 1 -2.62216,0.58881 34.890477,34.890477 0 0 1 0,0.0135 34.890477,34.890477 0 0 1 -0.17304,3.45585 34.890477,34.890477 0 0 0 0.17301,-3.45585 34.890477,34.890477 0 0 0 0,-0.0135 89.087896,89.087896 0 0 1 -6.06566,1.36125 89.087896,89.087896 0 0 1 -4.83795,0.58752 89.087896,89.087896 0 0 1 -3.99914,0.48549 89.087896,89.087896 0 0 1 -1.9679,0.0697 89.087896,89.087896 0 0 1 -4.33289,0.15347 89.087896,89.087896 0 0 1 -8.89364,-0.4451 89.087896,89.087896 0 0 1 -8.80457,-1.33068 89.087896,89.087896 0 0 1 -4.72123,-1.20559 89.087896,89.087896 0 0 1 -3.90649,-0.99736 89.087896,89.087896 0 0 1 -8.36477,-3.05373 89.087896,89.087896 0 0 1 -8.0183,-3.87333 89.087896,89.087896 0 0 1 -3.4941,-2.14263 89.087896,89.087896 0 0 1 -0.63216,-0.38728 z"
       style="display:inline;opacity:1;fill:url(#linearGradient8945);fill-opacity:1;stroke:none;stroke-width:0;stroke-linecap:round;stroke-linejoin:miter;stroke-miterlimit:4;stroke-dasharray:none;stroke-dashoffset:0;stroke-opacity:1;paint-order:markers fill stroke"
       inkscape:connector-curvature="0" />
    <path
       inkscape:connector-curvature="0"
       id="path8859"
       d="m 134.0336,193.8421 a 61.897715,61.897715 0 0 1 0.23476,0.70698 52.956457,52.956457 0 0 0 0.59548,-0.1978 72.34097,72.34097 0 0 1 -0.83024,-0.50918 z"
       style="display:inline;opacity:1;fill:#ff0000;fill-opacity:1;stroke:none;stroke-width:0;stroke-linecap:round;stroke-linejoin:miter;stroke-miterlimit:4;stroke-dasharray:none;stroke-dashoffset:0;stroke-opacity:1;paint-order:markers fill stroke" />
    <path
       inkscape:connector-curvature="0"
       id="path8861"
       d="m 134.0336,193.8421 a 72.34097,72.34097 0 0 0 0.83024,0.50918 52.956457,52.956457 0 0 1 -0.59548,0.1978 61.897715,61.897715 0 0 0 -0.23476,-0.70698 z"
       style="display:inline;opacity:1;fill:#ff0000;fill-opacity:1;stroke:none;stroke-width:0;stroke-linecap:round;stroke-linejoin:miter;stroke-miterlimit:4;stroke-dasharray:none;stroke-dashoffset:0;stroke-opacity:1;paint-order:markers fill stroke" />
    <path
       inkscape:connector-curvature="0"
       id="path8863"
       d="m 107.61777,83.403653 a 18.595935,18.595935 0 0 0 -0.0111,0.21299 18.595935,18.595935 0 0 1 0.0111,-0.21299 z"
       style="display:inline;opacity:1;fill:#ff0000;fill-opacity:1;stroke:none;stroke-width:0;stroke-linecap:round;stroke-linejoin:miter;stroke-miterlimit:4;stroke-dasharray:none;stroke-dashoffset:0;stroke-opacity:1;paint-order:markers fill stroke" />
    <path
       inkscape:connector-curvature="0"
       id="path8865"
       d="m 131.03966,197.6443 a 3.3454919,3.3454919 0 0 1 0.22787,-0.24445 3.3454919,3.3454919 0 0 0 -0.22828,0.24445 z"
       style="display:inline;opacity:1;fill:#ff0000;fill-opacity:1;stroke:none;stroke-width:0;stroke-linecap:round;stroke-linejoin:miter;stroke-miterlimit:4;stroke-dasharray:none;stroke-dashoffset:0;stroke-opacity:1;paint-order:markers fill stroke" />
    <path
       inkscape:connector-curvature="0"
       id="path8867"
       d="m 133.83527,203.13651 a 3.3454919,3.3454919 0 0 1 -0.23679,0.009 3.3454919,3.3454919 0 0 1 -0.33373,-0.017 3.3454919,3.3454919 0 0 0 0.33373,0.0175 3.3454919,3.3454919 0 0 0 0.23679,-0.009 z"
       style="display:inline;opacity:1;fill:#ff0000;fill-opacity:1;stroke:none;stroke-width:0;stroke-linecap:round;stroke-linejoin:miter;stroke-miterlimit:4;stroke-dasharray:none;stroke-dashoffset:0;stroke-opacity:1;paint-order:markers fill stroke" />
  </g>
</svg>
