<?xml version="1.0" encoding="UTF-8" standalone="no"?>
<!-- Created with Inkscape (http://www.inkscape.org/) -->

<svg
   xmlns:dc="http://purl.org/dc/elements/1.1/"
   xmlns:cc="http://creativecommons.org/ns#"
   xmlns:rdf="http://www.w3.org/1999/02/22-rdf-syntax-ns#"
   xmlns:svg="http://www.w3.org/2000/svg"
   xmlns="http://www.w3.org/2000/svg"
   xmlns:xlink="http://www.w3.org/1999/xlink"
   xmlns:sodipodi="http://sodipodi.sourceforge.net/DTD/sodipodi-0.dtd"
   xmlns:inkscape="http://www.inkscape.org/namespaces/inkscape"
   width="210mm"
   height="297mm"
   viewBox="0 0 210 297"
   version="1.1"
   id="svg16929"
   inkscape:version="0.92.3 (2405546, 2018-03-11)"
   sodipodi:docname="wP.svg">
  <defs
     id="defs16923">
    <radialGradient
       inkscape:collect="always"
       xlink:href="#linearGradient16859"
       id="radialGradient16861"
       cx="467.70715"
       cy="210.05817"
       fx="467.70715"
       fy="210.05817"
       r="4.0667109"
       gradientTransform="matrix(1.7776579,0,0,1.7378733,-690.87427,-164.63252)"
       gradientUnits="userSpaceOnUse" />
    <linearGradient
       inkscape:collect="always"
       id="linearGradient16859">
      <stop
         style="stop-color:#ececec;stop-opacity:1;"
         offset="0"
         id="stop16855" />
      <stop
         style="stop-color:#cccccc;stop-opacity:1"
         offset="1"
         id="stop16857" />
    </linearGradient>
    <radialGradient
       inkscape:collect="always"
       xlink:href="#linearGradient16867"
       id="radialGradient16869"
       cx="426.69781"
       cy="209.828"
       fx="426.69781"
       fy="209.828"
       r="4.0665264"
       gradientTransform="matrix(1.7776579,0,0,1.7379522,-690.87427,-164.64907)"
       gradientUnits="userSpaceOnUse" />
    <linearGradient
       inkscape:collect="always"
       id="linearGradient16867">
      <stop
         style="stop-color:#f2f2f2;stop-opacity:1;"
         offset="0"
         id="stop16863" />
      <stop
         style="stop-color:#cccccc;stop-opacity:1"
         offset="1"
         id="stop16865" />
    </linearGradient>
    <linearGradient
       gradientTransform="matrix(1.7776579,0,0,1.7378691,-690.87427,-164.63165)"
       inkscape:collect="always"
       xlink:href="#linearGradient16821"
       id="linearGradient16815"
       x1="433.73135"
       y1="172.36681"
       x2="462.44366"
       y2="172.36681"
       gradientUnits="userSpaceOnUse" />
    <linearGradient
       id="linearGradient16821"
       inkscape:collect="always">
      <stop
         id="stop16817"
         offset="0"
         style="stop-color:#e6e6e6;stop-opacity:1" />
      <stop
         id="stop16819"
         offset="1"
         style="stop-color:#666666;stop-opacity:1" />
    </linearGradient>
    <linearGradient
       gradientTransform="matrix(1.7776579,0,0,1.7378691,-690.87427,-164.63165)"
       inkscape:collect="always"
       xlink:href="#linearGradient16843"
       id="linearGradient16845"
       x1="472.23297"
       y1="219.69455"
       x2="431.21866"
       y2="219.23605"
       gradientUnits="userSpaceOnUse" />
    <linearGradient
       inkscape:collect="always"
       id="linearGradient16843">
      <stop
         style="stop-color:#808080;stop-opacity:1"
         offset="0"
         id="stop16839" />
      <stop
         style="stop-color:#e6e6e6;stop-opacity:1"
         offset="1"
         id="stop16841" />
    </linearGradient>
    <linearGradient
       gradientTransform="matrix(1.7776579,0,0,1.7378691,-690.87427,-164.63165)"
       inkscape:collect="always"
       xlink:href="#linearGradient16807"
       id="linearGradient16813"
       x1="443.9324"
       y1="149.3365"
       x2="497.96051"
       y2="191.83237"
       gradientUnits="userSpaceOnUse" />
    <linearGradient
       inkscape:collect="always"
       id="linearGradient16807">
      <stop
         style="stop-color:#e6e6e6;stop-opacity:1;"
         offset="0"
         id="stop16803" />
      <stop
         style="stop-color:#333333;stop-opacity:1"
         offset="1"
         id="stop16805" />
    </linearGradient>
    <linearGradient
       gradientTransform="matrix(1.7776579,0,0,1.7378691,-690.87427,-164.63165)"
       inkscape:collect="always"
       xlink:href="#linearGradient16827"
       id="linearGradient16829"
       x1="457.35703"
       y1="169.69981"
       x2="394.87659"
       y2="278.98779"
       gradientUnits="userSpaceOnUse" />
    <linearGradient
       inkscape:collect="always"
       id="linearGradient16827">
      <stop
         style="stop-color:#b3b3b3;stop-opacity:1"
         offset="0"
         id="stop16823" />
      <stop
         style="stop-color:#ececec;stop-opacity:0;"
         offset="1"
         id="stop16825" />
    </linearGradient>
    <linearGradient
       gradientTransform="matrix(1.7776579,0,0,1.7378691,-690.87427,-164.63165)"
       inkscape:collect="always"
       xlink:href="#linearGradient16837"
       id="linearGradient16831"
       x1="449.56216"
       y1="167.03279"
       x2="448.211"
       y2="214.41371"
       gradientUnits="userSpaceOnUse" />
    <linearGradient
       inkscape:collect="always"
       id="linearGradient16837">
      <stop
         style="stop-color:#b3b3b3;stop-opacity:1"
         offset="0"
         id="stop16833" />
      <stop
         style="stop-color:#e6e6e6;stop-opacity:1"
         offset="1"
         id="stop16835" />
    </linearGradient>
    <linearGradient
       gradientTransform="matrix(1.7776579,0,0,1.7378691,-690.87427,-164.63165)"
       inkscape:collect="always"
       xlink:href="#linearGradient16851"
       id="linearGradient16853"
       x1="473.18213"
       y1="221.87726"
       x2="430.14957"
       y2="222.17603"
       gradientUnits="userSpaceOnUse" />
    <linearGradient
       inkscape:collect="always"
       id="linearGradient16851">
      <stop
         style="stop-color:#666666;stop-opacity:1"
         offset="0"
         id="stop16847" />
      <stop
         style="stop-color:#cccccc;stop-opacity:1"
         offset="1"
         id="stop16849" />
    </linearGradient>
  </defs>
  <sodipodi:namedview
     id="base"
     pagecolor="#ffffff"
     bordercolor="#666666"
     borderopacity="1.0"
     inkscape:pageopacity="0.0"
     inkscape:pageshadow="2"
     inkscape:zoom="0.35"
     inkscape:cx="-574.28572"
     inkscape:cy="560"
     inkscape:document-units="mm"
     inkscape:current-layer="layer1"
     showgrid="false"
     inkscape:window-width="1920"
     inkscape:window-height="1017"
     inkscape:window-x="0"
     inkscape:window-y="0"
     inkscape:window-maximized="1" />
  <metadata
     id="metadata16926">
    <rdf:RDF>
      <cc:Work
         rdf:about="">
        <dc:format>image/svg+xml</dc:format>
        <dc:type
           rdf:resource="http://purl.org/dc/dcmitype/StillImage" />
        <dc:title />
      </cc:Work>
    </rdf:RDF>
  </metadata>
  <g
     inkscape:label="Layer 1"
     inkscape:groupmode="layer"
     id="layer1">
    <path
       style="opacity:1;vector-effect:none;fill:url(#linearGradient16853);fill-opacity:1;stroke:#000000;stroke-width:0;stroke-linecap:round;stroke-linejoin:miter;stroke-miterlimit:4;stroke-dasharray:none;stroke-dashoffset:0;stroke-opacity:1;paint-order:markers fill stroke"
       d="m 53.579014,251.56081 a 14.099421,13.259925 0 0 0 0.60259,0.98607 14.099421,13.259925 0 0 0 0.819287,1.0786 14.099421,13.259925 0 0 0 0.737248,0.7894 14.099421,13.259925 0 0 0 -0.213905,0.17694 14.099421,13.259925 0 0 0 -0.960682,0.96988 14.099421,13.259925 0 0 0 -0.852725,1.05524 14.099421,13.259925 0 0 0 -0.737213,1.12978 14.099421,13.259925 0 0 0 -0.613043,1.19354 14.099421,13.259925 0 0 0 -0.483203,1.2447 14.099421,13.259925 0 0 0 -0.348562,1.28427 14.099421,13.259925 0 0 0 -0.123192,0.76603 14.099421,13.259925 0 0 0 -0.08782,0.54425 14.099421,13.259925 0 0 0 -0.06968,1.32373 14.099421,13.259925 0 0 0 0.0352,0.93849 14.099421,13.259925 0 0 0 0.169056,1.31567 14.099421,13.259925 0 0 0 0.09457,0.39514 171.22272,161.02793 0 0 0 1.266209,0.43469 171.22272,161.02793 0 0 0 16.583272,3.98202 171.22272,161.02793 0 0 0 7.111318,1.01032 171.22272,161.02793 0 0 0 9.811882,1.39469 171.22272,161.02793 0 0 0 17.093149,0.80467 171.22272,161.02793 0 0 0 12.11233,-0.4032 171.22272,161.02793 0 0 0 13.02328,-1.4872 171.22272,161.02793 0 0 0 3.96677,-0.45262 171.22272,161.02793 0 0 0 16.6997,-3.52494 171.22272,161.02793 0 0 0 0.26168,-0.0817 14.099421,13.259925 0 0 0 0.046,-0.07 14.099421,13.259925 0 0 0 0.61307,-1.19354 14.099421,13.259925 0 0 0 0.48319,-1.24563 14.099421,13.259925 0 0 0 0.34855,-1.28423 14.099421,13.259925 0 0 0 0.21103,-1.31028 14.099421,13.259925 0 0 0 0.0697,-1.32374 14.099421,13.259925 0 0 0 -0.0352,-0.93849 14.099421,13.259925 0 0 0 -0.16905,-1.31566 14.099421,13.259925 0 0 0 -0.30938,-1.29324 14.099421,13.259925 0 0 0 -0.44405,-1.25728 14.099421,13.259925 0 0 0 -0.5758,-1.20971 14.099421,13.259925 0 0 0 -0.56437,-0.92681 14.099421,13.259925 0 0 0 -0.13652,-0.22363 14.099421,13.259925 0 0 0 -0.8203,-1.07766 14.099421,13.259925 0 0 0 -0.48034,-0.51461 14.099421,13.259925 0 0 0 -0.4498,-0.48133 14.099421,13.259925 0 0 0 -0.93678,-0.82087 146.48923,137.7671 0 0 1 -1.59566,0.49843 146.48923,137.7671 0 0 1 -4.92549,1.53929 146.48923,137.7671 0 0 1 -12.41117,2.61966 146.48923,137.7671 0 0 1 -1.87644,0.39608 146.48923,137.7671 0 0 1 -1.48207,0.16875 146.48923,137.7671 0 0 1 -13.05384,1.49079 146.48923,137.7671 0 0 1 -10.36192,0.34485 146.48923,137.7671 0 0 1 -14.624679,-0.68794 146.48923,137.7671 0 0 1 -8.700315,-1.23663 146.48923,137.7671 0 0 1 -3.659293,-0.52001 146.48923,137.7671 0 0 1 -2.118987,-0.3008 146.48923,137.7671 0 0 1 -7.518106,-1.80513 146.48923,137.7671 0 0 1 -6.267186,-1.50517 146.48923,137.7671 0 0 1 -0.401999,-0.097 146.48923,137.7671 0 0 1 -3.750023,-1.28693 z"
       id="path15524-9"
       inkscape:connector-curvature="0" />
    <path
       style="opacity:1;vector-effect:none;fill:url(#linearGradient16831);fill-opacity:1;stroke:#000000;stroke-width:0;stroke-linecap:round;stroke-linejoin:miter;stroke-miterlimit:4;stroke-dasharray:none;stroke-dashoffset:0;stroke-opacity:1;paint-order:markers fill stroke"
       d="m 106.46935,160.59083 a 33.973642,27.728494 0 0 1 -0.46507,0.0857 33.973642,27.728494 0 0 1 -3.37078,0.3333 33.973642,27.728494 0 0 1 -2.40395,0.0695 33.973642,27.728494 0 0 1 -2.82595,-0.11488 15.499678,12.650475 0 0 0 -0.04301,0.0377 15.499678,12.650475 0 0 0 -0.938498,1.00673 15.499678,12.650475 0 0 0 -0.809379,1.07868 15.499678,12.650475 0 0 0 -0.673952,1.13869 15.499678,12.650475 0 0 0 -0.395758,0.88423 219.9847,179.54638 0 0 1 1.452859,-0.0419 219.9847,179.54638 0 0 1 14.721918,0.60146 15.499678,12.650475 0 0 0 -0.0871,-0.21505 15.499678,12.650475 0 0 0 -0.63297,-1.15495 15.499678,12.650475 0 0 0 -0.77054,-1.0967 15.499678,12.650475 0 0 0 -0.90174,-1.02815 15.499678,12.650475 0 0 0 -1.02249,-0.95019 15.499678,12.650475 0 0 0 -0.83347,-0.63401 z m -10.947999,14.87645 a 100.76453,82.24166 0 0 1 0.05243,0.12842 100.76453,82.24166 0 0 1 1.93681,7.03855 100.76453,82.24166 0 0 1 0.269742,0.98275 100.76453,82.24166 0 0 1 1.21358,8.16093 100.76453,82.24166 0 0 1 0.25194,5.81762 100.76453,82.24166 0 0 1 -0.50283,8.20978 100.76453,82.24166 0 0 1 -1.505371,8.12836 100.76453,82.24166 0 0 1 -2.492139,7.96561 100.76453,82.24166 0 0 1 -0.573148,1.28261 100.76453,82.24166 0 0 1 -2.880572,6.43966 100.76453,82.24166 0 0 1 -4.380656,7.40265 100.76453,82.24166 0 0 1 -5.264562,7.00773 100.76453,82.24166 0 0 1 -1.540026,1.6536 137.75904,112.43571 0 0 0 9.046892,1.11555 137.75904,112.43571 0 0 0 13.752929,0.5612 137.75904,112.43571 0 0 0 9.7439,-0.28103 137.75904,112.43571 0 0 0 13.67001,-1.35459 137.75904,112.43571 0 0 0 2.66429,-0.48838 15.499678,12.650475 0 0 1 0.36216,-0.31701 15.499678,12.650475 0 0 1 0.2047,-0.1465 100.76453,82.24166 0 0 1 -1.15266,-1.07099 100.76453,82.24166 0 0 1 -5.85867,-6.68639 100.76453,82.24166 0 0 1 -5.01161,-7.13108 100.76453,82.24166 0 0 1 -3.50727,-6.39597 100.76453,82.24166 0 0 1 -0.60778,-1.10782 100.76453,82.24166 0 0 1 -3.17554,-7.80109 100.76453,82.24166 0 0 1 -2.20552,-8.02129 100.76453,82.24166 0 0 1 -1.2146,-8.16095 100.76453,82.24166 0 0 1 -0.25199,-5.81761 100.76453,82.24166 0 0 1 0.50287,-8.21063 100.76453,82.24166 0 0 1 0.49022,-2.64578 100.76453,82.24166 0 0 1 0.69809,-3.77075 100.76453,82.24166 0 0 1 0.31705,-1.71185 100.76453,82.24166 0 0 1 0.22886,-0.73258 219.98469,179.54637 0 0 1 -12.995013,-0.0419 219.98469,179.54637 0 0 1 -0.286596,-9.3e-4 z"
       id="path15478-3"
       inkscape:connector-curvature="0" />
    <path
       style="opacity:1;vector-effect:none;fill:url(#linearGradient16829);fill-opacity:1;stroke:#000000;stroke-width:0;stroke-linecap:round;stroke-linejoin:miter;stroke-miterlimit:4;stroke-dasharray:none;stroke-dashoffset:0;stroke-opacity:1;paint-order:markers fill stroke"
       d="m 126.30104,147.00586 a 29.729778,27.756779 0 0 1 -1.19694,1.82254 29.729778,27.756779 0 0 1 -1.79868,2.20851 29.729778,27.756779 0 0 1 -2.02561,2.03011 29.729778,27.756779 0 0 1 -2.23223,1.83109 29.729778,27.756779 0 0 1 -2.41787,1.61412 29.729778,27.756779 0 0 1 -2.14774,1.15013 88.177392,82.325552 0 0 0 -0.007,0.0121 13.563514,12.663381 0 0 0 -0.008,-0.003 29.729778,27.756779 0 0 1 -0.41521,0.22215 29.729778,27.756779 0 0 1 -2.71273,1.13297 29.729778,27.756779 0 0 1 -2.8193,0.87481 29.729778,27.756779 0 0 1 -2.49313,0.52232 13.563514,12.663381 0 0 1 0.72935,0.63466 13.563514,12.663381 0 0 1 0.89479,0.95118 13.563514,12.663381 0 0 1 0.78908,1.0292 13.563514,12.663381 0 0 1 0.67428,1.09779 13.563514,12.663381 0 0 1 0.5539,1.15614 13.563514,12.663381 0 0 1 0.0763,0.21527 192.50501,179.72953 0 0 1 1.30165,0.061 192.50499,179.72951 0 0 1 5.03413,0.235 192.50499,179.72951 0 0 1 3.60011,0.50772 88.177392,82.325552 0 0 1 0.20301,-1.25303 88.177392,82.325552 0 0 1 0.5374,-1.96578 88.177392,82.325552 0 0 1 1.64253,-6.00709 88.177392,82.325552 0 0 1 3.02224,-7.731 88.177392,82.325552 0 0 1 1.21536,-2.34829 z m -43.658794,8.25076 a 88.177392,82.325552 0 0 1 0.524511,1.47348 88.177392,82.325552 0 0 1 1.783101,7.41451 88.177392,82.325552 0 0 1 0.147902,0.61495 88.177392,82.325552 0 0 1 0.06896,0.53262 192.50499,179.72951 0 0 1 7.30771,-0.24188 192.50499,179.72951 0 0 1 3.115986,-0.10287 13.563514,12.663381 0 0 1 0.346326,-0.88508 13.563514,12.663381 0 0 1 0.589755,-1.13986 13.563514,12.663381 0 0 1 0.708274,-1.0798 13.563514,12.663381 0 0 1 0.821252,-1.00774 13.563514,12.663381 0 0 1 0.0377,-0.0377 29.729778,27.756779 0 0 1 -0.495163,-0.0231 29.729778,27.756779 0 0 1 -2.93778,-0.41509 29.729778,27.756779 0 0 1 -2.879892,-0.68616 29.729778,27.756779 0 0 1 -1.78399,-0.60807 13.563514,12.663381 0 0 0 -0.298524,0.15954 13.563514,12.663381 0 0 0 -0.09742,0.0652 88.177392,82.325552 0 0 0 -0.28018,-0.45542 29.729778,27.756779 0 0 1 -0.330702,-0.11244 29.729778,27.756779 0 0 1 -2.675996,-1.20673 29.729778,27.756779 0 0 1 -2.533566,-1.45034 29.729778,27.756779 0 0 1 -1.138167,-0.8079 z m 3.572543,19.12682 a 88.177392,82.325552 0 0 1 0.124074,3.28655 88.177392,82.325552 0 0 1 0.04144,1.08239 88.177392,82.325552 0 0 1 -0.440033,8.21815 88.177392,82.325552 0 0 1 -1.317336,8.13752 88.177392,82.325552 0 0 1 -2.180816,7.97289 88.177392,82.325552 0 0 1 -3.022299,7.73013 88.177392,82.325552 0 0 1 -3.833396,7.41023 88.177392,82.325552 0 0 1 -4.606979,7.01572 88.177392,82.325552 0 0 1 -0.0053,0.007 88.177392,82.325552 0 0 1 -2.771529,3.40406 7.2290843,6.7493309 0 0 1 0.05688,0.0403 7.2290843,6.7493309 0 0 1 0.528249,0.45972 7.2290843,6.7493309 0 0 1 0.476733,0.50686 7.2290843,6.7493309 0 0 1 0.420771,0.54891 7.2290843,6.7493309 0 0 1 0.359194,0.58492 7.2290843,6.7493309 0 0 1 0.295785,0.61581 7.2290843,6.7493309 0 0 1 0.227789,0.63983 7.2290843,6.7493309 0 0 1 0.158033,0.65867 7.2290843,6.7493309 0 0 1 0.08728,0.66985 7.2290843,6.7493309 0 0 1 0.01778,0.47687 7.2290843,6.7493309 0 0 1 -0.03572,0.67412 7.2290843,6.7493309 0 0 1 -0.107549,0.66725 7.2290843,6.7493309 0 0 1 -0.179099,0.65354 7.2290843,6.7493309 0 0 1 -0.248054,0.63383 7.2290843,6.7493309 0 0 1 -0.314148,0.60721 7.2290843,6.7493309 0 0 1 -0.377593,0.57549 7.2290843,6.7493309 0 0 1 -0.437268,0.53693 7.2290843,6.7493309 0 0 1 -0.492357,0.49401 7.2290843,6.7493309 0 0 1 -0.542916,0.44512 7.2290843,6.7493309 0 0 1 -0.587906,0.39194 7.2290843,6.7493309 0 0 1 -0.626553,0.33624 7.2290843,6.7493309 0 0 1 -0.659547,0.27528 7.2290843,6.7493309 0 0 1 -0.686229,0.21271 7.2290843,6.7493309 0 0 1 -0.704557,0.14755 7.2290843,6.7493309 0 0 1 -0.717464,0.0815 7.2290843,6.7493309 0 0 1 -0.51168,0.0174 7.2290843,6.7493309 0 0 1 -0.722067,-0.0335 7.2290843,6.7493309 0 0 1 -0.71373,-0.10119 7.2290843,6.7493309 0 0 1 -0.464839,-0.1107 120.55068,112.55041 0 0 0 2.55652,0.87137 13.563514,12.663381 0 0 1 0.418888,-0.13034 13.563514,12.663381 0 0 1 1.322827,-0.27702 13.563514,12.663381 0 0 1 1.346717,-0.15276 13.563514,12.663381 0 0 1 0.959065,-0.0316 13.563514,12.663381 0 0 1 1.354059,0.0634 13.563514,12.663381 0 0 1 1.340283,0.18868 13.563514,12.663381 0 0 1 1.313654,0.31305 13.563514,12.663381 0 0 1 1.274154,0.434 13.563514,12.663381 0 0 1 1.220859,0.55061 13.563514,12.663381 0 0 1 1.155622,0.6621 13.563514,12.663381 0 0 1 1.079368,0.7659 13.563514,12.663381 0 0 1 0.992138,0.86282 13.563514,12.663381 0 0 1 0.419826,0.44597 120.55068,112.55041 0 0 0 0.503394,0.12026 120.55068,112.55041 0 0 0 3.998773,0.56432 88.177392,82.325552 0 0 0 1.347661,-1.65527 88.177392,82.325552 0 0 0 4.606925,-7.01487 88.177392,82.325552 0 0 0 3.833458,-7.4102 88.177392,82.325552 0 0 0 2.520737,-6.44623 88.177392,82.325552 0 0 0 0.501563,-1.28394 88.177392,82.325552 0 0 0 2.180819,-7.9737 88.177392,82.325552 0 0 0 1.31733,-8.13669 88.177392,82.325552 0 0 0 0.44001,-8.21816 88.177392,82.325552 0 0 0 -0.22045,-5.82355 88.177392,82.325552 0 0 0 -1.06199,-8.16926 88.177392,82.325552 0 0 0 -0.23605,-0.98375 88.177392,82.325552 0 0 0 -1.694883,-7.04573 88.177392,82.325552 0 0 0 -0.04583,-0.1286 192.50497,179.7295 0 0 1 -0.696292,-0.003 192.50497,179.7295 0 0 1 -9.535416,-0.9288 z m 32.250371,0.68783 a 192.50499,179.72951 0 0 1 -3.47242,0.31221 192.50499,179.72951 0 0 1 -5.75798,-0.0213 13.563514,12.663381 0 0 1 -0.30501,0.58919 13.563514,12.663381 0 0 1 -0.70823,1.07981 13.563514,12.663381 0 0 1 -0.63022,0.77363 88.177392,82.325552 0 0 0 -0.61087,3.7746 88.177392,82.325552 0 0 0 -0.42899,2.64846 88.177392,82.325552 0 0 0 -0.44006,8.21899 88.177392,82.325552 0 0 0 0.2205,5.82357 88.177392,82.325552 0 0 0 1.06288,8.16925 88.177392,82.325552 0 0 0 1.93002,8.02947 88.177392,82.325552 0 0 0 2.77886,7.80907 88.177392,82.325552 0 0 0 0.53187,1.10894 88.177392,82.325552 0 0 0 3.06914,6.40247 88.177392,82.325552 0 0 0 4.38558,7.13837 88.177392,82.325552 0 0 0 5.12683,6.69324 88.177392,82.325552 0 0 0 1.00868,1.07207 13.563514,12.663381 0 0 1 0.83961,-0.68873 13.563514,12.663381 0 0 1 1.10238,-0.73584 13.563514,12.663381 0 0 1 1.17585,-0.62956 13.563514,12.663381 0 0 1 1.23831,-0.51717 13.563514,12.663381 0 0 1 1.28609,-0.39966 13.563514,12.663381 0 0 1 1.32282,-0.277 13.563514,12.663381 0 0 1 1.3458,-0.15276 13.563514,12.663381 0 0 1 0.95995,-0.0316 13.563514,12.663381 0 0 1 1.35406,0.0634 13.563514,12.663381 0 0 1 1.34027,0.18957 13.563514,12.663381 0 0 1 1.31367,0.31304 13.563514,12.663381 0 0 1 0.008,0.003 120.55068,112.55041 0 0 0 5.19854,-1.61325 88.177392,82.325552 0 0 1 -0.97378,-0.84652 7.2290843,6.7493309 0 0 1 -0.23792,0.15866 7.2290843,6.7493309 0 0 1 -0.62648,0.33622 7.2290843,6.7493309 0 0 1 -0.65959,0.2753 7.2290843,6.7493309 0 0 1 -0.68528,0.21271 7.2290843,6.7493309 0 0 1 -0.70552,0.14753 7.2290843,6.7493309 0 0 1 -0.71746,0.0815 7.2290843,6.7493309 0 0 1 -0.51072,0.0174 7.2290843,6.7493309 0 0 1 -0.72207,-0.0335 7.2290843,6.7493309 0 0 1 -0.71469,-0.10118 7.2290843,6.7493309 0 0 1 -0.7,-0.16718 7.2290843,6.7493309 0 0 1 -0.67889,-0.23073 7.2290843,6.7493309 0 0 1 -0.65038,-0.29333 7.2290843,6.7493309 0 0 1 -0.6164,-0.35336 7.2290843,6.7493309 0 0 1 -0.57505,-0.40822 7.2290843,6.7493309 0 0 1 -0.52914,-0.45973 7.2290843,6.7493309 0 0 1 -0.47679,-0.5069 7.2290843,6.7493309 0 0 1 -0.41977,-0.54888 7.2290843,6.7493309 0 0 1 -0.36015,-0.58493 7.2290843,6.7493309 0 0 1 -0.29486,-0.6158 7.2290843,6.7493309 0 0 1 -0.22781,-0.64069 7.2290843,6.7493309 0 0 1 -0.15803,-0.65781 7.2290843,6.7493309 0 0 1 -0.0873,-0.66985 7.2290843,6.7493309 0 0 1 -0.0183,-0.47772 7.2290843,6.7493309 0 0 1 0.0357,-0.67327 7.2290843,6.7493309 0 0 1 0.10844,-0.66725 7.2290843,6.7493309 0 0 1 0.17915,-0.65358 7.2290843,6.7493309 0 0 1 0.24708,-0.63377 7.2290843,6.7493309 0 0 1 0.31512,-0.60725 7.2290843,6.7493309 0 0 1 0.37754,-0.57547 7.2290843,6.7493309 0 0 1 0.43727,-0.53691 7.2290843,6.7493309 0 0 1 0.45289,-0.45458 88.177392,82.325552 0 0 1 -2.41509,-3.15363 88.177392,82.325552 0 0 1 -0.35548,-0.57891 88.177392,82.325552 0 0 1 -4.03005,-6.5586 88.177392,82.325552 0 0 1 -3.60011,-7.51143 88.177392,82.325552 0 0 1 -2.7798,-7.80903 88.177392,82.325552 0 0 1 -1.93003,-8.02948 88.177392,82.325552 0 0 1 -1.06195,-8.16927 88.177392,82.325552 0 0 1 -0.22137,-5.82356 88.177392,82.325552 0 0 1 0.20305,-3.78658 88.177392,82.325552 0 0 1 0.13688,-2.55585 z"
       id="path15482-7"
       inkscape:connector-curvature="0" />
    <path
       id="path15634-0"
       style="opacity:1;vector-effect:none;fill:url(#linearGradient16813);fill-opacity:1;stroke:#000000;stroke-width:0;stroke-linecap:round;stroke-linejoin:miter;stroke-miterlimit:4;stroke-dasharray:none;stroke-dashoffset:0;stroke-opacity:1;paint-order:markers fill stroke"
       d="m 90.043632,109.51424 a 13.563514,13.259925 0 0 0 -0.959008,0.0332 13.563514,13.259925 0 0 0 -1.346741,0.15988 13.563514,13.259925 0 0 0 -1.322829,0.29008 13.563514,13.259925 0 0 0 -1.286079,0.4185 13.563514,13.259925 0 0 0 -1.237379,0.54063 13.563514,13.259925 0 0 0 -1.175849,0.66008 13.563514,13.259925 0 0 0 -1.103268,0.77054 13.563514,13.259925 0 0 0 -1.018791,0.87471 13.563514,13.259925 0 0 0 -0.92413,0.96993 13.563514,13.259925 0 0 0 -0.820315,1.05523 13.563514,13.259925 0 0 0 -0.708274,1.12978 13.563514,13.259925 0 0 0 -0.589755,1.19353 13.563514,13.259925 0 0 0 -0.464844,1.24562 13.563514,13.259925 0 0 0 -0.336206,1.28423 13.563514,13.259925 0 0 0 -0.202107,1.31029 13.563514,13.259925 0 0 0 -0.06812,1.32375 13.563514,13.259925 0 0 0 0.0339,0.93757 13.563514,13.259925 0 0 0 0.163546,1.31658 13.563514,13.259925 0 0 0 0.296682,1.29322 13.563514,13.259925 0 0 0 0.428104,1.25729 13.563514,13.259925 0 0 0 0.553026,1.20971 13.563514,13.259925 0 0 0 0.675175,1.15043 13.563514,13.259925 0 0 0 0.78819,1.07767 13.563514,13.259925 0 0 0 0.894715,0.99595 13.563514,13.259925 0 0 0 0.992149,0.90347 13.563514,13.259925 0 0 0 1.079368,0.80196 13.563514,13.259925 0 0 0 1.155674,0.69243 13.563514,13.259925 0 0 0 1.220845,0.57655 13.563514,13.259925 0 0 0 1.27416,0.45442 13.563514,13.259925 0 0 0 1.313611,0.32871 13.563514,13.259925 0 0 0 1.340263,0.19757 13.563514,13.259925 0 0 0 1.354065,0.0665 13.563514,13.259925 0 0 0 0.959071,-0.0332 13.563514,13.259925 0 0 0 1.34672,-0.15989 13.563514,13.259925 0 0 0 1.32284,-0.29006 13.563514,13.259925 0 0 0 1.286079,-0.41763 13.563514,13.259925 0 0 0 1.237379,-0.54154 13.563514,13.259925 0 0 0 1.17679,-0.66008 13.563514,13.259925 0 0 0 1.102334,-0.77053 13.563514,13.259925 0 0 0 1.01875,-0.87472 13.563514,13.259925 0 0 0 0.924167,-0.96992 13.563514,13.259925 0 0 0 0.82032,-1.05522 13.563514,13.259925 0 0 0 0.70827,-1.12976 13.563514,13.259925 0 0 0 0.58976,-1.19356 13.563514,13.259925 0 0 0 0.46572,-1.24562 13.563514,13.259925 0 0 0 0.33533,-1.28423 13.563514,13.259925 0 0 0 0.20209,-1.31029 13.563514,13.259925 0 0 0 0.0679,-1.32375 13.563514,13.259925 0 0 0 -0.0339,-0.93758 13.563514,13.259925 0 0 0 -0.16354,-1.31658 13.563514,13.259925 0 0 0 -0.29677,-1.29321 13.563514,13.259925 0 0 0 -0.42715,-1.2573 13.563514,13.259925 0 0 0 -0.55392,-1.2097 13.563514,13.259925 0 0 0 -0.67518,-1.15043 13.563514,13.259925 0 0 0 -0.78818,-1.07767 13.563514,13.259925 0 0 0 -0.894787,-0.99596 13.563514,13.259925 0 0 0 -0.99209,-0.90346 13.563514,13.259925 0 0 0 -1.079426,-0.80197 13.563514,13.259925 0 0 0 -1.15561,-0.69242 13.563514,13.259925 0 0 0 -1.220877,-0.57656 13.563514,13.259925 0 0 0 -1.274118,-0.45441 13.563514,13.259925 0 0 0 -1.313611,-0.32871 13.563514,13.259925 0 0 0 -1.340326,-0.19756 13.563514,13.259925 0 0 0 -1.354065,-0.0663 z m 10.522928,-6.12214 a 29.729776,29.064343 0 0 0 -2.102727,0.0728 29.729776,29.064343 0 0 0 -2.949734,0.35025 29.729776,29.064343 0 0 0 -2.900108,0.63584 29.729776,29.064343 0 0 0 -2.820214,0.91693 29.729776,29.064343 0 0 0 -2.711783,1.18633 29.729776,29.064343 0 0 0 -2.577684,1.44589 29.729776,29.064343 0 0 0 -2.41781,1.68927 29.729776,29.064343 0 0 0 -2.232279,1.91739 29.729776,29.064343 0 0 0 -2.02561,2.12572 29.729776,29.064343 0 0 0 -1.798672,2.31342 29.729776,29.064343 0 0 0 -1.553383,2.47688 29.729776,29.064343 0 0 0 -1.292536,2.61518 29.729776,29.064343 0 0 0 -1.018758,2.72922 29.729776,29.064343 0 0 0 -0.73579,2.81546 29.729776,29.064343 0 0 0 -0.443721,2.87201 29.729776,29.064343 0 0 0 -0.102037,1.99463 29.729776,29.064343 0 0 0 -0.04693,0.90704 29.729776,29.064343 0 0 0 0.07448,2.05657 29.729776,29.064343 0 0 0 0.23794,1.9147 29.729776,29.064343 0 0 0 0.120347,0.96902 29.729776,29.064343 0 0 0 0.651334,2.8343 29.729776,29.064343 0 0 0 0.937003,2.75707 29.729776,29.064343 0 0 0 1.213519,2.652 29.729776,29.064343 0 0 0 1.478974,2.51998 29.729776,29.064343 0 0 0 1.727943,2.36371 29.729776,29.064343 0 0 0 1.962207,2.18233 29.729776,29.064343 0 0 0 2.17436,1.98021 29.729776,29.064343 0 0 0 1.227312,0.91245 29.729776,29.064343 0 0 0 1.138166,0.846 29.729776,29.064343 0 0 0 2.533577,1.51863 29.729776,29.064343 0 0 0 2.675995,1.26357 29.729776,29.064343 0 0 0 0.330692,0.11766 29.729776,29.064343 0 0 0 0.676117,0.24155 29.729778,29.064345 0 0 0 1.78399,0.63673 29.729778,29.064345 0 0 0 2.879902,0.71849 29.729778,29.064345 0 0 0 2.93777,0.43464 29.729778,29.064345 0 0 0 0.495171,0.0242 29.729778,29.064345 0 0 0 2.472947,0.12044 29.729778,29.064345 0 0 0 2.10364,-0.0728 29.729778,29.064345 0 0 0 2.94972,-0.34935 29.729778,29.064345 0 0 0 0.40698,-0.0899 29.729778,29.064345 0 0 0 2.49313,-0.54693 29.729778,29.064345 0 0 0 2.81932,-0.91603 29.729778,29.064345 0 0 0 2.71272,-1.18635 29.729778,29.064345 0 0 0 0.4152,-0.23258 29.729776,29.064343 0 0 0 0.0142,-0.008 29.729776,29.064343 0 0 0 2.14774,-1.20434 29.729776,29.064343 0 0 0 2.41788,-1.69015 29.729776,29.064343 0 0 0 2.23224,-1.91736 29.729776,29.064343 0 0 0 2.0256,-2.12574 29.729776,29.064343 0 0 0 1.79867,-2.31253 29.729776,29.064343 0 0 0 1.19696,-1.90841 88.177392,86.203743 0 0 1 1.88136,-3.806 29.729776,29.064343 0 0 0 0.78635,-2.10778 29.729776,29.064343 0 0 0 0.73492,-2.81455 29.729776,29.064343 0 0 0 0.4106,-2.65289 29.729776,29.064343 0 0 0 0.0339,-0.22003 29.729776,29.064343 0 0 0 0.1488,-2.90164 29.729776,29.064343 0 0 0 -0.0745,-2.05569 29.729776,29.064343 0 0 0 -0.35825,-2.88371 29.729776,29.064343 0 0 0 -0.65132,-2.83519 29.729776,29.064343 0 0 0 -0.93706,-2.75708 29.729776,29.064343 0 0 0 -1.21344,-2.65199 29.729776,29.064343 0 0 0 -1.47905,-2.51997 29.729776,29.064343 0 0 0 -1.72883,-2.36284 29.729776,29.064343 0 0 0 -1.9613,-2.1823 29.729776,29.064343 0 0 0 -2.17438,-1.98023 29.729776,29.064343 0 0 0 -2.36548,-1.75843 29.729776,29.064343 0 0 0 -2.53355,-1.51863 29.729776,29.064343 0 0 0 -2.676,-1.26357 29.729776,29.064343 0 0 0 -2.79169,-0.99596 29.729776,29.064343 0 0 0 -2.87898,-0.71934 29.729776,29.064343 0 0 0 -2.93874,-0.43377 29.729776,29.064343 0 0 0 -2.96807,-0.14547 z m -10.522928,6.12214 a 13.563514,13.259925 0 0 1 1.354066,0.0663 13.563514,13.259925 0 0 1 1.340315,0.19755 13.563514,13.259925 0 0 1 1.313621,0.32871 13.563514,13.259925 0 0 1 1.27414,0.45442 13.563514,13.259925 0 0 1 1.220855,0.57655 13.563514,13.259925 0 0 1 1.155622,0.69242 13.563514,13.259925 0 0 1 1.079432,0.80197 13.563514,13.259925 0 0 1 0.99208,0.90347 13.563514,13.259925 0 0 1 0.894767,0.99595 13.563514,13.259925 0 0 1 0.7882,1.07767 13.563514,13.259925 0 0 1 0.67517,1.15043 13.563514,13.259925 0 0 1 0.55392,1.2097 13.563514,13.259925 0 0 1 0.42715,1.25729 13.563514,13.259925 0 0 1 0.29675,1.29323 13.563514,13.259925 0 0 1 0.16354,1.31657 13.563514,13.259925 0 0 1 0.0339,0.93758 13.563514,13.259925 0 0 1 -0.0679,1.32375 13.563514,13.259925 0 0 1 -0.20209,1.31028 13.563514,13.259925 0 0 1 -0.33533,1.28424 13.563514,13.259925 0 0 1 -0.46572,1.24562 13.563514,13.259925 0 0 1 -0.58976,1.19355 13.563514,13.259925 0 0 1 -0.70827,1.12978 13.563514,13.259925 0 0 1 -0.82032,1.05522 13.563514,13.259925 0 0 1 -0.924167,0.96992 13.563514,13.259925 0 0 1 -1.01876,0.87471 13.563514,13.259925 0 0 1 -1.102322,0.77053 13.563514,13.259925 0 0 1 -1.17679,0.66008 13.563514,13.259925 0 0 1 -1.237379,0.54154 13.563514,13.259925 0 0 1 -1.286079,0.41763 13.563514,13.259925 0 0 1 -1.32284,0.29007 13.563514,13.259925 0 0 1 -1.34672,0.15988 13.563514,13.259925 0 0 1 -0.959071,0.0332 13.563514,13.259925 0 0 1 -1.354065,-0.0665 13.563514,13.259925 0 0 1 -1.340264,-0.19756 13.563514,13.259925 0 0 1 -1.31361,-0.32872 13.563514,13.259925 0 0 1 -1.274161,-0.45441 13.563514,13.259925 0 0 1 -1.220845,-0.57657 13.563514,13.259925 0 0 1 -1.155673,-0.69242 13.563514,13.259925 0 0 1 -1.079368,-0.80196 13.563514,13.259925 0 0 1 -0.992149,-0.90346 13.563514,13.259925 0 0 1 -0.894715,-0.99596 13.563514,13.259925 0 0 1 -0.78819,-1.07767 13.563514,13.259925 0 0 1 -0.675175,-1.15043 13.563514,13.259925 0 0 1 -0.553026,-1.20971 13.563514,13.259925 0 0 1 -0.428104,-1.25729 13.563514,13.259925 0 0 1 -0.296683,-1.29321 13.563514,13.259925 0 0 1 -0.163546,-1.31658 13.563514,13.259925 0 0 1 -0.03401,-0.93758 13.563514,13.259925 0 0 1 0.06812,-1.32376 13.563514,13.259925 0 0 1 0.202107,-1.31028 13.563514,13.259925 0 0 1 0.336206,-1.28424 13.563514,13.259925 0 0 1 0.464844,-1.24561 13.563514,13.259925 0 0 1 0.589755,-1.19353 13.563514,13.259925 0 0 1 0.708274,-1.12978 13.563514,13.259925 0 0 1 0.820315,-1.05522 13.563514,13.259925 0 0 1 0.924131,-0.96993 13.563514,13.259925 0 0 1 1.01879,-0.87473 13.563514,13.259925 0 0 1 1.103268,-0.77053 13.563514,13.259925 0 0 1 1.175849,-0.66008 13.563514,13.259925 0 0 1 1.237379,-0.54063 13.563514,13.259925 0 0 1 1.286079,-0.41849 13.563514,13.259925 0 0 1 1.32283,-0.29009 13.563514,13.259925 0 0 1 1.34674,-0.15988 13.563514,13.259925 0 0 1 0.959008,-0.0332 z"
       inkscape:connector-curvature="0" />
    <path
       inkscape:connector-curvature="0"
       style="opacity:1;vector-effect:none;fill:#800000;fill-opacity:1;stroke:#000000;stroke-width:0;stroke-linecap:round;stroke-linejoin:miter;stroke-miterlimit:4;stroke-dasharray:none;stroke-dashoffset:0;stroke-opacity:1;paint-order:markers fill stroke"
       d="m 114.48195,147.08221 a 29.72978,29.064347 0 0 1 -0.0142,0.008 13.563514,13.259925 0 0 1 0.008,0.003 88.177392,86.203743 0 0 1 0.007,-0.0121 z"
       id="path15616-8" />
    <path
       style="opacity:1;vector-effect:none;fill:#800000;fill-opacity:1;stroke:#000000;stroke-width:0;stroke-linecap:round;stroke-linejoin:miter;stroke-miterlimit:4;stroke-dasharray:none;stroke-dashoffset:0;stroke-opacity:1;paint-order:markers fill stroke"
       d="m 60.019771,240.76131 a 120.55068,117.85243 0 0 1 -1.140048,-0.40679 7.2290843,7.0672779 0 0 0 0.225104,0.10601 7.2290843,7.0672779 0 0 0 0.678835,0.24158 7.2290843,7.0672779 0 0 0 0.236109,0.0592 z"
       id="path15562-1"
       inkscape:connector-curvature="0" />
    <path
       style="opacity:1;vector-effect:none;fill:url(#linearGradient16845);fill-opacity:1;stroke:#000000;stroke-width:0;stroke-linecap:round;stroke-linejoin:miter;stroke-miterlimit:4;stroke-dasharray:none;stroke-dashoffset:0;stroke-opacity:1;paint-order:markers fill stroke"
       d="m 68.305185,236.72115 a 13.563514,13.259925 0 0 0 -0.959064,0.0332 13.563514,13.259925 0 0 0 -1.346718,0.15988 13.563514,13.259925 0 0 0 -1.322827,0.29008 13.563514,13.259925 0 0 0 -0.418887,0.13642 13.563514,13.259925 0 0 0 -0.86716,0.2811 13.563514,13.259925 0 0 0 -1.23741,0.54154 13.563514,13.259925 0 0 0 -1.176738,0.6592 13.563514,13.259925 0 0 0 -1.102379,0.77143 13.563514,13.259925 0 0 0 -1.018758,0.87472 13.563514,13.259925 0 0 0 -0.924168,0.96992 13.563514,13.259925 0 0 0 -0.820318,1.05524 13.563514,13.259925 0 0 0 -0.708291,1.12975 13.563514,13.259925 0 0 0 -0.589755,1.19354 13.563514,13.259925 0 0 0 -0.464786,1.24473 13.563514,13.259925 0 0 0 -0.336244,1.28423 13.563514,13.259925 0 0 0 -0.202102,1.31117 13.563514,13.259925 0 0 0 -0.0679,1.32375 13.563514,13.259925 0 0 0 0.03396,0.93759 13.563514,13.259925 0 0 0 0.163544,1.3157 13.563514,13.259925 0 0 0 0.296744,1.2932 13.563514,13.259925 0 0 0 0.427154,1.2582 13.563514,13.259925 0 0 0 0.553919,1.20968 13.563514,13.259925 0 0 0 0.09547,0.16354 140.9213,137.7671 0 0 0 3.607508,1.28696 140.9213,137.7671 0 0 0 0.386711,0.097 140.9213,137.7671 0 0 0 6.02898,1.50515 140.9213,137.7671 0 0 0 7.232348,1.80513 140.9213,137.7671 0 0 0 2.038454,0.30084 140.9213,137.7671 0 0 0 3.52019,0.51998 140.9213,137.7671 0 0 0 8.369644,1.23666 140.9213,137.7671 0 0 0 14.068814,0.68792 140.9213,137.7671 0 0 0 9.96807,-0.34487 140.9213,137.7671 0 0 0 12.55766,-1.49079 140.9213,137.7671 0 0 0 1.42575,-0.16875 140.9213,137.7671 0 0 0 1.8051,-0.39606 140.9213,137.7671 0 0 0 11.93942,-2.61967 140.9213,137.7671 0 0 0 4.73827,-1.53929 88.177392,86.203743 0 0 1 -4.62802,-3.43959 13.563514,13.259925 0 0 1 0.0293,0.005 13.563514,13.259925 0 0 1 1.31365,0.3278 13.563514,13.259925 0 0 1 1.27321,0.45441 13.563514,13.259925 0 0 1 1.22085,0.57656 13.563514,13.259925 0 0 1 1.15563,0.69332 13.563514,13.259925 0 0 1 1.07937,0.80197 13.563514,13.259925 0 0 1 0.091,0.0826 140.9213,137.7671 0 0 0 2.47941,-0.80557 13.563514,13.259925 0 0 0 0.43999,-1.17917 13.563514,13.259925 0 0 0 0.33531,-1.28423 13.563514,13.259925 0 0 0 0.20305,-1.31028 13.563514,13.259925 0 0 0 0.0679,-1.32376 13.563514,13.259925 0 0 0 -0.034,-0.93758 13.563514,13.259925 0 0 0 -0.16355,-1.31567 13.563514,13.259925 0 0 0 -0.29673,-1.29324 13.563514,13.259925 0 0 0 -0.42805,-1.25818 13.563514,13.259925 0 0 0 -0.55397,-1.20969 13.563514,13.259925 0 0 0 -0.67429,-1.14953 13.563514,13.259925 0 0 0 -0.78814,-1.07859 13.563514,13.259925 0 0 0 -0.89565,-0.99596 13.563514,13.259925 0 0 0 -0.99124,-0.90344 13.563514,13.259925 0 0 0 -1.0794,-0.80199 13.563514,13.259925 0 0 0 -1.15655,-0.69242 13.563514,13.259925 0 0 0 -1.21993,-0.57655 13.563514,13.259925 0 0 0 -1.26496,-0.45084 13.563514,13.259925 0 0 0 -0.008,-0.003 13.563514,13.259925 0 0 0 -1.31365,-0.32779 13.563514,13.259925 0 0 0 -1.34029,-0.19849 13.563514,13.259925 0 0 0 -1.35406,-0.0663 13.563514,13.259925 0 0 0 -0.95995,0.0332 13.563514,13.259925 0 0 0 -1.3458,0.15989 13.563514,13.259925 0 0 0 -1.32282,0.29006 13.563514,13.259925 0 0 0 -1.28609,0.4185 13.563514,13.259925 0 0 0 -1.23831,0.54154 13.563514,13.259925 0 0 0 -1.17585,0.65919 13.563514,13.259925 0 0 0 -1.10238,0.77054 13.563514,13.259925 0 0 0 -0.83961,0.72115 88.177392,86.203743 0 0 0 0.28291,0.31522 120.55068,117.85243 0 0 1 -0.77896,0.17066 120.55068,117.85243 0 0 1 -2.33147,0.5119 120.55068,117.85243 0 0 1 -11.96241,1.41985 120.55068,117.85243 0 0 1 -8.52671,0.29457 120.55068,117.85243 0 0 1 -12.03498,-0.58824 120.55068,117.85243 0 0 1 -7.916803,-1.16929 88.177392,86.203743 0 0 1 -2.201933,2.83162 13.563514,13.259925 0 0 0 -0.361927,-0.7921 13.563514,13.259925 0 0 0 -0.675228,-1.14955 13.563514,13.259925 0 0 0 -0.788189,-1.07769 13.563514,13.259925 0 0 0 -0.474911,-0.52901 13.563514,13.259925 0 0 0 -0.419826,-0.467 13.563514,13.259925 0 0 0 -0.992127,-0.90345 13.563514,13.259925 0 0 0 -1.079379,-0.80197 13.563514,13.259925 0 0 0 -1.155621,-0.69331 13.563514,13.259925 0 0 0 -1.220854,-0.57655 13.563514,13.259925 0 0 0 -1.274154,-0.45444 13.563514,13.259925 0 0 0 -1.313653,-0.3278 13.563514,13.259925 0 0 0 -1.340283,-0.19756 13.563514,13.259925 0 0 0 -1.35406,-0.0663 z"
       id="path15560-9"
       inkscape:connector-curvature="0" />
    <path
       style="opacity:1;vector-effect:none;fill:#800000;fill-opacity:1;stroke:#000000;stroke-width:0;stroke-linecap:round;stroke-linejoin:miter;stroke-miterlimit:4;stroke-dasharray:none;stroke-dashoffset:0;stroke-opacity:1;paint-order:markers fill stroke"
       d="m 123.68663,238.52806 a 88.177392,86.203743 0 0 1 -0.28292,-0.31522 13.563514,13.259925 0 0 0 -0.17915,0.15362 13.563514,13.259925 0 0 0 -0.31692,0.33232 120.55068,117.85243 0 0 0 0.77899,-0.17067 z"
       id="path15540-9"
       inkscape:connector-curvature="0" />
    <path
       inkscape:connector-curvature="0"
       style="opacity:1;vector-effect:none;fill:#800000;fill-opacity:1;stroke:#000000;stroke-width:0;stroke-linecap:round;stroke-linejoin:miter;stroke-miterlimit:4;stroke-dasharray:none;stroke-dashoffset:0;stroke-opacity:1;paint-order:markers fill stroke"
       d="m 81.55458,164.11588 a 192.50501,188.19622 0 0 1 -0.910339,-0.0933 4.3552048,4.2577235 0 0 0 0.03202,0.008 4.3552048,4.2577235 0 0 0 0.430814,0.0638 4.3552048,4.2577235 0 0 0 0.434549,0.0216 4.3552048,4.2577235 0 0 0 0.01245,0 z"
       id="path15392-7" />
    <path
       style="opacity:1;vector-effect:none;fill:url(#linearGradient16815);fill-opacity:1;stroke:#000000;stroke-width:0;stroke-linecap:round;stroke-linejoin:miter;stroke-miterlimit:4;stroke-dasharray:none;stroke-dashoffset:0;stroke-opacity:1;paint-order:markers fill stroke"
       d="m 97.559152,163.96241 a 192.50497,196.15126 0 0 0 -1.271388,0.0457 192.50497,196.15126 0 0 0 -3.115986,0.11226 192.50497,196.15126 0 0 0 -7.30771,0.26388 192.50497,196.15126 0 0 0 -0.777139,0.0282 13.563514,13.820424 0 0 0 -0.320635,0.89486 13.563514,13.820424 0 0 0 -0.09648,0.38565 4.3552044,4.4376975 0 0 0 -0.342642,-0.21442 4.3552044,4.4376975 0 0 0 -0.392263,-0.19283 4.3552044,4.4376975 0 0 0 -0.408766,-0.15259 4.3552044,4.4376975 0 0 0 -0.421668,-0.10965 4.3552044,4.4376975 0 0 0 -0.429945,-0.0663 4.3552044,4.4376975 0 0 0 -0.435377,-0.0229 4.3552044,4.4376975 0 0 0 -0.307754,0.008 4.3552044,4.4376975 0 0 0 -0.432718,0.0536 4.3552044,4.4376975 0 0 0 -0.424378,0.0971 4.3552044,4.4376975 0 0 0 -0.41337,0.13938 4.3552044,4.4376975 0 0 0 -0.396889,0.18136 4.3552044,4.4376975 0 0 0 -0.37754,0.21993 4.3552044,4.4376975 0 0 0 -0.354582,0.25821 4.3552044,4.4376975 0 0 0 -0.327019,0.29302 4.3552044,4.4376975 0 0 0 -0.296745,0.32389 4.3552044,4.4376975 0 0 0 -0.263626,0.35381 4.3552044,4.4376975 0 0 0 -0.226887,0.37811 4.3552044,4.4376975 0 0 0 -0.190156,0.39873 4.3552044,4.4376975 0 0 0 -0.148792,0.41751 4.3552044,4.4376975 0 0 0 -0.107541,0.42964 4.3552044,4.4376975 0 0 0 -0.0653,0.43806 4.3552044,4.4376975 0 0 0 -0.02208,0.44367 4.3552044,4.4376975 0 0 0 0.01067,0.31361 4.3552044,4.4376975 0 0 0 0.05243,0.44085 4.3552044,4.4376975 0 0 0 0.09543,0.43244 4.3552044,4.4376975 0 0 0 0.136883,0.42123 4.3552044,4.4376975 0 0 0 0.178207,0.40435 4.3552044,4.4376975 0 0 0 0.21684,0.38469 4.3552044,4.4376975 0 0 0 0.252618,0.36134 4.3552044,4.4376975 0 0 0 0.287516,0.33318 4.3552044,4.4376975 0 0 0 0.318742,0.30243 4.3552044,4.4376975 0 0 0 0.346325,0.26856 4.3552044,4.4376975 0 0 0 0.371136,0.23129 4.3552044,4.4376975 0 0 0 0.392253,0.1926 4.3552044,4.4376975 0 0 0 0.408776,0.15259 4.3552044,4.4376975 0 0 0 0.389543,0.1013 192.50497,196.15126 0 0 0 0.910339,0.0971 192.50499,196.15128 0 0 0 2.732952,0.29016 192.50497,196.15126 0 0 0 1.927246,0.20504 192.50497,196.15126 0 0 0 9.535416,1.0137 192.50497,196.15126 0 0 0 0.696292,0.002 192.50501,196.15131 0 0 0 0.250787,9e-4 192.50497,196.15126 0 0 0 11.371733,0.0457 192.50497,196.15126 0 0 0 1.16574,0.007 192.50497,196.15126 0 0 0 5.75798,0.0229 192.50497,196.15126 0 0 0 3.47243,-0.3407 192.50497,196.15126 0 0 0 1.95482,-0.19194 192.50499,196.15128 0 0 0 1.52403,-0.14963 4.3552046,4.4376975 0 0 0 0.23239,0.11436 4.3552046,4.4376975 0 0 0 0.40878,0.15276 4.3552046,4.4376975 0 0 0 0.42166,0.10966 4.3552046,4.4376975 0 0 0 0.43083,0.0663 4.3552046,4.4376975 0 0 0 0.43455,0.0229 4.3552046,4.4376975 0 0 0 0.30863,-0.008 4.3552046,4.4376975 0 0 0 0.43176,-0.0534 4.3552046,4.4376975 0 0 0 0.4244,-0.0975 4.3552046,4.4376975 0 0 0 0.41338,-0.14025 4.3552046,4.4376975 0 0 0 0.39777,-0.18044 4.3552046,4.4376975 0 0 0 0.37757,-0.22085 4.3552046,4.4376975 0 0 0 0.28752,-0.20959 4.3552044,4.4376975 0 0 0 0.0661,-0.0487 4.3552044,4.4376975 0 0 0 0.32702,-0.29208 4.3552044,4.4376975 0 0 0 0.29674,-0.32479 4.3552044,4.4376975 0 0 0 0.26361,-0.35289 4.3552044,4.4376975 0 0 0 0.22784,-0.37815 4.3552044,4.4376975 0 0 0 0.18926,-0.3997 4.3552044,4.4376975 0 0 0 0.1488,-0.4165 4.3552044,4.4376975 0 0 0 0.10844,-0.43058 4.3552044,4.4376975 0 0 0 0.0643,-0.43804 4.3552044,4.4376975 0 0 0 0.0221,-0.44274 4.3552044,4.4376975 0 0 0 -0.0107,-0.31453 4.3552044,4.4376975 0 0 0 -0.0522,-0.43996 4.3552044,4.4376975 0 0 0 -0.0956,-0.43339 4.3552044,4.4376975 0 0 0 -0.13688,-0.42021 4.3552044,4.4376975 0 0 0 -0.17821,-0.40534 4.3552044,4.4376975 0 0 0 -0.21588,-0.38471 4.3552044,4.4376975 0 0 0 -0.25352,-0.36035 4.3552044,4.4376975 0 0 0 -0.28757,-0.33328 4.3552044,4.4376975 0 0 0 -0.31875,-0.30333 4.3552044,4.4376975 0 0 0 -0.3463,-0.26764 4.3552044,4.4376975 0 0 0 -0.37114,-0.23221 4.3552044,4.4376975 0 0 0 -0.39226,-0.19261 4.3552044,4.4376975 0 0 0 -0.40878,-0.15259 4.3552044,4.4376975 0 0 0 -0.42165,-0.10983 4.3552044,4.4376975 0 0 0 -0.43084,-0.0663 4.3552044,4.4376975 0 0 0 -0.43449,-0.0229 4.3552044,4.4376975 0 0 0 -0.30775,0.008 4.3552044,4.4376975 0 0 0 -0.43272,0.0542 4.3552044,4.4376975 0 0 0 -0.42438,0.0965 4.3552044,4.4376975 0 0 0 -0.41338,0.14042 4.3552044,4.4376975 0 0 0 -0.39688,0.18044 4.3552044,4.4376975 0 0 0 -0.016,0.008 13.563514,13.820424 0 0 0 -0.0862,-0.72168 13.563514,13.820424 0 0 0 -0.058,-0.26105 192.50497,196.15126 0 0 0 -2.05684,-0.31728 192.50497,196.15126 0 0 0 -3.60011,-0.55414 192.50497,196.15126 0 0 0 -5.03412,-0.25633 192.50497,196.15126 0 0 0 -1.30167,-0.0663 192.50497,196.15126 0 0 0 -12.882885,-0.65708 z"
       id="path15394-8"
       inkscape:connector-curvature="0" />
    <path
       style="opacity:1;vector-effect:none;fill:url(#radialGradient16869);fill-opacity:1;stroke:#000000;stroke-width:0;stroke-linecap:round;stroke-linejoin:miter;stroke-miterlimit:4;stroke-dasharray:none;stroke-dashoffset:0;stroke-opacity:1;paint-order:markers fill stroke"
       d="m 65.380405,227.72835 a 7.2290843,7.0672779 0 0 0 -0.511682,0.0179 7.2290843,7.0672779 0 0 0 -0.717462,0.0853 7.2290843,7.0672779 0 0 0 -0.704557,0.15449 7.2290843,7.0672779 0 0 0 -0.686229,0.22271 7.2290843,7.0672779 0 0 0 -0.659601,0.28829 7.2290843,7.0672779 0 0 0 -0.626482,0.35207 7.2290843,7.0672779 0 0 0 -0.587925,0.41039 7.2290843,7.0672779 0 0 0 -0.542914,0.46612 7.2290843,7.0672779 0 0 0 -0.492393,0.51727 7.2290843,7.0672779 0 0 0 -0.437286,0.56218 7.2290843,7.0672779 0 0 0 -0.377539,0.60262 7.2290843,7.0672779 0 0 0 -0.314184,0.63585 7.2290843,7.0672779 0 0 0 -0.248019,0.66366 7.2290843,7.0672779 0 0 0 -0.179152,0.68434 7.2290843,7.0672779 0 0 0 -0.107371,0.69869 7.2290843,7.0672779 0 0 0 -0.03591,0.70494 7.2290843,7.0672779 0 0 0 0.01778,0.50024 7.2290843,7.0672779 0 0 0 0.08728,0.70139 7.2290843,7.0672779 0 0 0 0.158034,0.68972 7.2290843,7.0672779 0 0 0 0.227842,0.66998 7.2290843,7.0672779 0 0 0 0.295803,0.6448 7.2290843,7.0672779 0 0 0 0.359193,0.61246 7.2290843,7.0672779 0 0 0 0.420736,0.5748 7.2290843,7.0672779 0 0 0 0.47675,0.53073 7.2290843,7.0672779 0 0 0 0.152524,0.13921 7.2290843,7.0672779 0 0 0 0.375726,0.34216 7.2290843,7.0672779 0 0 0 0.576031,0.42748 7.2290843,7.0672779 0 0 0 0.615426,0.37 7.2290843,7.0672779 0 0 0 0.42534,0.20118 120.55068,117.85243 0 0 0 1.140029,0.40681 7.2290843,7.0672779 0 0 0 0.464859,0.11592 7.2290843,7.0672779 0 0 0 0.713711,0.106 7.2290843,7.0672779 0 0 0 0.722084,0.0351 7.2290843,7.0672779 0 0 0 0.511682,-0.0179 7.2290843,7.0672779 0 0 0 0.717462,-0.0853 7.2290843,7.0672779 0 0 0 0.704557,-0.1545 7.2290843,7.0672779 0 0 0 0.68623,-0.22271 7.2290843,7.0672779 0 0 0 0.659546,-0.28826 7.2290843,7.0672779 0 0 0 0.626536,-0.35207 7.2290843,7.0672779 0 0 0 0.587907,-0.41039 7.2290843,7.0672779 0 0 0 0.542914,-0.4661 7.2290843,7.0672779 0 0 0 0.492358,-0.51729 7.2290843,7.0672779 0 0 0 0.437269,-0.56221 7.2290843,7.0672779 0 0 0 0.377592,-0.6026 7.2290843,7.0672779 0 0 0 0.314147,-0.63582 7.2290843,7.0672779 0 0 0 0.248055,-0.66368 7.2290843,7.0672779 0 0 0 0.179099,-0.68432 7.2290843,7.0672779 0 0 0 0.107548,-0.69869 7.2290843,7.0672779 0 0 0 0.03574,-0.70589 7.2290843,7.0672779 0 0 0 -0.01778,-0.49934 7.2290843,7.0672779 0 0 0 -0.08728,-0.70139 7.2290843,7.0672779 0 0 0 -0.158034,-0.68971 7.2290843,7.0672779 0 0 0 -0.227789,-0.66994 7.2290843,7.0672779 0 0 0 -0.295784,-0.64484 7.2290843,7.0672779 0 0 0 -0.359194,-0.61247 7.2290843,7.0672779 0 0 0 -0.420772,-0.57478 7.2290843,7.0672779 0 0 0 -0.476732,-0.53075 7.2290843,7.0672779 0 0 0 -0.528249,-0.48138 7.2290843,7.0672779 0 0 0 -0.05688,-0.0422 7.2290843,7.0672779 0 0 0 -0.519005,-0.38529 7.2290843,7.0672779 0 0 0 -0.615496,-0.36999 7.2290843,7.0672779 0 0 0 -0.651263,-0.30715 7.2290843,7.0672779 0 0 0 -0.677945,-0.24247 7.2290843,7.0672779 0 0 0 -0.700949,-0.1742 7.2290843,7.0672779 0 0 0 -0.713782,-0.10602 7.2290843,7.0672779 0 0 0 -0.722014,-0.035 z"
       id="path15745-2"
       inkscape:connector-curvature="0" />
    <path
       style="opacity:1;vector-effect:none;fill:url(#radialGradient16861);fill-opacity:1;stroke:#000000;stroke-width:0;stroke-linecap:round;stroke-linejoin:miter;stroke-miterlimit:4;stroke-dasharray:none;stroke-dashoffset:0;stroke-opacity:1;paint-order:markers fill stroke"
       d="m 138.28147,228.12834 a 7.2290843,7.0672779 0 0 0 -0.51167,0.0179 7.2290843,7.0672779 0 0 0 -0.71747,0.0853 7.2290843,7.0672779 0 0 0 -0.7046,0.1545 7.2290843,7.0672779 0 0 0 -0.68624,0.22274 7.2290843,7.0672779 0 0 0 -0.65954,0.28827 7.2290843,7.0672779 0 0 0 -0.6265,0.35206 7.2290843,7.0672779 0 0 0 -0.58793,0.41042 7.2290843,7.0672779 0 0 0 -0.54291,0.46608 7.2290843,7.0672779 0 0 0 -0.0395,0.0413 7.2290843,7.0672779 0 0 0 -0.45289,0.47595 7.2290843,7.0672779 0 0 0 -0.43727,0.5622 7.2290843,7.0672779 0 0 0 -0.37754,0.60261 7.2290843,7.0672779 0 0 0 -0.31512,0.63585 7.2290843,7.0672779 0 0 0 -0.24707,0.66363 7.2290843,7.0672779 0 0 0 -0.17916,0.68437 7.2290843,7.0672779 0 0 0 -0.10843,0.69868 7.2290843,7.0672779 0 0 0 -0.0358,0.70499 7.2290843,7.0672779 0 0 0 0.0183,0.50023 7.2290843,7.0672779 0 0 0 0.0873,0.70138 7.2290843,7.0672779 0 0 0 0.15804,0.68882 7.2290843,7.0672779 0 0 0 0.22782,0.67086 7.2290843,7.0672779 0 0 0 0.29487,0.6448 7.2290843,7.0672779 0 0 0 0.36011,0.61248 7.2290843,7.0672779 0 0 0 0.41978,0.57478 7.2290843,7.0672779 0 0 0 0.4768,0.53076 7.2290843,7.0672779 0 0 0 0.52912,0.48136 7.2290843,7.0672779 0 0 0 0.57509,0.42746 7.2290843,7.0672779 0 0 0 0.61637,0.37003 7.2290843,7.0672779 0 0 0 0.6504,0.30715 7.2290843,7.0672779 0 0 0 0.6789,0.24158 7.2290843,7.0672779 0 0 0 0.69998,0.17509 7.2290843,7.0672779 0 0 0 0.71469,0.10602 7.2290843,7.0672779 0 0 0 0.72205,0.035 7.2290843,7.0672779 0 0 0 0.51076,-0.0179 7.2290843,7.0672779 0 0 0 0.71745,-0.0853 7.2290843,7.0672779 0 0 0 0.70551,-0.15449 7.2290843,7.0672779 0 0 0 0.68528,-0.2227 7.2290843,7.0672779 0 0 0 0.65961,-0.28828 7.2290843,7.0672779 0 0 0 0.62648,-0.35206 7.2290843,7.0672779 0 0 0 0.23789,-0.16614 7.2290843,7.0672779 0 0 0 0.35001,-0.24428 7.2290843,7.0672779 0 0 0 0.54293,-0.46609 7.2290843,7.0672779 0 0 0 0.4924,-0.51726 7.2290843,7.0672779 0 0 0 0.43722,-0.5622 7.2290843,7.0672779 0 0 0 0.37848,-0.60261 7.2290843,7.0672779 0 0 0 0.3142,-0.63585 7.2290843,7.0672779 0 0 0 0.24711,-0.66364 7.2290843,7.0672779 0 0 0 0.17915,-0.68435 7.2290843,7.0672779 0 0 0 0.10844,-0.6987 7.2290843,7.0672779 0 0 0 0.0359,-0.70589 7.2290843,7.0672779 0 0 0 -0.0185,-0.4993 7.2290843,7.0672779 0 0 0 -0.0873,-0.70139 7.2290843,7.0672779 0 0 0 -0.15804,-0.68974 7.2290843,7.0672779 0 0 0 -0.22779,-0.66995 7.2290843,7.0672779 0 0 0 -0.29489,-0.64481 7.2290843,7.0672779 0 0 0 -0.36011,-0.61247 7.2290843,7.0672779 0 0 0 -0.4198,-0.57477 7.2290843,7.0672779 0 0 0 -0.47679,-0.53076 7.2290843,7.0672779 0 0 0 -0.52913,-0.48137 7.2290843,7.0672779 0 0 0 -0.57505,-0.4275 7.2290843,7.0672779 0 0 0 -0.61641,-0.36998 7.2290843,7.0672779 0 0 0 -0.6504,-0.30714 7.2290843,7.0672779 0 0 0 -0.67883,-0.24247 7.2290843,7.0672779 0 0 0 -0.7,-0.17422 7.2290843,7.0672779 0 0 0 -0.71468,-0.10601 7.2290843,7.0672779 0 0 0 -0.72113,-0.0351 z"
       id="path15568-5"
       inkscape:connector-curvature="0" />
  </g>
</svg>
