<?xml version="1.0" encoding="UTF-8" standalone="no"?>
<!-- Created with Inkscape (http://www.inkscape.org/) -->

<svg
   xmlns:dc="http://purl.org/dc/elements/1.1/"
   xmlns:cc="http://creativecommons.org/ns#"
   xmlns:rdf="http://www.w3.org/1999/02/22-rdf-syntax-ns#"
   xmlns:svg="http://www.w3.org/2000/svg"
   xmlns="http://www.w3.org/2000/svg"
   xmlns:xlink="http://www.w3.org/1999/xlink"
   xmlns:sodipodi="http://sodipodi.sourceforge.net/DTD/sodipodi-0.dtd"
   xmlns:inkscape="http://www.inkscape.org/namespaces/inkscape"
   width="210mm"
   height="297mm"
   viewBox="0 0 210 297"
   version="1.1"
   id="svg8230"
   inkscape:version="0.92.3 (2405546, 2018-03-11)"
   sodipodi:docname="wQ.svg">
  <defs
     id="defs8224">
    <linearGradient
       gradientTransform="matrix(0.26458333,0,0,0.26458333,-8.6823276,-33.122621)"
       inkscape:collect="always"
       xlink:href="#linearGradient5881"
       id="linearGradient5753-4"
       x1="496.05188"
       y1="361.0025"
       x2="349.51279"
       y2="431.57535"
       gradientUnits="userSpaceOnUse" />
    <linearGradient
       inkscape:collect="always"
       id="linearGradient5881">
      <stop
         style="stop-color:#f2f2f2;stop-opacity:1"
         offset="0"
         id="stop5877" />
      <stop
         style="stop-color:#999999;stop-opacity:1"
         offset="1"
         id="stop5879" />
    </linearGradient>
    <radialGradient
       inkscape:collect="always"
       xlink:href="#linearGradient21028"
       id="radialGradient3402-2"
       cx="335.33203"
       cy="789.77258"
       fx="335.33203"
       fy="789.77258"
       r="88.139137"
       gradientTransform="matrix(0.3668563,0.0097295,-0.01665483,0.62797986,-7.1477276,-290.63357)"
       gradientUnits="userSpaceOnUse" />
    <linearGradient
       id="linearGradient21028"
       inkscape:collect="always">
      <stop
         id="stop21024"
         offset="0"
         style="stop-color:#b3b3b3;stop-opacity:1" />
      <stop
         id="stop21026"
         offset="1"
         style="stop-color:#f2f2f2;stop-opacity:1" />
    </linearGradient>
    <linearGradient
       inkscape:collect="always"
       xlink:href="#linearGradient5881"
       id="linearGradient3394-3"
       x1="371.64667"
       y1="472.71274"
       x2="272.5191"
       y2="720.16626"
       gradientUnits="userSpaceOnUse"
       gradientTransform="matrix(0.36698528,0,0,0.36698528,-20.344528,-99.305319)" />
    <linearGradient
       gradientTransform="matrix(0.36698528,0,0,0.36698528,-20.344528,-99.305319)"
       inkscape:collect="always"
       xlink:href="#linearGradient5863"
       id="linearGradient3418-0"
       x1="330.31989"
       y1="980.0882"
       x2="335.37064"
       y2="895.23535"
       gradientUnits="userSpaceOnUse" />
    <linearGradient
       id="linearGradient5863"
       inkscape:collect="always">
      <stop
         id="stop5859"
         offset="0"
         style="stop-color:#f2f2f2;stop-opacity:1" />
      <stop
         id="stop5861"
         offset="1"
         style="stop-color:#000000;stop-opacity:0;" />
    </linearGradient>
    <linearGradient
       inkscape:collect="always"
       xlink:href="#linearGradient5863"
       id="linearGradient5767-0"
       x1="120.27129"
       y1="82.382568"
       x2="111.52992"
       y2="87.740005"
       gradientUnits="userSpaceOnUse"
       gradientTransform="translate(-8.6823276,-31.535121)" />
    <linearGradient
       inkscape:collect="always"
       xlink:href="#linearGradient5857"
       id="linearGradient5751-1"
       x1="121.5815"
       y1="87.867645"
       x2="92.475258"
       y2="97.349663"
       gradientUnits="userSpaceOnUse"
       gradientTransform="translate(-8.6823276,-32.593531)" />
    <linearGradient
       id="linearGradient5857"
       inkscape:collect="always">
      <stop
         id="stop5853"
         offset="0"
         style="stop-color:#f2f2f2;stop-opacity:1" />
      <stop
         id="stop5855"
         offset="1"
         style="stop-color:#808080;stop-opacity:1" />
    </linearGradient>
  </defs>
  <sodipodi:namedview
     id="base"
     pagecolor="#ffffff"
     bordercolor="#666666"
     borderopacity="1.0"
     inkscape:pageopacity="0.0"
     inkscape:pageshadow="2"
     inkscape:zoom="0.35"
     inkscape:cx="-574.28572"
     inkscape:cy="560"
     inkscape:document-units="mm"
     inkscape:current-layer="layer1"
     showgrid="false"
     inkscape:window-width="1920"
     inkscape:window-height="1017"
     inkscape:window-x="0"
     inkscape:window-y="0"
     inkscape:window-maximized="1" />
  <metadata
     id="metadata8227">
    <rdf:RDF>
      <cc:Work
         rdf:about="">
        <dc:format>image/svg+xml</dc:format>
        <dc:type
           rdf:resource="http://purl.org/dc/dcmitype/StillImage" />
        <dc:title />
      </cc:Work>
    </rdf:RDF>
  </metadata>
  <g
     inkscape:label="Layer 1"
     inkscape:groupmode="layer"
     id="layer1">
    <path
       style="display:inline;opacity:1;fill:url(#linearGradient5751-1);fill-opacity:1;stroke:#fa0000;stroke-width:0;stroke-linecap:round;stroke-linejoin:miter;stroke-miterlimit:4;stroke-dasharray:none;stroke-opacity:1;paint-order:markers fill stroke"
       d="m 92.735572,62.565381 a 37.985917,36.905403 0 0 0 0.130199,0.06121 37.985917,36.905403 0 0 0 3.5667,1.264673 37.985917,36.905403 0 0 0 3.678899,0.912776 37.985917,36.905403 0 0 0 3.7548,0.55126 37.985917,36.905403 0 0 0 3.792,0.184304 37.985917,36.905403 0 0 0 2.6872,-0.0923 37.985917,36.905403 0 0 0 3.7693,-0.444389 37.985917,36.905403 0 0 0 3.7046,-0.807751 37.985917,36.905403 0 0 0 3.6034,-1.16334 37.985917,36.905403 0 0 0 1.1421,-0.496561 17.399542,16.90461 0 0 0 -0.2651,-0.448859 17.399542,16.90461 0 0 0 -1.0118,-1.374653 17.399542,16.90461 0 0 0 -1.1478,-1.269725 17.399542,16.90461 0 0 0 -1.2728,-1.151681 17.399542,16.90461 0 0 0 -1.3844,-1.022756 17.399542,16.90461 0 0 0 -1.4831,-0.883046 17.399542,16.90461 0 0 0 -1.5658,-0.735079 17.399542,16.90461 0 0 0 -1.5348,-0.544265 27.807198,27.016219 0 0 0 -2.5776,-0.378517 27.807198,27.016219 0 0 0 -2.7761,-0.135046 27.807198,27.016219 0 0 0 -1.9673,0.06801 27.807198,27.016219 0 0 0 -2.7306,0.321779 17.399542,16.90461 0 0 0 -1.4944,0.483057 17.399542,16.90461 0 0 0 -1.5875,0.689804 17.399542,16.90461 0 0 0 -1.508498,0.840978 17.399542,16.90461 0 0 0 -1.414902,0.98302 17.399542,16.90461 0 0 0 -1.306398,1.115053 17.399542,16.90461 0 0 0 -1.1854,1.236595 17.399542,16.90461 0 0 0 -1.0527,1.345021 17.399542,16.90461 0 0 0 -0.5622,0.890721 z"
       id="path5573-5"
       inkscape:connector-curvature="0" />
    <ellipse
       style="display:inline;opacity:1;fill:url(#linearGradient5767-0);fill-opacity:1;stroke:#000000;stroke-width:0;stroke-linecap:round;stroke-linejoin:miter;stroke-miterlimit:4;stroke-dasharray:none;stroke-opacity:1;paint-order:markers fill stroke"
       id="path836-2-6-5-0"
       cx="108.13603"
       cy="52.546455"
       rx="3.3068922"
       ry="3.2128272" />
    <path
       inkscape:connector-curvature="0"
       style="display:inline;opacity:1;fill:url(#linearGradient3418-0);fill-opacity:1;stroke:#fa0000;stroke-width:0;stroke-linecap:round;stroke-linejoin:miter;stroke-miterlimit:4;stroke-dasharray:none;stroke-opacity:1;paint-order:markers fill stroke"
       d="m 149.38477,231.54219 a 109.95491,106.82723 0 0 1 -1.2615,0.54873 109.95491,106.82723 0 0 1 -5.9334,2.58007 109.95491,106.82723 0 0 1 -9.065,2.92632 109.95491,106.82723 0 0 1 -1.3654,0.44079 109.95491,106.82723 0 0 1 -10.7236,2.33844 109.95491,106.82723 0 0 1 -10.9114,1.28682 109.95491,106.82723 0 0 1 -7.7776,0.26747 109.95491,106.82723 0 0 1 -10.977397,-0.53348 109.95491,106.82723 0 0 1 -10.867602,-1.59539 109.95491,106.82723 0 0 1 -5.8883,-1.46093 109.95491,106.82723 0 0 1 -4.7607,-1.18112 109.95491,106.82723 0 0 1 -10.3244,-3.66149 109.95491,106.82723 0 0 1 -3.1179,-1.46307 10.535916,10.236221 0 0 0 -0.367,0.38231 10.535916,10.236221 0 0 0 -0.6372,0.81406 10.535916,10.236221 0 0 0 -0.5505,0.87256 10.535916,10.236221 0 0 0 -0.4587,0.92113 10.535916,10.236221 0 0 0 -0.3605,0.96116 10.535916,10.236221 0 0 0 -0.2609,0.99166 10.535916,10.236221 0 0 0 -0.157,1.01178 10.535916,10.236221 0 0 0 -0.053,1.02159 10.535916,10.236221 0 0 0 0.026,0.7242 10.535916,10.236221 0 0 0 0.1269,1.01537 10.535916,10.236221 0 0 0 0.2308,0.99856 10.535916,10.236221 0 0 0 0.3319,0.97078 10.535916,10.236221 0 0 0 0.43,0.93454 10.535916,10.236221 0 0 0 0.524,0.88713 10.535916,10.236221 0 0 0 0.6128,0.83223 10.535916,10.236221 0 0 0 0.6953,0.76879 10.535916,10.236221 0 0 0 0.7705,0.69777 10.535916,10.236221 0 0 0 0.8386,0.61908 10.535916,10.236221 0 0 0 0.8974,0.53484 10.535916,10.236221 0 0 0 0.562,0.26387 10.535916,10.236221 0 0 0 0.3863,0.1811 10.535916,10.236221 0 0 0 0.9891,0.35093 10.535916,10.236221 0 0 0 0.415,0.1024 128.51988,124.86412 0 0 0 4.0125,1.42284 128.51988,124.86412 0 0 0 12.4467,3.0877 128.51988,124.86412 0 0 0 12.7026,1.8649 128.51988,124.86412 0 0 0 12.830899,0.62393 128.51988,124.86412 0 0 0 9.0908,-0.31265 128.51988,124.86412 0 0 0 12.7534,-1.50416 128.51988,124.86412 0 0 0 12.5341,-2.73327 128.51988,124.86412 0 0 0 1.8815,-0.60722 128.51988,124.86412 0 0 0 10.31,-3.32884 128.51988,124.86412 0 0 0 1.9231,-0.83632 10.535916,10.236221 0 0 0 0.3871,-0.61421 10.535916,10.236221 0 0 0 0.4587,-0.92133 10.535916,10.236221 0 0 0 0.3605,-0.96096 10.535916,10.236221 0 0 0 0.2609,-0.99167 10.535916,10.236221 0 0 0 0.157,-1.01178 10.535916,10.236221 0 0 0 0.016,-0.32382 10.535916,10.236221 0 0 0 0.037,-0.69777 10.535916,10.236221 0 0 0 -0.026,-0.72429 10.535916,10.236221 0 0 0 -0.1269,-1.01528 10.535916,10.236221 0 0 0 -0.2308,-0.99856 10.535916,10.236221 0 0 0 -0.3319,-0.97078 10.535916,10.236221 0 0 0 -0.43,-0.93454 10.535916,10.236221 0 0 0 -0.524,-0.88722 10.535916,10.236221 0 0 0 -0.6128,-0.83214 10.535916,10.236221 0 0 0 -0.6953,-0.76879 10.535916,10.236221 0 0 0 -0.077,-0.0699 52.687643,51.188937 0 0 0 -0.8372,-1.81681 52.687643,51.188937 0 0 0 -0.2881,-0.4882 z"
       id="path3241-6" />
    <path
       style="display:inline;opacity:1;fill:url(#linearGradient3394-3);fill-opacity:1;stroke:#fa0000;stroke-width:0;stroke-linecap:round;stroke-linejoin:miter;stroke-miterlimit:4;stroke-dasharray:none;stroke-opacity:1;paint-order:markers fill stroke"
       d="m 107.58927,74.167398 a 26.861109,26.097042 0 0 0 -1.9001,0.06606 26.861109,26.097042 0 0 0 -2.665,0.314104 26.861109,26.097042 0 0 0 -0.4644,0.101042 26.861109,26.097042 0 0 0 -2.1554,0.470038 26.861109,26.097042 0 0 0 -2.5481,0.823101 26.861109,26.097042 0 0 0 -0.869399,0.37812 26.861109,26.097042 0 0 0 -1.581899,0.687385 26.861109,26.097042 0 0 0 -2.328802,1.297997 26.861109,26.097042 0 0 0 -2.183998,1.517471 26.861109,26.097042 0 0 0 -2.017,1.721401 26.861109,26.097042 0 0 0 -1.8306,1.908717 26.861109,26.097042 0 0 0 -1.625002,2.076602 26.861109,26.097042 0 0 0 -1.4034,2.223685 26.861109,26.097042 0 0 0 -1.167598,2.34884 26.861109,26.097042 0 0 0 -0.9203,2.450553 26.861109,26.097042 0 0 0 -0.4215,1.603066 26.861109,26.097042 0 0 0 -0.2344,0.892082 26.861109,26.097042 0 0 1 0.528299,0.247843 26.861109,26.097042 0 0 1 0.728901,0.341987 26.861109,26.097042 0 0 1 2.288698,1.363481 26.861109,26.097042 0 0 1 2.137402,1.57868 26.861109,26.097042 0 0 1 1.9646,1.777847 26.861109,26.097042 0 0 1 0.566299,0.62607 26.861109,26.097042 0 0 1 0.4401,0.48675 26.861109,26.097042 0 0 1 0.766201,0.84748 26.861109,26.097042 0 0 1 1.561799,2.12188 26.861109,26.097042 0 0 1 1.335399,2.26245 26.861109,26.097042 0 0 1 1.097402,2.38111 26.861109,26.097042 0 0 1 0.752599,2.20125 26.861109,26.097042 0 0 0 1.689399,0.79307 26.861109,26.097042 0 0 0 2.521601,0.89422 26.861109,26.097042 0 0 0 2.601899,0.6455 26.861109,26.097042 0 0 0 2.6549,0.38998 26.861109,26.097042 0 0 0 2.6814,0.13067 26.861109,26.097042 0 0 0 1.9002,-0.0661 26.861109,26.097042 0 0 0 2.6656,-0.31411 26.861109,26.097042 0 0 0 1.6164,-0.35316 26.861109,26.097042 0 0 1 0.6608,-2.51516 26.861109,26.097042 0 0 1 0.921,-2.45065 26.861109,26.097042 0 0 1 1.1677,-2.34893 26.861109,26.097042 0 0 1 1.4034,-2.22418 26.861109,26.097042 0 0 1 1.6249,-2.0766 26.861109,26.097042 0 0 1 1.8306,-1.908806 26.861109,26.097042 0 0 1 1.3017,-1.110682 26.861109,26.097042 0 0 1 0.7153,-0.61072 26.861109,26.097042 0 0 1 2.184,-1.517375 26.861109,26.097042 0 0 1 1.1956,-0.666486 26.861109,26.097042 0 0 1 1.1332,-0.631705 26.861109,26.097042 0 0 1 2.4506,-1.06531 26.861109,26.097042 0 0 1 2.5482,-0.822421 26.861109,26.097042 0 0 1 0.5741,-0.125331 26.861109,26.097042 0 0 0 -0.011,-0.04761 26.861109,26.097042 0 0 0 -0.8465,-2.474939 26.861109,26.097042 0 0 0 -1.0974,-2.381582 26.861109,26.097042 0 0 0 -1.3353,-2.262548 26.861109,26.097042 0 0 0 -1.5619,-2.121885 26.861109,26.097042 0 0 0 -1.7726,-1.959714 26.861109,26.097042 0 0 0 -1.9646,-1.778538 26.861109,26.097042 0 0 0 -2.1374,-1.57867 26.861109,26.097042 0 0 0 -2.28869,-1.36349 26.861109,26.097042 0 0 0 -2.22121,-1.042468 26.861109,26.097042 0 0 0 -0.1964,-0.09133 26.861109,26.097042 0 0 0 -2.4313,-0.862838 26.861109,26.097042 0 0 0 -0.091,-0.03206 26.861109,26.097042 0 0 0 -2.6019,-0.64483 26.861109,26.097042 0 0 0 -2.6549,-0.389982 26.861109,26.097042 0 0 0 -2.6814,-0.130675 z"
       id="path3213-4"
       inkscape:connector-curvature="0" />
    <path
       inkscape:connector-curvature="0"
       id="path3299-6"
       style="display:inline;opacity:1;fill:url(#radialGradient3402-2);fill-opacity:1;stroke:#fa0000;stroke-width:0;stroke-linecap:round;stroke-linejoin:miter;stroke-miterlimit:4;stroke-dasharray:none;stroke-opacity:1;paint-order:markers fill stroke"
       d="m 95.440071,109.85755 a 26.861109,26.097042 0 0 1 0.094,0.27438 26.861109,26.097042 0 0 1 0.587798,2.54528 26.861109,26.097042 0 0 1 0.3239,2.58978 26.861109,26.097042 0 0 1 0.067,1.84615 26.861109,26.097042 0 0 1 -0.134001,2.60512 26.861109,26.097042 0 0 1 -0.4014,2.57938 26.861109,26.097042 0 0 1 -0.01,0.0321 26.861109,26.097042 0 0 1 -0.6551,2.49456 26.861109,26.097042 0 0 1 -0.921102,2.45055 26.861109,26.097042 0 0 1 -1.167598,2.34883 26.861109,26.097042 0 0 1 -1.403401,2.22418 26.861109,26.097042 0 0 1 -0.278101,0.35589 94.060579,91.385015 0 0 1 1.788301,7.74096 94.060579,91.385015 0 0 1 1.133199,9.06829 94.060579,91.385015 0 0 1 0.235101,6.46444 94.060579,91.385015 0 0 1 -0.4694,9.12329 94.060579,91.385015 0 0 1 -1.4049,9.03196 94.060579,91.385015 0 0 1 -2.326701,8.85106 94.060579,91.385015 0 0 1 -3.223998,8.58077 94.060579,91.385015 0 0 1 -4.089101,8.22499 94.060579,91.385015 0 0 1 -4.9149,7.7876 94.060579,91.385015 0 0 1 -5.689701,7.27218 94.060579,91.385015 0 0 1 -1.180499,1.23135 52.687643,51.188937 0 0 1 2.8498,-1.97993 52.687643,51.188937 0 0 1 4.5687,-2.54596 52.687643,51.188937 0 0 1 4.8067,-2.08981 52.687643,51.188937 0 0 1 4.998,-1.61347 52.687643,51.188937 0 0 1 5.138499,-1.12117 52.687643,51.188937 0 0 1 5.228101,-0.61635 52.687643,51.188937 0 0 1 3.727203,-0.12805 52.687643,51.188937 0 0 1 5.2604,0.25561 52.687643,51.188937 0 0 1 5.2073,0.76461 52.687643,51.188937 0 0 1 5.1027,1.26604 52.687643,51.188937 0 0 1 4.9471,1.75482 52.687643,51.188937 0 0 1 4.7422,2.22506 52.687643,51.188937 0 0 1 4.4898,2.67478 52.687643,51.188937 0 0 1 3.3545,2.47698 94.060579,91.385015 0 0 1 -0.3097,-0.34189 94.060579,91.385015 0 0 1 -5.4689,-7.43045 94.060579,91.385015 0 0 1 -4.6783,-7.92332 94.060579,91.385015 0 0 1 -3.8405,-8.33788 94.060579,91.385015 0 0 1 -2.9645,-8.66919 94.060579,91.385015 0 0 1 -2.0593,-8.91285 94.060579,91.385015 0 0 1 -1.1332,-9.06762 94.060579,91.385015 0 0 1 -0.2358,-6.46443 94.060579,91.385015 0 0 1 0.4702,-9.12339 94.060579,91.385015 0 0 1 1.4048,-9.03196 94.060579,91.385015 0 0 1 2.1317,-8.11074 26.861109,26.097042 0 0 1 -0.085,-0.0942 26.861109,26.097042 0 0 1 -1.5618,-2.12197 26.861109,26.097042 0 0 1 -1.3354,-2.26256 26.861109,26.097042 0 0 1 -1.0974,-2.38089 26.861109,26.097042 0 0 1 -0.8465,-2.47562 26.861109,26.097042 0 0 1 -0.011,-0.0457 26.861109,26.097042 0 0 1 -0.577,-2.49933 26.861109,26.097042 0 0 1 -0.324,-2.58977 26.861109,26.097042 0 0 1 -0.067,-1.84615 26.861109,26.097042 0 0 1 0.1347,-2.60513 26.861109,26.097042 0 0 1 0.4014,-2.57948 26.861109,26.097042 0 0 1 0,-0.0136 26.861109,26.097042 0 0 1 -1.6163,0.35306 26.861109,26.097042 0 0 1 -2.6656,0.31411 26.861109,26.097042 0 0 1 -1.9002,0.0661 26.861109,26.097042 0 0 1 -2.6814,-0.13086 26.861109,26.097042 0 0 1 -2.6549,-0.38999 26.861109,26.097042 0 0 1 -2.601902,-0.6455 26.861109,26.097042 0 0 1 -2.5216,-0.89422 26.861109,26.097042 0 0 1 -1.6895,-0.79308 z m 7.277399,94.20275 a 52.687643,51.188937 0 0 0 -3.727299,0.12805 52.687643,51.188937 0 0 0 -5.2281,0.61616 52.687643,51.188937 0 0 0 -5.1385,1.12128 52.687643,51.188937 0 0 0 -4.998,1.61355 52.687643,51.188937 0 0 0 -4.8067,2.08982 52.687643,51.188937 0 0 0 -4.5687,2.54596 52.687643,51.188937 0 0 0 -2.8498,1.97974 94.060579,91.385015 0 0 1 -5.2281,5.45265 94.060579,91.385015 0 0 1 -5.0181,4.28281 52.687643,51.188937 0 0 0 -1.9217,2.45541 52.687643,51.188937 0 0 0 -2.7531,4.36209 52.687643,51.188937 0 0 0 -0.5483,1.10242 109.95491,106.82723 0 0 0 0.4795,0.22492 109.95491,106.82723 0 0 0 3.1179,1.46306 109.95491,106.82723 0 0 0 10.3244,3.6615 109.95491,106.82723 0 0 0 4.7607,1.18122 109.95491,106.82723 0 0 0 5.8883,1.46102 109.95491,106.82723 0 0 0 10.867602,1.59539 109.95491,106.82723 0 0 0 10.977397,0.53338 109.95491,106.82723 0 0 0 7.7776,-0.26737 109.95491,106.82723 0 0 0 10.9114,-1.28692 109.95491,106.82723 0 0 0 10.7236,-2.33853 109.95491,106.82723 0 0 0 1.3654,-0.4408 109.95491,106.82723 0 0 0 9.065,-2.92622 109.95491,106.82723 0 0 0 5.9334,-2.58006 109.95491,106.82723 0 0 0 1.2615,-0.54874 52.687643,51.188937 0 0 0 -2.3324,-3.95053 52.687643,51.188937 0 0 0 -1.6837,-2.28695 94.060579,91.385015 0 0 1 -3.6519,-3.30562 94.060579,91.385015 0 0 1 -5.8954,-6.52097 52.687643,51.188937 0 0 0 -3.3545,-2.47698 52.687643,51.188937 0 0 0 -4.4898,-2.67479 52.687643,51.188937 0 0 0 -4.7422,-2.22496 52.687643,51.188937 0 0 0 -4.9471,-1.75482 52.687643,51.188937 0 0 0 -5.1027,-1.26603 52.687643,51.188937 0 0 0 -5.2073,-0.76462 52.687643,51.188937 0 0 0 -5.2603,-0.25571 z" />
    <path
       inkscape:connector-curvature="0"
       style="display:inline;opacity:1;fill:url(#linearGradient5753-4);fill-opacity:1;stroke:#fa0000;stroke-width:0;stroke-linecap:round;stroke-linejoin:miter;stroke-miterlimit:4;stroke-dasharray:none;stroke-opacity:1;paint-order:markers fill stroke"
       d="m 89.535971,60.549404 a 27.807198,27.016219 0 0 0 -0.7405,0.632094 79.273575,77.018629 0 0 1 2.609699,3.545592 79.273575,77.018629 0 0 1 1.960002,2.662449 79.273575,77.018629 0 0 1 3.943001,6.677983 79.273575,77.018629 0 0 1 0.755999,1.641733 49.603128,48.192161 0 0 0 1.894401,0.469941 49.603128,48.192161 0 0 0 4.902597,0.72002 49.603128,48.192161 0 0 0 4.9521,0.240945 49.603128,48.192161 0 0 0 3.5089,-0.120958 49.603128,48.192161 0 0 0 3.6643,-0.432245 79.273575,77.018629 0 0 1 1.8769,-3.774588 79.273575,77.018629 0 0 1 4.1419,-6.56295 79.273575,77.018629 0 0 1 1.003,-1.281773 79.273575,77.018629 0 0 1 2.68,-3.425119 27.807198,27.016219 0 0 0 -1.0496,-0.949889 37.985917,36.905403 0 0 1 -0.7498,0.417671 37.985917,36.905403 0 0 1 -2.3239,1.010709 37.985917,36.905403 0 0 1 -1.142,0.496561 37.985917,36.905403 0 0 1 -3.6034,1.163243 37.985917,36.905403 0 0 1 -3.7047,0.807848 37.985917,36.905403 0 0 1 -3.7693,0.444292 37.985917,36.905403 0 0 1 -2.6872,0.0923 37.985917,36.905403 0 0 1 -3.792,-0.184207 37.985917,36.905403 0 0 1 -3.7548,-0.55126 37.985917,36.905403 0 0 1 -3.678798,-0.912776 37.985917,36.905403 0 0 1 -3.5668,-1.26477 37.985917,36.905403 0 0 1 -0.130202,-0.06121 37.985917,36.905403 0 0 1 -3.199799,-1.501636 z"
       id="path5581-2" />
  </g>
</svg>
