<?xml version="1.0" encoding="UTF-8" standalone="no"?>
<!-- Created with Inkscape (http://www.inkscape.org/) -->

<svg
   xmlns:dc="http://purl.org/dc/elements/1.1/"
   xmlns:cc="http://creativecommons.org/ns#"
   xmlns:rdf="http://www.w3.org/1999/02/22-rdf-syntax-ns#"
   xmlns:svg="http://www.w3.org/2000/svg"
   xmlns="http://www.w3.org/2000/svg"
   xmlns:xlink="http://www.w3.org/1999/xlink"
   xmlns:sodipodi="http://sodipodi.sourceforge.net/DTD/sodipodi-0.dtd"
   xmlns:inkscape="http://www.inkscape.org/namespaces/inkscape"
   width="210mm"
   height="297mm"
   viewBox="0 0 210 297"
   version="1.1"
   id="svg9509"
   inkscape:version="0.92.3 (2405546, 2018-03-11)"
   sodipodi:docname="wR.svg">
  <defs
     id="defs9503">
    <linearGradient
       inkscape:collect="always"
       xlink:href="#linearGradient21010"
       id="linearGradient20615-7"
       x1="1985.1484"
       y1="211.13672"
       x2="1383.7902"
       y2="372.05136"
       gradientUnits="userSpaceOnUse"
       gradientTransform="matrix(0.27953856,0,0,0.27953856,-405.51104,18.367536)" />
    <linearGradient
       id="linearGradient21010"
       inkscape:collect="always">
      <stop
         id="stop21006"
         offset="0"
         style="stop-color:#b3b3b3;stop-opacity:1" />
      <stop
         id="stop21008"
         offset="1"
         style="stop-color:#f9f9f9;stop-opacity:1" />
    </linearGradient>
    <linearGradient
       gradientTransform="matrix(0.27953856,0,0,0.27953856,-405.51104,15.013077)"
       inkscape:collect="always"
       xlink:href="#linearGradient21034"
       id="linearGradient20663-6"
       x1="1672"
       y1="781.97266"
       x2="1909.1884"
       y2="722.49927"
       gradientUnits="userSpaceOnUse" />
    <linearGradient
       id="linearGradient21034"
       inkscape:collect="always">
      <stop
         id="stop21030"
         offset="0"
         style="stop-color:#f9f9f9;stop-opacity:1" />
      <stop
         id="stop21032"
         offset="1"
         style="stop-color:#cccccc;stop-opacity:1" />
    </linearGradient>
    <linearGradient
       gradientTransform="matrix(0.27953856,0,0,0.27953856,-405.51104,15.013077)"
       inkscape:collect="always"
       xlink:href="#linearGradient21010"
       id="linearGradient20655-6"
       x1="1868.3184"
       y1="741.21875"
       x2="1672"
       y2="781.97266"
       gradientUnits="userSpaceOnUse" />
    <linearGradient
       gradientTransform="matrix(0.27953856,0,0,0.27953856,-405.51104,15.013077)"
       inkscape:collect="always"
       xlink:href="#linearGradient21016"
       id="linearGradient20637-0"
       x1="1923.459"
       y1="596.48828"
       x2="1735.442"
       y2="694.21503"
       gradientUnits="userSpaceOnUse" />
    <linearGradient
       id="linearGradient21016"
       inkscape:collect="always">
      <stop
         id="stop21012"
         offset="0"
         style="stop-color:#cccccc;stop-opacity:1" />
      <stop
         id="stop21014"
         offset="1"
         style="stop-color:#f9f9f9;stop-opacity:1" />
    </linearGradient>
    <linearGradient
       gradientTransform="matrix(0.27953856,0,0,0.27953856,-405.51104,15.013077)"
       inkscape:collect="always"
       xlink:href="#linearGradient21004"
       id="linearGradient20629-5"
       x1="1948.7793"
       y1="283.74219"
       x2="1725.4961"
       y2="572.11914"
       gradientUnits="userSpaceOnUse" />
    <linearGradient
       id="linearGradient21004"
       inkscape:collect="always">
      <stop
         id="stop21000"
         offset="0"
         style="stop-color:#808080;stop-opacity:1" />
      <stop
         id="stop21002"
         offset="1"
         style="stop-color:#f2f2f2;stop-opacity:1" />
    </linearGradient>
    <linearGradient
       gradientTransform="matrix(0.27953856,0,0,0.27953856,-405.51104,15.013077)"
       inkscape:collect="always"
       xlink:href="#linearGradient21016"
       id="linearGradient20639-8"
       x1="1923.459"
       y1="596.48828"
       x2="1733.4218"
       y2="669.97137"
       gradientUnits="userSpaceOnUse" />
    <linearGradient
       gradientTransform="matrix(0.27953856,0,0,0.27953856,-405.51104,15.013077)"
       inkscape:collect="always"
       xlink:href="#linearGradient21028"
       id="linearGradient20647-5"
       x1="1947.5741"
       y1="514.4079"
       x2="1688.8445"
       y2="649.45508"
       gradientUnits="userSpaceOnUse" />
    <linearGradient
       id="linearGradient21028"
       inkscape:collect="always">
      <stop
         id="stop21024"
         offset="0"
         style="stop-color:#b3b3b3;stop-opacity:1" />
      <stop
         id="stop21026"
         offset="1"
         style="stop-color:#f2f2f2;stop-opacity:1" />
    </linearGradient>
  </defs>
  <sodipodi:namedview
     id="base"
     pagecolor="#ffffff"
     bordercolor="#666666"
     borderopacity="1.0"
     inkscape:pageopacity="0.0"
     inkscape:pageshadow="2"
     inkscape:zoom="0.35"
     inkscape:cx="-574.28572"
     inkscape:cy="560"
     inkscape:document-units="mm"
     inkscape:current-layer="layer1"
     showgrid="false"
     inkscape:window-width="1920"
     inkscape:window-height="1017"
     inkscape:window-x="0"
     inkscape:window-y="0"
     inkscape:window-maximized="1" />
  <metadata
     id="metadata9506">
    <rdf:RDF>
      <cc:Work
         rdf:about="">
        <dc:format>image/svg+xml</dc:format>
        <dc:type
           rdf:resource="http://purl.org/dc/dcmitype/StillImage" />
        <dc:title />
      </cc:Work>
    </rdf:RDF>
  </metadata>
  <g
     inkscape:label="Layer 1"
     inkscape:groupmode="layer"
     id="layer1">
    <path
       inkscape:connector-curvature="0"
       style="opacity:1;vector-effect:none;fill:url(#linearGradient20647-5);fill-opacity:1;stroke:#000000;stroke-width:0;stroke-linecap:round;stroke-linejoin:miter;stroke-miterlimit:4;stroke-dasharray:none;stroke-dashoffset:0;stroke-opacity:1;paint-order:markers fill stroke"
       d="m 146.64325,202.40514 a 71.647447,71.647447 0 0 1 -1.98625,1.1393 11.024848,11.024848 0 0 0 0.0246,0.2015 23.882094,23.882094 0 0 0 -0.18182,-0.1114 71.647447,71.647447 0 0 1 -3.43964,1.9732 71.647447,71.647447 0 0 1 -1.32071,0.5913 71.647447,71.647447 0 0 1 -5.21625,2.334 71.647447,71.647447 0 0 1 -2.1899,0.7279 71.647447,71.647447 0 0 1 -4.60582,1.5303 71.647447,71.647447 0 0 1 -6.98793,1.5685 71.647447,71.647447 0 0 1 -7.10967,0.8632 71.647447,71.647447 0 0 1 -3.4904,0.124 23.882094,23.882094 0 0 0 -0.51648,1.069 23.882094,23.882094 0 0 0 -0.81843,2.2423 23.882094,23.882094 0 0 1 0.81787,-2.2423 23.882094,23.882094 0 0 1 0.5165,-1.069 71.647447,71.647447 0 0 1 -1.57787,0.056 71.647447,71.647447 0 0 1 -3.14808,-0.1577 71.647447,71.647447 0 0 1 -4.00473,-0.2004 71.647447,71.647447 0 0 1 -7.081273,-1.0701 71.647447,71.647447 0 0 1 -6.93879,-1.7722 71.647447,71.647447 0 0 1 -2.78663,-1.0172 71.647447,71.647447 0 0 1 -3.94084,-1.4386 71.647447,71.647447 0 0 1 -2.1948,-1.0603 71.647447,71.647447 0 0 1 -3.92121,-1.894 71.647447,71.647447 0 0 1 -0.33304,-0.1605 71.647447,71.647447 0 0 1 -2.0714,-1.2699 71.647447,71.647447 0 0 1 -1.43046,-0.8769 133.70429,133.70429 0 0 1 -4.083894,8.4545 133.70429,133.70429 0 0 1 -1.01168,1.6499 133.7043,133.7043 0 0 1 -0.35543,0.5799 133.70429,133.70429 0 0 1 -0.940711,1.5347 23.882094,23.882094 0 0 0 -1.0188,2.1085 23.882094,23.882094 0 0 0 -0.81841,2.2423 23.882094,23.882094 0 0 0 -0.59074,2.3133 23.882094,23.882094 0 0 0 -0.35706,2.3603 23.882094,23.882094 0 0 0 -0.119019,2.3842 23.882094,23.882094 0 0 0 0.0595,1.6893 23.882094,23.882094 0 0 0 0.0869,0.7163 23.882094,23.882094 0 0 0 0.200919,1.6537 23.882094,23.882094 0 0 0 0.52305,2.3291 23.882094,23.882094 0 0 0 0.39692,1.1941 71.647447,71.647447 0 0 0 3.724071,2.8308 71.647447,71.647447 0 0 0 3.060189,1.8766 71.647447,71.647447 0 0 0 3.045435,1.8672 71.647447,71.647447 0 0 0 6.44851,3.1148 71.647447,71.647447 0 0 0 6.72749,2.4557 71.647447,71.647447 0 0 0 6.93931,1.7724 71.647447,71.647447 0 0 0 2.25705,0.3411 71.647447,71.647447 0 0 0 4.824256,0.7289 71.647447,71.647447 0 0 0 7.152757,0.3576 71.647447,71.647447 0 0 0 5.0683,-0.179 71.647447,71.647447 0 0 0 7.10967,-0.8632 71.647447,71.647447 0 0 0 5.99479,-1.3458 71.647447,71.647447 0 0 0 0.99312,-0.2228 71.647447,71.647447 0 0 0 6.79628,-2.2582 71.647447,71.647447 0 0 0 6.53695,-2.9253 71.647447,71.647447 0 0 0 6.21208,-3.5636 71.647447,71.647447 0 0 0 2.2505,-1.61 v 0 a 71.647447,71.647447 0 0 0 3.57393,-2.5558 71.647447,71.647447 0 0 0 2.9985,-2.6343 23.882094,23.882094 0 0 0 0.0393,-0.1081 23.882094,23.882094 0 0 0 0.59075,-2.3127 23.882094,23.882094 0 0 0 0.35652,-2.3608 23.882094,23.882094 0 0 0 0.0185,-0.3708 23.882094,23.882094 0 0 0 0.101,-2.0135 23.882094,23.882094 0 0 0 -0.06,-1.6893 23.882094,23.882094 0 0 0 -0.28772,-2.3694 23.882094,23.882094 0 0 0 -0.52251,-2.3297 23.882094,23.882094 0 0 0 -0.41166,-1.2388 133.70429,133.70429 0 0 1 -1.9677,-3.4304 133.70429,133.70429 0 0 1 -2.63867,-4.5999 133.7043,133.7043 0 0 1 -2.00046,-3.487 133.7043,133.7043 0 0 1 -0.96964,-2.1665 z m -37.83926,14.2536 a 23.882094,23.882094 0 0 0 -0.59074,2.3128 23.882094,23.882094 0 0 0 -0.0486,0.3216 23.882094,23.882094 0 0 1 0.14302,0.4307 23.882094,23.882094 0 0 1 0.52305,2.3292 23.882094,23.882094 0 0 1 0.28774,2.37 23.882094,23.882094 0 0 1 0.0595,1.6893 23.882094,23.882094 0 0 1 -0.11903,2.3843 23.882094,23.882094 0 0 1 -0.30847,2.0376 23.882094,23.882094 0 0 0 0.60987,1.8361 23.882094,23.882094 0 0 0 0.97508,2.179 23.882094,23.882094 0 0 0 1.18804,2.0702 23.882094,23.882094 0 0 0 1.38842,1.9421 23.882094,23.882094 0 0 0 1.5757,1.7935 23.882094,23.882094 0 0 1 -1.57568,-1.7935 23.882094,23.882094 0 0 1 -1.38841,-1.9421 23.882094,23.882094 0 0 1 -1.18804,-2.0702 23.882094,23.882094 0 0 1 -0.97511,-2.179 23.882094,23.882094 0 0 1 -0.60984,-1.8361 23.882094,23.882094 0 0 0 0.30847,-2.0376 23.882094,23.882094 0 0 0 0.11903,-2.3843 23.882094,23.882094 0 0 0 -0.0595,-1.6893 23.882094,23.882094 0 0 0 -0.28773,-2.37 23.882094,23.882094 0 0 0 -0.52305,-2.3292 23.882094,23.882094 0 0 0 -0.14305,-0.4307 23.882094,23.882094 0 0 1 0.0486,-0.3216 23.882094,23.882094 0 0 1 0.59076,-2.3128 z"
       id="path20311-3" />
    <path
       inkscape:connector-curvature="0"
       style="opacity:1;vector-effect:none;fill:url(#linearGradient20639-8);fill-opacity:1;stroke:#000000;stroke-width:0;stroke-linecap:round;stroke-linejoin:miter;stroke-miterlimit:4;stroke-dasharray:none;stroke-dashoffset:0;stroke-opacity:1;paint-order:markers fill stroke"
       d="m 72.310017,199.17284 a 133.7043,133.7043 0 0 1 -0.5034,1.0413 133.70429,133.70429 0 0 1 -1.09685,2.2706 71.647447,71.647447 0 0 0 1.43046,0.8768 71.647447,71.647447 0 0 0 2.0714,1.27 71.647447,71.647447 0 0 0 0.33305,0.1606 71.647447,71.647447 0 0 0 3.9212,1.8939 71.647447,71.647447 0 0 0 2.19479,1.0603 71.647447,71.647447 0 0 0 3.94086,1.4386 71.647447,71.647447 0 0 0 2.78663,1.0172 71.647447,71.647447 0 0 0 6.9388,1.7722 71.647447,71.647447 0 0 0 7.081253,1.0701 71.647447,71.647447 0 0 0 4.00473,0.2004 71.647447,71.647447 0 0 0 3.14807,0.1577 71.647447,71.647447 0 0 0 1.57789,-0.056 71.647447,71.647447 0 0 0 3.49041,-0.1239 71.647447,71.647447 0 0 0 7.10966,-0.8632 71.647447,71.647447 0 0 0 6.98791,-1.5685 71.647447,71.647447 0 0 0 4.60637,-1.5304 71.647447,71.647447 0 0 0 2.18991,-0.7278 71.647447,71.647447 0 0 0 5.21625,-2.334 71.647447,71.647447 0 0 0 1.32071,-0.5913 71.647447,71.647447 0 0 0 3.43964,-1.9732 71.647447,71.647447 0 0 0 0.15724,-0.09 71.647447,71.647447 0 0 0 1.98625,-1.1394 133.70429,133.70429 0 0 1 -1.29451,-2.8931 71.647447,71.647447 0 0 1 -0.53777,0.3085 71.647447,71.647447 0 0 1 -3.19722,1.8339 71.647447,71.647447 0 0 1 -0.43024,0.1922 71.647447,71.647447 0 0 1 -4.88427,2.186 71.647447,71.647447 0 0 1 -1.22245,0.5471 71.647447,71.647447 0 0 1 -6.20609,2.0627 71.647447,71.647447 0 0 1 -0.59019,0.196 71.647447,71.647447 0 0 1 -6.98791,1.568 71.647447,71.647447 0 0 1 -7.10968,0.8632 71.647447,71.647447 0 0 1 -1.58551,0.056 71.647447,71.647447 0 0 1 -3.48277,0.1234 71.647447,71.647447 0 0 1 -7.09381,-0.3554 71.647447,71.647447 0 0 1 -0.059,0 71.647447,71.647447 0 0 1 -7.081273,-1.0702 71.647447,71.647447 0 0 1 -6.64339,-1.6963 71.647447,71.647447 0 0 1 -0.29594,-0.075 71.647447,71.647447 0 0 1 -5.47394,-1.9982 71.647447,71.647447 0 0 1 -1.25353,-0.4576 71.647447,71.647447 0 0 1 -1.71109,-0.8266 71.647447,71.647447 0 0 1 -4.73742,-2.2887 71.647447,71.647447 0 0 1 -2.45524,-1.5053 z"
       id="path20369-3" />
    <path
       inkscape:connector-curvature="0"
       style="opacity:1;vector-effect:none;fill:url(#linearGradient20629-5);fill-opacity:1;stroke:#000000;stroke-width:0;stroke-linecap:round;stroke-linejoin:miter;stroke-miterlimit:4;stroke-dasharray:none;stroke-dashoffset:0;stroke-opacity:1;paint-order:markers fill stroke"
       d="m 78.638937,111.62544 a 71.647447,71.647447 0 0 0 -0.35761,0.1599 133.7043,133.7043 0 0 1 2.76701,12.3271 133.7043,133.7043 0 0 1 1.61062,13.2671 133.7043,133.7043 0 0 1 0.33466,9.4579 133.7043,133.7043 0 0 1 -0.66771,13.3486 133.7043,133.7043 0 0 1 -1.99719,13.2147 133.7043,133.7043 0 0 1 -3.30641,12.9494 133.7043,133.7043 0 0 1 -2.45851,6.7352 71.647447,71.647447 0 0 0 1.33055,0.8156 71.647447,71.647447 0 0 0 6.44904,3.1154 71.647447,71.647447 0 0 0 6.72749,2.4558 71.647447,71.647447 0 0 0 3.37902,0.8626 44.808592,44.808592 0 0 0 -0.77037,0.1731 44.808592,44.808592 0 0 0 -4.25042,1.4124 44.808592,44.808592 0 0 0 -0.83752,0.3746 23.882095,23.882095 0 0 1 1.08869,0.055 23.882095,23.882095 0 0 1 2.36023,0.357 23.882095,23.882095 0 0 1 2.31329,0.5908 23.882095,23.882095 0 0 1 0.46845,0.1709 44.808598,44.808598 0 0 1 0.9014,-0.5171 44.808598,44.808598 0 0 1 3.42927,-1.5347 71.647447,71.647447 0 0 0 5.938533,0.8976 71.647447,71.647447 0 0 0 7.15281,0.3582 71.647447,71.647447 0 0 0 5.06829,-0.1796 71.647447,71.647447 0 0 0 4.5201,-0.5488 71.647447,71.647447 0 0 0 2.589,-0.3139 71.647447,71.647447 0 0 0 0.31776,-0.072 23.882095,23.882095 0 0 1 0.22604,-0.1015 23.882095,23.882095 0 0 1 2.2658,-0.7528 23.882095,23.882095 0 0 1 2.32911,-0.5226 23.882095,23.882095 0 0 1 0.0121,0 23.882095,23.882095 0 0 1 2.32966,-0.2828 71.647447,71.647447 0 0 0 6.30436,-2.0944 71.647447,71.647447 0 0 0 6.53695,-2.9258 71.647447,71.647447 0 0 0 0.42258,-0.2425 133.7043,133.7043 0 0 1 -1.01224,-2.2624 133.7043,133.7043 0 0 1 -4.21437,-12.6831 133.7043,133.7043 0 0 1 -2.92698,-13.0405 133.7043,133.7043 0 0 1 -1.61061,-13.2672 133.7043,133.7043 0 0 1 -0.33469,-9.4579 133.7043,133.7043 0 0 1 0.66773,-13.3479 133.7043,133.7043 0 0 1 1.99719,-13.2148 133.7043,133.7043 0 0 1 1.24809,-4.8881 71.647447,71.647447 0 0 0 -0.047,-0.022 61.281678,61.281678 0 0 1 -0.58582,0.3358 61.281678,61.281678 0 0 1 -5.5913,2.5022 61.281678,61.281678 0 0 1 -5.81299,1.9317 61.281678,61.281678 0 0 1 -5.97734,1.3414 61.281678,61.281678 0 0 1 -6.0805,0.7381 61.281678,61.281678 0 0 1 -4.33502,0.1535 61.281678,61.281678 0 0 1 -6.11818,-0.3062 61.281678,61.281678 0 0 1 -6.056503,-0.9151 61.281678,61.281678 0 0 1 -5.93528,-1.5157 61.281678,61.281678 0 0 1 -5.75454,-2.1004 61.281678,61.281678 0 0 1 -5.51544,-2.6643 61.281678,61.281678 0 0 1 -0.53124,-0.3259 z"
       id="path20181-8" />
    <path
       inkscape:connector-curvature="0"
       style="opacity:1;vector-effect:none;fill:url(#linearGradient20637-0);fill-opacity:1;stroke:#000000;stroke-width:0;stroke-linecap:round;stroke-linejoin:miter;stroke-miterlimit:4;stroke-dasharray:none;stroke-dashoffset:0;stroke-opacity:1;paint-order:markers fill stroke"
       d="m 74.563797,193.08534 a 133.70429,133.70429 0 0 1 -2.12438,5.8195 133.70429,133.70429 0 0 1 -0.1294,0.268 71.647447,71.647447 0 0 0 2.45524,1.5053 71.647447,71.647447 0 0 0 4.73743,2.2887 71.647447,71.647447 0 0 0 1.71108,0.8266 71.647447,71.647447 0 0 0 1.25354,0.4575 71.647447,71.647447 0 0 0 5.47394,1.9983 71.647447,71.647447 0 0 0 0.29592,0.075 71.647447,71.647447 0 0 0 6.6434,1.6964 71.647447,71.647447 0 0 0 7.081273,1.07 71.647447,71.647447 0 0 0 0.0589,0 71.647447,71.647447 0 0 0 7.09382,0.3556 71.647447,71.647447 0 0 0 3.48278,-0.1234 71.647447,71.647447 0 0 0 1.58551,-0.056 71.647447,71.647447 0 0 0 7.10967,-0.8632 71.647447,71.647447 0 0 0 6.98791,-1.5681 71.647447,71.647447 0 0 0 0.59018,-0.196 71.647447,71.647447 0 0 0 6.2061,-2.0626 71.647447,71.647447 0 0 0 1.22245,-0.5471 71.647447,71.647447 0 0 0 4.88427,-2.1862 71.647447,71.647447 0 0 0 0.43023,-0.1921 71.647447,71.647447 0 0 0 3.19722,-1.834 11.024848,11.024848 0 0 1 0.23641,-0.9264 11.024848,11.024848 0 0 1 0.0109,-0.031 133.70429,133.70429 0 0 1 -1.89234,-4.2286 71.647447,71.647447 0 0 1 -0.42257,0.2425 71.647447,71.647447 0 0 1 -6.53696,2.9258 71.647447,71.647447 0 0 1 -6.30434,2.0944 23.882095,23.882095 0 0 0 -2.32968,0.2828 23.882095,23.882095 0 0 0 -0.012,0 23.882095,23.882095 0 0 0 -2.32912,0.5225 23.882095,23.882095 0 0 0 -2.2658,0.7529 23.882095,23.882095 0 0 0 -0.22603,0.1014 71.647447,71.647447 0 0 1 -0.31775,0.072 71.647447,71.647447 0 0 1 -2.58901,0.3139 71.647447,71.647447 0 0 1 -4.5201,0.5487 71.647447,71.647447 0 0 1 -5.0683,0.1797 71.647447,71.647447 0 0 1 -7.1528,-0.3582 71.647447,71.647447 0 0 1 -5.938533,-0.8976 44.808598,44.808598 0 0 0 -3.42927,1.5347 44.808598,44.808598 0 0 0 -0.9014,0.517 23.882094,23.882094 0 0 0 -0.46845,-0.1708 23.882094,23.882094 0 0 0 -2.31329,-0.5908 23.882094,23.882094 0 0 0 -2.36023,-0.357 23.882094,23.882094 0 0 0 -1.08869,-0.055 44.808592,44.808592 0 0 1 0.83752,-0.3745 44.808592,44.808592 0 0 1 4.25042,-1.4125 44.808592,44.808592 0 0 1 0.77037,-0.173 71.647447,71.647447 0 0 1 -3.37903,-0.8627 71.647447,71.647447 0 0 1 -6.72749,-2.4557 71.647447,71.647447 0 0 1 -6.44904,-3.1154 71.647447,71.647447 0 0 1 -1.33054,-0.8157 z"
       id="path20243-3" />
    <path
       style="opacity:1;vector-effect:none;fill:#b3b3b3;fill-opacity:1;stroke:#000000;stroke-width:0;stroke-linecap:round;stroke-linejoin:miter;stroke-miterlimit:4;stroke-dasharray:none;stroke-dashoffset:0;stroke-opacity:1;paint-order:markers fill stroke"
       d="m 78.281327,111.78534 a 71.647447,71.647447 0 0 1 0.35761,-0.1599 61.281678,61.281678 0 0 1 -0.45587,-0.2795 133.7043,133.7043 0 0 1 0.0983,0.4394 z"
       id="path20397-7"
       inkscape:connector-curvature="0" />
    <path
       style="opacity:1;vector-effect:none;fill:#b3b3b3;fill-opacity:1;stroke:#000000;stroke-width:0;stroke-linecap:round;stroke-linejoin:miter;stroke-miterlimit:4;stroke-dasharray:none;stroke-dashoffset:0;stroke-opacity:1;paint-order:markers fill stroke"
       d="m 65.258773,213.16894 a 133.7043,133.7043 0 0 0 0.35542,-0.5798 23.882095,23.882095 0 0 0 -0.0289,0.038 23.882095,23.882095 0 0 0 -0.33415,0.5449 11.024847,11.024847 0 0 0 0.007,0 z"
       id="path20381-9"
       inkscape:connector-curvature="0" />
    <path
       style="opacity:1;vector-effect:none;fill:#b3b3b3;fill-opacity:1;stroke:#000000;stroke-width:0;stroke-linecap:round;stroke-linejoin:miter;stroke-miterlimit:4;stroke-dasharray:none;stroke-dashoffset:0;stroke-opacity:1;paint-order:markers fill stroke"
       d="m 65.258773,213.16894 a 11.024847,11.024847 0 0 1 -0.007,0 23.882095,23.882095 0 0 0 -0.9134,1.4905 23.882095,23.882095 0 0 0 -0.0195,0.041 133.7043,133.7043 0 0 0 0.940701,-1.5347 z"
       id="path20379-3"
       inkscape:connector-curvature="0" />
    <path
       style="opacity:1;vector-effect:none;fill:#b3b3b3;fill-opacity:1;stroke:#000000;stroke-width:0;stroke-linecap:round;stroke-linejoin:miter;stroke-miterlimit:4;stroke-dasharray:none;stroke-dashoffset:0;stroke-opacity:1;paint-order:markers fill stroke"
       d="m 144.657,203.54444 a 71.647447,71.647447 0 0 1 -0.15724,0.09 23.882095,23.882095 0 0 1 0.1818,0.1115 11.024848,11.024848 0 0 1 -0.0246,-0.2015 z"
       id="path20325-7"
       inkscape:connector-curvature="0" />
    <path
       inkscape:connector-curvature="0"
       style="opacity:1;vector-effect:none;fill:url(#linearGradient20655-6);fill-opacity:1;stroke:#000000;stroke-width:0;stroke-linecap:round;stroke-linejoin:miter;stroke-miterlimit:4;stroke-dasharray:none;stroke-dashoffset:0;stroke-opacity:1;paint-order:markers fill stroke"
       d="m 156.58105,228.96234 a 71.647447,71.647447 0 0 1 -2.18552,1.9197 71.647447,71.647447 0 0 1 -2.9985,2.6342 71.647447,71.647447 0 0 1 -3.57393,2.5557 71.647447,71.647447 0 0 1 -2.2516,1.6102 71.647447,71.647447 0 0 1 -6.2121,3.5635 71.647447,71.647447 0 0 1 -6.53695,2.9253 71.647447,71.647447 0 0 1 -6.79625,2.2581 71.647447,71.647447 0 0 1 -0.99315,0.2229 71.647447,71.647447 0 0 1 -5.99479,1.3458 71.647447,71.647447 0 0 1 -7.10967,0.8631 71.647447,71.647447 0 0 1 -5.06828,0.1791 71.647447,71.647447 0 0 1 -7.152777,-0.3576 71.647447,71.647447 0 0 1 -4.824246,-0.7289 23.882095,23.882095 0 0 1 -0.93361,0.4177 23.882095,23.882095 0 0 0 0.93361,-0.4177 71.647447,71.647447 0 0 1 -2.25596,-0.3412 71.647447,71.647447 0 0 1 -6.93933,-1.7723 71.647447,71.647447 0 0 1 -6.72747,-2.4558 71.647447,71.647447 0 0 1 -6.44852,-3.1147 71.647447,71.647447 0 0 1 -3.044344,-1.8667 44.808598,44.808598 0 0 1 0,-5.3e-4 71.647447,71.647447 0 0 1 -3.06017,-1.8766 71.647447,71.647447 0 0 1 -3.72408,-2.8308 23.882095,23.882095 0 0 0 0.35596,1.0712 23.882095,23.882095 0 0 0 0.97511,2.1789 23.882095,23.882095 0 0 0 1.18751,2.0709 23.882095,23.882095 0 0 0 1.38894,1.942 23.882095,23.882095 0 0 0 1.57515,1.7936 23.882095,23.882095 0 0 0 1.10556,1.0297 44.808598,44.808598 0 0 0 0,10e-4 23.882095,23.882095 0 0 1 -1.10665,-1.0307 23.882095,23.882095 0 0 1 -1.57515,-1.7936 23.882095,23.882095 0 0 1 -1.38897,-1.942 23.882095,23.882095 0 0 1 -1.18748,-2.0709 23.882095,23.882095 0 0 1 -0.97512,-2.1789 23.882095,23.882095 0 0 1 -0.35596,-1.0712 71.647447,71.647447 0 0 1 -1.97751,-1.5032 71.647447,71.647447 0 0 1 -0.23588,-0.2199 44.808592,44.808592 0 0 0 -0.7174,2.8095 44.808592,44.808592 0 0 0 -0.66936,4.4284 44.808592,44.808592 0 0 0 -0.21893,4.3755 83.754412,83.754412 0 0 0 0.70703,0.5372 83.754412,83.754412 0 0 0 7.13752,4.3759 83.754412,83.754412 0 0 0 3.12568,1.5097 83.754412,83.754412 0 0 0 4.412574,2.1314 83.754412,83.754412 0 0 0 7.86421,2.8708 83.754412,83.754412 0 0 0 8.11207,2.0714 83.754412,83.754412 0 0 0 8.277496,1.2514 83.754412,83.754412 0 0 0 8.361587,0.4182 83.754412,83.754412 0 0 0 5.92493,-0.2097 83.754412,83.754412 0 0 0 8.31079,-1.0089 83.754412,83.754412 0 0 0 8.16887,-1.8334 83.754412,83.754412 0 0 0 7.94446,-2.6403 83.754412,83.754412 0 0 0 7.64199,-3.4194 83.754412,83.754412 0 0 0 3.42327,-1.9639 83.754412,83.754412 0 0 0 3.83873,-2.202 83.754412,83.754412 0 0 0 6.66635,-4.768 44.808598,44.808598 0 0 0 -0.035,-0.9904 44.808598,44.808598 0 0 0 -0.53942,-4.4463 44.808598,44.808598 0 0 0 -0.98113,-4.3706 44.808598,44.808598 0 0 0 -0.64316,-1.9359 z"
       id="path20315-8" />
    <path
       inkscape:connector-curvature="0"
       style="opacity:1;vector-effect:none;fill:url(#linearGradient20663-6);fill-opacity:1;stroke:#000000;stroke-width:0;stroke-linecap:round;stroke-linejoin:miter;stroke-miterlimit:4;stroke-dasharray:none;stroke-dashoffset:0;stroke-opacity:1;paint-order:markers fill stroke"
       d="m 158.7797,240.70564 a 83.754412,83.754412 0 0 1 -6.66635,4.768 83.754412,83.754412 0 0 1 -3.83874,2.2019 83.754412,83.754412 0 0 1 -3.42325,1.9639 83.754412,83.754412 0 0 1 -7.642,3.4194 83.754412,83.754412 0 0 1 -7.94445,2.6404 83.754412,83.754412 0 0 1 -8.16888,1.8334 83.754412,83.754412 0 0 1 -8.31079,1.0088 83.754412,83.754412 0 0 1 -5.92493,0.2098 83.754412,83.754412 0 0 1 -8.361587,-0.4183 83.754412,83.754412 0 0 1 -8.277496,-1.2514 83.754412,83.754412 0 0 1 -8.11207,-2.0714 83.754412,83.754412 0 0 1 -7.86421,-2.8707 83.754412,83.754412 0 0 1 -4.412574,-2.1315 83.754412,83.754412 0 0 1 -3.12568,-1.5096 83.754412,83.754412 0 0 1 -7.13751,-4.376 83.754412,83.754412 0 0 1 -0.70704,-0.5372 44.808592,44.808592 0 0 0 -0.005,0.098 44.808592,44.808592 0 0 0 0.11191,3.1694 44.808592,44.808592 0 0 0 0.53996,4.4464 44.808592,44.808592 0 0 0 0.10048,0.4483 97.895651,97.895651 0 0 0 1.91472,1.1739 97.895651,97.895651 0 0 0 8.81092,4.2564 97.895651,97.895651 0 0 0 1.484524,0.5416 97.895651,97.895651 0 0 0 7.70805,2.8139 97.895651,97.895651 0 0 0 9.48139,2.4208 97.895651,97.895651 0 0 0 9.675186,1.4627 97.895651,97.895651 0 0 0 9.773467,0.4886 97.895651,97.895651 0 0 0 6.9246,-0.2451 97.895651,97.895651 0 0 0 9.71449,-1.1793 97.895651,97.895651 0 0 0 9.54801,-2.1429 97.895651,97.895651 0 0 0 9.2859,-3.0853 97.895651,97.895651 0 0 0 2.45963,-1.1007 97.895651,97.895651 0 0 0 6.47253,-2.897 97.895651,97.895651 0 0 0 5.17691,-2.9695 44.808598,44.808598 0 0 0 0.59346,-3.9278 44.808598,44.808598 0 0 0 0.22386,-4.4731 44.808598,44.808598 0 0 0 -0.0776,-2.179 z"
       id="path20283-7" />
    <path
       style="opacity:1;vector-effect:none;fill:#b3b3b3;fill-opacity:1;stroke:#000000;stroke-width:0;stroke-linecap:round;stroke-linejoin:miter;stroke-miterlimit:4;stroke-dasharray:none;stroke-dashoffset:0;stroke-opacity:1;paint-order:markers fill stroke"
       d="m 136.98005,112.47284 a 133.7043,133.7043 0 0 1 0.0148,-0.058 61.281678,61.281678 0 0 1 -0.0617,0.036 71.647447,71.647447 0 0 1 0.0469,0.022 z"
       id="path20185-4"
       inkscape:connector-curvature="0" />
    <path
       style="opacity:1;vector-effect:none;fill:#b3b3b3;fill-opacity:1;stroke:#000000;stroke-width:0;stroke-linecap:round;stroke-linejoin:miter;stroke-miterlimit:4;stroke-dasharray:none;stroke-dashoffset:0;stroke-opacity:1;paint-order:markers fill stroke"
       d="m 145.34874,199.51194 a 133.7043,133.7043 0 0 1 -0.29047,-0.6486 11.024848,11.024848 0 0 0 -0.0109,0.031 11.024848,11.024848 0 0 0 -0.2364,0.9266 71.647447,71.647447 0 0 0 0.53778,-0.3085 z"
       id="path20173-1"
       inkscape:connector-curvature="0" />
    <path
       style="opacity:1;vector-effect:none;fill:#b3b3b3;fill-opacity:1;stroke:#000000;stroke-width:0;stroke-linecap:round;stroke-linejoin:miter;stroke-miterlimit:4;stroke-dasharray:none;stroke-dashoffset:0;stroke-opacity:1;paint-order:markers fill stroke"
       d="m 145.9526,106.66914 a 114.4124,114.4124 0 0 0 0.35814,-0.119 83.754412,83.754412 0 0 1 -0.005,-0.1338 61.281678,61.281678 0 0 1 -0.35323,0.2528 z"
       id="path20101-9"
       inkscape:connector-curvature="0" />
    <path
       style="opacity:1;vector-effect:none;fill:#b3b3b3;fill-opacity:1;stroke:#000000;stroke-width:0;stroke-linecap:round;stroke-linejoin:miter;stroke-miterlimit:4;stroke-dasharray:none;stroke-dashoffset:0;stroke-opacity:1;paint-order:markers fill stroke"
       d="m 132.34145,110.51764 a 71.647447,71.647447 0 0 1 2.41977,0.8834 71.647447,71.647447 0 0 1 2.17187,1.0494 61.281678,61.281678 0 0 0 0.0617,-0.036 133.7043,133.7043 0 0 1 0.79658,-3.1202 114.4124,114.4124 0 0 1 -5.44992,1.2229 z"
       id="path20095-0"
       inkscape:connector-curvature="0" />
    <path
       style="opacity:1;vector-effect:none;fill:#999999;fill-opacity:1;stroke:#000000;stroke-width:0;stroke-linecap:round;stroke-linejoin:miter;stroke-miterlimit:4;stroke-dasharray:none;stroke-dashoffset:0;stroke-opacity:1;paint-order:markers fill stroke"
       d="m 82.127717,110.20594 a 71.647447,71.647447 0 0 0 -1.22955,0.4084 71.647447,71.647447 0 0 0 -2.25923,1.0111 61.281678,61.281678 0 0 0 0.53123,0.3259 61.281678,61.281678 0 0 0 5.51544,2.6645 61.281678,61.281678 0 0 0 5.75455,2.1002 61.281678,61.281678 0 0 0 5.93528,1.5157 61.281678,61.281678 0 0 0 6.056503,0.9151 61.281678,61.281678 0 0 0 6.11817,0.3063 61.281678,61.281678 0 0 0 4.33503,-0.1534 61.281678,61.281678 0 0 0 6.0805,-0.7382 61.281678,61.281678 0 0 0 5.97734,-1.3415 61.281678,61.281678 0 0 0 5.81298,-1.9316 61.281678,61.281678 0 0 0 5.5913,-2.5022 61.281678,61.281678 0 0 0 0.58583,-0.3358 71.647447,71.647447 0 0 0 -2.17187,-1.0494 71.647447,71.647447 0 0 0 -2.41977,-0.8834 114.4124,114.4124 0 0 1 -4.90993,1.1024 114.4124,114.4124 0 0 1 -11.35298,1.378 114.4124,114.4124 0 0 1 -8.09351,0.2867 114.4124,114.4124 0 0 1 -11.421773,-0.5717 114.4124,114.4124 0 0 1 -11.3082,-1.7089 114.4124,114.4124 0 0 1 -3.12734,-0.7982 z"
       id="path20093-9"
       inkscape:connector-curvature="0" />
    <path
       style="opacity:1;vector-effect:none;fill:#b3b3b3;fill-opacity:1;stroke:#000000;stroke-width:0;stroke-linecap:round;stroke-linejoin:miter;stroke-miterlimit:4;stroke-dasharray:none;stroke-dashoffset:0;stroke-opacity:1;paint-order:markers fill stroke"
       d="m 77.435607,109.00754 a 133.7043,133.7043 0 0 1 0.68576,2.0643 133.7043,133.7043 0 0 1 0.0617,0.2741 61.281678,61.281678 0 0 0 0.45588,0.2795 71.647447,71.647447 0 0 1 2.25923,-1.0111 71.647447,71.647447 0 0 1 1.22955,-0.4084 114.4124,114.4124 0 0 1 -4.69212,-1.1984 z"
       id="path20089-8"
       inkscape:connector-curvature="0" />
    <path
       style="opacity:1;vector-effect:none;fill:url(#linearGradient20615-7);fill-opacity:1;stroke:#000000;stroke-width:0;stroke-linecap:round;stroke-linejoin:miter;stroke-miterlimit:4;stroke-dasharray:none;stroke-dashoffset:0;stroke-opacity:1;paint-order:markers fill stroke"
       d="m 107.98503,82.654487 a 114.41239,114.41239 0 0 0 -8.092977,0.28663 114.41239,114.41239 0 0 0 -11.352976,1.37803 114.41239,114.41239 0 0 0 -11.15916,2.504381 114.41239,114.41239 0 0 0 -3.69461,1.22736 114.41239,114.41239 0 0 0 -1.35237,0.449349 6.8908837,6.8908837 0 0 1 -0.12121,0.4761 6.8908837,6.8908837 0 0 1 -0.23585,0.647 6.8908837,6.8908837 0 0 1 -0.29975,0.6202 6.8908837,6.8908837 0 0 1 -0.36032,0.586901 6.8908837,6.8908837 0 0 1 -0.39913,0.525799 6.8908837,6.8908837 0 0 1 -0.0174,0.023 6.8908837,6.8908837 0 0 1 -0.469554,0.5039 6.8908837,6.8908837 0 0 1 -0.51756,0.4548 6.8908837,6.8908837 0 0 1 -0.16217,0.115801 133.70429,133.70429 0 0 1 0.770924,1.7225 133.70429,133.70429 0 0 1 0.0535,0.1201 133.70429,133.70429 0 0 1 2.33351,5.214 83.754412,83.754412 0 0 1 -0.38767,2.565102 83.754412,83.754412 0 0 1 -0.48371,3.1983 83.754412,83.754412 0 0 1 -1.14982,4.5032 83.754412,83.754412 0 0 1 -0.12885,0.5055 114.41239,114.41239 0 0 0 1.52762,0.5575 114.4124,114.4124 0 0 0 1.88854,0.6896 114.4124,114.4124 0 0 0 3.26162,0.8326 114.41239,114.41239 0 0 0 4.69212,1.1983 114.4124,114.4124 0 0 0 3.12733,0.7983 114.4124,114.4124 0 0 0 11.3082,1.7088 114.4124,114.4124 0 0 0 11.421783,0.5717 114.4124,114.4124 0 0 0 8.0935,-0.2866 114.4124,114.4124 0 0 0 11.35299,-1.378 114.4124,114.4124 0 0 0 4.90992,-1.1024 114.41239,114.41239 0 0 0 5.44992,-1.2229 114.41239,114.41239 0 0 0 0.79931,-0.1796 114.41239,114.41239 0 0 0 7.36192,-2.446 61.281678,61.281678 0 0 0 0.35323,-0.2528 83.754412,83.754412 0 0 1 -0.0884,-2.5001 83.754412,83.754412 0 0 1 0.13705,-2.7396 83.754412,83.754412 0 0 1 0.28172,-5.621902 83.754412,83.754412 0 0 1 0.51046,-3.3779 97.895651,97.895651 0 0 1 0.75836,0.3663 6.8908835,6.8908835 0 0 1 -0.13759,-0.1562 6.8908835,6.8908835 0 0 1 -0.40018,-0.5607 6.8908835,6.8908835 0 0 1 -0.13266,-0.2309 6.8908835,6.8908835 0 0 1 -0.21022,-0.3663 6.8908835,6.8908835 0 0 1 -0.21075,-0.4718 6.8908835,6.8908835 0 0 1 -0.0704,-0.1567 6.8908835,6.8908835 0 0 1 -0.21732,-0.6541 6.8908835,6.8908835 0 0 1 -0.15123,-0.6721 6.8908835,6.8908835 0 0 1 -0.083,-0.6835 6.8908835,6.8908835 0 0 1 -0.0169,-0.487601 6.8908835,6.8908835 0 0 1 0.0344,-0.6879 6.8908835,6.8908835 0 0 1 0.10259,-0.680799 6.8908835,6.8908835 0 0 1 0.14961,-0.585301 114.41239,114.41239 0 0 0 -0.15562,-0.057 114.41239,114.41239 0 0 0 -1.25955,-0.4596 114.41239,114.41239 0 0 0 -3.35008,-1.223079 114.41239,114.41239 0 0 0 -11.08053,-2.829271 114.41239,114.41239 0 0 0 -11.3082,-1.70882 114.41239,114.41239 0 0 0 -11.42231,-0.57168 z"
       id="path20477-8"
       inkscape:connector-curvature="0" />
    <ellipse
       style="opacity:1;vector-effect:none;fill:#808080;fill-opacity:1;stroke:#000000;stroke-width:0;stroke-linecap:round;stroke-linejoin:miter;stroke-miterlimit:4;stroke-dasharray:none;stroke-dashoffset:0;stroke-opacity:1;paint-order:markers fill stroke"
       id="path20665-5"
       cx="108.12315"
       cy="89.416031"
       rx="21.742998"
       ry="3.9532726" />
  </g>
</svg>
